<svg xmlns="http://www.w3.org/2000/svg" width="19.996" height="11" viewBox="0 0 19.996 11">
  <g id="グループ_116" data-name="グループ 116" transform="translate(376.587 -488.073) rotate(90)">
    <path id="線_21" data-name="線 21" d="M.1,10.047a1.1,1.1,0,0,1-.78-.324,1.11,1.11,0,0,1,0-1.566l8.8-8.833a1.1,1.1,0,0,1,1.559,0,1.11,1.11,0,0,1,0,1.566L.882,9.723A1.1,1.1,0,0,1,.1,10.047Z" transform="translate(489.073 366.54)" fill="#fff"/>
    <path id="線_22" data-name="線 22" d="M8.9,10.047a1.1,1.1,0,0,1-.78-.324L-.677.89a1.11,1.11,0,0,1,0-1.566,1.1,1.1,0,0,1,1.559,0l8.8,8.833a1.11,1.11,0,0,1,0,1.566A1.1,1.1,0,0,1,8.9,10.047Z" transform="translate(489.073 357.591)" fill="#fff"/>
  </g>
</svg>
