<svg xmlns="http://www.w3.org/2000/svg" width="500.005" height="94" viewBox="0 0 500.005 94">
  <g id="グループ_82" data-name="グループ 82" transform="translate(1313 -1113.833)">
    <rect id="長方形_125" data-name="長方形 125" width="500.005" height="94" transform="translate(-1313 1113.833)" fill="none"/>
    <path id="パス_2059" data-name="パス 2059" d="M-56.445-8.023-63.4-15.052a27.979,27.979,0,0,1-5.858,4.26A15.228,15.228,0,0,1-76.467-9.23a13.68,13.68,0,0,1-5.858-1.243,13.736,13.736,0,0,1-4.544-3.372,15.81,15.81,0,0,1-2.946-4.97A17.045,17.045,0,0,1-90.88-24.85v-.142a16.757,16.757,0,0,1,1.065-6,15.55,15.55,0,0,1,2.982-4.934,13.7,13.7,0,0,1,4.579-3.337,13.849,13.849,0,0,1,5.787-1.207,15.1,15.1,0,0,1,6.78,1.491,26.3,26.3,0,0,1,5.929,4.118l6.958-8.023a29.269,29.269,0,0,0-3.692-3.124,22.623,22.623,0,0,0-4.331-2.414,26.492,26.492,0,0,0-5.218-1.562,32.869,32.869,0,0,0-6.354-.568A26.577,26.577,0,0,0-86.9-48.528a24.686,24.686,0,0,0-8.165,5.538,25.647,25.647,0,0,0-5.325,8.165,25.916,25.916,0,0,0-1.917,9.976v.142A26.181,26.181,0,0,0-100.394-14.7a24.73,24.73,0,0,0,5.325,8.13,24.97,24.97,0,0,0,8.094,5.432A25.726,25.726,0,0,0-76.822.852a32.3,32.3,0,0,0,6.532-.6A23.372,23.372,0,0,0-64.93-1.527a23.64,23.64,0,0,0,4.508-2.8A36.049,36.049,0,0,0-56.445-8.023ZM4.26,0l-21.3-50.055H-27.122L-48.422,0h11.147l4.544-11.147h21.016L-7.171,0ZM-15.62-20.8H-28.826l6.6-16.117ZM51.4-14.7v-.142a13.883,13.883,0,0,0-1.029-5.609,11.37,11.37,0,0,0-3.053-4.082,18.714,18.714,0,0,0-4.97-2.982,50.572,50.572,0,0,0-6.71-2.237q-3.2-.852-5.289-1.491a15.7,15.7,0,0,1-3.3-1.349,4.192,4.192,0,0,1-1.668-1.6,4.482,4.482,0,0,1-.462-2.094v-.142a3.774,3.774,0,0,1,1.6-3.089,7.73,7.73,0,0,1,4.793-1.243A16.693,16.693,0,0,1,37.7-39.44a36.006,36.006,0,0,1,6.532,3.585l5.68-8.236A29.124,29.124,0,0,0,41.5-48.777,29.721,29.721,0,0,0,31.453-50.41a22.119,22.119,0,0,0-7.029,1.065,16.141,16.141,0,0,0-5.5,3.053,13.989,13.989,0,0,0-3.585,4.722,14.329,14.329,0,0,0-1.278,6.141v.142a14.453,14.453,0,0,0,1.171,6.177,11.343,11.343,0,0,0,3.3,4.153,19.2,19.2,0,0,0,5.183,2.8,61.88,61.88,0,0,0,6.816,2.059A52.83,52.83,0,0,1,35.606-18.6a15.615,15.615,0,0,1,3.053,1.42,3.946,3.946,0,0,1,1.491,1.526,4.312,4.312,0,0,1,.391,1.882v.142a3.911,3.911,0,0,1-1.882,3.443,9.554,9.554,0,0,1-5.29,1.243,18.7,18.7,0,0,1-7.845-1.633,32.442,32.442,0,0,1-6.993-4.4L12.07-7.242a29.5,29.5,0,0,0,9.94,6A32.915,32.915,0,0,0,33.157.71,24.97,24.97,0,0,0,40.541-.319,17,17,0,0,0,46.292-3.3,13.487,13.487,0,0,0,50.055-8.13,15.291,15.291,0,0,0,51.4-14.7ZM102.311,0V-9.727H75.331V-20.164h23.43v-9.727H75.331V-39.973h26.625V-49.7H64.468V0Z" transform="translate(-1064.461 1164.833)" fill="#f29600"/>
    <g id="グループ_20" data-name="グループ 20" transform="translate(-1313 1151.129)">
      <g id="グループ_19" data-name="グループ 19" transform="translate(0)">
        <g id="グループ_18" data-name="グループ 18">
          <rect id="長方形_1" data-name="長方形 1" width="29.851" height="9.029" transform="translate(0 10.411)" fill="#002063"/>
          <rect id="長方形_2" data-name="長方形 2" width="29.851" height="9.029" fill="#002063"/>
          <rect id="長方形_3" data-name="長方形 3" width="29.851" height="9.029" transform="translate(0 20.822)" fill="#002063"/>
        </g>
      </g>
    </g>
    <g id="グループ_23" data-name="グループ 23" transform="translate(-842.846 1151.129)">
      <g id="グループ_22" data-name="グループ 22" transform="translate(0)">
        <g id="グループ_21" data-name="グループ 21">
          <rect id="長方形_4" data-name="長方形 4" width="29.851" height="9.029" transform="translate(0 10.411)" fill="#002063"/>
          <rect id="長方形_5" data-name="長方形 5" width="29.851" height="9.029" fill="#002063"/>
          <rect id="長方形_6" data-name="長方形 6" width="29.851" height="9.029" transform="translate(0 20.822)" fill="#002063"/>
        </g>
      </g>
    </g>
    <text id="事例" transform="translate(-1063.864 1202.967)" font-size="25" font-family="HiraginoSans-W3, Hiragino Sans" letter-spacing="0.05em"><tspan x="-25.625" y="0">事例</tspan></text>
  </g>
</svg>
