<svg xmlns="http://www.w3.org/2000/svg" xmlns:xlink="http://www.w3.org/1999/xlink" width="500.001" height="241" viewBox="0 0 500.001 241">
  <defs>
    <clipPath id="clip-path">
      <rect id="長方形_47" data-name="長方形 47" width="500.001" height="241" fill="none"/>
    </clipPath>
  </defs>
  <g id="グループ_63" data-name="グループ 63" transform="translate(-39.662 -14395.669)">
    <g id="グループ_62" data-name="グループ 62" transform="translate(39.662 14395.669)" clip-path="url(#clip-path)">
      <g id="グループ_61" data-name="グループ 61" transform="translate(57.225 5.079)">
        <path id="パス_1151" data-name="パス 1151" d="M548.554,15052.065c.473.729.989,1.48,1.562,2.327.056,1.048-.133,1.861-.619,2.16-1.468.9-1.458,2.5-7.235,1.708-6.145-.838-12.473-5.25-20.687-12.174a.342.342,0,0,0-.125-.068c-.034-7.322.3-13.66,0-22.014-.665-18-1.636-40.228-1.633-58.406v-19.423c10.306,0,20.46-.194,28.368-.607a.339.339,0,0,0,.011.1c2.869,22.8-1.859,45.762-4.7,68.566-1.087,8.738-.59,28.54,2.821,34.053A40.824,40.824,0,0,0,548.554,15052.065Z" transform="translate(-219.078 -14540.846)" fill="#fff"/>
        <path id="パス_1152" data-name="パス 1152" d="M479.829,15051.569c.769-1.092,1.448-2.155,2.1-3.29,3.413-5.514,3.733-25.312,2.645-34.054-2.837-22.8-7.563-45.767-4.7-68.565l.012-.119c8.469.405,18.871.618,29.139.628v19.421c0,18.179-.968,40.4-1.633,58.407-.327,8.819-.413,14.673-.629,22.344-8.066,6.771-14.307,11.084-20.379,11.911-5.777.787-5.767-.8-7.234-1.708-.672-.413-.778-1.82-.447-3.462C479.109,15052.567,479.479,15052.065,479.829,15051.569Z" transform="translate(-208.571 -14540.837)" fill="#fff"/>
        <path id="パス_1153" data-name="パス 1153" d="M513.231,14615.03c-5.055,0-12.179-.806-17.081-2.754l-.168-.067c5.931,16.8,15.212,40.34,18.568,49.123,2.174-5.4,11.2-30.884,16.679-49.116l-1.992.532a69.649,69.649,0,0,1-15.876,2.282Z" transform="translate(-213.012 -14455.916)" fill="#fff"/>
        <path id="パス_1154" data-name="パス 1154" d="M549.168,14535.962c-1.654-5.143-4.855-15.592-5.087-34.264a116.9,116.9,0,0,0-.226-15.767c-.721-10.113-5.245-21.411-11.755-27.687-2.815-2.717-3.633-3.983-6.7-5.645l-4.8-2.6-2.556-.984c-4.525-1.743-8.732-2.581-16.674-2.581a46.323,46.323,0,0,0-29.751,11.626c-8.53,8.165-13.943,23.076-13.261,43.641,0,14.986-1.139,25.8-2.739,31.937a76.845,76.845,0,0,0-2.057,15.474c-.06,6.987,6.985,14.647,17.37,12.285l2.06-.065c3.482-1.8,12.962-6.97,14.062-9.7.927-2.29.687-5.455.728-7.925,0,0-.054-.965-.127-2.171a28.593,28.593,0,0,1-10.316-8.108,33.779,33.779,0,0,1-6.439-12.562l-1.269-.2a8.331,8.331,0,0,1-3.9-1.754,12.6,12.6,0,0,1-3.265-4.282,19.864,19.864,0,0,1-2.027-10.528,6.627,6.627,0,0,1,.695-2.666,4.683,4.683,0,0,1,3.371-2.243,5.03,5.03,0,0,1,2.532.288c8.024-.687,13.707-4.5,18.682-9.187,3.84-.876,7.116-1.8,7.116-1.8,6.35-3.277,14.072-8.142,18.232-11.921,2.344-1.264,7.2-.248,8.167.542,3.823.1,7.2,3.349,8.715,6.343a61.3,61.3,0,0,1,4.4,10.606l2.512,6.535.269-.246a4.976,4.976,0,0,1,3.974-1.16,4.683,4.683,0,0,1,3.371,2.243,6.625,6.625,0,0,1,.695,2.666,19.85,19.85,0,0,1-2.027,10.528,12.6,12.6,0,0,1-3.265,4.282,8.319,8.319,0,0,1-3.9,1.754l-.667.1c-.319,1.2-.678,2.2-.854,2.738-1.171,3.171-7.885,14.4-16.227,17.952.02,1.324.036,2.244.036,2.244.04,2.472-.2,5.636.728,7.926.848,2.1,6.152,5.644,10,7.988l7.39-.235c9.291,3.58,16.829-4.744,16.77-11.731A36.448,36.448,0,0,0,549.168,14535.962Z" transform="translate(-202.219 -14413.681)" fill="#a18d7d"/>
        <path id="パス_1155" data-name="パス 1155" d="M474.061,14572.273c.491-.217,14-7.052,15.329-10.336.928-2.291.688-5.455.728-7.924,0,0-.054-.967-.127-2.171a28.6,28.6,0,0,1-10.317-8.109,33.789,33.789,0,0,1-6.438-12.562l-1.27-.2a8.348,8.348,0,0,1-3.9-1.752,12.621,12.621,0,0,1-3.265-4.283,19.874,19.874,0,0,1-2.026-10.528,6.622,6.622,0,0,1,.695-2.666,4.68,4.68,0,0,1,3.371-2.243,5.028,5.028,0,0,1,2.531.288c8.025-.687,13.707-4.5,18.682-9.187,3.841-.877,7.116-1.8,7.116-1.8,6.35-3.276,14.072-8.141,18.232-11.921,4.152.216,8.168.543,8.168.543,3.823.1,7.2,3.349,8.715,6.343a61.266,61.266,0,0,1,4.4,10.605s2.257,5.188,3.526,5.406c.174-.159-.745.883-.745.883a4.973,4.973,0,0,1,3.974-1.159,4.677,4.677,0,0,1,3.371,2.243,6.609,6.609,0,0,1,.695,2.666,19.858,19.858,0,0,1-2.025,10.528,12.65,12.65,0,0,1-3.266,4.283,8.347,8.347,0,0,1-3.9,1.752l-.667.105c-.319,1.194-.678,2.2-.854,2.736-1.17,3.173-7.885,14.4-16.226,17.955.02,1.322.035,2.243.035,2.243.04,2.471-.2,5.635.728,7.926,1.329,3.282,13.574,10.119,14.061,10.334,0,0-7.963,19.1-28.969,19.1S474.061,14572.273,474.061,14572.273Z" transform="translate(-204.544 -14423.984)" fill="#fff"/>
        <path id="パス_1156" data-name="パス 1156" d="M568.548,14519.813a124.212,124.212,0,0,0,3.394,28.778c.766,3.018,1.824,5.946,2.612,8.955,1.161,4.434,1.992,9.5-.58,13.573a9.865,9.865,0,0,1-12.109,4.107c-2.86-1.05-4.093,3.515-1.256,4.556a14.254,14.254,0,0,0,14.608-2.872,15.874,15.874,0,0,0,5.093-13.026c-.265-4.75-1.709-9.121-3.019-13.644a93.709,93.709,0,0,1-2.434-10.818,131.438,131.438,0,0,1-1.581-19.608c-.042-3.038-4.769-3.046-4.727,0Z" transform="translate(-229.049 -14431.795)" fill="#211715"/>
        <path id="パス_1157" data-name="パス 1157" d="M455.2,14519.813c-.008,10.077-.1,20.579-2.442,30.442a83.752,83.752,0,0,0-2.313,15.453,15.424,15.424,0,0,0,4.373,11.884c4.212,4.258,10.231,5.424,15.952,4.2,2.973-.637,1.715-5.2-1.255-4.555a12.091,12.091,0,0,1-11.476-3.108c-2.793-2.9-3.045-6.279-2.755-10.091a95.652,95.652,0,0,1,2.22-13.312,94.635,94.635,0,0,0,1.679-11.832c.566-6.342.745-12.712.751-19.077,0-3.041-4.727-3.045-4.727,0Z" transform="translate(-201.414 -14431.794)" fill="#211715"/>
        <path id="パス_1158" data-name="パス 1158" d="M563.461,14519.261a2.515,2.515,0,0,1,3.53.444l.022.028a5.427,5.427,0,0,1,.518,2.764,16.554,16.554,0,0,1-.236,3.406c-.739,4.048-2.779,8.915-7.283,9.723a2.383,2.383,0,0,0-1.654,2.906,2.417,2.417,0,0,0,2.907,1.654c7.035-1.261,10.4-9.192,10.923-15.566.274-3.308-.02-7.041-2.877-9.176a7.371,7.371,0,0,0-9.2.483,2.378,2.378,0,0,0,0,3.34,2.414,2.414,0,0,0,3.343,0Z" transform="translate(-228.865 -14430.911)" fill="#211715"/>
        <path id="パス_1159" data-name="パス 1159" d="M551.349,14540.312a18.6,18.6,0,0,1-1.085,5.015c-.075.223-.578,1.534-.254.808-.157.354-.32.709-.494,1.049a42.652,42.652,0,0,1-3.672,5.9c-3.174,4.354-7.49,8.967-12.921,10.239-2.954.7-1.706,5.252,1.258,4.558,6.585-1.545,11.69-6.923,15.565-12.167,3.341-4.524,6.1-9.65,6.329-15.4C556.2,14537.272,551.467,14537.277,551.349,14540.312Z" transform="translate(-221.984 -14437.018)" fill="#211715"/>
        <path id="パス_1160" data-name="パス 1160" d="M471.682,14515.919a7.373,7.373,0,0,0-9.2-.483c-2.86,2.126-3.151,5.875-2.878,9.176.529,6.378,3.889,14.306,10.923,15.566a2.43,2.43,0,0,0,2.907-1.655,2.382,2.382,0,0,0-1.654-2.905c-4.5-.808-6.544-5.67-7.282-9.723a16.42,16.42,0,0,1-.236-3.216,6.353,6.353,0,0,1,.441-2.822,2.5,2.5,0,0,1,3.453-.729c.062.041.122.083.179.129a2.429,2.429,0,0,0,3.343,0,2.382,2.382,0,0,0,0-3.342Z" transform="translate(-203.734 -14430.908)" fill="#211715"/>
        <path id="パス_1161" data-name="パス 1161" d="M472.313,14539.737a38.733,38.733,0,0,0,8.272,18.545c4.659,5.515,10.829,9.48,18.09,10.265a2.378,2.378,0,0,0,2.363-2.363,2.415,2.415,0,0,0-2.363-2.361c-6.133-.663-11.248-4.613-15.051-9.245a34.419,34.419,0,0,1-6.748-16.1,2.384,2.384,0,0,0-2.907-1.654,2.418,2.418,0,0,0-1.654,2.907Z" transform="translate(-206.97 -14436.688)" fill="#211715"/>
        <path id="パス_1162" data-name="パス 1162" d="M556.253,14503.125a55.244,55.244,0,0,0-4.963-11.771c-2.169-3.73-6.013-6.715-10.428-6.912a2.363,2.363,0,1,0,0,4.726,7.114,7.114,0,0,1,3.751,1.557,10.4,10.4,0,0,1,2.924,3.615,56.776,56.776,0,0,1,4.158,10.041,2.364,2.364,0,0,0,4.558-1.258Z" transform="translate(-223.832 -14423.363)" fill="#211715"/>
        <path id="パス_1163" data-name="パス 1163" d="M519.482,14445.9a47.5,47.5,0,0,0-19.38-2.61,48.812,48.812,0,0,0-21.046,6.28,38.189,38.189,0,0,0-12.273,10.558,47.993,47.993,0,0,0-7.423,16,84.272,84.272,0,0,0-2.555,24.737c.092,3.034,4.82,3.047,4.727,0-.379-12.337,1.094-25.631,7.9-36.264,6.068-9.473,17.637-15.264,28.638-16.425a44.036,44.036,0,0,1,20.158,2.278,2.383,2.383,0,0,0,2.907-1.655,2.416,2.416,0,0,0-1.654-2.905Z" transform="translate(-203.02 -14412.848)" fill="#211715"/>
        <path id="パス_1164" data-name="パス 1164" d="M570.161,14503a87.964,87.964,0,0,0,.037-11.337,74.215,74.215,0,0,0-1-10.1,47.219,47.219,0,0,0-9.736-21.557,34.488,34.488,0,0,0-9.147-8.138c-2.661-1.479-5.048,2.6-2.386,4.081a21.161,21.161,0,0,1,4.8,3.866,35.94,35.94,0,0,1,10.485,17.234,52.019,52.019,0,0,1,2.151,12.509,95.81,95.81,0,0,1,.075,13.44c-.248,3.031,4.479,3.015,4.727,0Z" transform="translate(-225.936 -14414.985)" fill="#211715"/>
        <path id="パス_1165" data-name="パス 1165" d="M534.522,14576.186c.036,2.823-.236,5.865.812,8.553a9.726,9.726,0,0,0,2.954,3.729,66.59,66.59,0,0,0,9.444,6.461,30.851,30.851,0,0,0,2.752,1.559,2.432,2.432,0,0,0,3.232-.847,2.383,2.383,0,0,0-.847-3.233,52.415,52.415,0,0,1-6.126-3.633q-1.157-.741-2.29-1.523c-.361-.247-.718-.5-1.071-.757l-.557-.41-.236-.174c-.289-.218.426.341-.051-.039-.61-.485-1.212-.979-1.773-1.521-.229-.22-.453-.447-.663-.687-.086-.1-.166-.2-.253-.3.281.32.183.279.028,0-.066-.118-.133-.236-.194-.354.249.491-.043-.226-.094-.42a7.962,7.962,0,0,1-.283-1.772c-.109-1.534-.046-3.08-.065-4.621-.038-3.038-4.765-3.047-4.727,0Z" transform="translate(-222.818 -14446.156)" fill="#211715"/>
        <path id="パス_1166" data-name="パス 1166" d="M490.827,14576.184c-.016,1.393.032,2.786-.04,4.178a11.05,11.05,0,0,1-.183,1.679c-.065.316-.169.623-.236.937-.119.522.168-.148-.059.182-.066.095-.131.2-.187.295-.22.4.33-.341.056-.073-.236.235-.45.487-.693.715-.262.247-.535.48-.811.709-.151.119-.3.244-.457.365.414-.325-.069.047-.224.162a78.271,78.271,0,0,1-9.4,5.705c-.872.473-1.745.961-2.647,1.367a2.381,2.381,0,0,0-.848,3.233,2.423,2.423,0,0,0,3.235.847,74.423,74.423,0,0,0,7.09-3.863,58.833,58.833,0,0,0,5.1-3.315,14.221,14.221,0,0,0,3.767-3.593,10.288,10.288,0,0,0,1.165-4.467c.16-1.682.08-3.375.1-5.062.038-3.042-4.689-3.044-4.727,0Z" transform="translate(-207.616 -14446.154)" fill="#211715"/>
        <path id="パス_1167" data-name="パス 1167" d="M522.8,14483.413a51.061,51.061,0,0,1-8.086,6.186,118.28,118.28,0,0,1-10.456,6.108,2.362,2.362,0,0,0,2.386,4.077,118.148,118.148,0,0,0,10.718-6.277,58.111,58.111,0,0,0,8.781-6.753c2.175-2.127-1.167-5.473-3.343-3.341Z" transform="translate(-214.824 -14422.929)" fill="#211715"/>
        <path id="パス_1168" data-name="パス 1168" d="M500.246,14489.036c-6.116,6.219-11.681,13.876-20.075,17.162a2.435,2.435,0,0,0-1.654,2.906,2.378,2.378,0,0,0,2.908,1.654c9.328-3.652,15.348-11.45,22.161-18.377,2.134-2.171-1.205-5.513-3.343-3.34Z" transform="translate(-208.549 -14424.356)" fill="#211715"/>
        <path id="パス_1169" data-name="パス 1169" d="M534.755,14693.315c1.46,15.812,3.332,34.247,3.71,37.682-6.711,1.344-24.765-.577-31.272-2.567-5.3-1.618-7.873-5.058-9.808-8.923l-5.237-9.956c-1.865,6.167-5.228,13.084-11.526,15.947-7.308,3.318-31.488,6.566-36.584,5.55v-50.12a43.19,43.19,0,0,1-13.577,9.657,12.077,12.077,0,0,1-8.4-.089,9.368,9.368,0,0,1-4.858-4.636,28.093,28.093,0,0,1-1.487-15.181c2.495-16.711,6.854-28.431,10.065-43.924a48.24,48.24,0,0,1,4.975-12.943,19.191,19.191,0,0,1,10.431-7.968l3.765-1.488c4.853-2.408,13.968-6.364,20.628-9.427,1.909-1.341,3.708-2.494,5.011-3.23,2.682,11.563,18.752,52.184,23.412,64.375,2.947-7.308,18.393-51.291,20.7-64.475a53.474,53.474,0,0,1,7.5,5.276c5.728,2.751,12.631,5.915,16.5,7.833a34.023,34.023,0,0,1,7.181,4.289l1.115,7.734c6.457-1,14.153-2.185,19.905-2.751,3.683,12.12,6.3,21.178,7.848,36.284.458,4.472.731,7.869-1.848,12.184a10.458,10.458,0,0,1-6.617,5c-.171.062-.344.119-.516.173-10.379,3.188-21.979-1.93-30.287-12.147-.781,5.51-1.489,10.716-2.442,17.072C533.275,14676.728,533.954,14684.626,534.755,14693.315Z" transform="translate(-192.473 -14450.664)" fill="#c0bdbd"/>
        <path id="パス_1170" data-name="パス 1170" d="M546.028,14772.105c.064.352.125.7.186,1.042,6.262,35.474-2.518,109.144-3.119,120.645a1.17,1.17,0,0,1-1.044,1.1c-15.458,1.835-59.1,1.771-77.635.056a1.162,1.162,0,0,1-1.063-1.1c-.625-11.644-9.594-85.247-3.336-120.7.053-.3.107-.606.163-.916.084-.463,17.745-22.622,43.654-22.622S546.028,14772.105,546.028,14772.105Z" transform="translate(-203.298 -14490.921)" fill="#c0bdbd"/>
        <path id="パス_1171" data-name="パス 1171" d="M475.775,14944.887c-2.233,18.151.236,36.371,2.767,54.353a200,200,0,0,1,2.416,21.082,109.135,109.135,0,0,1-.709,18.043c-.186,1.4-.429,2.792-.753,4.165-.128.546-.271,1.092-.435,1.63-.075.247-.155.49-.236.732-.03.083-.382.928-.195.521a41.719,41.719,0,0,1-6.365,9c-1.949,2.31,1.378,5.669,3.341,3.34a59.7,59.7,0,0,0,6.728-9.214,20.817,20.817,0,0,0,2.043-6.259,95.405,95.405,0,0,0,1.383-18.232,151.675,151.675,0,0,0-1.853-20.348c-1.265-9.115-2.628-18.222-3.469-27.388a147.015,147.015,0,0,1,.071-31.42,2.375,2.375,0,0,0-2.363-2.362,2.422,2.422,0,0,0-2.363,2.362Z" transform="translate(-206.826 -14540.069)" fill="#211715"/>
        <path id="パス_1172" data-name="パス 1172" d="M552.934,14944.887c2.254,18.31-.289,36.675-2.836,54.809a185.4,185.4,0,0,0-2.333,20.982,113.02,113.02,0,0,0,.956,18.589,31.212,31.212,0,0,0,2.009,8.117,58.6,58.6,0,0,0,5.462,8.926c1.683,2.514,5.779.15,4.082-2.386a75.593,75.593,0,0,1-5.193-8.318,14.969,14.969,0,0,1-.76-2.239c-.328-1.2-.573-2.42-.781-3.644a98.238,98.238,0,0,1-1.077-17.573,159.016,159.016,0,0,1,2.033-20.058c1.255-8.956,2.556-17.915,3.34-26.931a144.954,144.954,0,0,0-.176-30.274,2.437,2.437,0,0,0-2.363-2.362A2.379,2.379,0,0,0,552.934,14944.887Z" transform="translate(-226.176 -14540.068)" fill="#211715"/>
        <path id="パス_1173" data-name="パス 1173" d="M515.467,14946.643c0,13.929.02,27.846-.374,41.769-.381,13.4-1,26.792-1.419,40.192-.221,7.1-.354,14.2-.576,21.3-.1,3.04,4.631,3.036,4.727,0,.4-12.726.709-25.448,1.2-38.169.512-13.5,1.015-27.013,1.15-40.525.082-8.187.028-16.379.026-24.57,0-3.038-4.727-3.044-4.727,0Z" transform="translate(-217.367 -14540.535)" fill="#211715"/>
        <path id="パス_1174" data-name="パス 1174" d="M516.647,14946.643c0,13.929-.02,27.846.374,41.769.381,13.419,1.226,26.843,1.373,40.267.081,7.4-.245,14.79-.021,22.187.092,3.034,4.818,3.048,4.727,0-.2-6.528.033-13.055.034-19.585s-.337-13.034-.584-19.545c-.513-13.5-1.017-27.013-1.151-40.525-.082-8.187-.028-16.379-.026-24.57,0-3.038-4.727-3.044-4.727,0Z" transform="translate(-218.271 -14540.535)" fill="#211715"/>
        <path id="パス_1175" data-name="パス 1175" d="M457.09,14778.491a194.483,194.483,0,0,0-2.455,34.008c-.022,12.857.567,25.716,1.406,38.546.724,11.092,1.665,22.164,2.686,33.233q.531,5.669,1.047,11.329.178,1.91.318,3.827c.032.432.043.866.085,1.3a3.718,3.718,0,0,0,3.676,3.489c11.514,1.2,23.235,1.19,34.8,1.265,12.116.077,24.275.013,36.368-.795,2.076-.14,4.154-.292,6.218-.548a3.663,3.663,0,0,0,3.408-3.464c.045-.474.057-.938.091-1.407.214-2.954.5-5.906.766-8.859.919-10.094,1.818-20.187,2.553-30.295.925-12.723,1.637-25.468,1.874-38.226a262.127,262.127,0,0,0-1.254-35.587q-.473-3.987-1.182-7.936a2.384,2.384,0,0,0-2.907-1.655,2.416,2.416,0,0,0-1.654,2.907c1.935,10.779,2.305,21.912,2.341,32.9.04,12.476-.49,24.953-1.261,37.4-.675,10.907-1.56,21.8-2.534,32.685-.347,3.886-.709,7.773-1.056,11.661-.118,1.354-.236,2.71-.346,4.066q-.057.708-.105,1.411a2.034,2.034,0,0,0-.04.642c.118.295-.7.9.54-.378.816-.845.543-.569-.1-.5a319.477,319.477,0,0,1-32.312,1.246c-12.224.072-24.471-.067-36.679-.735q-1.7-.094-3.4-.208a29.237,29.237,0,0,0-3.613-.277,2.321,2.321,0,0,0-.513-.045c2.893-1.528.843,1.933,1.033.944a2.819,2.819,0,0,0-.042-.648c-.035-.521-.077-1.044-.118-1.566-.257-3.168-.564-6.334-.859-9.5-.936-10.04-1.836-20.073-2.575-30.122-.907-12.36-1.606-24.742-1.847-37.137a260.252,260.252,0,0,1,1.182-34.856c.265-2.3.607-4.546,1.023-6.861a2.429,2.429,0,0,0-1.654-2.905,2.382,2.382,0,0,0-2.907,1.654Z" transform="translate(-202.484 -14497.805)" fill="#211715"/>
        <path id="パス_1176" data-name="パス 1176" d="M527.861,14609.688c-10.216,2.688-21.8,3.406-31.831-.472a2.38,2.38,0,0,0-2.907,1.653,2.417,2.417,0,0,0,1.654,2.906,49.606,49.606,0,0,0,17.023,2.834,65.339,65.339,0,0,0,17.321-2.362c2.939-.772,1.692-5.331-1.258-4.555Z" transform="translate(-212.266 -14455.132)" fill="#211715"/>
        <path id="パス_1177" data-name="パス 1177" d="M548.021,14595.6c4.793,2.535,9.74,4.781,14.644,7.088,2.325,1.092,4.653,2.182,6.964,3.308a39.215,39.215,0,0,1,8.067,4.589c2.327,1.92,5.691-1.405,3.341-3.343-4.534-3.74-10.316-5.964-15.6-8.447-5.034-2.361-10.111-4.666-15.03-7.268-2.687-1.417-5.081,2.657-2.386,4.081Z" transform="translate(-225.955 -14450.57)" fill="#211715"/>
        <path id="パス_1178" data-name="パス 1178" d="M569.215,14663.562a73.752,73.752,0,0,1-.84,27.648c-1.654,7-2.407,28.976-1.268,36.682" transform="translate(-230.973 -14468.999)" fill="none"/>
        <path id="パス_1179" data-name="パス 1179" d="M463.291,14663.562a73.718,73.718,0,0,0,.841,27.648c1.654,7,2.4,28.976,1.267,36.682" transform="translate(-204.458 -14468.999)" fill="none"/>
        <path id="パス_1180" data-name="パス 1180" d="M474.311,14591.554c-5.218,2.466-10.51,4.773-15.765,7.153-2.3,1.042-4.6,2.088-6.869,3.188a63.968,63.968,0,0,1-6.437,2.382c-2.856.991-1.628,5.559,1.256,4.555a69.176,69.176,0,0,0,7-2.579c2.338-1.11,4.676-2.219,7.033-3.288,5.388-2.444,10.814-4.8,16.164-7.332,2.749-1.3.355-5.373-2.386-4.08Z" transform="translate(-199.686 -14450.589)" fill="#211715"/>
        <path id="パス_1181" data-name="パス 1181" d="M499.888,14743.43a38.6,38.6,0,0,1-4.771,12.263,16.4,16.4,0,0,1-4.565,4.849,12.916,12.916,0,0,1-4.093,1.883,113.134,113.134,0,0,1-23.379,4.272c-1.98.194-3.968.354-5.957.408-.758.022-1.517.033-2.275,0-.277-.011-.552-.032-.827-.047-.79-.042.227.063-.325-.04-2.973-.555-4.248,4-1.258,4.556a34.543,34.543,0,0,0,9.172-.021c4.551-.389,9.088-1,13.589-1.764a95.567,95.567,0,0,0,12.009-2.652,20.708,20.708,0,0,0,10.844-7.435c3.309-4.36,5.158-9.734,6.391-15.019.691-2.952-3.865-4.22-4.557-1.257Z" transform="translate(-201.497 -14488.916)" fill="#211715"/>
        <path id="パス_1182" data-name="パス 1182" d="M459.066,14700.217c-.667,11.785-4.835,53.075-5.425,58.438" transform="translate(-202.237 -14478.336)" fill="none"/>
        <path id="パス_1183" data-name="パス 1183" d="M448.838,14614.108c.68,8.432,2.5,25.042,4.92,41.136,1.23,8.166,2.813,14.574,4.08,23.04" transform="translate(-201.015 -14456.398)" fill="none"/>
        <path id="パス_1184" data-name="パス 1184" d="M570.066,14699.44c.963,16.813,2.894,33.607,4.589,50.356.272,2.7.541,5.391.836,8.082a2.434,2.434,0,0,0,2.363,2.362,2.38,2.38,0,0,0,2.363-2.362c-1.719-15.658-3.19-31.356-4.549-47.051-.329-3.792-.658-7.586-.876-11.388-.174-3.022-4.9-3.044-4.727,0Z" transform="translate(-231.864 -14477.559)" fill="#211715"/>
        <path id="パス_1185" data-name="パス 1185" d="M576.727,14637.868c-1.367,9.071-2.791,18.135-4.2,27.2-.591,3.839-1.182,7.678-1.7,11.527a58.139,58.139,0,0,0-.763,7.294c-.022,3.042,4.7,3.044,4.727,0a52.987,52.987,0,0,1,.683-6.692c.514-3.78,1.1-7.539,1.678-11.3,1.384-8.924,2.784-17.844,4.129-26.771a2.438,2.438,0,0,0-1.654-2.907,2.379,2.379,0,0,0-2.907,1.653Z" transform="translate(-231.865 -14462.011)" fill="#211715"/>
        <path id="パス_1186" data-name="パス 1186" d="M452.21,15381.053a8.788,8.788,0,0,1-1.581-3.975,13.635,13.635,0,0,1,2.09-8.377,62.7,62.7,0,0,1,6.648-9.226c3.955-4.634,6.7-8.122,9.956-11.858,1.848-2.12,3.272-3.681,5.055-5.753-2.556,2.481-3.8,8.121-2.328,9.023s3.708.9,5.436.932c7.55.132,18.3-7.621,22.49-11.4.286-.257.819.1.827.513.038,4.861.447,6.964.422,12.335a12.362,12.362,0,0,1-.935,4.16c-1.2,3.238-4.749,4.8-7.6,6.746-7.414,5.07-13.092,13.465-20.861,17.974-4.49,2.6-8.7,4.133-13.727,2.826A10.45,10.45,0,0,1,452.21,15381.053Z" transform="translate(-201.46 -14641.42)" fill="#7a7473"/>
        <path id="パス_1187" data-name="パス 1187" d="M453.429,15379.064c-2.176-3.208-1.279-6.792.509-9.967a62.9,62.9,0,0,1,7.031-9.63c4.739-5.594,9.47-11.179,14.26-16.729,1.966-2.277-1.191-5.544-3.342-3.34a13.289,13.289,0,0,0-3.646,8.842,4.427,4.427,0,0,0,1.666,3.793c.221.161.345.255.043.009.118.1.236.2.347.3a11.225,11.225,0,0,0,1.135.923c2.451,1.659,5.947,1.181,8.669.646a28.135,28.135,0,0,0,8.941-3.763,96.35,96.35,0,0,0,11.781-8.85l-1.043.607.251-.08h-1.256l.268.09-1.043-.607.213.216-.608-1.042a13.975,13.975,0,0,1,.1,3.087c.046.979.108,1.957.162,2.937a32.7,32.7,0,0,1,.082,6.932,7.656,7.656,0,0,1-3.2,5.26c-1.745,1.269-3.655,2.281-5.381,3.581-7.613,5.734-13.166,14-21.861,18.279-4.334,2.133-10.77,2.9-14.077-1.492a2.439,2.439,0,0,0-3.234-.846,2.377,2.377,0,0,0-.848,3.23,14.215,14.215,0,0,0,12.408,5.543c4.689-.286,9.176-2.521,12.94-5.222,7.2-5.165,12.408-12.653,19.954-17.377a23.739,23.739,0,0,0,4.995-3.717,12.267,12.267,0,0,0,2.91-6.247c.731-4.15-.084-8.624-.189-12.813-.029-1.209.092-2.481-.8-3.435a2.856,2.856,0,0,0-3.315-.709,15.575,15.575,0,0,0-2.955,2.313c-1.008.827-2.023,1.643-3.059,2.435a41,41,0,0,1-10.495,6.321,17.466,17.466,0,0,1-5.834,1.111,9.208,9.208,0,0,1-1.137-.05c.054.009-.78-.252-.523-.141.32.141-.617-.4-.245-.137.275.191-.227-.205-.3-.269-.154-.135-.307-.269-.465-.4-.182-.15-1.078-.958-.555-.363-.181-.207.434.447.338.434s-.041-.212-.041-.209a8.173,8.173,0,0,1,.043-1.03,8.759,8.759,0,0,1,2.213-4.746l-3.341-3.34c-5.389,6.241-10.806,12.452-16.033,18.833-5.04,6.152-11.92,15.238-6.506,23.217C451.049,15383.953,455.146,15381.592,453.429,15379.064Z" transform="translate(-200.643 -14640.624)" fill="#211715"/>
        <path id="パス_1188" data-name="パス 1188" d="M569.514,15381.053a8.805,8.805,0,0,0,1.581-3.975,13.635,13.635,0,0,0-2.09-8.377,62.7,62.7,0,0,0-6.649-9.226c-3.955-4.634-6.7-8.122-9.954-11.858-1.85-2.12-3.274-3.681-5.057-5.753,2.556,2.481,3.8,8.121,2.328,9.023s-3.707.9-5.436.932c-7.55.132-18.3-7.621-22.489-11.4-.286-.257-.819.1-.828.513-.038,4.861-.445,6.964-.422,12.335a12.4,12.4,0,0,0,.935,4.16c1.2,3.238,4.749,4.8,7.6,6.746,7.413,5.07,13.091,13.465,20.861,17.974,4.49,2.6,8.7,4.133,13.727,2.826A10.45,10.45,0,0,0,569.514,15381.053Z" transform="translate(-219.251 -14641.42)" fill="#7a7473"/>
        <path id="パス_1189" data-name="パス 1189" d="M570.75,15381.446c5.411-7.979-1.462-17.068-6.506-23.217-5.234-6.378-10.645-12.591-16.034-18.832l-3.342,3.339a8.7,8.7,0,0,1,2.1,4.233c.119.529,0,1.18.147,1.678-.109-.367.118.057-.036.074.4-.048-.827-1.217.591-.672-.137-.053-.792.585-.87.648-.256.213-.493.447-.751.657.109-.089.236-.062-.133.057-.082.027-.409.173.038,0a2.4,2.4,0,0,1-.425.129,13.828,13.828,0,0,1-4.787-.3,29.418,29.418,0,0,1-9.926-4.885c-2-1.38-3.912-2.87-5.79-4.4-1.757-1.434-4.124-4.135-6.381-1.883-1.481,1.486-.927,4.544-1.033,6.5-.109,2.007-.236,4.022-.266,6.038a17.063,17.063,0,0,0,1.282,7.324,11.831,11.831,0,0,0,4.161,4.724c1.677,1.219,3.511,2.2,5.182,3.426a50.074,50.074,0,0,1,4.829,4.169c3.309,3.151,6.4,6.537,9.926,9.45,3.933,3.249,8.666,6.289,13.8,7.079a14.572,14.572,0,0,0,14.218-5.332,2.378,2.378,0,0,0-.848-3.232,2.419,2.419,0,0,0-3.233.848c-2.845,3.772-8.334,3.757-12.355,2.25-4.5-1.687-8.3-4.811-11.735-8.086-3.413-3.256-6.6-6.762-10.281-9.73a59.776,59.776,0,0,0-5.541-3.861c-1.666-1.063-3.33-2.2-4.018-4.135-.928-2.59-.69-5.307-.555-8.009.054-1.108.126-2.214.184-3.323a17.226,17.226,0,0,1,.129-3.691l-.609,1.043.214-.216-1.043.605.268-.09h-1.255l.251.08-1.042-.605c5.771,4.853,12.084,10.335,19.54,12.334,2.836.758,6.6,1.379,9.335-.052a11.619,11.619,0,0,0,1.944-1.489c.093-.076-.344.27.038-.008a3.758,3.758,0,0,0,1.61-2.552c.662-3.467-1.133-7.679-3.526-10.133-2.148-2.2-5.307,1.063-3.341,3.339,4.789,5.553,9.522,11.137,14.259,16.729a62.567,62.567,0,0,1,7.031,9.631c1.787,3.176,2.688,6.756.511,9.967C564.956,15381.586,569.049,15383.951,570.75,15381.446Z" transform="translate(-218.445 -14640.62)" fill="#211715"/>
        <path id="パス_1190" data-name="パス 1190" d="M509.106,14686.776a7.9,7.9,0,0,0-1.545-.56,5.063,5.063,0,0,0-2.289.071,5.678,5.678,0,0,0-2.825,1.73,5.915,5.915,0,0,0-1.44,3.544,4.823,4.823,0,0,0,.84,2.99,7.015,7.015,0,0,0,2.329,2.245,6.741,6.741,0,0,0,3.092.766,4.745,4.745,0,0,0,3.461-1.136,5.69,5.69,0,0,0,1.645-2.773,6.319,6.319,0,0,0-3.268-6.876,2.561,2.561,0,0,0-1.821-.236,2.414,2.414,0,0,0-1.418,1.085,2.382,2.382,0,0,0-.236,1.82,2.3,2.3,0,0,0,1.086,1.418,3.685,3.685,0,0,1,.747.446l-.479-.369a3.935,3.935,0,0,1,.59.6l-.368-.473a5.78,5.78,0,0,1,.7,1.226l-.236-.563a3.543,3.543,0,0,1,.228.837l-.084-.626a3.235,3.235,0,0,1-.015.75l.084-.626a3.771,3.771,0,0,1-.236.848l.236-.564a4.093,4.093,0,0,1-.482.826l.368-.479a3.073,3.073,0,0,1-.455.465l.479-.37a2.163,2.163,0,0,1-.37.227l.564-.237a2.015,2.015,0,0,1-.528.135l.628-.083a6.029,6.029,0,0,1-1.489-.031l.628.086a4.137,4.137,0,0,1-.894-.223l.565.237a3.927,3.927,0,0,1-.816-.48l.473.368a4.931,4.931,0,0,1-.851-.864l.368.479a4.4,4.4,0,0,1-.5-.841l.236.564a2.306,2.306,0,0,1-.157-.555l.084.628a3.688,3.688,0,0,1,.008-.826l-.084.626a3.539,3.539,0,0,1,.225-.856l-.236.563a3.571,3.571,0,0,1,.382-.651l-.371.479a3.883,3.883,0,0,1,.681-.679l-.473.368a3.978,3.978,0,0,1,.757-.437l-.564.237a3.758,3.758,0,0,1,.848-.23l-.628.086a2.477,2.477,0,0,1,.558-.012l-.628-.085a4.388,4.388,0,0,1,1,.3l-.565-.236.074.03a2.587,2.587,0,0,0,1.821.237,2.361,2.361,0,0,0,1.655-2.9v0A2.27,2.27,0,0,0,509.106,14686.776Z" transform="translate(-214.289 -14474.745)" fill="#211715"/>
        <path id="パス_1191" data-name="パス 1191" d="M516.134,14673.134a52.979,52.979,0,0,1,3.047,8.8,34.564,34.564,0,0,1,.421,9.8q-.6,10.7-1.58,21.379c-.379,4.135-.769,8.287-1.469,12.383a2.432,2.432,0,0,0,1.655,2.906,2.382,2.382,0,0,0,2.907-1.654c1.337-7.821,1.875-15.8,2.462-23.707q.377-5.071.687-10.148a46.791,46.791,0,0,0-.1-10.029,37.163,37.163,0,0,0-1.773-6.774c-.316-.893-.661-1.771-1.024-2.645q-.247-.592-.5-1.182c-.059-.14-.464-1.085-.172-.393a2.443,2.443,0,0,0-2.907-1.654,2.377,2.377,0,0,0-1.654,2.906Z" transform="translate(-218.118 -14470.678)" fill="#211715"/>
        <path id="パス_1192" data-name="パス 1192" d="M544.2,14592.831a50.228,50.228,0,0,1,8.4,6.1,35.866,35.866,0,0,1,3.23,3.23,11.272,11.272,0,0,1,.967,1.267c.118.184.227.366.33.557.265.488.038,0,.142.33l1.086-2.668q-3.524,2.155-6.819,4.652a40.643,40.643,0,0,1-4.042,2.974,2.378,2.378,0,0,0-.478,3.711,73.953,73.953,0,0,1,6.165,5.921l-.37-2.862a27.66,27.66,0,0,0-2.266,4.1c-1.418,2.718-2.8,5.445-4.183,8.174-3.374,6.646-6.72,13.307-10.194,19.9-1.418,2.688,2.661,5.078,4.082,2.385,3.474-6.595,6.82-13.254,10.194-19.9,1.385-2.729,2.768-5.461,4.183-8.174a27.671,27.671,0,0,1,2.266-4.1,2.372,2.372,0,0,0-.37-2.861,73.881,73.881,0,0,0-6.166-5.923l-.479,3.71a40.8,40.8,0,0,0,4.042-2.972,81.812,81.812,0,0,1,6.818-4.651,2.4,2.4,0,0,0,1.086-2.67c-.9-2.866-3.4-5.212-5.564-7.178a55.81,55.81,0,0,0-9.678-7.125C543.95,14587.232,541.566,14591.312,544.2,14592.831Z" transform="translate(-223.165 -14449.854)" fill="#211715"/>
        <path id="パス_1193" data-name="パス 1193" d="M481.725,14589.309a79.906,79.906,0,0,0-9.385,6.627c-2.363,1.912-5.411,4.252-6.381,7.27a2.426,2.426,0,0,0,1.086,2.668c3.537,2.561,7.444,5.1,10.766,7.7v-3.343c-2.023,1.98-4.609,3.526-6.408,5.711a2.46,2.46,0,0,0,0,3.34c-.7-.887.2.308.406.591q.709,1.008,1.412,2.019,2.159,3.1,4.3,6.2c3.622,5.225,7.246,10.446,10.932,15.626,1.676,2.354,3.359,4.707,5.106,7.012a2.441,2.441,0,0,0,3.234.849,2.38,2.38,0,0,0,.848-3.233c-7.016-9.247-13.457-18.942-20.089-28.468-.919-1.321-1.816-2.669-2.814-3.937v3.334c1.8-2.185,4.385-3.729,6.407-5.708a2.375,2.375,0,0,0,0-3.343c-3.789-2.966-7.826-5.613-11.722-8.437l1.086,2.668c.078-.234.065-.213-.042.066.062-.117.129-.242.2-.359.136-.194.253-.4.4-.582s.818-.91,1.182-1.269a44.519,44.519,0,0,1,3.743-3.29,72.155,72.155,0,0,1,8.119-5.638c2.61-1.554.236-5.641-2.386-4.078Z" transform="translate(-205.353 -14449.992)" fill="#211715"/>
        <path id="パス_1194" data-name="パス 1194" d="M486.494,14592a212.147,212.147,0,0,0,7.381,22.176c3.449,9.424,7.039,18.794,10.656,28.154q2.328,6.026,4.662,12.049a2.428,2.428,0,0,0,2.907,1.653,2.379,2.379,0,0,0,1.654-2.905c-6.587-17.107-13.4-34.151-19.334-51.5-1.226-3.586-2.462-7.2-3.365-10.881-.722-2.954-5.282-1.7-4.557,1.255Z" transform="translate(-210.579 -14450.019)" fill="#211715"/>
        <path id="パス_1195" data-name="パス 1195" d="M538.726,14590.167c-1.418,7.988-4.1,15.829-6.552,23.541q-4.548,14.3-9.571,28.447c-1.27,3.6-2.549,7.192-3.9,10.758a2.382,2.382,0,0,0,1.654,2.906,2.416,2.416,0,0,0,2.907-1.652c6.37-16.794,12.155-33.931,17.134-51.185a113.334,113.334,0,0,0,2.9-11.562,2.431,2.431,0,0,0-1.654-2.907,2.385,2.385,0,0,0-2.907,1.653Z" transform="translate(-218.773 -14449.858)" fill="#211715"/>
        <path id="パス_1196" data-name="パス 1196" d="M439.45,14759.36a5.825,5.825,0,0,1-3.267-5.594c.051-6.161,2.887-31.683,4.727-39.295,0,0,.287-1.192.725-2.989a42.236,42.236,0,0,0,7.917-6.651,45.2,45.2,0,0,0,5.573-7.181c.907-1.49,1.363-1.912.252-3.2-1.182-1.368-3.292-2.372-4.676-3.6l-.236-.22a9.117,9.117,0,0,0,7.326-3.425l.684-.314a14.615,14.615,0,0,1,3.992-.669l.2.927c2.921,13.414,6.019,57.437,5.809,67.889-.092,4.56-3.675,5.553-6.956,5.5-3.356-.054-14.725-.128-18.253-.25A9.168,9.168,0,0,1,439.45,14759.36Z" transform="translate(-197.792 -14474.771)" fill="#7a7473"/>
        <path id="パス_1197" data-name="パス 1197" d="M437.815,14713.365a138.964,138.964,0,0,0-2.273,14.016q-1.135,8.591-1.943,17.217c-.2,2.176-.391,4.354-.513,6.537a11.464,11.464,0,0,0,1.064,6.705c3.039,5.145,9.73,4.389,14.838,4.453q4.374.053,8.744.092c2.363.025,4.868.249,7.143-.537a7.576,7.576,0,0,0,5.147-7.292c.057-1.392,0-2.8-.035-4.189-.267-10.368-1.038-20.736-1.891-31.07-.521-6.307-1.106-12.607-1.834-18.895-.557-4.8-1.113-9.636-2.133-14.364-.64-2.97-5.2-1.711-4.557,1.257,1.868,8.666,2.513,17.521,3.315,26.424.945,10.426,1.709,20.877,2.179,31.334a62.116,62.116,0,0,1,.209,9.949c-.276,2.312-2.414,2.69-4.4,2.7-2.193.008-4.387-.05-6.578-.072-2.767-.03-5.535-.058-8.3-.1-1.9-.03-4.091.194-5.887-.548-2.068-.853-2.43-2.615-2.354-4.654.068-1.859.221-3.716.379-5.568.5-5.867,1.155-11.723,1.9-17.561a138.662,138.662,0,0,1,2.34-14.572c.709-2.953-3.852-4.218-4.558-1.257Z" transform="translate(-196.976 -14474.292)" fill="#211715"/>
        <path id="パス_1198" data-name="パス 1198" d="M459.449,14676.508c-2.286,2.979-5.405,3.882-9.15,3.585-2.649-.21-3.953-1.578-5.638-3.632a11.04,11.04,0,0,1-2.471-4.973c-.527-2.52.236-5.332,1.033-7.78,1.709-5.217,2.5-8.8,5.9-13.109,3.092-3.927,8.084-5.3,13.1-5.527.689,0,2.107-.022,2.107-.022,2.441-.029,4.4.542,5.5,2.363a4.655,4.655,0,0,1-.591,5.552c2.3-.1,3.908.926,4.254,2.963s-.447,4.341-2.253,4.96a3.727,3.727,0,0,1,2.127,3.607c-.119,1.326-1.044,3.595-2.609,3.929,1.633.412,1.861,2.989.9,4.662s-3.072,2.171-4.982,2.414-5.368.293-6.7.907" transform="translate(-199.278 -14464.281)" fill="#fff"/>
        <path id="パス_1199" data-name="パス 1199" d="M456.98,14674.027a7.133,7.133,0,0,1-4.514,2.836,6.464,6.464,0,0,1-4.953-.736,11.57,11.57,0,0,1-3.411-4.544c-.91-2.342-.412-4.724.287-7.052,1.232-4.1,2.408-8.363,4.817-11.957,2.43-3.623,6.118-5.339,10.4-5.806a20.589,20.589,0,0,1,5.436-.075c2.418.411,2.745,2.48,1.364,4.272-1.129,1.46.416,3.574,2.04,3.553.846-.008,1.583.02,1.891.858.189.514.131,2.148-.523,2.422a2.387,2.387,0,0,0,0,4.555c-.273-.107.18.294.274.521a1.448,1.448,0,0,1,.106.8c-.043.446-.384,1.514-.859,1.659a2.384,2.384,0,0,0,0,4.557c-.511-.181-.131-.235-.268.284a2.744,2.744,0,0,1-.3.994c-.625.884-2.12,1.056-3.1,1.181-2.322.313-4.908.074-7.114.964a2.435,2.435,0,0,0-1.654,2.905,2.379,2.379,0,0,0,2.907,1.653c3.574-1.439,7.814-.063,11.175-2.39,3.427-2.372,4.136-8.557-.388-10.152v4.558c5.472-1.677,5.694-10.008.48-12.09v4.555a6.793,6.793,0,0,0,3.9-7.862c-.607-3.167-3.5-4.731-6.529-4.7l2.04,3.556a7,7,0,0,0,0-8.74c-1.727-2.134-4.384-2.724-7.015-2.727-5.436,0-11.062.929-15.282,4.625-4.442,3.893-6.134,9.881-7.877,15.283-1.044,3.237-1.934,6.605-1.079,10a15.788,15.788,0,0,0,4.589,7.342c4.608,4.354,12.707,2.99,16.509-1.762a2.432,2.432,0,0,0,0-3.341,2.384,2.384,0,0,0-3.341,0Z" transform="translate(-198.48 -14463.474)" fill="#211715"/>
        <path id="パス_1200" data-name="パス 1200" d="M474.569,14652.491a44.908,44.908,0,0,0-4.727.156,19.458,19.458,0,0,0-5.122.877,2.556,2.556,0,0,0-1.412,1.085,2.361,2.361,0,0,0,2.669,3.47,10.847,10.847,0,0,1,1.985-.489c.2-.041.4-.07.6-.092-.139.008-.591.078-.2.025l.315-.037q.645-.073,1.294-.123a44.075,44.075,0,0,1,4.6-.146,2.385,2.385,0,0,0,2.363-2.363,2.411,2.411,0,0,0-2.363-2.362Z" transform="translate(-204.615 -14466.176)" fill="#211715"/>
        <path id="パス_1201" data-name="パス 1201" d="M476.181,14663.339a33.824,33.824,0,0,0-5.159-.055,20.035,20.035,0,0,0-5.222.86,2.363,2.363,0,1,0,1.256,4.557,12.68,12.68,0,0,1,2.09-.5l.279-.044c.324-.052-.108.018-.2.025.22-.021.439-.055.661-.077q.643-.064,1.29-.1a34.12,34.12,0,0,1,5.005.064,2.371,2.371,0,0,0,2.363-2.362,2.425,2.425,0,0,0-2.363-2.362Z" transform="translate(-204.889 -14468.909)" fill="#211715"/>
        <path id="パス_1202" data-name="パス 1202" d="M475.955,14672.784c-1.3.045-2.6.072-3.9.177a17.8,17.8,0,0,0-4.288.73,2.363,2.363,0,1,0,1.258,4.556,12.238,12.238,0,0,1,2.342-.509l-.627.084c1.727-.222,3.47-.253,5.21-.313a2.362,2.362,0,1,0,0-4.725Z" transform="translate(-205.39 -14471.348)" fill="#211715"/>
        <path id="パス_1203" data-name="パス 1203" d="M439.786,14607.616a21.722,21.722,0,0,0-11.143,7.964,40.457,40.457,0,0,0-5.553,13.054c-1.238,4.812-2.185,9.7-3.427,14.514-1.23,4.759-2.521,9.5-3.679,14.28-1.246,5.138-2.327,10.315-3.144,15.541-.8,5.133-1.03,10.382.52,15.41,1.472,4.771,4.819,8.317,9.887,9.1a13.407,13.407,0,0,0,7.076-.566,38.4,38.4,0,0,0,6.719-3.649,48.858,48.858,0,0,0,12.241-11.811c1.4-1.9,3.663-4.482,2.77-7-.913-2.577-3.833-3.691-5.772-5.332-2.307-1.952-5.672,1.373-3.341,3.342a28.083,28.083,0,0,0,2.3,1.724c.176.118,2.286,1.9,2.373,1.882-.236.049.5-1.167-.141-.445a9.484,9.484,0,0,0-.762,1.237,35.306,35.306,0,0,1-2.127,3.006,43.352,43.352,0,0,1-9.314,8.9c-3.262,2.244-6.948,4.75-11.085,4.109-4.446-.687-6.113-4.174-6.891-8.236-.839-4.388-.2-8.829.552-13.177.772-4.452,1.732-8.87,2.805-13.259,2.033-8.324,4.426-16.558,6.242-24.935a50.348,50.348,0,0,1,4.581-13.23,16.391,16.391,0,0,1,9.562-7.866c2.895-.9,1.654-5.463-1.256-4.556Z" transform="translate(-191.695 -14454.713)" fill="#211715"/>
        <path id="パス_1204" data-name="パス 1204" d="M454.954,14636.283a68.148,68.148,0,0,0-.225-9.722q-.274-7.389-.638-14.771c-.075-1.477-.151-2.954-.265-4.424a6.465,6.465,0,0,0-.057-1.088c-.092-.071-.784.371-.329.273a6.774,6.774,0,0,0,1.018-.521,11.6,11.6,0,0,1,1.537-.511c-.036.008.695-.168.632-.158a5.415,5.415,0,0,1,.59-.031q.473.012.153.018c-.133.236-.717-1.5-.678-.612a9.452,9.452,0,0,0,.187.939c.1.641.156,1.288.218,1.932.087.936.151,1.868.2,2.807.133,2.594.193,5.2.25,7.788.118,5.3.015,10.641.354,15.933.194,3.02,4.922,3.041,4.727,0-.329-5.11-.236-10.266-.344-15.385-.061-2.865-.118-5.734-.277-8.6q-.087-1.62-.253-3.233c-.158-1.535-.177-3.517-1.15-4.808-2.017-2.672-6.174-1.255-8.644-.117a4.491,4.491,0,0,0-2.816,3.28,13.1,13.1,0,0,0,.037,3.276c.3,4.767.479,9.542.672,14.314.119,2.932.23,5.868.317,8.8a34.056,34.056,0,0,1,.052,4.606,2.382,2.382,0,0,0,2.363,2.365,2.422,2.422,0,0,0,2.363-2.365Z" transform="translate(-201.071 -14452.953)" fill="#211715"/>
        <path id="パス_1205" data-name="パス 1205" d="M454.954,14636.283a68.148,68.148,0,0,0-.225-9.722q-.274-7.389-.638-14.771c-.075-1.477-.151-2.954-.265-4.424a6.465,6.465,0,0,0-.057-1.088c-.092-.071-.784.371-.329.273a6.774,6.774,0,0,0,1.018-.521,11.6,11.6,0,0,1,1.537-.511c-.036.008.695-.168.632-.158a5.415,5.415,0,0,1,.59-.031q.473.012.153.018c-.133.236-.717-1.5-.678-.612a9.452,9.452,0,0,0,.187.939c.1.641.156,1.288.218,1.932.087.936.151,1.868.2,2.807.133,2.594.193,5.2.25,7.788.118,5.3.015,10.641.354,15.933.194,3.02,4.922,3.041,4.727,0-.329-5.11-.236-10.266-.344-15.385-.061-2.865-.118-5.734-.277-8.6q-.087-1.62-.253-3.233c-.158-1.535-.177-3.517-1.15-4.808-2.017-2.672-6.174-1.255-8.644-.117a4.491,4.491,0,0,0-2.816,3.28,13.1,13.1,0,0,0,.037,3.276c.3,4.767.479,9.542.672,14.314.119,2.932.23,5.868.317,8.8a34.056,34.056,0,0,1,.052,4.606,2.382,2.382,0,0,0,2.363,2.365,2.422,2.422,0,0,0,2.363-2.365Z" transform="translate(-201.071 -14452.953)" fill="#211715"/>
        <path id="パス_1206" data-name="パス 1206" d="M585.943,14600.707a7.557,7.557,0,0,0-1.363-4c-.972-1.1-1.731-2.724-2.624-3.885a6.882,6.882,0,0,1-1.118-6.441c.7-2.224,2.032-3.794,1.914-6.122a7.881,7.881,0,0,0-1.63-3.928,13,13,0,0,1-2.191-3.808,3.614,3.614,0,0,1,1.151-3.672,2.439,2.439,0,0,1,2.153-.353,3.686,3.686,0,0,1,1.459-4.337,3.6,3.6,0,0,1,4.443.181c-.369-1.5-.139-3.647,1.109-4.561s3.614-1.407,4.87.064a3.34,3.34,0,0,1,2.164-3.565,5.027,5.027,0,0,1,4.4,1.3,11.114,11.114,0,0,1,1.761,2.086l3.871,5.452c2.306,3.246,4.727,6.95,4.094,10.881-.429,2.669-2.215,6.1-3.145,8.642-1.571,4.287-4,7.313-4.169,12.095" transform="translate(-234.09 -14441.644)" fill="#fff"/>
        <path id="パス_1207" data-name="パス 1207" d="M587.422,14599.272a10.417,10.417,0,0,0-1.3-4.185c-.784-1.182-1.612-2.335-2.4-3.519a7.047,7.047,0,0,1-1.666-3.574,8.609,8.609,0,0,1,1.11-3.838,9.1,9.1,0,0,0,.078-8.386c-.675-1.309-1.669-2.414-2.4-3.691-.151-.261-.881-2.259-.034-2.113a2.392,2.392,0,0,0,2.907-2.905,1.366,1.366,0,0,1,.338-1.6c.727-.709,1.3-.367,2.093.11a2.392,2.392,0,0,0,3.472-2.669c-.124-.591-.214-1.606.286-2.071a1.406,1.406,0,0,1,1.74-.126,2.389,2.389,0,0,0,4.035-1.67c-.1-1.815,1.442-1.441,2.533-.593,1.516,1.183,2.547,3.243,3.643,4.788,2.21,3.114,5.684,6.9,5.48,10.987a16.222,16.222,0,0,1-1.582,5.171c-.754,1.81-1.44,3.661-2.245,5.449-1.639,3.651-3.37,7.012-3.585,11.093-.159,3.039,4.568,3.03,4.727,0a17.747,17.747,0,0,1,1.976-6.652c1-2.119,1.85-4.274,2.751-6.432a32.248,32.248,0,0,0,2.5-7.023,12.863,12.863,0,0,0-1.182-7.519,40.608,40.608,0,0,0-4.116-6.548c-1.557-2.192-3-4.854-5.028-6.65a7.393,7.393,0,0,0-6.7-1.91,5.732,5.732,0,0,0-3.9,5.847l4.034-1.671a6.067,6.067,0,0,0-7.469-.613c-2.537,1.562-3.022,4.7-2.457,7.408l3.471-2.668a6.122,6.122,0,0,0-9.374,6.821l2.907-2.9a4.894,4.894,0,0,0-4.783,1.3,6.03,6.03,0,0,0-1.519,5.177c.59,3.248,4.7,5.761,3.577,9.207a40.822,40.822,0,0,0-1.82,4.829,9.311,9.311,0,0,0,.613,5.581,32.79,32.79,0,0,0,2.652,4.285,23.106,23.106,0,0,1,1.493,2.084,9.716,9.716,0,0,1,.591,2.655,2.382,2.382,0,0,0,2.908,1.652,2.415,2.415,0,0,0,1.654-2.905Z" transform="translate(-233.291 -14440.839)" fill="#211715"/>
        <path id="パス_1208" data-name="パス 1208" d="M608.092,14569.284a70.376,70.376,0,0,0-4.534-6.473,31.475,31.475,0,0,0-2.336-3.006,12.315,12.315,0,0,0-2.864-2.234,2.363,2.363,0,1,0-2.386,4.08h0c.217.119.428.246.632.385.087.06.174.118.26.185.439.31-.261-.228-.025-.021.37.326.746.637,1.088.992.075.078.145.161.219.237.326.334-.16-.147-.129-.186a8.583,8.583,0,0,0,.59.793q.549.732,1.1,1.46a67.007,67.007,0,0,1,4.3,6.168,2.364,2.364,0,0,0,4.081-2.386Z" transform="translate(-238.16 -14441.912)" fill="#211715"/>
        <path id="パス_1209" data-name="パス 1209" d="M598.911,14573.361a41.43,41.43,0,0,0-6.5-8.667,2.363,2.363,0,1,0-3.343,3.341h0q.886.888,1.7,1.841.413.483.808.979c.061.077.118.156.186.236.195.236-.282-.371-.095-.119.136.182.271.355.406.541a44.19,44.19,0,0,1,2.755,4.233,2.364,2.364,0,1,0,4.082-2.386h0Z" transform="translate(-236.525 -14443.633)" fill="#211715"/>
        <path id="パス_1210" data-name="パス 1210" d="M590.735,14577.411a28.981,28.981,0,0,0-5.5-6.771,2.546,2.546,0,0,0-1.671-.693,2.4,2.4,0,0,0-1.671.693,2.374,2.374,0,0,0-.692,1.67,2.3,2.3,0,0,0,.692,1.672,18.092,18.092,0,0,1,2.828,2.979l-.37-.479c.819,1.063,1.561,2.19,2.3,3.314a2.508,2.508,0,0,0,1.418,1.086,2.363,2.363,0,0,0,2.668-3.471Z" transform="translate(-234.7 -14445.146)" fill="#211715"/>
        <path id="パス_1211" data-name="パス 1211" d="M584.1,14565.382c-.11-.179-.218-.355-.317-.543-.032-.061-.268-.555-.127-.236s-.046-.146-.066-.214a2.768,2.768,0,0,0-.119-.473l.042.322a2.717,2.717,0,0,1-.013-.3c0-.093-.019-.533,0-.128s.02-.036.049-.15a2.432,2.432,0,0,0,.139-.454c.022.153-.216.447-.019.073.059-.112.129-.215.192-.323.236-.41-.347.321,0,0,.094-.085.189-.178.277-.268.188-.191-.4.252-.035.034.159-.093.314-.191.473-.282q.45-.253.917-.473a2.578,2.578,0,0,1,.416-.192c-.545.144-.016.009.1-.038.275-.105.553-.2.836-.293a18.293,18.293,0,0,1,1.867-.486c.289-.061.58-.118.871-.164.177-.029.354-.057.531-.083.105-.016.709-.136.093-.016.673-.131,1.386-.159,2.068-.226a2.415,2.415,0,0,0,2.363-2.363,2.387,2.387,0,0,0-2.363-2.361,25.233,25.233,0,0,0-9.835,2.48,6.656,6.656,0,0,0-3.415,4.023,6.773,6.773,0,0,0,.989,5.52,2.363,2.363,0,0,0,4.08-2.385Z" transform="translate(-234.091 -14441.53)" fill="#211715"/>
        <path id="パス_1212" data-name="パス 1212" d="M585.151,14615.007c-.089-.605-.163-1.078-.207-1.31.84-.155,16.036-2.245,21.76-2.939.508,2.207,1.119,5.4,1.817,8.268-6.786.748-15.66,2.178-22.169,3.19C586.306,14623.212,585.553,14617.735,585.151,14615.007Z" transform="translate(-235.651 -14455.544)" fill="#fff"/>
        <path id="パス_1213" data-name="パス 1213" d="M587.726,14620.692c-.631-2.77-.806-5.637-1.309-8.431l-1.654,2.905c7.077-1.251,14.032-2,21.132-2.854l-2.28-1.733c.611,2.677,1.129,5.375,1.763,8.046.7,2.954,5.262,1.705,4.558-1.257-.634-2.672-1.152-5.368-1.763-8.046a2.363,2.363,0,0,0-2.278-1.733c-4.405.531-8.8,1.138-13.2,1.733-3.06.417-6.145.752-9.19,1.289a2.408,2.408,0,0,0-1.654,2.906c.5,2.794.678,5.659,1.308,8.431.675,2.963,5.232,1.709,4.559-1.256Z" transform="translate(-234.845 -14454.738)" fill="#211715"/>
        <path id="パス_1214" data-name="パス 1214" d="M574.07,14663.982a39.316,39.316,0,0,0,16.009,11.95,27.044,27.044,0,0,0,17.543.534c6.361-1.812,9.974-8.418,10.057-14.731a73.708,73.708,0,0,0-1.006-10.612c-.457-3.413-1.006-6.811-1.692-10.183-1.425-7.024-3.452-13.895-5.532-20.746a2.392,2.392,0,0,0-2.279-1.733c-8.7.873-17.324,2.362-25.96,3.677a2.348,2.348,0,0,0-1.735,2.276c.913,8.427,1.731,16.954,3.347,25.277.579,2.98,5.135,1.72,4.557-1.255-1.537-7.914-2.309-16.015-3.177-24.024l-1.736,2.278c8.219-1.253,16.425-2.675,24.7-3.506l-2.28-1.735a188.172,188.172,0,0,1,7.706,35.081c.3,2.888.7,5.875-.16,8.7a10.422,10.422,0,0,1-4.24,5.9,16.6,16.6,0,0,1-7.366,1.88,21.907,21.907,0,0,1-7.487-.945c-6.407-1.928-11.739-6.33-15.93-11.425-1.933-2.351-5.259,1.011-3.341,3.342Z" transform="translate(-232.737 -14457.507)" fill="#211715"/>
        <path id="パス_1215" data-name="パス 1215" d="M510.182,14554.019a14.071,14.071,0,0,0,6.766,1.58,11.163,11.163,0,0,0,6.965-2.112,2.361,2.361,0,0,0,.693-1.672,2.4,2.4,0,0,0-.693-1.67,2.437,2.437,0,0,0-3.341,0c.819-.638-.014-.023-.273.112-.2.105-.729.269.021.014-.183.063-.362.139-.546.2-.5.16-1.042.188-1.537.356.25-.085.4-.05.039-.014-.15.016-.3.027-.451.037-.362.023-.725.033-1.089.031-.325,0-.65-.014-.974-.037-.149-.008-.3-.02-.447-.035-.085-.008-.169-.019-.254-.03-.185-.021-.11-.012.224.032,0,.025-1.3-.28-1.431-.317-.2-.06-.4-.132-.591-.2-.526-.181.5.233.028.016-.246-.12-.487-.237-.727-.364a2.363,2.363,0,1,0-2.386,4.079Z" transform="translate(-216.327 -14439.933)" fill="#211715"/>
        <path id="パス_1216" data-name="パス 1216" d="M517.236,14533.72a30.081,30.081,0,0,1,.709,3.239l-.085-.628a2,2,0,0,1,.012.446l.085-.628a1.1,1.1,0,0,1-.05.2l.236-.565a.794.794,0,0,1-.071.129l.37-.479a.762.762,0,0,1-.106.108l.479-.371a2.747,2.747,0,0,1-.256.136l.564-.235a1.859,1.859,0,0,1-.432.125l.628-.084a1.766,1.766,0,0,1-.406,0l.628.084c-.154-.021-.3-.059-.458-.08a1.786,1.786,0,0,0-.945-.041,1.753,1.753,0,0,0-.879.28,2.361,2.361,0,0,0-.847,3.231l.37.478a2.358,2.358,0,0,0,1.042.608c.411.055.81.158,1.228.177a4.06,4.06,0,0,0,1.891-.462,2.87,2.87,0,0,0,1.55-1.878,4.411,4.411,0,0,0-.015-1.944c-.177-1.044-.417-2.079-.687-3.1a2.364,2.364,0,0,0-2.9-1.655l0,0a2.378,2.378,0,0,0-1.413,1.084,2.484,2.484,0,0,0-.236,1.82Z" transform="translate(-218.129 -14435.156)" fill="#211715"/>
        <path id="パス_1217" data-name="パス 1217" d="M495.472,14521.274c-.541,1.76-.189,5.8,3.144,6.144,4.4-.026,4.638-4.916,3.156-7.215C500.557,14518.321,496.988,14517.543,495.472,14521.274Z" transform="translate(-212.83 -14432.074)" fill="#211715"/>
        <path id="パス_1218" data-name="パス 1218" d="M540.416,14521.274c.542,1.76.189,5.8-3.144,6.144-4.4-.027-4.638-4.916-3.155-7.215C535.33,14518.321,538.9,14517.543,540.416,14521.274Z" transform="translate(-222.508 -14432.074)" fill="#211715"/>
        <path id="パス_1219" data-name="パス 1219" d="M563.546,14768.579a47.228,47.228,0,0,1-10.549.234,121.205,121.205,0,0,1-12.726-1.338c-3.587-.576-7.578-1.118-10.588-3.308-2.562-1.861-3.925-4.689-5.348-7.421l-3.881-7.451c-1.405-2.7-5.485-.312-4.082,2.385l3.663,7.036c1.56,3,3.092,6.042,5.688,8.3,3.348,2.913,7.487,3.993,11.748,4.75a129.288,129.288,0,0,0,13.762,1.654,52.387,52.387,0,0,0,13.569-.289c2.983-.581,1.719-5.136-1.257-4.554Z" transform="translate(-218.127 -14490.539)" fill="#211715"/>
        <path id="パス_1220" data-name="パス 1220" d="M204.487,14537.472c.657-.284,8.709-5.024,10.481-9.4,1.235-3.058.911-7.3.96-10.587a31.531,31.531,0,0,1-8.43-7.206,36.823,36.823,0,0,1-7.428-14.952l-.538.146c-1.988.535-3.506-.524-4.716-1.49a13.863,13.863,0,0,1-3.58-4.7,21.765,21.765,0,0,1-2.22-11.541,7.252,7.252,0,0,1,.76-2.922,5.138,5.138,0,0,1,3.7-2.457,5.44,5.44,0,0,1,4.356,1.275s2.481-31.969,36.441-31.969c33.261,0,37.309,31.969,37.309,31.969a5.437,5.437,0,0,1,4.355-1.275,5.141,5.141,0,0,1,3.7,2.457,7.266,7.266,0,0,1,.761,2.922,21.766,21.766,0,0,1-2.221,11.541,13.853,13.853,0,0,1-3.58,4.7,4.332,4.332,0,0,1-5.359.494,32.589,32.589,0,0,1-1.418,5.119c-1.215,3.242-7.867,14.28-16.337,18.663,0,3.152-.19,6.982.945,9.811,1.772,4.37,11.315,9.878,11.972,10.158,0,0-8.807,21.037-30.514,21.037S204.487,14537.472,204.487,14537.472Z" transform="translate(-134.876 -14412.47)" fill="#fff"/>
        <path id="パス_1221" data-name="パス 1221" d="M277.472,14443.676a34.439,34.439,0,0,0-1.872-7.46c-1.82-4.646-4.608-10.01-10.253-13.111l-5.187-4.58c-2.327-4.724-7.19-8.767-13.581-11.05-6.7-2.392-26.227-2.8-32.791,2.877l-6.736,4.607c-7.512,3.432-12.821,11.639-15.074,20.1-2.327,8.715-2.348,21.346.927,28.413a4.749,4.749,0,0,1,.927-.235,5.449,5.449,0,0,1,4.356,1.273c1.05,2.23,6.723-.2,6.723-.2a24.321,24.321,0,0,1,9.866-16.128,12.8,12.8,0,0,1,7.4-2.312l7.871-.056a14.7,14.7,0,0,0,8.782-2.373,28.82,28.82,0,0,0,6.5-5.952,10.285,10.285,0,0,1,3.379-2.576l1.522.392c3.678.944,8.755,5.552,11.661,9.235a34.372,34.372,0,0,1,5.292,9.409,32.916,32.916,0,0,1,1.556,5.848c.236,1.4.506,3.852.747,5.957l.092.811,2.356-2.05a5.429,5.429,0,0,1,4.328-1.272A46.949,46.949,0,0,0,277.472,14443.676Z" transform="translate(-135.228 -14403.332)" fill="#7a7473"/>
        <path id="パス_1222" data-name="パス 1222" d="M269.375,14416.485c-7.235-14.261-26.388-15.575-40.224-12.857a21.535,21.535,0,0,0-9.86,4.205c-2.331,1.958,1.027,5.285,3.343,3.341a17.287,17.287,0,0,1,6.914-2.811,48.941,48.941,0,0,1,9.645-1.022c5.825-.107,11.878.235,17.134,2.963a20.127,20.127,0,0,1,8.966,8.564c1.375,2.717,5.456.323,4.081-2.383Z" transform="translate(-142.398 -14402.482)" fill="#211715"/>
        <path id="パス_1223" data-name="パス 1223" d="M269.641,14545c-.025,3.336-.1,6.9,1.28,10.012a15.076,15.076,0,0,0,4.056,4.942,50.318,50.318,0,0,0,5.653,4.207,24.5,24.5,0,0,0,3.11,1.861,2.436,2.436,0,0,0,3.234-.848,2.38,2.38,0,0,0-.848-3.231,23.149,23.149,0,0,1-2.79-1.654q-1.227-.787-2.413-1.632a27.314,27.314,0,0,1-2.254-1.744,24.13,24.13,0,0,1-2.26-2.149c-.139-.153-.269-.315-.409-.468-.17-.212-.17-.21,0,.01-.078-.1-.154-.205-.227-.31a7.406,7.406,0,0,1-.637-1.069c-.216-.457.119.508-.1-.289-.105-.4-.236-.779-.318-1.176a13.485,13.485,0,0,1-.265-1.9c-.119-1.521-.1-3.041-.087-4.562.022-3.042-4.7-3.044-4.727,0Z" transform="translate(-155.41 -14438.21)" fill="#211715"/>
        <path id="パス_1224" data-name="パス 1224" d="M218.065,14544.518a27.035,27.035,0,0,1-.547,7.593c-.027.1-.308.923-.16.565-.077.176-.163.35-.256.52a11.06,11.06,0,0,1-.666,1.039c-.16.217-.17.236-.028.041q-.1.129-.212.258c-.151.169-.3.341-.451.509q-.514.561-1.071,1.079a27.917,27.917,0,0,1-4.152,3.265,19.439,19.439,0,0,1-2.724,1.662,2.385,2.385,0,0,0-.847,3.235,2.42,2.42,0,0,0,3.233.846,21.084,21.084,0,0,0,3.054-1.891,37.522,37.522,0,0,0,5.12-4.1,13.519,13.519,0,0,0,3.68-5.63,30.379,30.379,0,0,0,.756-8.99c-.016-3.037-4.743-3.046-4.727,0Z" transform="translate(-139.378 -14438.086)" fill="#211715"/>
        <path id="パス_1225" data-name="パス 1225" d="M286.5,14509.181a19.915,19.915,0,0,1-1.2,5.447c-.085.256-.174.511-.261.768-.013.039-.268.708-.1.3s-.118.244-.145.309c-.081.168-.162.339-.245.5a44.356,44.356,0,0,1-3.843,6.175c-3.408,4.681-7.983,9.577-13.707,11.239-2.916.844-1.676,5.406,1.256,4.555,6.888-2,12.208-7.538,16.343-13.146,3.5-4.749,6.381-10.118,6.631-16.147.125-3.04-4.6-3.036-4.727,0Z" transform="translate(-154.317 -14429.087)" fill="#211715"/>
        <path id="パス_1226" data-name="パス 1226" d="M198.971,14503.3c.869,6.968,2.631,13.832,6.472,19.808,4.439,6.906,11.479,13.083,19.81,14.39a2.44,2.44,0,0,0,2.908-1.653,2.38,2.38,0,0,0-1.654-2.906c-7.326-1.148-13.42-6.483-17.252-12.64a42.611,42.611,0,0,1-5.563-17.009,2.441,2.441,0,0,0-2.363-2.362,2.374,2.374,0,0,0-2.363,2.362Z" transform="translate(-137.426 -14427.563)" fill="#211715"/>
        <path id="パス_1227" data-name="パス 1227" d="M269.265,14446.849a16.485,16.485,0,0,1,6.145,3.9,34.625,34.625,0,0,1,5.773,6.548,31.627,31.627,0,0,1,4.078,8.641,53.654,53.654,0,0,1,1.528,9.083,2.435,2.435,0,0,0,2.363,2.363,2.378,2.378,0,0,0,2.363-2.363,60.828,60.828,0,0,0-1.7-10.34,35.986,35.986,0,0,0-4.844-10.2,39.459,39.459,0,0,0-6.575-7.388,21.223,21.223,0,0,0-7.875-4.8c-2.933-.828-4.185,3.73-1.256,4.557Z" transform="translate(-154.893 -14412.6)" fill="#211715"/>
        <path id="パス_1228" data-name="パス 1228" d="M300.272,14485a2.972,2.972,0,0,1,4.173.475c.06.075.116.154.168.234a6.953,6.953,0,0,1,.511,3.11,18.332,18.332,0,0,1-.266,3.7,19.447,19.447,0,0,1-2.6,6.878c-.893,1.416-2.389,3.462-4.2,2.979-2.942-.783-4.2,3.772-1.257,4.558,3.921,1.045,6.988-1.488,9.126-4.536a23.142,23.142,0,0,0,3.757-10.423c.422-3.451.43-7.843-2.363-10.354a7.875,7.875,0,0,0-10.384.044,2.381,2.381,0,0,0,0,3.342,2.416,2.416,0,0,0,3.341,0Z" transform="translate(-161.899 -14422.153)" fill="#211715"/>
        <path id="パス_1229" data-name="パス 1229" d="M198.682,14481.662a7.881,7.881,0,0,0-10.384-.044c-2.868,2.573-2.787,7.1-2.333,10.62a22.778,22.778,0,0,0,3.939,10.459c2.207,3.022,5.5,5.612,9.44,4.744,2.97-.653,1.712-5.209-1.255-4.555-1.791.394-3.663-1.89-4.53-3.185a19.105,19.105,0,0,1-2.767-6.991,18.291,18.291,0,0,1-.307-3.64,7.31,7.31,0,0,1,.517-3.364,2.97,2.97,0,0,1,4.1-.878,2.846,2.846,0,0,1,.235.17,2.43,2.43,0,0,0,3.342,0,2.379,2.379,0,0,0,0-3.341Z" transform="translate(-134.058 -14422.153)" fill="#211715"/>
        <path id="パス_1230" data-name="パス 1230" d="M205.049,14415.263c-8.609,4.042-14.084,13.165-16.322,22.114a56.349,56.349,0,0,0-1.578,14.211,40.787,40.787,0,0,0,2.134,13.606c1.043,2.827,5.613,1.605,4.557-1.257-2.836-7.7-2.544-17.009-.657-24.9,1.917-8.021,6.539-16.079,14.248-19.7,2.752-1.292.355-5.365-2.385-4.079Z" transform="translate(-134.418 -14405.676)" fill="#211715"/>
        <path id="パス_1231" data-name="パス 1231" d="M288.961,14430.254c5.559,3.146,8.784,9.225,10.28,15.265a43.285,43.285,0,0,1-.28,21.591c-.812,2.936,3.747,4.188,4.557,1.258a48.149,48.149,0,0,0,.177-24.51c-1.839-7.052-5.865-14.015-12.349-17.685C288.7,14424.675,286.31,14428.755,288.961,14430.254Z" transform="translate(-160.035 -14408.436)" fill="#211715"/>
        <path id="パス_1232" data-name="パス 1232" d="M226.34,14456.39c-10.674.134-18.362,11.052-19.629,20.8a2.375,2.375,0,0,0,2.363,2.363,2.425,2.425,0,0,0,2.363-2.363c-.045.354.06-.338.071-.4.048-.26.1-.518.157-.778.119-.526.253-1.049.409-1.563a19.366,19.366,0,0,1,.951-2.536,23.335,23.335,0,0,1,3.435-5.4c2.727-3.151,5.724-5.346,9.879-5.4C229.379,14461.078,229.387,14456.351,226.34,14456.39Z" transform="translate(-139.398 -14416.217)" fill="#211715"/>
        <path id="パス_1233" data-name="パス 1233" d="M263.476,14440.979a10.493,10.493,0,0,0-5.935,2.67c-1.47,1.255-2.61,2.872-4.008,4.211-2.93,2.8-6.589,4.812-10.741,4.547a2.362,2.362,0,1,0,0,4.724,18.228,18.228,0,0,0,12.49-4.522,35.77,35.77,0,0,0,4.354-4.361,6.528,6.528,0,0,1,3.841-2.542,2.43,2.43,0,0,0,2.364-2.362A2.381,2.381,0,0,0,263.476,14440.979Z" transform="translate(-147.978 -14412.291)" fill="#211715"/>
        <path id="パス_1234" data-name="パス 1234" d="M239.975,14522.459c2.2,2.159,5.656,2.817,8.626,2.815s6.417-.656,8.626-2.815a2.363,2.363,0,0,0-3.343-3.342c-.091.091-.5.421-.133.141s-.163.1-.281.174c-.181.111-.367.213-.555.308a2.111,2.111,0,0,0-.385.181c.075-.126.483-.181.061-.034a12.969,12.969,0,0,1-1.848.506c-.051.008-.729.109-.215.045-.188.024-.378.04-.567.058-.451.037-.9.054-1.357.056-.415,0-.827-.015-1.243-.047-.228-.017-.457-.037-.684-.066.339.04.076,0-.118-.029a11.187,11.187,0,0,1-1.873-.493l-.224-.086c-.17-.066-.1-.035.212.092-.047-.066-.252-.116-.324-.149-.21-.1-.416-.215-.616-.339a4.915,4.915,0,0,0-.446-.3c.6.277.27.22.032-.015a2.363,2.363,0,1,0-3.343,3.342h0Z" transform="translate(-147.687 -14432.021)" fill="#211715"/>
        <path id="パス_1235" data-name="パス 1235" d="M249.894,14501.885a33.467,33.467,0,0,1,.782,3.578l-.085-.629a2.2,2.2,0,0,1,.014.5l.083-.628a1.148,1.148,0,0,1-.054.222l.236-.564a.931.931,0,0,1-.078.144l.368-.479a.707.707,0,0,1-.118.117l.479-.369a2.1,2.1,0,0,1-.284.149l.565-.235a2.043,2.043,0,0,1-.479.138l.628-.083a2.015,2.015,0,0,1-.447,0l.627.084c-.168-.023-.334-.064-.5-.087a2.653,2.653,0,0,0-1.824.237,2.361,2.361,0,0,0-.848,3.231v0a2.261,2.261,0,0,0,1.418,1.085c.431.058.851.166,1.29.186a4.231,4.231,0,0,0,1.961-.473,2.946,2.946,0,0,0,1.6-1.928,4.6,4.6,0,0,0-.018-2.017c-.195-1.153-.461-2.294-.757-3.425a2.439,2.439,0,0,0-1.085-1.418,2.364,2.364,0,0,0-3.233.847v0a2.472,2.472,0,0,0-.236,1.819Z" transform="translate(-150.066 -14427.046)" fill="#211715"/>
        <path id="パス_1236" data-name="パス 1236" d="M225.83,14488.275c-.585,1.9-.2,6.262,3.394,6.638,4.756-.028,5.009-5.309,3.408-7.79C231.324,14485.09,227.468,14484.244,225.83,14488.275Z" transform="translate(-144.206 -14423.613)" fill="#211715"/>
        <path id="パス_1237" data-name="パス 1237" d="M274.15,14488.275c.585,1.9.2,6.268-3.394,6.638-4.756-.028-5.009-5.309-3.409-7.8C268.663,14485.09,272.512,14484.244,274.15,14488.275Z" transform="translate(-154.603 -14423.613)" fill="#211715"/>
        <path id="パス_1238" data-name="パス 1238" d="M205.977,14601.74c-6.122-16.105-12.493-33.482-14.157-40.633a86.055,86.055,0,0,0-11.9,8.5c-6.957,3.007-13.3,5.86-20.512,9.078-2.032.922-4.408,1.466-6.156,2.859,0,0,0,17.69.01,25.38-7.512-1.163-17.672-2.79-24.946-3.508-3.971,13.063-6.792,22.827-8.461,39.107-.494,4.82-.786,8.485,1.994,13.133a11.286,11.286,0,0,0,7.138,5.387c.184.066.371.129.556.187,11.188,3.439,23.691-2.082,32.648-13.1l2.883-3.545-.48,7.56c-.33,5.22-2.78,43.023-2.954,49.14-.167,5.872-1.431,17.667-1.624,23.538l-.313,9.577c-.034,1.094-.339,4.509.52,4.852a2.745,2.745,0,0,0,1.793.59c2.127.118,33,.335,39.175-.915a11.732,11.732,0,0,0,3.962-1.355,14.961,14.961,0,0,0,4.5-5.087,155.98,155.98,0,0,0,8.841-20.3l.3-.687c.317,2.386.639,4.537.962,6.37a66.432,66.432,0,0,0,5.754,15,9.188,9.188,0,0,0,7.737,6.055c6.178,1.249,37.054,1.03,39.176.914a2.757,2.757,0,0,0,1.794-.59c.86-.344.555-3.758.519-4.852q-.152-4.79-.312-9.577c-.04-1.19-.119-2.623-.236-4.2l2.6-.205,19.542-2.215a2.942,2.942,0,0,0,2.579-3.069c-.119-2.526-.133-4.675-.485-11.91-1.63-33.466-3.931-68.91-5.554-101.3-.379-7.534-1.74-13.317-9.2-19.269a18.546,18.546,0,0,0-4.126-2.258c-1.377-.666-2.9-1.123-4.271-1.72-9.019-3.882-17.318-7.776-27.3-11.989a58.153,58.153,0,0,0-8.108-5.692c-2.508,14.357-19.33,62.255-22.538,70.212C215.132,14625.477,210.625,14613.975,205.977,14601.74Z" transform="translate(-117.214 -14442.868)" fill="#c0bdbd"/>
        <path id="パス_1239" data-name="パス 1239" d="M336.543,14783.8c-4.448.526-8.2.93-8.2.93l-.919.1q-.1-3.1-.2-6.194c-.039-1.168-.118-2.569-.225-4.112l2.588-.293s12.546-1.418,17.532-1.989c.118,3.238.424,7.573.55,10.1C344.751,14782.8,340.386,14783.35,336.543,14783.8Z" transform="translate(-170.008 -14496.687)" fill="#fff"/>
        <path id="パス_1240" data-name="パス 1240" d="M344.818,14786.835c.142,8.494,2.113,13.421,4.026,21.7s1.926,10.851-2.009,16.395c-2.491,3.508-9.546,6.819-13.245,4.142v-11.965a9.817,9.817,0,0,1-2.715,1.567c-2.284.526-4.469-2.4-4.282-4.739.725-9.034,3.12-15.693,5.207-24.515l.224-2.89Z" transform="translate(-169.903 -14500.325)" fill="#fff"/>
        <path id="パス_1241" data-name="パス 1241" d="M291.268,15340.875c-.1-.642-.155-1.274-.2-1.71-.227-2.328-.455-4.637-.623-6.912-6.145.1-15.716.1-22.8.061.168,2.717.224,5.346.487,8.581,3.8,2.335,7.712,4.639,12.073,5.533,4.308.879,9.047.094,12.271-2.88a4.579,4.579,0,0,1-.573-.606A5.257,5.257,0,0,1,291.268,15340.875Z" transform="translate(-154.906 -14639.358)" fill="#fff"/>
        <path id="パス_1242" data-name="パス 1242" d="M227.859,15332.321c-7,.034-15.924.024-21.66-.07-.172,2.274-.4,4.585-.628,6.914a9.8,9.8,0,0,1-.838,3.778,4.233,4.233,0,0,1-.5.54c3.227,3.028,8,3.833,12.347,2.946,4.3-.883,8.165-3.136,11.918-5.434.269-3.28.325-5.938.5-8.677Z" transform="translate(-138.767 -14639.359)" fill="#fff"/>
        <path id="パス_1243" data-name="パス 1243" d="M242.357,14628.355c-.119.312-.236.59-.327.825-5.021-13.137-22.2-56.578-25.406-69.69a26.118,26.118,0,0,1,4.963-6.438,54.6,54.6,0,0,0,15.755,10.979c.327.146.69.327.8.669a1.265,1.265,0,0,1-.182.889,10.646,10.646,0,0,1-.868,1.224c2.585,0,4.433-.01,7.127-.014a10.567,10.567,0,0,1-.856-1.21,1.265,1.265,0,0,1-.182-.889c.105-.342.473-.522.8-.669a54.606,54.606,0,0,0,15.756-10.979,25.9,25.9,0,0,1,4.8,6.15C261.964,14573.386,246.221,14618.417,242.357,14628.355Z" transform="translate(-141.921 -14440.844)" fill="#fff"/>
        <path id="パス_1244" data-name="パス 1244" d="M240.179,14589.6c.379-3.181.615-5.235.615-5.4a9.078,9.078,0,0,0-.354-2.175c-.083-.33-.166-.649-.236-.979-.378-1.619-.638-2.81-.957-4.43l-.243-.783c.372-.451.738-.9,1.089-1.325.951-1.166,1.8-2.216,2.394-2.989l7.128-.006c.591.771,1.446,1.825,2.4,3,.6.731,1.24,1.507,1.885,2.288l-.413.945c-.225.9-.473,1.83-.8,2.846a13.231,13.231,0,0,0-.851,3.851c-.012.675,1.914,13.384,3.734,25.549l.119.855c-3.719,10.841-7.021,19.961-8.272,23.056-1.915-5.011-5.6-14.423-9.6-24.881l.11-.884C238.788,14601.141,239.63,14594.2,240.179,14589.6Z" transform="translate(-147.313 -14445.546)" fill="#6dbf6b"/>
        <path id="パス_1245" data-name="パス 1245" d="M263.752,15324.238c.842,5.661.7,11.8,1.393,17.633a2.437,2.437,0,0,0,2.363,2.363,2.378,2.378,0,0,0,2.363-2.363c-.748-6.282-.632-12.625-1.562-18.89a2.38,2.38,0,0,0-2.908-1.652,2.424,2.424,0,0,0-1.654,2.906Z" transform="translate(-153.894 -14636.556)" fill="#211715"/>
        <path id="パス_1246" data-name="パス 1246" d="M294.68,15320.605a124.051,124.051,0,0,0,.978,15.761c.216,1.981.509,3.889,2.036,5.309a52.8,52.8,0,0,0,4.348,3.388,2.379,2.379,0,0,0,3.234-.847,2.419,2.419,0,0,0-.848-3.232c-1.135-.851-2.266-1.624-3.309-2.571a4.689,4.689,0,0,1-.573-.572c.4.522.072-.142,0-.438a18.129,18.129,0,0,1-.285-2.228,125.521,125.521,0,0,1-.862-14.568c.058-3.042-4.668-3.042-4.727,0Z" transform="translate(-161.783 -14635.812)" fill="#211715"/>
        <path id="パス_1247" data-name="パス 1247" d="M234.669,15322.982c-.93,6.261-.813,12.607-1.561,18.89a2.378,2.378,0,0,0,2.363,2.363,2.421,2.421,0,0,0,2.363-2.363c.694-5.828.552-11.972,1.392-17.633a2.439,2.439,0,0,0-1.654-2.906,2.382,2.382,0,0,0-2.908,1.653Z" transform="translate(-146.115 -14636.557)" fill="#211715"/>
        <path id="パス_1248" data-name="パス 1248" d="M201.967,15320.608a125.689,125.689,0,0,1-.861,14.568,19.852,19.852,0,0,1-.254,2.079c-.039.186-.354,1.13-.107.673.118-.226-.036.048-.1.119-.1.1-.2.2-.3.295a39.752,39.752,0,0,1-3.391,2.649,2.436,2.436,0,0,0-.848,3.232,2.383,2.383,0,0,0,3.233.848c1.436-1.076,2.935-2.1,4.264-3.307,1.583-1.444,1.9-3.348,2.12-5.388a124.178,124.178,0,0,0,.98-15.76c-.057-3.037-4.786-3.048-4.727,0Z" transform="translate(-136.621 -14635.813)" fill="#211715"/>
        <path id="パス_1249" data-name="パス 1249" d="M283.62,15378.754a23.773,23.773,0,0,0,4.4,3.435,28.883,28.883,0,0,0,17.974,3.687,17.035,17.035,0,0,0,7.638-2.687,9.5,9.5,0,0,0,4.168-6.734c.326-3.858-2.019-7.516-4.765-10.249-7.049-7.012-14.52-13.9-20.746-21.569-3.121,4.293-8.711,5.523-13.721,4.5-4.608-.946-8.711-3.464-12.717-5.925-3.832-2.363-4.41,8.7-4.5,11.1-.143,3.8-.767,8.81,2.245,11.616a30.361,30.361,0,0,0,9.636,5.238C277.859,15372.586,280.244,15375.56,283.62,15378.754Z" transform="translate(-153.265 -14642.068)" fill="#7a7473"/>
        <path id="パス_1250" data-name="パス 1250" d="M202.34,15378.754a23.772,23.772,0,0,1-4.4,3.435,28.883,28.883,0,0,1-17.974,3.687,17.032,17.032,0,0,1-7.637-2.687,9.494,9.494,0,0,1-4.167-6.734c-.326-3.858,2.018-7.516,4.765-10.249,7.047-7.012,14.52-13.9,20.745-21.569,3.122,4.293,8.711,5.523,13.722,4.5,4.608-.946,8.711-3.464,12.717-5.925,3.832-2.363,4.41,8.7,4.5,11.1.145,3.8.767,8.81-2.245,11.616a30.373,30.373,0,0,1-9.637,5.238C208.1,15372.586,205.717,15375.56,202.34,15378.754Z" transform="translate(-129.58 -14642.068)" fill="#7a7473"/>
        <path id="パス_1251" data-name="パス 1251" d="M281.132,15379.619a29.243,29.243,0,0,0,15.374,7.58c5.611.913,12.156.664,17.08-2.493a11.615,11.615,0,0,0,4.932-14.174c-2.127-5.372-7.023-9.164-11.04-13.1a189.929,189.929,0,0,1-14.333-15.271c-1.064-1.307-2.89-.605-3.712.473-3.9,5.141-11.3,4.016-16.367,1.6-1.578-.752-3.1-1.617-4.6-2.512a12.547,12.547,0,0,0-3.693-1.925c-2.161-.439-3.877,1.062-4.727,2.917-1.514,3.308-1.717,7.206-1.876,10.784a28.779,28.779,0,0,0,.378,8.831c.827,3.049,2.908,5.023,5.5,6.662a58.714,58.714,0,0,0,8.964,4.073c3.256,1.379,5.612,4.163,8.113,6.547,2.2,2.1,5.554-1.236,3.343-3.341a53.516,53.516,0,0,0-6.747-5.992c-2.4-1.615-5.212-2.209-7.789-3.443-2.127-1.02-5.146-2.315-6.338-4.482-1.24-2.251-.873-5.224-.755-7.677.16-3.308.145-6.589,1.341-9.687a3.135,3.135,0,0,1,.355-.67c.131-.212-.095-.016.031-.041a5.365,5.365,0,0,1-.59.158c-.368.034-.153.066-.327-.1a11.226,11.226,0,0,0,1.978,1.2,43.248,43.248,0,0,0,9.477,4.55c6.688,2.062,14.053.68,18.405-5.066l-3.712.479c3.323,4.072,6.933,7.894,10.642,11.614s7.785,7.2,11.226,11.157c2.776,3.2,4.337,7.693,1.031,11.1-3.349,3.455-9.05,3.848-13.566,3.436a24.7,24.7,0,0,1-14.662-6.536C282.257,15374.2,278.907,15377.533,281.132,15379.619Z" transform="translate(-152.448 -14641.262)" fill="#211715"/>
        <path id="パス_1252" data-name="パス 1252" d="M199.9,15376.282a24.807,24.807,0,0,1-12.792,6.282c-4.537.819-10.231.634-14.147-2.075a7.282,7.282,0,0,1-3.208-4.835,8.988,8.988,0,0,1,1.87-5.977,35.907,35.907,0,0,1,4.91-5.277c1.949-1.912,3.907-3.814,5.846-5.738a169.586,169.586,0,0,0,12.191-13.159l-3.712-.478c3.8,5.015,9.893,6.758,15.971,5.67a31.339,31.339,0,0,0,9.647-3.821c1.369-.771,2.672-1.679,4.053-2.419.444-.236-.261-.1.16-.061-.212-.02-.379.047-.614.02-.781-.1.118.027-.236-.119-.034-.012-.139-.187,0,.037a5.166,5.166,0,0,1,.675,1.666,22.953,22.953,0,0,1,.6,2.951c.174,1.226.3,2.883.354,4.293a28.137,28.137,0,0,1-.1,7.45c-.6,2.638-2.7,3.881-4.941,5.126-2.779,1.552-5.908,2.245-8.661,3.789-3.027,1.691-5.38,4.309-7.861,6.675-2.2,2.1,1.141,5.441,3.342,3.341s4.235-4.439,6.9-5.938a28.551,28.551,0,0,1,3.8-1.518,38.435,38.435,0,0,0,4.466-2.053c2.524-1.364,5.31-3.052,6.623-5.716,1.361-2.762,1.391-5.893,1.258-8.905-.168-3.735-.219-7.679-1.383-11.267-.59-1.812-1.582-3.826-3.58-4.37a4.13,4.13,0,0,0-3,.41c-1.61.832-3.109,1.906-4.7,2.781-5.479,3.017-14.1,5.659-18.692-.4-.82-1.083-2.647-1.782-3.712-.471a172.639,172.639,0,0,1-12.58,13.544c-2.2,2.172-4.419,4.327-6.617,6.5a27.766,27.766,0,0,0-5.339,6.5c-2.7,5.065-2.008,10.984,2.476,14.8,4.38,3.715,10.774,4.574,16.325,4.016a29.958,29.958,0,0,0,17.753-7.9C205.466,15377.54,202.12,15374.2,199.9,15376.282Z" transform="translate(-128.811 -14641.267)" fill="#211715"/>
        <path id="パス_1253" data-name="パス 1253" d="M286.588,14791.895c-.606,8.191-1.224,17.556-1.844,27.446-1.741,21.629-4.208,74.085-5.248,104.4-.907,26.446-1.921,45.134-2.828,71.581-3.669.39-31.506.32-37.719.168-.473-16.3-2.286-55.8-2.506-62.247-.626-18.271-1.317-103.48-1.941-120.559-.787,17.969-1.59,98.906-2.377,117.974-.277,6.732-2.6,47.822-3.19,64.835-6.215.151-34.063.221-37.735-.168-.907-26.445-1.921-45.133-2.829-71.582-1.039-30.318-3.507-82.775-5.248-104.4-.619-9.89-1.237-19.254-1.843-27.444,0,0,4.735-27.168,52-27.168S286.588,14791.895,286.588,14791.895Z" transform="translate(-132.926 -14494.771)" fill="#c0bdbd"/>
        <path id="パス_1254" data-name="パス 1254" d="M262.667,14584.579a67.071,67.071,0,0,1-16.878,2.379,73.129,73.129,0,0,1-19.17-2.933" transform="translate(-144.464 -14448.734)" fill="none"/>
        <path id="パス_1255" data-name="パス 1255" d="M182.4,14738.85c21.649,0,84.063.077,100.224.077" transform="translate(-133.21 -14488.179)" fill="none"/>
        <path id="パス_1256" data-name="パス 1256" d="M178.115,14800.406q2.7,36.519,4.567,73.1c1.309,26.176,2.207,52.364,3.268,78.55.7,17.261,1.49,34.518,2.084,51.782.1,3.032,4.83,3.047,4.727,0-1.006-29.114-2.26-58.218-3.421-87.323-.989-24.778-2.12-49.562-3.663-74.313q-1.3-20.9-2.836-41.791C182.62,14797.392,177.89,14797.369,178.115,14800.406Z" transform="translate(-132.119 -14503.282)" fill="#211715"/>
        <path id="パス_1257" data-name="パス 1257" d="M315.978,14800.406q-2.7,36.519-4.567,73.1c-1.308,26.176-2.207,52.364-3.269,78.551-.7,17.26-1.49,34.518-2.084,51.781-.1,3.042,4.623,3.038,4.727,0,1-29.111,2.255-58.218,3.417-87.323.989-24.778,2.12-49.561,3.663-74.313q1.3-20.9,2.836-41.791c.224-3.032-4.5-3.019-4.727,0Z" transform="translate(-164.679 -14503.282)" fill="#211715"/>
        <path id="パス_1258" data-name="パス 1258" d="M179.511,14779.278c21.649,0,88.753.076,104.913.076" transform="translate(-132.476 -14498.479)" fill="none"/>
        <path id="パス_1259" data-name="パス 1259" d="M241.678,14589.924c3.4,0,6.807-.075,10.211-.077a2.363,2.363,0,1,0,0-4.726c-3.4,0-6.806.074-10.211.076a2.363,2.363,0,1,0,0,4.727Z" transform="translate(-147.695 -14449.013)" fill="#211715"/>
        <path id="パス_1260" data-name="パス 1260" d="M236.2,14578.185c.311,1.563.644,3.122,1.014,4.676a8.815,8.815,0,0,1,.426,2.554c-.087,1.534-.347,3.07-.529,4.593q-1.133,9.533-2.307,19.063a2.376,2.376,0,0,0,2.363,2.362,2.42,2.42,0,0,0,2.363-2.362q1.181-9.709,2.351-19.424c.169-1.43.428-2.885.5-4.323a12.655,12.655,0,0,0-.548-3.476c-.39-1.632-.743-3.274-1.071-4.919-.591-2.979-5.15-1.718-4.558,1.256Z" transform="translate(-146.548 -14446.495)" fill="#211715"/>
        <path id="パス_1261" data-name="パス 1261" d="M250.028,14568.327l-6.055.015a2.362,2.362,0,1,0,0,4.724l6.055-.012a2.363,2.363,0,1,0,0-4.727Z" transform="translate(-148.279 -14444.734)" fill="#211715"/>
        <path id="パス_1262" data-name="パス 1262" d="M261.828,14610.688c-.965-6.449-1.943-12.9-2.887-19.349q-.236-1.607-.465-3.218-.083-.584-.163-1.165c-.045-.332.045.354-.013-.1-.018-.137-.037-.273-.053-.41-.268-2.264.954-4.583,1.5-6.75.747-2.953-3.811-4.206-4.557-1.256-.638,2.521-1.925,5.153-1.7,7.8.163,1.871.507,3.744.778,5.6.977,6.706,2,13.4,3,20.1a2.382,2.382,0,0,0,2.907,1.655,2.423,2.423,0,0,0,1.654-2.906Z" transform="translate(-151.297 -14446.882)" fill="#211715"/>
        <path id="パス_1263" data-name="パス 1263" d="M263.047,14578.534a70.35,70.35,0,0,0,9.89-13.4q1.065-1.764,2.134-3.525a3.424,3.424,0,0,0,.736-2.252,6.158,6.158,0,0,0-.965-2.126,28.728,28.728,0,0,0-5.176-6.643,2.406,2.406,0,0,0-3.341,0,51.374,51.374,0,0,1-8.473,6.866q-2.234,1.438-4.6,2.667c-1.5.771-3.587,1.319-4.091,3.153a4.285,4.285,0,0,0,1.118,3.713c1.024,1.354,2.1,2.672,3.179,3.984,2.071,2.53,4.178,5.029,6.242,7.561a2.38,2.38,0,0,0,3.343,0,2.416,2.416,0,0,0,0-3.341c-1.723-2.115-3.476-4.208-5.213-6.312-.977-1.181-1.953-2.371-2.91-3.573-.269-.34-.541-.677-.8-1.026-.111-.152-.217-.339-.34-.483-.21-.246.052-.29.021.1l-.322,1.194q-.592.483-.052.177l.366-.168c.37-.175.739-.354,1.1-.529q1.122-.558,2.216-1.168,2.254-1.257,4.384-2.723a57.12,57.12,0,0,0,8.163-6.759h-3.341a25.836,25.836,0,0,1,5.121,6.938v-2.384c-3.567,5.816-6.889,11.842-11.742,16.717C257.557,14577.351,260.9,14580.693,263.047,14578.534Z" transform="translate(-150.184 -14440.042)" fill="#211715"/>
        <path id="パス_1264" data-name="パス 1264" d="M228.908,14575.191c-4.852-4.875-8.173-10.9-11.74-16.718v2.386a25.764,25.764,0,0,1,5.121-6.938h-3.343a57.367,57.367,0,0,0,8.164,6.759q2.127,1.46,4.384,2.721,1,.561,2.032,1.075c.365.186.733.363,1.1.536.182.088.366.173.551.256q.532.308-.054-.177l-.322-1.194c-.026-.335.255-.374.022-.1-.1.118-.183.265-.274.394-.275.383-.571.748-.865,1.117-.957,1.2-1.933,2.389-2.911,3.573-1.736,2.105-3.49,4.2-5.211,6.313a2.431,2.431,0,0,0,0,3.341,2.38,2.38,0,0,0,3.341,0c2.022-2.48,4.085-4.935,6.115-7.411,1.089-1.329,2.178-2.66,3.22-4.027a4.4,4.4,0,0,0,1.2-3.825c-.491-1.781-2.451-2.314-3.907-3.058q-2.363-1.208-4.6-2.649a51.451,51.451,0,0,1-8.653-6.982,2.41,2.41,0,0,0-3.343,0,28.7,28.7,0,0,0-5.073,6.464,9.117,9.117,0,0,0-1.026,2,3.163,3.163,0,0,0,.695,2.564q1.063,1.761,2.127,3.526a70.328,70.328,0,0,0,9.892,13.4C227.712,14580.691,231.058,14577.352,228.908,14575.191Z" transform="translate(-140.948 -14440.041)" fill="#211715"/>
        <path id="パス_1265" data-name="パス 1265" d="M165.16,14585.714a26.545,26.545,0,0,1,5.771-2.689c2.4-1.033,4.765-2.128,7.146-3.19q6.88-3.069,13.788-6.076a2.375,2.375,0,0,0,.848-3.23,2.426,2.426,0,0,0-3.233-.847q-6.917,2.991-13.789,6.074c-2.287,1.021-4.557,2.094-6.866,3.071a27.107,27.107,0,0,0-6.05,2.812,2.439,2.439,0,0,0-.848,3.234,2.381,2.381,0,0,0,3.233.846Z" transform="translate(-127.925 -14445.003)" fill="#211715"/>
        <path id="パス_1266" data-name="パス 1266" d="M262.667,14584.579a67.071,67.071,0,0,1-16.878,2.379,73.129,73.129,0,0,1-19.17-2.933" transform="translate(-144.464 -14448.734)" fill="none"/>
        <path id="パス_1267" data-name="パス 1267" d="M182.4,14738.85c21.649,0,84.063.077,100.224.077" transform="translate(-133.21 -14488.179)" fill="none"/>
        <path id="パス_1268" data-name="パス 1268" d="M289.78,14569.864c5.819,2.459,11.58,5.034,17.353,7.607q4.018,1.793,8.055,3.56c2.66,1.158,5.741,1.944,8.081,3.69a2.377,2.377,0,0,0,3.233-.846,2.416,2.416,0,0,0-.847-3.231c-2.3-1.717-5.235-2.456-7.841-3.589q-4.159-1.809-8.295-3.663c-5.769-2.572-11.534-5.149-17.353-7.607a2.448,2.448,0,0,0-3.233.849,2.376,2.376,0,0,0,.847,3.231Z" transform="translate(-160.241 -14444.013)" fill="#211715"/>
        <path id="パス_1269" data-name="パス 1269" d="M327.7,14587.717c-2.671,16.877-5.65,33.794-7.062,50.829-.552,6.648-1.007,13.3-1.443,19.957-.2,3.036,4.528,3.022,4.727,0,.667-10.188,1.2-20.435,2.507-30.566,1.115-8.675,2.466-17.32,3.8-25.963q1-6.5,2.032-13a2.434,2.434,0,0,0-1.654-2.905,2.379,2.379,0,0,0-2.907,1.653Z" transform="translate(-168.022 -14449.233)" fill="#211715"/>
        <path id="パス_1270" data-name="パス 1270" d="M168.74,14631.708c.693,4.5,1.826,8.968,2.784,13.422.527,2.446,1.064,4.891,1.563,7.342.162.784.311,1.568.467,2.352.022.112.032.229.06.341.118.466-.092-.783-.011-.094.081.666.169,1.334.25,2a83.5,83.5,0,0,1,.889,12.319c-.078,3.04,4.649,3.038,4.727,0,.283-11.027-2.628-21.853-4.893-32.547-.45-2.124-.945-4.251-1.278-6.394a2.38,2.38,0,0,0-2.907-1.652,2.421,2.421,0,0,0-1.654,2.906Z" transform="translate(-129.716 -14460.119)" fill="#211715"/>
        <path id="パス_1271" data-name="パス 1271" d="M276.275,14562.227a54.818,54.818,0,0,1,9.2,6.684,38.587,38.587,0,0,1,3.532,3.544,12.247,12.247,0,0,1,.99,1.285c.147.224.28.45.412.681.076.139.147.278.212.422q-.149-.347-.022.017l1.086-2.668a89.494,89.494,0,0,0-7.425,5.065,43.273,43.273,0,0,1-4.4,3.238,2.377,2.377,0,0,0-.473,3.71,80.481,80.481,0,0,1,6.714,6.449l-.37-2.862a29.652,29.652,0,0,0-2.432,4.393c-1.553,2.979-3.072,5.976-4.592,8.972-3.672,7.235-7.316,14.49-11.1,21.669-1.418,2.689,2.661,5.079,4.08,2.385,3.781-7.179,7.429-14.433,11.1-21.668,1.521-3,3.039-5.994,4.592-8.973a29.662,29.662,0,0,1,2.432-4.394,2.37,2.37,0,0,0-.37-2.862,80.24,80.24,0,0,0-6.714-6.449l-.479,3.71a43.41,43.41,0,0,0,4.4-3.237,89.617,89.617,0,0,1,7.425-5.065,2.4,2.4,0,0,0,1.085-2.669c-.964-3.086-3.7-5.624-6.017-7.736a60.716,60.716,0,0,0-10.483-7.715c-2.641-1.521-5.024,2.563-2.386,4.081Z" transform="translate(-154.821 -14442.057)" fill="#211715"/>
        <path id="パス_1272" data-name="パス 1272" d="M208.235,14558.753a86.806,86.806,0,0,0-10.162,7.169c-2.547,2.06-5.876,4.577-6.91,7.837a2.425,2.425,0,0,0,1.087,2.668c3.86,2.794,8.16,5.593,11.766,8.416v-3.342c-2.2,2.157-5.022,3.834-6.972,6.22a2.458,2.458,0,0,0,0,3.34c-.709-.9.286.423.494.715q.772,1.094,1.536,2.189,2.371,3.4,4.727,6.815c3.936,5.675,7.876,11.351,11.881,16.979,1.815,2.552,3.638,5.1,5.532,7.594a2.44,2.44,0,0,0,3.233.849,2.379,2.379,0,0,0,.848-3.232c-7.621-10.04-14.617-20.575-21.815-30.924-1.01-1.452-1.993-2.935-3.089-4.325v3.336c1.957-2.382,4.779-4.06,6.978-6.218a2.372,2.372,0,0,0,0-3.341c-4.111-3.219-8.494-6.092-12.723-9.153l1.087,2.668q.119-.356-.051.076c.058-.119.119-.237.188-.355.171-.255.325-.519.515-.764.129-.168.786-.878,1.139-1.238a47.369,47.369,0,0,1,4.208-3.72,78.876,78.876,0,0,1,8.9-6.184c2.612-1.554.236-5.64-2.384-4.08Z" transform="translate(-135.422 -14442.207)" fill="#211715"/>
        <path id="パス_1273" data-name="パス 1273" d="M213.524,14561.449c2.028,8.289,5.189,16.363,8.118,24.362,3.739,10.214,7.631,20.368,11.551,30.514q2.524,6.53,5.052,13.059a2.432,2.432,0,0,0,2.907,1.653,2.381,2.381,0,0,0,1.654-2.907c-7.182-18.651-14.613-37.229-21.077-56.146-1.327-3.886-2.666-7.8-3.643-11.787-.722-2.954-5.281-1.7-4.557,1.257Z" transform="translate(-141.113 -14442.235)" fill="#211715"/>
        <path id="パス_1274" data-name="パス 1274" d="M270.4,14559.563c-1.553,8.771-4.507,17.378-7.208,25.846q-4.933,15.5-10.378,30.83c-1.376,3.9-2.763,7.795-4.229,11.658a2.382,2.382,0,0,0,1.654,2.906,2.418,2.418,0,0,0,2.908-1.654c3.089-8.142,5.919-16.387,8.719-24.633,3.506-10.32,6.933-20.685,9.953-31.163a123.112,123.112,0,0,0,3.137-12.533,2.429,2.429,0,0,0-1.654-2.905,2.383,2.383,0,0,0-2.907,1.653Z" transform="translate(-150.034 -14442.061)" fill="#211715"/>
        <path id="パス_1275" data-name="パス 1275" d="M246.267,14653.135a44.739,44.739,0,0,0-3.452,18.158c.2,5.063.65,10.126.905,15.188q.935,18.532,2.817,37.01c.613,6.025,1.27,12.065,2.313,18.033a2.385,2.385,0,0,0,2.908,1.653,2.418,2.418,0,0,0,1.654-2.906c-1.959-11.2-2.793-22.64-3.67-33.966-.876-11.293-1.384-22.6-2.127-33.9a41.292,41.292,0,0,1,3.216-18,2.377,2.377,0,0,0-1.654-2.905,2.424,2.424,0,0,0-2.907,1.653Z" transform="translate(-148.583 -14465.905)" fill="#211715"/>
        <path id="パス_1276" data-name="パス 1276" d="M262.715,14665.511a8.3,8.3,0,0,0-1.648-.591,5.324,5.324,0,0,0-2.4.078,6.051,6.051,0,0,0-3.014,1.853,6.239,6.239,0,0,0-1.521,3.741,5.122,5.122,0,0,0,.9,3.183,7.456,7.456,0,0,0,2.482,2.392,7.211,7.211,0,0,0,3.3.814,5,5,0,0,0,3.651-1.183,6.019,6.019,0,0,0,1.755-2.953,6.2,6.2,0,0,0-.709-4.6,6.273,6.273,0,0,0-2.792-2.719,2.573,2.573,0,0,0-1.821-.237,2.364,2.364,0,0,0-1.656,2.9v.006a2.3,2.3,0,0,0,1.087,1.41,4.077,4.077,0,0,1,.827.492l-.479-.37a4.322,4.322,0,0,1,.651.664l-.368-.479a6.371,6.371,0,0,1,.776,1.357l-.236-.565a3.991,3.991,0,0,1,.252.93l-.084-.628a3.692,3.692,0,0,1-.016.831l.083-.628a4.209,4.209,0,0,1-.261.945l.236-.565a4.4,4.4,0,0,1-.533.91l.369-.472a3.409,3.409,0,0,1-.5.514l.479-.369a2.338,2.338,0,0,1-.409.249l.564-.233a2.438,2.438,0,0,1-.584.146l.628-.083a6.846,6.846,0,0,1-1.648-.033l.629.085a4.529,4.529,0,0,1-.989-.245l.565.233a4.2,4.2,0,0,1-.9-.529l.479.368a5.513,5.513,0,0,1-.945-.959l.37.479a4.785,4.785,0,0,1-.554-.93l.236.563a2.619,2.619,0,0,1-.174-.614l.083.63a4.062,4.062,0,0,1,.01-.917l-.085.626a3.873,3.873,0,0,1,.251-.945l-.236.565a3.887,3.887,0,0,1,.423-.722l-.37.474a4.282,4.282,0,0,1,.753-.753l-.473.369a4.132,4.132,0,0,1,.839-.482l-.565.233a4.157,4.157,0,0,1,.939-.251l-.628.084a2.719,2.719,0,0,1,.617-.012l-.628-.086a5.035,5.035,0,0,1,1.1.334l-.564-.234.081.033a2.588,2.588,0,0,0,1.821.236,2.362,2.362,0,0,0,1.655-2.9v0A2.277,2.277,0,0,0,262.715,14665.511Z" transform="translate(-151.464 -14469.318)" fill="#211715"/>
        <path id="パス_1277" data-name="パス 1277" d="M250.886,14748.865a70.985,70.985,0,0,0,4.553,12.688c1.786,3.8,3.743,7.679,7.879,9.287,3.947,1.536,8.71,1.4,12.88,1.548,9.418.339,18.868.386,28.292.222,1.81-.033,3.737-.1,5.058-1.537,1.033-1.119,1.063-2.854,1.045-4.29-.02-1.795-.13-3.594-.188-5.393-.23-7.086-.727-14.126-1.287-21.2-.709-8.971-.925-17.988-1.332-26.979-.461-10.218-1.145-20.465-1.258-30.7-.034-3.039-4.761-3.045-4.727,0,.092,8.3.625,16.621,1,24.916.371,8.269.762,16.544,1.072,24.823.236,6.429.98,12.837,1.407,19.253.236,3.57.311,7.148.427,10.727.049,1.514.144,3.033.16,4.547a12.982,12.982,0,0,0-.1,1.587l.669-.786-.308.234a2.146,2.146,0,0,0-.387.039,19.342,19.342,0,0,1-3.083.055q-2.935.032-5.872.031c-5.069.008-10.138-.023-15.2-.127-2.75-.057-5.5-.133-8.248-.27q-1.611-.076-3.22-.2c-.48-.035-.961-.076-1.441-.127-.185-.018-1.3-.174-.57-.061a10.525,10.525,0,0,1-4.209-1.253c-1.654-1.1-2.555-3.1-3.426-4.8a64.641,64.641,0,0,1-5.02-13.489c-.749-2.943-5.308-1.7-4.559,1.256Z" transform="translate(-150.619 -14473.247)" fill="#211715"/>
        <path id="パス_1278" data-name="パス 1278" d="M334.007,14830.434c3.191,2.138,7.305,1.3,10.562-.209a16.717,16.717,0,0,0,7.6-7.4c3.826-6.917.776-15.02-1.053-22.1a63.262,63.262,0,0,1-2.315-14.569c-.066-3.036-4.792-3.048-4.727,0a65.837,65.837,0,0,0,2.245,14.91c1.168,4.574,2.836,9.357,3.019,14.108a11.827,11.827,0,0,1-3.545,8.544c-2.1,2.1-6.543,4.55-9.405,2.633-2.533-1.7-4.9,2.393-2.386,4.079Z" transform="translate(-171.517 -14499.649)" fill="#211715"/>
        <path id="パス_1279" data-name="パス 1279" d="M344.421,14771.91c.136,3.25.37,6.5.536,9.742l1.735-2.277c-.9.141-1.794.271-2.693.4l-.689.094c-.771.106.467-.06-.319.043-.489.063-.979.13-1.469.192q-3.168.406-6.341.773-3.589.419-7.183.81a2.433,2.433,0,0,0-2.363,2.362,2.381,2.381,0,0,0,2.363,2.364c6.659-.717,13.334-1.439,19.951-2.482a2.36,2.36,0,0,0,1.735-2.277c-.166-3.248-.4-6.5-.536-9.743a2.412,2.412,0,0,0-2.363-2.363,2.387,2.387,0,0,0-2.363,2.363Z" transform="translate(-169.662 -14495.999)" fill="#211715"/>
        <path id="パス_1280" data-name="パス 1280" d="M328.73,14788.993c-1.947,8.15-4.567,16.182-5.245,24.582-.273,3.391,1.9,7.322,5.583,7.678,2.565.246,5.38-1.883,7.037-3.677,2.064-2.229-1.271-5.578-3.341-3.339a10.752,10.752,0,0,1-1.928,1.57c-.569.382-1.1.885-1.529.676a2.586,2.586,0,0,1-1.148-2.172,26.948,26.948,0,0,1,.574-4.93c1.048-6.479,3.034-12.757,4.555-19.136.709-2.951-3.851-4.215-4.557-1.254Z" transform="translate(-169.109 -14500.525)" fill="#211715"/>
        <path id="パス_1281" data-name="パス 1281" d="M345.374,14950.794c1.367-17.153-.473-74.109-2.211-86.807a1.449,1.449,0,0,0-1.446-1.172c-6.122-.206-14.408-.375-20.888-.342a1.546,1.546,0,0,0-1.579,1.253c-1.673,12.028-5.132,68.412-4.651,86.395.105,3.925,3.681,5.335,8.113,5.374,4.658.043,10.012.035,14.444.023C341.485,14955.509,345.066,14954.617,345.374,14950.794Z" transform="translate(-166.842 -14519.674)" fill="#7a7473"/>
        <path id="パス_1282" data-name="パス 1282" d="M346.9,14949.959c.5-6.369.483-12.792.473-19.179-.011-8.693-.175-17.39-.421-26.08-.236-8.4-.55-16.8-1-25.191-.177-3.288-.374-6.574-.626-9.856a44.9,44.9,0,0,0-.723-7.125c-.792-3.224-4.264-2.93-6.87-3q-4.473-.126-8.946-.194c-2.969-.044-6.027-.259-8.992-.03-2.691.211-3.58,2.211-3.872,4.554-.717,5.752-1.118,11.551-1.543,17.329-1.273,17.277-2.263,34.593-2.8,51.91-.108,3.474-.194,6.948-.22,10.425-.024,3.04-.565,7,1.182,9.646,3.054,4.635,9.745,3.876,14.52,3.888,3.085.009,6.173.024,9.259,0a14.958,14.958,0,0,0,7.1-1.4,6.959,6.959,0,0,0,3.482-5.688,2.377,2.377,0,0,0-2.363-2.362,2.418,2.418,0,0,0-2.363,2.362c-.177,1.587-1.879,2.008-3.227,2.212a50.6,50.6,0,0,1-7.656.161c-2.971,0-5.943,0-8.913-.027-1.756-.017-3.973-.014-5.413-1.192-1.021-.837-.854-2.219-.87-3.415-.018-1.31-.018-2.619-.009-3.929.022-3.241.1-6.48.194-9.721.479-16.226,1.4-32.446,2.526-48.639.434-6.21.883-12.423,1.517-18.614q.152-1.475.329-2.942a2.138,2.138,0,0,0,.072-.567c.137.593-1.406.719-.046.709s2.717,0,4.079.011q4.3.032,8.6.129,2.073.047,4.147.1l1.844.055a3.746,3.746,0,0,0,.887.028c.573-.135.224-.14-.183-.543-.2-.2-.057-.472,0,.068.027.236.055.461.081.693.055.488.105.975.154,1.467.118,1.174.212,2.351.3,3.528.236,3.018.42,6.04.591,9.063.429,7.768.731,15.543.969,23.318.455,14.845.927,29.786.236,44.631-.054,1.139-.119,2.274-.208,3.409C341.935,14952.99,346.663,14952.977,346.9,14949.959Z" transform="translate(-166.003 -14518.839)" fill="#211715"/>
        <path id="パス_1283" data-name="パス 1283" d="M332.926,14859.545c.2-6.434.549-25.216.288-27.051,1.575-.017,4.49.16,6.108.12.134,5.294-.175,23.379-.09,26.989Z" transform="translate(-171.517 -14512.036)" fill="#211715"/>
        <path id="パス_1284" data-name="パス 1284" d="M334.482,14858.739c.155-5.079.245-10.164.315-15.25.036-2.567.066-5.136.065-7.7a32.871,32.871,0,0,0-.092-4.091l-2.363,2.362c2.036,0,4.071.154,6.108.117l-2.363-2.36c.216,8.992-.284,17.994-.09,26.988l2.363-2.362-6.306-.059c-3.042-.029-3.045,4.7,0,4.725l6.306.059a2.391,2.391,0,0,0,2.363-2.362c-.194-8.994.306-18,.09-26.988a2.4,2.4,0,0,0-2.363-2.362c-2.038.037-4.072-.117-6.108-.117a2.369,2.369,0,0,0-2.363,2.36,32.865,32.865,0,0,1,.092,4.091c0,2.568-.029,5.137-.065,7.7-.071,5.08-.16,10.167-.315,15.25C329.663,14861.781,334.39,14861.779,334.482,14858.739Z" transform="translate(-170.71 -14511.233)" fill="#211715"/>
        <path id="パス_1285" data-name="パス 1285" d="M329.82,14587.34c1.276.671,2.63,1.181,3.894,1.881a17.257,17.257,0,0,1,3.761,3.014,18.777,18.777,0,0,1,4.187,6.037c2.1,5.058,1.8,10.917,2.077,16.273.731,13.938,1.537,27.876,2.336,41.8.819,14.236,1.635,28.468,2.372,42.714.308,5.962.626,11.929.834,17.894a17.706,17.706,0,0,1,.069,4.246c-.027.118-.731.412-.151.229a1.261,1.261,0,0,1-.136.016,9.845,9.845,0,0,1-1.046.119l-18.355,2.079a2.434,2.434,0,0,0-2.363,2.363,2.38,2.38,0,0,0,2.363,2.362l17.51-1.984c.676-.077,1.354-.147,2.03-.23a5.419,5.419,0,0,0,4.936-5.634c-.056-4.641-.355-9.293-.584-13.927-1.474-29.784-3.365-59.548-4.947-89.327-.2-3.795-.317-7.6-.606-11.394a30.718,30.718,0,0,0-1.648-8.506,23.541,23.541,0,0,0-4.9-7.812,27.055,27.055,0,0,0-4.129-3.645,44.325,44.325,0,0,0-5.124-2.649c-2.689-1.418-5.081,2.663-2.386,4.08Z" transform="translate(-170.085 -14448.465)" fill="#211715"/>
        <path id="パス_1286" data-name="パス 1286" d="M154.927,14595.35a8.147,8.147,0,0,1,1.468-4.312c1.048-1.181,1.866-2.934,2.829-4.187a7.411,7.411,0,0,0,1.2-6.94c-.754-2.4-2.19-4.09-2.062-6.6a8.494,8.494,0,0,1,1.756-4.233,14.069,14.069,0,0,0,2.363-4.1,3.9,3.9,0,0,0-1.242-3.958,2.637,2.637,0,0,0-2.321-.389,3.967,3.967,0,0,0-1.573-4.672c-1.623-1.193-3.239-.814-4.788.2.4-1.618.15-3.934-1.2-4.918s-3.9-1.514-5.248.072a3.6,3.6,0,0,0-2.333-3.846,5.425,5.425,0,0,0-4.745,1.4,11.99,11.99,0,0,0-1.891,2.243l-4.172,5.876c-2.482,3.5-5.094,7.492-4.413,11.729.463,2.878,2.388,6.577,3.39,9.313,1.695,4.625,4.311,7.886,4.49,13.037" transform="translate(-119.483 -14439.395)" fill="#fff"/>
        <path id="パス_1287" data-name="パス 1287" d="M156.4,14595.158a6.625,6.625,0,0,1,2.043-4.818,37.333,37.333,0,0,0,2.92-4.606,9.8,9.8,0,0,0,.86-5.8,28.148,28.148,0,0,0-1.929-5.352c-1.4-3.845,2.755-6.334,3.663-9.8a6.285,6.285,0,0,0-1.244-5.588,5.049,5.049,0,0,0-5.225-1.66l2.907,2.906a6.415,6.415,0,0,0-9.833-7.147l3.475,2.676c.6-2.834.1-6.121-2.546-7.765a6.349,6.349,0,0,0-7.847.622l4.035,1.67a5.917,5.917,0,0,0-8.23-5.855,10.851,10.851,0,0,0-4.86,4.068c-1.4,1.92-2.758,3.881-4.135,5.822-2.471,3.484-5.011,7.26-5.159,11.679-.136,4.049,2.107,7.78,3.505,11.447,1.578,4.135,4.246,8.07,4.48,12.6.156,3.026,4.884,3.046,4.727,0-.229-4.424-2.149-8.052-3.907-12.017-.848-1.909-1.583-3.879-2.386-5.809a16.559,16.559,0,0,1-1.7-5.739c-.086-4.416,3.557-8.422,5.961-11.811,1.218-1.72,2.389-4.057,4.128-5.3,1.282-.915,2.968-1.084,2.845.915a2.388,2.388,0,0,0,4.035,1.669c.268-.274.344-.36.955-.31a2.38,2.38,0,0,1,1.163.427c.6.536.526,1.715.374,2.43a2.392,2.392,0,0,0,3.472,2.667c.871-.53,1.6-.911,2.44-.127a1.654,1.654,0,0,1,.45,1.938,2.393,2.393,0,0,0,2.907,2.906c1.008-.174.6,1.7.378,2.177-.661,1.4-1.772,2.557-2.543,3.893-1.844,3.2-1.536,6.236-.086,9.489a8.882,8.882,0,0,1,1.136,4.119,7.587,7.587,0,0,1-1.765,3.8c-.858,1.286-1.739,2.548-2.6,3.827a10.96,10.96,0,0,0-1.418,4.508,2.433,2.433,0,0,0,1.654,2.906,2.382,2.382,0,0,0,2.907-1.652Z" transform="translate(-118.678 -14438.577)" fill="#211715"/>
        <path id="パス_1288" data-name="パス 1288" d="M142.006,14564.031a72.2,72.2,0,0,1,4.638-6.649c.4-.522.8-1.045,1.19-1.572.19-.256.384-.508.569-.768.236-.335-.381.429-.092.124.08-.081.153-.169.236-.252a14.343,14.343,0,0,1,1.153-1.063c.335-.291-.223.151.009-.012.118-.082.236-.169.354-.25a7.509,7.509,0,0,1,.681-.415,2.383,2.383,0,0,0,.848-3.232,2.414,2.414,0,0,0-3.233-.848,13.244,13.244,0,0,0-3,2.322,31.706,31.706,0,0,0-2.541,3.257,75.7,75.7,0,0,0-4.887,6.976,2.363,2.363,0,0,0,4.068,2.407l.013-.021Z" transform="translate(-121.811 -14439.756)" fill="#211715"/>
        <path id="パス_1289" data-name="パス 1289" d="M152.918,14568.406a47.078,47.078,0,0,1,2.969-4.569c.127-.173.257-.345.388-.517.182-.236.021,0-.074.095.074-.079.133-.173.2-.255.284-.357.573-.71.87-1.062q.9-1.063,1.891-2.046a2.363,2.363,0,1,0-3.284-3.4l-.058.058a44.456,44.456,0,0,0-6.977,9.306,2.364,2.364,0,0,0,4.081,2.386h0Z" transform="translate(-124.589 -14441.593)" fill="#211715"/>
        <path id="パス_1290" data-name="パス 1290" d="M162.1,14572.784c.8-1.212,1.6-2.421,2.482-3.572l-.371.479a19.634,19.634,0,0,1,3.049-3.214,2.367,2.367,0,0,0,.691-1.67,2.413,2.413,0,0,0-.691-1.672,2.381,2.381,0,0,0-1.672-.689,2.705,2.705,0,0,0-1.671.689,31.125,31.125,0,0,0-5.9,7.264,2.379,2.379,0,0,0,.848,3.231,2.419,2.419,0,0,0,3.233-.846Z" transform="translate(-126.927 -14443.237)" fill="#211715"/>
        <path id="パス_1291" data-name="パス 1291" d="M135.3,14607.231c-.5,2.281-1.077,5.205-1.724,7.872,7.318.8,16.881,2.341,23.9,3.426.06,1.308,1.258-7.8,1.517-9.178-.907-.167-17.284-2.423-23.454-3.166C135.458,14606.515,135.38,14606.865,135.3,14607.231Z" transform="translate(-120.786 -14454.382)" fill="#fff"/>
        <path id="パス_1292" data-name="パス 1292" d="M155.57,14552.949c.649,0,1.3-.014,1.944.012q.565.021,1.128.064c.156.014.31.029.465.045l.279.033-.257-.037a4.141,4.141,0,0,1,1.112.2q.473.1.929.223c.379.1.754.222,1.126.354.16.057.318.119.473.176.1.035.193.072.288.112q-.378-.166-.161-.063c.109.063.226.118.335.179.063.037.125.078.186.119.147.1.085.049-.186-.154.016.068.218.191.268.236.11.105.273.442.15.133-.132-.33.011.021.069.114.081.125.147.254.22.383.224.394-.149-.485.006-.01.038.117.081.226.111.339a1.794,1.794,0,0,0,.075.323c-.045-.384-.06-.479-.045-.29,0,.066.009.134.009.2,0,.1-.059.362-.016.427-.065-.1.1-.576,0-.107a6.628,6.628,0,0,1-.249.883c-.031.084-.193.655-.042.131a3.746,3.746,0,0,1-.264.556,2.363,2.363,0,0,0,4.068,2.405l.013-.021a8.524,8.524,0,0,0,1.08-5.434,6.7,6.7,0,0,0-2.884-4.19,10.38,10.38,0,0,0-2.535-1.094,16.632,16.632,0,0,0-2.421-.6,31.393,31.393,0,0,0-5.277-.354,2.363,2.363,0,1,0,0,4.726Z" transform="translate(-125.78 -14439.616)" fill="#211715"/>
        <path id="パス_1293" data-name="パス 1293" d="M159.07,14618.26c.68-2.985.869-6.075,1.411-9.087a2.4,2.4,0,0,0-1.654-2.905c-3.278-.58-6.608-.945-9.9-1.39-4.727-.642-9.445-1.29-14.18-1.862a2.365,2.365,0,0,0-2.28,1.734c-.657,2.885-1.216,5.788-1.9,8.674-.7,2.952,3.854,4.215,4.557,1.254.685-2.88,1.244-5.788,1.9-8.672l-2.272,1.732c7.6.921,15.28,1.749,22.826,3.084l-1.654-2.907c-.543,3.012-.732,6.1-1.411,9.087-.672,2.962,3.883,4.227,4.558,1.257Z" transform="translate(-120.001 -14453.574)" fill="#211715"/>
        <path id="パス_1294" data-name="パス 1294" d="M159.73,14660.148a37.848,37.848,0,0,1-15.038,11.6,22.935,22.935,0,0,1-16.3.6,9.37,9.37,0,0,1-5.56-4.678,15.412,15.412,0,0,1-1.616-9.063,149.381,149.381,0,0,1,3.072-20.6c1.491-6.85,3.49-13.572,5.527-20.278l-2.285,1.736c8.937.894,17.8,2.431,26.675,3.787l-1.735-2.279c-.938,8.648-1.772,17.4-3.426,25.94-.577,2.971,3.977,4.244,4.557,1.256,1.739-8.955,2.618-18.129,3.6-27.2a2.354,2.354,0,0,0-1.735-2.278c-9.293-1.416-18.576-3.018-27.932-3.955a2.379,2.379,0,0,0-2.279,1.734c-4.191,13.795-7.7,27.7-8.767,42.138-.489,6.583,1.806,14.055,8.057,17.292a24.753,24.753,0,0,0,9.424,2.335,27.678,27.678,0,0,0,9.571-1.112c7.774-2.275,14.453-7.442,19.542-13.639,1.916-2.331-1.41-5.691-3.343-3.341Z" transform="translate(-116.421 -14456.56)" fill="#211715"/>
        <path id="パス_1295" data-name="パス 1295" d="M247.58,14828.955c-.4,9.873-.521,19.765-.7,29.646q-.379,21.346-.7,42.69c-.2,12.256-.388,24.511-.7,36.764-.221,8.7-.709,17.389-1.169,26.082-.757,14.379-1.545,28.757-2.127,43.145q-.082,1.994-.151,3.993c-.107,3.039,4.621,3.036,4.727,0,.488-13.957,1.272-27.9,2.009-41.847.491-9.376,1.089-18.753,1.358-28.142.333-11.558.506-23.122.7-34.687q.355-21.5.7-42.987c.184-10.771.335-21.546.7-32.315q.039-1.17.086-2.343c.125-3.041-4.6-3.036-4.727,0Z" transform="translate(-148.387 -14510.554)" fill="#211715"/>
        <path id="パス_1296" data-name="パス 1296" d="M249.522,14828.927c.324,9.566.409,19.146.546,28.717q.3,21.278.56,42.56c.163,12.628.319,25.258.557,37.887.157,8.338.489,16.665.847,25,.632,14.719,1.3,29.438,1.793,44.163q.067,2.008.127,4.017c.089,3.032,4.816,3.045,4.727,0-.42-14.312-1.081-28.618-1.695-42.922-.384-8.96-.819-17.915-1.006-26.881-.251-12-.4-24-.555-36.006q-.282-21.406-.558-42.81c-.145-10.524-.26-21.054-.552-31.576q-.029-1.077-.065-2.146c-.1-3.033-4.831-3.047-4.727,0Z" transform="translate(-150.292 -14510.546)" fill="#211715"/>
        <path id="パス_1297" data-name="パス 1297" d="M193.78,15335.711c4.173.419,8.463.245,12.644.269q9.129.053,18.256-.018c2.275-.015,4.554-.028,6.83-.083,3.037-.072,3.048-4.8,0-4.725-10.73.254-21.491.207-32.223.027-1.831-.029-3.688-.012-5.512-.2a2.378,2.378,0,0,0-2.363,2.363,2.415,2.415,0,0,0,2.363,2.362Z" transform="translate(-135.504 -14639.037)" fill="#211715"/>
        <path id="パス_1298" data-name="パス 1298" d="M295.591,15330.985c-4.174.421-8.463.247-12.651.269q-9.127.053-18.255-.016c-2.277-.016-4.554-.029-6.83-.084-3.043-.072-3.042,4.652,0,4.725,10.73.253,21.491.208,32.221.027,1.832-.031,3.689-.012,5.514-.2a2.431,2.431,0,0,0,2.363-2.362,2.378,2.378,0,0,0-2.363-2.363Z" transform="translate(-151.833 -14639.037)" fill="#211715"/>
        <path id="パス_1299" data-name="パス 1299" d="M175.112,14682.519q-.87,13.72-1.733,27.439c-.59,9.579-.913,19.193-1.645,28.762-.591,7.661-1.162,15.277-1.411,22.956-.057,1.761-.176,3.525-.18,5.286,0,1.7.142,3.555,1.637,4.619s3.246,1.013,4.981,1.039c10.246.151,20.539.159,30.776-.355,2.07-.1,4.143-.235,6.2-.526a13.239,13.239,0,0,0,8.819-4.77,41.385,41.385,0,0,0,5.019-8.97c1.627-3.486,3.175-7.02,4.576-10.6.543-1.389,1.064-2.786,1.509-4.209.92-2.906-3.642-4.149-4.557-1.257a121.443,121.443,0,0,1-7.753,18.1c-1.631,3.215-3.506,6.01-7.208,6.843-.425.1-.851.174-1.279.251-.48.087.188-.021.007,0-.2.024-.408.049-.614.07-.926.1-1.857.171-2.788.23-10.122.659-20.324.577-30.46.49-1.254-.011-2.565.075-3.812-.056a4.851,4.851,0,0,0-.5-.033c-.107,0-.324-.268-.385-.244.4-.163.312,1.064.64.66a6.52,6.52,0,0,0-.065-.764c-.046-1.554.089-3.127.139-4.679.236-7.494.722-14.924,1.317-22.4.73-9.188,1.04-18.415,1.6-27.615q.872-14.435,1.818-28.866.046-.708.09-1.405c.194-3.037-4.534-3.024-4.727,0Z" transform="translate(-130.092 -14473.25)" fill="#211715"/>
      </g>
    </g>
  </g>
</svg>
