<svg xmlns="http://www.w3.org/2000/svg" xmlns:xlink="http://www.w3.org/1999/xlink" width="583.392" height="76.943" viewBox="0 0 583.392 76.943">
  <defs>
    <filter id="パス_2867" x="0" y="0" width="583.392" height="76.943" filterUnits="userSpaceOnUse">
      <feOffset dy="3" input="SourceAlpha"/>
      <feGaussianBlur stdDeviation="3" result="blur"/>
      <feFlood flood-opacity="0.161"/>
      <feComposite operator="in" in2="blur"/>
      <feComposite in="SourceGraphic"/>
    </filter>
  </defs>
  <g transform="matrix(1, 0, 0, 1, 0, 0)" filter="url(#パス_2867)">
    <path id="パス_2867-2" data-name="パス 2867" d="M-181.656-6.168h-9.576v2.832h9.576V2.136h3.072V-3.336h9.816V-6.168h-9.816V-8.52h7.632V-19.728H-189.1V-8.52h7.44Zm7.776-10.944v1.8h-12.288v-1.8Zm0,4.176v1.944h-12.288v-1.944Zm8.136-5.592h-1.3v2.64h1.3V-6.7h-1.632V-4.1h12.552V-6.7h-1.488v-9.192h1.536v-2.64h-1.536v-1.9h-2.76v1.9h-3.912v-1.9h-2.76Zm6.672,6.384v1.56h-3.912v-1.56Zm0-3.744v1.464h-3.912v-1.464Zm0,7.464V-6.7h-3.912V-8.424Zm4.824-11.376v8.5c0,6.768-.744,9.048-2.472,11.448L-154.3,2.16c.552-.72,2.04-2.616,2.448-7.176h3.576v3.5c0,.456-.1.792-.744.792h-2.208l.48,2.856h3.144c.912,0,2.16-.072,2.16-2.04V-19.8Zm5.976,2.808v3.336h-3.288v-3.336Zm0,5.952V-7.7h-3.336c.024-1.416.024-2.064.048-3.336Zm-16.08,7.08A15.757,15.757,0,0,1-167.64.12l1.992,2.064a14.781,14.781,0,0,0,3.7-4.944Zm3.624,1.44A19.491,19.491,0,0,1-158.256.864l2.016-1.752a14.1,14.1,0,0,0-2.52-3.048Zm28.68,3.624C-125.76.672-121.3-1.992-121.3-9.1c0-6.024-3.84-9.6-10.056-9.6-6.768,0-11.328,4.488-11.328,10.776,0,3.48,1.632,7.1,4.872,7.1,2.76,0,4.3-2.52,4.7-3.216,1.992-3.36,2.448-8.808,2.688-11.688,4.68.36,5.664,3.744,5.664,6.456,0,5.88-4.008,7.1-8.3,7.3Zm-1.56-16.68c-.552,7.488-2.232,11.5-4.008,11.5-.576,0-1.92-.552-1.92-3.576C-139.536-10.9-138.168-14.544-133.608-15.576Zm33.24-3.024c-1.272,0-4.056-.024-5.376,0-1.44.024-7.536.1-8.688.1-.552,0-1.344-.024-1.824-.048v3.168c1.44-.072,6.408-.192,7.968-.24-.576.312-1.872,1.008-2.4,1.368l2.16,1.9a22.393,22.393,0,0,1,8.16-3.336ZM-114.5-10.872c-1.632,1.8-2.76,3.432-2.76,5.688a5.133,5.133,0,0,0,2.736,4.44c2.088,1.1,4.176,1.368,9.12,1.368A44.621,44.621,0,0,0-99.1.312l-.072-3.24a54.862,54.862,0,0,1-7.176.408c-3.672,0-7.7-.048-7.7-2.856,0-.888.312-2.184,1.944-3.84Zm13.968,1.1a20.072,20.072,0,0,0-2.3-3.576l-1.776,1.008a23.01,23.01,0,0,1,2.208,3.648Zm3.048-1.536a16.2,16.2,0,0,0-2.28-3.456l-1.8,1.008a20.475,20.475,0,0,1,2.232,3.5Zm12.216-8.4V2.232h2.88V1.008h6.072V2.232h2.856V-19.7Zm8.952,8.568V-7.8h-6.072v-3.336Zm0,5.928v3.48h-6.072v-3.48Zm0-11.736v3.216h-6.072v-3.216ZM-94.7-2.472A19.328,19.328,0,0,0-91.8-7.8V2.232h2.88V-7.824a21.733,21.733,0,0,0,1.8,2.688L-85.584-7.8a15.7,15.7,0,0,1-3.336-4.464V-13.44h2.832v-2.808H-88.92v-4.224H-91.8v4.224h-3.48v2.808h3.312a19.934,19.934,0,0,1-3.744,7.272Zm29.328-.84v2.28H-68.16v-2.28Zm3.864,5.568A10.932,10.932,0,0,0-55.464-3.5c.432,1.1,1.536,3.84,5.9,5.76l1.368-2.808A10.522,10.522,0,0,1-52.2-2.928,7.494,7.494,0,0,1-54.168-8.64V-10.1H-57V-8.52c0,3.816-1.3,6.456-5.976,8.064V-5.568h-7.752V2.208h2.568V1.3h5.184V-.384Zm-9.216-9.072h7.752v-2.4h-7.752Zm8.472-1.08a19.541,19.541,0,0,1,1.344,4.608l2.664-.792a20.617,20.617,0,0,0-1.488-4.56Zm-8.472-9.6h7.752v-2.376h-7.752Zm8.76-1.248a14.724,14.724,0,0,1,.84,4.416l2.76-.792a20.293,20.293,0,0,0-1.1-4.368Zm-8.76,8.28h7.752v-2.328h-7.752ZM-57-19.128c0,3.864-2.088,6.384-5.736,7.632l1.512,2.712a11.275,11.275,0,0,0,5.76-5.712,11.314,11.314,0,0,0,5.784,5.76l1.44-2.76a9.639,9.639,0,0,1-3.816-2.424,6.771,6.771,0,0,1-2.064-5.328V-20.4H-57ZM-71.424-13.92h9.168v-2.4h-9.168Zm19.848-5.64a18.926,18.926,0,0,1-1.512,4.176l2.4,1.056a21.2,21.2,0,0,0,1.728-4.416Zm.24,10.8a23.443,23.443,0,0,1-1.656,4.512l2.448.984a21.32,21.32,0,0,0,1.848-4.8Zm12.24-6.672c.072-.6.432-3.48.5-4.128L-41.9-19.8c-.1,1.3-.192,2.424-.432,4.368h-4.008v3.072l3.552-.048a38.4,38.4,0,0,1-3.816,12.1l3.048,1.3a52.85,52.85,0,0,0,3.984-13.416l2.28-.024c1.488-.024,2.832.192,2.832,3.168,0,.816-.168,4.656-.912,6.336-.36.816-1.128,1.1-2.208,1.1A24.507,24.507,0,0,1-40.7-2.16l.192,3.1a30.159,30.159,0,0,0,3.552.24,4.531,4.531,0,0,0,3.84-1.56c1.176-1.44,1.776-5.328,1.776-7.992,0-3.24-.552-7.056-5.208-7.056Zm14.064,9.36c-.168-5.256-1.056-7.032-2.3-8.856l-2.88,1.152c1.416,2.784,1.7,4.344,1.7,8.136ZM-28.176-16.2a14.8,14.8,0,0,0-1.536-3.744l-1.968.6a17.019,17.019,0,0,1,1.44,3.864Zm3.576-.528a14.265,14.265,0,0,0-1.584-3.744l-1.944.6a17.511,17.511,0,0,1,1.56,3.768ZM-21.936-7.1c0,1.2,0,4.656-1.7,7.3l2.184,2.064A13.127,13.127,0,0,0-19.7-3.384h5.256V-1.3c0,.72-.168.72-.912.72h-2.184l.5,2.76H-14.3c.84,0,2.16,0,2.16-2.184V-14.976h-2.4A8.885,8.885,0,0,0-13.272-16.7v-2.352h-4.32c.168-.408.288-.648.456-1.1l-2.856-.336a12.848,12.848,0,0,1-3.7,5.256l.912,2.928c.432-.336.552-.456.84-.7Zm3.984-5.568V-10.3h-1.56v-2.376Zm0,4.608V-5.64h-1.56V-8.064Zm3.5-4.608V-10.3h-1.584v-2.376Zm0,4.608V-5.64h-1.584V-8.064Zm-5.64-6.912A18.2,18.2,0,0,0-18.84-16.7h2.5a6.4,6.4,0,0,1-1.416,1.728Zm8.16-4.68v2.52H-9.36a5.338,5.338,0,0,1-2.688,2.784l1.44,2.28a8.183,8.183,0,0,0,4.1-5.064h2.568c-.024,2.208-.408,2.208-1.224,2.208H-7.224l.6,2.4h2.712A1.974,1.974,0,0,0-1.7-13.872a26.45,26.45,0,0,0,.5-5.784ZM-6.96-7.368v2.3h-4.632V-2.3h4.7V2.184h2.664V-2.3h3.5v-2.76h-3.5v-2.3h3V-9.936h-3V-11.88H-6.96v1.944H-8.5c.168-.84.24-1.272.312-1.68l-2.424-.408c-.408,2.928-.816,3.936-1.44,5.016L-9.936-5.5A8.678,8.678,0,0,0-9.12-7.368ZM7.8-17.232v2.76h4.9V-12a17.381,17.381,0,0,1-.048,1.848H6.984v2.808h5.16A10.972,10.972,0,0,1,5.664-.576l1.848,2.76a13.841,13.841,0,0,0,6.936-7.512c.576,1.608,2.064,5.04,7.68,7.536L23.64-.744c-2.64-1.032-6-2.9-7.3-6.6H23.3v-2.808H21.912v-7.08H15.72v-3.192H12.7v3.192Zm7.8,7.08a21.728,21.728,0,0,0,.12-2.256v-2.064h3.168v4.32ZM1.416-18.144A16.8,16.8,0,0,1,5.4-15.576L7.224-18.12a15.923,15.923,0,0,0-4.176-2.4ZM.36-11.688a15.463,15.463,0,0,1,3.912,2.52L6.1-11.688A14.561,14.561,0,0,0,1.9-14.16ZM4.752-7.944A29.566,29.566,0,0,1,.24-.624L2.184,2.112a32.691,32.691,0,0,0,4.824-8.3ZM35.952,1.1C42.24.672,46.7-1.992,46.7-9.1c0-6.024-3.84-9.6-10.056-9.6C29.88-18.7,25.32-14.208,25.32-7.92c0,3.48,1.632,7.1,4.872,7.1,2.76,0,4.3-2.52,4.7-3.216,1.992-3.36,2.448-8.808,2.688-11.688,4.68.36,5.664,3.744,5.664,6.456,0,5.88-4.008,7.1-8.3,7.3Zm-1.56-16.68c-.552,7.488-2.232,11.5-4.008,11.5-.576,0-1.92-.552-1.92-3.576C28.464-10.9,29.832-14.544,34.392-15.576Zm20.28-.024h6.192a6.081,6.081,0,0,1-.36,1.128H56.016V-2.448h13.92V-14.472H63.408A8.138,8.138,0,0,0,63.96-15.6h7.272v-2.52H67.68c.264-.408.792-1.272,1.1-1.9l-3.072-.552a13.947,13.947,0,0,1-1.056,2.448H61.032a14.631,14.631,0,0,0-1.3-2.472l-2.76.744c.168.288.648,1.152.984,1.728H54.672v1.8a17.661,17.661,0,0,0-3.7-3.888l-2.064,1.944a20.927,20.927,0,0,1,3.5,4.152l2.256-2.016ZM67.008-9.264v1.416H58.944V-9.264Zm0-3.072v1.344H58.944v-1.344Zm0,6.216v1.488H58.944V-6.12ZM48.744-8.544H50.9v5.736a12.9,12.9,0,0,1-2.448,1.7L49.68,2.184a16.731,16.731,0,0,0,3.432-3.24c1.68,2.64,4.392,2.64,6.36,2.64h11.52l.576-2.808H59.616c-1.248,0-5.088,0-5.832-2.76v-7.392h-5.04ZM83.952,1.1C90.24.672,94.7-1.992,94.7-9.1c0-6.024-3.84-9.6-10.056-9.6C77.88-18.7,73.32-14.208,73.32-7.92c0,3.48,1.632,7.1,4.872,7.1,2.76,0,4.3-2.52,4.7-3.216,1.992-3.36,2.448-8.808,2.688-11.688,4.68.36,5.664,3.744,5.664,6.456,0,5.88-4.008,7.1-8.3,7.3Zm-1.56-16.68c-.552,7.488-2.232,11.5-4.008,11.5-.576,0-1.92-.552-1.92-3.576C76.464-10.9,77.832-14.544,82.392-15.576Zm18.768-4.176c-.72,2.664-.912,8.088-.912,10.968a38.658,38.658,0,0,0,.192,4.128l3.144-.24a18.056,18.056,0,0,1-.24-3c0-3.072,3.12-6.648,5.952-6.648,3.408,0,3.408,4.7,3.408,5.616,0,6.456-4.512,7.2-11.088,7.272l.7,3.024c8.256,0,13.728-2.232,13.728-10.128,0-5.88-2.832-8.736-6.456-8.736a7.367,7.367,0,0,0-5.856,3.048,19.582,19.582,0,0,1,.84-4.992ZM139.44-9.288a18.778,18.778,0,0,0-2.208-3.5l-1.872.984a28.05,28.05,0,0,1,2.16,3.6Zm3.144-1.656a17.4,17.4,0,0,0-2.184-3.24l-1.9.984a22.845,22.845,0,0,1,2.208,3.408Zm-.312-7.728c-2.448.1-13.44.5-15.5.624-1.776.1-3.7.216-5.3.216l.12,3.36c1.512-.144,8.928-.768,10.608-.912-5.712,3.648-6.144,7.632-6.144,9.192a6.543,6.543,0,0,0,3.72,5.712C131.976.6,134.424,1.1,139.68,1.128l.456-3.432c-9.984.336-10.776-2.472-10.776-4.32,0-3,2.616-5.52,3.984-6.576a10.24,10.24,0,0,1,6.024-2.3c.888-.024,2.448.024,3,.024Zm14.424,1.44H145.464v2.952h11.3l.024,1.608a4.587,4.587,0,0,0-2.088-.48,4.9,4.9,0,0,0-5.232,4.992,4.856,4.856,0,0,0,5.04,4.824,3.446,3.446,0,0,0,2.424-.744c-.6,1.776-2.112,2.664-7.7,2.76l1.008,2.9a25.48,25.48,0,0,0,4.44-.552c5.04-1.128,5.712-5.376,5.712-7.488a8.947,8.947,0,0,0-.288-2.256c-.024-.1-.168-.528-.168-.6V-14.28h6.624v-2.952h-6.624v-2.424h-3.288Zm.216,9.24a2.062,2.062,0,0,1-2.16,2.088,2.2,2.2,0,0,1-2.328-2.3,2.284,2.284,0,0,1,2.376-2.328,1.947,1.947,0,0,1,2.112,1.992ZM173.568-6.36a3.81,3.81,0,0,0-3.816,3.816,3.831,3.831,0,0,0,3.816,3.84,3.851,3.851,0,0,0,3.84-3.84A3.831,3.831,0,0,0,173.568-6.36Zm0,1.44a2.381,2.381,0,0,1,2.376,2.376,2.366,2.366,0,0,1-2.376,2.376,2.366,2.366,0,0,1-2.376-2.376A2.381,2.381,0,0,1,173.568-4.92ZM-276.96,19.968A15.673,15.673,0,0,0-274.1,23.52a18.435,18.435,0,0,1-4.344,1.68l1.416,2.544a20.815,20.815,0,0,0,5.352-2.472,26.3,26.3,0,0,0,6.408,2.52l1.056-2.832a22.324,22.324,0,0,1-4.992-1.56,12.473,12.473,0,0,0,3.5-4.392V16.344H-277.9v2.664h3.192Zm8.064-.96a10.242,10.242,0,0,1-2.808,2.976,12.928,12.928,0,0,1-2.784-2.976Zm-18.36,9.6c.072,0,3.192-.264,3.552-.288v9.888h2.52V28.08c.192-.024.936-.12,1.1-.144.048.264.072.432.12.888l2.136-.648A22.729,22.729,0,0,0-279.1,23.5l-1.944.672c.144.432.192.6.432,1.44-1.7.072-1.9.1-2.16.1a59.168,59.168,0,0,0,4.608-6.528l-2.424-1.1c-.5.912-1.056,1.872-2.28,3.744-.312-.36-.528-.6-.936-1.032a46.729,46.729,0,0,0,2.592-4.536l-2.544-.744a29.6,29.6,0,0,1-1.848,3.672,4.245,4.245,0,0,0-.7-.552l-1.368,2.592a14.146,14.146,0,0,1,3.144,2.976c-.192.264-.5.672-1.248,1.632-.432.024-1.368.048-1.752.048Zm8.568,8.784h14.016V34.608h-5.52v-2.76h4.632v-2.76h-4.632V27h-2.952v2.088h-4.3v2.76h4.3v2.76h-4.728a24.521,24.521,0,0,0-.672-5.3l-1.992.48a27.139,27.139,0,0,1,.528,5.184l1.32-.192Zm-7.968-7.848a22.071,22.071,0,0,1-.936,6.168l2.328,1.1a37.816,37.816,0,0,0,.888-6.96Zm43.464-7.728a16.212,16.212,0,0,0,1.656,1.08l1.32-2.64a12.655,12.655,0,0,1-5.3-4.656h-3.336a12.259,12.259,0,0,1-5.064,4.728v-.264h-2.088V18.552h2.544V16.32h-9.192v13.1h6.816c-.168,3.576-.24,5.28-.672,5.928a1.132,1.132,0,0,1-1.08.456h-1.968l.432,2.4h2.5c1.56,0,2.232-.6,2.616-2.5l1.488,2.5a9.875,9.875,0,0,0,5.424-5.04,11.519,11.519,0,0,0,5.376,5.088l1.512-2.688a11.145,11.145,0,0,1-4.728-3.768h3.576V24.432H-245.9v-1.32h2.712Zm-7.776,1.3h2.472v1.32h-4.224V31.8h3.312a7.491,7.491,0,0,1-4.608,3.888,55.674,55.674,0,0,0,.6-8.5h-2.592v-1.56h2.088V23.544h-2.088V22.032h2.088V20.64l1.224,2.424a15.969,15.969,0,0,0,1.728-1.176Zm-7.152-1.08v1.512h-2.016V22.032Zm0,3.6v1.56h-2.016v-1.56Zm8.52-4.92a18.146,18.146,0,0,0,2.472-2.928,19.238,19.238,0,0,0,2.616,2.928Zm-8.52-2.16v1.512h-2.016V18.552Zm12.216,8.3h2.088V29.4h-2.16a14.475,14.475,0,0,0,.072-1.848Zm-2.592.7a9.447,9.447,0,0,1-.12,1.848h-1.752V26.856h1.872Zm-14.52,3.168a17.023,17.023,0,0,1-.912,5.3l1.44.96a24.378,24.378,0,0,0,.888-6.216Zm1.968.072a22.58,22.58,0,0,1-.216,4.44l1.464-.168c.024-.96.024-2.28-.12-4.344Zm1.68-.12a18.644,18.644,0,0,1,.264,3.984l1.2-.216a21.5,21.5,0,0,0-.36-3.912Zm1.68-.24a15.275,15.275,0,0,1,.36,3.36l1.008-.216a15.665,15.665,0,0,0-.48-3.264Zm19.9-5.856h19.632V16.7h-5.712V15.576h-2.64V16.7h-2.976V15.576h-2.64V16.7h-5.664Zm11.28-5.928V19.9h-2.976V18.648Zm0,2.784V22.68h-2.976V21.432Zm-5.568-2.784V19.9h-3V18.648Zm0,2.784V22.68h-3V21.432Zm11.208-2.784V19.9h-3.072V18.648Zm0,2.784V22.68h-3.072V21.432ZM-237.12,28.8v4.968h2.832a11.919,11.919,0,0,1,.432,1.512h-5.376v2.448h22.464V35.28h-5.3c.216-.552.384-.984.552-1.512h2.616V28.8Zm15.216,1.8v1.392H-234.12V30.6Zm-2.736,3.168c-.12.432-.312,1.056-.48,1.512h-5.76c-.192-.648-.24-.888-.432-1.512Zm-14.592-5.928h22.464V25.512h-22.464Zm25.416,1.248v9.1h2.928V37.3h13.56v.888h3v-9.1Zm8.376,1.824v1.32h-5.448v-1.32Zm0,3.024v1.392h-5.448V33.936Zm8.112-3.024v1.32H-202.7v-1.32Zm0,3.024v1.392H-202.7V33.936Zm-8.232-16.968h-9.264v5.544h2.928V19.368h15.72v3.144h3V16.968h-9.312V15.456h-3.072Zm-6.624,6.36v4.824h16.3V23.328Zm1.224-1.008h13.824V20.376H-210.96Zm12.12,2.832v1.272h-10.368V25.152Zm12.792-8.928c-.144,1.056-.24,1.92-.408,2.9h-4.056v3h3.5a43.016,43.016,0,0,1-3.744,11.5l3.24,1.1a84.656,84.656,0,0,0,3.768-12.6h5.208v-3h-4.584c.168-.84.264-1.56.432-2.688Zm16.512,2.544c-4.56.072-5.9.264-7.656.672l.24,8.664a14.148,14.148,0,0,0-1.728-.12c-4.44,0-6.1,2.448-6.1,4.752,0,2.04,1.368,4.56,5.736,4.56,4.272,0,5.208-2.832,5.208-4.2v-.432a18.851,18.851,0,0,1,3.048,2.64l1.824-3.048a21.171,21.171,0,0,0-4.824-3.168L-174,22.224a13.453,13.453,0,0,1,2.5-.168,17.046,17.046,0,0,1,1.992.1Zm-7.32,13.584c0,1.7-1.248,2.112-2.472,2.112-1.008,0-2.544-.384-2.544-1.776,0-1.536,1.632-2.064,3.024-2.064a5.321,5.321,0,0,1,1.992.384Zm10.248-8.568c12.048-.144,15.5-.432,18.048-.792.7,1.056.984,1.512,1.32,2.064l2.4-1.8a33.289,33.289,0,0,0-5.544-6.912l-2.424,1.584c.888.936,1.608,1.68,2.4,2.64-3.72.288-6.24.312-9.336.336a49.607,49.607,0,0,0,2.688-4.968l-3.1-.648a41.731,41.731,0,0,1-2.88,5.64c-2.448.024-3.192.024-3.864.024ZM-153.456,30v8.136h3.024V30h5.664V27.1h-5.664V23.952h-3.024V27.1H-158.3V23.952h-3V27.1h-5.928V30h5.784c-.528,2.544-1.92,4.152-5.808,5.52l1.464,2.832c5.28-1.848,6.744-5.064,7.3-8.352Zm20.28-10.344a13.428,13.428,0,0,1-2.832,3.984v-.456h-6.648v2.352h6.648v-.384l.744,1.152c.48-.384.624-.5.864-.72v4.248h13.7V28.1h-5.472v-.96h4.608v-1.32h-4.608v-.912h4.608v-1.32h-4.608V22.7h5.112V21.048H-125.9c.048-.072.336-.576.5-.936h2.136v-1.08h2.64v-2.28h-2.64V15.6h-2.664v1.152h-4.008V15.6h-2.592v1.152H-135.5v2.28h2.976v.744Zm4.584,3.048v.888h-3.264V22.7Zm0,2.208v.912h-3.264v-.912Zm-2.448-3.864a8.441,8.441,0,0,0,.408-.936h.7v-1.08h4.008V20.04l-1.992-.288a10.2,10.2,0,0,1-.576,1.3Zm2.448,6.1v.96h-3.264v-.96Zm-14.064,1.992h6.648V26.784h-6.648Zm7.2,9.12a29.536,29.536,0,0,0,6.936-1.44,26.856,26.856,0,0,0,7.392,1.416l.72-2.64a19.8,19.8,0,0,1-4.776-.312,13.471,13.471,0,0,0,3.264-2.664V30.648h-13.368v1.968h3.48l-2.064.84a9.546,9.546,0,0,0,2.208,1.824,20.533,20.533,0,0,1-4.344.456V30.384h-6.648v7.824h2.5v-.936h4.152v-.6Zm9.936-5.64a10.187,10.187,0,0,1-2.952,1.728,10.19,10.19,0,0,1-2.856-1.728Zm-12.72.1v2.28h-2.04v-2.28Zm-4.416-14.232h6.648V16.152h-6.648Zm-.72,3.624h7.872V19.7h-7.872Zm33.768-.24h-9.624v3.024h9.624v9.48h-8.3v3.024h19.824V34.368h-8.4v-9.48h9.72V21.864h-9.72V15.576h-3.12Zm22.512-1.3c.072-.6.432-3.48.5-4.128L-89.9,16.2c-.1,1.3-.192,2.424-.432,4.368h-4.008V23.64l3.552-.048a38.4,38.4,0,0,1-3.816,12.1l3.048,1.3a52.85,52.85,0,0,0,3.984-13.416l2.28-.024c1.488-.024,2.832.192,2.832,3.168,0,.816-.168,4.656-.912,6.336-.36.816-1.128,1.1-2.208,1.1a24.507,24.507,0,0,1-3.12-.312l.192,3.1a30.158,30.158,0,0,0,3.552.24,4.531,4.531,0,0,0,3.84-1.56c1.176-1.44,1.776-5.328,1.776-7.992,0-3.24-.552-7.056-5.208-7.056Zm14.064,9.36c-.168-5.256-1.056-7.032-2.3-8.856l-2.88,1.152c1.416,2.784,1.7,4.344,1.7,8.136ZM-76.176,19.8a14.8,14.8,0,0,0-1.536-3.744l-1.968.6a17.02,17.02,0,0,1,1.44,3.864Zm3.576-.528a14.265,14.265,0,0,0-1.584-3.744l-1.944.6a17.511,17.511,0,0,1,1.56,3.768ZM-58.944,28.2c3.144-2.88,3.96-5.88,4.272-9.24H-52.1c-.024,4.128-.48,5.544-.552,5.712a1.052,1.052,0,0,1-1.1.7h-2.376l.528,2.688h3.288c1.752,0,3.048-.672,3.048-11.784H-60.024V18.96h2.64c-.36,3.6-1.512,5.448-3.6,7.2l-.144-1.512c-.528.1-.792.12-3.072.456v-1.68h2.928v-2.3H-64.2V19.488h3.456V17.04H-64.2V15.528h-2.808V17.04H-71.04v2.448h4.032V21.12H-70.44v2.3h3.432v2.064c-2.856.336-3.432.36-4.248.408l.288,2.688c3.936-.5,4.536-.6,10.056-1.56l-.072-.744Zm-2.352.048a6.827,6.827,0,0,1-.12,1.224h-9.84v2.64h8.616c-1.8,2.136-6.1,3-8.784,3.288l1.176,2.88c2.688-.456,7.8-1.68,10.224-5.112a16.384,16.384,0,0,0,10.248,5.088l1.272-2.9a15.485,15.485,0,0,1-8.784-3.24h8.544v-2.64h-9.744a10.563,10.563,0,0,0,.12-1.224Zm14.064.288c.912-.072,1.992-.144,3.672-.312v9.96h2.688V27.936c.288-.024,1.128-.144,1.464-.192.072.288.12.5.24.984l2.5-.816a22.4,22.4,0,0,0-1.872-4.8l-2.16.744a11.3,11.3,0,0,1,.648,1.656c-.672.072-1.752.144-2.472.168A44.688,44.688,0,0,0-37.8,18.936l-2.52-1.008a36.829,36.829,0,0,1-2.328,3.912,13.086,13.086,0,0,0-.936-1.056,28.1,28.1,0,0,0,2.64-4.416l-2.448-.912a33.391,33.391,0,0,1-1.992,3.624c-.192-.12-.288-.216-.624-.456l-1.416,2.328a18.121,18.121,0,0,1,3.168,3.192c-.336.48-.816,1.128-1.248,1.68-.456.024-.888.024-1.8.024Zm.672.984a24.753,24.753,0,0,1-.888,6.216l2.3,1.128a34.18,34.18,0,0,0,.912-7.008Zm11.976-13.992a15.012,15.012,0,0,1-3.624,7.224l2.064,2.376a14.368,14.368,0,0,0,2.5-3.576h5.28a120.532,120.532,0,0,1-.528,12.84c-.192.7-.528.768-1.2.768h-4.272l.576,3.024h5.28a2.459,2.459,0,0,0,2.232-1.7c.7-1.752.768-6.768.96-17.736h-7.1a20.76,20.76,0,0,0,.84-2.976Zm-5.688,14.208A42.293,42.293,0,0,1-39.6,35.28l2.52-.408a30.339,30.339,0,0,0-.984-5.544Zm4.344-3.888a26.517,26.517,0,0,1,2.9,5.88l2.64-1.392A20.767,20.767,0,0,0-33.36,24.6ZM-21.936,28.9c0,1.2,0,4.656-1.7,7.3l2.184,2.064a13.127,13.127,0,0,0,1.752-5.64h5.256V34.7c0,.72-.168.72-.912.72h-2.184l.5,2.76H-14.3c.84,0,2.16,0,2.16-2.184V21.024h-2.4A8.885,8.885,0,0,0-13.272,19.3V16.944h-4.32c.168-.408.288-.648.456-1.1l-2.856-.336a12.848,12.848,0,0,1-3.7,5.256l.912,2.928c.432-.336.552-.456.84-.7Zm3.984-5.568V25.7h-1.56V23.328Zm0,4.608V30.36h-1.56V27.936Zm3.5-4.608V25.7h-1.584V23.328Zm0,4.608V30.36h-1.584V27.936Zm-5.64-6.912A18.2,18.2,0,0,0-18.84,19.3h2.5a6.4,6.4,0,0,1-1.416,1.728Zm8.16-4.68v2.52H-9.36a5.338,5.338,0,0,1-2.688,2.784l1.44,2.28a8.183,8.183,0,0,0,4.1-5.064h2.568c-.024,2.208-.408,2.208-1.224,2.208H-7.224l.6,2.4h2.712A1.974,1.974,0,0,0-1.7,22.128a26.45,26.45,0,0,0,.5-5.784ZM-6.96,28.632v2.3h-4.632V33.7h4.7v4.488h2.664V33.7h3.5v-2.76h-3.5v-2.3h3V26.064h-3V24.12H-6.96v1.944H-8.5c.168-.84.24-1.272.312-1.68l-2.424-.408c-.408,2.928-.816,3.936-1.44,5.016L-9.936,30.5a8.678,8.678,0,0,0,.816-1.872Zm15.216-6.96V38.208h2.952v-5.5H19.44v2.04c0,.528-.048.6-.5.6H15.624l.48,2.856H20.28a1.867,1.867,0,0,0,2.112-2.04v-14.5H16.824v-6.12H13.872v6.12ZM19.44,24.264v1.824H11.208V24.264Zm0,4.248v1.8H11.208v-1.8ZM1.272,17.856A24.947,24.947,0,0,1,5.3,20.424L7.1,17.88a24.132,24.132,0,0,0-4.176-2.4ZM.5,24.456A18.336,18.336,0,0,1,4.392,26.9l1.7-2.616a17.952,17.952,0,0,0-4.128-2.376Zm4.248,3.552a28.606,28.606,0,0,1-4.3,7.128L2.3,38.064a35.4,35.4,0,0,0,4.824-8.352ZM7.68,16.7A23.268,23.268,0,0,1,9.936,21.36l2.856-.936a19.945,19.945,0,0,0-2.424-4.776Zm12.84-.984A19.151,19.151,0,0,1,18,20.4l2.592,1.128a19.021,19.021,0,0,0,2.688-4.872Zm11.424.528a18.556,18.556,0,0,1-.336,2.16H26.256V21.36h4.536a19.948,19.948,0,0,1-5.28,8.064l2.28,2.352a21.709,21.709,0,0,0,3.1-4.128c2.376-2.4,4.056-2.4,4.344-2.4A1.838,1.838,0,0,1,36.984,26.3c-1.9.96-6.312,3.1-6.312,6.384a4.1,4.1,0,0,0,2.64,3.744c1.392.552,3.216.768,6.72.768,1.776,0,3.96-.072,4.8-.1v-3.1c-1.944.192-4.08.288-6.048.288-2.4,0-4.7,0-4.7-1.872,0-1.536,2.112-2.568,3.384-3.216a25.353,25.353,0,0,1-.048,3.024H40.56c.024-.768.024-1.152.024-1.848,0-.792-.024-1.632-.1-2.424a34.006,34.006,0,0,1,5.736-1.608l-.72-3.168a44.51,44.51,0,0,0-5.664,1.9,3.994,3.994,0,0,0-3.792-2.544,6.673,6.673,0,0,0-2.76.7,11.769,11.769,0,0,0,.792-1.872H44.4V18.408H34.944c.216-.912.288-1.3.384-1.92Zm31.464,4.56H56.4V16.464H53.16v4.344H49.3v2.976H53.16V29.76H56.4V23.784h7.008V25.9c0,5.3-2.52,7.512-9.408,8.4l1.3,3c6.744-1.176,11.376-3.552,11.376-11.424V23.784h3.984V20.808H66.672v-4.44H63.408Zm29.424-5.616a2.568,2.568,0,1,0,2.592,2.568A2.586,2.586,0,0,0,92.832,15.192Zm0,1.464a1.1,1.1,0,1,1-1.1,1.1A1.106,1.106,0,0,1,92.832,16.656Zm-10.464,0v4.152h-8.16v2.88h8.16V37.152H85.56V23.688h7.752v-2.88H85.56V16.656ZM76.032,36.408c2.3-2.592,3.288-4.848,3.888-10.512l-3.024-.36c-.456,5.376-2.544,7.656-3.336,8.52Zm11.976-10.56c.864,5.784,1.944,8.04,3.888,10.584l2.784-2.184a15.31,15.31,0,0,1-3.552-8.808Zm9.36-.672v3.408h21.264V25.176Zm30.048-8.88V37.464h3.432V25.632c2.784.744,8.04,3.624,10.176,5.064l1.632-3.336a48.194,48.194,0,0,0-11.808-5.112V16.3Zm18.552,1.272c-.1,1.248-.36,3.96-.36,6.96,0,2.856.216,12.216,5.472,12.216,3.792,0,5.688-5.088,6.312-6.816l-2.664-1.464a16.666,16.666,0,0,1-1.584,3.336c-.48.744-.984,1.344-1.776,1.344-2.256,0-2.544-6.168-2.544-8.76a40.05,40.05,0,0,1,.576-6.528Zm20.784,16.656c.024-4.944-.1-11.448-5.136-16.2l-2.568,1.8c3.96,4.1,4.176,8.832,4.176,14.592Zm7.176-17.664c-.048.744-.1,1.656-.24,2.784h-3.624V22.3h3.216c-.192,1.176-1.512,9.072-3.792,13.9l3.1,1.056c1.56-3.552,3.1-10.608,3.792-14.952h6.384V19.344h-5.928c.168-1.176.264-1.92.36-2.76Zm16.008,5.88c-6.12-.1-8.376.7-10.2,1.488l.96,2.616a17.391,17.391,0,0,1,6.936-1.056c1.008,0,1.68.048,2.328.072Zm-10.1,5.928a6.508,6.508,0,0,0-2.016,4.3c0,4.416,5.688,4.416,8.352,4.416,2.688,0,3.12-.024,4.08-.1v-3.1a48.059,48.059,0,0,1-5.088.24c-1.56,0-4.392,0-4.392-1.824a3.626,3.626,0,0,1,1.3-2.448Zm16.752-11.856c0,1.656-.072,7.2-.072,10.68,0,3.456,0,5.664,1.2,7.32,1.44,1.968,3.576,2.616,6.216,2.616,5.856,0,9.048-3.432,10.1-9.336l-3.12-1.1c-.264,1.7-1.056,7.368-6.912,7.368-3.744,0-4.272-2.232-4.272-5.064,0-3.576.24-11.688.264-12.456Zm21.6,2.016v2.856h8.76V23.52h-8.3V26.3h8.3v2.064a7.318,7.318,0,0,0-1.92-.192c-3.168,0-6.192,1.416-6.192,4.584,0,1.968,1.344,4.44,6,4.44,5.3,0,5.3-3.144,5.3-4.224V32.52a33.939,33.939,0,0,1,4.872,3.888l2.088-2.784a26.413,26.413,0,0,0-6.96-4.416V26.3h7.008V23.52h-7.008V21.384h7.488V18.528h-7.488V16.44h-3.192v2.088Zm8.808,13.848c0,.984-.168,2.016-2.4,2.016-1.1,0-2.76-.264-2.76-1.7,0-1.488,1.752-1.9,2.976-1.9a6.312,6.312,0,0,1,2.184.408Zm25.7-13.608H241.464V21.72h11.3l.024,1.608a4.587,4.587,0,0,0-2.088-.48,4.914,4.914,0,1,0-.192,9.816,3.446,3.446,0,0,0,2.424-.744c-.6,1.776-2.112,2.664-7.7,2.76l1.008,2.9a25.48,25.48,0,0,0,4.44-.552c5.04-1.128,5.712-5.376,5.712-7.488a8.948,8.948,0,0,0-.288-2.256c-.024-.1-.168-.528-.168-.6V21.72h6.624V18.768h-6.624V16.344h-3.288Zm.216,9.24a2.062,2.062,0,0,1-2.16,2.088,2.2,2.2,0,0,1-2.328-2.3,2.284,2.284,0,0,1,2.376-2.328,1.947,1.947,0,0,1,2.112,1.992Zm21.36-10.92.432,13.464H277.3l.432-13.464Zm.072,15.528V36h3.312V32.616Z" transform="translate(296.66 26.59)" fill="#002063"/>
  </g>
</svg>
