<svg xmlns="http://www.w3.org/2000/svg" xmlns:xlink="http://www.w3.org/1999/xlink" width="745.8" height="76.968" viewBox="0 0 745.8 76.968">
  <defs>
    <filter id="パス_2865" x="0" y="0" width="745.8" height="76.968" filterUnits="userSpaceOnUse">
      <feOffset dy="3" input="SourceAlpha"/>
      <feGaussianBlur stdDeviation="3" result="blur"/>
      <feFlood flood-opacity="0.161"/>
      <feComposite operator="in" in2="blur"/>
      <feComposite in="SourceGraphic"/>
    </filter>
  </defs>
  <g transform="matrix(1, 0, 0, 1, 0, 0)" filter="url(#パス_2865)">
    <path id="パス_2865-2" data-name="パス 2865" d="M-324.624-18.528h-2.928v5.4l-2.184.528.312,2.976,1.872-.432V-.984c0,1.9.216,2.808,3.024,2.808h8.736c1.824,0,2.9-.312,3.216-4.968l-2.784-.936c-.192,2.808-.264,2.952-1.56,2.952h-6.36c-1.1,0-1.344-.12-1.344-1.344v-8.3l2.76-.648v8.4h2.856v-9.1l2.856-.7c0,2.424-.144,4.416-.168,4.752-.1.84-.336.912-1.008.912h-1.032l.48,2.832h1.584c2.952,0,2.952-1.032,3-12.144l-5.712,1.344v-5.232h-2.856v5.9l-2.76.648Zm-8.568,20.664h2.856V-14.352a26.29,26.29,0,0,0,1.512-5.784l-2.952-.216a18.188,18.188,0,0,1-3.912,9.192l1.08,3.888a13.759,13.759,0,0,0,1.416-1.656Zm31.608-19.512a20.857,20.857,0,0,1-2.064,9A16.512,16.512,0,0,1-311.664-.7l2.136,2.832a19.11,19.11,0,0,0,9.576-12.048,19.211,19.211,0,0,0,9.576,12.024l2.04-2.88c-1.44-.72-5.808-2.88-7.9-7.44a23,23,0,0,1-2.064-9.264v-2.9h-3.288Zm22.92-.24v3.072h12.024v-3.072Zm.7,8.088a8.132,8.132,0,0,0-1.44,4.464c0,5.016,5.592,5.016,8.784,5.016,1.32,0,3.12-.048,4.392-.168V-3.408a47.455,47.455,0,0,1-6.1.24c-2.808,0-4.152-.672-4.152-2.184a5.492,5.492,0,0,1,1.1-3.024Zm-6.768-9.768a97.483,97.483,0,0,0-.864,12,41.948,41.948,0,0,0,.792,8.5l3.24-.312a42.5,42.5,0,0,1-.816-8.712,67.518,67.518,0,0,1,.96-11.208Zm29.784,6.792a23.217,23.217,0,0,0-1.44-3.408l-1.32.576v-5.088h-2.832V2.184h2.832V-14.16a17.933,17.933,0,0,1,.84,2.472Zm10.752.624V-1.488h-8.952V-11.88h-2.808V2.184h2.808V1.128h8.952V2.184h2.784V-11.88Zm-6.912,9.72a15.245,15.245,0,0,0,2.88-3.12,16.877,16.877,0,0,1,1.776,2.424l1.968-1.8a19.345,19.345,0,0,0-2.256-2.928,18.085,18.085,0,0,0,1.776-4.2l-2.352-1.1a13.721,13.721,0,0,1-1.344,3.336,23.623,23.623,0,0,0-2.376-2.064l-1.7,1.68a23.543,23.543,0,0,1,2.712,2.592A13.8,13.8,0,0,1-252.96-4.1Zm-11.856-13.248a21.222,21.222,0,0,1-.72,6l1.8,1.248c.24-.72.72-2.136.744-7.128Zm6.5-3.192a22.529,22.529,0,0,1,2.328,4.9l2.568-1.008a19.735,19.735,0,0,0-2.472-4.872Zm5.088-1.176a19.91,19.91,0,0,1,1.632,4.9l2.736-.72a21.138,21.138,0,0,0-1.728-4.872Zm8.088-.384a24.132,24.132,0,0,1-2.664,6.048l2.472,1.2a24.657,24.657,0,0,0,2.928-6.144Zm20.808,4.776a49.874,49.874,0,0,1-.528,5.016,24.692,24.692,0,0,0-4.56-.912c.192-1.032.456-3.024.552-3.888.168-1.512.36-3.336.432-3.912H-237.24v3.024l7.1-.024c-.144,1.824-.288,3.168-.552,4.7-4.848.192-8.04,3.192-8.04,6.672,0,2.016,1.176,4.464,4.128,4.464,2.688,0,4.968-2.04,6.456-8.16a23.789,23.789,0,0,1,4.464,1.08c-.768,2.64-1.656,4.824-5.616,6.144l1.9,2.5a10.645,10.645,0,0,0,6.768-7.44c1.08.552,1.728.936,2.568,1.44l1.08-3.336a25.205,25.205,0,0,0-2.9-1.32c.48-3.072.648-4.632.768-5.76Zm-8.76,6.744c-.36,1.488-1.3,5.448-3.36,5.448-.744,0-1.272-.5-1.272-1.536C-235.872-5.4-235.512-8.3-231.24-8.64Zm23.184-11.112a18.556,18.556,0,0,1-.336,2.16h-5.352v2.952h4.536a19.948,19.948,0,0,1-5.28,8.064l2.28,2.352a21.71,21.71,0,0,0,3.1-4.128c2.376-2.4,4.056-2.4,4.344-2.4A1.838,1.838,0,0,1-203.016-9.7c-1.9.96-6.312,3.1-6.312,6.384a4.1,4.1,0,0,0,2.64,3.744c1.392.552,3.216.768,6.72.768,1.776,0,3.96-.072,4.8-.1v-3.1c-1.944.192-4.08.288-6.048.288-2.4,0-4.7,0-4.7-1.872,0-1.536,2.112-2.568,3.384-3.216a25.354,25.354,0,0,1-.048,3.024h3.144c.024-.768.024-1.152.024-1.848,0-.792-.024-1.632-.1-2.424a34.006,34.006,0,0,1,5.736-1.608l-.72-3.168a44.51,44.51,0,0,0-5.664,1.9,3.994,3.994,0,0,0-3.792-2.544,6.673,6.673,0,0,0-2.76.7,11.769,11.769,0,0,0,.792-1.872h10.32v-2.952h-9.456c.216-.912.288-1.3.384-1.92Zm31.44,5.568H-181.8V-11.4h5.184v2.928h-4.248V2.208h2.88V1.032h5.616V2.208h2.832V-8.472h-4.128V-11.4h5.064v-2.784h-5.064v-2.952a24.342,24.342,0,0,0,4.488-.816l-1.128-2.664c-3.192,1.008-9.528,1.344-11.712,1.32l.552,2.76c1.488,0,3.264-.144,4.848-.288Zm4.248,8.376V-1.68h-5.616V-5.808Zm-18.288-11.736h7.824V-19.9h-7.824Zm-.744,3.576h9.384v-2.4H-191.4Zm.744,16.176h2.784V1.3h5.04V-5.616h-7.824Zm5.208-5.592v2.352h-2.424V-3.384Zm-5.208-7.1h7.824v-2.328h-7.824Zm0,3.624h7.824V-9.24h-7.824ZM-155.3-17.232h-11.232v2.952h11.3l.024,1.608a4.587,4.587,0,0,0-2.088-.48,4.9,4.9,0,0,0-5.232,4.992,4.856,4.856,0,0,0,5.04,4.824,3.446,3.446,0,0,0,2.424-.744c-.6,1.776-2.112,2.664-7.7,2.76l1.008,2.9a25.48,25.48,0,0,0,4.44-.552c5.04-1.128,5.712-5.376,5.712-7.488a8.947,8.947,0,0,0-.288-2.256c-.024-.1-.168-.528-.168-.6V-14.28h6.624v-2.952h-6.624v-2.424h-3.288Zm.216,9.24a2.062,2.062,0,0,1-2.16,2.088,2.2,2.2,0,0,1-2.328-2.3,2.284,2.284,0,0,1,2.376-2.328,1.947,1.947,0,0,1,2.112,1.992Zm30.72-10.632c-2.52.024-12.648.1-14.424.1-.5,0-1.128-.024-1.488-.048l-.024,3.192c.48-.024,7.344-.216,8.016-.192a14.278,14.278,0,0,0-2.424,1.32l2.184,1.9a20.021,20.021,0,0,1,8.16-3.264ZM-138.48-10.9a8.592,8.592,0,0,0-2.76,5.9C-141.24.6-134.208.6-129.192.6a43.616,43.616,0,0,0,6.1-.264l-.072-3.24a58.893,58.893,0,0,1-7.224.408c-4.944,0-7.632-.336-7.632-2.976a5.416,5.416,0,0,1,1.848-3.744Zm26.4-8.64c0,1.56-.024,3.024.072,5.208a3.974,3.974,0,0,0,.96,2.928c-1.872.84-6.24,2.9-6.24,7.1,0,5.4,7.128,5.4,12.528,5.4a51.715,51.715,0,0,0,6.024-.24V-2.4a45.275,45.275,0,0,1-6.984.384c-5.424,0-8.208-.1-8.208-2.64,0-3.864,8.568-5.832,14.52-6.408l-.384-3.36a41.976,41.976,0,0,0-8.4,1.944c-.528-.7-.552-1.416-.552-4.1,0-1.32.024-2.208.048-2.952Zm18.96.072a57.681,57.681,0,0,0-.84,10.152,65.359,65.359,0,0,0,.72,10.368l3.216-.384A50.816,50.816,0,0,1-90.84-9.1a46.332,46.332,0,0,1,.984-10.056Zm4.68,3.936v3H-81.5l.1,4.824a7.86,7.86,0,0,0-1.92-.192c-3.576,0-5.5,2.232-5.5,4.56,0,1.272.72,4.392,5.544,4.392,4.776,0,4.848-3.024,4.872-4.344a19.108,19.108,0,0,1,2.976,2.76l2.04-2.76a19.711,19.711,0,0,0-4.9-3.456l-.072-5.784h4.3v-3h-4.344v-3.888h-3.144v3.888Zm7.08,11.736c0,.96-.024,2.184-2.04,2.184-2.28,0-2.544-1.248-2.544-1.752,0-1.032.984-1.9,2.688-1.9a4.457,4.457,0,0,1,1.9.408ZM-63.048-.528A41.246,41.246,0,0,0-67.9-5.88l-2.568,1.728A46.138,46.138,0,0,1-66,1.44Zm21.456-15.456a18.74,18.74,0,0,1,2.712,1.152H-46.1v8.376H-37.9a6.743,6.743,0,0,1-.312,1.176H-47.28V-2.9h7.536a4.294,4.294,0,0,1-1.368.912A19.012,19.012,0,0,1-47.544-.624l1.2,2.856A18.86,18.86,0,0,0-38.256-.456,7.026,7.026,0,0,0-36.048-2.9h7.512c-.144,2.112-.5,2.28-1.368,2.28h-4.32l.48,2.808h5.04A2.515,2.515,0,0,0-26.136.5a20.583,20.583,0,0,0,.768-5.784H-35.04c.1-.456.144-.624.24-1.176h8.928v-8.376h-6.456A21.925,21.925,0,0,0-26.64-17.3v-2.448H-46.1v2.328h6Zm4.224,3.072v1.44H-43.2v-1.44Zm0,3.048V-8.4H-43.2V-9.864Zm8.568-3.048v1.44h-5.856v-1.44Zm0,3.048V-8.4h-5.856V-9.864Zm-3.336-7.56a14.844,14.844,0,0,1-3.576,1.56,22.39,22.39,0,0,0-2.976-1.56ZM-9.24-.648c-.672-.624-1.776-1.584-3.912-3.24A16.792,16.792,0,0,0-10.56-7.272l-2.52-1.344a21.664,21.664,0,0,1-2.328,3.024,36.7,36.7,0,0,0-4.368-2.664l-1.752,2.184A33.914,33.914,0,0,1-17.568-3.6a22.92,22.92,0,0,1-5.9,3.1l1.8,2.688a26.324,26.324,0,0,0,6.384-4.056A44.737,44.737,0,0,1-11.376,1.7Zm8.4-15.6V-18.84H-16.848c.288-.48.384-.648.744-1.248l-3.192-.576a14.431,14.431,0,0,1-4.32,5.208l1.9,2.448a30.669,30.669,0,0,0,3.072-3.24ZM-23.112-8.9H-7.3c-.048.7-.1,2.064-.1,3.84,0,3.672.48,7.1,3.36,7.1A2.526,2.526,0,0,0-1.728.72,10.225,10.225,0,0,0-.456-2.736L-2.5-4.728C-2.808-3.336-3.264-1.32-3.84-1.32c-.7,0-.7-2.544-.7-3.216,0-1.968.216-5.52.312-6.912H-23.112Zm3.936-6.144v2.4H-2.568v-2.4ZM8.9-15.432c.072-.6.432-3.48.5-4.128L6.1-19.8c-.1,1.3-.192,2.424-.432,4.368H1.656v3.072l3.552-.048A38.4,38.4,0,0,1,1.392-.312L4.44.984A52.85,52.85,0,0,0,8.424-12.432l2.28-.024c1.488-.024,2.832.192,2.832,3.168,0,.816-.168,4.656-.912,6.336-.36.816-1.128,1.1-2.208,1.1A24.507,24.507,0,0,1,7.3-2.16l.192,3.1a30.158,30.158,0,0,0,3.552.24,4.531,4.531,0,0,0,3.84-1.56c1.176-1.44,1.776-5.328,1.776-7.992,0-3.24-.552-7.056-5.208-7.056Zm14.064,9.36c-.168-5.256-1.056-7.032-2.3-8.856l-2.88,1.152c1.416,2.784,1.7,4.344,1.7,8.136ZM19.824-16.2a14.8,14.8,0,0,0-1.536-3.744l-1.968.6a17.019,17.019,0,0,1,1.44,3.864Zm3.576-.528a14.265,14.265,0,0,0-1.584-3.744l-1.944.6a17.511,17.511,0,0,1,1.56,3.768Zm2.568-1.7c-.1,1.248-.36,3.96-.36,6.96,0,2.856.216,12.216,5.472,12.216,3.792,0,5.688-5.088,6.312-6.816L34.728-7.536A16.667,16.667,0,0,1,33.144-4.2c-.48.744-.984,1.344-1.776,1.344-2.256,0-2.544-6.168-2.544-8.76a40.049,40.049,0,0,1,.576-6.528ZM46.752-1.776c.024-4.944-.1-11.448-5.136-16.2l-2.568,1.8c3.96,4.1,4.176,8.832,4.176,14.592ZM51.6-19.2v3.048l9.048-.144c-3.576,3.288-7.176,6.6-10.8,9.792l1.8,2.784c.888-.936,3.312-3.312,4.128-4.08A10.353,10.353,0,0,1,61.92-9.912c.792,0,4.464,0,4.464,4.056,0,2.136-1.224,3.408-3.312,4.032.024-.336.048-.48.048-.672A4.259,4.259,0,0,0,58.68-6.84c-2.16,0-4.488,1.344-4.488,3.744A3.928,3.928,0,0,0,56.136.192,7.9,7.9,0,0,0,60.6,1.248c6.336,0,9.12-3.456,9.12-7.368A6.268,6.268,0,0,0,63.1-12.672a7.2,7.2,0,0,0-2.664.432c.7-.576,1.1-.912,4.92-4.368V-19.2ZM60.48-1.44c-3.1.24-3.624-.864-3.624-1.536,0-.768.648-1.344,1.68-1.344a2.042,2.042,0,0,1,2.04,2.232A2.231,2.231,0,0,1,60.48-1.44ZM91.632-18.624c-2.52.024-12.648.1-14.424.1-.5,0-1.128-.024-1.488-.048L75.7-15.384c.48-.024,7.344-.216,8.016-.192a14.278,14.278,0,0,0-2.424,1.32l2.184,1.9a20.021,20.021,0,0,1,8.16-3.264ZM77.52-10.9a8.592,8.592,0,0,0-2.76,5.9C74.76.6,81.792.6,86.808.6A43.616,43.616,0,0,0,92.9.336L92.832-2.9a58.893,58.893,0,0,1-7.224.408c-4.944,0-7.632-.336-7.632-2.976a5.416,5.416,0,0,1,1.848-3.744Zm26.4-8.64c0,1.56-.024,3.024.072,5.208a3.974,3.974,0,0,0,.96,2.928c-1.872.84-6.24,2.9-6.24,7.1,0,5.4,7.128,5.4,12.528,5.4a51.715,51.715,0,0,0,6.024-.24V-2.4a45.275,45.275,0,0,1-6.984.384c-5.424,0-8.208-.1-8.208-2.64,0-3.864,8.568-5.832,14.52-6.408l-.384-3.36a41.976,41.976,0,0,0-8.4,1.944c-.528-.7-.552-1.416-.552-4.1,0-1.32.024-2.208.048-2.952Zm22.152-.24c-.048,1.032-.168,2.3-.408,4.344h-4.008v3.072l3.552-.048A36.775,36.775,0,0,1,121.3-.432l3.12,1.44c.648-1.176,2.256-4.2,3.96-13.44l2.352-.024c1.488-.024,2.808.192,2.808,3.168,0,.816-.168,4.656-.912,6.336-.384.84-1.128,1.1-2.208,1.1a21.807,21.807,0,0,1-3.12-.312l.192,3.1a32.673,32.673,0,0,0,3.552.24,4.483,4.483,0,0,0,3.84-1.56c1.176-1.44,1.776-5.328,1.776-7.992,0-3.24-.552-7.056-5.208-7.056H128.88c.24-1.392.36-2.592.528-4.152Zm17.04,13.1c-.528-6.192-2.3-8.88-3.96-10.944L136.416-16.2c1.176,1.512,2.952,4.032,3.312,10.08Zm7.176-9.84H146.16v2.952h4.008l-.144,3.648H145.8v2.928h4.128c0,5.88.936,8.208,7.68,8.208,3.96,0,8.5-.6,8.5-6.432a12.5,12.5,0,0,0-1.536-6.048l-2.952.864a11.188,11.188,0,0,1,1.2,4.848c0,3.312-2.04,3.7-5.088,3.7-4.512,0-4.56-.84-4.56-5.136h.552c4.32,0,5.784-.384,6.984-1.128l-1.032-2.736c-.96.552-2.328.936-5.64.936h-.768l.192-3.648h7.3v-2.952h-7.128l.168-3h-3.384Zm22.3-2.976c0,1.656-.072,7.2-.072,10.68,0,3.456,0,5.664,1.2,7.32,1.44,1.968,3.576,2.616,6.216,2.616,5.856,0,9.048-3.432,10.1-9.336l-3.12-1.1c-.264,1.7-1.056,7.368-6.912,7.368-3.744,0-4.272-2.232-4.272-5.064,0-3.576.24-11.688.264-12.456Zm25.248-.024c0,.072-.024,3.216-.024,3.528h-3.984v3h3.96v1.728a26.2,26.2,0,0,1-4.7,5.928l1.752,3.072a17.535,17.535,0,0,0,2.928-3.672c-.024,1.008-.072,5.952-.072,7.08h3.24c-.048-1.224-.12-3.792-.12-6.864,0-1.824.024-2.808.072-4.92,2.52-3.192,4.968-4.2,6.216-4.2,1.416,0,1.512,1.32,1.464,2.808l-.24,6.216c-.192,5.232,2.064,5.832,6.048,6.144l.7-3.168c-3.528.072-3.48-1.272-3.432-3.264l.192-6.384a7.073,7.073,0,0,0-.552-3.672,3.937,3.937,0,0,0-3.432-1.824c-2.976,0-5.52,1.968-6.888,3.288.024-1.608.1-4.248.12-4.824Zm20.352,2.04v2.856h8.76v2.136h-8.3V-9.7h8.3v2.064a7.318,7.318,0,0,0-1.92-.192c-3.168,0-6.192,1.416-6.192,4.584,0,1.968,1.344,4.44,6,4.44,5.3,0,5.3-3.144,5.3-4.224V-3.48A33.939,33.939,0,0,1,235.008.408L237.1-2.376a26.413,26.413,0,0,0-6.96-4.416V-9.7h7.008V-12.48h-7.008v-2.136h7.488v-2.856h-7.488V-19.56h-3.192v2.088Zm8.808,13.848c0,.984-.168,2.016-2.4,2.016-1.1,0-2.76-.264-2.76-1.7,0-1.488,1.752-1.9,2.976-1.9a6.312,6.312,0,0,1,2.184.408Zm28.632-16.008c.048.84.144,3.936.168,4.68l-7.584.168.048-4.488h-3.192v4.584l-3.672.072.1,2.928,3.576-.072V-6.1a12.613,12.613,0,0,0,.48,4.1C246.7.552,249.336.984,254.832.984c3.96,0,5.112-.1,5.9-.168v-3.1a49.217,49.217,0,0,1-6.624.288c-5.856,0-6-.216-5.976-4.224l.048-5.616,7.7-.168a21.585,21.585,0,0,1-.216,3.576c-.168.912-.336,1.344-1.272,1.344a21.3,21.3,0,0,1-2.952-.312l.168,2.88a19.339,19.339,0,0,0,3.048.264c4.08,0,4.2-2.52,4.32-7.824l3.648-.1-.048-2.928-3.6.072a40.365,40.365,0,0,0-.216-4.656Zm15.792,0c-.336,1.1-.816,2.592-1.584,5.04-1.368,4.32-1.7,5.376-4.632,14.928l3.312,1.008c.216-.864,1.224-4.92,1.3-5.256.408-1.08,1.584-4.2,4.176-4.2,1.56,0,1.56,1.1,1.56,2.928V-4.2c0,3.1,1.272,5.328,4.728,5.328,4.224,0,6.048-3.216,6.648-9.576l-3.1-.888c-.48,5.808-1.68,7.32-3.336,7.32-1.752,0-1.752-1.872-1.752-2.472V-5.76c0-1.7,0-5.424-3.984-5.424a4.672,4.672,0,0,0-2.808.912c.216-.7,2.52-7.152,3.1-8.736Zm25.488,4.2c.072-.6.432-3.48.5-4.128L294.1-19.8c-.1,1.3-.192,2.424-.432,4.368h-4.008v3.072l3.552-.048a38.4,38.4,0,0,1-3.816,12.1l3.048,1.3a52.85,52.85,0,0,0,3.984-13.416l2.28-.024c1.488-.024,2.832.192,2.832,3.168,0,.816-.168,4.656-.912,6.336-.36.816-1.128,1.1-2.208,1.1a24.507,24.507,0,0,1-3.12-.312l.192,3.1a30.158,30.158,0,0,0,3.552.24,4.531,4.531,0,0,0,3.84-1.56c1.176-1.44,1.776-5.328,1.776-7.992,0-3.24-.552-7.056-5.208-7.056Zm14.064,9.36c-.168-5.256-1.056-7.032-2.3-8.856l-2.88,1.152c1.416,2.784,1.7,4.344,1.7,8.136ZM307.824-16.2a14.794,14.794,0,0,0-1.536-3.744l-1.968.6a17.02,17.02,0,0,1,1.44,3.864Zm3.576-.528a14.265,14.265,0,0,0-1.584-3.744l-1.944.6a17.512,17.512,0,0,1,1.56,3.768Zm9.552,16.2A41.246,41.246,0,0,0,316.1-5.88l-2.568,1.728A46.139,46.139,0,0,1,318,1.44Zm-685.7,18.984h-5.064v2.976h5.064a7.239,7.239,0,0,0-.024.768c0,.552,0,1.368.048,1.848-5.568,2.232-5.664,6.48-5.664,7.368,0,2.592,1.536,4.608,4.368,4.608,3.552,0,8.016-3.624,9.864-9.96,3.312,1.032,3.312,3.432,3.312,3.888,0,.84-.264,3.12-3.456,4.008a15.174,15.174,0,0,1-4.176.456l.96,2.856c4.08-.024,9.816-1.32,9.816-7.176,0-4.2-3.36-7.056-9.336-7.056a13.548,13.548,0,0,0-2.64.216c0-.168,0-1.176.024-1.824h11.04V18.456H-361.56l.048-2.016-3.216-.024Zm3.624,11.64a32.93,32.93,0,0,1-.48-4.32,8.973,8.973,0,0,1,1.8-.168c.336,0,.576.024.888.024A11.588,11.588,0,0,1-361.128,30.1Zm-2.424,2.376a3.4,3.4,0,0,1-2.088.792c-1.872,0-1.872-1.824-1.872-2.184,0-1.824,1.152-3.264,3-4.272A25.861,25.861,0,0,0-363.552,32.472Zm21.5-16.248c-.144,1.056-.24,1.92-.408,2.9h-4.056v3h3.5a43.015,43.015,0,0,1-3.744,11.5l3.24,1.1a84.656,84.656,0,0,0,3.768-12.6h5.208v-3h-4.584c.168-.84.264-1.56.432-2.688Zm16.512,2.544c-4.56.072-5.9.264-7.656.672l.24,8.664a14.148,14.148,0,0,0-1.728-.12c-4.44,0-6.1,2.448-6.1,4.752,0,2.04,1.368,4.56,5.736,4.56,4.272,0,5.208-2.832,5.208-4.2v-.432a18.85,18.85,0,0,1,3.048,2.64l1.824-3.048a21.171,21.171,0,0,0-4.824-3.168L-330,22.224a13.453,13.453,0,0,1,2.5-.168,17.046,17.046,0,0,1,1.992.1Zm-7.32,13.584c0,1.7-1.248,2.112-2.472,2.112-1.008,0-2.544-.384-2.544-1.776,0-1.536,1.632-2.064,3.024-2.064a5.321,5.321,0,0,1,1.992.384Zm14.784-15.792c-.048.744-.1,1.656-.24,2.784h-3.624V22.3h3.216c-.192,1.176-1.512,9.072-3.792,13.9l3.1,1.056c1.56-3.552,3.1-10.608,3.792-14.952h6.384V19.344h-5.928c.168-1.176.264-1.92.36-2.76Zm16.008,5.88c-6.12-.1-8.376.7-10.2,1.488l.96,2.616a17.391,17.391,0,0,1,6.936-1.056c1.008,0,1.68.048,2.328.072Zm-10.1,5.928a6.508,6.508,0,0,0-2.016,4.3c0,4.416,5.688,4.416,8.352,4.416,2.688,0,3.12-.024,4.08-.1v-3.1a48.058,48.058,0,0,1-5.088.24c-1.56,0-4.392,0-4.392-1.824a3.626,3.626,0,0,1,1.3-2.448Zm24.12,8.736c6.288-.432,10.752-3.1,10.752-10.2,0-6.024-3.84-9.6-10.056-9.6-6.768,0-11.328,4.488-11.328,10.776,0,3.48,1.632,7.1,4.872,7.1,2.76,0,4.3-2.52,4.7-3.216,1.992-3.36,2.448-8.808,2.688-11.688,4.68.36,5.664,3.744,5.664,6.456,0,5.88-4.008,7.1-8.3,7.3Zm-1.56-16.68c-.552,7.488-2.232,11.5-4.008,11.5-.576,0-1.92-.552-1.92-3.576C-295.536,25.1-294.168,21.456-289.608,20.424Zm27.1,17.784V34.3h8.376V31.632h-8.376V29.688h9.552v-2.64H-257.9a14.342,14.342,0,0,0,.576-2.736h4.512v-2.64h-9.7v-1.8h7.968V17.184h-7.968V15.552h-3.048v1.632h-7.92v2.688h7.92v1.8h-9.624v2.64h4.416c.312,1.128.552,2.256.648,2.736h-4.848v2.64h9.408v1.944h-8.3V34.3h8.3v3.912Zm2.064-13.9a19.793,19.793,0,0,1-.528,2.736h-6.1c-.1-.624-.408-2.04-.576-2.736Zm24.072-7.944c.048.84.144,3.936.168,4.68l-7.584.168.048-4.488h-3.192v4.584l-3.672.072.1,2.928,3.576-.072V29.9a12.613,12.613,0,0,0,.48,4.1c1.152,2.544,3.792,2.976,9.288,2.976,3.96,0,5.112-.1,5.9-.168v-3.1a49.217,49.217,0,0,1-6.624.288c-5.856,0-6-.216-5.976-4.224l.048-5.616,7.7-.168a21.585,21.585,0,0,1-.216,3.576c-.168.912-.336,1.344-1.272,1.344a21.3,21.3,0,0,1-2.952-.312l.168,2.88a19.339,19.339,0,0,0,3.048.264c4.08,0,4.2-2.52,4.32-7.824l3.648-.1-.048-2.928-3.6.072a40.362,40.362,0,0,0-.216-4.656Zm14.328-.144c-.144,1.056-.24,1.92-.408,2.9h-4.056v3h3.5a43.016,43.016,0,0,1-3.744,11.5l3.24,1.1a84.656,84.656,0,0,0,3.768-12.6h5.208v-3h-4.584c.168-.84.264-1.56.432-2.688Zm16.512,2.544c-4.56.072-5.9.264-7.656.672l.24,8.664a14.148,14.148,0,0,0-1.728-.12c-4.44,0-6.1,2.448-6.1,4.752,0,2.04,1.368,4.56,5.736,4.56,4.272,0,5.208-2.832,5.208-4.2v-.432a18.851,18.851,0,0,1,3.048,2.64l1.824-3.048a21.171,21.171,0,0,0-4.824-3.168L-210,22.224a13.453,13.453,0,0,1,2.5-.168,17.046,17.046,0,0,1,1.992.1Zm-7.32,13.584c0,1.7-1.248,2.112-2.472,2.112-1.008,0-2.544-.384-2.544-1.776,0-1.536,1.632-2.064,3.024-2.064a5.321,5.321,0,0,1,1.992.384Zm19.416-9.408v4.1h-8.136V29.9h8.136v4.56h-9.792v2.928h22.464V34.464h-9.6V29.9h7.992V27.048h-7.992v-4.1h8.544v-2.88h-8.544V15.552h-3.072v4.512h-3.912a30.65,30.65,0,0,0,1.1-3.72l-3.024-.48c-1.416,5.616-3.5,7.848-4.32,8.712l2.28,2.208a14.845,14.845,0,0,0,2.736-3.84Zm27.264-1.152h-6.5v2.736h6.5v3h-5.376v10.68h2.952v-1.2h7.872v1.2h2.952V27.528h-5.4v-3h6.5V21.792h-6.5v-2.64a35.836,35.836,0,0,0,5.952-.984l-1.128-2.664c-3.336.888-6.144,1.176-14.064,1.224l.576,2.76c.96,0,2.712-.024,5.664-.144Zm5.448,8.328v4.248H-168.6V30.12ZM-178.656,17.9a17.851,17.851,0,0,1,4.1,2.544l1.776-2.5a15.226,15.226,0,0,0-4.2-2.424Zm-.84,6.5a19.268,19.268,0,0,1,3.912,2.52l1.728-2.472a14.493,14.493,0,0,0-4.128-2.5Zm4.272,3.624a31,31,0,0,1-4.32,7.1l1.8,2.928a31.039,31.039,0,0,0,4.8-8.184Zm27.168-11.784a18.556,18.556,0,0,1-.336,2.16h-5.352V21.36h4.536a19.948,19.948,0,0,1-5.28,8.064l2.28,2.352a21.71,21.71,0,0,0,3.1-4.128c2.376-2.4,4.056-2.4,4.344-2.4a1.838,1.838,0,0,1,1.752,1.056c-1.9.96-6.312,3.1-6.312,6.384a4.1,4.1,0,0,0,2.64,3.744c1.392.552,3.216.768,6.72.768,1.776,0,3.96-.072,4.8-.1v-3.1c-1.944.192-4.08.288-6.048.288-2.4,0-4.7,0-4.7-1.872,0-1.536,2.112-2.568,3.384-3.216a25.354,25.354,0,0,1-.048,3.024h3.144c.024-.768.024-1.152.024-1.848,0-.792-.024-1.632-.1-2.424a34.006,34.006,0,0,1,5.736-1.608l-.72-3.168a44.51,44.51,0,0,0-5.664,1.9,3.994,3.994,0,0,0-3.792-2.544,6.673,6.673,0,0,0-2.76.7,11.769,11.769,0,0,0,.792-1.872h10.32V18.408h-9.456c.216-.912.288-1.3.384-1.92Zm39.7,18.84a19.527,19.527,0,0,1-4.248-3.864,23.833,23.833,0,0,0,3.552-11.112V17.256h-10.032V16.128H-131.28v2.736h1.248v13.8c-.216.024-1.2.168-1.416.192l.456,2.9a60.813,60.813,0,0,0,7.584-1.656V38.16h2.88V35.808l1.584,2.376a24.967,24.967,0,0,0,4.488-4.32,18.592,18.592,0,0,0,4.392,4.152Zm-10.8-13.656a24.427,24.427,0,0,0,2.928,9.72,16.707,16.707,0,0,1-4.3,4.224V18.864h1.08v1.248h7.464a24.663,24.663,0,0,1-2.472,8.232,21.881,21.881,0,0,1-2.04-7.512Zm-4.248,2.592v2.568H-127.2V24.024Zm0,7.44a32.13,32.13,0,0,1-3.792.768V29.16h3.792Zm0-12.6V21.5H-127.2v-2.64Zm20.568-2.616c-.72,2.664-.912,8.088-.912,10.968a38.658,38.658,0,0,0,.192,4.128l3.144-.24a18.056,18.056,0,0,1-.24-3c0-3.072,3.12-6.648,5.952-6.648,3.408,0,3.408,4.7,3.408,5.616,0,6.456-4.512,7.2-11.088,7.272l.7,3.024c8.256,0,13.728-2.232,13.728-10.128,0-5.88-2.832-8.736-6.456-8.736a7.367,7.367,0,0,0-5.856,3.048,19.582,19.582,0,0,1,.84-4.992Zm42.264,19.224a12.918,12.918,0,0,1-7.176-4.392h6.96V28.56h-8.616a12.46,12.46,0,0,0,.192-1.776h7.056V20.208H-81.48v8.424a12.175,12.175,0,0,1-2.328,7.608l2.5,2.064A15.958,15.958,0,0,0-78.72,31.08H-73.1c-1.536,3.024-5.112,4.176-6.48,4.632l1.8,2.568c1.272-.5,5.544-2.232,7.416-6.36a13.549,13.549,0,0,0,8.088,6.312ZM-72.1,26.784a9.723,9.723,0,0,1-.216,1.776h-6.24V26.784Zm6.984-2.208h-13.44V22.44h13.44Zm-18.1-8.256v2.616h22.416V16.32Zm35.9,2.448H-58.536V21.72h11.3l.024,1.608a4.587,4.587,0,0,0-2.088-.48,4.9,4.9,0,0,0-5.232,4.992,4.856,4.856,0,0,0,5.04,4.824,3.446,3.446,0,0,0,2.424-.744c-.6,1.776-2.112,2.664-7.7,2.76l1.008,2.9a25.48,25.48,0,0,0,4.44-.552c5.04-1.128,5.712-5.376,5.712-7.488a8.947,8.947,0,0,0-.288-2.256c-.024-.1-.168-.528-.168-.6V21.72h6.624V18.768h-6.624V16.344h-3.288Zm.216,9.24a2.062,2.062,0,0,1-2.16,2.088,2.2,2.2,0,0,1-2.328-2.3A2.284,2.284,0,0,1-49.2,25.464a1.947,1.947,0,0,1,2.112,1.992ZM-30.072,16.56c-.048.744-.1,1.656-.24,2.784h-3.624V22.3h3.216c-.192,1.176-1.512,9.072-3.792,13.9l3.1,1.056c1.56-3.552,3.1-10.608,3.792-14.952h6.384V19.344h-5.928c.168-1.176.264-1.92.36-2.76Zm16.008,5.88c-6.12-.1-8.376.7-10.2,1.488l.96,2.616a17.391,17.391,0,0,1,6.936-1.056c1.008,0,1.68.048,2.328.072Zm-10.1,5.928a6.508,6.508,0,0,0-2.016,4.3c0,4.416,5.688,4.416,8.352,4.416,2.688,0,3.12-.024,4.08-.1v-3.1a48.059,48.059,0,0,1-5.088.24c-1.56,0-4.392,0-4.392-1.824a3.626,3.626,0,0,1,1.3-2.448ZM.1,16.416c0,.96-.1,2.472-.216,3.72A13.584,13.584,0,0,0-5.28,21.72a27.659,27.659,0,0,1-.648-4.272l-3.024.768a29.588,29.588,0,0,0,1.128,5.4,9.3,9.3,0,0,0-2.664,6.528c0,3.216,1.776,5.424,4.392,5.424,3.312,0,7.056-3.648,8.544-12.528,1.344.192,4.8.7,4.8,5.328,0,4.56-3.5,5.832-8.544,5.856l.96,3c3.36-.264,5.232-.5,7.368-1.9a7.6,7.6,0,0,0,3.36-6.7,8.526,8.526,0,0,0-3.12-6.84A8.675,8.675,0,0,0,2.9,20.16a26.4,26.4,0,0,0,.36-3.576Zm-4.584,8.016A9.458,9.458,0,0,1-.432,23.016,23.915,23.915,0,0,1-2.184,28.9,16.582,16.582,0,0,1-4.488,24.432Zm.672,6.936a3.064,3.064,0,0,1-2.04,1.2c-1.344,0-1.8-1.44-1.8-2.5a6.514,6.514,0,0,1,.984-3.384A18.175,18.175,0,0,0-3.816,31.368ZM21.336,18.384v3.072H33.36V18.384Zm.7,8.088a8.132,8.132,0,0,0-1.44,4.464c0,5.016,5.592,5.016,8.784,5.016,1.32,0,3.12-.048,4.392-.168V32.592a47.455,47.455,0,0,1-6.1.24c-2.808,0-4.152-.672-4.152-2.184a5.492,5.492,0,0,1,1.1-3.024ZM15.264,16.7a97.485,97.485,0,0,0-.864,12,41.948,41.948,0,0,0,.792,8.5l3.24-.312a42.5,42.5,0,0,1-.816-8.712,67.517,67.517,0,0,1,.96-11.208ZM36.936,28.2H59.064V25.032H36.936Zm25.32-.312a16.291,16.291,0,0,1-1.8,7.992l2.52,2.232c2.064-3.6,2.208-8.064,2.208-10.08V23.616h2.952v3.648h11.64V23.616h3.576v-2.3H79.776V19.8h3.456V17.16H73.9V15.5H70.8V17.16H62.256ZM76.968,19.8v1.512H70.944V19.8Zm-8.856,0v1.512H65.16V19.8Zm8.856,3.816v1.512H70.944V23.616Zm-9,8.52a12.612,12.612,0,0,0,2.856,2.3,33.447,33.447,0,0,1-6.312,1.08l1.08,2.664a30.352,30.352,0,0,0,8.592-2.016,29.755,29.755,0,0,0,8.088,2.04l1.176-2.856a31.843,31.843,0,0,1-5.928-.936,9.99,9.99,0,0,0,3.576-3.5v-2.52H65.76v2.52h3.792Zm9.168-1.224a7.607,7.607,0,0,1-3.072,2.3,14.56,14.56,0,0,1-3.5-2.3ZM91.824,19.08H86.28v2.952h5.544v3.216c-5.712,2.208-6.072,5.592-6.072,6.816,0,1.752,1.368,4.68,5.3,4.68,3.816,0,3.816-2.232,3.816-3.12V27.312a12.366,12.366,0,0,1,3.168-.36c1.008,0,4.824,0,4.824,3.552,0,3.96-4.368,3.936-7.176,3.936l.648,2.808c4.9.072,9.744-1.2,9.744-6.552a6.384,6.384,0,0,0-2.088-4.872c-.72-.6-2.208-1.656-5.664-1.656a17.49,17.49,0,0,0-3.456.336V22.032H100.1V19.08H94.872V16.536H91.824Zm0,13.824c0,.48,0,.912-1.056.912a1.884,1.884,0,0,1-2.016-1.872c0-2.136,2.208-3.336,3.072-3.792ZM99.5,18.048a17.847,17.847,0,0,1,4.848,6.264l2.832-1.584a17.674,17.674,0,0,0-5.3-6.48Zm23.88,3.768H118.2V24.6h5.184v2.928h-4.248v10.68h2.88V37.032h5.616v1.176h2.832V27.528h-4.128V24.6H131.4V21.816h-5.064V18.864a24.342,24.342,0,0,0,4.488-.816L129.7,15.384c-3.192,1.008-9.528,1.344-11.712,1.32l.552,2.76c1.488,0,3.264-.144,4.848-.288Zm4.248,8.376V34.32h-5.616V30.192ZM109.344,18.456h7.824V16.1h-7.824Zm-.744,3.576h9.384v-2.4H108.6Zm.744,16.176h2.784V37.3h5.04V30.384h-7.824Zm5.208-5.592v2.352h-2.424V32.616Zm-5.208-7.1h7.824V23.184h-7.824Zm0,3.624h7.824V26.76h-7.824Zm30.6-12.888a18.556,18.556,0,0,1-.336,2.16h-5.352V21.36h4.536a19.948,19.948,0,0,1-5.28,8.064l2.28,2.352a21.71,21.71,0,0,0,3.1-4.128c2.376-2.4,4.056-2.4,4.344-2.4a1.838,1.838,0,0,1,1.752,1.056c-1.9.96-6.312,3.1-6.312,6.384a4.1,4.1,0,0,0,2.64,3.744c1.392.552,3.216.768,6.72.768,1.776,0,3.96-.072,4.8-.1v-3.1c-1.944.192-4.08.288-6.048.288-2.4,0-4.7,0-4.7-1.872,0-1.536,2.112-2.568,3.384-3.216a25.354,25.354,0,0,1-.048,3.024h3.144c.024-.768.024-1.152.024-1.848,0-.792-.024-1.632-.1-2.424a34.006,34.006,0,0,1,5.736-1.608l-.72-3.168a44.51,44.51,0,0,0-5.664,1.9,3.994,3.994,0,0,0-3.792-2.544,6.673,6.673,0,0,0-2.76.7,11.769,11.769,0,0,0,.792-1.872H152.4V18.408h-9.456c.216-.912.288-1.3.384-1.92Zm21.24,20.376c1.392-.072,5.376-.264,9.36-.744v1.776h2.544V27.12h1.464V25.056H161.544V27.12h1.224v7.1h-1.7Zm4.1-6.648h5.256v1.2h-5.256Zm5.256,3.84c-1.68.168-3.576.264-5.256.312V32.784h5.256Zm-5.256-6.7h5.256v1.2h-5.256Zm-7.776,11.088h2.808V24h6.552V16.32h-9.36ZM168.96,24h6.72V34.752c0,.48-.1.552-.6.552h-1.608l.432,2.9h2.16c2.064,0,2.424-.624,2.424-2.568V16.32H168.96Zm-4.68-5.712v1.176h-3.96V18.288Zm0,2.64V22.1h-3.96V20.928Zm7.32-2.64h4.08v1.176H171.6Zm0,2.64h4.08V22.1H171.6Zm14.472-4.7c-.048,1.032-.168,2.3-.408,4.344h-4.008V23.64l3.552-.048A36.775,36.775,0,0,1,181.3,35.568l3.12,1.44c.648-1.176,2.256-4.2,3.96-13.44l2.352-.024c1.488-.024,2.808.192,2.808,3.168,0,.816-.168,4.656-.912,6.336-.384.84-1.128,1.1-2.208,1.1a21.807,21.807,0,0,1-3.12-.312l.192,3.1a32.672,32.672,0,0,0,3.552.24,4.483,4.483,0,0,0,3.84-1.56c1.176-1.44,1.776-5.328,1.776-7.992,0-3.24-.552-7.056-5.208-7.056H188.88c.24-1.392.36-2.592.528-4.152Zm17.04,13.1c-.528-6.192-2.3-8.88-3.96-10.944L196.416,19.8c1.176,1.512,2.952,4.032,3.312,10.08Zm16.512-12.96c.048.84.144,3.936.168,4.68l-7.584.168.048-4.488h-3.192v4.584l-3.672.072.1,2.928,3.576-.072V29.9a12.613,12.613,0,0,0,.48,4.1c1.152,2.544,3.792,2.976,9.288,2.976,3.96,0,5.112-.1,5.9-.168v-3.1a49.217,49.217,0,0,1-6.624.288c-5.856,0-6-.216-5.976-4.224l.048-5.616,7.7-.168a21.585,21.585,0,0,1-.216,3.576c-.168.912-.336,1.344-1.272,1.344a21.3,21.3,0,0,1-2.952-.312l.168,2.88a19.339,19.339,0,0,0,3.048.264c4.08,0,4.2-2.52,4.32-7.824l3.648-.1-.048-2.928-3.6.072a40.362,40.362,0,0,0-.216-4.656Zm30.648.96c-2.448.1-13.44.5-15.5.624-2.28.12-4.152.216-5.3.216l.12,3.36c1.512-.144,8.928-.768,10.608-.912-5.712,3.648-6.144,7.632-6.144,9.192a6.543,6.543,0,0,0,3.72,5.712c2.208,1.08,4.656,1.584,9.912,1.608l.456-3.432c-9.984.336-10.776-2.472-10.776-4.32,0-3,2.616-5.52,3.984-6.576a10.213,10.213,0,0,1,6.024-2.3c.744-.024,2.256,0,3,.024ZM272.28,35.256c-2.928-2.472-7.536-5.04-11.52-7.272-1.008-.576-1.44-.84-1.44-1.32a.917.917,0,0,1,.288-.648c.408-.408,4.752-3.672,5.616-4.392,1.9-1.584,4.032-3.36,4.416-3.7l-3.1-2.04c-2.808,2.688-3.456,3.24-9.264,8.112-1.488,1.248-1.872,2.136-1.872,2.832,0,1.464,1.7,2.52,2.76,3.192a84.646,84.646,0,0,1,11.112,7.632Zm9.672-18.792c-.048.792-.072,1.056-.24,2.88h-3.648V22.3h3.24a68.013,68.013,0,0,1-3.768,14.064l3.072.816A76.289,76.289,0,0,0,284.4,22.3h6.36V19.344h-5.9c.072-.48.312-2.448.336-2.76Zm15.984,6a25.991,25.991,0,0,0-10.2,1.464l.936,2.64a20.246,20.246,0,0,1,6.936-1.056c1.008,0,1.68.048,2.352.072Zm-10.1,5.952a6.355,6.355,0,0,0-2.04,4.392,3.957,3.957,0,0,0,2.4,3.48c1.032.5,2.28.816,6.168.816,2.4,0,3.144-.072,4.008-.12l-.12-3.072a47.97,47.97,0,0,1-5.112.24c-1.512,0-4.368,0-4.368-1.848a3.753,3.753,0,0,1,1.3-2.4Zm8.04-8.328A18.086,18.086,0,0,0,294.36,16.3l-1.968.624a17.262,17.262,0,0,1,1.416,3.912Zm3.24-.84A21.389,21.389,0,0,0,297.48,15.6l-1.968.648a18.693,18.693,0,0,1,1.512,3.7Zm11.4-2.592a33.931,33.931,0,0,0,.936,3.624h-9.432v2.976h10.512a31.287,31.287,0,0,0,4.032,7.32l2.736-1.7a22.221,22.221,0,0,1-3.528-5.736,39.122,39.122,0,0,0,6.288-.768l-.5-3.024a46.394,46.394,0,0,1-6.912.864,24.114,24.114,0,0,1-.888-3.888Zm-1.272,8.976c-4.512,1.368-6.12,3.84-6.12,6.144a4.494,4.494,0,0,0,2.5,4.008c1.608.864,3.336,1.3,8.232,1.3,2.376,0,4.08-.072,5.544-.216l.12-3.1a51.685,51.685,0,0,1-6.24.36c-4.44,0-7.056-.312-7.056-2.472,0-1.152.84-2.616,4.3-3.6Zm16.728-8.064c-.1,1.248-.36,3.96-.36,6.96,0,2.856.216,12.216,5.472,12.216,3.792,0,5.688-5.088,6.312-6.816l-2.664-1.464a16.668,16.668,0,0,1-1.584,3.336c-.48.744-.984,1.344-1.776,1.344-2.256,0-2.544-6.168-2.544-8.76a40.05,40.05,0,0,1,.576-6.528Zm20.784,16.656c.024-4.944-.1-11.448-5.136-16.2l-2.568,1.8c3.96,4.1,4.176,8.832,4.176,14.592Zm6.816-4.584a3.828,3.828,0,0,0,0,7.656,3.828,3.828,0,1,0,0-7.656Zm0,1.44a2.376,2.376,0,1,1-2.376,2.376A2.381,2.381,0,0,1,353.568,31.08Z" transform="translate(379.39 26.66)" fill="#002063"/>
  </g>
</svg>
