<svg xmlns="http://www.w3.org/2000/svg" xmlns:xlink="http://www.w3.org/1999/xlink" width="373" height="108.458" viewBox="0 0 373 108.458">
  <defs>
    <filter id="長方形_242" x="0" y="20.458" width="373" height="88" filterUnits="userSpaceOnUse">
      <feOffset dy="3" input="SourceAlpha"/>
      <feGaussianBlur stdDeviation="3" result="blur"/>
      <feFlood flood-opacity="0.161"/>
      <feComposite operator="in" in2="blur"/>
      <feComposite in="SourceGraphic"/>
    </filter>
  </defs>
  <g id="グループ_256" data-name="グループ 256" transform="translate(-1 -714.542)">
    <g id="グループ_200" data-name="グループ 200" transform="translate(2.264 1.542)">
      <path id="パス_2769" data-name="パス 2769" d="M12.3-.54c-.56-.52-1.48-1.32-3.26-2.7A13.993,13.993,0,0,0,11.2-6.06L9.1-7.18A18.053,18.053,0,0,1,7.16-4.66,30.584,30.584,0,0,0,3.52-6.88L2.06-5.06A28.262,28.262,0,0,1,5.36-3,19.1,19.1,0,0,1,.44-.42l1.5,2.24A21.936,21.936,0,0,0,7.26-1.56a37.28,37.28,0,0,1,3.26,2.98Zm7-13V-15.7H5.96c.24-.4.32-.54.62-1.04l-2.66-.48a12.026,12.026,0,0,1-3.6,4.34L1.9-10.84a25.557,25.557,0,0,0,2.56-2.7ZM.74-7.42H13.92c-.04.58-.08,1.72-.08,3.2,0,3.06.4,5.92,2.8,5.92A2.105,2.105,0,0,0,18.56.6a8.521,8.521,0,0,0,1.06-2.88l-1.7-1.66c-.26,1.16-.64,2.84-1.12,2.84-.58,0-.58-2.12-.58-2.68,0-1.64.18-4.6.26-5.76H.74Zm3.28-5.12v2H17.86v-2ZM20.7-13.56H24v.94H20.92v8.16H24v1.14H20.54v2.18H24V1.84h2.2V-1.14h3.32V-3.32H26.2V-4.46h3.12v-8.16H26.2v-.94h3.2V-15.7H26.2v-1.34H24v1.34H20.7Zm3.38,2.74v1.44H22.74v-1.44Zm3.42,0v1.44H26.14v-1.44ZM24.08-7.8v1.48H22.74V-7.8Zm3.42,0v1.48H26.14V-7.8ZM39-3.46V-5.7H35.8V-7.34H33.36V-5.7H29.98v2.24h3.38v2.5H29.34V1.38H39.42V-.96H35.8v-2.5Zm0-13H29.86v2.3h2.78L31-13.5a11.511,11.511,0,0,0,2,3.06A13.913,13.913,0,0,1,29.38-8.8l1.06,2.22A13.72,13.72,0,0,0,34.72-8.8a11.471,11.471,0,0,0,3.8,2.2l1.06-2.3a11.713,11.713,0,0,1-3.08-1.48A10.381,10.381,0,0,0,39-14.24Zm-2.56,2.3a8.012,8.012,0,0,1-1.7,2.3,10.177,10.177,0,0,1-1.66-2.3Zm11.34-.52v2.56H57.8v-2.56Zm.58,6.74a6.776,6.776,0,0,0-1.2,3.72c0,4.18,4.66,4.18,7.32,4.18,1.1,0,2.6-.04,3.66-.14V-2.84a39.546,39.546,0,0,1-5.08.2c-2.34,0-3.46-.56-3.46-1.82a4.577,4.577,0,0,1,.92-2.52Zm-5.64-8.14a81.237,81.237,0,0,0-.72,10A34.957,34.957,0,0,0,42.66,1l2.7-.26a35.412,35.412,0,0,1-.68-7.26,56.264,56.264,0,0,1,.8-9.34Zm18.92.72c-.08,1.04-.3,3.3-.3,5.8,0,2.38.18,10.18,4.56,10.18,3.16,0,4.74-4.24,5.26-5.68L68.94-6.28A13.889,13.889,0,0,1,67.62-3.5c-.4.62-.82,1.12-1.48,1.12-1.88,0-2.12-5.14-2.12-7.3a33.374,33.374,0,0,1,.48-5.44ZM78.96-1.48c.02-4.12-.08-9.54-4.28-13.5l-2.14,1.5c3.3,3.42,3.48,7.36,3.48,12.16ZM84.62.2a35.921,35.921,0,0,0,7.5-.6c1.56-.34,6.72-1.46,6.72-7.42,0-3.98-2.74-6.62-6.94-6.62a34.685,34.685,0,0,0-5.32.56c-.58.1-5.46.9-5.6.92l.54,2.9c1.36-.34,7.38-1.82,10.16-1.82,3.44,0,4.26,2.24,4.26,4.04,0,5.12-5.3,5.52-11.88,5.48ZM116.2-7.74a15.649,15.649,0,0,0-1.84-2.92l-1.56.82a23.374,23.374,0,0,1,1.8,3Zm2.62-1.38a14.5,14.5,0,0,0-1.82-2.7l-1.58.82a19.037,19.037,0,0,1,1.84,2.84Zm-.26-6.44c-2.04.08-11.2.42-12.92.52-1.48.08-3.08.18-4.42.18l.1,2.8c1.26-.12,7.44-.64,8.84-.76-4.76,3.04-5.12,6.36-5.12,7.66a5.452,5.452,0,0,0,3.1,4.76c1.84.9,3.88,1.32,8.26,1.34l.38-2.86c-8.32.28-8.98-2.06-8.98-3.6,0-2.5,2.18-4.6,3.32-5.48a8.534,8.534,0,0,1,5.02-1.92c.74-.02,2.04.02,2.5.02Zm6.68,1.8H121.8v2.46h3.34l-.12,3.04H121.5v2.44h3.44c0,4.9.78,6.84,6.4,6.84,3.3,0,7.08-.5,7.08-5.36a10.413,10.413,0,0,0-1.28-5.04l-2.46.72a9.323,9.323,0,0,1,1,4.04c0,2.76-1.7,3.08-4.24,3.08-3.76,0-3.8-.7-3.8-4.28h.46c3.6,0,4.82-.32,5.82-.94l-.86-2.28c-.8.46-1.94.78-4.7.78h-.64l.16-3.04h6.08v-2.46h-5.94l.14-2.5h-2.82Zm23.7-2.66V1.86h2.4V.84h5.06V1.86h2.38V-16.42Zm7.46,7.14V-6.5h-5.06V-9.28Zm0,4.94v2.9h-5.06v-2.9Zm0-9.78v2.68h-5.06v-2.68ZM141.08-2.06A16.107,16.107,0,0,0,143.5-6.5V1.86h2.4V-6.52a18.112,18.112,0,0,0,1.5,2.24l1.28-2.22a13.081,13.081,0,0,1-2.78-3.72v-.98h2.36v-2.34H145.9v-3.52h-2.4v3.52h-2.9v2.34h2.76a16.612,16.612,0,0,1-3.12,6.06Zm24.44-.7v1.9H163.2v-1.9Zm3.22,4.64a9.11,9.11,0,0,0,5.04-4.8c.36.92,1.28,3.2,4.92,4.8l1.14-2.34a8.769,8.769,0,0,1-3.34-1.98,6.245,6.245,0,0,1-1.64-4.76V-8.42H172.5V-7.1c0,3.18-1.08,5.38-4.98,6.72V-4.64h-6.46V1.84h2.14V1.08h4.32V-.32Zm-7.68-7.56h6.46v-2h-6.46Zm7.06-.9a16.284,16.284,0,0,1,1.12,3.84l2.22-.66a17.181,17.181,0,0,0-1.24-3.8Zm-7.06-8h6.46v-1.98h-6.46Zm7.3-1.04a12.27,12.27,0,0,1,.7,3.68l2.3-.66a16.911,16.911,0,0,0-.92-3.64Zm-7.3,6.9h6.46v-1.94h-6.46Zm11.44-7.22c0,3.22-1.74,5.32-4.78,6.36l1.26,2.26a9.4,9.4,0,0,0,4.8-4.76,9.428,9.428,0,0,0,4.82,4.8l1.2-2.3a8.032,8.032,0,0,1-3.18-2.02,5.642,5.642,0,0,1-1.72-4.44V-17h-2.4ZM160.48-11.6h7.64v-2h-7.64Zm16.54-4.7a15.772,15.772,0,0,1-1.26,3.48l2,.88a17.664,17.664,0,0,0,1.44-3.68Zm.2,9a19.536,19.536,0,0,1-1.38,3.76l2.04.82a17.767,17.767,0,0,0,1.54-4Zm11.34-8.46.36,11.22h2.16l.36-11.22Zm.06,12.94V0h2.76V-2.82Z" transform="translate(88 731)" fill="#f29600"/>
      <path id="パス_2657" data-name="パス 2657" d="M0,0,21.462,1.584,0,2.924Z" transform="translate(72.269 713) rotate(60)" fill="#f29600"/>
      <path id="パス_2658" data-name="パス 2658" d="M0,2.946l21.626-1.6L0,0Z" transform="translate(301.737 714.729) rotate(120)" fill="#f29600"/>
    </g>
    <g id="グループ_201" data-name="グループ 201" transform="translate(-7 -0.312)">
      <g transform="matrix(1, 0, 0, 1, 8, 714.85)" filter="url(#長方形_242)">
        <rect id="長方形_242-2" data-name="長方形 242" width="355" height="70" rx="10" transform="translate(9 26.46)" fill="#00b900"/>
      </g>
      <path id="パス_2770" data-name="パス 2770" d="M-100-21.084c0-1.652-.756-2.464-2.716-2.464-2.464,0-2.66,1.512-2.66,2.464V-4.032c0,2.912,1.232,4.032,4.032,4.032H-91.07a2.072,2.072,0,0,0,2.38-2.352A2.057,2.057,0,0,0-91.07-4.62h-8.148A.729.729,0,0,1-100-5.432Zm20.244,0c0-1.624-.728-2.464-2.716-2.464-2.464,0-2.632,1.512-2.632,2.464V-1.876c0,1.652.728,2.492,2.688,2.492,2.464,0,2.66-1.512,2.66-2.492ZM-61.194-6.86-67.55-21.532a3.544,3.544,0,0,0-3.556-2.044c-2.408,0-3.7.672-3.7,2.52v19.18c0,.98.2,2.492,2.66,2.492,1.96,0,2.716-.84,2.716-2.492V-14.868l-.056-1.2L-63.126-1.4A3.548,3.548,0,0,0-59.57.616c2.24,0,3.7-.616,3.7-2.52v-19.18c0-.952-.2-2.464-2.66-2.464-1.988,0-2.716.84-2.716,2.464v13.02Zm15.624-7.056v-3.612a.721.721,0,0,1,.784-.784h8.512c1.512,0,2.38-.616,2.38-2.352a2.092,2.092,0,0,0-2.38-2.3h-10.64c-2.576,0-4.032.924-4.032,4.032v14.9c0,2.94,1.232,4.032,4.032,4.032H-35.6a2.069,2.069,0,0,0,2.38-2.352A2.066,2.066,0,0,0-35.6-4.62h-9.184a.729.729,0,0,1-.784-.812v-4.06h8.428c2.044,0,2.324-1.176,2.324-2.3,0-1.876-1.316-2.128-2.324-2.128Zm26.6-3.052a14.354,14.354,0,0,0-3.556,3.024,10.488,10.488,0,0,0-2.66,6.888A7.285,7.285,0,0,0-20.594.056a20.892,20.892,0,0,0,8.092,1.4c2.044,0,4.34,0,4.34-2.912A2.05,2.05,0,0,0-10.374-3.78H-12.95c-3.836,0-7.168-.392-7.168-3.808,0-4.48,5.628-9.436,11.228-9.52,1.568-.028,3.248-.056,3.248-2.548,0-2.324-1.736-2.324-3.276-2.324-7.28,0-18.872.476-19.768.588a2.227,2.227,0,0,0-2.1,2.576,2.241,2.241,0,0,0,2.268,2.548c.476,0,2.912-.2,3.444-.224C-22.778-16.632-20.258-16.856-18.97-16.968Zm6.076,4.7c.756,1.736.84,1.9,1.428,1.9.336,0,1.148-.2,1.148-.952a7.227,7.227,0,0,0-.84-2.3c-.56-1.12-.924-1.428-1.372-1.428s-1.148.364-1.148.924a1.621,1.621,0,0,0,.084.476C-13.538-13.412-13.006-12.488-12.894-12.264Zm2.884-1.316c.784,1.764.84,1.9,1.428,1.9.476,0,1.148-.308,1.148-.952A7.132,7.132,0,0,0-8.246-14.9c-.56-1.092-.9-1.456-1.372-1.456-.448,0-1.176.364-1.176.924a1.621,1.621,0,0,0,.084.476C-10.654-14.756-10.122-13.8-10.01-13.58ZM8.05-8.68c-1.764-2.184-2.688-3.332-3.472-5.852v-.392H5.614c1.036,0,2.072-.308,2.072-2.156,0-2.1-1.428-2.156-2.072-2.156H4.578v-2.632c0-1.708-.784-2.268-2.3-2.268A1.932,1.932,0,0,0,.266-21.868v2.632H-1.5c-1.036,0-2.072.336-2.072,2.184,0,2.1,1.456,2.128,2.072,2.128H.126A20.869,20.869,0,0,1-2.59-8.988c-.98,1.456-1.288,1.9-1.288,2.828A2.514,2.514,0,0,0-1.638-3.5c.924,0,1.428-.56,1.9-1.512V.56c0,1.736.784,2.212,2.3,2.212,1.876,0,2.016-1.428,2.016-2.212v-7.5c.448.868.952,1.68,1.848,1.68A2.209,2.209,0,0,0,8.05-5.992v4.648c0,2.716,1.288,3.5,3.5,3.5h7.28c2.212,0,3.472-.784,3.472-3.5V-19.712c0-2.716-1.26-3.472-3.472-3.472H11.55c-2.212,0-3.5.756-3.5,3.472Zm9.828-.644H12.446V-12.04h5.432ZM12.446-16.1v-2.072a.594.594,0,0,1,.672-.672h4.088a.594.594,0,0,1,.672.672V-16.1ZM17.878-2.856a.606.606,0,0,1-.672.672H13.118a.594.594,0,0,1-.672-.672V-5.264h5.432ZM40.5-8.6a6.751,6.751,0,0,1-2.6,5.4A14.628,14.628,0,0,1,34.93-1.568a4.97,4.97,0,0,0-.644.392V-3.192c0-2.828-.476-3.3-3.3-3.3H28.518c-2.828,0-3.3.476-3.3,3.3v2.24c0,2.828.448,3.332,3.276,3.332h2.52c1.4,0,2.352,0,2.94-.98a2.062,2.062,0,0,0,1.988,1.344c1.2,0,5.152-2.1,6.664-6.16A10.5,10.5,0,0,0,44.59-.056c1.176,1.316,3.08,2.688,4.284,2.688a2.588,2.588,0,0,0,2.268-2.66,1.646,1.646,0,0,0-.7-1.456L48.426-2.66a7.668,7.668,0,0,1-3.612-6.132V-10.08c0-1.82-.84-2.24-2.352-2.24-1.68,0-1.96,1.176-1.96,2.24ZM30.814-1.68a.392.392,0,0,1-.42.448h-.84a.4.4,0,0,1-.42-.448V-2.744a.4.4,0,0,1,.42-.448h.84a.4.4,0,0,1,.42.448ZM33.25-15.54c.98,0,1.848-.252,1.848-1.9,0-1.624-1.148-1.736-1.848-1.736h-7c-1.288,0-1.876.532-1.876,1.9A1.612,1.612,0,0,0,26.25-15.54Zm3.36-7.784c-.7,0-2.24.588-2.24,1.764a17.817,17.817,0,0,0,1.036,3.136c.448,1.008.756,1.484,1.82,1.484a2.189,2.189,0,0,0,2.408-1.932,10.851,10.851,0,0,0-1.008-2.912C37.9-23.212,37.45-23.324,36.61-23.324Zm11.676,7.616a7.175,7.175,0,0,1-3.472-5.88,4.2,4.2,0,0,0-.14-1.288c-.28-.868-.812-1.2-2.212-1.2a1.731,1.731,0,0,0-1.932,1.624c-.028.168-.028.924-.028,1.092a6.424,6.424,0,0,1-3.7,5.852c-2.24,1.148-2.324,1.2-2.492,2.016a1.582,1.582,0,0,0-1.848-1.372H26.95c-.812,0-1.876.168-1.876,1.792A1.6,1.6,0,0,0,26.95-11.34h5.516a1.6,1.6,0,0,0,1.848-1.316,2.509,2.509,0,0,0,2.072,2.3c1.288,0,4.984-2.52,6.3-5.964,1.568,3.472,4.872,5.936,6.216,5.936,1.148,0,2.184-1.372,2.184-2.856a1.453,1.453,0,0,0-.84-1.428ZM32.41-19.852c.728,0,1.876-.14,1.876-1.764a1.612,1.612,0,0,0-1.876-1.736H26.95c-.728,0-1.876.14-1.876,1.764a1.612,1.612,0,0,0,1.876,1.736ZM32.354-7.168c.644,0,1.988,0,1.988-1.764a1.618,1.618,0,0,0-1.876-1.736H26.95c-.672,0-1.876.112-1.876,1.764A1.612,1.612,0,0,0,26.95-7.168ZM51.114-21.56A2.286,2.286,0,0,0,48.762-23.3a1.622,1.622,0,0,0-1.484.812c-.112.2-.616,1.288-.728,1.54a5.382,5.382,0,0,0-.756,2.044,2.217,2.217,0,0,0,2.352,1.932c.924,0,1.288-.5,1.792-1.484C51.086-20.664,51.2-20.86,51.114-21.56ZM36.3-10.3a2.035,2.035,0,0,0-1.876,1.82c0,.476,0,.476.98,2.688C36.022-4.4,36.19-4,37.282-4c.812,0,2.324-.5,2.324-1.9a10.772,10.772,0,0,0-1.4-3.556A1.665,1.665,0,0,0,36.3-10.3Zm14.756,1.68c0-.9-1.12-1.708-2.352-1.708-1.092,0-1.316.42-2.24,2.38-.616,1.288-.672,1.428-.672,1.764a2.193,2.193,0,0,0,2.268,2.016c.84,0,1.288-.336,1.9-1.428C51.058-7.588,51.058-7.924,51.058-8.624ZM72.282-16.24c2.744-.084,3.052-.084,3.7-.112,1.036-.028,2.436-.168,2.436-2.212,0-1.988-1.372-2.212-2.408-2.212-.532,0-3.136.112-3.724.112,0-1.12,0-2.8-2.52-2.8S67.27-21.616,67.3-20.972l.028.448c-2.184.056-4.648.084-6.552.112-.672,0-4-.028-4.76-.028-1.148,0-2.772.056-2.772,2.212,0,1.54.84,1.988,1.344,2.1a15.368,15.368,0,0,0,3.444.14c2.492,0,5.992-.056,9.408-.14l.028,1.372a12.636,12.636,0,0,0-3.36-.448c-4.732,0-7.084,2.632-7.084,5.6,0,3.5,2.856,5.628,6.944,5.628A6.458,6.458,0,0,0,67.8-4.928a2.817,2.817,0,0,1-2.1,1.9,15.733,15.733,0,0,1-5.236.644c-1.288,0-2.688,0-2.688,1.988a2.561,2.561,0,0,0,.756,1.848,2.514,2.514,0,0,0,1.876.56,33.294,33.294,0,0,0,4.368-.42C70.77.56,72.87-2.66,72.87-6.776a9.911,9.911,0,0,0-.588-3.5Zm-7.672,8.6c-.392,0-2.828-.084-2.828-1.96,0-1.512,1.764-1.96,2.828-1.96.2,0,2.828,0,2.828,2.016C67.438-8.064,65.73-7.644,64.61-7.644ZM95.074-14.56a46.466,46.466,0,0,1,5.488-3.5,2.5,2.5,0,0,0,1.456-2.38c0-1.624-1.092-2.072-2.884-2.072-.252,0-.9,0-1.428.028-4.452.168-7.756.252-11.368.252-1.456,0-2.632.588-2.632,2.352,0,1.848,1.12,2.352,2.492,2.352.28,0,.756-.028,1.6-.084,2.828-.224,4.312-.364,5.6-.392-.224.224-.644.532-.728.616-4.48,3.444-6.1,4.676-9.128,6.8C81.718-9.3,81.27-8.988,81.27-7.9a2.685,2.685,0,0,0,2.548,2.632c.672,0,1.064-.252,2.828-1.876a12.092,12.092,0,0,1,8.736-3.528,8.009,8.009,0,0,1,2.856.42,3.816,3.816,0,0,1,2.408,3.612,4.019,4.019,0,0,1-2.828,3.92,5.911,5.911,0,0,0,.084-.9,4.942,4.942,0,0,0-.756-2.632c-1.232-1.876-4-2.072-5.04-2.072-3.276,0-6.244,1.624-6.244,5.124,0,4.256,4.76,5.152,8.344,5.152A15.451,15.451,0,0,0,100.87.7,8.228,8.228,0,0,0,105.8-7.056a7.218,7.218,0,0,0-4-6.832,11.05,11.05,0,0,0-4.508-.952A6.706,6.706,0,0,0,95.074-14.56Zm-.98,12.488a5.585,5.585,0,0,1-1.148.14c-2.072,0-2.8-.728-2.8-1.372,0-.756.84-1.26,2.072-1.26a1.69,1.69,0,0,1,1.96,1.736A6.239,6.239,0,0,1,94.094-2.072Z" transform="translate(195 787.312)" fill="#fff"/>
    </g>
  </g>
</svg>
