<svg xmlns="http://www.w3.org/2000/svg" xmlns:xlink="http://www.w3.org/1999/xlink" width="263.936" height="105.2" viewBox="0 0 263.936 105.2">
  <defs>
    <filter id="パス_2862" x="0" y="0" width="263.936" height="105.2" filterUnits="userSpaceOnUse">
      <feOffset dy="3" input="SourceAlpha"/>
      <feGaussianBlur stdDeviation="3" result="blur"/>
      <feFlood flood-opacity="0.161"/>
      <feComposite operator="in" in2="blur"/>
      <feComposite in="SourceGraphic"/>
    </filter>
  </defs>
  <g transform="matrix(1, 0, 0, 1, 0, 0)" filter="url(#パス_2862)">
    <path id="パス_2862-2" data-name="パス 2862" d="M-95.3-5.2a8.631,8.631,0,0,0,2.848-6.16h1.712A12.643,12.643,0,0,1-91.1-7.552a.7.7,0,0,1-.736.464h-1.584l.352,1.792h2.192c1.168,0,2.032-.448,2.032-7.856h-7.168v1.792h1.76a6.33,6.33,0,0,1-2.4,4.8l-.1-1.008c-.352.064-.528.08-2.048.3v-1.12h1.952V-9.92H-98.8v-1.088h2.3V-12.64h-2.3v-1.008h-1.872v1.008h-2.688v1.632h2.688V-9.92h-2.288v1.536h2.288v1.376c-1.9.224-2.288.24-2.832.272l.192,1.792c2.624-.336,3.024-.4,6.7-1.04l-.048-.5Zm-1.568.032a4.551,4.551,0,0,1-.08.816h-6.56v1.76h5.744c-1.2,1.424-4.064,2-5.856,2.192l.784,1.92c1.792-.3,5.2-1.12,6.816-3.408A10.922,10.922,0,0,0-89.184,1.5l.848-1.936a10.323,10.323,0,0,1-5.856-2.16h5.7v-1.76h-6.5a7.043,7.043,0,0,0,.08-.816Zm9.376.192c.608-.048,1.328-.1,2.448-.208v6.64h1.792V-5.376c.192-.016.752-.1.976-.128.048.192.08.336.16.656l1.664-.544a14.936,14.936,0,0,0-1.248-3.2l-1.44.5a7.533,7.533,0,0,1,.432,1.1c-.448.048-1.168.1-1.648.112a29.792,29.792,0,0,0,3.152-4.5l-1.68-.672A24.553,24.553,0,0,1-84.432-9.44a8.724,8.724,0,0,0-.624-.7,18.732,18.732,0,0,0,1.76-2.944l-1.632-.608a22.26,22.26,0,0,1-1.328,2.416c-.128-.08-.192-.144-.416-.3l-.944,1.552A12.081,12.081,0,0,1-85.5-7.9c-.224.32-.544.752-.832,1.12-.3.016-.592.016-1.2.016Zm.448.656a16.5,16.5,0,0,1-.592,4.144L-86.1.576A22.786,22.786,0,0,0-85.488-4.1Zm7.984-9.328a10.008,10.008,0,0,1-2.416,4.816L-80.1-7.248a9.579,9.579,0,0,0,1.664-2.384h3.52a80.354,80.354,0,0,1-.352,8.56c-.128.464-.352.512-.8.512h-2.848l.384,2.016h3.52A1.639,1.639,0,0,0-73.52.32c.464-1.168.512-4.512.64-11.824h-4.736a13.84,13.84,0,0,0,.56-1.984Zm-3.792,9.472A28.2,28.2,0,0,1-82.4-.48l1.68-.272a20.226,20.226,0,0,0-.656-3.7Zm2.9-2.592a17.678,17.678,0,0,1,1.936,3.92l1.76-.928A13.845,13.845,0,0,0-78.24-7.6Zm11.008-6.224c0,1.1-.048,4.8-.048,7.12,0,2.3,0,3.776.8,4.88A4.713,4.713,0,0,0-64.048.752c3.9,0,6.032-2.288,6.736-6.224l-2.08-.736C-59.568-5.072-60.1-1.3-64-1.3c-2.5,0-2.848-1.488-2.848-3.376,0-2.384.16-7.792.176-8.3Zm27.792.544c-1.632.064-8.96.336-10.336.416-1.52.08-2.768.144-3.536.144l.08,2.24c1.008-.1,5.952-.512,7.072-.608-3.808,2.432-4.1,5.088-4.1,6.128A4.362,4.362,0,0,0-49.488-.32C-48.016.4-46.384.736-42.88.752l.3-2.288c-6.656.224-7.184-1.648-7.184-2.88,0-2,1.744-3.68,2.656-4.384a6.809,6.809,0,0,1,4.016-1.536c.5-.016,1.5,0,2,.016Zm5.2-.736c-.032.688-.112,1.536-.272,2.9H-38.9V-8.24l2.368-.032A24.517,24.517,0,0,1-39.136-.288l2.08.96c.432-.784,1.5-2.8,2.64-8.96l1.568-.016c.992-.016,1.872.128,1.872,2.112a14.737,14.737,0,0,1-.608,4.224c-.256.56-.752.736-1.472.736a14.538,14.538,0,0,1-2.08-.208l.128,2.064a21.782,21.782,0,0,0,2.368.16,2.988,2.988,0,0,0,2.56-1.04c.784-.96,1.184-3.552,1.184-5.328,0-2.16-.368-4.7-3.472-4.7H-34.08c.16-.928.24-1.728.352-2.768Zm11.36,8.736c-.352-4.128-1.536-5.92-2.64-7.3l-1.824.944c.784,1.008,1.968,2.688,2.208,6.72Zm13.008-7.744a30.031,30.031,0,0,0-7.136-.992l-.336,1.968a28.326,28.326,0,0,1,7.008,1.168Zm-9.408,1.584a4.567,4.567,0,0,0-.32,1.344c-.1.976-.16,4.208-.16,5.3l2.1.032a4.193,4.193,0,0,0,.016-.448A7.186,7.186,0,0,1-14.5-6.272c1.024,0,2.592.416,2.592,2.08,0,3.04-4.112,3.04-5.584,3.04a24.829,24.829,0,0,1-3.968-.336L-21.3.544a23.64,23.64,0,0,0,3.6.224c3.2,0,4.544-.368,5.584-.928a4.253,4.253,0,0,0,2.4-4c0-2.224-1.52-4.016-4.336-4.016a9.8,9.8,0,0,0-5.28,1.536,10.493,10.493,0,0,1,.4-3.664ZM-7.168.48H-5.36V-.7H-2v-12.3H-7.168Zm3.408-11.6v3.3h-1.6v-3.3Zm0,5.024V-2.56h-1.6V-6.1ZM-1.472-3.9H4.064v3.04c0,.336-.192.336-.352.336h-2.3L1.76,1.424H4.512A1.4,1.4,0,0,0,6.048-.224V-3.9h1.36V-5.792H6.048V-7.12H7.536V-8.992H3.92v-1.536H7.072v-1.84H3.92v-1.264H1.952v1.264H-1.1v1.84H1.952v1.536H-1.616V-7.12h5.68v1.328H-1.472Zm.128,1.056a13.5,13.5,0,0,1,1.92,2.8L2.3-1.12a13.873,13.873,0,0,0-2.032-2.7ZM19.632-6.176H12.32V-.1H18.8l.256,1.552h2.736c1.056,0,1.216-1.024,1.216-1.6v-12.9h-6.5v6H21.12V-.912c0,.224-.016.464-.4.464H19.632Zm1.488-5.392v.912H18.352v-.912Zm0,2.128v.928H18.352V-9.44Zm-3.3,4.72v.944H14.112V-4.72Zm0,2.128V-1.6H14.112v-.992ZM8.992,1.456H10.88v-8.5H15.3v-6h-6.3ZM13.44-11.568v.912H10.88v-.912Zm0,2.128v.928H10.88V-9.44Zm16.5-.848c.048-.4.288-2.32.336-2.752l-2.208-.16c-.064.864-.128,1.616-.288,2.912H25.1V-8.24l2.368-.032A25.6,25.6,0,0,1,24.928-.208L26.96.656a35.233,35.233,0,0,0,2.656-8.944l1.52-.016c.992-.016,1.888.128,1.888,2.112a14.737,14.737,0,0,1-.608,4.224c-.24.544-.752.736-1.472.736a16.338,16.338,0,0,1-2.08-.208L28.992.624a20.106,20.106,0,0,0,2.368.16,3.02,3.02,0,0,0,2.56-1.04C34.7-1.216,35.1-3.808,35.1-5.584c0-2.16-.368-4.7-3.472-4.7Zm9.376,6.24c-.112-3.5-.7-4.688-1.536-5.9l-1.92.768A9.8,9.8,0,0,1,36.992-3.76Zm-2.1-6.752a9.863,9.863,0,0,0-1.024-2.5l-1.312.4a11.346,11.346,0,0,1,.96,2.576Zm2.384-.352a9.51,9.51,0,0,0-1.056-2.5l-1.3.4a11.674,11.674,0,0,1,1.04,2.512Zm4.352-1.808c-.032.5-.064,1.1-.16,1.856H41.376v1.968H43.52A41.925,41.925,0,0,1,40.992.128l2.064.7a51.319,51.319,0,0,0,2.528-9.968H49.84V-11.1H45.888c.112-.784.176-1.28.24-1.84ZM54.624-9.04c-4.08-.064-5.584.464-6.8.992l.64,1.744a11.594,11.594,0,0,1,4.624-.7c.672,0,1.12.032,1.552.048ZM47.888-5.088a4.339,4.339,0,0,0-1.344,2.864C46.544.72,50.336.72,52.112.72,53.9.72,54.192.7,54.832.656V-1.408a32.039,32.039,0,0,1-3.392.16c-1.04,0-2.928,0-2.928-1.216A2.417,2.417,0,0,1,49.376-4.1ZM59.7.16a28.737,28.737,0,0,0,6-.48c1.248-.272,5.376-1.168,5.376-5.936,0-3.184-2.192-5.3-5.552-5.3a27.748,27.748,0,0,0-4.256.448c-.464.08-4.368.72-4.48.736l.432,2.32A48.19,48.19,0,0,1,65.344-9.5c2.752,0,3.408,1.792,3.408,3.232,0,4.1-4.24,4.416-9.5,4.384ZM73.888-12.912a56.736,56.736,0,0,0-.48,7.568A46.658,46.658,0,0,0,73.744.688L75.856.512a37.27,37.27,0,0,1-.4-5.888,43.537,43.537,0,0,1,.576-7.392Zm3.664.368v1.9h4.336l.048,1.984H77.312v1.9h4.672l.08,1.9a4.089,4.089,0,0,0-1.328-.16c-2.624,0-3.712,1.568-3.712,2.96,0,1.248.864,2.816,3.52,2.816a4.023,4.023,0,0,0,2.832-.96,2.591,2.591,0,0,0,.608-1.664,14.6,14.6,0,0,1,1.76,1.632l1.28-1.984a11.461,11.461,0,0,0-2.96-2.048l-.08-2.5h2.544v-1.9H83.952l-.016-1.984H86.3v-1.9Zm4.512,10.16c0,.976-.528,1.392-1.536,1.392-.256,0-1.568,0-1.568-1.088,0-.624.592-1.168,1.68-1.168a2.761,2.761,0,0,1,1.424.336ZM93.3-13.024c-.048,3.9.288,4.72.672,5.424-1.3.576-4.144,1.888-4.144,4.7A3.164,3.164,0,0,0,91.856,0c1.1.448,2.464.72,6.4.72A33.679,33.679,0,0,0,102.24.544v-2.16a38.62,38.62,0,0,1-4.992.272c-3.408,0-5.168-.144-5.168-1.728,0-1.744,2.272-2.592,3.088-2.9a28.559,28.559,0,0,1,6.576-1.408L101.36-9.6A41.338,41.338,0,0,0,95.9-8.32a8.808,8.808,0,0,1-.4-3.216c0-.608.032-1.136.048-1.488Zm7.632,2.3A15.581,15.581,0,0,0,100-13.392l-1.408.24a12.964,12.964,0,0,1,.832,2.8Zm2.208-.384a13.386,13.386,0,0,0-.944-2.544l-1.392.272a11.777,11.777,0,0,1,.88,2.624ZM-112.32,23.344a13.973,13.973,0,0,1-6.1-2.032,12.486,12.486,0,0,0,2.48-3.568l-1.808-.976a10.868,10.868,0,0,1-2.272,3.264,11.711,11.711,0,0,1-2.176-3.12l-1.872.832a14.975,14.975,0,0,0,2.5,3.5,15.07,15.07,0,0,1-6.048,2.112l.832,2.128A18.831,18.831,0,0,0-120,22.64a15.8,15.8,0,0,0,6.8,2.768Zm-8.736-11.424H-127.6V13.9h15.2V11.92h-6.56V10.336h-2.1Zm-2.608,2.032a10.705,10.705,0,0,1-4,2.8l1.088,1.84a13.174,13.174,0,0,0,4.736-3.712Zm11.392,2.656a10.413,10.413,0,0,1-4.352-2.656l-1.744,1.04a14.522,14.522,0,0,0,4.912,3.536Zm1.04-4.624a15.318,15.318,0,0,1,2.688,1.68l1.2-1.664a16.76,16.76,0,0,0-2.8-1.616Zm-.512,4.3a15.831,15.831,0,0,1,2.608,1.7l1.152-1.712a15.255,15.255,0,0,0-2.72-1.616Zm2.352,2.4a19.436,19.436,0,0,1-2.416,4.864l1.312,1.936a21.262,21.262,0,0,0,2.8-5.7Zm13.184,1.088a10.71,10.71,0,0,1-2.256-2.88l-1.664.7a11.609,11.609,0,0,0,2.7,3.68Zm-10.176-4.816h-1.408v1.776h4.912v3.056c0,.336-.176.384-.416.384h-1.52l.32,1.856h2.016c.992,0,1.536-.336,1.536-1.3v-4H-96.5V14.96h-4.448V13.5h4.064v-1.76h-4.064V10.416h-1.936V14.96h-1.568V11.072h-1.936Zm.752,1.968a10,10,0,0,1-2.224,3.6l1.44,1.232a11.466,11.466,0,0,0,2.56-4.224Zm6.48,3.248c-1.28,1.536-3.28,3.072-8.64,3.28l.672,2.1c3.184-.256,7.168-1.136,9.264-3.92Zm11.12,4.56c4.192-.288,7.168-2.064,7.168-6.8,0-4.016-2.56-6.4-6.7-6.4-4.512,0-7.552,2.992-7.552,7.184,0,2.32,1.088,4.736,3.248,4.736a3.893,3.893,0,0,0,3.136-2.144c1.328-2.24,1.632-5.872,1.792-7.792,3.12.24,3.776,2.5,3.776,4.3,0,3.92-2.672,4.736-5.536,4.864Zm-1.04-11.12c-.368,4.992-1.488,7.664-2.672,7.664-.384,0-1.28-.368-1.28-2.384C-93.024,16.736-92.112,14.3-89.072,13.616Zm16.864,10.112a5.347,5.347,0,0,1-1.968-1.28h2.144v-1.52H-75.04a5.727,5.727,0,0,0,.112-.752h2.672V18.768H-74.88v-.752h2.512v-1.68l.608.944a5.925,5.925,0,0,0,.384-.464v8.64h1.824v-.7h5.024V22.96h-1.856v-1.7h1.5V19.648h-1.5v-1.7h1.5V16.32h-1.5V14.64h1.776V12.912H-66.4a23.681,23.681,0,0,0,.912-2.192l-1.888-.336a19.047,19.047,0,0,1-.864,2.528h-1.216a16.227,16.227,0,0,0,.656-2.3l-1.84-.256a14.973,14.973,0,0,1-1.728,4.576v-.912h-6.8v4h2.624v.752h-2.624v1.408h2.544a5.681,5.681,0,0,1-.144.752h-2.768v1.52h2.064a5.665,5.665,0,0,1-2.144,1.616l1.1,1.5a7.183,7.183,0,0,0,2.8-2.688A6.492,6.492,0,0,0-73.2,25.264Zm4.1-5.776v1.7h-1.44v-1.7Zm0-3.312v1.68h-1.44V14.64Zm0,6.624v1.7h-1.44v-1.7Zm-8.4-5.92v1.392h-1.2V15.344Zm2.8,0v1.392H-74.9V15.344Zm-4.432-4.96v.944h-1.392V12.88h1.392v.88h1.712v-.88h1.488v.88h1.712v-.88h1.28V11.328h-1.312v-.944h-1.68v.944h-1.5v-.944Zm20.016,9.568A10.263,10.263,0,0,1-63.2,22.864l.976,1.744c3.264-1.232,5.168-2.832,6.32-4.656h1.728a8.319,8.319,0,0,1-4.512,4.064l1.2,1.456a9.784,9.784,0,0,0,5.248-5.52h1.1a15.352,15.352,0,0,1-.272,2.96c-.1.368-.24.576-.7.576h-2.112l.4,1.936h2.16c1.6,0,1.872-.816,2.032-1.28a31.582,31.582,0,0,0,.512-5.872h-9.072a7.392,7.392,0,0,0,.784-1.12h7.424V10.9H-62.016v6.256h2.368a9.009,9.009,0,0,1-3.984,2.56l.992,1.664a10.135,10.135,0,0,0,2.592-1.424Zm6.192-7.472v.944h-8.128V12.48Zm0,2.16v.944h-8.128V14.64Zm5.44,3.952a10.861,10.861,0,0,1-1.2,5.328l1.68,1.488a14.032,14.032,0,0,0,1.472-6.72V15.744h1.968v2.432h7.76V15.744h2.384V14.208h-2.384V13.2h2.3V11.44h-6.224v-1.1H-40.8v1.1h-5.7Zm9.808-5.392v1.008H-40.7V13.2Zm-5.9,0v1.008H-44.56V13.2Zm5.9,2.544v1.008H-40.7V15.744Zm-6,5.68a8.408,8.408,0,0,0,1.9,1.536,22.3,22.3,0,0,1-4.208.72l.72,1.776a20.235,20.235,0,0,0,5.728-1.344,19.836,19.836,0,0,0,5.392,1.36l.784-1.9a21.228,21.228,0,0,1-3.952-.624,6.66,6.66,0,0,0,2.384-2.336v-1.68H-44.16v1.68h2.528Zm6.112-.816a5.072,5.072,0,0,1-2.048,1.536,9.706,9.706,0,0,1-2.336-1.536Zm6.5-9.584a38.453,38.453,0,0,0-.56,6.768,43.573,43.573,0,0,0,.48,6.912l2.144-.256a33.877,33.877,0,0,1-.544-6.512,30.888,30.888,0,0,1,.656-6.7Zm3.12,2.624v2h4.624l.064,3.216a5.24,5.24,0,0,0-1.28-.128c-2.384,0-3.664,1.488-3.664,3.04,0,.848.48,2.928,3.7,2.928,3.184,0,3.232-2.016,3.248-2.9a12.738,12.738,0,0,1,1.984,1.84l1.36-1.84a13.14,13.14,0,0,0-3.264-2.3l-.048-3.856h2.864v-2h-2.9V11.056h-2.1v2.592Zm4.72,7.824c0,.64-.016,1.456-1.36,1.456-1.52,0-1.7-.832-1.7-1.168,0-.688.656-1.264,1.792-1.264a2.971,2.971,0,0,1,1.264.272ZM-9.392,10.4V22.9H-15.52v2.048H-.5V22.9H-7.3v-5.92H-1.44V14.912H-7.3V10.4ZM5.936,13.712c.048-.4.288-2.32.336-2.752L4.064,10.8c-.064.864-.128,1.616-.288,2.912H1.1V15.76l2.368-.032A25.6,25.6,0,0,1,.928,23.792l2.032.864a35.233,35.233,0,0,0,2.656-8.944l1.52-.016c.992-.016,1.888.128,1.888,2.112a14.737,14.737,0,0,1-.608,4.224c-.24.544-.752.736-1.472.736a16.338,16.338,0,0,1-2.08-.208l.128,2.064a20.106,20.106,0,0,0,2.368.16,3.02,3.02,0,0,0,2.56-1.04c.784-.96,1.184-3.552,1.184-5.328,0-2.16-.368-4.7-3.472-4.7Zm9.376,6.24c-.112-3.5-.7-4.688-1.536-5.9l-1.92.768a9.8,9.8,0,0,1,1.136,5.424Zm-2.1-6.752a9.863,9.863,0,0,0-1.024-2.5l-1.312.4a11.346,11.346,0,0,1,.96,2.576Zm2.384-.352a9.51,9.51,0,0,0-1.056-2.5l-1.3.4a11.674,11.674,0,0,1,1.04,2.512Zm4.8,11.664a24.914,24.914,0,0,0,4.224-.32c1.376-.224,5.2-.848,5.2-5.1,0-2.944-2.288-4.272-4.672-4.272a24.987,24.987,0,0,0-3.2.32c-.56.08-3.3.528-3.9.608l.368,2.1a42.884,42.884,0,0,1,6.608-1.1,2.253,2.253,0,0,1,2.56,2.368c0,3.232-3.5,3.5-7.488,3.536Zm26.448-12.96c-1.632.064-8.96.336-10.336.416-1.52.08-2.768.144-3.536.144l.08,2.24c1.008-.1,5.952-.512,7.072-.608-3.808,2.432-4.1,5.088-4.1,6.128a4.362,4.362,0,0,0,2.48,3.808c1.472.72,3.1,1.056,6.608,1.072l.3-2.288c-6.656.224-7.184-1.648-7.184-2.88,0-2,1.744-3.68,2.656-4.384a6.809,6.809,0,0,1,4.016-1.536c.5-.016,1.5,0,2,.016Zm2.464.16c-.064.832-.24,2.64-.24,4.64,0,1.9.144,8.144,3.648,8.144,2.528,0,3.792-3.392,4.208-4.544l-1.776-.976A11.111,11.111,0,0,1,54.1,21.2c-.32.5-.656.9-1.184.9-1.5,0-1.7-4.112-1.7-5.84A26.7,26.7,0,0,1,51.6,11.9Zm13.856,11.1c.016-3.3-.064-7.632-3.424-10.8l-1.712,1.2c2.64,2.736,2.784,5.888,2.784,9.728ZM71.04,10.96c.032.544.08,1.152.176,1.856H65.808V14.64H71.52c.064.368.192.88.384,1.568-.192,0-.288.016-.5.016h-6.16v1.792H72.48a9.226,9.226,0,0,0,1.7,3.168L76.1,20.16A8.135,8.135,0,0,1,74.688,17.9a24.013,24.013,0,0,0,4.112-.576L78.464,15.5a20.271,20.271,0,0,1-4.448.624c-.176-.608-.3-1.1-.4-1.6a21.4,21.4,0,0,0,4.1-.576l-.48-1.808a20.087,20.087,0,0,1-3.9.592c-.08-.672-.1-1.152-.128-1.824Zm-2.768,7.808a4.074,4.074,0,0,0-1.76,3.008,2.766,2.766,0,0,0,2.032,2.5,16.748,16.748,0,0,0,5.488.56c1.264,0,2.224-.064,3.1-.144V22.656a25.862,25.862,0,0,1-3.856.208,24.218,24.218,0,0,1-2.816-.112c-.72-.1-1.84-.224-1.84-1.232,0-.752.752-1.36,1.12-1.648Zm13.184-6.416v1.9H87.3V15.68H81.76v1.856H87.3v1.376a4.878,4.878,0,0,0-1.28-.128c-2.112,0-4.128.944-4.128,3.056,0,1.312.9,2.96,4,2.96,3.536,0,3.536-2.1,3.536-2.816v-.3a22.626,22.626,0,0,1,3.248,2.592l1.392-1.856a17.608,17.608,0,0,0-4.64-2.944V17.536H94.1V15.68H89.424V14.256h4.992v-1.9H89.424V10.96H87.3v1.392Zm5.872,9.232c0,.656-.112,1.344-1.6,1.344-.736,0-1.84-.176-1.84-1.136,0-.992,1.168-1.264,1.984-1.264a4.208,4.208,0,0,1,1.456.272Zm17.136-9.072H96.976V14.48h7.536l.016,1.072a3.058,3.058,0,0,0-1.392-.32,3.276,3.276,0,1,0-.128,6.544,2.3,2.3,0,0,0,1.616-.5c-.4,1.184-1.408,1.776-5.136,1.84l.672,1.936a16.987,16.987,0,0,0,2.96-.368,4.75,4.75,0,0,0,3.808-4.992,5.965,5.965,0,0,0-.192-1.5c-.016-.064-.112-.352-.112-.4V14.48h4.416V12.512h-4.416V10.9h-2.192Zm.144,6.16a1.375,1.375,0,0,1-1.44,1.392,1.464,1.464,0,0,1-1.552-1.536,1.522,1.522,0,0,1,1.584-1.552,1.3,1.3,0,0,1,1.408,1.328Zm11.1,1.088a2.552,2.552,0,0,0,0,5.1,2.552,2.552,0,1,0,0-5.1Zm0,.96a1.584,1.584,0,1,1-1.584,1.584A1.588,1.588,0,0,1,115.712,20.72ZM-89.552,37.456h-5.264v-2.4h-2.208l.016,7.424a6.43,6.43,0,0,0-.928-.064c-2.688,0-4.592,1.344-4.592,3.328,0,.9.528,3.136,4,3.136,3.536,0,3.664-2.1,3.664-3.088v-.72a18.944,18.944,0,0,1,4.512,3.1l1.472-1.9A18.106,18.106,0,0,0-94.816,42.9V39.568h5.264Zm-7.424,8c0,.752-.1,1.5-1.68,1.5-1.728,0-1.824-1.024-1.824-1.28,0-.912.928-1.408,2.288-1.408a3.135,3.135,0,0,1,1.216.176ZM-84.56,34.832a36.689,36.689,0,0,0-.608,7.312A25.773,25.773,0,0,0-85.04,44.9l2.1-.16a12.037,12.037,0,0,1-.16-2c0-2.048,2.08-4.432,3.968-4.432,2.272,0,2.272,3.136,2.272,3.744,0,4.3-3.008,4.8-7.392,4.848l.464,2.016c5.5,0,9.152-1.488,9.152-6.752,0-3.92-1.888-5.824-4.3-5.824a4.911,4.911,0,0,0-3.9,2.032,13.054,13.054,0,0,1,.56-3.328ZM-60,40.16v1.152h-8.064V40.16Zm-11.232,9.168a65.447,65.447,0,0,0,7.648-1.184V46.416a17.156,17.156,0,0,0,6.1,3.1l1.136-2.048a16.314,16.314,0,0,1-4.144-1.36,20.023,20.023,0,0,0,3.7-2.288l-1.184-.928V35.728h-5.024V34.336h-2.048v1.392h-5.008V47.3c-.832.048-1.072.048-1.472.064Zm5.216-6.336a8.538,8.538,0,0,0,2.4,3.392c-2.08.416-3.872.64-4.448.7v-4.1ZM-60,37.5v1.088h-8.064V37.5Zm1.136,5.488a18.336,18.336,0,0,1-3.344,2.048,5.714,5.714,0,0,1-1.76-2.048Zm4.176-7.28c-.064.832-.24,2.64-.24,4.64,0,1.9.144,8.144,3.648,8.144,2.528,0,3.792-3.392,4.208-4.544l-1.776-.976A11.111,11.111,0,0,1-49.9,45.2c-.32.5-.656.9-1.184.9-1.5,0-1.7-4.112-1.7-5.84A26.7,26.7,0,0,1-52.4,35.9Zm13.856,11.1c.016-3.3-.064-7.632-3.424-10.8l-1.712,1.2c2.64,2.736,2.784,5.888,2.784,9.728Zm2.208-3.552a9.243,9.243,0,0,1-1.136,4.864L-38.3,49.5a8.751,8.751,0,0,0,1.168-3.76h3.5v1.392c0,.48-.112.48-.608.48H-35.7l.336,1.84h1.824c.56,0,1.44,0,1.44-1.456V38.016h-1.6a5.923,5.923,0,0,0,.848-1.152V35.3h-2.88c.112-.272.192-.432.3-.736l-1.9-.224a8.565,8.565,0,0,1-2.464,3.5l.608,1.952c.288-.224.368-.3.56-.464Zm2.656-3.712v1.584h-1.04V39.552Zm0,3.072V44.24h-1.04V42.624Zm2.336-3.072v1.584h-1.056V39.552Zm0,3.072V44.24h-1.056V42.624Zm-3.76-4.608a12.136,12.136,0,0,0,.832-1.152H-34.9a4.269,4.269,0,0,1-.944,1.152Zm5.44-3.12v1.68h1.712a3.558,3.558,0,0,1-1.792,1.856l.96,1.52a5.456,5.456,0,0,0,2.736-3.376h1.712c-.016,1.472-.272,1.472-.816,1.472h-1.376l.4,1.6h1.808a1.316,1.316,0,0,0,1.472-.9A17.633,17.633,0,0,0-24.8,34.9Zm3.312,8.192v1.536h-3.088v1.84h3.136v2.992h1.776V46.464h2.336v-1.84h-2.336V43.088h2V41.376h-2v-1.3H-28.64v1.3h-1.024c.112-.56.16-.848.208-1.12l-1.616-.272a8.022,8.022,0,0,1-.96,3.344l1.408,1.008a5.785,5.785,0,0,0,.544-1.248Zm9.84-6.576v1.84h3.264V40a11.587,11.587,0,0,1-.032,1.232h-3.776V43.1h3.44a7.315,7.315,0,0,1-4.32,4.512l1.232,1.84a9.227,9.227,0,0,0,4.624-5.008c.384,1.072,1.376,3.36,5.12,5.024L-8.24,47.5c-1.76-.688-4-1.936-4.864-4.4h4.64V41.232h-.928v-4.72H-13.52V34.384h-2.016v2.128Zm5.2,4.72a14.485,14.485,0,0,0,.08-1.5V38.352h2.112v2.88ZM-23.056,35.9A11.2,11.2,0,0,1-20.4,37.616l1.216-1.7a10.615,10.615,0,0,0-2.784-1.6Zm-.7,4.3a10.308,10.308,0,0,1,2.608,1.68l1.216-1.68a9.707,9.707,0,0,0-2.8-1.648Zm2.928,2.5a19.711,19.711,0,0,1-3.008,4.88l1.3,1.824a21.794,21.794,0,0,0,3.216-5.536ZM-2.7,34.832a12.37,12.37,0,0,1-.224,1.44H-6.5V38.24h3.024a13.3,13.3,0,0,1-3.52,5.376l1.52,1.568a14.473,14.473,0,0,0,2.064-2.752c1.584-1.6,2.7-1.6,2.9-1.6a1.225,1.225,0,0,1,1.168.7c-1.264.64-4.208,2.064-4.208,4.256a2.73,2.73,0,0,0,1.76,2.5,12.349,12.349,0,0,0,4.48.512c1.184,0,2.64-.048,3.2-.064V46.672c-1.3.128-2.72.192-4.032.192-1.6,0-3.136,0-3.136-1.248,0-1.024,1.408-1.712,2.256-2.144a16.9,16.9,0,0,1-.032,2.016h2.1c.016-.512.016-.768.016-1.232,0-.528-.016-1.088-.064-1.616a22.67,22.67,0,0,1,3.824-1.072l-.48-2.112A29.673,29.673,0,0,0,2.56,40.72a2.663,2.663,0,0,0-2.528-1.7,4.448,4.448,0,0,0-1.84.464A7.845,7.845,0,0,0-1.28,38.24H5.6V36.272H-.7c.144-.608.192-.864.256-1.28Zm16.224.048v5.664h9.072V34.88Zm7.2,1.44v.848H15.392V36.32Zm0,2.016v.816H15.392v-.816Zm-9.36-.32a10.345,10.345,0,0,1-3.12,4.032l.624,2.32a4.046,4.046,0,0,0,.832-.656v5.744h1.968v-8.08a15.6,15.6,0,0,0,1.408-2.608Zm2.08,8.192a13.9,13.9,0,0,1,1.936,2.432l1.584-1.2a12.812,12.812,0,0,0-1.9-2.208h4.608v1.856c0,.368-.016.544-.448.544H17.44l.32,1.824h2.368c1.344,0,1.5-.736,1.5-1.424v-2.8h1.952V43.568H21.632V42.8H23.2V41.232H12.944V42.8h6.72v.768h-7.2v1.664h2.272ZM8.928,39.376a11.173,11.173,0,0,0,3.76-4.432l-1.776-.672a7.647,7.647,0,0,1-2.768,3.152ZM26.4,35.2v2.032l6.032-.1c-2.384,2.192-4.784,4.4-7.2,6.528l1.2,1.856c.592-.624,2.208-2.208,2.752-2.72a6.9,6.9,0,0,1,4.1-1.408,2.622,2.622,0,0,1,2.976,2.7,2.672,2.672,0,0,1-2.208,2.688c.016-.224.032-.32.032-.448a2.84,2.84,0,0,0-2.96-2.9c-1.44,0-2.992.9-2.992,2.5a2.619,2.619,0,0,0,1.3,2.192,5.269,5.269,0,0,0,2.976.7c4.224,0,6.08-2.3,6.08-4.912a4.179,4.179,0,0,0-4.416-4.368,4.8,4.8,0,0,0-1.776.288c.464-.384.736-.608,3.28-2.912V35.2Zm5.92,11.84c-2.064.16-2.416-.576-2.416-1.024,0-.512.432-.9,1.12-.9a1.362,1.362,0,0,1,1.36,1.488A1.487,1.487,0,0,1,32.32,47.04Zm11.632-12c-.032.5-.064,1.1-.16,1.856H41.376v1.968H43.52a41.925,41.925,0,0,1-2.528,9.264l2.064.7a51.319,51.319,0,0,0,2.528-9.968H49.84V36.9H45.888c.112-.784.176-1.28.24-1.84Zm10.672,3.92c-4.08-.064-5.584.464-6.8.992l.64,1.744a11.594,11.594,0,0,1,4.624-.7c.672,0,1.12.032,1.552.048Zm-6.736,3.952a4.339,4.339,0,0,0-1.344,2.864c0,2.944,3.792,2.944,5.568,2.944,1.792,0,2.08-.016,2.72-.064V46.592a32.039,32.039,0,0,1-3.392.16c-1.04,0-2.928,0-2.928-1.216a2.417,2.417,0,0,1,.864-1.632Zm16.176-7.968c0,.64-.064,1.648-.144,2.48a9.056,9.056,0,0,0-3.44,1.056,18.439,18.439,0,0,1-.432-2.848l-2.016.512a19.725,19.725,0,0,0,.752,3.6A6.2,6.2,0,0,0,57.008,44.1c0,2.144,1.184,3.616,2.928,3.616,2.208,0,4.7-2.432,5.7-8.352a3.249,3.249,0,0,1,3.2,3.552c0,3.04-2.336,3.888-5.7,3.9l.64,2c2.24-.176,3.488-.336,4.912-1.264a5.069,5.069,0,0,0,2.24-4.464,5.684,5.684,0,0,0-2.08-4.56,5.783,5.783,0,0,0-2.912-1.088,17.6,17.6,0,0,0,.24-2.384Zm-3.056,5.344a6.306,6.306,0,0,1,2.7-.944,15.943,15.943,0,0,1-1.168,3.92A11.055,11.055,0,0,1,61.008,40.288Zm.448,4.624a2.043,2.043,0,0,1-1.36.8c-.9,0-1.2-.96-1.2-1.664a4.342,4.342,0,0,1,.656-2.256A12.116,12.116,0,0,0,61.456,44.912Zm16.768-8.656V38.3H86.24V36.256Zm.464,5.392a5.421,5.421,0,0,0-.96,2.976c0,3.344,3.728,3.344,5.856,3.344.88,0,2.08-.032,2.928-.112V45.728a31.636,31.636,0,0,1-4.064.16c-1.872,0-2.768-.448-2.768-1.456a3.661,3.661,0,0,1,.736-2.016Zm-4.512-6.512a64.989,64.989,0,0,0-.576,8,27.965,27.965,0,0,0,.528,5.664l2.16-.208a28.329,28.329,0,0,1-.544-5.808,45.012,45.012,0,0,1,.64-7.472ZM93.968,47.648a27.5,27.5,0,0,0-3.232-3.568l-1.712,1.152A30.759,30.759,0,0,1,92,48.96Zm-177.9,16.768h7.824V63.168a17.424,17.424,0,0,0,2.864,1.408l1.04-1.936c-3.7-1.312-5.2-2.464-6.624-4.24h-2.144a15.544,15.544,0,0,1-6.784,4.24l1.008,1.936a17.5,17.5,0,0,0,2.816-1.392Zm.912-1.792a15.321,15.321,0,0,0,3.056-2.544,14.39,14.39,0,0,0,2.976,2.544Zm-3.808,3.136v1.888H-76.1c-1.28,2.064-3.824,3.3-7.344,3.952l.976,1.9c4.528-.848,7.6-3.312,8.976-5.856V65.76Zm23.3-5.248h-7.488V62.48h7.536l.016,1.072a3.058,3.058,0,0,0-1.392-.32,3.263,3.263,0,0,0-3.488,3.328,3.238,3.238,0,0,0,3.36,3.216,2.3,2.3,0,0,0,1.616-.5c-.4,1.184-1.408,1.776-5.136,1.84l.672,1.936a16.987,16.987,0,0,0,2.96-.368A4.75,4.75,0,0,0-61.072,67.7a5.965,5.965,0,0,0-.192-1.5c-.016-.064-.112-.352-.112-.4V62.48h4.416V60.512h-4.416V58.9h-2.192Zm.144,6.16a1.375,1.375,0,0,1-1.44,1.392,1.464,1.464,0,0,1-1.552-1.536A1.522,1.522,0,0,1-64.8,64.976,1.3,1.3,0,0,1-63.392,66.3Zm20.88,4.8a53.581,53.581,0,0,0-7.344-4.64c-.928-.48-1.28-.688-1.28-1.088,0-.32.256-.512.544-.72a66.99,66.99,0,0,0,6.272-5.072l-2.112-1.312a53.778,53.778,0,0,1-6.3,5.44,2.3,2.3,0,0,0-.912,1.712c0,1.136.768,1.632,1.776,2.24a63.2,63.2,0,0,1,7.36,5.072Zm-.48-6.624a13.527,13.527,0,0,0-1.5-2.32l-1.312.656a19.319,19.319,0,0,1,1.456,2.432Zm2.032-1.1a11.457,11.457,0,0,0-1.52-2.224l-1.3.672a14.7,14.7,0,0,1,1.52,2.32Zm6.176-3.024h-3.7v1.968h3.7v2.144c-3.808,1.472-4.048,3.728-4.048,4.544A3.256,3.256,0,0,0-35.3,72.5c2.544,0,2.544-1.488,2.544-2.08V66.208a8.244,8.244,0,0,1,2.112-.24c.672,0,3.216,0,3.216,2.368,0,2.64-2.912,2.624-4.784,2.624l.432,1.872c3.264.048,6.5-.8,6.5-4.368a4.256,4.256,0,0,0-1.392-3.248,5.4,5.4,0,0,0-3.776-1.1,11.66,11.66,0,0,0-2.3.224V62.688h3.488V60.72h-3.488v-1.7h-2.032Zm0,9.216c0,.32,0,.608-.7.608A1.256,1.256,0,0,1-36.832,69.3c0-1.424,1.472-2.224,2.048-2.528Zm5.12-9.9a11.9,11.9,0,0,1,3.232,4.176l1.888-1.056a11.783,11.783,0,0,0-3.536-4.32Zm17.088,6.416h-6.912v5.5h6.208l.224,1.536h2.736c.544,0,1.376-.064,1.376-1.536V58.976h-6.432v6.352h4.528v5.744c0,.272-.048.432-.416.432h-1.312Zm1.728-5.92v1.008h-2.624V60.528Zm0,2.224v1.072h-2.624V62.752ZM-14.4,68.08v2.176h-3.264V68.08Zm-8.656,5.408h1.936v-8.16h4.384V58.976h-6.32Zm4.416-12.96v1.008H-21.1V60.528Zm0,2.224v1.072H-21.1V62.752Zm11.952-3.04c-.064.832-.24,2.64-.24,4.64,0,1.9.144,8.144,3.648,8.144C-.752,72.5.512,69.1.928,67.952l-1.776-.976A11.111,11.111,0,0,1-1.9,69.2c-.32.5-.656.9-1.184.9-1.5,0-1.7-4.112-1.7-5.84A26.7,26.7,0,0,1-4.4,59.9Zm13.856,11.1c.016-3.3-.064-7.632-3.424-10.8l-1.712,1.2c2.64,2.736,2.784,5.888,2.784,9.728Zm4.736-6.24h8.3V63.424a24.924,24.924,0,0,0,2.432,1.232l1.1-2.016c-4.208-1.6-5.744-3.248-6.64-4.288H14.928a14.19,14.19,0,0,1-6.64,4.288l1.056,2.016a23.149,23.149,0,0,0,2.56-1.28Zm.976-1.808a12.778,12.778,0,0,0,3.088-2.752,16.143,16.143,0,0,0,3.168,2.752ZM9.92,73.44h2.016v-.592h8.112v.592h2.016V65.952H9.92Zm10.128-5.68v3.3H11.936v-3.3Zm11.408,4.752c1.808-.08,7.552-.32,7.552-6.016,0-1.824-.912-5.04-4.848-5.04a7.308,7.308,0,0,0-4.64,1.808,6.437,6.437,0,0,1,.5-.944V61.264h-.448l.048-2.256-2.1.016v2.24H25.2v2l2.3-.016-.016,1.408a13.935,13.935,0,0,1-2.816,3.536l1.12,2.16a8.916,8.916,0,0,0,1.664-2.24L27.408,72.8h2.128l-.016-7.3a6.273,6.273,0,0,1,4.32-2.1c.512,0,2.944,0,2.944,3.056,0,3.872-3.936,4.016-5.84,4.064Zm18.96-13.6c.032.56.1,2.624.112,3.12l-5.056.112.032-2.992H43.376v3.056l-2.448.048.064,1.952,2.384-.048v3.776a8.409,8.409,0,0,0,.32,2.736c.768,1.7,2.528,1.984,6.192,1.984,2.64,0,3.408-.064,3.936-.112V70.48a32.813,32.813,0,0,1-4.416.192c-3.9,0-4-.144-3.984-2.816l.032-3.744L50.592,64a14.389,14.389,0,0,1-.144,2.384c-.112.608-.224.9-.848.9a14.2,14.2,0,0,1-1.968-.208l.112,1.92a12.892,12.892,0,0,0,2.032.176c2.72,0,2.8-1.68,2.88-5.216l2.432-.064-.032-1.952-2.4.048a26.908,26.908,0,0,0-.144-3.1Zm10.88-.08a12.37,12.37,0,0,1-.224,1.44H57.5V62.24h3.024a13.3,13.3,0,0,1-3.52,5.376l1.52,1.568a14.472,14.472,0,0,0,2.064-2.752c1.584-1.6,2.7-1.6,2.9-1.6a1.225,1.225,0,0,1,1.168.7c-1.264.64-4.208,2.064-4.208,4.256a2.73,2.73,0,0,0,1.76,2.5,12.349,12.349,0,0,0,4.48.512c1.184,0,2.64-.048,3.2-.064V70.672c-1.3.128-2.72.192-4.032.192-1.6,0-3.136,0-3.136-1.248,0-1.024,1.408-1.712,2.256-2.144a16.9,16.9,0,0,1-.032,2.016h2.1c.016-.512.016-.768.016-1.232,0-.528-.016-1.088-.064-1.616a22.671,22.671,0,0,1,3.824-1.072l-.48-2.112A29.673,29.673,0,0,0,66.56,64.72a2.662,2.662,0,0,0-2.528-1.7,4.448,4.448,0,0,0-1.84.464,7.846,7.846,0,0,0,.528-1.248H69.6V60.272H63.3c.144-.608.192-.864.256-1.28Zm17.552.56.288,8.976h1.728l.288-8.976ZM78.9,69.744V72H81.1V69.744Z" transform="translate(136.66 19.7)" fill="#002063"/>
  </g>
</svg>
