<svg xmlns="http://www.w3.org/2000/svg" xmlns:xlink="http://www.w3.org/1999/xlink" width="663.072" height="76.728" viewBox="0 0 663.072 76.728">
  <defs>
    <filter id="パス_2866" x="0" y="0" width="663.072" height="76.728" filterUnits="userSpaceOnUse">
      <feOffset dy="3" input="SourceAlpha"/>
      <feGaussianBlur stdDeviation="3" result="blur"/>
      <feFlood flood-opacity="0.161"/>
      <feComposite operator="in" in2="blur"/>
      <feComposite in="SourceGraphic"/>
    </filter>
  </defs>
  <g transform="matrix(1, 0, 0, 1, 0, 0)" filter="url(#パス_2866)">
    <path id="パス_2866-2" data-name="パス 2866" d="M-319.2-18.7c-1.392,5.208-3.072,7.536-4.44,8.952l2.184,2.5a24.337,24.337,0,0,0,5.16-10.584Zm18.96,8.5c-2.16-2.04-3.456-3.888-5.3-8.592l-2.832,1.056c2.352,6.816,4.9,9.048,6.024,10.032Zm-13.416-10.224v11.04c0,.7-.432.7-.672.7h-3.288l.552,3.1h3.768c1.344,0,2.784-.5,2.784-2.616V-20.424ZM-306.7-9.96c-3.336,5.568-7.056,8.328-16.632,9.192l1.008,3.144c10.1-1.056,14.52-4.608,18.144-10.536Zm11.28-9.528c0,1.656-.072,7.2-.072,10.68,0,3.456,0,5.664,1.2,7.32,1.44,1.968,3.576,2.616,6.216,2.616,5.856,0,9.048-3.432,10.1-9.336l-3.12-1.1c-.264,1.7-1.056,7.368-6.912,7.368-3.744,0-4.272-2.232-4.272-5.064,0-3.576.24-11.688.264-12.456Zm38.856,10.2a18.779,18.779,0,0,0-2.208-3.5l-1.872.984a28.048,28.048,0,0,1,2.16,3.6Zm3.144-1.656a17.4,17.4,0,0,0-2.184-3.24l-1.9.984a22.845,22.845,0,0,1,2.208,3.408Zm-.312-7.728c-2.448.1-13.44.5-15.5.624-1.776.1-3.7.216-5.3.216l.12,3.36c1.512-.144,8.928-.768,10.608-.912-5.712,3.648-6.144,7.632-6.144,9.192a6.543,6.543,0,0,0,3.72,5.712c2.208,1.08,4.656,1.584,9.912,1.608l.456-3.432c-9.984.336-10.776-2.472-10.776-4.32,0-3,2.616-5.52,3.984-6.576a10.24,10.24,0,0,1,6.024-2.3c.888-.024,2.448.024,3,.024Zm8.016,2.16h-4.128v2.952h4.008l-.144,3.648H-250.2v2.928h4.128c0,5.88.936,8.208,7.68,8.208,3.96,0,8.5-.6,8.5-6.432a12.5,12.5,0,0,0-1.536-6.048l-2.952.864a11.188,11.188,0,0,1,1.2,4.848c0,3.312-2.04,3.7-5.088,3.7-4.512,0-4.56-.84-4.56-5.136h.552c4.32,0,5.784-.384,6.984-1.128l-1.032-2.736c-.96.552-2.328.936-5.64.936h-.768l.192-3.648h7.3v-2.952h-7.128l.168-3h-3.384Zm19.584-2.016a30.762,30.762,0,0,1,3.576,5.376l2.736-1.656a25.686,25.686,0,0,0-3.744-5.376Zm17.712-1.728a23.6,23.6,0,0,1-3.5,5.5l2.736,1.8a26.368,26.368,0,0,0,3.7-5.9Zm-9.024,7.392h-9.648v2.832h18.432v2.76h-17.4v2.808h17.4v2.832H-227.28v2.9h18.624v.96h3.1v-15.1h-8.76v-7.608h-3.12Zm35.712-5.808c-2.448.1-13.44.5-15.5.624-2.28.12-4.152.216-5.3.216l.12,3.36c1.512-.144,8.928-.768,10.608-.912-5.712,3.648-6.144,7.632-6.144,9.192a6.543,6.543,0,0,0,3.72,5.712c2.208,1.08,4.656,1.584,9.912,1.608l.456-3.432c-9.984.336-10.776-2.472-10.776-4.32,0-3,2.616-5.52,3.984-6.576a10.213,10.213,0,0,1,6.024-2.3c.744-.024,2.256,0,3,.024Zm4.608-.792a57.68,57.68,0,0,0-.84,10.152,65.361,65.361,0,0,0,.72,10.368l3.216-.384A50.815,50.815,0,0,1-174.84-9.1a46.332,46.332,0,0,1,.984-10.056Zm4.68,3.936v3h6.936l.1,4.824a7.86,7.86,0,0,0-1.92-.192c-3.576,0-5.5,2.232-5.5,4.56,0,1.272.72,4.392,5.544,4.392,4.776,0,4.848-3.024,4.872-4.344a19.107,19.107,0,0,1,2.976,2.76l2.04-2.76a19.711,19.711,0,0,0-4.9-3.456l-.072-5.784h4.3v-3h-4.344v-3.888h-3.144v3.888Zm7.08,11.736c0,.96-.024,2.184-2.04,2.184-2.28,0-2.544-1.248-2.544-1.752,0-1.032.984-1.9,2.688-1.9a4.457,4.457,0,0,1,1.9.408Zm11.544-13.68v2.856h8.76v2.136h-8.3V-9.7h8.3v2.064a7.318,7.318,0,0,0-1.92-.192c-3.168,0-6.192,1.416-6.192,4.584,0,1.968,1.344,4.44,6,4.44,5.3,0,5.3-3.144,5.3-4.224V-3.48A33.939,33.939,0,0,1-136.992.408l2.088-2.784a26.413,26.413,0,0,0-6.96-4.416V-9.7h7.008V-12.48h-7.008v-2.136h7.488v-2.856h-7.488V-19.56h-3.192v2.088Zm8.808,13.848c0,.984-.168,2.016-2.4,2.016-1.1,0-2.76-.264-2.76-1.7,0-1.488,1.752-1.9,2.976-1.9a6.312,6.312,0,0,1,2.184.408ZM-128.4-19.2v3.048l9.048-.144c-3.576,3.288-7.176,6.6-10.8,9.792l1.8,2.784c.888-.936,3.312-3.312,4.128-4.08a10.353,10.353,0,0,1,6.144-2.112c.792,0,4.464,0,4.464,4.056,0,2.136-1.224,3.408-3.312,4.032.024-.336.048-.48.048-.672a4.259,4.259,0,0,0-4.44-4.344c-2.16,0-4.488,1.344-4.488,3.744A3.928,3.928,0,0,0-123.864.192,7.9,7.9,0,0,0-119.4,1.248c6.336,0,9.12-3.456,9.12-7.368a6.268,6.268,0,0,0-6.624-6.552,7.2,7.2,0,0,0-2.664.432c.7-.576,1.1-.912,4.92-4.368V-19.2Zm8.88,17.76c-3.1.24-3.624-.864-3.624-1.536,0-.768.648-1.344,1.68-1.344a2.042,2.042,0,0,1,2.04,2.232A2.231,2.231,0,0,1-119.52-1.44Zm29.28-7.392a32.518,32.518,0,0,1-.744,6.7C-91.368-.96-91.92-.96-92.664-.96H-97.44l.6,3.072h4.848c1.8,0,2.88-.24,3.624-1.92C-87.624-1.464-87.12-6.24-87-11.688H-97.728c.1-1.272.12-2.16.12-2.9h12.96v-2.952h-9.816v-2.9h-3.192v2.9h-9.672v2.952h6.6c-.048,8.04-2.016,11.064-7.032,13.848l1.872,2.9c5.376-3.072,7.2-6.936,7.824-10.992Zm15.192,8.3A41.246,41.246,0,0,0-79.9-5.88l-2.568,1.728A46.138,46.138,0,0,1-78,1.44ZM-40.368-18.6c-1.272,0-4.056-.024-5.376,0-1.44.024-7.536.1-8.688.1-.552,0-1.344-.024-1.824-.048v3.168c1.44-.072,6.408-.192,7.968-.24-.576.312-1.872,1.008-2.4,1.368l2.16,1.9a22.393,22.393,0,0,1,8.16-3.336ZM-54.5-10.872c-1.632,1.8-2.76,3.432-2.76,5.688a5.133,5.133,0,0,0,2.736,4.44C-52.44.36-50.352.624-45.408.624A44.621,44.621,0,0,0-39.1.312l-.072-3.24a54.862,54.862,0,0,1-7.176.408c-3.672,0-7.7-.048-7.7-2.856,0-.888.312-2.184,1.944-3.84Zm13.968,1.1a20.071,20.071,0,0,0-2.3-3.576l-1.776,1.008a23.01,23.01,0,0,1,2.208,3.648Zm3.048-1.536a16.2,16.2,0,0,0-2.28-3.456l-1.8,1.008a20.475,20.475,0,0,1,2.232,3.5ZM-25.7,2.184h3.12V-14.184h-.648A24.851,24.851,0,0,0-21.96-16.7H-12.7v-3H-35.3v3h10.2c-.72,1.488-2.88,5.9-10.56,9.5l1.68,2.976a27.061,27.061,0,0,0,8.28-6.384Zm3.288-14.376a31.485,31.485,0,0,0,8.064,8.04l2.016-2.856a25.881,25.881,0,0,1-7.7-6.744ZM-.288-19.824V-9.456c0,4.92-1.392,7.488-5.04,9.264l2.04,2.448A10.28,10.28,0,0,0,2.28-5.424h5.5V-1.8c0,.984-.072,1.008-.888,1.008H4.416l.6,2.976H7.824c2.232,0,2.808-.48,2.808-2.808v-19.2Zm8.064,2.688v3.12H2.544v-3.12Zm0,5.784v3.216H2.544v-3.216ZM-10.7-19.464V-1.248H-7.92V-3.12h5.808V-19.464Zm5.88,2.784v3.936h-3.1V-16.68Zm0,6.552V-5.9h-3.1v-4.224Zm22.776-9.648c-.144,1.056-.24,1.92-.408,2.9H13.488v3h3.5a43.015,43.015,0,0,1-3.744,11.5l3.24,1.1a84.654,84.654,0,0,0,3.768-12.6h5.208v-3H20.88c.168-.84.264-1.56.432-2.688Zm16.512,2.544c-4.56.072-5.9.264-7.656.672l.24,8.664a14.148,14.148,0,0,0-1.728-.12c-4.44,0-6.1,2.448-6.1,4.752,0,2.04,1.368,4.56,5.736,4.56,4.272,0,5.208-2.832,5.208-4.2v-.432A18.85,18.85,0,0,1,33.216-.7L35.04-3.744a21.171,21.171,0,0,0-4.824-3.168L30-13.776a13.453,13.453,0,0,1,2.5-.168,17.046,17.046,0,0,1,1.992.1ZM27.144-3.648c0,1.7-1.248,2.112-2.472,2.112-1.008,0-2.544-.384-2.544-1.776,0-1.536,1.632-2.064,3.024-2.064a5.321,5.321,0,0,1,1.992.384ZM59.28-18.6H49.128v-1.848H46.08v6.48H38.856v8.976H57.264v-8.976H49.128V-15.72H59.28Zm-4.992,7.416v3.36H41.856v-3.36ZM39.216-4.632A12.68,12.68,0,0,1,36.36.528L38.784,2.4A16.161,16.161,0,0,0,41.9-3.624Zm4.248.816a15.87,15.87,0,0,1,.12,2.232,25.229,25.229,0,0,1-.24,3.6l3.024-.048c.024-.456.048-.864.048-1.44A37.347,37.347,0,0,0,46.2-3.816Zm4.992.072a25.179,25.179,0,0,1,1.32,5.736L52.8,1.584a38.686,38.686,0,0,0-1.56-5.592Zm5.5.384a34.2,34.2,0,0,1,2.88,5.688l2.76-1.44A31.268,31.268,0,0,0,56.544-4.56ZM70.44-18.576a19.384,19.384,0,0,1,1.584,2.856c-.624.192-3.528,1.128-3.84,1.248-.264-.912-1.176-3.816-1.392-4.536l-3.192.864c.336.864,1.08,3,1.56,4.656-.84.288-3.36,1.1-3.864,1.272l.936,3.192c.36-.144,2.52-.96,3.768-1.44A104.9,104.9,0,0,1,68.76,1.512L72.192.984a129.168,129.168,0,0,0-3.168-12.6c.84-.312,2.736-.984,3.96-1.368.192.6.312,1.032.528,1.9l3.144-.864c-.12-.576-.216-.984-.408-1.656,2.736.048,3.144,1.776,3.144,2.712,0,1.248-.84,3.072-3.912,3.072a8.852,8.852,0,0,1-2.64-.456L72.7-5.3a11.263,11.263,0,0,0,3.24.48c4.008,0,6.7-2.208,6.7-6.072,0-3.024-1.9-5.664-6.12-5.664a7.817,7.817,0,0,0-1.368.1,19.866,19.866,0,0,0-1.92-3.264ZM96.432-8.952c0,6.408-2.472,8.592-3.408,9.432l2.424,1.8a12.989,12.989,0,0,0,2.4-3.984c1.848,3.288,4.368,3.7,9.432,3.648l.432-2.832a34.816,34.816,0,0,1-5.064-.192V-4.464h4.176V-7.032h-4.176V-10.1h2.04a7.1,7.1,0,0,1-1.008,1.7l2.3.984a9.762,9.762,0,0,0,1.272-2.616v-2.64h-4.008l.912-.792a12.258,12.258,0,0,0-.984-.912,20.233,20.233,0,0,0,3.7-2.88V-19.7H95.856v2.448h7.224a9.089,9.089,0,0,1-1.776,1.464c-.888-.6-1.584-1.008-2.208-1.368l-1.8,1.728a21.825,21.825,0,0,1,3.864,2.76H95.5V-10.1h4.56V-2.64a8.927,8.927,0,0,1-1.392-2.3,29.7,29.7,0,0,0,.312-3.984Zm-1.8,6.984a8.4,8.4,0,0,1-2.424-2.376H95.64V-6.792H91.8c.072-.576.12-1.1.144-1.824h2.832v-2.448H88.752c.12-.36.216-.648.36-1.2L87.144-12.7h6.072c1.656,0,2.04-1.2,2.424-3.672l-2.592-.576c-.216,1.9-.552,1.9-.936,1.9H88.68c-.5,0-.6-.264-.6-.552v-.768a24.82,24.82,0,0,0,6.96-1.848l-1.464-2.232a17.6,17.6,0,0,1-5.5,1.728v-1.7H85.32v6a1.624,1.624,0,0,0,1.224,1.656,12.033,12.033,0,0,1-2.112,4.224l2.16,1.632a8.834,8.834,0,0,0,1.152-1.7h1.512a16.035,16.035,0,0,1-.1,1.824H84.744v2.448h3.792A7.536,7.536,0,0,1,84.48-.528l1.608,2.592A10.71,10.71,0,0,0,90.6-2.448,10.568,10.568,0,0,0,92.736.192Zm30.5-6.36H114.768V-.072h9.312l.336,2.3h4.1c.816,0,2.064-.1,2.064-2.3V-19.536h-9.648v9.528h6.792v8.616c0,.408-.072.648-.624.648h-1.968Zm2.592-8.88V-15.7h-3.936v-1.512Zm0,3.336v1.608h-3.936v-1.608ZM122.4-5.88v3.264h-4.9V-5.88ZM109.416,2.232h2.9v-12.24H118.9v-9.528h-9.48Zm6.624-19.44V-15.7h-3.7v-1.512Zm0,3.336v1.608h-3.7v-1.608Zm21.912-5.9c-.144,1.056-.24,1.92-.408,2.9h-4.056v3h3.5a43.016,43.016,0,0,1-3.744,11.5l3.24,1.1a84.656,84.656,0,0,0,3.768-12.6h5.208v-3H140.88c.168-.84.264-1.56.432-2.688Zm16.512,2.544c-4.56.072-5.9.264-7.656.672l.24,8.664a14.148,14.148,0,0,0-1.728-.12c-4.44,0-6.1,2.448-6.1,4.752,0,2.04,1.368,4.56,5.736,4.56,4.272,0,5.208-2.832,5.208-4.2v-.432A18.851,18.851,0,0,1,153.216-.7l1.824-3.048a21.171,21.171,0,0,0-4.824-3.168L150-13.776a13.453,13.453,0,0,1,2.5-.168,17.046,17.046,0,0,1,1.992.1Zm-7.32,13.584c0,1.7-1.248,2.112-2.472,2.112-1.008,0-2.544-.384-2.544-1.776,0-1.536,1.632-2.064,3.024-2.064a5.321,5.321,0,0,1,1.992.384Zm16.8-15.888c-.072,5.856.432,7.08,1.008,8.136-1.944.864-6.216,2.832-6.216,7.056A4.746,4.746,0,0,0,161.784,0c1.656.672,3.7,1.08,9.6,1.08A50.518,50.518,0,0,0,177.36.816v-3.24a57.93,57.93,0,0,1-7.488.408c-5.112,0-7.752-.216-7.752-2.592,0-2.616,3.408-3.888,4.632-4.344a42.838,42.838,0,0,1,9.864-2.112L176.04-14.4a62.007,62.007,0,0,0-8.184,1.92c-.6-1.1-.6-3.672-.6-4.824,0-.912.048-1.7.072-2.232Zm11.448,3.456A23.37,23.37,0,0,0,174-20.088l-2.112.36a19.446,19.446,0,0,1,1.248,4.2Zm3.312-.576a20.079,20.079,0,0,0-1.416-3.816l-2.088.408a17.666,17.666,0,0,1,1.32,3.936Zm8.544-.888h-5.064v2.976h5.064a7.234,7.234,0,0,0-.024.768c0,.552,0,1.368.048,1.848-5.568,2.232-5.664,6.48-5.664,7.368,0,2.592,1.536,4.608,4.368,4.608,3.552,0,8.016-3.624,9.864-9.96,3.312,1.032,3.312,3.432,3.312,3.888,0,.84-.264,3.12-3.456,4.008a15.174,15.174,0,0,1-4.176.456l.96,2.856c4.08-.024,9.816-1.32,9.816-7.176,0-4.2-3.36-7.056-9.336-7.056a13.548,13.548,0,0,0-2.64.216c0-.168,0-1.176.024-1.824h11.04v-2.976H190.44l.048-2.016-3.216-.024ZM190.872-5.9a32.931,32.931,0,0,1-.48-4.32,8.973,8.973,0,0,1,1.8-.168c.336,0,.576.024.888.024A11.588,11.588,0,0,1,190.872-5.9Zm-2.424,2.376a3.4,3.4,0,0,1-2.088.792c-1.872,0-1.872-1.824-1.872-2.184,0-1.824,1.152-3.264,3-4.272A25.86,25.86,0,0,0,188.448-3.528ZM209.16-19.752c-.72,2.664-.912,8.088-.912,10.968a38.658,38.658,0,0,0,.192,4.128l3.144-.24a18.056,18.056,0,0,1-.24-3c0-3.072,3.12-6.648,5.952-6.648,3.408,0,3.408,4.7,3.408,5.616,0,6.456-4.512,7.2-11.088,7.272l.7,3.024c8.256,0,13.728-2.232,13.728-10.128,0-5.88-2.832-8.736-6.456-8.736a7.367,7.367,0,0,0-5.856,3.048,19.582,19.582,0,0,1,.84-4.992Zm21.024,2.28v2.856h8.76v2.136h-8.3V-9.7h8.3v2.064a7.318,7.318,0,0,0-1.92-.192c-3.168,0-6.192,1.416-6.192,4.584,0,1.968,1.344,4.44,6,4.44,5.3,0,5.3-3.144,5.3-4.224V-3.48A33.939,33.939,0,0,1,247.008.408L249.1-2.376a26.413,26.413,0,0,0-6.96-4.416V-9.7h7.008V-12.48h-7.008v-2.136h7.488v-2.856h-7.488V-19.56h-3.192v2.088Zm8.808,13.848c0,.984-.168,2.016-2.4,2.016-1.1,0-2.76-.264-2.76-1.7,0-1.488,1.752-1.9,2.976-1.9a6.312,6.312,0,0,1,2.184.408Zm17.592-15.864c0,1.656-.072,7.2-.072,10.68,0,3.456,0,5.664,1.2,7.32,1.44,1.968,3.576,2.616,6.216,2.616,5.856,0,9.048-3.432,10.1-9.336l-3.12-1.1c-.264,1.7-1.056,7.368-6.912,7.368-3.744,0-4.272-2.232-4.272-5.064,0-3.576.24-11.688.264-12.456Zm25.344.048c-.048.744-.1,1.656-.24,2.784h-3.624V-13.7h3.216c-.192,1.176-1.512,9.072-3.792,13.9l3.1,1.056c1.56-3.552,3.1-10.608,3.792-14.952h6.384v-2.952h-5.928c.168-1.176.264-1.92.36-2.76Zm16.008,5.88c-6.12-.1-8.376.7-10.2,1.488l.96,2.616a17.391,17.391,0,0,1,6.936-1.056c1.008,0,1.68.048,2.328.072Zm-10.1,5.928a6.508,6.508,0,0,0-2.016,4.3c0,4.416,5.688,4.416,8.352,4.416,2.688,0,3.12-.024,4.08-.1v-3.1a48.058,48.058,0,0,1-5.088.24c-1.56,0-4.392,0-4.392-1.824a3.626,3.626,0,0,1,1.3-2.448Zm30.792-10.656a45.046,45.046,0,0,0-10.7-1.488l-.5,2.952a42.489,42.489,0,0,1,10.512,1.752Zm-14.112,2.376a6.85,6.85,0,0,0-.48,2.016c-.144,1.464-.24,6.312-.24,7.944l3.144.048a6.292,6.292,0,0,0,.024-.672,10.78,10.78,0,0,1,7.3-2.832c1.536,0,3.888.624,3.888,3.12,0,4.56-6.168,4.56-8.376,4.56a37.243,37.243,0,0,1-5.952-.5l.24,3.048a35.46,35.46,0,0,0,5.4.336c4.8,0,6.816-.552,8.376-1.392a6.379,6.379,0,0,0,3.6-6c0-3.336-2.28-6.024-6.5-6.024-1.632,0-5.4.432-7.92,2.3.048-3.408.216-4.44.6-5.5ZM-136.176,19.08h-5.544v2.952h5.544v3.216c-5.712,2.208-6.072,5.592-6.072,6.816,0,1.752,1.368,4.68,5.3,4.68,3.816,0,3.816-2.232,3.816-3.12V27.312a12.366,12.366,0,0,1,3.168-.36c1.008,0,4.824,0,4.824,3.552,0,3.96-4.368,3.936-7.176,3.936l.648,2.808c4.9.072,9.744-1.2,9.744-6.552a6.384,6.384,0,0,0-2.088-4.872c-.72-.6-2.208-1.656-5.664-1.656a17.49,17.49,0,0,0-3.456.336V22.032h5.232V19.08h-5.232V16.536h-3.048Zm0,13.824c0,.48,0,.912-1.056.912a1.884,1.884,0,0,1-2.016-1.872c0-2.136,2.208-3.336,3.072-3.792Zm7.68-14.856a17.847,17.847,0,0,1,4.848,6.264l2.832-1.584a17.674,17.674,0,0,0-5.3-6.48Zm23.256,17.3c-.672-.624-1.776-1.584-3.912-3.24a16.792,16.792,0,0,0,2.592-3.384l-2.52-1.344a21.664,21.664,0,0,1-2.328,3.024,36.7,36.7,0,0,0-4.368-2.664l-1.752,2.184a33.914,33.914,0,0,1,3.96,2.472,22.92,22.92,0,0,1-5.9,3.1l1.8,2.688a26.323,26.323,0,0,0,6.384-4.056,44.737,44.737,0,0,1,3.912,3.576Zm8.4-15.6V17.16h-16.008c.288-.48.384-.648.744-1.248l-3.192-.576a14.431,14.431,0,0,1-4.32,5.208l1.9,2.448a30.669,30.669,0,0,0,3.072-3.24ZM-119.112,27.1H-103.3c-.048.7-.1,2.064-.1,3.84,0,3.672.48,7.1,3.36,7.1a2.526,2.526,0,0,0,2.3-1.32,10.225,10.225,0,0,0,1.272-3.456l-2.04-1.992c-.312,1.392-.768,3.408-1.344,3.408-.7,0-.7-2.544-.7-3.216,0-1.968.216-5.52.312-6.912h-18.888Zm3.936-6.144v2.4h16.608v-2.4Zm20.016-1.224h3.96v1.128h-3.7v9.792h3.7v1.368h-4.152v2.616H-91.2v3.576h2.64V34.632h3.984V32.016H-88.56V30.648h3.744V20.856H-88.56V19.728h3.84V17.16h-3.84V15.552H-91.2V17.16h-3.96Zm4.056,3.288v1.728h-1.608V23.016Zm4.1,0v1.728h-1.632V23.016Zm-4.1,3.624v1.776h-1.608V26.64Zm4.1,0v1.776h-1.632V26.64Zm13.8,5.208V29.16h-3.84V27.192h-2.928V29.16h-4.056v2.688h4.056v3h-4.824v2.808h12.1V34.848H-77.04v-3Zm0-15.6H-84.168v2.76h3.336L-82.8,19.8a13.814,13.814,0,0,0,2.4,3.672,16.7,16.7,0,0,1-4.344,1.968l1.272,2.664a16.464,16.464,0,0,0,5.136-2.664,13.766,13.766,0,0,0,4.56,2.64l1.272-2.76a14.056,14.056,0,0,1-3.7-1.776,12.457,12.457,0,0,0,3-4.632Zm-3.072,2.76a9.614,9.614,0,0,1-2.04,2.76,12.212,12.212,0,0,1-1.992-2.76Zm13.608-.624v3.072H-50.64V18.384Zm.7,8.088a8.132,8.132,0,0,0-1.44,4.464c0,5.016,5.592,5.016,8.784,5.016,1.32,0,3.12-.048,4.392-.168V32.592a47.455,47.455,0,0,1-6.1.24c-2.808,0-4.152-.672-4.152-2.184a5.492,5.492,0,0,1,1.1-3.024ZM-68.736,16.7a97.485,97.485,0,0,0-.864,12,41.948,41.948,0,0,0,.792,8.5l3.24-.312a42.5,42.5,0,0,1-.816-8.712,67.517,67.517,0,0,1,.96-11.208Zm40.368.7c-1.272,0-4.056-.024-5.376,0-1.44.024-7.536.1-8.688.1-.552,0-1.344-.024-1.824-.048v3.168c1.44-.072,6.408-.192,7.968-.24-.576.312-1.872,1.008-2.4,1.368l2.16,1.9a22.393,22.393,0,0,1,8.16-3.336ZM-42.5,25.128c-1.632,1.8-2.76,3.432-2.76,5.688a5.133,5.133,0,0,0,2.736,4.44c2.088,1.1,4.176,1.368,9.12,1.368a44.621,44.621,0,0,0,6.312-.312l-.072-3.24a54.862,54.862,0,0,1-7.176.408c-3.672,0-7.7-.048-7.7-2.856,0-.888.312-2.184,1.944-3.84Zm13.968,1.1a20.071,20.071,0,0,0-2.3-3.576l-1.776,1.008a23.01,23.01,0,0,1,2.208,3.648Zm3.048-1.536a16.2,16.2,0,0,0-2.28-3.456l-1.8,1.008a20.475,20.475,0,0,1,2.232,3.5Zm12.216-8.4V38.232h2.88V37.008H-4.32v1.224h2.856V16.3Zm8.952,8.568V28.2h-6.072V24.864Zm0,5.928v3.48h-6.072v-3.48Zm0-11.736v3.216h-6.072V19.056ZM-22.7,33.528A19.329,19.329,0,0,0-19.8,28.2V38.232h2.88V28.176a21.732,21.732,0,0,0,1.8,2.688l1.536-2.664a15.7,15.7,0,0,1-3.336-4.464V22.56h2.832V19.752H-16.92V15.528H-19.8v4.224h-3.48V22.56h3.312a19.935,19.935,0,0,1-3.744,7.272Zm29.328-.84v2.28H3.84v-2.28Zm3.864,5.568a10.932,10.932,0,0,0,6.048-5.76c.432,1.1,1.536,3.84,5.9,5.76l1.368-2.808A10.523,10.523,0,0,1,19.8,33.072a7.494,7.494,0,0,1-1.968-5.712V25.9H15V27.48c0,3.816-1.3,6.456-5.976,8.064V30.432H1.272v7.776H3.84V37.3H9.024v-1.68ZM1.272,29.184H9.024v-2.4H1.272ZM9.744,28.1a19.541,19.541,0,0,1,1.344,4.608l2.664-.792a20.617,20.617,0,0,0-1.488-4.56ZM1.272,18.5H9.024V16.128H1.272Zm8.76-1.248a14.724,14.724,0,0,1,.84,4.416l2.76-.792a20.293,20.293,0,0,0-1.1-4.368Zm-8.76,8.28H9.024V23.208H1.272ZM15,16.872c0,3.864-2.088,6.384-5.736,7.632l1.512,2.712a11.275,11.275,0,0,0,5.76-5.712,11.314,11.314,0,0,0,5.784,5.76l1.44-2.76a9.639,9.639,0,0,1-3.816-2.424,6.771,6.771,0,0,1-2.064-5.328V15.6H15ZM.576,22.08H9.744v-2.4H.576Zm19.848-5.64a18.926,18.926,0,0,1-1.512,4.176l2.4,1.056a21.2,21.2,0,0,0,1.728-4.416Zm.24,10.8a23.443,23.443,0,0,1-1.656,4.512l2.448.984a21.32,21.32,0,0,0,1.848-4.8ZM44.28,35.256c-2.928-2.472-7.536-5.04-11.52-7.272-1.008-.576-1.44-.84-1.44-1.32a.917.917,0,0,1,.288-.648c.408-.408,4.752-3.672,5.616-4.392,1.9-1.584,4.032-3.36,4.416-3.7l-3.1-2.04c-2.808,2.688-3.456,3.24-9.264,8.112-1.488,1.248-1.872,2.136-1.872,2.832,0,1.464,1.7,2.52,2.76,3.192A84.647,84.647,0,0,1,41.28,37.656Zm9.672-18.792c-.048.792-.072,1.056-.24,2.88H50.064V22.3H53.3A68.013,68.013,0,0,1,49.536,36.36l3.072.816A76.29,76.29,0,0,0,56.4,22.3h6.36V19.344h-5.9c.072-.48.312-2.448.336-2.76Zm15.984,6a25.991,25.991,0,0,0-10.2,1.464l.936,2.64a20.246,20.246,0,0,1,6.936-1.056c1.008,0,1.68.048,2.352.072Zm-10.1,5.952a6.355,6.355,0,0,0-2.04,4.392,3.957,3.957,0,0,0,2.4,3.48c1.032.5,2.28.816,6.168.816,2.4,0,3.144-.072,4.008-.12l-.12-3.072a47.97,47.97,0,0,1-5.112.24c-1.512,0-4.368,0-4.368-1.848a3.753,3.753,0,0,1,1.3-2.4Zm8.04-8.328A18.086,18.086,0,0,0,66.36,16.3l-1.968.624a17.262,17.262,0,0,1,1.416,3.912Zm3.24-.84A21.387,21.387,0,0,0,69.48,15.6l-1.968.648a18.7,18.7,0,0,1,1.512,3.7Zm11.4-2.592a33.931,33.931,0,0,0,.936,3.624H74.016v2.976H84.528a31.287,31.287,0,0,0,4.032,7.32l2.736-1.7a22.221,22.221,0,0,1-3.528-5.736,39.122,39.122,0,0,0,6.288-.768l-.5-3.024a46.394,46.394,0,0,1-6.912.864,24.119,24.119,0,0,1-.888-3.888ZM81.24,25.632c-4.512,1.368-6.12,3.84-6.12,6.144a4.494,4.494,0,0,0,2.5,4.008c1.608.864,3.336,1.3,8.232,1.3,2.376,0,4.08-.072,5.544-.216l.12-3.1a51.685,51.685,0,0,1-6.24.36c-4.44,0-7.056-.312-7.056-2.472,0-1.152.84-2.616,4.3-3.6Zm16.728-8.064c-.1,1.248-.36,3.96-.36,6.96,0,2.856.216,12.216,5.472,12.216,3.792,0,5.688-5.088,6.312-6.816l-2.664-1.464a16.666,16.666,0,0,1-1.584,3.336c-.48.744-.984,1.344-1.776,1.344-2.256,0-2.544-6.168-2.544-8.76a40.049,40.049,0,0,1,.576-6.528Zm20.784,16.656c.024-4.944-.1-11.448-5.136-16.2l-2.568,1.8c3.96,4.1,4.176,8.832,4.176,14.592Zm6.816-4.584a3.828,3.828,0,0,0,0,7.656,3.828,3.828,0,1,0,0-7.656Zm0,1.44a2.376,2.376,0,1,1-2.376,2.376A2.381,2.381,0,0,1,125.568,31.08Z" transform="translate(332.64 26.47)" fill="#002063"/>
  </g>
</svg>
