<svg xmlns="http://www.w3.org/2000/svg" xmlns:xlink="http://www.w3.org/1999/xlink" width="358" height="174.622" viewBox="0 0 358 174.622">
  <defs>
    <filter id="長方形_144" x="0" y="36.622" width="358" height="138" filterUnits="userSpaceOnUse">
      <feOffset dy="3" input="SourceAlpha"/>
      <feGaussianBlur stdDeviation="3" result="blur"/>
      <feFlood flood-opacity="0.161"/>
      <feComposite operator="in" in2="blur"/>
      <feComposite in="SourceGraphic"/>
    </filter>
  </defs>
  <g id="グループ_249" data-name="グループ 249" transform="translate(-461 -937.378)">
    <g id="グループ_131" data-name="グループ 131" transform="translate(0 40)">
      <g transform="matrix(1, 0, 0, 1, 461, 897.38)" filter="url(#長方形_144)">
        <rect id="長方形_144-2" data-name="長方形 144" width="340" height="120" rx="10" transform="translate(9 42.62)" fill="#002063"/>
      </g>
      <g id="グループ_130" data-name="グループ 130" transform="translate(0 -15)">
        <g id="グループ_189" data-name="グループ 189" transform="translate(0 47)">
          <path id="パス_2761" data-name="パス 2761" d="M-31.2-9.072v4.1h1.68V-7.552h10.992v2.576h1.68v-4.1h-2.368a25.57,25.57,0,0,0,1.136-2.352l-1.312-.4c1.024-.144,1.728-.288,2.448-.432l-.88-1.392a50.484,50.484,0,0,1-10.352.96c-1.248,0-2.048-.032-2.912-.064l.32,1.456c.448.016,1.056.016,1.744.032l-.768.288c.256.5.7,1.424.912,1.9Zm4,0c-.288-.736-.592-1.472-.928-2.192,1.136,0,2.112-.016,2.672-.032a15.274,15.274,0,0,1,.816,2.224Zm4.24,0a18.059,18.059,0,0,0-.7-2.32c2.512-.192,2.784-.224,3.76-.352A14.587,14.587,0,0,1-21.04-9.072ZM-28.336-4.1A9.716,9.716,0,0,0-25.7-1.344a24.665,24.665,0,0,1-5.84,1.1l.7,1.648A24.072,24.072,0,0,0-23.968-.336,20.775,20.775,0,0,0-17.04,1.488l.64-1.744a22.985,22.985,0,0,1-5.792-1.088,10.028,10.028,0,0,0,3.136-3.488v-1.52H-29.04v1.52h7.968A10.505,10.505,0,0,1-24-2.16a9.239,9.239,0,0,1-2.848-2.432ZM-13.68,1.392h1.632V-9.92a20.785,20.785,0,0,0,1.216-3.488l-1.712-.256A14.884,14.884,0,0,1-15.76-7.088l.736,1.872A11.428,11.428,0,0,0-13.68-6.9Zm3.1-7.936a25.013,25.013,0,0,1,2.688,3.9l1.472-.992a27.645,27.645,0,0,0-2.752-3.84Zm6.592-3.68h-7.184v1.648h7.184V-.72c0,.192-.032.464-.416.464L-7.36-.3l.224,1.7h2.96c1.376,0,1.9-.544,1.9-1.7V-8.576H-.464v-1.648H-2.272v-3.392H-3.984ZM.864.432H2.4V-.8H5.856V-12.96H.864ZM4.336-11.344v3.6H2.4v-3.6Zm0,5.1v3.872H2.4V-6.24Zm10.672-6h-3.3V-13.6H10.1v1.36H6.912V-10.7H10.1v1.856H6.352V-7.3h5.872v1.584H6.48v1.536h5.744V-.512c0,.24-.24.256-.352.256H9.488l.32,1.632h2.576c1.488,0,1.488-1.168,1.488-1.632v-3.92h1.5V-5.712h-1.5V-7.3H15.5V-8.848H11.712V-10.7h3.3ZM6.656-2.976A13.145,13.145,0,0,1,8.72-.272l1.392-1.056A10.879,10.879,0,0,0,7.952-3.9Zm22.656,2.4c0,.32-.176.384-.368.384H27.136l.256,1.6H29.84c1.072,0,1.072-1.056,1.072-1.5V-12.944H24.576V-7.1h4.736Zm0-11.056v1.056H26.128v-1.056Zm0,2.144v1.056H26.128V-9.488Zm-12.24,10.9h1.584V-7.1h4.5v-5.84h-6.08ZM21.6-11.632v1.056H18.656v-1.056Zm0,2.144v1.056H18.656V-9.488Zm-1.344,3.3V-.256H27.68V-6.192Zm5.9,1.3v1.1h-4.4V-4.9Zm0,2.176v1.152h-4.4V-2.72Z" transform="translate(520 1001)" fill="#fff"/>
          <path id="パス_2760" data-name="パス 2760" d="M-69.56-11.5h6.048V-5.68H-70.12v1.568h6.608V1.52h1.68V-4.112h6.64V-5.68h-6.64V-11.5h6.144v-1.552H-69.56Zm.8,1.088a30.147,30.147,0,0,1,1.6,4.272l1.584-.544a21.6,21.6,0,0,0-1.7-4.256Zm10.5-.512a22.778,22.778,0,0,1-1.7,4.272l1.488.608a23.49,23.49,0,0,0,1.9-4.448ZM-52.52,1.344h1.76V.512h8.144v.832h1.776V-12.864H-52.52Zm9.9-8.416H-50.76v-4.144h8.144Zm0,5.936H-50.76v-4.3h8.144Zm4.832-2.512C-37.816-.032-35.128.128-32.936.128c3.488,0,5.584-.384,5.584-6.464,0-4.736-.976-6.4-5.168-6.4-3.344,0-5.088,1.008-5.088,4.144,0,2.96,1.92,4,4.672,4,1.68,0,2.88-.368,3.648-1.344a8.07,8.07,0,0,1-.368,2.96c-.4,1.1-1.28,1.392-3.248,1.392-2.88,0-3.008-.912-3.008-2.064Zm5.248-2.624c-2.336,0-3.168-.64-3.168-2.288,0-1.632.4-2.432,3.152-2.432,1.6,0,3.216.24,3.216,2.256C-29.336-7.6-29.544-6.272-32.536-6.272Zm7.072-3.152v2.16H-23.4v-2.16Zm0,7.28V0H-23.4V-2.144ZM-21.5-4.3c0,3.072.928,4.432,5.456,4.432,1.968,0,4.976-.192,4.976-3.712a2.779,2.779,0,0,0-1.952-2.992c.384-.112,1.792-.5,1.792-2.736,0-3.424-3.264-3.424-4.752-3.424-3.264,0-5.152.464-5.264,4.032h1.92c.016-1.232.032-2.3,3.44-2.3,1.9,0,2.752.48,2.752,1.92,0,1.808-1.488,1.808-2.288,1.808H-17.4v1.552h1.984c2.352,0,2.448,1.2,2.448,2.064,0,1.712-1.024,2.064-3.3,2.064-3.36,0-3.344-1.12-3.328-2.7Zm17.36-8.432c-4.3,0-5.3,1.52-5.3,6.432,0,4.944,1.008,6.432,5.3,6.432,4.368,0,5.28-1.648,5.28-6.256C1.144-11.168.232-12.736-4.136-12.736Zm-.016,1.728c2.944,0,3.376.608,3.376,4.8,0,3.776-.368,4.608-3.248,4.608-3.12,0-3.488-.688-3.488-4.672C-7.512-10.3-7.128-11.008-4.152-11.008ZM16.168-7.3a4.048,4.048,0,0,1-3.1,1.536,5.444,5.444,0,0,1-2.832-1.008,6.782,6.782,0,0,0-3.408-1.1A5.623,5.623,0,0,0,4.088-7.1,5.456,5.456,0,0,0,2.632-5.84L3.688-4.9a3.7,3.7,0,0,1,3.04-1.5c1.216,0,1.616.224,3.632,1.344a5.239,5.239,0,0,0,2.672.768,5.461,5.461,0,0,0,4.192-2.064Zm5.024-5.312v1.728H23.64V0h1.92V-12.608ZM32.872-6.56c-1.776.48-1.984,2.3-1.984,3.152,0,3.12,2.736,3.536,5.264,3.536C38.7.128,41.4-.3,41.4-3.408c0-.336,0-2.608-1.968-3.152a2.88,2.88,0,0,0,1.7-2.768c0-3.264-3.216-3.408-4.976-3.408s-4.992.144-4.992,3.408A2.874,2.874,0,0,0,32.872-6.56Zm3.28-4.512c2.368,0,3.12.512,3.12,1.824,0,1.456-.8,1.952-3.008,1.952-1.824,0-3.248-.144-3.248-1.888C33.016-10.4,33.5-11.072,36.152-11.072Zm0,5.312c2.384,0,3.392.432,3.392,2.08,0,1.44-.48,2.128-3.392,2.128-2.8,0-3.408-.624-3.408-2.064C32.744-5.2,33.512-5.76,36.152-5.76Zm7.1-3.664v2.16H45.32v-2.16Zm0,7.28V0H45.32V-2.144ZM47.224-4.3c0,3.072.928,4.432,5.456,4.432,1.968,0,4.976-.192,4.976-3.712A2.779,2.779,0,0,0,55.7-6.576c.384-.112,1.792-.5,1.792-2.736,0-3.424-3.264-3.424-4.752-3.424-3.264,0-5.152.464-5.264,4.032H49.4c.016-1.232.032-2.3,3.44-2.3,1.9,0,2.752.48,2.752,1.92C55.592-7.28,54.1-7.28,53.3-7.28H51.32v1.552H53.3c2.352,0,2.448,1.2,2.448,2.064,0,1.712-1.024,2.064-3.3,2.064-3.36,0-3.344-1.12-3.328-2.7Zm17.36-8.432c-4.3,0-5.3,1.52-5.3,6.432,0,4.944,1.008,6.432,5.3,6.432,4.368,0,5.28-1.648,5.28-6.256C69.864-11.168,68.952-12.736,64.584-12.736Zm-.016,1.728c2.944,0,3.376.608,3.376,4.8,0,3.776-.368,4.608-3.248,4.608-3.12,0-3.488-.688-3.488-4.672C61.208-10.3,61.592-11.008,64.568-11.008Z" transform="translate(633 1001)" fill="#fff"/>
          <path id="パス_2762" data-name="パス 2762" d="M-33.9-12.608c-2.256,2.928-2.864,5.232-2.864,7.376A11.386,11.386,0,0,0-33.9,2.144h1.52A11.314,11.314,0,0,1-35.12-5.232a11.832,11.832,0,0,1,2.736-7.376Zm9.968,2.192V-8.24H-29.12v4.464H-31.5V-2.16h7.568v3.6h1.68v-3.6h5.776V-3.776h-5.776v-2.9h4.64V-8.24h-4.64v-2.176H-17.1v-1.616h-9.68a11.457,11.457,0,0,0,.464-1.2l-1.824-.448A9.569,9.569,0,0,1-31.7-8.56l1.136,1.424a12.073,12.073,0,0,0,2.912-3.28Zm0,3.744v2.9h-3.472v-2.9Zm15.072-6.912v2.752H-14.8v8.3h1.664v-.9h4.272V1.424h1.68V-3.424H-2.8v.9h1.7v-8.3h-6.08v-2.752ZM-2.8-9.168v4.08H-7.184v-4.08Zm-6.064,0v4.08h-4.272v-4.08Zm11.3.736h-2v1.44h2v2.336H.832v1.44h14.3v-1.44h-1.5V-6.992h1.92v-1.44h-1.92V-10.72h1.5v-1.456H4.592a5.919,5.919,0,0,0,.64-1.12l-1.568-.448A6.865,6.865,0,0,1,.192-10.512L1.264-9.168A6.517,6.517,0,0,0,2.432-9.9ZM8.88-10.72v2.288H7.152V-10.72Zm0,3.728v2.336H7.152V-6.992ZM5.712-10.72v2.288H3.984V-10.72Zm0,3.728v2.336H3.984V-6.992Zm6.336-3.728v2.288H10.32V-10.72Zm0,3.728v2.336H10.32V-6.992ZM2.272-2.624A6.893,6.893,0,0,1,.432.464l1.392,1.1A7.916,7.916,0,0,0,3.808-2.208Zm2.96.3a13.535,13.535,0,0,1,.1,1.728,8.7,8.7,0,0,1-.1,1.824h1.7a21.578,21.578,0,0,0-.208-3.6ZM8.416-2.4a13.1,13.1,0,0,1,.816,3.632l1.68-.1a12.713,12.713,0,0,0-.992-3.68Zm3.456.272a16.694,16.694,0,0,1,2.192,3.616L15.552.56A19.369,19.369,0,0,0,13.328-2.8Zm9.392,1.44a17.061,17.061,0,0,0,3.888-6.24V1.424h1.712v-8.16A14.934,14.934,0,0,0,30.656-.624l1.056-1.728A14.943,14.943,0,0,1,27.472-8.9h4v-1.6H26.864v-3.1H25.152v3.1h-4.4v1.6h3.776a17.284,17.284,0,0,1-4.384,6.608Zm-3.12,2.112h1.632v-10.8a15.976,15.976,0,0,0,1.1-4L19.136-13.6a11.989,11.989,0,0,1-2.848,6.56l.7,1.984a9.6,9.6,0,0,0,1.152-1.328Zm14.24-14.032A11.832,11.832,0,0,1,35.12-5.232a11.314,11.314,0,0,1-2.736,7.376H33.92a11.481,11.481,0,0,0,2.864-7.376c0-2.144-.624-4.448-2.864-7.376Z" transform="translate(753 1001)" fill="#fff"/>
        </g>
        <g id="グループ_127" data-name="グループ 127" transform="translate(0 54.95)">
          <path id="パス_2758" data-name="パス 2758" d="M-108.3-25.23a7.643,7.643,0,0,0-6.06,2.91c-2.34,3.39-2.43,8.76-2.43,10.02,0,1.59.18,6.9,2.43,10.05A7.588,7.588,0,0,0-108.3.66a7.51,7.51,0,0,0,6.06-2.91c2.22-3.12,2.43-8.34,2.43-10.05,0-1.23-.09-6.66-2.43-10.02A7.546,7.546,0,0,0-108.3-25.23Zm0,4.62c2.34,0,2.97,4.08,2.97,8.31,0,4.68-.72,8.34-3,8.34-2.61,0-2.94-5.25-2.94-8.34C-111.27-16.56-110.64-20.61-108.3-20.61Zm11.82,8.43c-.21,2.19,1.68,2.34,2.46,2.34a3.021,3.021,0,0,0,2.19-.84,3.3,3.3,0,0,1,2.76-1.29c1.86,0,3.18,1.29,3.18,3.81,0,1.08-.12,4.2-3.27,4.2a2.887,2.887,0,0,1-2.97-2.28,2.54,2.54,0,0,0-2.7-1.56c-1.29,0-2.52.57-2.52,2.25,0,1.59,2.1,6.21,8.34,6.21,4.17,0,8.64-2.46,8.64-9.15,0-5.13-3.57-8.1-7.59-8.1a6.368,6.368,0,0,0-3.66.96l.36-3.48a.97.97,0,0,1,.96-.84h6.48c.69,0,2.58,0,2.58-2.34a2.232,2.232,0,0,0-2.58-2.31h-8.04c-1.95,0-3.39.3-3.69,3.36Zm27.06-13.05a7.643,7.643,0,0,0-6.06,2.91c-2.34,3.39-2.43,8.76-2.43,10.02,0,1.59.18,6.9,2.43,10.05A7.588,7.588,0,0,0-69.42.66a7.51,7.51,0,0,0,6.06-2.91c2.22-3.12,2.43-8.34,2.43-10.05,0-1.23-.09-6.66-2.43-10.02A7.546,7.546,0,0,0-69.42-25.23Zm0,4.62c2.34,0,2.97,4.08,2.97,8.31,0,4.68-.72,8.34-3,8.34-2.61,0-2.94-5.25-2.94-8.34C-72.39-16.56-71.76-20.61-69.42-20.61Zm12.9,8.97c-2.31,0-2.55,1.38-2.55,2.67,0,1.77.84,2.52,2.55,2.52h4.77c2.31,0,2.52-1.41,2.52-2.7,0-1.77-.84-2.49-2.52-2.49Zm22.98-1.65a5.608,5.608,0,0,0,2.4-4.8c0-4.17-2.97-7.14-7.95-7.14-6.18,0-7.83,4.86-7.83,6.81,0,1.71,1.2,2.28,2.64,2.28,2.22,0,2.43-1.32,2.52-2.04.3-2.07,1.38-2.43,2.73-2.43,1.65,0,2.4,1.2,2.4,2.7,0,2.07-.84,3.12-2.49,3.12-.99,0-2.46,0-2.46,2.1,0,2.07,1.44,2.07,2.46,2.07,3.21,0,3.21,2.64,3.21,3.48a2.872,2.872,0,0,1-3.18,3.18c-2.55,0-2.79-1.71-3-2.97-.21-1.32-1.38-1.71-2.67-1.71-1.98,0-2.61,1.17-2.61,2.31a7.435,7.435,0,0,0,1.65,4.35C-44.04.06-41.64.66-38.85.66c7.95,0,8.46-6.12,8.46-7.77A7.217,7.217,0,0,0-33.54-13.29Zm12.12-2.85V-1.92c0,2.1,1.14,2.58,2.88,2.58,2.28,0,2.67-1.29,2.67-2.58V-23.55c0-.72-.66-1.71-2.28-1.71-1.68,0-1.98.78-2.4,1.89a4.452,4.452,0,0,1-3.81,3.03c-.99.15-2.16.3-2.16,2.07a1.936,1.936,0,0,0,1.92,2.13Zm13.8,3.96c-.21,2.19,1.68,2.34,2.46,2.34a3.021,3.021,0,0,0,2.19-.84A3.3,3.3,0,0,1-.21-11.97c1.86,0,3.18,1.29,3.18,3.81,0,1.08-.12,4.2-3.27,4.2A2.887,2.887,0,0,1-3.27-6.24,2.54,2.54,0,0,0-5.97-7.8c-1.29,0-2.52.57-2.52,2.25C-8.49-3.96-6.39.66-.15.66,4.02.66,8.49-1.8,8.49-8.49c0-5.13-3.57-8.1-7.59-8.1a6.368,6.368,0,0,0-3.66.96l.36-3.48a.97.97,0,0,1,.96-.84H5.04c.69,0,2.58,0,2.58-2.34A2.232,2.232,0,0,0,5.04-24.6H-3c-1.95,0-3.39.3-3.69,3.36ZM22.2-9.51c-.15,3.33-1.05,5.55-3.39,5.55a2.1,2.1,0,0,1-2.13-1.2c-.48-1.26-.78-1.98-2.73-1.98-2.28,0-2.67,1.62-2.67,2.22C11.28-3,13.56.66,18.81.66c8.52,0,9.12-9.48,9.12-13.71,0-5.19-1.14-7.5-2.49-9.24a7.95,7.95,0,0,0-6.27-2.94c-5.01,0-8.22,3.75-8.22,8.82,0,4.23,2.46,8.25,7.44,8.25A5.156,5.156,0,0,0,22.2-9.51Zm-2.7-11.1c1.02,0,2.85.69,2.85,3.99s-1.86,3.99-2.85,3.99c-1.05,0-2.88-.72-2.88-3.99C16.62-19.95,18.51-20.61,19.5-20.61Zm12.84,8.97c-2.31,0-2.55,1.38-2.55,2.67,0,1.77.84,2.52,2.55,2.52h4.77c2.31,0,2.52-1.41,2.52-2.7,0-1.77-.84-2.49-2.52-2.49ZM43.86-24.6a2.219,2.219,0,0,0-2.58,2.34,2.2,2.2,0,0,0,2.58,2.31h7.47c.15,0,.72,0,.72.33a1.2,1.2,0,0,1-.27.51,39.362,39.362,0,0,0-3.27,5.16C46.05-9.72,44.4-3.09,44.4-1.41c0,.63.06,2.07,2.85,2.07,2.73,0,2.79-1.38,2.82-2.22.15-4.23,2.61-11.01,5.52-14.97,3.09-4.17,3.09-4.23,3.09-5.31a2.527,2.527,0,0,0-2.49-2.76Zm19.44,0a2.219,2.219,0,0,0-2.58,2.34,2.2,2.2,0,0,0,2.58,2.31h7.47c.15,0,.72,0,.72.33a1.2,1.2,0,0,1-.27.51,39.362,39.362,0,0,0-3.27,5.16C65.49-9.72,63.84-3.09,63.84-1.41c0,.63.06,2.07,2.85,2.07,2.73,0,2.79-1.38,2.82-2.22.15-4.23,2.61-11.01,5.52-14.97,3.09-4.17,3.09-4.23,3.09-5.31a2.527,2.527,0,0,0-2.49-2.76Zm19.44,0a2.219,2.219,0,0,0-2.58,2.34,2.2,2.2,0,0,0,2.58,2.31h7.47c.15,0,.72,0,.72.33a1.2,1.2,0,0,1-.27.51,39.362,39.362,0,0,0-3.27,5.16C84.93-9.72,83.28-3.09,83.28-1.41c0,.63.06,2.07,2.85,2.07,2.73,0,2.79-1.38,2.82-2.22.15-4.23,2.61-11.01,5.52-14.97,3.09-4.17,3.09-4.23,3.09-5.31a2.527,2.527,0,0,0-2.49-2.76Zm22.8,9.54c.15-3.36,1.05-5.58,3.39-5.58a2.125,2.125,0,0,1,2.13,1.23c.48,1.23.78,1.98,2.73,1.98,2.31,0,2.67-1.62,2.67-2.22,0-1.92-2.28-5.61-7.53-5.61-8.52,0-9.12,9.51-9.12,13.71,0,5.19,1.14,7.5,2.49,9.24A7.878,7.878,0,0,0,108.57.66c5.01,0,8.25-3.78,8.25-8.82,0-4.26-2.49-8.25-7.47-8.25A5.156,5.156,0,0,0,105.54-15.06Zm2.7,3.09c1.05,0,2.88.72,2.88,3.99,0,3.33-1.86,4.02-2.88,4.02-.99,0-2.85-.72-2.85-4.02S107.28-11.97,108.24-11.97Z" transform="translate(658 956.05)" fill="#fff"/>
          <g id="icon_059860" transform="translate(491.501 923.687)">
            <path id="パス_2105" data-name="パス 2105" d="M14.668,139.222a42.189,42.189,0,0,0,8.286,4.771,10.511,10.511,0,0,0,2.986.973l.075,0c2.045,0,4.685-3.829,5-5.071a3.862,3.862,0,0,0-1.37-3.993l-2.744-2.14a3.824,3.824,0,0,0-2.372-.815,3.872,3.872,0,0,0-2.614,1.014A12.9,12.9,0,0,0,20.6,135.3a.221.221,0,0,1-.108.021c-1.149,0-5.169-3.5-6.243-4.614-1.134-1.09-4.668-5.156-4.606-6.26,0-.077.029-.1.037-.1A12.334,12.334,0,0,0,11,123.053a3.86,3.86,0,0,0,.2-4.985l-2.14-2.745a4.094,4.094,0,0,0-1.007-.9,3.853,3.853,0,0,0-1.6-.558,4.13,4.13,0,0,0-.473-.028,3.736,3.736,0,0,0-.913.112C3.975,114.23-.1,116.873,0,119.028a10.509,10.509,0,0,0,.973,2.986,42.312,42.312,0,0,0,13.694,17.209Z" transform="translate(0 -103.656)" fill="#fff"/>
            <path id="パス_2106" data-name="パス 2106" d="M267.133,7.389a21.293,21.293,0,0,0-11.707-6,2.185,2.185,0,0,0-.8.028h-.008a2.2,2.2,0,0,0-.4.124l-.027.011a2.239,2.239,0,0,0-.353.193l-.023.016a2.251,2.251,0,0,0-.316.262v0a2.22,2.22,0,0,0-.662,1.573v0a2.211,2.211,0,0,0,1.831,2.2,16.986,16.986,0,0,1,14.059,14.047,2.211,2.211,0,0,0,2.2,1.829,2.238,2.238,0,0,0,2.213-2.587A21.331,21.331,0,0,0,267.133,7.389Z" transform="translate(-233.009 0)" fill="#fff"/>
            <path id="パス_2107" data-name="パス 2107" d="M254.424,122.489a8.045,8.045,0,0,1,5.189,5.181,2.248,2.248,0,0,0,2.132,1.58h0A2.225,2.225,0,0,0,263.9,126.4a12.528,12.528,0,0,0-8.213-8.21,2.226,2.226,0,0,0-2.849,2.15v.012A2.248,2.248,0,0,0,254.424,122.489Z" transform="translate(-233.006 -107.574)" fill="#fff"/>
          </g>
        </g>
      </g>
    </g>
    <path id="パス_2110" data-name="パス 2110" d="M0,0,37.549,2.771,0,5.115Z" transform="translate(506.225 937.378) rotate(60)" fill="#f29600"/>
    <path id="パス_2111" data-name="パス 2111" d="M0,5.115,37.549,2.345,0,0Z" transform="translate(778.205 939.936) rotate(120)" fill="#f29600"/>
    <path id="パス_2759" data-name="パス 2759" d="M2.73-21.84v3.57H13.68v2.67H3.3v3.48H13.68v2.58a9.147,9.147,0,0,0-2.4-.24c-3.96,0-7.74,1.77-7.74,5.73,0,2.46,1.68,5.55,7.5,5.55,6.63,0,6.63-3.93,6.63-5.28v-.57A42.424,42.424,0,0,1,23.76.51l2.61-3.48a33.016,33.016,0,0,0-8.7-5.52v-3.63h8.76V-15.6H17.67v-2.67h9.36v-3.57H17.67v-2.61H13.68v2.61ZM13.74-4.53c0,1.23-.21,2.52-3,2.52-1.38,0-3.45-.33-3.45-2.13,0-1.86,2.19-2.37,3.72-2.37A7.89,7.89,0,0,1,13.74-6Zm32.1-17.01H31.83v3.69H45.9l.03,1.98a5.06,5.06,0,0,0-2.61-.6c-3.06,0-6.45,1.77-6.45,6.54a5.814,5.814,0,0,0,5.91,5.79,4.589,4.589,0,0,0,3.39-.96c-.72,1.71-1.77,3.33-9.54,3.42l1.05,3.66c5.01-.39,6.87-.96,8.43-1.8,3.84-2.07,4.23-6.51,4.23-8.25a12.934,12.934,0,0,0-.42-3.18v-6.6H58.2v-3.69H49.92v-3.03H45.81Zm.3,11.55A2.511,2.511,0,0,1,43.5-7.38a2.7,2.7,0,0,1-2.85-2.82,2.867,2.867,0,0,1,2.97-3,2.274,2.274,0,0,1,2.52,2.49Zm13.17-1.83a18.925,18.925,0,0,0-1.95-4.74l-2.37.78a21.756,21.756,0,0,1,1.83,4.86Zm-4.11.84a18.523,18.523,0,0,0-1.8-4.86L51-15a20.093,20.093,0,0,1,1.65,4.83Zm8.4-13.35a72.1,72.1,0,0,0-1.05,12.69,81.7,81.7,0,0,0,.9,12.96L67.47.84a63.519,63.519,0,0,1-1.02-12.21,57.915,57.915,0,0,1,1.23-12.57Zm5.85,4.92v3.75h8.67l.12,6.03a9.825,9.825,0,0,0-2.4-.24c-4.47,0-6.87,2.79-6.87,5.7,0,1.59.9,5.49,6.93,5.49,5.97,0,6.06-3.78,6.09-5.43A23.884,23.884,0,0,1,85.71-.66l2.55-3.45a24.638,24.638,0,0,0-6.12-4.32l-.09-7.23h5.37v-3.75H81.99v-4.86H78.06v4.86ZM78.3-4.74c0,1.2-.03,2.73-2.55,2.73-2.85,0-3.18-1.56-3.18-2.19,0-1.29,1.23-2.37,3.36-2.37a5.571,5.571,0,0,1,2.37.51ZM99.78-21.15H92.85v3.69h6.93v4.02c-7.14,2.76-7.59,6.99-7.59,8.52,0,2.19,1.71,5.85,6.63,5.85,4.77,0,4.77-2.79,4.77-3.9v-7.89a15.458,15.458,0,0,1,3.96-.45c1.26,0,6.03,0,6.03,4.44,0,4.95-5.46,4.92-8.97,4.92l.81,3.51c6.12.09,12.18-1.5,12.18-8.19a7.98,7.98,0,0,0-2.61-6.09c-.9-.75-2.76-2.07-7.08-2.07a21.862,21.862,0,0,0-4.32.42v-3.09h6.54v-3.69h-6.54v-3.18H99.78Zm0,17.28c0,.6,0,1.14-1.32,1.14a2.355,2.355,0,0,1-2.52-2.34c0-2.67,2.76-4.17,3.84-4.74Zm9.6-18.57a22.309,22.309,0,0,1,6.06,7.83l3.54-1.98a22.092,22.092,0,0,0-6.63-8.1ZM133.05.33c0,1.86,1.44,2.13,2.88,2.13h10.71c2.28,0,2.61-2.52,2.79-5.01l-2.64-.69v-9.21H123.06V-.51h3.6V-2.34h6.39Zm10.08-6.78v1.59h-6.51V-6.45Zm-10.08,0v1.59h-6.39V-6.45Zm0-3.57v1.5h-6.27v-1.5Zm10.08,0v1.5h-6.51v-1.5Zm-6.51,7.68h9.15c-.21,1.59-.39,1.68-1.2,1.68h-7.29c-.6,0-.66-.21-.66-.72ZM122.94-21.99H133.2v1.11H121.56v6.42h3.63v-4.05h8.01v5.46h3.36v-5.46h8.13v4.05h3.75v-6.42H136.56v-1.11h10.56v-2.7H122.94Zm3.57,8.58h5.64v-1.56h-5.64Zm11.31,0h5.73v-1.56h-5.73Zm-11.31-2.55h5.64v-1.47h-5.64Zm11.31,0h5.73v-1.47h-5.73Zm31.41-1.77h-6.48v3.48h6.48v3.66h-5.31V2.76h3.6V1.29h7.02V2.76h3.54V-10.59h-5.16v-3.66h6.33v-3.48h-6.33v-3.69a30.427,30.427,0,0,0,5.61-1.02l-1.41-3.33c-3.99,1.26-11.91,1.68-14.64,1.65l.69,3.45c1.86,0,4.08-.18,6.06-.36Zm5.31,10.47V-2.1h-7.02V-7.26ZM151.68-21.93h9.78v-2.94h-9.78Zm-.93,4.47h11.73v-3H150.75Zm.93,20.22h3.48V1.62h6.3V-7.02h-9.78Zm6.51-6.99v2.94h-3.03V-4.23Zm-6.51-8.88h9.78v-2.91h-9.78Zm0,4.53h9.78v-2.97h-9.78Zm38.25-16.11a23.192,23.192,0,0,1-.42,2.7h-6.69v3.69h5.67a24.935,24.935,0,0,1-6.6,10.08l2.85,2.94c.51-.51,1.35-1.29,3.87-5.16,2.97-3,5.07-3,5.43-3a2.3,2.3,0,0,1,2.19,1.32c-2.37,1.2-7.89,3.87-7.89,7.98a5.118,5.118,0,0,0,3.3,4.68c1.74.69,4.02.96,8.4.96,2.22,0,4.95-.09,6-.12V-2.49c-2.43.24-5.1.36-7.56.36-3,0-5.88,0-5.88-2.34,0-1.92,2.64-3.21,4.23-4.02a31.692,31.692,0,0,1-.06,3.78h3.93c.03-.96.03-1.44.03-2.31,0-.99-.03-2.04-.12-3.03a42.507,42.507,0,0,1,7.17-2.01l-.9-3.96a55.637,55.637,0,0,0-7.08,2.37,4.992,4.992,0,0,0-4.74-3.18,8.341,8.341,0,0,0-3.45.87,14.71,14.71,0,0,0,.99-2.34h12.9v-3.69H193.68c.27-1.14.36-1.62.48-2.4Z" transform="translate(535 966)" fill="#f29600"/>
  </g>
</svg>
