<svg xmlns="http://www.w3.org/2000/svg" xmlns:xlink="http://www.w3.org/1999/xlink" width="358" height="174.622" viewBox="0 0 358 174.622">
  <defs>
    <filter id="パス_2767" x="0" y="36.622" width="358" height="138" filterUnits="userSpaceOnUse">
      <feOffset dy="3" input="SourceAlpha"/>
      <feGaussianBlur stdDeviation="3" result="blur"/>
      <feFlood flood-opacity="0.161"/>
      <feComposite operator="in" in2="blur"/>
      <feComposite in="SourceGraphic"/>
    </filter>
  </defs>
  <g id="グループ_250" data-name="グループ 250" transform="translate(-831 -937.378)">
    <path id="パス_2768" data-name="パス 2768" d="M1.56-8.19C1.56-2.61,2.79.24,11.82.24c4.59,0,9.39-.81,9.39-6.99,0-4.29-2.61-5.25-3.54-5.58.99-.33,3.18-1.08,3.18-5.04,0-5.61-4.56-6.51-8.85-6.51-6.69,0-9.75,1.11-9.93,7.74H6.24c.15-2.64.21-3.96,5.79-3.96,3.87,0,4.65,1.23,4.65,3.27,0,2.97-2.16,2.97-3.78,2.97H9.24v3.39h3.69c2.97,0,4.11.9,4.11,3.45,0,1.83-.6,3.48-5.04,3.48-6.09,0-6.27-1.41-6.24-4.65Zm26.76-3.39h5.07C33-6.39,30.36-3.33,23.94-.75L26.16,2.7C31.26.54,36.33-3.03,37.17-11.58h6.21c-.21,4.89-.3,7.62-.96,9.42a1.554,1.554,0,0,1-1.65,1.11H36.3l.72,3.75h4.89A3.676,3.676,0,0,0,45.72.45c1.02-2.37,1.53-9.84,1.44-14.58a15.675,15.675,0,0,0,2.7,2.25l2.46-3.18a22.99,22.99,0,0,1-8.4-10.56l-3.69.99a31.613,31.613,0,0,0,5.97,9.48H29.73a26.582,26.582,0,0,0,5.82-9.69l-3.69-.75A20.784,20.784,0,0,1,23.22-15l2.46,3.3a24.783,24.783,0,0,0,2.64-2.04Zm48.75-.03a23.473,23.473,0,0,0-2.76-4.38l-2.34,1.23a35.062,35.062,0,0,1,2.7,4.5ZM81-13.68a21.747,21.747,0,0,0-2.73-4.05L75.9-16.5a28.557,28.557,0,0,1,2.76,4.26Zm-.39-9.66c-3.06.12-16.8.63-19.38.78-2.22.12-4.62.27-6.63.27l.15,4.2c1.89-.18,11.16-.96,13.26-1.14-7.14,4.56-7.68,9.54-7.68,11.49A8.178,8.178,0,0,0,64.98-.6C67.74.75,70.8,1.38,77.37,1.41l.57-4.29c-12.48.42-13.47-3.09-13.47-5.4,0-3.75,3.27-6.9,4.98-8.22a12.8,12.8,0,0,1,7.53-2.88c1.11-.03,3.06.03,3.75.03ZM84.84,2.7h3.51V-10.26h8.4V-18.9h-9.6a23.243,23.243,0,0,0,1.98-2.28h.66a9.486,9.486,0,0,1,.81,2.25l3.48-.9a11.118,11.118,0,0,0-.72-1.35H96.9c-.15.15-.21.21-.51.48l2.58,1.8h-.15v8.64h8.34v8.64c0,.6-.21.81-.96.81h-1.47V-9H90.78V.84h12.75l.33,1.86h4.23c2.61,0,2.61-1.86,2.61-3.03V-18.9H99.57a14.97,14.97,0,0,0,1.89-2.28h1.26a8.357,8.357,0,0,1,.99,2.22l3.51-.96c-.21-.42-.39-.69-.72-1.26h5.28v-2.97h-8.7a10.376,10.376,0,0,0,.39-1.14l-3.6-.51a11,11,0,0,1-2.61,4.26v-2.61H90.9a8.3,8.3,0,0,0,.42-1.14l-3.69-.45a13.487,13.487,0,0,1-4.41,5.46l1.62,1.74Zm16.59-9.33v1.44H94.08V-6.63Zm0,3.39v1.59H94.08V-3.24ZM93.45-16.8v1.26h-5.1V-16.8Zm0,3.09v1.29h-5.1v-1.29ZM107.1-16.8v1.23h-4.98V-16.8Zm0,3.12v1.26h-4.98v-1.26Zm8.31-6.75V-7.11h10.53v2.07H113.52v3.45h12.42V2.82h3.6V-1.59h12.42V-5.04H129.54V-7.11h10.44V-20.43H137.1a34.674,34.674,0,0,0,2.28-4.14l-3.96-1.05a36.865,36.865,0,0,1-2.4,5.19h-4.98l2.25-.54a24.543,24.543,0,0,0-2.37-4.83l-3.66.96a28.549,28.549,0,0,1,2.16,4.41h-5.67l1.56-.54a15.187,15.187,0,0,0-2.58-4.56l-3.6,1.23a15.26,15.26,0,0,1,2.16,3.87Zm10.53,3.15v2.16h-6.93v-2.16Zm0,4.77v2.19h-6.93v-2.19Zm10.47-4.77v2.16h-6.87v-2.16Zm0,4.77v2.19h-6.87v-2.19Zm11.58-8.25h7.89a19.8,19.8,0,0,1-3.15,11.25,21.143,21.143,0,0,1-9.51,8.55l2.52,3.63A24.5,24.5,0,0,0,157.68-12c1.95,6.09,5.4,10.74,12,14.67l2.58-3.75c-10.23-5.28-12.69-13.02-12.48-23.49H147.99Zm27.69,23.4c5.91-3.42,11.16-8.52,12.15-18.54h9.3c-.09,2.76-.3,9.84-1.02,12.84-.39,1.68-1.14,1.8-2.16,1.8h-4.41l.66,3.96h4.65c1.65,0,3.96-.24,4.89-3.21,1.2-3.78,1.41-14.52,1.47-19.2H188.1c0-1.29.03-1.8.03-2.49v-3.36h-3.96v3.27c0,.96,0,1.62-.06,2.58h-9.9v3.81h9.63c-.63,5.46-2.43,10.47-10.44,14.94Zm39.93-26.28.54,16.83h3.24l.54-16.83Zm.09,19.41V0h4.14V-4.23Z" transform="translate(901.5 966)" fill="#f29600"/>
    <g transform="matrix(1, 0, 0, 1, 831, 937.38)" filter="url(#パス_2767)">
      <path id="パス_2767-2" data-name="パス 2767" d="M10,0H330a10,10,0,0,1,10,10V110a10,10,0,0,1-10,10H10A10,10,0,0,1,0,110V10A10,10,0,0,1,10,0Z" transform="translate(9 42.62)" fill="#fff"/>
    </g>
    <g id="グループ_132" data-name="グループ 132" transform="translate(0 22.506)">
      <path id="パス_2766" data-name="パス 2766" d="M-113.675-9.5A22.357,22.357,0,0,1-121-3.05c-1.9,1.075-2.225,1.275-2.225,2.2a2.58,2.58,0,0,0,2.3,2.475,4.782,4.782,0,0,0,2.4-.925A32.123,32.123,0,0,0-110.3-6.775c1.075.975,1.125,1.05,3.5,3.525a2.414,2.414,0,0,0,1.75.825,2.732,2.732,0,0,0,2.525-2.725,2.163,2.163,0,0,0-.775-1.6,39.271,39.271,0,0,0-4.325-3.95,37.387,37.387,0,0,0,2.75-6,6.093,6.093,0,0,0,.525-2.125c0-1.425-1.725-1.925-2.625-1.925-1.3,0-1.675.775-2.025,1.8a31.882,31.882,0,0,1-2.25,5.6c-1.6-1.1-3.275-2.225-5.125-3.325A4.257,4.257,0,0,0-118.5-17.5a2.369,2.369,0,0,0-2.175,2.3c0,.9.55,1.35,1.475,1.9C-117.525-12.275-114.9-10.425-113.675-9.5ZM-78.8-7.225c.95,0,2.425-.125,2.425-2.275A2.066,2.066,0,0,0-78.8-11.775H-96.2c-1.025,0-2.425.175-2.425,2.3A2.059,2.059,0,0,0-96.2-7.225Zm12.425-10.9c0-1.475-.85-1.975-2.225-1.975-1.875,0-2.175,1.025-2.175,1.975v5c0,5.975-.15,7.5-2.5,10.35a2.314,2.314,0,0,0-.775,1.65A2.57,2.57,0,0,0-71.475,1.25c.45,0,1.225-.05,2.5-1.85,2.6-3.65,2.6-8.075,2.6-12.325ZM-63.95-1.35A2.161,2.161,0,0,0-61.6,1.125c1.975,0,6.025-1.475,8.625-5.35A12.663,12.663,0,0,0-50.9-9.45c0-1.7-2-1.925-2.45-1.925a1.737,1.737,0,0,0-1.775,1.4,14.329,14.329,0,0,1-1.2,2.825c-1.325,2.325-2.85,2.875-3.025,2.875-.225,0-.225-.225-.225-.525V-18.4c0-1.5-.825-1.975-2.225-1.975-1.825,0-2.15.975-2.15,1.975Zm25.725-13.8a12.816,12.816,0,0,0-3.175,2.7A9.364,9.364,0,0,0-43.775-6.3a6.5,6.5,0,0,0,4.1,6.35A18.653,18.653,0,0,0-32.45,1.3c1.825,0,3.875,0,3.875-2.6A1.83,1.83,0,0,0-30.55-3.375h-2.3c-3.425,0-6.4-.35-6.4-3.4,0-4,5.025-8.425,10.025-8.5,1.4-.025,2.9-.05,2.9-2.275,0-2.075-1.55-2.075-2.925-2.075-6.5,0-16.85.425-17.65.525a1.988,1.988,0,0,0-1.875,2.3,2,2,0,0,0,2.025,2.275c.425,0,2.6-.175,3.075-.2C-41.625-14.85-39.375-15.05-38.225-15.15Zm5.425,4.2c.675,1.55.75,1.7,1.275,1.7.3,0,1.025-.175,1.025-.85a6.452,6.452,0,0,0-.75-2.05c-.5-1-.825-1.275-1.225-1.275S-33.5-13.1-33.5-12.6a1.447,1.447,0,0,0,.075.425C-33.375-11.975-32.9-11.15-32.8-10.95Zm2.575-1.175c.7,1.575.75,1.7,1.275,1.7.425,0,1.025-.275,1.025-.85A6.368,6.368,0,0,0-28.65-13.3c-.5-.975-.8-1.3-1.225-1.3-.4,0-1.05.325-1.05.825a1.447,1.447,0,0,0,.075.425C-30.8-13.175-30.325-12.325-30.225-12.125Zm17.575-1.9a11.433,11.433,0,0,0,2.575-.225c.275-.075,1.125-.425,1.125-1.85a1.817,1.817,0,0,0-2.125-2q-.525,0-1.575.075V-18.7c0-.95-.075-2.2-2.075-2.2-2.025,0-2.1,1.225-2.1,2.2v.875c-1.275.05-1.475.025-4,.05-.9,0-2.4.025-2.4,2,0,2,1.525,2,2.2,2,.5,0,.875,0,4.2-.075v2.25c-1.65.625-6.575,2.5-6.575,7.5a5.418,5.418,0,0,0,5.8,5.575c2.275,0,3.3-.825,3.95-1.775,1-1.425,1-2.925,1-4.575V-8.7a8.35,8.35,0,0,1,1.625-.15c3.025,0,4.875.8,4.875,3.375A3.134,3.134,0,0,1-7-3.275c-.85.925-2.375.95-3.25.975-.85,0-2.3.025-2.3,1.8,0,2.075,1.775,2.075,2.45,2.075,5.125,0,8.575-2.65,8.575-7.2,0-6-5.8-7-9.1-7a17.21,17.21,0,0,0-2.025.125Zm-4.1,8.975c0,1.3-.2,2.475-1.225,2.475-.775,0-1.4-.675-1.4-1.75,0-2.05,1.925-2.975,2.625-3.3ZM-8.6-19.425a1.8,1.8,0,0,0-.6,1.3,1.855,1.855,0,0,0,.9,1.5A12.654,12.654,0,0,1-5.15-13.4c.45.6.875,1.175,1.725,1.175A2.287,2.287,0,0,0-1.1-14.4c0-.875-.55-1.85-2.525-3.675-.3-.275-2.2-2-3.425-2A2.388,2.388,0,0,0-8.6-19.425ZM10.55.1h4.725c0,2.3,1.65,2.3,3.425,2.3a24.3,24.3,0,0,0,3.325-.15A2.572,2.572,0,0,0,23.7-.475V-17.65c0-2.425-1.125-3.1-3.1-3.1H16.1c-1.975,0-3.125.675-3.125,3.1v4.55c0,2.425,1.15,3.125,3.125,3.125h3.5v7.25c0,.45,0,.8-.525.8-.175,0-1.2-.05-1.425-.05.025-.3.025-.4.025-1.2V-5.75c0-2.8-.5-3.275-3.275-3.275H10.55c-2.775,0-3.25.5-3.25,3.275v2.575C7.3-.375,7.775.1,10.55.1ZM16.9-16.45v-.6a.357.357,0,0,1,.4-.4h1.9a.368.368,0,0,1,.4.4v.6Zm.4,3.55a.368.368,0,0,1-.4-.4v-.6h2.7v1ZM13.875-3.825a.35.35,0,0,1-.375.4H11.475a.357.357,0,0,1-.4-.4v-1.45a.368.368,0,0,1,.4-.4H13.5a.361.361,0,0,1,.375.4Zm-8.55-6.15H8.85c1.975,0,3.125-.675,3.125-3.125v-4.55c0-2.425-1.15-3.1-3.125-3.1H4.375c-1.975,0-3.125.675-3.125,3.1V.425c0,1.15.4,2.05,2.15,2.05A1.793,1.793,0,0,0,5.325.425Zm0-6.475v-.6a.357.357,0,0,1,.4-.4h1.9a.368.368,0,0,1,.4.4v.6Zm0,2.55h2.7v.6a.357.357,0,0,1-.4.4h-2.3ZM29.25-19.825c-1.075,0-1.975.1-2.35,1.475a39.633,39.633,0,0,0-.35,5.9,35.98,35.98,0,0,0,.675,7.75c.25,1.125,1.45,5.8,5.425,5.8,4.575,0,6.5-5.75,6.5-7.45a2.122,2.122,0,0,0-2.375-2c-1.275,0-1.475.625-1.925,2.05-.45,1.375-1.025,2.325-2.025,2.325a1.139,1.139,0,0,1-.975-.6c-1-1.575-1-5.725-1-6.625,0-1.325.075-2.7.125-3.625.025-.425.275-2.525.275-2.975A1.815,1.815,0,0,0,29.25-19.825ZM46.4-.65c2.125,0,2.275-1.625,2.275-2.625,0-3.925-.35-9.5-2-12.175a7.108,7.108,0,0,0-5.925-3.2,2.013,2.013,0,0,0-1.65.6,2.382,2.382,0,0,0-.575,1.6c0,1.85,1.1,1.975,1.725,2.05a4.041,4.041,0,0,1,1.625.45C44-12.7,44.025-7.7,44-3.25,44-2.225,44-.65,46.4-.65Zm20.55-9.9c1.65,0,1.925-.85,1.975-1.7,2,1.275,2.775,1.525,3.55,1.525a2.284,2.284,0,0,0,2.05-2.45,2.039,2.039,0,0,0-1.425-2.05,24.729,24.729,0,0,1-6.925-4.55c-1.525-1.35-2.075-1.85-3.675-1.85-1.65,0-2.275.55-3.65,1.8a25.142,25.142,0,0,1-7.15,4.7A1.967,1.967,0,0,0,50.475-13.2a2.318,2.318,0,0,0,2.1,2.475A7.909,7.909,0,0,0,56-12.225c.075,1,.5,1.675,2,1.675Zm-7.925-3.775a24.762,24.762,0,0,0,2.7-2.25c.4-.375.55-.525.775-.525s.375.15.775.525a26.25,26.25,0,0,0,2.7,2.25ZM72.5-5.875c0-2.75-1.325-3.475-3.45-3.475H56.075c-2.15,0-3.475.725-3.475,3.475V-1.35c0,2.75,1.325,3.475,3.475,3.475H69.05c2.125,0,3.45-.725,3.45-3.475ZM68.175-2.4a.618.618,0,0,1-.675.675H57.625a.633.633,0,0,1-.7-.7v-2.4a.632.632,0,0,1,.7-.7H67.5a.63.63,0,0,1,.675.675Zm13.2-9.8a30,30,0,0,1-3.95,4.9c-1.25,1.325-1.55,1.625-1.55,2.475a2.421,2.421,0,0,0,2.3,2.225c1.05,0,1.475-.65,3.1-3.2,0,.775-.05,5.45-.025,5.8.1,1.3,1.1,1.75,2.2,1.75,2.125,0,2.125-1.7,2.125-2.525,0-.425-.05-2.5-.05-2.975,0-2.15,0-5.5.05-7.5a7.294,7.294,0,0,1,4.75-2.025,4.774,4.774,0,0,1,2.425.6c1.325.825,1.675,2.65,1.675,3.9,0,4.2-3.15,5.375-5.25,5.5-1.85.1-3,.15-3,1.95A2.08,2.08,0,0,0,88.55.95,13.775,13.775,0,0,0,90.5.75a10.606,10.606,0,0,0,5.15-2.025C98.575-3.525,98.8-8.05,98.8-9.4c0-6.35-4.55-7.925-7.725-7.925a9.012,9.012,0,0,0-5.3,1.675c.05-.625.175-2.55.175-3.1,0-1.475-.85-2.05-2.225-2.05-1.025,0-2.075.375-2.2,1.725-.05.5-.075,1.6-.1,2.1L78.6-16.85c-.825.025-2.225.275-2.225,2.05a2.016,2.016,0,0,0,2.45,2.075l2.55-.15Zm27.55.7c4.025-.1,4.475-.125,6.825-.175V-10.4c0,.75,0,1.8-.975,1.8a2.778,2.778,0,0,1-1.15-.3,3.216,3.216,0,0,0-1.225-.25,1.814,1.814,0,0,0-1.775,2c0,2.325,4,2.625,4.675,2.625,4.65,0,4.75-2.3,4.85-7.25a9.511,9.511,0,0,0,2.9-.225c1.075-.3,1.125-1.5,1.125-1.9a1.772,1.772,0,0,0-1.2-1.925,13.355,13.355,0,0,0-2.85-.05,27.329,27.329,0,0,0-.15-3.4c-.225-1.4-1.25-1.55-2.2-1.55a1.927,1.927,0,0,0-2.15,2.2c0,.85.05,2,.1,2.85-3.325.075-3.675.1-6.75.175L109-18.125c.025-1.5-.55-2.275-2.2-2.275-1.9,0-2.125,1.175-2.125,2.275v2.65a10.024,10.024,0,0,0-2.7.225,1.749,1.749,0,0,0-1.125,1.875,1.9,1.9,0,0,0,2.175,2.075c.05,0,1.525-.05,1.625-.075l.025,4.95c0,.525,0,.7.125,2.4.35,4.725,4.525,5.25,9.425,5.25A32.8,32.8,0,0,0,120.25.75,1.885,1.885,0,0,0,121.8-1.3a1.869,1.869,0,0,0-1.925-2.05,13.483,13.483,0,0,0-1.975.175,34.633,34.633,0,0,1-4.55.3c-4.375,0-4.5-.9-4.475-3.925Z" transform="translate(1040 1009)" fill="#002063"/>
      <g id="グループ_128" data-name="グループ 128" transform="translate(380 47)">
        <path id="パス_2763" data-name="パス 2763" d="M-25.352-4.3c0,3.072.928,4.432,5.456,4.432,1.968,0,4.976-.192,4.976-3.712a2.779,2.779,0,0,0-1.952-2.992c.384-.112,1.792-.5,1.792-2.736,0-3.424-3.264-3.424-4.752-3.424-3.264,0-5.152.464-5.264,4.032h1.92c.016-1.232.032-2.3,3.44-2.3,1.9,0,2.752.48,2.752,1.92,0,1.808-1.488,1.808-2.288,1.808h-1.984v1.552h1.984c2.352,0,2.448,1.2,2.448,2.064,0,1.712-1.024,2.064-3.3,2.064-3.36,0-3.344-1.12-3.328-2.7ZM-3.064-9.12c.032-3.616-3.232-3.616-4.688-3.616-3.376,0-5.376.56-5.376,6.432,0,4.736.944,6.432,5.168,6.432,3.584,0,5.088-1.184,5.088-4.176,0-3.328-2.512-3.968-4.672-3.968a4.492,4.492,0,0,0-3.648,1.344,8.042,8.042,0,0,1,.352-2.96c.3-.816.864-1.392,3.056-1.392,2.864,0,2.848,1.12,2.832,1.9ZM-7.88-6.336c2.592,0,3.1.912,3.1,2.3,0,1.6-.4,2.416-3.136,2.416-1.568,0-3.232-.208-3.232-2.272C-11.144-5.264-10.728-6.336-7.88-6.336Zm7.36-6.272L-.68-5.536H1.1c.224-.56.64-1.232,3.232-1.232,2.992,0,3.088,1.264,3.088,2.752C7.416-2.064,6.5-1.6,4.072-1.6.888-1.6.888-2.736.872-3.92h-1.9C-.968-.848.488.128,4.136.128,8.264.128,9.32-1.3,9.32-4.272c0-3.5-2.08-4.192-4.608-4.192-2.4,0-3.168.64-3.568.976l.112-3.392H8.824v-1.728ZM12.344,1.344H14.1V.512h8.144v.832h1.776V-12.864H12.344Zm9.9-8.416H14.1v-4.144h8.144Zm0,5.936H14.1v-4.3h8.144Z" transform="translate(536 1001)" fill="#002063"/>
        <path id="パス_2764" data-name="パス 2764" d="M-20.32-4.976a5.239,5.239,0,0,0,2.032-.768A3.156,3.156,0,0,0-16.9-8.784c0-3.648-2.688-3.952-5.1-3.952-4.224,0-5.008,1.632-5.04,4.352h1.888c.016-2,.592-2.624,3.264-2.624,2.368,0,3.1.672,3.1,2.224,0,1.568-.688,1.952-2.1,2.16l-3.136.464c-3.072.448-3.232,2.784-3.232,4.768V0h10.3V-1.728h-8.4V-2.08c0-2,.88-2.24,1.984-2.416Zm11.36-7.632-6.656,7.776v2.08h7.392V0h1.888V-2.752h2.112V-4.48H-6.336v-8.128Zm.736,8.128h-5.488l5.488-6.5ZM-2.992.432h1.536V-.8H2V-12.96H-2.992ZM.48-11.344v3.6H-1.456v-3.6Zm0,5.1v3.872H-1.456V-6.24Zm10.672-6h-3.3V-13.6H6.24v1.36H3.056V-10.7H6.24v1.856H2.5V-7.3H8.368v1.584H2.624v1.536H8.368V-.512c0,.24-.24.256-.352.256H5.632l.32,1.632H8.528c1.488,0,1.488-1.168,1.488-1.632v-3.92h1.5V-5.712h-1.5V-7.3h1.632V-8.848H7.856V-10.7h3.3ZM2.8-2.976a13.145,13.145,0,0,1,2.064,2.7L6.256-1.328A10.879,10.879,0,0,0,4.1-3.9Zm22.656,2.4c0,.32-.176.384-.368.384H23.28l.256,1.6h2.448c1.072,0,1.072-1.056,1.072-1.5V-12.944H20.72V-7.1h4.736Zm0-11.056v1.056H22.272v-1.056Zm0,2.144v1.056H22.272V-9.488Zm-12.24,10.9H14.8V-7.1h4.5v-5.84h-6.08Zm4.528-13.04v1.056H14.8v-1.056Zm0,2.144v1.056H14.8V-9.488ZM16.4-6.192V-.256h7.424V-6.192Zm5.9,1.3v1.1H17.9V-4.9Zm0,2.176v1.152H17.9V-2.72Z" transform="translate(600 1001)" fill="#002063"/>
        <path id="パス_2765" data-name="パス 2765" d="M-42.992-12.32c-1.024,0-6.08.016-7.216.016-.8,0-2.784,0-3.264-.016v1.808c1.024-.064,2.4-.1,5.7-.144a9.864,9.864,0,0,0-1.664.928l1.152,1.136a14.009,14.009,0,0,1,5.3-2.16Zm-9.232,5.04C-53.392-5.968-54.1-4.96-54.1-3.488A3.479,3.479,0,0,0-52.144-.48c1.36.656,2.72.8,5.872.8A27.89,27.89,0,0,0-42.112.1L-42.176-1.7a32.788,32.788,0,0,1-4.688.288c-2.4,0-5.472-.032-5.472-2.112a3.918,3.918,0,0,1,1.408-2.8Zm9.12.448a13.058,13.058,0,0,0-1.52-2.352l-1.088.656A14.023,14.023,0,0,1-44.224-6.16Zm1.968-.96a10.834,10.834,0,0,0-1.5-2.256l-1.12.656a13.989,13.989,0,0,1,1.5,2.272Zm8.416-5.248V1.488h1.584V.64h4.608v.848h1.616V-13.04Zm6.192,5.52v2.464h-4.608V-7.52Zm0-3.968V-9.04h-4.608v-2.448Zm0,7.968V-.928h-4.608V-3.52Zm-12.64,1.632a14.384,14.384,0,0,0,2.224-4.448V1.488h1.552V-5.68a12.555,12.555,0,0,0,1.408,2.128l.912-1.5a11.424,11.424,0,0,1-2.32-2.9V-9.04h2.048v-1.6h-2.048v-2.928h-1.552v2.928h-2.544v1.6h2.32A15.006,15.006,0,0,1-39.76-3.9Zm25.36-10.88A5.823,5.823,0,0,1-15.04-9.232a6.421,6.421,0,0,1-2.608,1.776l.88,1.52a7.424,7.424,0,0,0,3.808-3.92A8.078,8.078,0,0,0-9.04-5.9l.848-1.536a5.763,5.763,0,0,1-4.016-5.424v-.72h-1.6Zm-9.216,5.632h5.12V-8.56h-5.12Zm9.216,1.424a6.635,6.635,0,0,1-1.3,3.92A5.817,5.817,0,0,1-17.824-.08l.9,1.5a7.364,7.364,0,0,0,4-4.016c.464,1.28,1.216,2.688,4,4.016L-8.16-.192a5.539,5.539,0,0,1-4.1-5.616v-.928h-1.552ZM-17.9-13.2h-5.12v1.456h5.12Zm.768.768a10.392,10.392,0,0,1,.56,2.912l1.616-.464a12.353,12.353,0,0,0-.7-2.88ZM-23.024,1.424H-21.6V.8h3.7V-3.76h-5.12Zm3.7-3.808V-.592H-21.6V-2.384Zm-3.7-2.336h5.12V-6.176h-5.12Zm5.648-.528a11.944,11.944,0,0,1,.928,3.072l1.584-.448A14.047,14.047,0,0,0-15.9-5.712ZM-23.52-9.424h6.144V-10.88H-23.52Zm13.28-3.5a10.42,10.42,0,0,1-1.072,2.816l1.424.56a12.6,12.6,0,0,0,1.136-2.88Zm.224,7.152a12.088,12.088,0,0,1-1.168,2.992l1.36.64A13.6,13.6,0,0,0-8.512-5.36Zm2.816-3.3v4.1h1.68V-7.552H5.472v2.576h1.68v-4.1H4.784A25.57,25.57,0,0,0,5.92-11.424l-1.312-.4c1.024-.144,1.728-.288,2.448-.432l-.88-1.392a50.484,50.484,0,0,1-10.352.96c-1.248,0-2.048-.032-2.912-.064l.32,1.456c.448.016,1.056.016,1.744.032l-.768.288c.256.5.7,1.424.912,1.9Zm4,0c-.288-.736-.592-1.472-.928-2.192,1.136,0,2.112-.016,2.672-.032A15.274,15.274,0,0,1-.64-9.072Zm4.24,0a18.059,18.059,0,0,0-.7-2.32c2.512-.192,2.784-.224,3.76-.352A14.587,14.587,0,0,1,2.96-9.072ZM-4.336-4.1A9.715,9.715,0,0,0-1.7-1.344a24.665,24.665,0,0,1-5.84,1.1l.7,1.648A24.072,24.072,0,0,0,.032-.336,20.775,20.775,0,0,0,6.96,1.488L7.6-.256A22.985,22.985,0,0,1,1.808-1.344,10.028,10.028,0,0,0,4.944-4.832v-1.52H-5.04v1.52H2.928A10.505,10.505,0,0,1,0-2.16,9.239,9.239,0,0,1-2.848-4.592ZM10.32,1.392h1.632V-9.92a20.785,20.785,0,0,0,1.216-3.488l-1.712-.256A14.884,14.884,0,0,1,8.24-7.088l.736,1.872A11.428,11.428,0,0,0,10.32-6.9Zm3.1-7.936a25.013,25.013,0,0,1,2.688,3.9l1.472-.992a27.645,27.645,0,0,0-2.752-3.84Zm6.592-3.68H12.832v1.648h7.184V-.72c0,.192-.032.464-.416.464L16.64-.3l.224,1.7h2.96c1.376,0,1.9-.544,1.9-1.7V-8.576h1.808v-1.648H21.728v-3.392H20.016Zm11.12-3.36v2.752H25.2v8.3h1.664v-.9h4.272V1.424h1.68V-3.424H37.2v.9h1.7v-8.3h-6.08v-2.752ZM37.2-9.168v4.08H32.816v-4.08Zm-6.064,0v4.08H26.864v-4.08Zm15.872-3.44.224,9.056h1.52l.24-9.056Zm0,10.576V0h1.984V-2.032Z" transform="translate(694 1001)" fill="#002063"/>
      </g>
      <g id="icon_005800" transform="translate(860 917.09)">
        <path id="パス_2103" data-name="パス 2103" d="M20.846,88.536A4.17,4.17,0,0,0,23.818,87.3L41.2,69.926A2.455,2.455,0,0,0,38.781,67.9H2.91A2.455,2.455,0,0,0,.492,69.926L17.868,87.3A4.182,4.182,0,0,0,20.846,88.536Z" transform="translate(-0.453)" fill="#002063"/>
        <path id="パス_2104" data-name="パス 2104" d="M40.795,145.187l-.009.009v-.018L25.454,160.509a7.154,7.154,0,0,1-10.123,0l-8.99-8.988L.013,145.183v.013L0,145.183v21.356A2.458,2.458,0,0,0,2.457,169H38.329a2.458,2.458,0,0,0,2.457-2.457V154.033Z" transform="translate(0 -71.123)" fill="#002063"/>
      </g>
    </g>
    <path id="パス_2112" data-name="パス 2112" d="M0,0,37.549,2.771,0,5.115Z" transform="translate(872.02 937.378) rotate(60)" fill="#f29600"/>
    <path id="パス_2113" data-name="パス 2113" d="M0,5.115,37.549,2.345,0,0Z" transform="translate(1157.705 939.936) rotate(120)" fill="#f29600"/>
  </g>
</svg>
