<svg xmlns="http://www.w3.org/2000/svg" xmlns:xlink="http://www.w3.org/1999/xlink" width="698.832" height="76.824" viewBox="0 0 698.832 76.824">
  <defs>
    <filter id="パス_2864" x="0" y="0" width="698.832" height="76.824" filterUnits="userSpaceOnUse">
      <feOffset dy="3" input="SourceAlpha"/>
      <feGaussianBlur stdDeviation="3" result="blur"/>
      <feFlood flood-opacity="0.161"/>
      <feComposite operator="in" in2="blur"/>
      <feComposite in="SourceGraphic"/>
    </filter>
  </defs>
  <g transform="matrix(1, 0, 0, 1, 0, 0)" filter="url(#パス_2864)">
    <path id="パス_2864-2" data-name="パス 2864" d="M-334.944-7.8c3.144-2.88,3.96-5.88,4.272-9.24h2.568c-.024,4.128-.48,5.544-.552,5.712a1.052,1.052,0,0,1-1.1.7h-2.376l.528,2.688h3.288c1.752,0,3.048-.672,3.048-11.784h-10.752v2.688h2.64c-.36,3.6-1.512,5.448-3.6,7.2l-.144-1.512c-.528.1-.792.12-3.072.456v-1.68h2.928v-2.3H-340.2v-1.632h3.456V-18.96H-340.2v-1.512h-2.808v1.512h-4.032v2.448h4.032v1.632h-3.432v2.3h3.432v2.064c-2.856.336-3.432.36-4.248.408l.288,2.688c3.936-.5,4.536-.6,10.056-1.56l-.072-.744Zm-2.352.048a6.83,6.83,0,0,1-.12,1.224h-9.84v2.64h8.616c-1.8,2.136-6.1,3-8.784,3.288l1.176,2.88c2.688-.456,7.8-1.68,10.224-5.112a16.383,16.383,0,0,0,10.248,5.088l1.272-2.9a15.485,15.485,0,0,1-8.784-3.24h8.544v-2.64h-9.744a10.562,10.562,0,0,0,.12-1.224Zm14.064.288c.912-.072,1.992-.144,3.672-.312v9.96h2.688V-8.064c.288-.024,1.128-.144,1.464-.192.072.288.12.5.24.984l2.5-.816a22.4,22.4,0,0,0-1.872-4.8l-2.16.744a11.3,11.3,0,0,1,.648,1.656c-.672.072-1.752.144-2.472.168a44.69,44.69,0,0,0,4.728-6.744l-2.52-1.008a36.826,36.826,0,0,1-2.328,3.912,13.079,13.079,0,0,0-.936-1.056,28.1,28.1,0,0,0,2.64-4.416l-2.448-.912a33.392,33.392,0,0,1-1.992,3.624c-.192-.12-.288-.216-.624-.456l-1.416,2.328a18.12,18.12,0,0,1,3.168,3.192c-.336.48-.816,1.128-1.248,1.68-.456.024-.888.024-1.8.024Zm.672.984a24.754,24.754,0,0,1-.888,6.216l2.3,1.128a34.179,34.179,0,0,0,.912-7.008Zm11.976-13.992a15.012,15.012,0,0,1-3.624,7.224l2.064,2.376a14.368,14.368,0,0,0,2.5-3.576h5.28a120.532,120.532,0,0,1-.528,12.84c-.192.7-.528.768-1.2.768h-4.272l.576,3.024h5.28A2.459,2.459,0,0,0-302.28.48c.7-1.752.768-6.768.96-17.736h-7.1a20.763,20.763,0,0,0,.84-2.976Zm-5.688,14.208A42.293,42.293,0,0,1-315.6-.72l2.52-.408a30.341,30.341,0,0,0-.984-5.544Zm4.344-3.888a26.517,26.517,0,0,1,2.9,5.88l2.64-1.392A20.768,20.768,0,0,0-309.36-11.4Zm16.512-9.336c0,1.656-.072,7.2-.072,10.68,0,3.456,0,5.664,1.2,7.32,1.44,1.968,3.576,2.616,6.216,2.616,5.856,0,9.048-3.432,10.1-9.336l-3.12-1.1c-.264,1.7-1.056,7.368-6.912,7.368-3.744,0-4.272-2.232-4.272-5.064,0-3.576.24-11.688.264-12.456Zm41.688.816c-2.448.1-13.44.5-15.5.624-2.28.12-4.152.216-5.3.216l.12,3.36c1.512-.144,8.928-.768,10.608-.912-5.712,3.648-6.144,7.632-6.144,9.192a6.543,6.543,0,0,0,3.72,5.712c2.208,1.08,4.656,1.584,9.912,1.608l.456-3.432c-9.984.336-10.776-2.472-10.776-4.32,0-3,2.616-5.52,3.984-6.576a10.213,10.213,0,0,1,6.024-2.3c.744-.024,2.256,0,3,.024Zm7.8-1.1c-.048,1.032-.168,2.3-.408,4.344h-4.008v3.072l3.552-.048A36.775,36.775,0,0,1-250.7-.432l3.12,1.44c.648-1.176,2.256-4.2,3.96-13.44l2.352-.024c1.488-.024,2.808.192,2.808,3.168,0,.816-.168,4.656-.912,6.336-.384.84-1.128,1.1-2.208,1.1a21.807,21.807,0,0,1-3.12-.312l.192,3.1a32.672,32.672,0,0,0,3.552.24,4.483,4.483,0,0,0,3.84-1.56c1.176-1.44,1.776-5.328,1.776-7.992,0-3.24-.552-7.056-5.208-7.056h-2.568c.24-1.392.36-2.592.528-4.152Zm17.04,13.1c-.528-6.192-2.3-8.88-3.96-10.944l-2.736,1.416c1.176,1.512,2.952,4.032,3.312,10.08Zm19.512-11.616a45.046,45.046,0,0,0-10.7-1.488l-.5,2.952a42.488,42.488,0,0,1,10.512,1.752Zm-14.112,2.376a6.85,6.85,0,0,0-.48,2.016c-.144,1.464-.24,6.312-.24,7.944l3.144.048a6.288,6.288,0,0,0,.024-.672,10.78,10.78,0,0,1,7.3-2.832c1.536,0,3.888.624,3.888,3.12,0,4.56-6.168,4.56-8.376,4.56a37.244,37.244,0,0,1-5.952-.5l.24,3.048a35.46,35.46,0,0,0,5.4.336c4.8,0,6.816-.552,8.376-1.392a6.379,6.379,0,0,0,3.6-6c0-3.336-2.28-6.024-6.5-6.024-1.632,0-5.4.432-7.92,2.3.048-3.408.216-4.44.6-5.5ZM-202.752.72h2.712V-1.056H-195V-19.512h-7.752Zm5.112-17.4v4.944h-2.4V-16.68Zm0,7.536v5.3h-2.4v-5.3Zm3.432,3.288h8.3V-1.3c0,.5-.288.5-.528.5h-3.456l.528,2.928h4.128a2.107,2.107,0,0,0,2.3-2.472v-5.52h2.04V-8.688h-2.04V-10.68h2.232v-2.808h-5.424v-2.3h4.728v-2.76h-4.728v-1.9h-2.952v1.9h-4.584v2.76h4.584v2.3h-5.352v2.808h8.52v1.992h-8.3Zm.192,1.584a20.242,20.242,0,0,1,2.88,4.2l2.592-1.608a20.809,20.809,0,0,0-3.048-4.056Zm31.464-4.992H-173.52v9.12h9.72l.384,2.328h4.1c1.584,0,1.824-1.536,1.824-2.4V-19.56h-9.744v9h6.912v9.192c0,.336-.024.7-.6.7h-1.632Zm2.232-8.088v1.368h-4.152v-1.368Zm0,3.192v1.392h-4.152V-14.16Zm-4.944,7.08v1.416h-5.568V-7.08Zm0,3.192V-2.4h-5.568V-3.888Zm-13.248,6.072h2.832V-10.56h6.624v-9h-9.456Zm6.672-19.536v1.368h-3.84v-1.368Zm0,3.192v1.392h-3.84V-14.16Zm24.744-1.272c.072-.6.432-3.48.5-4.128l-3.312-.24c-.1,1.3-.192,2.424-.432,4.368h-4.008v3.072l3.552-.048a38.4,38.4,0,0,1-3.816,12.1l3.048,1.3a52.85,52.85,0,0,0,3.984-13.416l2.28-.024c1.488-.024,2.832.192,2.832,3.168,0,.816-.168,4.656-.912,6.336-.36.816-1.128,1.1-2.208,1.1a24.507,24.507,0,0,1-3.12-.312l.192,3.1a30.158,30.158,0,0,0,3.552.24,4.531,4.531,0,0,0,3.84-1.56c1.176-1.44,1.776-5.328,1.776-7.992,0-3.24-.552-7.056-5.208-7.056Zm14.064,9.36c-.168-5.256-1.056-7.032-2.3-8.856l-2.88,1.152c1.416,2.784,1.7,4.344,1.7,8.136ZM-136.176-16.2a14.794,14.794,0,0,0-1.536-3.744l-1.968.6a17.02,17.02,0,0,1,1.44,3.864Zm3.576-.528a14.264,14.264,0,0,0-1.584-3.744l-1.944.6a17.512,17.512,0,0,1,1.56,3.768Zm6.528-2.712c-.048.744-.1,1.656-.24,2.784h-3.624V-13.7h3.216c-.192,1.176-1.512,9.072-3.792,13.9l3.1,1.056c1.56-3.552,3.1-10.608,3.792-14.952h6.384v-2.952h-5.928c.168-1.176.264-1.92.36-2.76Zm16.008,5.88c-6.12-.1-8.376.7-10.2,1.488l.96,2.616a17.391,17.391,0,0,1,6.936-1.056c1.008,0,1.68.048,2.328.072Zm-10.1,5.928a6.508,6.508,0,0,0-2.016,4.3c0,4.416,5.688,4.416,8.352,4.416,2.688,0,3.12-.024,4.08-.1v-3.1a48.058,48.058,0,0,1-5.088.24c-1.56,0-4.392,0-4.392-1.824a3.626,3.626,0,0,1,1.3-2.448ZM-102.456.24a43.1,43.1,0,0,0,9-.72c1.872-.408,8.064-1.752,8.064-8.9,0-4.776-3.288-7.944-8.328-7.944a41.623,41.623,0,0,0-6.384.672c-.7.12-6.552,1.08-6.72,1.1l.648,3.48c1.632-.408,8.856-2.184,12.192-2.184,4.128,0,5.112,2.688,5.112,4.848,0,6.144-6.36,6.624-14.256,6.576Zm21.288-19.608a85.1,85.1,0,0,0-.72,11.352,69.988,69.988,0,0,0,.5,9.048l3.168-.264a55.906,55.906,0,0,1-.6-8.832,65.305,65.305,0,0,1,.864-11.088Zm5.5.552v2.856h6.5l.072,2.976h-6.936v2.856h7.008l.12,2.856a6.133,6.133,0,0,0-1.992-.24c-3.936,0-5.568,2.352-5.568,4.44,0,1.872,1.3,4.224,5.28,4.224.816,0,3.072-.12,4.248-1.44a3.886,3.886,0,0,0,.912-2.5,21.9,21.9,0,0,1,2.64,2.448l1.92-2.976A17.191,17.191,0,0,0-65.9-6.384l-.12-3.744h3.816v-2.856h-3.864L-66.1-15.96h3.552v-2.856ZM-68.9-3.576c0,1.464-.792,2.088-2.3,2.088-.384,0-2.352,0-2.352-1.632,0-.936.888-1.752,2.52-1.752a4.141,4.141,0,0,1,2.136.5Zm16.848-15.96c-.072,5.856.432,7.08,1.008,8.136-1.944.864-6.216,2.832-6.216,7.056A4.746,4.746,0,0,0-54.216,0c1.656.672,3.7,1.08,9.6,1.08A50.518,50.518,0,0,0-38.64.816v-3.24a57.93,57.93,0,0,1-7.488.408c-5.112,0-7.752-.216-7.752-2.592,0-2.616,3.408-3.888,4.632-4.344a42.838,42.838,0,0,1,9.864-2.112L-39.96-14.4a62.007,62.007,0,0,0-8.184,1.92c-.6-1.1-.6-3.672-.6-4.824,0-.912.048-1.7.072-2.232Zm11.448,3.456A23.37,23.37,0,0,0-42-20.088l-2.112.36a19.446,19.446,0,0,1,1.248,4.2Zm3.312-.576a20.079,20.079,0,0,0-1.416-3.816l-2.088.408a17.665,17.665,0,0,1,1.32,3.936ZM-12.48-.984a20.959,20.959,0,0,1-9.144-3.048A18.729,18.729,0,0,0-17.9-9.384l-2.712-1.464a16.3,16.3,0,0,1-3.408,4.9,17.567,17.567,0,0,1-3.264-4.68L-30.1-9.384a22.463,22.463,0,0,0,3.744,5.256A22.605,22.605,0,0,1-35.424-.96l1.248,3.192A28.247,28.247,0,0,0-24-2.04,23.7,23.7,0,0,0-13.8,2.112Zm-13.1-17.136H-35.4v2.976h22.8V-18.12h-9.84V-20.5h-3.144ZM-29.5-15.072a16.058,16.058,0,0,1-6,4.2l1.632,2.76a19.761,19.761,0,0,0,7.1-5.568Zm17.088,3.984a15.619,15.619,0,0,1-6.528-3.984l-2.616,1.56a21.783,21.783,0,0,0,7.368,5.3Zm1.56-6.936A22.977,22.977,0,0,1-6.816-15.5l1.8-2.5a25.14,25.14,0,0,0-4.2-2.424Zm-.768,6.456A23.747,23.747,0,0,1-7.7-9.024l1.728-2.568a22.882,22.882,0,0,0-4.08-2.424Zm3.528,3.6a29.154,29.154,0,0,1-3.624,7.3l1.968,2.9a31.893,31.893,0,0,0,4.2-8.544ZM11.688-6.336A16.065,16.065,0,0,1,8.3-10.656L5.808-9.6A17.414,17.414,0,0,0,9.864-4.08ZM-3.576-13.56H-5.688V-10.9H1.68v4.584c0,.5-.264.576-.624.576h-2.28l.48,2.784H2.28c1.488,0,2.3-.5,2.3-1.944v-6h6.672V-13.56H4.584v-2.184h6.1v-2.64h-6.1v-1.992H1.68v6.816H-.672v-5.832h-2.9Zm1.128,2.952a15.007,15.007,0,0,1-3.336,5.4l2.16,1.848A17.2,17.2,0,0,0,.216-9.7Zm9.72,4.872c-1.92,2.3-4.92,4.608-12.96,4.92L-4.68,2.328C.1,1.944,6.072.624,9.216-3.552ZM23.952,1.1C30.24.672,34.7-1.992,34.7-9.1c0-6.024-3.84-9.6-10.056-9.6C17.88-18.7,13.32-14.208,13.32-7.92c0,3.48,1.632,7.1,4.872,7.1,2.76,0,4.3-2.52,4.7-3.216,1.992-3.36,2.448-8.808,2.688-11.688,4.68.36,5.664,3.744,5.664,6.456,0,5.88-4.008,7.1-8.3,7.3Zm-1.56-16.68c-.552,7.488-2.232,11.5-4.008,11.5-.576,0-1.92-.552-1.92-3.576C16.464-10.9,17.832-14.544,22.392-15.576ZM47.688-.408a8.021,8.021,0,0,1-2.952-1.92h3.216v-2.28H43.44a8.592,8.592,0,0,0,.168-1.128h4.008V-7.848H43.68V-8.976h3.768V-11.5l.912,1.416a8.887,8.887,0,0,0,.576-.7V2.184h2.736V1.128h7.536V-1.56H56.424V-4.1H58.68V-6.528H56.424V-9.072H58.68V-11.52H56.424v-2.52h2.664v-2.592H56.4a35.523,35.523,0,0,0,1.368-3.288l-2.832-.5a28.569,28.569,0,0,1-1.3,3.792H51.816a24.342,24.342,0,0,0,.984-3.456l-2.76-.384a22.46,22.46,0,0,1-2.592,6.864v-1.368h-10.2v6h3.936v1.128H37.248v2.112h3.816a8.52,8.52,0,0,1-.216,1.128H36.7v2.28h3.1A8.5,8.5,0,0,1,36.576.1l1.656,2.256a10.774,10.774,0,0,0,4.2-4.032A9.738,9.738,0,0,0,46.2,1.9Zm6.144-8.664v2.544h-2.16V-9.072Zm0-4.968v2.52h-2.16v-2.52Zm0,9.936V-1.56h-2.16V-4.1Zm-12.6-8.88V-10.9h-1.8v-2.088Zm4.2,0V-10.9H43.656v-2.088Zm-6.648-7.44v1.416H36.7v2.328h2.088v1.32h2.568v-1.32h2.232v1.32h2.568v-1.32h1.92v-2.328H46.1v-1.416h-2.52v1.416H41.328v-1.416ZM68.808-6.072A15.394,15.394,0,0,1,61.2-1.7L62.664.912c4.9-1.848,7.752-4.248,9.48-6.984h2.592a12.478,12.478,0,0,1-6.768,6.1l1.8,2.184c2.664-1.368,6.144-3.48,7.872-8.28H79.3a23.029,23.029,0,0,1-.408,4.44c-.144.552-.36.864-1.056.864H74.664l.6,2.9H78.5c2.4,0,2.808-1.224,3.048-1.92.552-1.632.744-6.888.768-8.808H68.712a11.088,11.088,0,0,0,1.176-1.68H81.024v-9.384H62.976v9.384h3.552a13.513,13.513,0,0,1-5.976,3.84l1.488,2.5a15.2,15.2,0,0,0,3.888-2.136ZM78.1-17.28v1.416H65.9V-17.28Zm0,3.24v1.416H65.9V-14.04Zm8.16,5.928a16.291,16.291,0,0,1-1.8,7.992l2.52,2.232c2.064-3.6,2.208-8.064,2.208-10.08v-4.416h2.952v3.648h11.64v-3.648h3.576v-2.3h-3.576V-16.2h3.456v-2.64H97.9V-20.5H94.8v1.656H86.256ZM100.968-16.2v1.512H94.944V-16.2Zm-8.856,0v1.512H89.16V-16.2Zm8.856,3.816v1.512H94.944v-1.512Zm-9,8.52a12.612,12.612,0,0,0,2.856,2.3A33.447,33.447,0,0,1,88.512-.48l1.08,2.664A30.352,30.352,0,0,0,98.184.168a29.755,29.755,0,0,0,8.088,2.04l1.176-2.856a31.843,31.843,0,0,1-5.928-.936,9.99,9.99,0,0,0,3.576-3.5v-2.52H89.76v2.52h3.792Zm9.168-1.224a7.607,7.607,0,0,1-3.072,2.3,14.56,14.56,0,0,1-3.5-2.3Zm9.744-14.376a57.681,57.681,0,0,0-.84,10.152,65.359,65.359,0,0,0,.72,10.368l3.216-.384A50.816,50.816,0,0,1,113.16-9.1a46.332,46.332,0,0,1,.984-10.056Zm4.68,3.936v3H122.5l.1,4.824a7.86,7.86,0,0,0-1.92-.192c-3.576,0-5.5,2.232-5.5,4.56,0,1.272.72,4.392,5.544,4.392,4.776,0,4.848-3.024,4.872-4.344a19.107,19.107,0,0,1,2.976,2.76l2.04-2.76a19.711,19.711,0,0,0-4.9-3.456l-.072-5.784h4.3v-3h-4.344v-3.888h-3.144v3.888Zm7.08,11.736c0,.96-.024,2.184-2.04,2.184-2.28,0-2.544-1.248-2.544-1.752,0-1.032.984-1.9,2.688-1.9a4.457,4.457,0,0,1,1.9.408ZM141.912-20.4V-1.656H132.72V1.416h22.536V-1.656h-10.2v-8.88h8.784v-3.1h-8.784V-20.4ZM164.9-15.432c.072-.6.432-3.48.5-4.128L162.1-19.8c-.1,1.3-.192,2.424-.432,4.368h-4.008v3.072l3.552-.048a38.4,38.4,0,0,1-3.816,12.1l3.048,1.3a52.85,52.85,0,0,0,3.984-13.416l2.28-.024c1.488-.024,2.832.192,2.832,3.168,0,.816-.168,4.656-.912,6.336-.36.816-1.128,1.1-2.208,1.1a24.507,24.507,0,0,1-3.12-.312l.192,3.1a30.158,30.158,0,0,0,3.552.24,4.531,4.531,0,0,0,3.84-1.56c1.176-1.44,1.776-5.328,1.776-7.992,0-3.24-.552-7.056-5.208-7.056Zm14.064,9.36c-.168-5.256-1.056-7.032-2.3-8.856l-2.88,1.152c1.416,2.784,1.7,4.344,1.7,8.136ZM175.824-16.2a14.794,14.794,0,0,0-1.536-3.744l-1.968.6a17.02,17.02,0,0,1,1.44,3.864Zm3.576-.528a14.264,14.264,0,0,0-1.584-3.744l-1.944.6a17.512,17.512,0,0,1,1.56,3.768Zm7.2,17.5a37.371,37.371,0,0,0,6.336-.48c2.064-.336,7.8-1.272,7.8-7.656,0-4.416-3.432-6.408-7.008-6.408a37.481,37.481,0,0,0-4.8.48c-.84.12-4.944.792-5.856.912l.552,3.144c4.248-.888,7.9-1.656,9.912-1.656,1.92,0,3.84.84,3.84,3.552,0,4.848-5.256,5.256-11.232,5.3Zm39.672-19.44c-2.448.1-13.44.5-15.5.624-2.28.12-4.152.216-5.3.216l.12,3.36c1.512-.144,8.928-.768,10.608-.912-5.712,3.648-6.144,7.632-6.144,9.192a6.543,6.543,0,0,0,3.72,5.712C215.976.6,218.424,1.1,223.68,1.128l.456-3.432c-9.984.336-10.776-2.472-10.776-4.32,0-3,2.616-5.52,3.984-6.576a10.213,10.213,0,0,1,6.024-2.3c.744-.024,2.256,0,3,.024Zm3.7.24c-.1,1.248-.36,3.96-.36,6.96,0,2.856.216,12.216,5.472,12.216,3.792,0,5.688-5.088,6.312-6.816l-2.664-1.464A16.666,16.666,0,0,1,237.144-4.2c-.48.744-.984,1.344-1.776,1.344-2.256,0-2.544-6.168-2.544-8.76a40.05,40.05,0,0,1,.576-6.528ZM250.752-1.776c.024-4.944-.1-11.448-5.136-16.2l-2.568,1.8c3.96,4.1,4.176,8.832,4.176,14.592ZM262.56-19.56c.048.816.12,1.728.264,2.784h-8.112v2.736h8.568c.1.552.288,1.32.576,2.352-.288,0-.432.024-.744.024h-9.24v2.688H264.72a13.838,13.838,0,0,0,2.544,4.752l2.88-1.536a12.2,12.2,0,0,1-2.112-3.384,36.02,36.02,0,0,0,6.168-.864l-.5-2.736a30.406,30.406,0,0,1-6.672.936c-.264-.912-.456-1.656-.6-2.4a32.1,32.1,0,0,0,6.144-.864l-.72-2.712a30.13,30.13,0,0,1-5.856.888c-.12-1.008-.144-1.728-.192-2.736ZM258.408-7.848c-.792.672-2.64,2.16-2.64,4.512A4.149,4.149,0,0,0,258.816.408c1.272.432,3.192.84,8.232.84,1.9,0,3.336-.1,4.656-.216V-2.016a38.794,38.794,0,0,1-5.784.312,36.325,36.325,0,0,1-4.224-.168c-1.08-.144-2.76-.336-2.76-1.848,0-1.128,1.128-2.04,1.68-2.472Zm19.776-9.624v2.856h8.76v2.136h-8.3V-9.7h8.3v2.064a7.318,7.318,0,0,0-1.92-.192c-3.168,0-6.192,1.416-6.192,4.584,0,1.968,1.344,4.44,6,4.44,5.3,0,5.3-3.144,5.3-4.224V-3.48A33.938,33.938,0,0,1,295.008.408L297.1-2.376a26.412,26.412,0,0,0-6.96-4.416V-9.7h7.008V-12.48h-7.008v-2.136h7.488v-2.856h-7.488V-19.56h-3.192v2.088Zm8.808,13.848c0,.984-.168,2.016-2.4,2.016-1.1,0-2.76-.264-2.76-1.7,0-1.488,1.752-1.9,2.976-1.9a6.312,6.312,0,0,1,2.184.408Zm25.7-13.608H301.464v2.952h11.3l.024,1.608a4.587,4.587,0,0,0-2.088-.48,4.9,4.9,0,0,0-5.232,4.992,4.856,4.856,0,0,0,5.04,4.824,3.446,3.446,0,0,0,2.424-.744c-.6,1.776-2.112,2.664-7.7,2.76l1.008,2.9a25.48,25.48,0,0,0,4.44-.552c5.04-1.128,5.712-5.376,5.712-7.488a8.948,8.948,0,0,0-.288-2.256c-.024-.1-.168-.528-.168-.6V-14.28h6.624v-2.952h-6.624v-2.424h-3.288Zm.216,9.24a2.062,2.062,0,0,1-2.16,2.088,2.2,2.2,0,0,1-2.328-2.3,2.284,2.284,0,0,1,2.376-2.328,1.947,1.947,0,0,1,2.112,1.992ZM329.568-6.36a3.81,3.81,0,0,0-3.816,3.816,3.831,3.831,0,0,0,3.816,3.84,3.851,3.851,0,0,0,3.84-3.84A3.831,3.831,0,0,0,329.568-6.36Zm0,1.44a2.381,2.381,0,0,1,2.376,2.376,2.366,2.366,0,0,1-2.376,2.376,2.366,2.366,0,0,1-2.376-2.376A2.381,2.381,0,0,1,329.568-4.92Zm-595.9,25.1h-7.9v-3.6h-3.312l.024,11.136a9.646,9.646,0,0,0-1.392-.1c-4.032,0-6.888,2.016-6.888,4.992,0,1.344.792,4.7,6,4.7,5.3,0,5.5-3.144,5.5-4.632v-1.08a28.416,28.416,0,0,1,6.768,4.656l2.208-2.856a27.159,27.159,0,0,0-8.9-5.064V23.352h7.9Zm-11.136,12c0,1.128-.144,2.256-2.52,2.256-2.592,0-2.736-1.536-2.736-1.92,0-1.368,1.392-2.112,3.432-2.112a4.7,4.7,0,0,1,1.824.264Zm18.624-15.936c-.72,2.664-.912,8.088-.912,10.968a38.655,38.655,0,0,0,.192,4.128l3.144-.24a18.054,18.054,0,0,1-.24-3c0-3.072,3.12-6.648,5.952-6.648,3.408,0,3.408,4.7,3.408,5.616,0,6.456-4.512,7.2-11.088,7.272l.7,3.024c8.256,0,13.728-2.232,13.728-10.128,0-5.88-2.832-8.736-6.456-8.736a7.367,7.367,0,0,0-5.856,3.048,19.582,19.582,0,0,1,.84-4.992ZM-222,24.24v1.728h-12.1V24.24Zm-16.848,13.752a98.171,98.171,0,0,0,11.472-1.776V33.624a25.734,25.734,0,0,0,9.144,4.656l1.7-3.072a24.47,24.47,0,0,1-6.216-2.04,30.035,30.035,0,0,0,5.544-3.432l-1.776-1.392V17.592h-7.536V15.5h-3.072v2.088H-237.1V34.944c-1.248.072-1.608.072-2.208.1Zm7.824-9.5a12.808,12.808,0,0,0,3.6,5.088c-3.12.624-5.808.96-6.672,1.056V28.488ZM-222,20.256v1.632h-12.1V20.256Zm1.7,8.232a27.5,27.5,0,0,1-5.016,3.072,8.572,8.572,0,0,1-2.64-3.072Zm6.264-10.92c-.1,1.248-.36,3.96-.36,6.96,0,2.856.216,12.216,5.472,12.216,3.792,0,5.688-5.088,6.312-6.816l-2.664-1.464a16.666,16.666,0,0,1-1.584,3.336c-.48.744-.984,1.344-1.776,1.344-2.256,0-2.544-6.168-2.544-8.76a40.05,40.05,0,0,1,.576-6.528Zm20.784,16.656c.024-4.944-.1-11.448-5.136-16.2l-2.568,1.8c3.96,4.1,4.176,8.832,4.176,14.592Zm3.312-5.328c0,1.2,0,4.656-1.7,7.3l2.184,2.064a13.127,13.127,0,0,0,1.752-5.64h5.256V34.7c0,.72-.168.72-.912.72h-2.184l.5,2.76h2.736c.84,0,2.16,0,2.16-2.184V21.024h-2.4a8.884,8.884,0,0,0,1.272-1.728V16.944h-4.32c.168-.408.288-.648.456-1.1l-2.856-.336a12.847,12.847,0,0,1-3.7,5.256l.912,2.928c.432-.336.552-.456.84-.7Zm3.984-5.568V25.7h-1.56V23.328Zm0,4.608V30.36h-1.56V27.936Zm3.5-4.608V25.7h-1.584V23.328Zm0,4.608V30.36h-1.584V27.936Zm-5.64-6.912A18.208,18.208,0,0,0-186.84,19.3h2.5a6.4,6.4,0,0,1-1.416,1.728Zm8.16-4.68v2.52h2.568a5.338,5.338,0,0,1-2.688,2.784l1.44,2.28a8.183,8.183,0,0,0,4.1-5.064h2.568c-.024,2.208-.408,2.208-1.224,2.208h-2.064l.6,2.4h2.712a1.974,1.974,0,0,0,2.208-1.344,26.45,26.45,0,0,0,.5-5.784Zm4.968,12.288v2.3h-4.632V33.7h4.7v4.488h2.664V33.7h3.5v-2.76h-3.5v-2.3h3V26.064h-3V24.12h-2.736v1.944H-176.5c.168-.84.24-1.272.312-1.68l-2.424-.408c-.408,2.928-.816,3.936-1.44,5.016l2.112,1.512a8.677,8.677,0,0,0,.816-1.872Zm14.76-9.864v2.76h4.9V24a17.379,17.379,0,0,1-.048,1.848h-5.664v2.808h5.16a10.972,10.972,0,0,1-6.48,6.768l1.848,2.76a13.841,13.841,0,0,0,6.936-7.512c.576,1.608,2.064,5.04,7.68,7.536l1.512-2.952c-2.64-1.032-6-2.9-7.3-6.6h6.96V25.848h-1.392v-7.08h-6.192V15.576H-155.3v3.192Zm7.8,7.08a21.731,21.731,0,0,0,.12-2.256V21.528h3.168v4.32Zm-14.184-7.992a16.8,16.8,0,0,1,3.984,2.568l1.824-2.544a15.923,15.923,0,0,0-4.176-2.4Zm-1.056,6.456a15.463,15.463,0,0,1,3.912,2.52l1.824-2.52a14.561,14.561,0,0,0-4.2-2.472Zm4.392,3.744a29.567,29.567,0,0,1-4.512,7.32l1.944,2.736a32.692,32.692,0,0,0,4.824-8.3Zm27.192-11.808a18.556,18.556,0,0,1-.336,2.16h-5.352V21.36h4.536a19.948,19.948,0,0,1-5.28,8.064l2.28,2.352a21.71,21.71,0,0,0,3.1-4.128c2.376-2.4,4.056-2.4,4.344-2.4a1.838,1.838,0,0,1,1.752,1.056c-1.9.96-6.312,3.1-6.312,6.384a4.1,4.1,0,0,0,2.64,3.744c1.392.552,3.216.768,6.72.768,1.776,0,3.96-.072,4.8-.1v-3.1c-1.944.192-4.08.288-6.048.288-2.4,0-4.7,0-4.7-1.872,0-1.536,2.112-2.568,3.384-3.216a25.354,25.354,0,0,1-.048,3.024h3.144c.024-.768.024-1.152.024-1.848,0-.792-.024-1.632-.1-2.424a34.006,34.006,0,0,1,5.736-1.608l-.72-3.168a44.51,44.51,0,0,0-5.664,1.9,3.994,3.994,0,0,0-3.792-2.544,6.673,6.673,0,0,0-2.76.7,11.769,11.769,0,0,0,.792-1.872h10.32V18.408h-9.456c.216-.912.288-1.3.384-1.92Zm24.336.072v8.5h13.608v-8.5Zm10.8,2.16v1.272h-7.992V18.48Zm0,3.024v1.224h-7.992V21.5Zm-14.04-.48a15.518,15.518,0,0,1-4.68,6.048l.936,3.48a6.069,6.069,0,0,0,1.248-.984v8.616h2.952V26.064a23.407,23.407,0,0,0,2.112-3.912Zm3.12,12.288a20.845,20.845,0,0,1,2.9,3.648l2.376-1.8a19.218,19.218,0,0,0-2.856-3.312h6.912v2.784c0,.552-.024.816-.672.816h-2.664l.48,2.736h3.552c2.016,0,2.256-1.1,2.256-2.136v-4.2h2.928v-2.5h-2.928V28.2H-97.2V25.848h-15.384V28.2h10.08v1.152h-10.8v2.5h3.408Zm-6.768-10.248a16.76,16.76,0,0,0,5.64-6.648l-2.664-1.008a11.47,11.47,0,0,1-4.152,4.728ZM-92.4,16.8v3.048l9.048-.144c-3.576,3.288-7.176,6.6-10.8,9.792l1.8,2.784c.888-.936,3.312-3.312,4.128-4.08a10.353,10.353,0,0,1,6.144-2.112c.792,0,4.464,0,4.464,4.056,0,2.136-1.224,3.408-3.312,4.032.024-.336.048-.48.048-.672a4.259,4.259,0,0,0-4.44-4.344c-2.16,0-4.488,1.344-4.488,3.744a3.928,3.928,0,0,0,1.944,3.288A7.9,7.9,0,0,0-83.4,37.248c6.336,0,9.12-3.456,9.12-7.368A6.268,6.268,0,0,0-80.9,23.328a7.2,7.2,0,0,0-2.664.432c.7-.576,1.1-.912,4.92-4.368V16.8Zm8.88,17.76c-3.1.24-3.624-.864-3.624-1.536,0-.768.648-1.344,1.68-1.344a2.042,2.042,0,0,1,2.04,2.232A2.231,2.231,0,0,1-83.52,34.56Zm17.448-18c-.048.744-.1,1.656-.24,2.784h-3.624V22.3h3.216c-.192,1.176-1.512,9.072-3.792,13.9l3.1,1.056c1.56-3.552,3.1-10.608,3.792-14.952h6.384V19.344h-5.928c.168-1.176.264-1.92.36-2.76Zm16.008,5.88c-6.12-.1-8.376.7-10.2,1.488l.96,2.616a17.391,17.391,0,0,1,6.936-1.056c1.008,0,1.68.048,2.328.072Zm-10.1,5.928a6.508,6.508,0,0,0-2.016,4.3c0,4.416,5.688,4.416,8.352,4.416,2.688,0,3.12-.024,4.08-.1v-3.1a48.059,48.059,0,0,1-5.088.24c-1.56,0-4.392,0-4.392-1.824a3.626,3.626,0,0,1,1.3-2.448ZM-35.9,16.416c0,.96-.1,2.472-.216,3.72a13.584,13.584,0,0,0-5.16,1.584,27.659,27.659,0,0,1-.648-4.272l-3.024.768a29.588,29.588,0,0,0,1.128,5.4,9.3,9.3,0,0,0-2.664,6.528c0,3.216,1.776,5.424,4.392,5.424,3.312,0,7.056-3.648,8.544-12.528,1.344.192,4.8.7,4.8,5.328,0,4.56-3.5,5.832-8.544,5.856l.96,3c3.36-.264,5.232-.5,7.368-1.9a7.6,7.6,0,0,0,3.36-6.7,8.526,8.526,0,0,0-3.12-6.84A8.675,8.675,0,0,0-33.1,20.16a26.4,26.4,0,0,0,.36-3.576Zm-4.584,8.016a9.458,9.458,0,0,1,4.056-1.416,23.915,23.915,0,0,1-1.752,5.88A16.582,16.582,0,0,1-40.488,24.432Zm.672,6.936a3.064,3.064,0,0,1-2.04,1.2c-1.344,0-1.8-1.44-1.8-2.5a6.514,6.514,0,0,1,.984-3.384A18.175,18.175,0,0,0-39.816,31.368Zm25.152-12.984v3.072H-2.64V18.384Zm.7,8.088a8.132,8.132,0,0,0-1.44,4.464c0,5.016,5.592,5.016,8.784,5.016,1.32,0,3.12-.048,4.392-.168V32.592a47.455,47.455,0,0,1-6.1.24c-2.808,0-4.152-.672-4.152-2.184a5.492,5.492,0,0,1,1.1-3.024ZM-20.736,16.7a97.485,97.485,0,0,0-.864,12,41.948,41.948,0,0,0,.792,8.5l3.24-.312a42.5,42.5,0,0,1-.816-8.712,67.517,67.517,0,0,1,.96-11.208ZM8.952,35.472A41.246,41.246,0,0,0,4.1,30.12L1.536,31.848A46.138,46.138,0,0,1,6,37.44ZM30.1,24.624H41.832V22.752a26.135,26.135,0,0,0,4.3,2.112l1.56-2.9c-5.544-1.968-7.8-3.7-9.936-6.36H34.536A23.316,23.316,0,0,1,24.36,21.96l1.512,2.9A26.246,26.246,0,0,0,30.1,22.776Zm1.368-2.688a22.982,22.982,0,0,0,4.584-3.816,21.584,21.584,0,0,0,4.464,3.816Zm-5.712,4.7v2.832h16.1c-1.92,3.1-5.736,4.944-11.016,5.928L32.3,38.256c6.792-1.272,11.4-4.968,13.464-8.784V26.64ZM60.7,18.768H49.464V21.72h11.3l.024,1.608a4.587,4.587,0,0,0-2.088-.48,4.914,4.914,0,1,0-.192,9.816,3.446,3.446,0,0,0,2.424-.744c-.6,1.776-2.112,2.664-7.7,2.76l1.008,2.9a25.48,25.48,0,0,0,4.44-.552c5.04-1.128,5.712-5.376,5.712-7.488a8.947,8.947,0,0,0-.288-2.256c-.024-.1-.168-.528-.168-.6V21.72H70.56V18.768H63.936V16.344H60.648Zm.216,9.24a2.062,2.062,0,0,1-2.16,2.088,2.2,2.2,0,0,1-2.328-2.3A2.284,2.284,0,0,1,58.8,25.464a1.947,1.947,0,0,1,2.112,1.992Zm31.32,7.2a80.372,80.372,0,0,0-11.016-6.96c-1.392-.72-1.92-1.032-1.92-1.632,0-.48.384-.768.816-1.08a100.485,100.485,0,0,0,9.408-7.608L86.352,15.96c-2.88,2.88-2.928,2.928-9.456,8.16a3.443,3.443,0,0,0-1.368,2.568c0,1.7,1.152,2.448,2.664,3.36a94.8,94.8,0,0,1,11.04,7.608Zm-.72-9.936a20.292,20.292,0,0,0-2.256-3.48l-1.968.984a28.977,28.977,0,0,1,2.184,3.648Zm3.048-1.656a17.186,17.186,0,0,0-2.28-3.336l-1.944,1.008a22.051,22.051,0,0,1,2.28,3.48Zm9.264-4.536H98.28v2.952h5.544v3.216c-5.712,2.208-6.072,5.592-6.072,6.816,0,1.752,1.368,4.68,5.3,4.68,3.816,0,3.816-2.232,3.816-3.12V27.312a12.366,12.366,0,0,1,3.168-.36c1.008,0,4.824,0,4.824,3.552,0,3.96-4.368,3.936-7.176,3.936l.648,2.808c4.9.072,9.744-1.2,9.744-6.552a6.384,6.384,0,0,0-2.088-4.872c-.72-.6-2.208-1.656-5.664-1.656a17.49,17.49,0,0,0-3.456.336V22.032H112.1V19.08h-5.232V16.536h-3.048Zm0,13.824c0,.48,0,.912-1.056.912a1.884,1.884,0,0,1-2.016-1.872c0-2.136,2.208-3.336,3.072-3.792Zm7.68-14.856a17.847,17.847,0,0,1,4.848,6.264l2.832-1.584a17.674,17.674,0,0,0-5.3-6.48Zm25.632,9.624H126.768v8.256h9.312l.336,2.3h4.1c.816,0,2.064-.1,2.064-2.3V16.464h-9.648v9.528h6.792v8.616c0,.408-.072.648-.624.648h-1.968Zm2.592-8.88V20.3h-3.936V18.792Zm0,3.336v1.608h-3.936V22.128ZM134.4,30.12v3.264h-4.9V30.12Zm-12.984,8.112h2.9V25.992H130.9V16.464h-9.48Zm6.624-19.44V20.3h-3.7V18.792Zm0,3.336v1.608h-3.7V22.128Zm17.928-4.56c-.1,1.248-.36,3.96-.36,6.96,0,2.856.216,12.216,5.472,12.216,3.792,0,5.688-5.088,6.312-6.816l-2.664-1.464a16.666,16.666,0,0,1-1.584,3.336c-.48.744-.984,1.344-1.776,1.344-2.256,0-2.544-6.168-2.544-8.76a40.05,40.05,0,0,1,.576-6.528Zm20.784,16.656c.024-4.944-.1-11.448-5.136-16.2l-2.568,1.8c3.96,4.1,4.176,8.832,4.176,14.592Zm7.1-9.36h12.456V23.136a37.389,37.389,0,0,0,3.648,1.848l1.656-3.024c-6.312-2.4-8.616-4.872-9.96-6.432h-3.264a21.285,21.285,0,0,1-9.96,6.432l1.584,3.024a34.725,34.725,0,0,0,3.84-1.92Zm1.464-2.712a19.167,19.167,0,0,0,4.632-4.128,24.215,24.215,0,0,0,4.752,4.128ZM170.88,38.16H173.9v-.888h12.168v.888H189.1V26.928H170.88Zm15.192-8.52v4.944H173.9V29.64Zm17.112,7.128c2.712-.12,11.328-.48,11.328-9.024,0-2.736-1.368-7.56-7.272-7.56a10.962,10.962,0,0,0-6.96,2.712,9.655,9.655,0,0,1,.744-1.416V19.9h-.672l.072-3.384-3.144.024V19.9H193.8v3l3.456-.024-.024,2.112a20.9,20.9,0,0,1-4.224,5.3l1.68,3.24a13.373,13.373,0,0,0,2.5-3.36l-.072,7.032H200.3l-.024-10.944c1.248-1.224,3.432-3.144,6.48-3.144.768,0,4.416,0,4.416,4.584,0,5.808-5.9,6.024-8.76,6.1Zm28.44-20.4c.048.84.144,3.936.168,4.68l-7.584.168.048-4.488h-3.192v4.584l-3.672.072.1,2.928,3.576-.072V29.9a12.613,12.613,0,0,0,.48,4.1c1.152,2.544,3.792,2.976,9.288,2.976,3.96,0,5.112-.1,5.9-.168v-3.1a49.217,49.217,0,0,1-6.624.288c-5.856,0-6-.216-5.976-4.224l.048-5.616,7.7-.168a21.585,21.585,0,0,1-.216,3.576c-.168.912-.336,1.344-1.272,1.344a21.3,21.3,0,0,1-2.952-.312l.168,2.88a19.339,19.339,0,0,0,3.048.264c4.08,0,4.2-2.52,4.32-7.824l3.648-.1-.048-2.928-3.6.072a40.362,40.362,0,0,0-.216-4.656Zm16.32-.12a18.556,18.556,0,0,1-.336,2.16h-5.352V21.36h4.536a19.948,19.948,0,0,1-5.28,8.064l2.28,2.352a21.71,21.71,0,0,0,3.1-4.128c2.376-2.4,4.056-2.4,4.344-2.4a1.838,1.838,0,0,1,1.752,1.056c-1.9.96-6.312,3.1-6.312,6.384a4.1,4.1,0,0,0,2.64,3.744c1.392.552,3.216.768,6.72.768,1.776,0,3.96-.072,4.8-.1v-3.1c-1.944.192-4.08.288-6.048.288-2.4,0-4.7,0-4.7-1.872,0-1.536,2.112-2.568,3.384-3.216a25.354,25.354,0,0,1-.048,3.024h3.144c.024-.768.024-1.152.024-1.848,0-.792-.024-1.632-.1-2.424a34.006,34.006,0,0,1,5.736-1.608l-.72-3.168a44.51,44.51,0,0,0-5.664,1.9,3.994,3.994,0,0,0-3.792-2.544,6.673,6.673,0,0,0-2.76.7,11.769,11.769,0,0,0,.792-1.872H260.4V18.408h-9.456c.216-.912.288-1.3.384-1.92Zm26.328.84.432,13.464H277.3l.432-13.464Zm.072,15.528V36h3.312V32.616Z" transform="translate(356.42 26.54)" fill="#002063"/>
  </g>
</svg>
