<svg xmlns="http://www.w3.org/2000/svg" xmlns:xlink="http://www.w3.org/1999/xlink" width="263.76" height="80.783" viewBox="0 0 263.76 80.783">
  <defs>
    <filter id="パス_2868" x="0" y="0" width="263.76" height="80.783" filterUnits="userSpaceOnUse">
      <feOffset dy="3" input="SourceAlpha"/>
      <feGaussianBlur stdDeviation="3" result="blur"/>
      <feFlood flood-opacity="0.161"/>
      <feComposite operator="in" in2="blur"/>
      <feComposite in="SourceGraphic"/>
    </filter>
  </defs>
  <g transform="matrix(1, 0, 0, 1, 0, 0)" filter="url(#パス_2868)">
    <path id="パス_2868-2" data-name="パス 2868" d="M-121.1-4.112h-6.384v1.888h6.384V1.424h2.048V-2.224h6.544V-4.112h-6.544V-5.68h5.088v-7.472h-12.1V-5.68h4.96Zm5.184-7.3v1.2h-8.192v-1.2Zm0,2.784v1.3h-8.192v-1.3Zm5.424-3.728h-.864v1.76h.864v6.128h-1.088v1.728h8.368V-4.464h-.992v-6.128h1.024v-1.76h-1.024v-1.264h-1.84v1.264h-2.608v-1.264h-1.84Zm4.448,4.256v1.04h-2.608V-8.1Zm0-2.5v.976h-2.608v-.976Zm0,4.976v1.152h-2.608V-5.616Zm3.216-7.584v5.664c0,4.512-.5,6.032-1.648,7.632l1.616,1.344a8.335,8.335,0,0,0,1.632-4.784h2.384v2.336c0,.3-.064.528-.5.528h-1.472l.32,1.9h2.1c.608,0,1.44-.048,1.44-1.36V-13.2Zm3.984,1.872V-9.1h-2.192v-2.224Zm0,3.968v2.224h-2.224c.016-.944.016-1.376.032-2.224Zm-10.72,4.72A10.5,10.5,0,0,1-111.76.08l1.328,1.376a9.854,9.854,0,0,0,2.464-3.3Zm2.416.96A12.994,12.994,0,0,1-105.5.576l1.344-1.168a9.4,9.4,0,0,0-1.68-2.032ZM-88.032.736c4.192-.288,7.168-2.064,7.168-6.8,0-4.016-2.56-6.4-6.7-6.4-4.512,0-7.552,2.992-7.552,7.184,0,2.32,1.088,4.736,3.248,4.736a3.893,3.893,0,0,0,3.136-2.144c1.328-2.24,1.632-5.872,1.792-7.792,3.12.24,3.776,2.5,3.776,4.3,0,3.92-2.672,4.736-5.536,4.864Zm-1.04-11.12C-89.44-5.392-90.56-2.72-91.744-2.72c-.384,0-1.28-.368-1.28-2.384C-93.024-7.264-92.112-9.7-89.072-10.384Zm22.16-2.016c-.848,0-2.7-.016-3.584,0-.96.016-5.024.064-5.792.064-.368,0-.9-.016-1.216-.032v2.112c.96-.048,4.272-.128,5.312-.16-.384.208-1.248.672-1.6.912l1.44,1.264a14.928,14.928,0,0,1,5.44-2.224Zm-9.424,5.152a5.529,5.529,0,0,0-1.84,3.792A3.422,3.422,0,0,0-76.352-.5c1.392.736,2.784.912,6.08.912A29.748,29.748,0,0,0-66.064.208l-.048-2.16A36.575,36.575,0,0,1-70.9-1.68c-2.448,0-5.136-.032-5.136-1.9a3.64,3.64,0,0,1,1.3-2.56Zm9.312.736A13.38,13.38,0,0,0-68.56-8.9l-1.184.672a15.339,15.339,0,0,1,1.472,2.432Zm2.032-1.024a10.8,10.8,0,0,0-1.52-2.3l-1.2.672a13.65,13.65,0,0,1,1.488,2.336Zm8.144-5.6V1.488h1.92V.672h4.048v.816h1.9V-13.136Zm5.968,5.712V-5.2h-4.048V-7.424Zm0,3.952v2.32h-4.048v-2.32Zm0-7.824v2.144h-4.048V-11.3ZM-63.136-1.648A12.886,12.886,0,0,0-61.2-5.2V1.488h1.92v-6.7a14.488,14.488,0,0,0,1.2,1.792L-57.056-5.2A10.464,10.464,0,0,1-59.28-8.176V-8.96h1.888v-1.872H-59.28v-2.816H-61.2v2.816h-2.32V-8.96h2.208a13.29,13.29,0,0,1-2.5,4.848Zm19.552-.56v1.52H-45.44v-1.52ZM-41.008,1.5a7.288,7.288,0,0,0,4.032-3.84A6.647,6.647,0,0,0-33.04,1.5l.912-1.872A7.015,7.015,0,0,1-34.8-1.952,5,5,0,0,1-36.112-5.76v-.976H-38V-5.68c0,2.544-.864,4.3-3.984,5.376V-3.712h-5.168V1.472h1.712V.864h3.456V-.256Zm-6.144-6.048h5.168v-1.6h-5.168Zm5.648-.72a13.027,13.027,0,0,1,.9,3.072l1.776-.528a13.745,13.745,0,0,0-.992-3.04Zm-5.648-6.4h5.168v-1.584h-5.168Zm5.84-.832a9.816,9.816,0,0,1,.56,2.944l1.84-.528a13.529,13.529,0,0,0-.736-2.912Zm-5.84,5.52h5.168V-8.528h-5.168ZM-38-12.752a5.074,5.074,0,0,1-3.824,5.088l1.008,1.808a7.516,7.516,0,0,0,3.84-3.808,7.542,7.542,0,0,0,3.856,3.84l.96-1.84A6.426,6.426,0,0,1-34.7-9.28a4.514,4.514,0,0,1-1.376-3.552V-13.6H-38ZM-47.616-9.28H-41.5v-1.6h-6.112Zm13.232-3.76a12.617,12.617,0,0,1-1.008,2.784l1.6.7A14.132,14.132,0,0,0-32.64-12.5Zm.16,7.2a15.628,15.628,0,0,1-1.1,3.008l1.632.656a14.213,14.213,0,0,0,1.232-3.2Zm8.16-4.448c.048-.4.288-2.32.336-2.752l-2.208-.16c-.064.864-.128,1.616-.288,2.912H-30.9V-8.24l2.368-.032A25.6,25.6,0,0,1-31.072-.208l2.032.864a35.233,35.233,0,0,0,2.656-8.944l1.52-.016c.992-.016,1.888.128,1.888,2.112a14.737,14.737,0,0,1-.608,4.224c-.24.544-.752.736-1.472.736a16.338,16.338,0,0,1-2.08-.208l.128,2.064a20.106,20.106,0,0,0,2.368.16,3.02,3.02,0,0,0,2.56-1.04c.784-.96,1.184-3.552,1.184-5.328,0-2.16-.368-4.7-3.472-4.7Zm9.376,6.24c-.112-3.5-.7-4.688-1.536-5.9l-1.92.768A9.8,9.8,0,0,1-19.008-3.76Zm-2.1-6.752a9.863,9.863,0,0,0-1.024-2.5l-1.312.4a11.346,11.346,0,0,1,.96,2.576Zm2.384-.352a9.51,9.51,0,0,0-1.056-2.5l-1.3.4a11.674,11.674,0,0,1,1.04,2.512Zm1.776,6.416A9.243,9.243,0,0,1-15.76.128L-14.3,1.5a8.751,8.751,0,0,0,1.168-3.76h3.5V-.864c0,.48-.112.48-.608.48H-11.7l.336,1.84h1.824c.56,0,1.44,0,1.44-1.456V-9.984H-9.7a5.923,5.923,0,0,0,.848-1.152V-12.7h-2.88c.112-.272.192-.432.3-.736l-1.9-.224a8.565,8.565,0,0,1-2.464,3.5l.608,1.952c.288-.224.368-.3.56-.464Zm2.656-3.712v1.584h-1.04V-8.448Zm0,3.072V-3.76h-1.04V-5.376Zm2.336-3.072v1.584h-1.056V-8.448Zm0,3.072V-3.76h-1.056V-5.376Zm-3.76-4.608a12.137,12.137,0,0,0,.832-1.152H-10.9a4.269,4.269,0,0,1-.944,1.152Zm5.44-3.12v1.68H-6.24A3.558,3.558,0,0,1-8.032-9.568l.96,1.52a5.456,5.456,0,0,0,2.736-3.376h1.712C-2.64-9.952-2.9-9.952-3.44-9.952H-4.816l.4,1.6h1.808a1.316,1.316,0,0,0,1.472-.9A17.633,17.633,0,0,0-.8-13.1ZM-4.64-4.912v1.536H-7.728v1.84h3.136V1.456h1.776V-1.536H-.48v-1.84H-2.816V-4.912h2V-6.624h-2v-1.3H-4.64v1.3H-5.664c.112-.56.16-.848.208-1.12l-1.616-.272a8.022,8.022,0,0,1-.96,3.344l1.408,1.008A5.785,5.785,0,0,0-6.08-4.912ZM5.2-11.488v1.84H8.464V-8a11.587,11.587,0,0,1-.032,1.232H4.656V-4.9H8.1A7.315,7.315,0,0,1,3.776-.384l1.232,1.84A9.227,9.227,0,0,0,9.632-3.552c.384,1.072,1.376,3.36,5.12,5.024L15.76-.5c-1.76-.688-4-1.936-4.864-4.4h4.64V-6.768h-.928v-4.72H10.48v-2.128H8.464v2.128Zm5.2,4.72a14.485,14.485,0,0,0,.08-1.5V-9.648h2.112v2.88ZM.944-12.1A11.2,11.2,0,0,1,3.6-10.384l1.216-1.7a10.615,10.615,0,0,0-2.784-1.6Zm-.7,4.3a10.308,10.308,0,0,1,2.608,1.68l1.216-1.68a9.707,9.707,0,0,0-2.8-1.648ZM3.168-5.3A19.711,19.711,0,0,1,.16-.416l1.3,1.824A21.794,21.794,0,0,0,4.672-4.128ZM23.968.736c4.192-.288,7.168-2.064,7.168-6.8,0-4.016-2.56-6.4-6.7-6.4-4.512,0-7.552,2.992-7.552,7.184,0,2.32,1.088,4.736,3.248,4.736a3.893,3.893,0,0,0,3.136-2.144c1.328-2.24,1.632-5.872,1.792-7.792,3.12.24,3.776,2.5,3.776,4.3,0,3.92-2.672,4.736-5.536,4.864Zm-1.04-11.12C22.56-5.392,21.44-2.72,20.256-2.72c-.384,0-1.28-.368-1.28-2.384C18.976-7.264,19.888-9.7,22.928-10.384Zm13.52-.016h4.128a4.054,4.054,0,0,1-.24.752H37.344v8.016h9.28V-9.648H42.272a5.425,5.425,0,0,0,.368-.752h4.848v-1.68H45.12c.176-.272.528-.848.736-1.264l-2.048-.368a9.3,9.3,0,0,1-.7,1.632H40.688a9.755,9.755,0,0,0-.864-1.648l-1.84.5c.112.192.432.768.656,1.152H36.448v1.2a11.774,11.774,0,0,0-2.464-2.592l-1.376,1.3a13.951,13.951,0,0,1,2.336,2.768l1.5-1.344Zm8.224,4.224v.944H39.3v-.944Zm0-2.048v.9H39.3v-.9Zm0,4.144v.992H39.3V-4.08ZM32.5-5.7h1.44v3.824A8.6,8.6,0,0,1,32.3-.736l.816,2.192A11.154,11.154,0,0,0,35.408-.7c1.12,1.76,2.928,1.76,4.24,1.76h7.68l.384-1.872H39.744c-.832,0-3.392,0-3.888-1.84V-7.584H32.5ZM55.968.736c4.192-.288,7.168-2.064,7.168-6.8,0-4.016-2.56-6.4-6.7-6.4-4.512,0-7.552,2.992-7.552,7.184,0,2.32,1.088,4.736,3.248,4.736a3.893,3.893,0,0,0,3.136-2.144c1.328-2.24,1.632-5.872,1.792-7.792,3.12.24,3.776,2.5,3.776,4.3,0,3.92-2.672,4.736-5.536,4.864Zm-1.04-11.12C54.56-5.392,53.44-2.72,52.256-2.72c-.384,0-1.28-.368-1.28-2.384C50.976-7.264,51.888-9.7,54.928-10.384ZM67.44-13.168a36.689,36.689,0,0,0-.608,7.312A25.773,25.773,0,0,0,66.96-3.1l2.1-.16a12.037,12.037,0,0,1-.16-2c0-2.048,2.08-4.432,3.968-4.432,2.272,0,2.272,3.136,2.272,3.744,0,4.3-3.008,4.8-7.392,4.848L68.208.912c5.5,0,9.152-1.488,9.152-6.752,0-3.92-1.888-5.824-4.3-5.824a4.911,4.911,0,0,0-3.9,2.032,13.054,13.054,0,0,1,.56-3.328ZM92.96-6.192a12.519,12.519,0,0,0-1.472-2.336l-1.248.656a18.7,18.7,0,0,1,1.44,2.4Zm2.1-1.1A11.6,11.6,0,0,0,93.6-9.456L92.336-8.8a15.23,15.23,0,0,1,1.472,2.272Zm-.208-5.152c-1.632.064-8.96.336-10.336.416-1.184.064-2.464.144-3.536.144l.08,2.24c1.008-.1,5.952-.512,7.072-.608-3.808,2.432-4.1,5.088-4.1,6.128A4.362,4.362,0,0,0,86.512-.32C87.984.4,89.616.736,93.12.752l.3-2.288c-6.656.224-7.184-1.648-7.184-2.88,0-2,1.744-3.68,2.656-4.384a6.827,6.827,0,0,1,4.016-1.536c.592-.016,1.632.016,2,.016Zm9.616.96H96.976V-9.52h7.536l.016,1.072a3.058,3.058,0,0,0-1.392-.32A3.263,3.263,0,0,0,99.648-5.44a3.238,3.238,0,0,0,3.36,3.216,2.3,2.3,0,0,0,1.616-.5c-.4,1.184-1.408,1.776-5.136,1.84l.672,1.936a16.987,16.987,0,0,0,2.96-.368A4.75,4.75,0,0,0,106.928-4.3a5.965,5.965,0,0,0-.192-1.5c-.016-.064-.112-.352-.112-.4V-9.52h4.416v-1.968h-4.416V-13.1h-2.192Zm.144,6.16a1.375,1.375,0,0,1-1.44,1.392,1.464,1.464,0,0,1-1.552-1.536A1.522,1.522,0,0,1,103.2-7.024,1.3,1.3,0,0,1,104.608-5.7Zm11.1,1.088A2.54,2.54,0,0,0,113.168-1.7a2.554,2.554,0,0,0,2.544,2.56,2.568,2.568,0,0,0,2.56-2.56A2.554,2.554,0,0,0,115.712-4.24Zm0,.96A1.588,1.588,0,0,1,117.3-1.7a1.577,1.577,0,0,1-1.584,1.584A1.577,1.577,0,0,1,114.128-1.7,1.588,1.588,0,0,1,115.712-3.28ZM-104.64,13.312a10.449,10.449,0,0,0,1.9,2.368,12.29,12.29,0,0,1-2.9,1.12l.944,1.7a13.877,13.877,0,0,0,3.568-1.648,17.532,17.532,0,0,0,4.272,1.68l.7-1.888a14.883,14.883,0,0,1-3.328-1.04,8.315,8.315,0,0,0,2.336-2.928V10.9h-8.128v1.776h2.128Zm5.376-.64a6.828,6.828,0,0,1-1.872,1.984,8.619,8.619,0,0,1-1.856-1.984Zm-12.24,6.4c.048,0,2.128-.176,2.368-.192v6.592h1.68V18.72c.128-.016.624-.08.736-.1.032.176.048.288.08.592l1.424-.432a15.152,15.152,0,0,0-.848-3.12l-1.3.448c.1.288.128.4.288.96-1.136.048-1.264.064-1.44.064a39.444,39.444,0,0,0,3.072-4.352l-1.616-.736c-.336.608-.7,1.248-1.52,2.5-.208-.24-.352-.4-.624-.688a31.153,31.153,0,0,0,1.728-3.024l-1.7-.5a19.734,19.734,0,0,1-1.232,2.448,2.831,2.831,0,0,0-.464-.368l-.912,1.728a9.43,9.43,0,0,1,2.1,1.984c-.128.176-.336.448-.832,1.088-.288.016-.912.032-1.168.032Zm5.712,5.856h9.344V23.072h-3.68v-1.84h3.088v-1.84h-3.088V18H-102.1v1.392h-2.864v1.84h2.864v1.84h-3.152a16.347,16.347,0,0,0-.448-3.536l-1.328.32a18.092,18.092,0,0,1,.352,3.456l.88-.128ZM-111.1,19.7a14.715,14.715,0,0,1-.624,4.112l1.552.736a25.211,25.211,0,0,0,.592-4.64Zm28.976-5.152a10.808,10.808,0,0,0,1.1.72l.88-1.76a8.437,8.437,0,0,1-3.536-3.1H-85.9a8.173,8.173,0,0,1-3.376,3.152v-.176h-1.392V12.368h1.7V10.88H-95.1v8.736h4.544c-.112,2.384-.16,3.52-.448,3.952a.755.755,0,0,1-.72.3H-93.04l.288,1.6h1.664c1.04,0,1.488-.4,1.744-1.664l.992,1.664a6.583,6.583,0,0,0,3.616-3.36A7.68,7.68,0,0,0-81.152,25.5l1.008-1.792A7.43,7.43,0,0,1-83.3,21.2h2.384V16.288h-3.024v-.88h1.808Zm-5.184.864h1.648v.88H-88.48V21.2h2.208a4.994,4.994,0,0,1-3.072,2.592,37.117,37.117,0,0,0,.4-5.664h-1.728v-1.04h1.392V15.7h-1.392V14.688h1.392V13.76l.816,1.616a10.647,10.647,0,0,0,1.152-.784Zm-4.768-.72V15.7h-1.344V14.688Zm0,2.4v1.04h-1.344v-1.04Zm5.68-3.28a12.1,12.1,0,0,0,1.648-1.952,12.825,12.825,0,0,0,1.744,1.952Zm-5.68-1.44v1.008h-1.344V12.368Zm8.144,5.536h1.392v1.7h-1.44a9.65,9.65,0,0,0,.048-1.232Zm-1.728.464a6.3,6.3,0,0,1-.08,1.232h-1.168V17.9h1.248Zm-9.68,2.112a11.348,11.348,0,0,1-.608,3.536l.96.64a16.252,16.252,0,0,0,.592-4.144Zm1.312.048a15.054,15.054,0,0,1-.144,2.96l.976-.112c.016-.64.016-1.52-.08-2.9Zm1.12-.08a12.43,12.43,0,0,1,.176,2.656l.8-.144a14.332,14.332,0,0,0-.24-2.608Zm1.12-.16a10.182,10.182,0,0,1,.24,2.24l.672-.144a10.444,10.444,0,0,0-.32-2.176Zm13.264-3.9H-65.44V11.136h-3.808v-.752h-1.76v.752h-1.984v-.752h-1.76v.752h-3.776Zm7.52-3.952v.832h-1.984v-.832Zm0,1.856v.832h-1.984v-.832Zm-3.712-1.856v.832h-2v-.832Zm0,1.856v.832h-2v-.832Zm7.472-1.856v.832H-69.3v-.832Zm0,1.856v.832H-69.3v-.832ZM-78.08,19.2v3.312h1.888A7.945,7.945,0,0,1-75.9,23.52h-3.584v1.632h14.976V23.52h-3.536c.144-.368.256-.656.368-1.008h1.744V19.2Zm10.144,1.2v.928H-76.08V20.4Zm-1.824,2.112c-.08.288-.208.7-.32,1.008h-3.84c-.128-.432-.16-.592-.288-1.008Zm-9.728-3.952h14.976V17.008H-79.488Zm16.944.832v6.064h1.952v-.592h9.04v.592h2V19.392Zm5.584,1.216v.88h-3.632v-.88Zm0,2.016v.928h-3.632v-.928Zm5.408-2.016v.88h-3.584v-.88Zm0,2.016v.928h-3.584v-.928ZM-57.04,11.312h-6.176v3.7h1.952v-2.1h10.48v2.1h2v-3.7h-6.208V10.3H-57.04Zm-4.416,4.24v3.216h10.864V15.552Zm.816-.672h9.216v-1.3H-60.64Zm8.08,1.888v.848h-6.912v-.848Zm8.528-5.952c-.1.7-.16,1.28-.272,1.936h-2.7v2h2.336a28.677,28.677,0,0,1-2.5,7.664l2.16.736a56.437,56.437,0,0,0,2.512-8.4h3.472v-2H-42.08c.112-.56.176-1.04.288-1.792Zm11.008,1.7a21.055,21.055,0,0,0-5.1.448l.16,5.776a9.432,9.432,0,0,0-1.152-.08c-2.96,0-4.064,1.632-4.064,3.168,0,1.36.912,3.04,3.824,3.04,2.848,0,3.472-1.888,3.472-2.8v-.288a12.567,12.567,0,0,1,2.032,1.76L-32.64,21.5a14.114,14.114,0,0,0-3.216-2.112L-36,14.816a8.968,8.968,0,0,1,1.664-.112,11.364,11.364,0,0,1,1.328.064Zm-4.88,9.056c0,1.136-.832,1.408-1.648,1.408-.672,0-1.7-.256-1.7-1.184,0-1.024,1.088-1.376,2.016-1.376a3.547,3.547,0,0,1,1.328.256Zm6.832-5.712c8.032-.1,10.336-.288,12.032-.528.464.7.656,1.008.88,1.376l1.6-1.2a22.193,22.193,0,0,0-3.7-4.608l-1.616,1.056c.592.624,1.072,1.12,1.6,1.76-2.48.192-4.16.208-6.224.224A33.074,33.074,0,0,0-24.7,10.624l-2.064-.432a27.822,27.822,0,0,1-1.92,3.76c-1.632.016-2.128.016-2.576.016ZM-22.3,20v5.424h2.016V20h3.776V18.064h-3.776v-2.1H-22.3v2.1h-3.232v-2.1h-2v2.1h-3.952V20h3.856c-.352,1.7-1.28,2.768-3.872,3.68l.976,1.888c3.52-1.232,4.5-3.376,4.864-5.568Zm13.52-6.9a8.952,8.952,0,0,1-1.888,2.656v-.3H-15.1v1.568h4.432v-.256l.5.768c.32-.256.416-.336.576-.48v2.832H-.464V18.736H-4.112V18.1H-1.04v-.88H-4.112v-.608H-1.04v-.88H-4.112v-.592H-.7v-1.1H-3.936c.032-.048.224-.384.336-.624h1.424v-.72h1.76v-1.52h-1.76V10.4H-3.952v.768H-6.624V10.4H-8.352v.768h-1.984v1.52h1.984v.5Zm3.056,2.032v.592H-7.9v-.592Zm0,1.472v.608H-7.9v-.608ZM-7.36,14.032a5.627,5.627,0,0,0,.272-.624h.464v-.72h2.672v.672l-1.328-.192a6.8,6.8,0,0,1-.384.864ZM-5.728,18.1v.64H-7.9V18.1ZM-15.1,19.424h4.432V17.856H-15.1Zm4.8,6.08a19.69,19.69,0,0,0,4.624-.96,17.9,17.9,0,0,0,4.928.944l.48-1.76a13.2,13.2,0,0,1-3.184-.208A8.98,8.98,0,0,0-1.28,21.744V20.432h-8.912v1.312h2.32l-1.376.56A6.365,6.365,0,0,0-7.776,23.52a13.689,13.689,0,0,1-2.9.3V20.256H-15.1v5.216h1.664v-.624h2.768v-.4Zm6.624-3.76A6.791,6.791,0,0,1-5.648,22.9a6.793,6.793,0,0,1-1.9-1.152Zm-8.48.064v1.52h-1.36v-1.52ZM-15.1,12.32h4.432V10.768H-15.1Zm-.48,2.416h5.248v-1.6h-5.248Zm22.512-.16H.512v2.016H6.928v6.32H1.392v2.016H14.608V22.912h-5.6v-6.32h6.48V14.576H9.008V10.384H6.928Zm15.008-.864c.048-.4.288-2.32.336-2.752l-2.208-.16c-.064.864-.128,1.616-.288,2.912H17.1V15.76l2.368-.032a25.6,25.6,0,0,1-2.544,8.064l2.032.864a35.233,35.233,0,0,0,2.656-8.944l1.52-.016c.992-.016,1.888.128,1.888,2.112a14.737,14.737,0,0,1-.608,4.224c-.24.544-.752.736-1.472.736a16.338,16.338,0,0,1-2.08-.208l.128,2.064a20.106,20.106,0,0,0,2.368.16,3.02,3.02,0,0,0,2.56-1.04c.784-.96,1.184-3.552,1.184-5.328,0-2.16-.368-4.7-3.472-4.7Zm9.376,6.24c-.112-3.5-.7-4.688-1.536-5.9l-1.92.768a9.8,9.8,0,0,1,1.136,5.424Zm-2.1-6.752a9.863,9.863,0,0,0-1.024-2.5l-1.312.4a11.346,11.346,0,0,1,.96,2.576Zm2.384-.352a9.51,9.51,0,0,0-1.056-2.5l-1.3.4a11.674,11.674,0,0,1,1.04,2.512ZM40.7,18.8a8.631,8.631,0,0,0,2.848-6.16h1.712a12.643,12.643,0,0,1-.368,3.808.7.7,0,0,1-.736.464H42.576l.352,1.792H45.12c1.168,0,2.032-.448,2.032-7.856H39.984V12.64h1.76a6.33,6.33,0,0,1-2.4,4.8l-.1-1.008c-.352.064-.528.08-2.048.3v-1.12h1.952V14.08H37.2V12.992h2.3V11.36H37.2V10.352H35.328V11.36H32.64v1.632h2.688V14.08H33.04v1.536h2.288v1.376c-1.9.224-2.288.24-2.832.272l.192,1.792c2.624-.336,3.024-.4,6.7-1.04l-.048-.5Zm-1.568.032a4.551,4.551,0,0,1-.08.816H32.5v1.76H38.24c-1.2,1.424-4.064,2-5.856,2.192l.784,1.92c1.792-.3,5.2-1.12,6.816-3.408A10.922,10.922,0,0,0,46.816,25.5l.848-1.936a10.323,10.323,0,0,1-5.856-2.16h5.7v-1.76h-6.5a7.043,7.043,0,0,0,.08-.816Zm9.376.192c.608-.048,1.328-.1,2.448-.208v6.64h1.792V18.624c.192-.016.752-.1.976-.128.048.192.08.336.16.656l1.664-.544a14.936,14.936,0,0,0-1.248-3.2l-1.44.5a7.534,7.534,0,0,1,.432,1.1c-.448.048-1.168.1-1.648.112a29.792,29.792,0,0,0,3.152-4.5l-1.68-.672a24.552,24.552,0,0,1-1.552,2.608,8.724,8.724,0,0,0-.624-.7,18.732,18.732,0,0,0,1.76-2.944L51.072,10.3a22.259,22.259,0,0,1-1.328,2.416c-.128-.08-.192-.144-.416-.3l-.944,1.552A12.08,12.08,0,0,1,50.5,16.1c-.224.32-.544.752-.832,1.12-.3.016-.592.016-1.2.016Zm.448.656a16.5,16.5,0,0,1-.592,4.144l1.536.752a22.786,22.786,0,0,0,.608-4.672Zm7.984-9.328a10.008,10.008,0,0,1-2.416,4.816L55.9,16.752a9.579,9.579,0,0,0,1.664-2.384h3.52a80.355,80.355,0,0,1-.352,8.56c-.128.464-.352.512-.8.512H57.088l.384,2.016h3.52A1.639,1.639,0,0,0,62.48,24.32c.464-1.168.512-4.512.64-11.824H58.384a13.84,13.84,0,0,0,.56-1.984Zm-3.792,9.472a28.2,28.2,0,0,1,.448,3.7l1.68-.272a20.226,20.226,0,0,0-.656-3.7Zm2.9-2.592a17.678,17.678,0,0,1,1.936,3.92l1.76-.928A13.845,13.845,0,0,0,57.76,16.4Zm9.328,2.032a9.243,9.243,0,0,1-1.136,4.864L65.7,25.5a8.751,8.751,0,0,0,1.168-3.76h3.5v1.392c0,.48-.112.48-.608.48H68.3l.336,1.84h1.824c.56,0,1.44,0,1.44-1.456V14.016H70.3a5.923,5.923,0,0,0,.848-1.152V11.3h-2.88c.112-.272.192-.432.3-.736l-1.9-.224a8.565,8.565,0,0,1-2.464,3.5l.608,1.952c.288-.224.368-.3.56-.464Zm2.656-3.712v1.584h-1.04V15.552Zm0,3.072V20.24h-1.04V18.624Zm2.336-3.072v1.584H69.312V15.552Zm0,3.072V20.24H69.312V18.624Zm-3.76-4.608a12.137,12.137,0,0,0,.832-1.152H69.1a4.269,4.269,0,0,1-.944,1.152Zm5.44-3.12v1.68H73.76a3.558,3.558,0,0,1-1.792,1.856l.96,1.52a5.456,5.456,0,0,0,2.736-3.376h1.712c-.016,1.472-.272,1.472-.816,1.472H75.184l.4,1.6h1.808a1.316,1.316,0,0,0,1.472-.9A17.632,17.632,0,0,0,79.2,10.9Zm3.312,8.192v1.536H72.272v1.84h3.136v2.992h1.776V22.464H79.52v-1.84H77.184V19.088h2V17.376h-2v-1.3H75.36v1.3H74.336c.112-.56.16-.848.208-1.12l-1.616-.272a8.022,8.022,0,0,1-.96,3.344l1.408,1.008a5.785,5.785,0,0,0,.544-1.248ZM85.5,14.448V25.472h1.968V21.808H92.96v1.36c0,.352-.032.4-.336.4H90.416l.32,1.9H93.52a1.244,1.244,0,0,0,1.408-1.36V14.448H91.216v-4.08H89.248v4.08Zm7.456,1.728v1.216H87.472V16.176Zm0,2.832v1.2H87.472v-1.2ZM80.848,11.9a16.632,16.632,0,0,1,2.688,1.712l1.2-1.7a16.088,16.088,0,0,0-2.784-1.6Zm-.512,4.4a12.224,12.224,0,0,1,2.592,1.632l1.136-1.744a11.968,11.968,0,0,0-2.752-1.584Zm2.832,2.368A19.07,19.07,0,0,1,80.3,23.424l1.232,1.952a23.6,23.6,0,0,0,3.216-5.568Zm1.952-7.536a15.512,15.512,0,0,1,1.5,3.1l1.9-.624a13.3,13.3,0,0,0-1.616-3.184Zm8.56-.656A12.767,12.767,0,0,1,92,13.6l1.728.752A12.681,12.681,0,0,0,95.52,11.1Zm7.616.352a12.37,12.37,0,0,1-.224,1.44H97.5V14.24h3.024a13.3,13.3,0,0,1-3.52,5.376l1.52,1.568a14.473,14.473,0,0,0,2.064-2.752c1.584-1.6,2.7-1.6,2.9-1.6a1.225,1.225,0,0,1,1.168.7c-1.264.64-4.208,2.064-4.208,4.256a2.73,2.73,0,0,0,1.76,2.5,12.349,12.349,0,0,0,4.48.512c1.184,0,2.64-.048,3.2-.064V22.672c-1.3.128-2.72.192-4.032.192-1.6,0-3.136,0-3.136-1.248,0-1.024,1.408-1.712,2.256-2.144a16.9,16.9,0,0,1-.032,2.016h2.1c.016-.512.016-.768.016-1.232,0-.528-.016-1.088-.064-1.616a22.671,22.671,0,0,1,3.824-1.072l-.48-2.112a29.673,29.673,0,0,0-3.776,1.264,2.662,2.662,0,0,0-2.528-1.7,4.448,4.448,0,0,0-1.84.464,7.846,7.846,0,0,0,.528-1.248h6.88V12.272h-6.3c.144-.608.192-.864.256-1.28ZM-69.728,37.872H-74.4v-2.9h-2.16v2.9h-2.576v1.984h2.576V43.84h2.16V39.856h4.672v1.408c0,3.536-1.68,5.008-6.272,5.6l.864,2c4.5-.784,7.584-2.368,7.584-7.616V39.856H-64.9V37.872h-2.656v-2.96h-2.176Zm19.616-3.744a1.724,1.724,0,0,0-1.712,1.712,1.724,1.724,0,0,0,1.712,1.712,1.728,1.728,0,0,0,1.728-1.712A1.717,1.717,0,0,0-50.112,34.128Zm0,.976a.738.738,0,0,1,.752.736.738.738,0,0,1-.752.736.744.744,0,0,1-.736-.736A.734.734,0,0,1-50.112,35.1Zm-6.976,0v2.768h-5.44v1.92h5.44v8.976h2.128V39.792h5.168v-1.92H-54.96V35.1Zm-4.224,13.168c1.536-1.728,2.192-3.232,2.592-7.008l-2.016-.24c-.3,3.584-1.7,5.1-2.224,5.68Zm7.984-7.04c.576,3.856,1.3,5.36,2.592,7.056l1.856-1.456a10.207,10.207,0,0,1-2.368-5.872Zm6.24-.448v2.272h14.176V40.784Zm20.032-5.92V48.976h2.288V41.088a31.591,31.591,0,0,1,6.784,3.376L-16.9,42.24a32.129,32.129,0,0,0-7.872-3.408V34.864Zm12.368.848c-.064.832-.24,2.64-.24,4.64,0,1.9.144,8.144,3.648,8.144,2.528,0,3.792-3.392,4.208-4.544l-1.776-.976A11.111,11.111,0,0,1-9.9,45.2c-.32.5-.656.9-1.184.9-1.5,0-1.7-4.112-1.7-5.84A26.7,26.7,0,0,1-12.4,35.9Zm13.856,11.1c.016-3.3-.064-7.632-3.424-10.8l-1.712,1.2c2.64,2.736,2.784,5.888,2.784,9.728ZM3.952,35.04c-.032.5-.064,1.1-.16,1.856H1.376v1.968H3.52A41.925,41.925,0,0,1,.992,48.128l2.064.7a51.319,51.319,0,0,0,2.528-9.968H9.84V36.9H5.888c.112-.784.176-1.28.24-1.84Zm10.672,3.92c-4.08-.064-5.584.464-6.8.992l.64,1.744a11.594,11.594,0,0,1,4.624-.7c.672,0,1.12.032,1.552.048ZM7.888,42.912a4.339,4.339,0,0,0-1.344,2.864c0,2.944,3.792,2.944,5.568,2.944,1.792,0,2.08-.016,2.72-.064V46.592a32.039,32.039,0,0,1-3.392.16c-1.04,0-2.928,0-2.928-1.216A2.417,2.417,0,0,1,9.376,43.9Zm11.168-7.9c0,1.1-.048,4.8-.048,7.12,0,2.3,0,3.776.8,4.88a4.713,4.713,0,0,0,4.144,1.744c3.9,0,6.032-2.288,6.736-6.224l-2.08-.736C28.432,42.928,27.9,46.7,24,46.7c-2.5,0-2.848-1.488-2.848-3.376,0-2.384.16-7.792.176-8.3Zm14.4,1.344v1.9H39.3V39.68H33.76v1.856H39.3v1.376a4.879,4.879,0,0,0-1.28-.128c-2.112,0-4.128.944-4.128,3.056,0,1.312.9,2.96,4,2.96,3.536,0,3.536-2.1,3.536-2.816v-.3a22.626,22.626,0,0,1,3.248,2.592l1.392-1.856a17.608,17.608,0,0,0-4.64-2.944V41.536H46.1V39.68H41.424V38.256h4.992v-1.9H41.424V34.96H39.3v1.392Zm5.872,9.232c0,.656-.112,1.344-1.6,1.344-.736,0-1.84-.176-1.84-1.136,0-.992,1.168-1.264,1.984-1.264a4.208,4.208,0,0,1,1.456.272Zm17.136-9.072H48.976V38.48h7.536l.016,1.072a3.058,3.058,0,0,0-1.392-.32,3.276,3.276,0,1,0-.128,6.544,2.3,2.3,0,0,0,1.616-.5c-.4,1.184-1.408,1.776-5.136,1.84l.672,1.936a16.986,16.986,0,0,0,2.96-.368A4.75,4.75,0,0,0,58.928,43.7a5.965,5.965,0,0,0-.192-1.5c-.016-.064-.112-.352-.112-.4V38.48H63.04V36.512H58.624V34.9H56.432Zm.144,6.16a1.375,1.375,0,0,1-1.44,1.392,1.464,1.464,0,0,1-1.552-1.536A1.522,1.522,0,0,1,55.2,40.976,1.3,1.3,0,0,1,56.608,42.3Zm14.24-7.28.288,8.976h1.728l.288-8.976ZM70.9,45.744V48H73.1V45.744Z" transform="translate(136.49 19.73)" fill="#002063"/>
  </g>
</svg>
