<svg xmlns="http://www.w3.org/2000/svg" xmlns:xlink="http://www.w3.org/1999/xlink" width="373" height="108.542" viewBox="0 0 373 108.542">
  <defs>
    <filter id="長方形_244" x="0" y="20.542" width="373" height="88" filterUnits="userSpaceOnUse">
      <feOffset dy="3" input="SourceAlpha"/>
      <feGaussianBlur stdDeviation="3" result="blur"/>
      <feFlood flood-opacity="0.161"/>
      <feComposite operator="in" in2="blur"/>
      <feComposite in="SourceGraphic"/>
    </filter>
  </defs>
  <g id="グループ_254" data-name="グループ 254" transform="translate(-1 -948.463)">
    <g id="グループ_206" data-name="グループ 206" transform="translate(1.264 235.463)">
      <path id="パス_2776" data-name="パス 2776" d="M-76.54-5.46c0,3.72.82,5.62,6.82,5.62,3.06,0,6.26-.54,6.26-4.66,0-2.86-1.74-3.5-2.34-3.72.64-.22,2.12-.72,2.12-3.36,0-3.74-3.06-4.34-5.92-4.34-4.46,0-6.5.74-6.6,5.16h2.76c.1-1.76.16-2.64,3.86-2.64,2.58,0,3.12.82,3.12,2.18,0,1.98-1.46,1.98-2.54,1.98h-2.44v2.26h2.48c1.96,0,2.72.6,2.72,2.3,0,1.22-.4,2.32-3.36,2.32-4.06,0-4.18-.94-4.14-3.1ZM-56.3-7.72h3.38c-.26,3.46-2.02,5.5-6.3,7.22l1.48,2.3c3.4-1.44,6.78-3.82,7.34-9.52h4.14c-.14,3.26-.2,5.08-.64,6.28A1.036,1.036,0,0,1-48-.7h-2.98l.48,2.5h3.26A2.451,2.451,0,0,0-44.7.3c.68-1.58,1.02-6.56.96-9.72a10.45,10.45,0,0,0,1.8,1.5l1.64-2.12a15.327,15.327,0,0,1-5.6-7.04l-2.46.66a21.075,21.075,0,0,0,3.98,6.32H-55.36a17.721,17.721,0,0,0,3.88-6.46l-2.46-.5A13.856,13.856,0,0,1-59.7-10l1.64,2.2A16.522,16.522,0,0,0-56.3-9.16Zm32.5-.02a15.648,15.648,0,0,0-1.84-2.92l-1.56.82a23.375,23.375,0,0,1,1.8,3Zm2.62-1.38A14.5,14.5,0,0,0-23-11.82l-1.58.82a19.038,19.038,0,0,1,1.84,2.84Zm-.26-6.44c-2.04.08-11.2.42-12.92.52-1.48.08-3.08.18-4.42.18l.1,2.8c1.26-.12,7.44-.64,8.84-.76-4.76,3.04-5.12,6.36-5.12,7.66A5.452,5.452,0,0,0-31.86-.4C-30.02.5-27.98.92-23.6.94l.38-2.86c-8.32.28-8.98-2.06-8.98-3.6,0-2.5,2.18-4.6,3.32-5.48a8.534,8.534,0,0,1,5.02-1.92c.74-.02,2.04.02,2.5.02ZM-18.62,1.8h2.34V-6.84h5.6V-12.6h-6.4a15.5,15.5,0,0,0,1.32-1.52h.44a6.324,6.324,0,0,1,.54,1.5l2.32-.6a7.413,7.413,0,0,0-.48-.9h2.36c-.1.1-.14.14-.34.32l1.72,1.2h-.1v5.76h5.56v5.76c0,.4-.14.54-.64.54h-.98V-6h-9.3V.56h8.5l.22,1.24h2.82C-1.38,1.8-1.38.56-1.38-.22V-12.6H-8.8a9.98,9.98,0,0,0,1.26-1.52h.84a5.571,5.571,0,0,1,.66,1.48l2.34-.64c-.14-.28-.26-.46-.48-.84H-.66V-16.1h-5.8a6.917,6.917,0,0,0,.26-.76l-2.4-.34a7.334,7.334,0,0,1-1.74,2.84V-16.1h-4.24a5.53,5.53,0,0,0,.28-.76l-2.46-.3a8.991,8.991,0,0,1-2.94,3.64l1.08,1.16ZM-7.56-4.42v.96h-4.9v-.96Zm0,2.26V-1.1h-4.9V-2.16Zm-5.32-9.04v.84h-3.4v-.84Zm0,2.06v.86h-3.4v-.86Zm9.1-2.06v.82H-7.1v-.82Zm0,2.08v.84H-7.1v-.84Zm5.54-4.5v8.88H8.78v1.38H.5v2.3H8.78V1.88h2.4V-1.06h8.28v-2.3H11.18V-4.74h6.96v-8.88H16.22a23.116,23.116,0,0,0,1.52-2.76l-2.64-.7a24.578,24.578,0,0,1-1.6,3.46H10.18l1.5-.36A16.362,16.362,0,0,0,10.1-17.2l-2.44.64A19.032,19.032,0,0,1,9.1-13.62H5.32l1.04-.36a10.124,10.124,0,0,0-1.72-3.04l-2.4.82a10.174,10.174,0,0,1,1.44,2.58Zm7.02,2.1v1.44H4.16v-1.44Zm0,3.18v1.46H4.16V-8.34Zm6.98-3.18v1.44H11.18v-1.44Zm0,3.18v1.46H11.18V-8.34Zm7.72-5.5h5.26a13.2,13.2,0,0,1-2.1,7.5A14.1,14.1,0,0,1,20.3-.64l1.68,2.42A16.334,16.334,0,0,0,29.94-8a16.655,16.655,0,0,0,8,9.78l1.72-2.5C32.84-4.24,31.2-9.4,31.34-16.38H23.48ZM41.94,1.76c3.94-2.28,7.44-5.68,8.1-12.36h6.2a60.6,60.6,0,0,1-.68,8.56c-.26,1.12-.76,1.2-1.44,1.2H51.18l.44,2.64h3.1A2.967,2.967,0,0,0,57.98-.34c.8-2.52.94-9.68.98-12.8H50.22c0-.86.02-1.2.02-1.66v-2.24H47.6v2.18c0,.64,0,1.08-.04,1.72h-6.6v2.54h6.42c-.42,3.64-1.62,6.98-6.96,9.96ZM68.56-15.76l.36,11.22h2.16l.36-11.22Zm.06,12.94V0h2.76V-2.82Z" transform="translate(188 731)" fill="#f29600"/>
      <path id="パス_2657" data-name="パス 2657" d="M0,0,21.462,1.584,0,2.924Z" transform="translate(92.269 713) rotate(60)" fill="#f29600"/>
      <path id="パス_2658" data-name="パス 2658" d="M0,2.946l21.626-1.6L0,0Z" transform="translate(281.737 714.729) rotate(120)" fill="#f29600"/>
    </g>
    <g id="グループ_209" data-name="グループ 209" transform="translate(0 -18.491)">
      <g transform="matrix(1, 0, 0, 1, 1, 966.95)" filter="url(#長方形_244)">
        <rect id="長方形_244-2" data-name="長方形 244" width="355" height="70" rx="10" transform="translate(9 26.54)" fill="#fff"/>
      </g>
      <g id="グループ_208" data-name="グループ 208" transform="translate(42 1001.245)">
        <path id="パス_2777" data-name="パス 2777" d="M-113.675-9.5A22.357,22.357,0,0,1-121-3.05c-1.9,1.075-2.225,1.275-2.225,2.2a2.58,2.58,0,0,0,2.3,2.475,4.782,4.782,0,0,0,2.4-.925A32.123,32.123,0,0,0-110.3-6.775c1.075.975,1.125,1.05,3.5,3.525a2.414,2.414,0,0,0,1.75.825,2.732,2.732,0,0,0,2.525-2.725,2.163,2.163,0,0,0-.775-1.6,39.271,39.271,0,0,0-4.325-3.95,37.387,37.387,0,0,0,2.75-6,6.093,6.093,0,0,0,.525-2.125c0-1.425-1.725-1.925-2.625-1.925-1.3,0-1.675.775-2.025,1.8a31.882,31.882,0,0,1-2.25,5.6c-1.6-1.1-3.275-2.225-5.125-3.325A4.257,4.257,0,0,0-118.5-17.5a2.369,2.369,0,0,0-2.175,2.3c0,.9.55,1.35,1.475,1.9C-117.525-12.275-114.9-10.425-113.675-9.5ZM-78.8-7.225c.95,0,2.425-.125,2.425-2.275A2.066,2.066,0,0,0-78.8-11.775H-96.2c-1.025,0-2.425.175-2.425,2.3A2.059,2.059,0,0,0-96.2-7.225Zm12.425-10.9c0-1.475-.85-1.975-2.225-1.975-1.875,0-2.175,1.025-2.175,1.975v5c0,5.975-.15,7.5-2.5,10.35a2.314,2.314,0,0,0-.775,1.65A2.57,2.57,0,0,0-71.475,1.25c.45,0,1.225-.05,2.5-1.85,2.6-3.65,2.6-8.075,2.6-12.325ZM-63.95-1.35A2.161,2.161,0,0,0-61.6,1.125c1.975,0,6.025-1.475,8.625-5.35A12.663,12.663,0,0,0-50.9-9.45c0-1.7-2-1.925-2.45-1.925a1.737,1.737,0,0,0-1.775,1.4,14.329,14.329,0,0,1-1.2,2.825c-1.325,2.325-2.85,2.875-3.025,2.875-.225,0-.225-.225-.225-.525V-18.4c0-1.5-.825-1.975-2.225-1.975-1.825,0-2.15.975-2.15,1.975Zm25.725-13.8a12.816,12.816,0,0,0-3.175,2.7A9.364,9.364,0,0,0-43.775-6.3a6.5,6.5,0,0,0,4.1,6.35A18.653,18.653,0,0,0-32.45,1.3c1.825,0,3.875,0,3.875-2.6A1.83,1.83,0,0,0-30.55-3.375h-2.3c-3.425,0-6.4-.35-6.4-3.4,0-4,5.025-8.425,10.025-8.5,1.4-.025,2.9-.05,2.9-2.275,0-2.075-1.55-2.075-2.925-2.075-6.5,0-16.85.425-17.65.525a1.988,1.988,0,0,0-1.875,2.3,2,2,0,0,0,2.025,2.275c.425,0,2.6-.175,3.075-.2C-41.625-14.85-39.375-15.05-38.225-15.15Zm5.425,4.2c.675,1.55.75,1.7,1.275,1.7.3,0,1.025-.175,1.025-.85a6.452,6.452,0,0,0-.75-2.05c-.5-1-.825-1.275-1.225-1.275S-33.5-13.1-33.5-12.6a1.447,1.447,0,0,0,.075.425C-33.375-11.975-32.9-11.15-32.8-10.95Zm2.575-1.175c.7,1.575.75,1.7,1.275,1.7.425,0,1.025-.275,1.025-.85A6.368,6.368,0,0,0-28.65-13.3c-.5-.975-.8-1.3-1.225-1.3-.4,0-1.05.325-1.05.825a1.447,1.447,0,0,0,.075.425C-30.8-13.175-30.325-12.325-30.225-12.125Zm17.575-1.9a11.433,11.433,0,0,0,2.575-.225c.275-.075,1.125-.425,1.125-1.85a1.817,1.817,0,0,0-2.125-2q-.525,0-1.575.075V-18.7c0-.95-.075-2.2-2.075-2.2-2.025,0-2.1,1.225-2.1,2.2v.875c-1.275.05-1.475.025-4,.05-.9,0-2.4.025-2.4,2,0,2,1.525,2,2.2,2,.5,0,.875,0,4.2-.075v2.25c-1.65.625-6.575,2.5-6.575,7.5a5.418,5.418,0,0,0,5.8,5.575c2.275,0,3.3-.825,3.95-1.775,1-1.425,1-2.925,1-4.575V-8.7a8.35,8.35,0,0,1,1.625-.15c3.025,0,4.875.8,4.875,3.375A3.134,3.134,0,0,1-7-3.275c-.85.925-2.375.95-3.25.975-.85,0-2.3.025-2.3,1.8,0,2.075,1.775,2.075,2.45,2.075,5.125,0,8.575-2.65,8.575-7.2,0-6-5.8-7-9.1-7a17.21,17.21,0,0,0-2.025.125Zm-4.1,8.975c0,1.3-.2,2.475-1.225,2.475-.775,0-1.4-.675-1.4-1.75,0-2.05,1.925-2.975,2.625-3.3ZM-8.6-19.425a1.8,1.8,0,0,0-.6,1.3,1.855,1.855,0,0,0,.9,1.5A12.654,12.654,0,0,1-5.15-13.4c.45.6.875,1.175,1.725,1.175A2.287,2.287,0,0,0-1.1-14.4c0-.875-.55-1.85-2.525-3.675-.3-.275-2.2-2-3.425-2A2.388,2.388,0,0,0-8.6-19.425ZM10.55.1h4.725c0,2.3,1.65,2.3,3.425,2.3a24.3,24.3,0,0,0,3.325-.15A2.572,2.572,0,0,0,23.7-.475V-17.65c0-2.425-1.125-3.1-3.1-3.1H16.1c-1.975,0-3.125.675-3.125,3.1v4.55c0,2.425,1.15,3.125,3.125,3.125h3.5v7.25c0,.45,0,.8-.525.8-.175,0-1.2-.05-1.425-.05.025-.3.025-.4.025-1.2V-5.75c0-2.8-.5-3.275-3.275-3.275H10.55c-2.775,0-3.25.5-3.25,3.275v2.575C7.3-.375,7.775.1,10.55.1ZM16.9-16.45v-.6a.357.357,0,0,1,.4-.4h1.9a.368.368,0,0,1,.4.4v.6Zm.4,3.55a.368.368,0,0,1-.4-.4v-.6h2.7v1ZM13.875-3.825a.35.35,0,0,1-.375.4H11.475a.357.357,0,0,1-.4-.4v-1.45a.368.368,0,0,1,.4-.4H13.5a.361.361,0,0,1,.375.4Zm-8.55-6.15H8.85c1.975,0,3.125-.675,3.125-3.125v-4.55c0-2.425-1.15-3.1-3.125-3.1H4.375c-1.975,0-3.125.675-3.125,3.1V.425c0,1.15.4,2.05,2.15,2.05A1.793,1.793,0,0,0,5.325.425Zm0-6.475v-.6a.357.357,0,0,1,.4-.4h1.9a.368.368,0,0,1,.4.4v.6Zm0,2.55h2.7v.6a.357.357,0,0,1-.4.4h-2.3ZM29.25-19.825c-1.075,0-1.975.1-2.35,1.475a39.633,39.633,0,0,0-.35,5.9,35.98,35.98,0,0,0,.675,7.75c.25,1.125,1.45,5.8,5.425,5.8,4.575,0,6.5-5.75,6.5-7.45a2.122,2.122,0,0,0-2.375-2c-1.275,0-1.475.625-1.925,2.05-.45,1.375-1.025,2.325-2.025,2.325a1.139,1.139,0,0,1-.975-.6c-1-1.575-1-5.725-1-6.625,0-1.325.075-2.7.125-3.625.025-.425.275-2.525.275-2.975A1.815,1.815,0,0,0,29.25-19.825ZM46.4-.65c2.125,0,2.275-1.625,2.275-2.625,0-3.925-.35-9.5-2-12.175a7.108,7.108,0,0,0-5.925-3.2,2.013,2.013,0,0,0-1.65.6,2.382,2.382,0,0,0-.575,1.6c0,1.85,1.1,1.975,1.725,2.05a4.041,4.041,0,0,1,1.625.45C44-12.7,44.025-7.7,44-3.25,44-2.225,44-.65,46.4-.65Zm20.55-9.9c1.65,0,1.925-.85,1.975-1.7,2,1.275,2.775,1.525,3.55,1.525a2.284,2.284,0,0,0,2.05-2.45,2.039,2.039,0,0,0-1.425-2.05,24.729,24.729,0,0,1-6.925-4.55c-1.525-1.35-2.075-1.85-3.675-1.85-1.65,0-2.275.55-3.65,1.8a25.142,25.142,0,0,1-7.15,4.7A1.967,1.967,0,0,0,50.475-13.2a2.318,2.318,0,0,0,2.1,2.475A7.909,7.909,0,0,0,56-12.225c.075,1,.5,1.675,2,1.675Zm-7.925-3.775a24.762,24.762,0,0,0,2.7-2.25c.4-.375.55-.525.775-.525s.375.15.775.525a26.25,26.25,0,0,0,2.7,2.25ZM72.5-5.875c0-2.75-1.325-3.475-3.45-3.475H56.075c-2.15,0-3.475.725-3.475,3.475V-1.35c0,2.75,1.325,3.475,3.475,3.475H69.05c2.125,0,3.45-.725,3.45-3.475ZM68.175-2.4a.618.618,0,0,1-.675.675H57.625a.633.633,0,0,1-.7-.7v-2.4a.632.632,0,0,1,.7-.7H67.5a.63.63,0,0,1,.675.675Zm13.2-9.8a30,30,0,0,1-3.95,4.9c-1.25,1.325-1.55,1.625-1.55,2.475a2.421,2.421,0,0,0,2.3,2.225c1.05,0,1.475-.65,3.1-3.2,0,.775-.05,5.45-.025,5.8.1,1.3,1.1,1.75,2.2,1.75,2.125,0,2.125-1.7,2.125-2.525,0-.425-.05-2.5-.05-2.975,0-2.15,0-5.5.05-7.5a7.294,7.294,0,0,1,4.75-2.025,4.774,4.774,0,0,1,2.425.6c1.325.825,1.675,2.65,1.675,3.9,0,4.2-3.15,5.375-5.25,5.5-1.85.1-3,.15-3,1.95A2.08,2.08,0,0,0,88.55.95,13.775,13.775,0,0,0,90.5.75a10.606,10.606,0,0,0,5.15-2.025C98.575-3.525,98.8-8.05,98.8-9.4c0-6.35-4.55-7.925-7.725-7.925a9.012,9.012,0,0,0-5.3,1.675c.05-.625.175-2.55.175-3.1,0-1.475-.85-2.05-2.225-2.05-1.025,0-2.075.375-2.2,1.725-.05.5-.075,1.6-.1,2.1L78.6-16.85c-.825.025-2.225.275-2.225,2.05a2.016,2.016,0,0,0,2.45,2.075l2.55-.15Zm27.55.7c4.025-.1,4.475-.125,6.825-.175V-10.4c0,.75,0,1.8-.975,1.8a2.778,2.778,0,0,1-1.15-.3,3.216,3.216,0,0,0-1.225-.25,1.814,1.814,0,0,0-1.775,2c0,2.325,4,2.625,4.675,2.625,4.65,0,4.75-2.3,4.85-7.25a9.511,9.511,0,0,0,2.9-.225c1.075-.3,1.125-1.5,1.125-1.9a1.772,1.772,0,0,0-1.2-1.925,13.355,13.355,0,0,0-2.85-.05,27.329,27.329,0,0,0-.15-3.4c-.225-1.4-1.25-1.55-2.2-1.55a1.927,1.927,0,0,0-2.15,2.2c0,.85.05,2,.1,2.85-3.325.075-3.675.1-6.75.175L109-18.125c.025-1.5-.55-2.275-2.2-2.275-1.9,0-2.125,1.175-2.125,2.275v2.65a10.024,10.024,0,0,0-2.7.225,1.749,1.749,0,0,0-1.125,1.875,1.9,1.9,0,0,0,2.175,2.075c.05,0,1.525-.05,1.625-.075l.025,4.95c0,.525,0,.7.125,2.4.35,4.725,4.525,5.25,9.425,5.25A32.8,32.8,0,0,0,120.25.75,1.885,1.885,0,0,0,121.8-1.3a1.869,1.869,0,0,0-1.925-2.05,13.483,13.483,0,0,0-1.975.175,34.633,34.633,0,0,1-4.55.3c-4.375,0-4.5-.9-4.475-3.925Z" transform="translate(166.9 26.66)" fill="#002063"/>
        <g id="グループ_207" data-name="グループ 207" transform="translate(53.45 37.66)">
          <path id="パス_2779" data-name="パス 2779" d="M-19.014-3.228c0,2.3.7,3.324,4.092,3.324,1.476,0,3.732-.144,3.732-2.784a2.084,2.084,0,0,0-1.464-2.244c.288-.084,1.344-.372,1.344-2.052,0-2.568-2.448-2.568-3.564-2.568-2.448,0-3.864.348-3.948,3.024h1.44c.012-.924.024-1.728,2.58-1.728,1.428,0,2.064.36,2.064,1.44,0,1.356-1.116,1.356-1.716,1.356h-1.488V-4.3h1.488c1.764,0,1.836.9,1.836,1.548,0,1.284-.768,1.548-2.472,1.548-2.52,0-2.508-.84-2.5-2.028ZM-2.3-6.84c.024-2.712-2.424-2.712-3.516-2.712-2.532,0-4.032.42-4.032,4.824C-9.846-1.176-9.138.1-5.97.1c2.688,0,3.816-.888,3.816-3.132,0-2.5-1.884-2.976-3.5-2.976A3.369,3.369,0,0,0-8.394-5a6.032,6.032,0,0,1,.264-2.22c.228-.612.648-1.044,2.292-1.044,2.148,0,2.136.84,2.124,1.428ZM-5.91-4.752c1.944,0,2.328.684,2.328,1.728,0,1.2-.3,1.812-2.352,1.812-1.176,0-2.424-.156-2.424-1.7C-8.358-3.948-8.046-4.752-5.91-4.752Zm5.52-4.7-.12,5.3H.822c.168-.42.48-.924,2.424-.924,2.244,0,2.316.948,2.316,2.064,0,1.464-.684,1.812-2.508,1.812C.666-1.2.666-2.052.654-2.94H-.774C-.726-.636.366.1,3.1.1,6.2.1,6.99-.972,6.99-3.2c0-2.628-1.56-3.144-3.456-3.144a3.614,3.614,0,0,0-2.676.732L.942-8.16H6.618v-1.3ZM9.258,1.008h1.32V.384h6.108v.624h1.332V-9.648H9.258ZM16.686-5.3H10.578V-8.412h6.108Zm0,4.452H10.578V-4.08h6.108Z" transform="translate(20 11.183)" fill="#002063"/>
          <path id="パス_2778" data-name="パス 2778" d="M-15.24-3.732a3.929,3.929,0,0,0,1.524-.576,2.367,2.367,0,0,0,1.044-2.28c0-2.736-2.016-2.964-3.828-2.964-3.168,0-3.756,1.224-3.78,3.264h1.416c.012-1.5.444-1.968,2.448-1.968,1.776,0,2.328.5,2.328,1.668s-.516,1.464-1.572,1.62l-2.352.348c-2.3.336-2.424,2.088-2.424,3.576V0h7.728V-1.3h-6.3V-1.56c0-1.5.66-1.68,1.488-1.812Zm8.52-5.724-4.992,5.832v1.56h5.544V0h1.416V-2.064h1.584v-1.3H-4.752v-6.1Zm.552,6.1h-4.116l4.116-4.872ZM-2.244.324h1.152V-.6H1.5V-9.72H-2.244ZM.36-8.508v2.7H-1.092v-2.7Zm0,3.828v2.9H-1.092v-2.9Zm8-4.5H5.892V-10.2H4.68v1.02H2.292v1.152H4.68v1.392H1.872v1.164h4.4v1.188H1.968v1.152H6.276V-.384c0,.18-.18.192-.264.192H4.224l.24,1.224H6.4c1.116,0,1.116-.876,1.116-1.224v-2.94H8.64V-4.284H7.512V-5.472H8.736V-6.636H5.892V-8.028H8.364ZM2.1-2.232A9.858,9.858,0,0,1,3.648-.2L4.692-1a8.159,8.159,0,0,0-1.62-1.932Zm16.992,1.8c0,.24-.132.288-.276.288H17.46l.192,1.2h1.836c.8,0,.8-.792.8-1.128V-9.708H15.54v4.38h3.552Zm0-8.292v.792H16.7v-.792Zm0,1.608v.792H16.7v-.792ZM9.912,1.056H11.1V-5.328h3.372v-4.38H9.912Zm3.4-9.78v.792H11.1v-.792Zm0,1.608v.792H11.1v-.792ZM12.3-4.644V-.192h5.568V-4.644Zm4.428.972v.828h-3.3v-.828Zm0,1.632v.864h-3.3V-2.04Z" transform="translate(71 11.183)" fill="#002063"/>
          <path id="パス_2780" data-name="パス 2780" d="M-32.244-9.24c-.768,0-4.56.012-5.412.012-.6,0-2.088,0-2.448-.012v1.356c.768-.048,1.8-.072,4.272-.108a7.4,7.4,0,0,0-1.248.7l.864.852a10.507,10.507,0,0,1,3.972-1.62Zm-6.924,3.78a4.139,4.139,0,0,0-1.4,2.844A2.609,2.609,0,0,0-39.108-.36c1.02.492,2.04.6,4.4.6a20.917,20.917,0,0,0,3.12-.168l-.048-1.344a24.591,24.591,0,0,1-3.516.216c-1.8,0-4.1-.024-4.1-1.584A2.938,2.938,0,0,1-38.2-4.74Zm6.84.336a9.793,9.793,0,0,0-1.14-1.764l-.816.492A10.517,10.517,0,0,1-33.168-4.62Zm1.476-.72A8.126,8.126,0,0,0-31.98-7.536l-.84.492a10.492,10.492,0,0,1,1.128,1.7ZM-24.54-9.78v10.9h1.188V.48H-19.9v.636h1.212V-9.78ZM-19.9-5.64v1.848h-3.456V-5.64Zm0-2.976V-6.78h-3.456V-8.616Zm0,5.976V-.7h-3.456V-2.64Zm-9.48,1.224a10.788,10.788,0,0,0,1.668-3.336V1.116h1.164V-4.26a9.416,9.416,0,0,0,1.056,1.6l.684-1.128a8.568,8.568,0,0,1-1.74-2.172V-6.78h1.536v-1.2h-1.536v-2.2h-1.164v2.2h-1.908v1.2h1.74A11.254,11.254,0,0,1-29.82-2.928Zm19.02-8.16a4.367,4.367,0,0,1-.924,2.652,4.816,4.816,0,0,1-1.956,1.332l.66,1.14A5.568,5.568,0,0,0-9.72-7.392,6.059,6.059,0,0,0-6.78-4.428l.636-1.152A4.322,4.322,0,0,1-9.156-9.648v-.54h-1.2Zm-6.912,4.224h3.84V-6.42h-3.84Zm6.912,1.068a4.976,4.976,0,0,1-.972,2.94A4.363,4.363,0,0,1-13.368-.06l.672,1.128a5.523,5.523,0,0,0,3-3.012,4.994,4.994,0,0,0,3,3.012L-6.12-.144A4.155,4.155,0,0,1-9.192-4.356v-.7h-1.164ZM-13.428-9.9h-3.84v1.092h3.84Zm.576.576a7.794,7.794,0,0,1,.42,2.184l1.212-.348a9.265,9.265,0,0,0-.528-2.16ZM-17.268,1.068H-16.2V.6h2.772V-2.82h-3.84ZM-14.5-1.788V-.444h-1.7V-1.788ZM-17.268-3.54h3.84V-4.632h-3.84Zm4.236-.4a8.958,8.958,0,0,1,.7,2.3l1.188-.336a10.535,10.535,0,0,0-.78-2.316ZM-17.64-7.068h4.608V-8.16H-17.64ZM-7.68-9.7a7.815,7.815,0,0,1-.8,2.112l1.068.42a9.449,9.449,0,0,0,.852-2.16Zm.168,5.364a9.066,9.066,0,0,1-.876,2.244l1.02.48A10.2,10.2,0,0,0-6.384-4.02ZM-5.4-6.8v3.072h1.26V-5.664H4.1v1.932h1.26V-6.8H3.588A19.178,19.178,0,0,0,4.44-8.568l-.984-.3c.768-.108,1.3-.216,1.836-.324l-.66-1.044a37.863,37.863,0,0,1-7.764.72c-.936,0-1.536-.024-2.184-.048l.24,1.092c.336.012.792.012,1.308.024l-.576.216c.192.372.528,1.068.684,1.428Zm3,0c-.216-.552-.444-1.1-.7-1.644.852,0,1.584-.012,2-.024A11.455,11.455,0,0,1-.48-6.8Zm3.18,0a13.544,13.544,0,0,0-.528-1.74c1.884-.144,2.088-.168,2.82-.264a10.94,10.94,0,0,1-.852,2ZM-3.252-3.072a7.287,7.287,0,0,0,1.98,2.064,18.5,18.5,0,0,1-4.38.828l.528,1.236A18.054,18.054,0,0,0,.024-.252a15.581,15.581,0,0,0,5.2,1.368L5.7-.192a17.239,17.239,0,0,1-4.344-.816A7.521,7.521,0,0,0,3.708-3.624v-1.14H-3.78v1.14H2.2a7.879,7.879,0,0,1-2.2,2A6.929,6.929,0,0,1-2.136-3.444ZM7.74,1.044H8.964V-7.44a15.589,15.589,0,0,0,.912-2.616l-1.284-.192A11.163,11.163,0,0,1,6.18-5.316l.552,1.4A8.571,8.571,0,0,0,7.74-5.172Zm2.328-5.952A18.76,18.76,0,0,1,12.084-1.98l1.1-.744A20.734,20.734,0,0,0,11.124-5.6Zm4.944-2.76H9.624v1.236h5.388V-.54c0,.144-.024.348-.312.348L12.48-.228l.168,1.272h2.22C15.9,1.044,16.3.636,16.3-.228v-6.2h1.356V-7.668H16.3v-2.544H15.012Zm8.34-2.52v2.064H18.9V-1.9h1.248v-.672h3.2V1.068h1.26V-2.568H27.9V-1.9h1.272V-8.124h-4.56v-2.064ZM27.9-6.876v3.06H24.612v-3.06Zm-4.548,0v3.06h-3.2v-3.06Zm11.9-2.58.168,6.792h1.14l.18-6.792Zm0,7.932V0h1.488V-1.524Z" transform="translate(144 11)" fill="#002063"/>
        </g>
        <g id="グループ_205" data-name="グループ 205" transform="translate(0 5.477)">
          <path id="パス_2662" data-name="パス 2662" d="M16.358,83.985a3.251,3.251,0,0,0,2.317-.962L32.224,69.479A1.914,1.914,0,0,0,30.34,67.9H2.377A1.914,1.914,0,0,0,.492,69.479L14.037,83.024A3.26,3.26,0,0,0,16.358,83.985Z" transform="translate(-0.461 -67.897)" fill="#002063"/>
          <path id="パス_2663" data-name="パス 2663" d="M31.8,145.185l-.007.007v-.014L19.842,157.129a5.577,5.577,0,0,1-7.891,0l-7.008-7.006L.01,145.182v.01l-.01-.01v16.648a1.916,1.916,0,0,0,1.915,1.915H29.878a1.916,1.916,0,0,0,1.915-1.915V152.08Z" transform="translate(0 -140.378)" fill="#002063"/>
        </g>
      </g>
    </g>
  </g>
</svg>
