<svg xmlns="http://www.w3.org/2000/svg" xmlns:xlink="http://www.w3.org/1999/xlink" width="287.44" height="105.216" viewBox="0 0 287.44 105.216">
  <defs>
    <filter id="パス_2861" x="0" y="0" width="287.44" height="105.216" filterUnits="userSpaceOnUse">
      <feOffset dy="3" input="SourceAlpha"/>
      <feGaussianBlur stdDeviation="3" result="blur"/>
      <feFlood flood-opacity="0.161"/>
      <feComposite operator="in" in2="blur"/>
      <feComposite in="SourceGraphic"/>
    </filter>
  </defs>
  <g transform="matrix(1, 0, 0, 1, 0, 0)" filter="url(#パス_2861)">
    <path id="パス_2861-2" data-name="パス 2861" d="M-64.416-12.352h-1.952v3.6l-1.456.352.208,1.984,1.248-.288V-.656c0,1.264.144,1.872,2.016,1.872h5.824c1.216,0,1.936-.208,2.144-3.312L-58.24-2.72c-.128,1.872-.176,1.968-1.04,1.968h-4.24c-.736,0-.9-.08-.9-.9V-7.184l1.84-.432v5.6h1.9V-8.08l1.9-.464c0,1.616-.1,2.944-.112,3.168-.064.56-.224.608-.672.608h-.688l.32,1.888h1.056c1.968,0,1.968-.688,2-8.1l-3.808.9v-3.488h-1.9v3.936l-1.84.432ZM-70.128,1.424h1.9V-9.568a17.527,17.527,0,0,0,1.008-3.856l-1.968-.144A12.125,12.125,0,0,1-71.792-7.44l.72,2.592a9.171,9.171,0,0,0,.944-1.1Zm21.072-13.008a13.9,13.9,0,0,1-1.376,6,11.008,11.008,0,0,1-5.344,5.12l1.424,1.888a12.74,12.74,0,0,0,6.384-8.032,12.807,12.807,0,0,0,6.384,8.016l1.36-1.92a10.937,10.937,0,0,1-5.264-4.96,15.332,15.332,0,0,1-1.376-6.176v-1.936h-2.192Zm15.28-.16V-9.7h8.016v-2.048Zm.464,5.392a5.421,5.421,0,0,0-.96,2.976c0,3.344,3.728,3.344,5.856,3.344.88,0,2.08-.032,2.928-.112V-2.272a31.637,31.637,0,0,1-4.064.16c-1.872,0-2.768-.448-2.768-1.456a3.661,3.661,0,0,1,.736-2.016Zm-4.512-6.512a64.99,64.99,0,0,0-.576,8A27.965,27.965,0,0,0-37.872.8l2.16-.208a28.33,28.33,0,0,1-.544-5.808,45.012,45.012,0,0,1,.64-7.472Zm24.08,3.408H-17.2V-7.6h3.456v1.952h-2.832v7.12h1.92V.688h3.744v.784h1.888v-7.12h-2.752V-7.6H-8.4V-9.456h-3.376v-1.968a16.228,16.228,0,0,0,2.992-.544l-.752-1.776a33.77,33.77,0,0,1-7.808.88l.368,1.84c.992,0,2.176-.1,3.232-.192Zm2.832,5.584V-1.12h-3.744V-3.872ZM-23.1-11.7h5.216v-1.568H-23.1Zm-.5,2.384h6.256v-1.6H-23.6Zm.5,10.784h1.856V.864h3.36V-3.744H-23.1Zm3.472-3.728V-.688h-1.616V-2.256ZM-23.1-6.992h5.216V-8.544H-23.1Zm0,2.416h5.216V-6.16H-23.1ZM.464-11.488H-7.024V-9.52H.512L.528-8.448a3.058,3.058,0,0,0-1.392-.32A3.263,3.263,0,0,0-4.352-5.44,3.238,3.238,0,0,0-.992-2.224a2.3,2.3,0,0,0,1.616-.5C.224-1.536-.784-.944-4.512-.88l.672,1.936A16.986,16.986,0,0,0-.88.688,4.75,4.75,0,0,0,2.928-4.3a5.965,5.965,0,0,0-.192-1.5c-.016-.064-.112-.352-.112-.4V-9.52H7.04v-1.968H2.624V-13.1H.432Zm.144,6.16A1.375,1.375,0,0,1-.832-3.936,1.464,1.464,0,0,1-2.384-5.472,1.522,1.522,0,0,1-.8-7.024,1.3,1.3,0,0,1,.608-5.7Zm20.48-7.088c-1.68.016-8.432.064-9.616.064-.336,0-.752-.016-.992-.032l-.016,2.128c.32-.016,4.9-.144,5.344-.128a9.518,9.518,0,0,0-1.616.88L15.648-8.24a13.347,13.347,0,0,1,5.44-2.176ZM11.68-7.264A5.728,5.728,0,0,0,9.84-3.328C9.84.4,14.528.4,17.872.4A29.077,29.077,0,0,0,21.936.224l-.048-2.16a39.262,39.262,0,0,1-4.816.272c-3.3,0-5.088-.224-5.088-1.984a3.611,3.611,0,0,1,1.232-2.5Zm17.6-5.76c0,1.04-.016,2.016.048,3.472a2.649,2.649,0,0,0,.64,1.952c-1.248.56-4.16,1.936-4.16,4.736,0,3.6,4.752,3.6,8.352,3.6a34.477,34.477,0,0,0,4.016-.16V-1.6a30.183,30.183,0,0,1-4.656.256c-3.616,0-5.472-.064-5.472-1.76,0-2.576,5.712-3.888,9.68-4.272l-.256-2.24a27.984,27.984,0,0,0-5.6,1.3c-.352-.464-.368-.944-.368-2.736,0-.88.016-1.472.032-1.968Zm12.64.048a38.454,38.454,0,0,0-.56,6.768A43.573,43.573,0,0,0,41.84.7L43.984.448a33.877,33.877,0,0,1-.544-6.512,30.888,30.888,0,0,1,.656-6.7Zm3.12,2.624v2h4.624l.064,3.216a5.24,5.24,0,0,0-1.28-.128c-2.384,0-3.664,1.488-3.664,3.04,0,.848.48,2.928,3.7,2.928,3.184,0,3.232-2.016,3.248-2.9a12.738,12.738,0,0,1,1.984,1.84l1.36-1.84a13.14,13.14,0,0,0-3.264-2.3L51.76-8.352h2.864v-2h-2.9v-2.592h-2.1v2.592Zm4.72,7.824c0,.64-.016,1.456-1.36,1.456-1.52,0-1.7-.832-1.7-1.168,0-.688.656-1.264,1.792-1.264a2.971,2.971,0,0,1,1.264.272ZM61.968-.352A27.5,27.5,0,0,0,58.736-3.92L57.024-2.768A30.759,30.759,0,0,1,60,.96Zm-185.7,13.7a12.493,12.493,0,0,1,1.808.768h-4.816V19.7h5.472a4.5,4.5,0,0,1-.208.784h-6.048v1.584h5.024a2.863,2.863,0,0,1-.912.608,12.675,12.675,0,0,1-4.288.912l.8,1.9A12.573,12.573,0,0,0-121.5,23.7a4.684,4.684,0,0,0,1.472-1.632h5.008c-.1,1.408-.336,1.52-.912,1.52h-2.88l.32,1.872h3.36a1.677,1.677,0,0,0,1.712-1.12,13.723,13.723,0,0,0,.512-3.856h-6.448c.064-.3.1-.416.16-.784h5.952V14.112h-4.3a14.616,14.616,0,0,0,3.792-1.648V10.832h-12.976v1.552h4Zm2.816,2.048v.96H-124.8v-.96Zm0,2.032V18.4H-124.8v-.976Zm5.712-2.032v.96h-3.9v-.96Zm0,2.032V18.4h-3.9v-.976Zm-2.224-5.04a9.9,9.9,0,0,1-2.384,1.04,14.927,14.927,0,0,0-1.984-1.04Zm15.264,11.184c-.448-.416-1.184-1.056-2.608-2.16a11.2,11.2,0,0,0,1.728-2.256l-1.68-.9a14.442,14.442,0,0,1-1.552,2.016,24.467,24.467,0,0,0-2.912-1.776l-1.168,1.456a22.61,22.61,0,0,1,2.64,1.648,15.28,15.28,0,0,1-3.936,2.064l1.2,1.792a17.549,17.549,0,0,0,4.256-2.7,29.824,29.824,0,0,1,2.608,2.384Zm5.6-10.4V11.44h-10.672c.192-.32.256-.432.5-.832l-2.128-.384a9.621,9.621,0,0,1-2.88,3.472l1.264,1.632a20.446,20.446,0,0,0,2.048-2.16Zm-14.848,4.9h10.544c-.032.464-.064,1.376-.064,2.56,0,2.448.32,4.736,2.24,4.736a1.684,1.684,0,0,0,1.536-.88,6.817,6.817,0,0,0,.848-2.3l-1.36-1.328c-.208.928-.512,2.272-.9,2.272-.464,0-.464-1.7-.464-2.144,0-1.312.144-3.68.208-4.608h-12.592Zm2.624-4.1v1.6h11.072v-1.6Zm18.72-.256c.048-.4.288-2.32.336-2.752l-2.208-.16c-.064.864-.128,1.616-.288,2.912H-94.9V15.76l2.368-.032a25.6,25.6,0,0,1-2.544,8.064l2.032.864a35.233,35.233,0,0,0,2.656-8.944l1.52-.016c.992-.016,1.888.128,1.888,2.112a14.737,14.737,0,0,1-.608,4.224c-.24.544-.752.736-1.472.736a16.338,16.338,0,0,1-2.08-.208l.128,2.064a20.106,20.106,0,0,0,2.368.16,3.02,3.02,0,0,0,2.56-1.04c.784-.96,1.184-3.552,1.184-5.328,0-2.16-.368-4.7-3.472-4.7Zm9.376,6.24c-.112-3.5-.7-4.688-1.536-5.9l-1.92.768a9.8,9.8,0,0,1,1.136,5.424Zm-2.1-6.752a9.863,9.863,0,0,0-1.024-2.5l-1.312.4a11.346,11.346,0,0,1,.96,2.576Zm2.384-.352a9.51,9.51,0,0,0-1.056-2.5l-1.3.4a11.675,11.675,0,0,1,1.04,2.512Zm1.712-1.136c-.064.832-.24,2.64-.24,4.64,0,1.9.144,8.144,3.648,8.144,2.528,0,3.792-3.392,4.208-4.544l-1.776-.976A11.112,11.112,0,0,1-73.9,21.2c-.32.5-.656.9-1.184.9-1.5,0-1.7-4.112-1.7-5.84A26.7,26.7,0,0,1-76.4,11.9Zm13.856,11.1c.016-3.3-.064-7.632-3.424-10.8l-1.712,1.2c2.64,2.736,2.784,5.888,2.784,9.728ZM-61.6,11.2v2.032l6.032-.1c-2.384,2.192-4.784,4.4-7.2,6.528l1.2,1.856c.592-.624,2.208-2.208,2.752-2.72a6.9,6.9,0,0,1,4.1-1.408,2.622,2.622,0,0,1,2.976,2.7,2.672,2.672,0,0,1-2.208,2.688c.016-.224.032-.32.032-.448a2.84,2.84,0,0,0-2.96-2.9c-1.44,0-2.992.9-2.992,2.5a2.619,2.619,0,0,0,1.3,2.192,5.269,5.269,0,0,0,2.976.7c4.224,0,6.08-2.3,6.08-4.912a4.179,4.179,0,0,0-4.416-4.368,4.8,4.8,0,0,0-1.776.288c.464-.384.736-.608,3.28-2.912V11.2Zm5.92,11.84c-2.064.16-2.416-.576-2.416-1.024,0-.512.432-.9,1.12-.9a1.362,1.362,0,0,1,1.36,1.488A1.487,1.487,0,0,1-55.68,23.04Zm20.768-11.456c-1.68.016-8.432.064-9.616.064-.336,0-.752-.016-.992-.032l-.016,2.128c.32-.016,4.9-.144,5.344-.128a9.518,9.518,0,0,0-1.616.88l1.456,1.264a13.347,13.347,0,0,1,5.44-2.176Zm-9.408,5.152a5.728,5.728,0,0,0-1.84,3.936c0,3.728,4.688,3.728,8.032,3.728a29.078,29.078,0,0,0,4.064-.176l-.048-2.16a39.262,39.262,0,0,1-4.816.272c-3.3,0-5.088-.224-5.088-1.984a3.611,3.611,0,0,1,1.232-2.5Zm17.6-5.76c0,1.04-.016,2.016.048,3.472a2.649,2.649,0,0,0,.64,1.952c-1.248.56-4.16,1.936-4.16,4.736,0,3.6,4.752,3.6,8.352,3.6a34.477,34.477,0,0,0,4.016-.16V22.4a30.183,30.183,0,0,1-4.656.256c-3.616,0-5.472-.064-5.472-1.76,0-2.576,5.712-3.888,9.68-4.272l-.256-2.24a27.984,27.984,0,0,0-5.6,1.3c-.352-.464-.368-.944-.368-2.736,0-.88.016-1.472.032-1.968Zm14.768-.16c-.032.688-.112,1.536-.272,2.9H-14.9V15.76l2.368-.032a24.517,24.517,0,0,1-2.608,7.984l2.08.96c.432-.784,1.5-2.8,2.64-8.96l1.568-.016c.992-.016,1.872.128,1.872,2.112a14.737,14.737,0,0,1-.608,4.224c-.256.56-.752.736-1.472.736a14.538,14.538,0,0,1-2.08-.208l.128,2.064a21.782,21.782,0,0,0,2.368.16,2.988,2.988,0,0,0,2.56-1.04c.784-.96,1.184-3.552,1.184-5.328,0-2.16-.368-4.7-3.472-4.7H-10.08c.16-.928.24-1.728.352-2.768Zm11.36,8.736c-.352-4.128-1.536-5.92-2.64-7.3l-1.824.944c.784,1.008,1.968,2.688,2.208,6.72Zm4.784-6.56H1.44V14.96H4.112l-.1,2.432H1.2v1.952H3.952c0,3.92.624,5.472,5.12,5.472,2.64,0,5.664-.4,5.664-4.288A8.33,8.33,0,0,0,13.712,16.5l-1.968.576a7.459,7.459,0,0,1,.8,3.232c0,2.208-1.36,2.464-3.392,2.464-3.008,0-3.04-.56-3.04-3.424H6.48c2.88,0,3.856-.256,4.656-.752l-.688-1.824c-.64.368-1.552.624-3.76.624H6.176L6.3,14.96h4.864V12.992H6.416l.112-2H4.272Zm14.864-1.984c0,1.1-.048,4.8-.048,7.12,0,2.3,0,3.776.8,4.88a4.713,4.713,0,0,0,4.144,1.744c3.9,0,6.032-2.288,6.736-6.224l-2.08-.736C28.432,18.928,27.9,22.7,24,22.7c-2.5,0-2.848-1.488-2.848-3.376,0-2.384.16-7.792.176-8.3Zm16.832-.016c0,.048-.016,2.144-.016,2.352H33.216v2h2.64V16.5a17.466,17.466,0,0,1-3.136,3.952L33.888,22.5a11.69,11.69,0,0,0,1.952-2.448c-.016.672-.048,3.968-.048,4.72h2.16c-.032-.816-.08-2.528-.08-4.576,0-1.216.016-1.872.048-3.28,1.68-2.128,3.312-2.8,4.144-2.8.944,0,1.008.88.976,1.872l-.16,4.144c-.128,3.488,1.376,3.888,4.032,4.1l.464-2.112c-2.352.048-2.32-.848-2.288-2.176l.128-4.256a4.715,4.715,0,0,0-.368-2.448,2.625,2.625,0,0,0-2.288-1.216,7.059,7.059,0,0,0-4.592,2.192c.016-1.072.064-2.832.08-3.216Zm13.568,1.36v1.9H55.3V15.68H49.76v1.856H55.3v1.376a4.878,4.878,0,0,0-1.28-.128c-2.112,0-4.128.944-4.128,3.056,0,1.312.9,2.96,4,2.96,3.536,0,3.536-2.1,3.536-2.816v-.3a22.626,22.626,0,0,1,3.248,2.592l1.392-1.856a17.608,17.608,0,0,0-4.64-2.944V17.536H62.1V15.68H57.424V14.256h4.992v-1.9H57.424V10.96H55.3v1.392Zm5.872,9.232c0,.656-.112,1.344-1.6,1.344-.736,0-1.84-.176-1.84-1.136,0-.992,1.168-1.264,1.984-1.264a4.208,4.208,0,0,1,1.456.272ZM74.416,10.912c.032.56.1,2.624.112,3.12l-5.056.112.032-2.992H67.376v3.056l-2.448.048.064,1.952,2.384-.048v3.776a8.409,8.409,0,0,0,.32,2.736c.768,1.7,2.528,1.984,6.192,1.984,2.64,0,3.408-.064,3.936-.112V22.48a32.811,32.811,0,0,1-4.416.192c-3.9,0-4-.144-3.984-2.816l.032-3.744L74.592,16a14.39,14.39,0,0,1-.144,2.384c-.112.608-.224.9-.848.9a14.2,14.2,0,0,1-1.968-.208l.112,1.92a12.893,12.893,0,0,0,2.032.176c2.72,0,2.8-1.68,2.88-5.216l2.432-.064-.032-1.952-2.4.048a26.908,26.908,0,0,0-.144-3.1Zm10.528,0c-.224.736-.544,1.728-1.056,3.36-.912,2.88-1.136,3.584-3.088,9.952l2.208.672c.144-.576.816-3.28.864-3.5.272-.72,1.056-2.8,2.784-2.8,1.04,0,1.04.736,1.04,1.952V21.2c0,2.064.848,3.552,3.152,3.552,2.816,0,4.032-2.144,4.432-6.384l-2.064-.592c-.32,3.872-1.12,4.88-2.224,4.88-1.168,0-1.168-1.248-1.168-1.648V20.16c0-1.136,0-3.616-2.656-3.616a3.114,3.114,0,0,0-1.872.608c.144-.464,1.68-4.768,2.064-5.824Zm16.992,2.8c.048-.4.288-2.32.336-2.752l-2.208-.16c-.064.864-.128,1.616-.288,2.912H97.1V15.76l2.368-.032a25.6,25.6,0,0,1-2.544,8.064l2.032.864a35.233,35.233,0,0,0,2.656-8.944l1.52-.016c.992-.016,1.888.128,1.888,2.112a14.737,14.737,0,0,1-.608,4.224c-.24.544-.752.736-1.472.736a16.338,16.338,0,0,1-2.08-.208l.128,2.064a20.106,20.106,0,0,0,2.368.16,3.02,3.02,0,0,0,2.56-1.04c.784-.96,1.184-3.552,1.184-5.328,0-2.16-.368-4.7-3.472-4.7Zm9.376,6.24c-.112-3.5-.7-4.688-1.536-5.9l-1.92.768a9.8,9.8,0,0,1,1.136,5.424Zm-2.1-6.752a9.863,9.863,0,0,0-1.024-2.5l-1.312.4a11.346,11.346,0,0,1,.96,2.576Zm2.384-.352a9.51,9.51,0,0,0-1.056-2.5l-1.3.4a11.675,11.675,0,0,1,1.04,2.512Zm6.368,10.8a27.5,27.5,0,0,0-3.232-3.568l-1.712,1.152A30.759,30.759,0,0,1,116,24.96ZM-131.168,36.3h-3.376v1.984h3.376a4.821,4.821,0,0,0-.016.512c0,.368,0,.912.032,1.232-3.712,1.488-3.776,4.32-3.776,4.912a2.814,2.814,0,0,0,2.912,3.072c2.368,0,5.344-2.416,6.576-6.64a2.658,2.658,0,0,1,2.208,2.592,2.723,2.723,0,0,1-2.3,2.672,10.116,10.116,0,0,1-2.784.3l.64,1.9c2.72-.016,6.544-.88,6.544-4.784,0-2.8-2.24-4.7-6.224-4.7a9.033,9.033,0,0,0-1.76.144c0-.112,0-.784.016-1.216h7.36V36.3h-7.3l.032-1.344-2.144-.016Zm2.416,7.76a21.953,21.953,0,0,1-.32-2.88,5.983,5.983,0,0,1,1.2-.112c.224,0,.384.016.592.016A7.725,7.725,0,0,1-128.752,44.064Zm-1.616,1.584a2.264,2.264,0,0,1-1.392.528c-1.248,0-1.248-1.216-1.248-1.456a3.3,3.3,0,0,1,2-2.848A17.24,17.24,0,0,0-130.368,45.648Zm14.336-10.832c-.1.7-.16,1.28-.272,1.936h-2.7v2h2.336a28.677,28.677,0,0,1-2.5,7.664l2.16.736a56.436,56.436,0,0,0,2.512-8.4h3.472v-2h-3.056c.112-.56.176-1.04.288-1.792Zm11.008,1.7a21.055,21.055,0,0,0-5.1.448l.16,5.776a9.432,9.432,0,0,0-1.152-.08c-2.96,0-4.064,1.632-4.064,3.168,0,1.36.912,3.04,3.824,3.04,2.848,0,3.472-1.888,3.472-2.8v-.288a12.567,12.567,0,0,1,2.032,1.76l1.216-2.032a14.114,14.114,0,0,0-3.216-2.112L-108,38.816a8.968,8.968,0,0,1,1.664-.112,11.365,11.365,0,0,1,1.328.064Zm-4.88,9.056c0,1.136-.832,1.408-1.648,1.408-.672,0-1.7-.256-1.7-1.184,0-1.024,1.088-1.376,2.016-1.376a3.547,3.547,0,0,1,1.328.256Zm9.856-10.528c-.032.5-.064,1.1-.16,1.856h-2.416v1.968h2.144a41.925,41.925,0,0,1-2.528,9.264l2.064.7a51.319,51.319,0,0,0,2.528-9.968h4.256V36.9h-3.952c.112-.784.176-1.28.24-1.84Zm10.672,3.92c-4.08-.064-5.584.464-6.8.992l.64,1.744a11.594,11.594,0,0,1,4.624-.7c.672,0,1.12.032,1.552.048Zm-6.736,3.952a4.339,4.339,0,0,0-1.344,2.864c0,2.944,3.792,2.944,5.568,2.944,1.792,0,2.08-.016,2.72-.064V46.592a32.039,32.039,0,0,1-3.392.16c-1.04,0-2.928,0-2.928-1.216a2.417,2.417,0,0,1,.864-1.632Zm16.08,5.824c4.192-.288,7.168-2.064,7.168-6.8,0-4.016-2.56-6.4-6.7-6.4-4.512,0-7.552,2.992-7.552,7.184,0,2.32,1.088,4.736,3.248,4.736a3.893,3.893,0,0,0,3.136-2.144c1.328-2.24,1.632-5.872,1.792-7.792,3.12.24,3.776,2.5,3.776,4.3,0,3.92-2.672,4.736-5.536,4.864Zm-1.04-11.12c-.368,4.992-1.488,7.664-2.672,7.664-.384,0-1.28-.368-1.28-2.384C-85.024,40.736-84.112,38.3-81.072,37.616Zm18.064,11.856V46.864h5.584V45.088h-5.584v-1.3h6.368v-1.76h-3.3a9.56,9.56,0,0,0,.384-1.824h3.008v-1.76h-6.464v-1.2H-57.7V35.456h-5.312V34.368H-65.04v1.088h-5.28v1.792h5.28v1.2h-6.416v1.76h2.944c.208.752.368,1.5.432,1.824h-3.232v1.76h6.272v1.3h-5.536v1.776h5.536v2.608Zm1.376-9.264a13.2,13.2,0,0,1-.352,1.824h-4.064c-.064-.416-.272-1.36-.384-1.824Zm16.048-5.3c.032.56.1,2.624.112,3.12l-5.056.112.032-2.992h-2.128v3.056l-2.448.048.064,1.952,2.384-.048v3.776a8.409,8.409,0,0,0,.32,2.736c.768,1.7,2.528,1.984,6.192,1.984,2.64,0,3.408-.064,3.936-.112V46.48a32.811,32.811,0,0,1-4.416.192c-3.9,0-4-.144-3.984-2.816l.032-3.744L-45.408,40a14.389,14.389,0,0,1-.144,2.384c-.112.608-.224.9-.848.9a14.2,14.2,0,0,1-1.968-.208l.112,1.92a12.893,12.893,0,0,0,2.032.176c2.72,0,2.8-1.68,2.88-5.216l2.432-.064-.032-1.952-2.4.048a26.908,26.908,0,0,0-.144-3.1Zm9.552-.1c-.1.7-.16,1.28-.272,1.936h-2.7v2h2.336a28.677,28.677,0,0,1-2.5,7.664l2.16.736a56.437,56.437,0,0,0,2.512-8.4h3.472v-2H-34.08c.112-.56.176-1.04.288-1.792Zm11.008,1.7a21.055,21.055,0,0,0-5.1.448l.16,5.776a9.432,9.432,0,0,0-1.152-.08c-2.96,0-4.064,1.632-4.064,3.168,0,1.36.912,3.04,3.824,3.04,2.848,0,3.472-1.888,3.472-2.8v-.288a12.567,12.567,0,0,1,2.032,1.76L-24.64,45.5a14.114,14.114,0,0,0-3.216-2.112L-28,38.816a8.968,8.968,0,0,1,1.664-.112,11.365,11.365,0,0,1,1.328.064Zm-4.88,9.056c0,1.136-.832,1.408-1.648,1.408-.672,0-1.7-.256-1.7-1.184,0-1.024,1.088-1.376,2.016-1.376a3.547,3.547,0,0,1,1.328.256ZM-16.96,39.3v2.736h-5.424v1.9h5.424v3.04h-6.528v1.952H-8.512V46.976h-6.4v-3.04h5.328v-1.9h-5.328V39.3h5.7v-1.92h-5.7V34.368H-16.96v3.008h-2.608a20.433,20.433,0,0,0,.736-2.48l-2.016-.32c-.944,3.744-2.336,5.232-2.88,5.808l1.52,1.472a9.9,9.9,0,0,0,1.824-2.56Zm18.176-.768H-3.12v1.824H1.216v2H-2.368v7.12H-.4v-.8H4.848v.8H6.816v-7.12h-3.6v-2H7.552V38.528H3.216v-1.76a23.89,23.89,0,0,0,3.968-.656l-.752-1.776c-2.224.592-4.1.784-9.376.816l.384,1.84c.64,0,1.808-.016,3.776-.1ZM4.848,44.08v2.832H-.4V44.08ZM-7.1,35.936a11.9,11.9,0,0,1,2.736,1.7l1.184-1.664a10.15,10.15,0,0,0-2.8-1.616Zm-.56,4.336a12.846,12.846,0,0,1,2.608,1.68L-3.9,40.3A9.662,9.662,0,0,0-6.656,38.64Zm2.848,2.416A20.669,20.669,0,0,1-7.7,47.424l1.2,1.952A20.692,20.692,0,0,0-3.3,43.92ZM13.3,34.832a12.37,12.37,0,0,1-.224,1.44H9.5V38.24h3.024a13.3,13.3,0,0,1-3.52,5.376l1.52,1.568a14.473,14.473,0,0,0,2.064-2.752c1.584-1.6,2.7-1.6,2.9-1.6a1.225,1.225,0,0,1,1.168.7c-1.264.64-4.208,2.064-4.208,4.256a2.73,2.73,0,0,0,1.76,2.5,12.349,12.349,0,0,0,4.48.512c1.184,0,2.64-.048,3.2-.064V46.672c-1.3.128-2.72.192-4.032.192-1.6,0-3.136,0-3.136-1.248,0-1.024,1.408-1.712,2.256-2.144a16.9,16.9,0,0,1-.032,2.016h2.1c.016-.512.016-.768.016-1.232,0-.528-.016-1.088-.064-1.616a22.67,22.67,0,0,1,3.824-1.072l-.48-2.112A29.673,29.673,0,0,0,18.56,40.72a2.663,2.663,0,0,0-2.528-1.7,4.448,4.448,0,0,0-1.84.464,7.845,7.845,0,0,0,.528-1.248H21.6V36.272H15.3c.144-.608.192-.864.256-1.28ZM39.76,47.392a13.018,13.018,0,0,1-2.832-2.576A15.889,15.889,0,0,0,39.3,37.408V35.5H32.608v-.752H24.48v1.824h.832v9.2c-.144.016-.8.112-.944.128l.3,1.936a40.543,40.543,0,0,0,5.056-1.1v2.7h1.92V47.872L32.7,49.456a16.645,16.645,0,0,0,2.992-2.88,12.4,12.4,0,0,0,2.928,2.768Zm-7.2-9.1a16.285,16.285,0,0,0,1.952,6.48,11.138,11.138,0,0,1-2.864,2.816V36.576h.72v.832h4.976A16.442,16.442,0,0,1,35.7,42.9a14.587,14.587,0,0,1-1.36-5.008Zm-2.832,1.728v1.712H27.2V40.016Zm0,4.96a21.42,21.42,0,0,1-2.528.512V43.44h2.528Zm0-8.4v1.76H27.2v-1.76ZM43.44,34.832a36.689,36.689,0,0,0-.608,7.312A25.773,25.773,0,0,0,42.96,44.9l2.1-.16a12.037,12.037,0,0,1-.16-2c0-2.048,2.08-4.432,3.968-4.432,2.272,0,2.272,3.136,2.272,3.744,0,4.3-3.008,4.8-7.392,4.848l.464,2.016c5.5,0,9.152-1.488,9.152-6.752,0-3.92-1.888-5.824-4.3-5.824a4.911,4.911,0,0,0-3.9,2.032,13.054,13.054,0,0,1,.56-3.328ZM71.616,47.648a8.612,8.612,0,0,1-4.784-2.928h4.64V43.04H65.728a8.308,8.308,0,0,0,.128-1.184h4.7V37.472H57.68v5.616a8.117,8.117,0,0,1-1.552,5.072l1.664,1.376A10.639,10.639,0,0,0,59.52,44.72h3.744c-1.024,2.016-3.408,2.784-4.32,3.088l1.2,1.712a8.89,8.89,0,0,0,4.944-4.24,9.033,9.033,0,0,0,5.392,4.208Zm-7.68-5.792a6.482,6.482,0,0,1-.144,1.184h-4.16V41.856Zm4.656-1.472h-8.96V38.96h8.96Zm-12.064-5.5v1.744H71.472V34.88Zm23.936,1.632H72.976V38.48h7.536l.016,1.072a3.058,3.058,0,0,0-1.392-.32,3.276,3.276,0,1,0-.128,6.544,2.3,2.3,0,0,0,1.616-.5c-.4,1.184-1.408,1.776-5.136,1.84l.672,1.936a16.987,16.987,0,0,0,2.96-.368A4.75,4.75,0,0,0,82.928,43.7a5.965,5.965,0,0,0-.192-1.5c-.016-.064-.112-.352-.112-.4V38.48H87.04V36.512H82.624V34.9H80.432Zm.144,6.16a1.375,1.375,0,0,1-1.44,1.392,1.464,1.464,0,0,1-1.552-1.536A1.522,1.522,0,0,1,79.2,40.976,1.3,1.3,0,0,1,80.608,42.3ZM91.952,35.04c-.032.5-.064,1.1-.16,1.856H89.376v1.968H91.52a41.925,41.925,0,0,1-2.528,9.264l2.064.7a51.319,51.319,0,0,0,2.528-9.968H97.84V36.9H93.888c.112-.784.176-1.28.24-1.84Zm10.672,3.92c-4.08-.064-5.584.464-6.8.992l.64,1.744a11.594,11.594,0,0,1,4.624-.7c.672,0,1.12.032,1.552.048Zm-6.736,3.952a4.339,4.339,0,0,0-1.344,2.864c0,2.944,3.792,2.944,5.568,2.944,1.792,0,2.08-.016,2.72-.064V46.592a32.039,32.039,0,0,1-3.392.16c-1.04,0-2.928,0-2.928-1.216a2.417,2.417,0,0,1,.864-1.632Zm16.176-7.968c0,.64-.064,1.648-.144,2.48a9.056,9.056,0,0,0-3.44,1.056,18.44,18.44,0,0,1-.432-2.848l-2.016.512a19.726,19.726,0,0,0,.752,3.6,6.2,6.2,0,0,0-1.776,4.352c0,2.144,1.184,3.616,2.928,3.616,2.208,0,4.7-2.432,5.7-8.352a3.249,3.249,0,0,1,3.2,3.552c0,3.04-2.336,3.888-5.7,3.9l.64,2c2.24-.176,3.488-.336,4.912-1.264a5.069,5.069,0,0,0,2.24-4.464,5.684,5.684,0,0,0-2.08-4.56,5.783,5.783,0,0,0-2.912-1.088,17.6,17.6,0,0,0,.24-2.384Zm-3.056,5.344a6.305,6.305,0,0,1,2.7-.944,15.943,15.943,0,0,1-1.168,3.92A11.055,11.055,0,0,1,109.008,40.288Zm.448,4.624a2.043,2.043,0,0,1-1.36.8c-.9,0-1.2-.96-1.2-1.664a4.342,4.342,0,0,1,.656-2.256A12.116,12.116,0,0,0,109.456,44.912Zm16.768-8.656V38.3h8.016V36.256Zm.464,5.392a5.421,5.421,0,0,0-.96,2.976c0,3.344,3.728,3.344,5.856,3.344.88,0,2.08-.032,2.928-.112V45.728a31.636,31.636,0,0,1-4.064.16c-1.872,0-2.768-.448-2.768-1.456a3.661,3.661,0,0,1,.736-2.016Zm-4.512-6.512a64.989,64.989,0,0,0-.576,8,27.965,27.965,0,0,0,.528,5.664l2.16-.208a28.329,28.329,0,0,1-.544-5.808,45.012,45.012,0,0,1,.64-7.472ZM-111.376,66.8h14.752V64.688h-14.752Zm16.88-.208a10.861,10.861,0,0,1-1.2,5.328l1.68,1.488a14.032,14.032,0,0,0,1.472-6.72V63.744h1.968v2.432h7.76V63.744h2.384V62.208h-2.384V61.2h2.3V59.44h-6.224v-1.1H-88.8v1.1h-5.7Zm9.808-5.392v1.008H-88.7V61.2Zm-5.9,0v1.008H-92.56V61.2Zm5.9,2.544v1.008H-88.7V63.744Zm-6,5.68a8.408,8.408,0,0,0,1.9,1.536,22.3,22.3,0,0,1-4.208.72l.72,1.776a20.235,20.235,0,0,0,5.728-1.344,19.837,19.837,0,0,0,5.392,1.36l.784-1.9a21.229,21.229,0,0,1-3.952-.624,6.66,6.66,0,0,0,2.384-2.336v-1.68H-92.16v1.68h2.528Zm6.112-.816a5.072,5.072,0,0,1-2.048,1.536,9.707,9.707,0,0,1-2.336-1.536Zm9.792-7.888h-3.7v1.968h3.7v2.144c-3.808,1.472-4.048,3.728-4.048,4.544A3.256,3.256,0,0,0-75.3,72.5c2.544,0,2.544-1.488,2.544-2.08V66.208a8.244,8.244,0,0,1,2.112-.24c.672,0,3.216,0,3.216,2.368,0,2.64-2.912,2.624-4.784,2.624l.432,1.872c3.264.048,6.5-.8,6.5-4.368a4.256,4.256,0,0,0-1.392-3.248,5.4,5.4,0,0,0-3.776-1.1,11.66,11.66,0,0,0-2.3.224V62.688h3.488V60.72h-3.488v-1.7h-2.032Zm0,9.216c0,.32,0,.608-.7.608A1.256,1.256,0,0,1-76.832,69.3c0-1.424,1.472-2.224,2.048-2.528Zm5.12-9.9a11.9,11.9,0,0,1,3.232,4.176l1.888-1.056a11.783,11.783,0,0,0-3.536-4.32Zm15.92,2.512H-57.2V64.4h3.456v1.952h-2.832v7.12h1.92v-.784h3.744v.784h1.888v-7.12h-2.752V64.4H-48.4V62.544h-3.376V60.576a16.227,16.227,0,0,0,2.992-.544l-.752-1.776a33.77,33.77,0,0,1-7.808.88l.368,1.84c.992,0,2.176-.1,3.232-.192Zm2.832,5.584V70.88h-3.744V68.128ZM-63.1,60.3h5.216V58.736H-63.1Zm-.5,2.384h6.256v-1.6H-63.6Zm.5,10.784h1.856v-.608h3.36V68.256H-63.1Zm3.472-3.728v1.568h-1.616V69.744ZM-63.1,65.008h5.216V63.456H-63.1Zm0,2.416h5.216V65.84H-63.1Zm20.4-8.592a12.37,12.37,0,0,1-.224,1.44H-46.5V62.24h3.024a13.3,13.3,0,0,1-3.52,5.376l1.52,1.568a14.472,14.472,0,0,0,2.064-2.752c1.584-1.6,2.7-1.6,2.9-1.6a1.225,1.225,0,0,1,1.168.7c-1.264.64-4.208,2.064-4.208,4.256a2.73,2.73,0,0,0,1.76,2.5,12.349,12.349,0,0,0,4.48.512c1.184,0,2.64-.048,3.2-.064V70.672c-1.3.128-2.72.192-4.032.192-1.6,0-3.136,0-3.136-1.248,0-1.024,1.408-1.712,2.256-2.144a16.9,16.9,0,0,1-.032,2.016h2.1c.016-.512.016-.768.016-1.232,0-.528-.016-1.088-.064-1.616a22.67,22.67,0,0,1,3.824-1.072l-.48-2.112A29.673,29.673,0,0,0-37.44,64.72a2.662,2.662,0,0,0-2.528-1.7,4.448,4.448,0,0,0-1.84.464,7.846,7.846,0,0,0,.528-1.248h6.88V60.272h-6.3c.144-.608.192-.864.256-1.28Zm14.16,13.584c.928-.048,3.584-.176,6.24-.5V73.1h1.7V66.08h.976V64.7H-28.3V66.08h.816v4.736h-1.136Zm2.736-4.432h3.5v.8h-3.5Zm3.5,2.56c-1.12.112-2.384.176-3.5.208v-.9h3.5Zm-3.5-4.464h3.5v.8h-3.5Zm-5.184,7.392h1.872V64h4.368V58.88h-6.24ZM-23.36,64h4.48v7.168c0,.32-.064.368-.4.368h-1.072l.288,1.936h1.44c1.376,0,1.616-.416,1.616-1.712V58.88H-23.36Zm-3.12-3.808v.784h-2.64v-.784Zm0,1.76v.784h-2.64v-.784Zm4.88-1.76h2.72v.784H-21.6Zm0,1.76h2.72v.784H-21.6Zm9.648-3.136c-.032.688-.112,1.536-.272,2.9H-14.9V63.76l2.368-.032a24.517,24.517,0,0,1-2.608,7.984l2.08.96c.432-.784,1.5-2.8,2.64-8.96l1.568-.016c.992-.016,1.872.128,1.872,2.112a14.737,14.737,0,0,1-.608,4.224c-.256.56-.752.736-1.472.736a14.538,14.538,0,0,1-2.08-.208l.128,2.064a21.782,21.782,0,0,0,2.368.16,2.988,2.988,0,0,0,2.56-1.04c.784-.96,1.184-3.552,1.184-5.328,0-2.16-.368-4.7-3.472-4.7H-10.08c.16-.928.24-1.728.352-2.768Zm11.36,8.736c-.352-4.128-1.536-5.92-2.64-7.3l-1.824.944c.784,1.008,1.968,2.688,2.208,6.72Zm11.008-8.64c.032.56.1,2.624.112,3.12l-5.056.112L5.5,59.152H3.376v3.056l-2.448.048.064,1.952,2.384-.048v3.776a8.409,8.409,0,0,0,.32,2.736c.768,1.7,2.528,1.984,6.192,1.984,2.64,0,3.408-.064,3.936-.112V70.48a32.813,32.813,0,0,1-4.416.192c-3.9,0-4-.144-3.984-2.816l.032-3.744L10.592,64a14.39,14.39,0,0,1-.144,2.384c-.112.608-.224.9-.848.9a14.2,14.2,0,0,1-1.968-.208l.112,1.92a12.892,12.892,0,0,0,2.032.176c2.72,0,2.8-1.68,2.88-5.216l2.432-.064-.032-1.952-2.4.048a26.908,26.908,0,0,0-.144-3.1Zm20.432.64c-1.632.064-8.96.336-10.336.416-1.52.08-2.768.144-3.536.144l.08,2.24c1.008-.1,5.952-.512,7.072-.608-3.808,2.432-4.1,5.088-4.1,6.128a4.362,4.362,0,0,0,2.48,3.808c1.472.72,3.1,1.056,6.608,1.072l.3-2.288c-6.656.224-7.184-1.648-7.184-2.88,0-2,1.744-3.68,2.656-4.384a6.809,6.809,0,0,1,4.016-1.536c.5-.016,1.5,0,2,.016ZM45.52,71.5a53.8,53.8,0,0,0-7.68-4.848c-.672-.384-.96-.56-.96-.88a.612.612,0,0,1,.192-.432c.272-.272,3.168-2.448,3.744-2.928,1.264-1.056,2.688-2.24,2.944-2.464L41.7,58.592c-1.872,1.792-2.3,2.16-6.176,5.408-.992.832-1.248,1.424-1.248,1.888,0,.976,1.136,1.68,1.84,2.128A56.432,56.432,0,0,1,43.52,73.1Zm6.448-12.528c-.032.528-.048.7-.16,1.92H49.376v1.968h2.16a45.342,45.342,0,0,1-2.512,9.376l2.048.544a50.859,50.859,0,0,0,2.528-9.92h4.24V60.9H53.9c.048-.32.208-1.632.224-1.84Zm10.656,4a17.327,17.327,0,0,0-6.8.976l.624,1.76a13.5,13.5,0,0,1,4.624-.7c.672,0,1.12.032,1.568.048Zm-6.736,3.968a4.237,4.237,0,0,0-1.36,2.928,2.638,2.638,0,0,0,1.6,2.32c.688.336,1.52.544,4.112.544,1.6,0,2.1-.048,2.672-.08l-.08-2.048a31.98,31.98,0,0,1-3.408.16c-1.008,0-2.912,0-2.912-1.232a2.5,2.5,0,0,1,.864-1.6Zm5.36-5.552a12.057,12.057,0,0,0-1.008-2.528l-1.312.416a11.509,11.509,0,0,1,.944,2.608Zm2.16-.56A14.258,14.258,0,0,0,62.32,58.4l-1.312.432A12.463,12.463,0,0,1,62.016,61.3Zm7.6-1.728a22.62,22.62,0,0,0,.624,2.416H65.344V63.5h7.008a20.858,20.858,0,0,0,2.688,4.88l1.824-1.136a14.814,14.814,0,0,1-2.352-3.824,26.081,26.081,0,0,0,4.192-.512L78.368,60.9a30.929,30.929,0,0,1-4.608.576,16.078,16.078,0,0,1-.592-2.592Zm-.848,5.984c-3.008.912-4.08,2.56-4.08,4.1a3,3,0,0,0,1.664,2.672c1.072.576,2.224.864,5.488.864,1.584,0,2.72-.048,3.7-.144l.08-2.064a34.457,34.457,0,0,1-4.16.24c-2.96,0-4.7-.208-4.7-1.648,0-.768.56-1.744,2.864-2.4Zm11.152-5.376c-.064.832-.24,2.64-.24,4.64,0,1.9.144,8.144,3.648,8.144,2.528,0,3.792-3.392,4.208-4.544l-1.776-.976A11.111,11.111,0,0,1,86.1,69.2c-.32.5-.656.9-1.184.9-1.5,0-1.7-4.112-1.7-5.84A26.7,26.7,0,0,1,83.6,59.9Zm13.856,11.1c.016-3.3-.064-7.632-3.424-10.8l-1.712,1.2c2.64,2.736,2.784,5.888,2.784,9.728Zm4.544-3.056a2.552,2.552,0,0,0,0,5.1,2.552,2.552,0,1,0,0-5.1Zm0,.96A1.584,1.584,0,1,1,98.128,70.3,1.588,1.588,0,0,1,99.712,68.72Z" transform="translate(143.93 19.74)" fill="#002063"/>
  </g>
</svg>
