<svg xmlns="http://www.w3.org/2000/svg" xmlns:xlink="http://www.w3.org/1999/xlink" width="373" height="108.463" viewBox="0 0 373 108.463">
  <defs>
    <filter id="長方形_243" x="0" y="20.452" width="373" height="88.011" filterUnits="userSpaceOnUse">
      <feOffset dy="3" input="SourceAlpha"/>
      <feGaussianBlur stdDeviation="3" result="blur"/>
      <feFlood flood-opacity="0.161"/>
      <feComposite operator="in" in2="blur"/>
      <feComposite in="SourceGraphic"/>
    </filter>
  </defs>
  <g id="グループ_255" data-name="グループ 255" transform="translate(-1 -831.5)">
    <g id="グループ_204" data-name="グループ 204" transform="translate(2.264 118.5)">
      <path id="パス_2772" data-name="パス 2772" d="M-78.18-14.56v2.38h7.3v1.78H-77.8v2.32h6.92v1.72a6.1,6.1,0,0,0-1.6-.16c-2.64,0-5.16,1.18-5.16,3.82,0,1.64,1.12,3.7,5,3.7,4.42,0,4.42-2.62,4.42-3.52V-2.9A28.282,28.282,0,0,1-64.16.34l1.74-2.32a22.01,22.01,0,0,0-5.8-3.68V-8.08h5.84V-10.4h-5.84v-1.78h6.24v-2.38h-6.24V-16.3h-2.66v1.74Zm7.34,11.54c0,.82-.14,1.68-2,1.68-.92,0-2.3-.22-2.3-1.42,0-1.24,1.46-1.58,2.48-1.58A5.26,5.26,0,0,1-70.84-4Zm21.4-11.34h-9.34v2.46h9.38l.02,1.32a3.373,3.373,0,0,0-1.74-.4,4.06,4.06,0,0,0-4.3,4.36,3.876,3.876,0,0,0,3.94,3.86,3.059,3.059,0,0,0,2.26-.64c-.48,1.14-1.18,2.22-6.36,2.28l.7,2.44c3.34-.26,4.58-.64,5.62-1.2,2.56-1.38,2.82-4.34,2.82-5.5a8.623,8.623,0,0,0-.28-2.12v-4.4h5.52v-2.46h-5.52v-2.02h-2.74Zm.2,7.7A1.674,1.674,0,0,1-51-4.92,1.8,1.8,0,0,1-52.9-6.8a1.911,1.911,0,0,1,1.98-2,1.516,1.516,0,0,1,1.68,1.66Zm8.78-1.22a12.617,12.617,0,0,0-1.3-3.16l-1.58.52a14.5,14.5,0,0,1,1.22,3.24Zm-2.74.56a12.349,12.349,0,0,0-1.2-3.24L-46-10a13.4,13.4,0,0,1,1.1,3.22Zm5.6-8.9a48.067,48.067,0,0,0-.7,8.46A54.466,54.466,0,0,0-37.7.88l2.68-.32a42.346,42.346,0,0,1-.68-8.14,38.61,38.61,0,0,1,.82-8.38Zm3.9,3.28v2.5h5.78l.08,4.02a6.55,6.55,0,0,0-1.6-.16c-2.98,0-4.58,1.86-4.58,3.8,0,1.06.6,3.66,4.62,3.66,3.98,0,4.04-2.52,4.06-3.62a15.923,15.923,0,0,1,2.48,2.3l1.7-2.3a16.426,16.426,0,0,0-4.08-2.88l-.06-4.82h3.58v-2.5h-3.62v-3.24h-2.62v3.24Zm5.9,9.78c0,.8-.02,1.82-1.7,1.82-1.9,0-2.12-1.04-2.12-1.46,0-.86.82-1.58,2.24-1.58a3.714,3.714,0,0,1,1.58.34ZM-13.48-14.1H-18.1v2.46h4.62v2.68c-4.76,1.84-5.06,4.66-5.06,5.68A4.07,4.07,0,0,0-14.12.62c3.18,0,3.18-1.86,3.18-2.6V-7.24a10.305,10.305,0,0,1,2.64-.3c.84,0,4.02,0,4.02,2.96,0,3.3-3.64,3.28-5.98,3.28l.54,2.34c4.08.06,8.12-1,8.12-5.46A5.32,5.32,0,0,0-3.34-8.48c-.6-.5-1.84-1.38-4.72-1.38a14.575,14.575,0,0,0-2.88.28v-2.06h4.36V-14.1h-4.36v-2.12h-2.54Zm0,11.52c0,.4,0,.76-.88.76a1.57,1.57,0,0,1-1.68-1.56c0-1.78,1.84-2.78,2.56-3.16Zm6.4-12.38A14.873,14.873,0,0,1-3.04-9.74l2.36-1.32a14.728,14.728,0,0,0-4.42-5.4ZM8.7.22c0,1.24.96,1.42,1.92,1.42h7.14c1.52,0,1.74-1.68,1.86-3.34l-1.76-.46V-8.3H2.04V-.34h2.4V-1.56H8.7ZM15.42-4.3v1.06H11.08V-4.3ZM8.7-4.3v1.06H4.44V-4.3Zm0-2.38v1H4.52v-1Zm6.72,0v1H11.08v-1ZM11.08-1.56h6.1c-.14,1.06-.26,1.12-.8,1.12H11.52c-.4,0-.44-.14-.44-.48ZM1.96-14.66H8.8v.74H1.04v4.28H3.46v-2.7H8.8V-8.7h2.24v-3.64h5.42v2.7h2.5v-4.28H11.04v-.74h7.04v-1.8H1.96ZM4.34-8.94H8.1V-9.98H4.34Zm7.54,0H15.7V-9.98H11.88Zm-7.54-1.7H8.1v-.98H4.34Zm7.54,0H15.7v-.98H11.88Zm20.94-1.18H28.5V-9.5h4.32v2.44H29.28v8.9h2.4V.86h4.68v.98h2.36v-8.9H35.28V-9.5H39.5v-2.32H35.28v-2.46a20.284,20.284,0,0,0,3.74-.68l-.94-2.22a42.212,42.212,0,0,1-9.76,1.1l.46,2.3c1.24,0,2.72-.12,4.04-.24Zm3.54,6.98V-1.4H31.68V-4.84ZM21.12-14.62h6.52v-1.96H21.12Zm-.62,2.98h7.82v-2H20.5Zm.62,13.48h2.32V1.08h4.2V-4.68H21.12Zm4.34-4.66V-.86H23.44V-2.82ZM21.12-8.74h6.52v-1.94H21.12Zm0,3.02h6.52V-7.7H21.12Zm25.5-10.74a15.462,15.462,0,0,1-.28,1.8H41.88v2.46h3.78a16.623,16.623,0,0,1-4.4,6.72l1.9,1.96a18.091,18.091,0,0,0,2.58-3.44c1.98-2,3.38-2,3.62-2a1.532,1.532,0,0,1,1.46.88c-1.58.8-5.26,2.58-5.26,5.32A3.412,3.412,0,0,0,47.76.36c1.16.46,2.68.64,5.6.64,1.48,0,3.3-.06,4-.08V-1.66c-1.62.16-3.4.24-5.04.24-2,0-3.92,0-3.92-1.56,0-1.28,1.76-2.14,2.82-2.68a21.127,21.127,0,0,1-.04,2.52H53.8c.02-.64.02-.96.02-1.54,0-.66-.02-1.36-.08-2.02a28.338,28.338,0,0,1,4.78-1.34l-.6-2.64A37.092,37.092,0,0,0,53.2-9.1a3.328,3.328,0,0,0-3.16-2.12,5.561,5.561,0,0,0-2.3.58,9.807,9.807,0,0,0,.66-1.56H57v-2.46H49.12c.18-.76.24-1.08.32-1.6Zm21.94.7.36,11.22h2.16l.36-11.22Zm.06,12.94V0h2.76V-2.82Z" transform="translate(188 731)" fill="#f29600"/>
      <path id="パス_2657" data-name="パス 2657" d="M0,0,21.462,1.584,0,2.924Z" transform="translate(92.269 713) rotate(60)" fill="#f29600"/>
      <path id="パス_2658" data-name="パス 2658" d="M0,2.946l21.626-1.6L0,0Z" transform="translate(281.737 714.729) rotate(120)" fill="#f29600"/>
    </g>
    <g id="グループ_202" data-name="グループ 202" transform="translate(-4507 1396.952)">
      <g transform="matrix(1, 0, 0, 1, 4508, -565.45)" filter="url(#長方形_243)">
        <rect id="長方形_243-2" data-name="長方形 243" width="355" height="70.011" rx="10" transform="translate(9 26.45)" fill="#002063"/>
      </g>
      <g id="グループ_210" data-name="グループ 210" transform="translate(4563.691 -529.359)">
        <path id="パス_2774" data-name="パス 2774" d="M-23.4-6.8v3.072h1.26V-5.664H-13.9v1.932h1.26V-6.8h-1.776a19.178,19.178,0,0,0,.852-1.764l-.984-.3c.768-.108,1.3-.216,1.836-.324l-.66-1.044a37.863,37.863,0,0,1-7.764.72c-.936,0-1.536-.024-2.184-.048l.24,1.092c.336.012.792.012,1.308.024l-.576.216c.192.372.528,1.068.684,1.428Zm3,0c-.216-.552-.444-1.1-.7-1.644.852,0,1.584-.012,2-.024A11.455,11.455,0,0,1-18.48-6.8Zm3.18,0a13.544,13.544,0,0,0-.528-1.74c1.884-.144,2.088-.168,2.82-.264a10.94,10.94,0,0,1-.852,2Zm-4.032,3.732a7.287,7.287,0,0,0,1.98,2.064,18.5,18.5,0,0,1-4.38.828l.528,1.236A18.054,18.054,0,0,0-17.976-.252a15.581,15.581,0,0,0,5.2,1.368l.48-1.308a17.239,17.239,0,0,1-4.344-.816,7.521,7.521,0,0,0,2.352-2.616v-1.14H-21.78v1.14H-15.8a7.879,7.879,0,0,1-2.2,2,6.929,6.929,0,0,1-2.136-1.824ZM-10.26,1.044h1.224V-7.44a15.589,15.589,0,0,0,.912-2.616l-1.284-.192A11.163,11.163,0,0,1-11.82-5.316l.552,1.4a8.571,8.571,0,0,0,1.008-1.26Zm2.328-5.952A18.76,18.76,0,0,1-5.916-1.98l1.1-.744A20.734,20.734,0,0,0-6.876-5.6Zm4.944-2.76H-8.376v1.236h5.388V-.54c0,.144-.024.348-.312.348L-5.52-.228l.168,1.272h2.22C-2.1,1.044-1.7.636-1.7-.228v-6.2H-.348V-7.668H-1.7v-2.544H-2.988ZM.648.324H1.8V-.6H4.392V-9.72H.648Zm2.6-8.832v2.7H1.8v-2.7Zm0,3.828v2.9H1.8v-2.9Zm8-4.5H8.784V-10.2H7.572v1.02H5.184v1.152H7.572v1.392H4.764v1.164h4.4v1.188H4.86v1.152H9.168V-.384c0,.18-.18.192-.264.192H7.116l.24,1.224H9.288C10.4,1.032,10.4.156,10.4-.192v-2.94h1.128V-4.284H10.4V-5.472h1.224V-6.636H8.784V-8.028h2.472ZM4.992-2.232A9.858,9.858,0,0,1,6.54-.2L7.584-1a8.159,8.159,0,0,0-1.62-1.932Zm16.992,1.8c0,.24-.132.288-.276.288H20.352l.192,1.2H22.38c.8,0,.8-.792.8-1.128V-9.708H18.432v4.38h3.552Zm0-8.292v.792H19.6v-.792Zm0,1.608v.792H19.6v-.792ZM12.8,1.056h1.188V-5.328h3.372v-4.38H12.8Zm3.4-9.78v.792H13.992v-.792Zm0,1.608v.792H13.992v-.792ZM15.192-4.644V-.192H20.76V-4.644Zm4.428.972v.828h-3.3v-.828Zm0,1.632v.864h-3.3V-2.04Z" transform="translate(37.309 49.978)" fill="#fff"/>
        <path id="パス_2773" data-name="パス 2773" d="M-52.17-8.628h4.536V-4.26H-52.59v1.176h4.956V1.14h1.26V-3.084h4.98V-4.26h-4.98V-8.628h4.608V-9.792h-10.4Zm.6.816a22.61,22.61,0,0,1,1.2,3.2l1.188-.408a16.2,16.2,0,0,0-1.272-3.192ZM-43.7-8.2a17.084,17.084,0,0,1-1.272,3.2l1.116.456a17.617,17.617,0,0,0,1.428-3.336Zm4.308,9.2h1.32V.384h6.108v.624h1.332V-9.648h-8.76ZM-31.962-5.3H-38.07V-8.412h6.108Zm0,4.452H-38.07V-4.08h6.108Zm3.624-1.884C-28.362-.024-26.346.1-24.7.1c2.616,0,4.188-.288,4.188-4.848,0-3.552-.732-4.8-3.876-4.8-2.508,0-3.816.756-3.816,3.108,0,2.22,1.44,3,3.5,3a3.215,3.215,0,0,0,2.736-1.008,6.052,6.052,0,0,1-.276,2.22c-.3.828-.96,1.044-2.436,1.044-2.16,0-2.256-.684-2.256-1.548ZM-24.4-4.7c-1.752,0-2.376-.48-2.376-1.716s.3-1.824,2.364-1.824c1.2,0,2.412.18,2.412,1.692C-22-5.7-22.158-4.7-24.4-4.7Zm5.3-2.364v1.62h1.548v-1.62Zm0,5.46V0h1.548V-1.608Zm2.976-1.62c0,2.3.7,3.324,4.092,3.324C-10.554.1-8.3-.048-8.3-2.688A2.084,2.084,0,0,0-9.762-4.932c.288-.084,1.344-.372,1.344-2.052,0-2.568-2.448-2.568-3.564-2.568-2.448,0-3.864.348-3.948,3.024h1.44c.012-.924.024-1.728,2.58-1.728,1.428,0,2.064.36,2.064,1.44,0,1.356-1.116,1.356-1.716,1.356H-13.05V-4.3h1.488c1.764,0,1.836.9,1.836,1.548,0,1.284-.768,1.548-2.472,1.548-2.52,0-2.508-.84-2.5-2.028ZM-3.1-9.552c-3.228,0-3.972,1.14-3.972,4.824C-7.074-1.02-6.318.1-3.1.1.174.1.858-1.14.858-4.6.858-8.376.174-9.552-3.1-9.552Zm-.012,1.3c2.208,0,2.532.456,2.532,3.6C-.582-1.824-.858-1.2-3.018-1.2c-2.34,0-2.616-.516-2.616-3.5C-5.634-7.728-5.346-8.256-3.114-8.256Zm15.24,2.784A3.036,3.036,0,0,1,9.8-4.32a4.083,4.083,0,0,1-2.124-.756A5.086,5.086,0,0,0,5.118-5.9a4.217,4.217,0,0,0-2.052.576,4.092,4.092,0,0,0-1.092.948l.792.708A2.772,2.772,0,0,1,5.046-4.8c.912,0,1.212.168,2.724,1.008a3.929,3.929,0,0,0,2,.576,4.1,4.1,0,0,0,3.144-1.548Zm3.768-3.984v1.3H17.73V0h1.44V-9.456Zm8.76,4.536a2.254,2.254,0,0,0-1.488,2.364C23.166-.216,25.218.1,27.114.1S31.05-.228,31.05-2.556c0-.252,0-1.956-1.476-2.364A2.16,2.16,0,0,0,30.846-7c0-2.448-2.412-2.556-3.732-2.556S23.37-9.444,23.37-7A2.156,2.156,0,0,0,24.654-4.92ZM27.114-8.3c1.776,0,2.34.384,2.34,1.368,0,1.092-.6,1.464-2.256,1.464-1.368,0-2.436-.108-2.436-1.416C24.762-7.8,25.122-8.3,27.114-8.3Zm0,3.984c1.788,0,2.544.324,2.544,1.56,0,1.08-.36,1.6-2.544,1.6-2.1,0-2.556-.468-2.556-1.548C24.558-3.9,25.134-4.32,27.114-4.32Zm5.328-2.748v1.62H33.99v-1.62Zm0,5.46V0H33.99V-1.608Zm2.976-1.62c0,2.3.7,3.324,4.092,3.324,1.476,0,3.732-.144,3.732-2.784a2.084,2.084,0,0,0-1.464-2.244c.288-.084,1.344-.372,1.344-2.052,0-2.568-2.448-2.568-3.564-2.568-2.448,0-3.864.348-3.948,3.024h1.44c.012-.924.024-1.728,2.58-1.728,1.428,0,2.064.36,2.064,1.44,0,1.356-1.116,1.356-1.716,1.356H38.49V-4.3h1.488c1.764,0,1.836.9,1.836,1.548,0,1.284-.768,1.548-2.472,1.548-2.52,0-2.508-.84-2.5-2.028Zm13.02-6.324c-3.228,0-3.972,1.14-3.972,4.824C44.466-1.02,45.222.1,48.438.1,51.714.1,52.4-1.14,52.4-4.6,52.4-8.376,51.714-9.552,48.438-9.552Zm-.012,1.3c2.208,0,2.532.456,2.532,3.6,0,2.832-.276,3.456-2.436,3.456-2.34,0-2.616-.516-2.616-3.5C45.906-7.728,46.194-8.256,48.426-8.256Z" transform="translate(124.309 49.978)" fill="#fff"/>
        <path id="パス_2775" data-name="パス 2775" d="M-25.428-9.456a8.685,8.685,0,0,0-2.148,5.532,8.539,8.539,0,0,0,2.148,5.532h1.14A8.485,8.485,0,0,1-26.34-3.924a8.874,8.874,0,0,1,2.052-5.532Zm7.476,1.644V-6.18H-21.84v3.348h-1.788V-1.62h5.676v2.7h1.26v-2.7h4.332V-2.832h-4.332V-5h3.48V-6.18h-3.48V-7.812h3.864V-9.024h-7.26a8.593,8.593,0,0,0,.348-.9l-1.368-.336a7.177,7.177,0,0,1-2.664,3.84l.852,1.068a9.055,9.055,0,0,0,2.184-2.46Zm0,2.808v2.172h-2.6V-5Zm11.3-5.184v2.064H-11.1V-1.9h1.248v-.672h3.2V1.068h1.26V-2.568H-2.1V-1.9H-.828V-8.124h-4.56v-2.064ZM-2.1-6.876v3.06H-5.388v-3.06Zm-4.548,0v3.06h-3.2v-3.06Zm8.472.552H.324v1.08h1.5v1.752H.624v1.08H11.352v-1.08H10.224V-5.244h1.44v-1.08h-1.44V-8.04h1.128V-9.132H3.444a4.439,4.439,0,0,0,.48-.84l-1.176-.336a5.149,5.149,0,0,1-2.6,2.424l.8,1.008a4.888,4.888,0,0,0,.876-.552ZM6.66-8.04v1.716h-1.3V-8.04Zm0,2.8v1.752h-1.3V-5.244ZM4.284-8.04v1.716h-1.3V-8.04Zm0,2.8v1.752h-1.3V-5.244Zm4.752-2.8v1.716H7.74V-8.04Zm0,2.8v1.752H7.74V-5.244ZM1.7-1.968A5.17,5.17,0,0,1,.324.348l1.044.828A5.937,5.937,0,0,0,2.856-1.656Zm2.22.228A10.151,10.151,0,0,1,4-.444,6.527,6.527,0,0,1,3.924.924H5.2a16.183,16.183,0,0,0-.156-2.7ZM6.312-1.8A9.822,9.822,0,0,1,6.924.924L8.184.852a9.534,9.534,0,0,0-.744-2.76ZM8.9-1.6a12.52,12.52,0,0,1,1.644,2.712l1.116-.7A14.527,14.527,0,0,0,10-2.1Zm7.044,1.08A12.8,12.8,0,0,0,18.864-5.2V1.068h1.284v-6.12A11.2,11.2,0,0,0,22.992-.468l.792-1.3A11.207,11.207,0,0,1,20.6-6.672h3v-1.2H20.148V-10.2H18.864v2.328h-3.3v1.2H18.4a12.963,12.963,0,0,1-3.288,4.956Zm-2.34,1.584h1.224v-8.1a11.982,11.982,0,0,0,.828-3L14.352-10.2a8.992,8.992,0,0,1-2.136,4.92l.528,1.488a7.2,7.2,0,0,0,.864-1ZM24.288-9.456A8.874,8.874,0,0,1,26.34-3.924a8.485,8.485,0,0,1-2.052,5.532H25.44a8.611,8.611,0,0,0,2.148-5.532A8.754,8.754,0,0,0,25.44-9.456Z" transform="translate(216.309 48.978)" fill="#fff"/>
        <path id="パス_2771" data-name="パス 2771" d="M-101.08-23.548a7.133,7.133,0,0,0-5.656,2.716C-108.92-17.668-109-12.656-109-11.48c0,1.484.168,6.44,2.268,9.38A7.082,7.082,0,0,0-101.08.616,7.009,7.009,0,0,0-95.424-2.1c2.072-2.912,2.268-7.784,2.268-9.38,0-1.148-.084-6.216-2.268-9.352A7.043,7.043,0,0,0-101.08-23.548Zm0,4.312c2.184,0,2.772,3.808,2.772,7.756,0,4.368-.672,7.784-2.8,7.784-2.436,0-2.744-4.9-2.744-7.784C-103.852-15.456-103.264-19.236-101.08-19.236Zm11.032,7.868c-.2,2.044,1.568,2.184,2.3,2.184a2.82,2.82,0,0,0,2.044-.784,3.075,3.075,0,0,1,2.576-1.2c1.736,0,2.968,1.2,2.968,3.556,0,1.008-.112,3.92-3.052,3.92a2.7,2.7,0,0,1-2.772-2.128,2.371,2.371,0,0,0-2.52-1.456c-1.2,0-2.352.532-2.352,2.1,0,1.484,1.96,5.8,7.784,5.8,3.892,0,8.064-2.3,8.064-8.54,0-4.788-3.332-7.56-7.084-7.56a5.943,5.943,0,0,0-3.416.9l.336-3.248a.906.906,0,0,1,.9-.784h6.048A2.047,2.047,0,0,0-75.824-20.8a2.083,2.083,0,0,0-2.408-2.156h-7.5c-1.82,0-3.164.28-3.444,3.136Zm25.256-12.18a7.133,7.133,0,0,0-5.656,2.716c-2.184,3.164-2.268,8.176-2.268,9.352,0,1.484.168,6.44,2.268,9.38A7.082,7.082,0,0,0-64.792.616,7.009,7.009,0,0,0-59.136-2.1c2.072-2.912,2.268-7.784,2.268-9.38,0-1.148-.084-6.216-2.268-9.352A7.043,7.043,0,0,0-64.792-23.548Zm0,4.312c2.184,0,2.772,3.808,2.772,7.756,0,4.368-.672,7.784-2.8,7.784-2.436,0-2.744-4.9-2.744-7.784C-67.564-15.456-66.976-19.236-64.792-19.236Zm12.04,8.372c-2.156,0-2.38,1.288-2.38,2.492,0,1.652.784,2.352,2.38,2.352H-48.3c2.156,0,2.352-1.316,2.352-2.52,0-1.652-.784-2.324-2.352-2.324ZM-31.3-12.4a5.234,5.234,0,0,0,2.24-4.48c0-3.892-2.772-6.664-7.42-6.664-5.768,0-7.308,4.536-7.308,6.356,0,1.6,1.12,2.128,2.464,2.128,2.072,0,2.268-1.232,2.352-1.9.28-1.932,1.288-2.268,2.548-2.268,1.54,0,2.24,1.12,2.24,2.52,0,1.932-.784,2.912-2.324,2.912-.924,0-2.3,0-2.3,1.96,0,1.932,1.344,1.932,2.3,1.932,3,0,3,2.464,3,3.248A2.68,2.68,0,0,1-36.484-3.7c-2.38,0-2.6-1.6-2.8-2.772-.2-1.232-1.288-1.6-2.492-1.6-1.848,0-2.436,1.092-2.436,2.156a6.939,6.939,0,0,0,1.54,4.06C-41.1.056-38.864.616-36.26.616c7.42,0,7.9-5.712,7.9-7.252A6.736,6.736,0,0,0-31.3-12.4Zm11.312-2.66V-1.792c0,1.96,1.064,2.408,2.688,2.408,2.128,0,2.492-1.2,2.492-2.408V-21.98c0-.672-.616-1.6-2.128-1.6-1.568,0-1.848.728-2.24,1.764a4.155,4.155,0,0,1-3.556,2.828c-.924.14-2.016.28-2.016,1.932a1.807,1.807,0,0,0,1.792,1.988Zm12.88,3.7c-.2,2.044,1.568,2.184,2.3,2.184a2.82,2.82,0,0,0,2.044-.784A3.075,3.075,0,0,1-.2-11.172c1.736,0,2.968,1.2,2.968,3.556C2.772-6.608,2.66-3.7-.28-3.7A2.7,2.7,0,0,1-3.052-5.824,2.371,2.371,0,0,0-5.572-7.28c-1.2,0-2.352.532-2.352,2.1,0,1.484,1.96,5.8,7.784,5.8,3.892,0,8.064-2.3,8.064-8.54,0-4.788-3.332-7.56-7.084-7.56a5.943,5.943,0,0,0-3.416.9l.336-3.248a.906.906,0,0,1,.9-.784H4.7A2.047,2.047,0,0,0,7.112-20.8,2.083,2.083,0,0,0,4.7-22.96H-2.8c-1.82,0-3.164.28-3.444,3.136ZM20.72-8.876c-.14,3.108-.98,5.18-3.164,5.18a1.961,1.961,0,0,1-1.988-1.12c-.448-1.176-.728-1.848-2.548-1.848-2.128,0-2.492,1.512-2.492,2.072,0,1.792,2.128,5.208,7.028,5.208,7.952,0,8.512-8.848,8.512-12.8,0-4.844-1.064-7-2.324-8.624a7.42,7.42,0,0,0-5.852-2.744c-4.676,0-7.672,3.5-7.672,8.232,0,3.948,2.3,7.7,6.944,7.7A4.812,4.812,0,0,0,20.72-8.876ZM18.2-19.236c.952,0,2.66.644,2.66,3.724s-1.736,3.724-2.66,3.724c-.98,0-2.688-.672-2.688-3.724C15.512-18.62,17.276-19.236,18.2-19.236Zm11.984,8.372c-2.156,0-2.38,1.288-2.38,2.492,0,1.652.784,2.352,2.38,2.352h4.452c2.156,0,2.352-1.316,2.352-2.52,0-1.652-.784-2.324-2.352-2.324Zm10.752-12.1a2.071,2.071,0,0,0-2.408,2.184,2.058,2.058,0,0,0,2.408,2.156h6.972c.14,0,.672,0,.672.308a1.123,1.123,0,0,1-.252.476,36.739,36.739,0,0,0-3.052,4.816,34.237,34.237,0,0,0-3.836,11.7c0,.588.056,1.932,2.66,1.932,2.548,0,2.6-1.288,2.632-2.072.14-3.948,2.436-10.276,5.152-13.972,2.884-3.892,2.884-3.948,2.884-4.956a2.359,2.359,0,0,0-2.324-2.576Zm18.144,0a2.071,2.071,0,0,0-2.408,2.184A2.058,2.058,0,0,0,59.08-18.62h6.972c.14,0,.672,0,.672.308a1.123,1.123,0,0,1-.252.476A36.738,36.738,0,0,0,63.42-13.02a34.237,34.237,0,0,0-3.836,11.7c0,.588.056,1.932,2.66,1.932,2.548,0,2.6-1.288,2.632-2.072.14-3.948,2.436-10.276,5.152-13.972,2.884-3.892,2.884-3.948,2.884-4.956a2.359,2.359,0,0,0-2.324-2.576Zm18.144,0a2.071,2.071,0,0,0-2.408,2.184,2.058,2.058,0,0,0,2.408,2.156H84.2c.14,0,.672,0,.672.308a1.123,1.123,0,0,1-.252.476,36.739,36.739,0,0,0-3.052,4.816,34.237,34.237,0,0,0-3.836,11.7c0,.588.056,1.932,2.66,1.932,2.548,0,2.6-1.288,2.632-2.072.14-3.948,2.436-10.276,5.152-13.972,2.884-3.892,2.884-3.948,2.884-4.956a2.359,2.359,0,0,0-2.324-2.576Zm21.28,8.9c.14-3.136.98-5.208,3.164-5.208a1.983,1.983,0,0,1,1.988,1.148c.448,1.148.728,1.848,2.548,1.848,2.156,0,2.492-1.512,2.492-2.072,0-1.792-2.128-5.236-7.028-5.236-7.952,0-8.512,8.876-8.512,12.8,0,4.844,1.064,7,2.324,8.624A7.353,7.353,0,0,0,101.332.616c4.676,0,7.7-3.528,7.7-8.232,0-3.976-2.324-7.7-6.972-7.7A4.812,4.812,0,0,0,98.5-14.056Zm2.52,2.884c.98,0,2.688.672,2.688,3.724,0,3.108-1.736,3.752-2.688,3.752-.924,0-2.66-.672-2.66-3.752S100.128-11.172,101.024-11.172Z" transform="translate(152.618 26.865)" fill="#fff"/>
        <g id="グループ_203" data-name="グループ 203" transform="translate(0 -0.249)">
          <path id="パス_2659" data-name="パス 2659" d="M11.832,134.316a34.033,34.033,0,0,0,6.684,3.849,8.479,8.479,0,0,0,2.409.785l.06,0c1.649,0,3.779-3.089,4.032-4.091a3.115,3.115,0,0,0-1.105-3.221L21.7,129.913a3.085,3.085,0,0,0-1.913-.658,3.124,3.124,0,0,0-2.109.818,10.4,10.4,0,0,0-1.058,1.081.178.178,0,0,1-.087.017c-.927,0-4.17-2.82-5.037-3.722-.915-.879-3.766-4.159-3.716-5.05,0-.062.023-.078.03-.083a9.949,9.949,0,0,0,1.068-1.044,3.114,3.114,0,0,0,.16-4.021L7.31,115.037a3.3,3.3,0,0,0-.812-.723,3.108,3.108,0,0,0-1.292-.45,3.331,3.331,0,0,0-.381-.022,3.014,3.014,0,0,0-.736.09c-.883.223-4.167,2.355-4.089,4.093a8.478,8.478,0,0,0,.785,2.409,34.133,34.133,0,0,0,11.047,13.882Z" transform="translate(0.001 -106.724)" fill="#fff"/>
          <path id="パス_2660" data-name="パス 2660" d="M264.371,6.224a17.177,17.177,0,0,0-9.444-4.842,1.763,1.763,0,0,0-.643.023h-.007a1.771,1.771,0,0,0-.321.1l-.022.009a1.806,1.806,0,0,0-.285.156l-.018.013a1.815,1.815,0,0,0-.255.212h0a1.791,1.791,0,0,0-.534,1.269v0a1.783,1.783,0,0,0,1.477,1.774,13.7,13.7,0,0,1,11.342,11.332,1.783,1.783,0,0,0,1.772,1.475,1.805,1.805,0,0,0,1.785-2.087A17.207,17.207,0,0,0,264.371,6.224Z" transform="translate(-236.842 -1.363)" fill="#fff"/>
          <path id="パス_2661" data-name="パス 2661" d="M254.118,121.639a6.49,6.49,0,0,1,4.186,4.18,1.814,1.814,0,0,0,1.72,1.275h0a1.8,1.8,0,0,0,1.736-2.3,10.106,10.106,0,0,0-6.625-6.623,1.8,1.8,0,0,0-2.3,1.734v.01A1.814,1.814,0,0,0,254.118,121.639Z" transform="translate(-236.839 -110.707)" fill="#fff"/>
        </g>
      </g>
    </g>
  </g>
</svg>
