<svg xmlns="http://www.w3.org/2000/svg" xmlns:xlink="http://www.w3.org/1999/xlink" width="358" height="174.622" viewBox="0 0 358 174.622">
  <defs>
    <filter id="長方形_145" x="0" y="36.622" width="358" height="138" filterUnits="userSpaceOnUse">
      <feOffset dy="3" input="SourceAlpha"/>
      <feGaussianBlur stdDeviation="3" result="blur"/>
      <feFlood flood-opacity="0.161"/>
      <feComposite operator="in" in2="blur"/>
      <feComposite in="SourceGraphic"/>
    </filter>
  </defs>
  <g id="グループ_248" data-name="グループ 248" transform="translate(-91 -937.378)">
    <g transform="matrix(1, 0, 0, 1, 91, 937.38)" filter="url(#長方形_145)">
      <rect id="長方形_145-2" data-name="長方形 145" width="340" height="120" rx="10" transform="translate(9 42.62)" fill="#00b900"/>
    </g>
    <path id="パス_2757" data-name="パス 2757" d="M-107.145-22.59c0-1.77-.81-2.64-2.91-2.64-2.64,0-2.85,1.62-2.85,2.64V-4.32c0,3.12,1.32,4.32,4.32,4.32h11.01a2.219,2.219,0,0,0,2.55-2.52,2.2,2.2,0,0,0-2.55-2.43h-8.73a.782.782,0,0,1-.84-.87Zm21.69,0c0-1.74-.78-2.64-2.91-2.64-2.64,0-2.82,1.62-2.82,2.64V-2.01c0,1.77.78,2.67,2.88,2.67,2.64,0,2.85-1.62,2.85-2.67Zm19.89,15.24-6.81-15.72a3.8,3.8,0,0,0-3.81-2.19c-2.58,0-3.96.72-3.96,2.7V-2.01c0,1.05.21,2.67,2.85,2.67,2.1,0,2.91-.9,2.91-2.67V-15.93l-.06-1.29,6.81,15.72A3.8,3.8,0,0,0-63.825.66c2.4,0,3.96-.66,3.96-2.7V-22.59c0-1.02-.21-2.64-2.85-2.64-2.13,0-2.91.9-2.91,2.64V-8.64Zm16.74-7.56v-3.87a.773.773,0,0,1,.84-.84h9.12c1.62,0,2.55-.66,2.55-2.52a2.242,2.242,0,0,0-2.55-2.46h-11.4c-2.76,0-4.32.99-4.32,4.32V-4.32c0,3.15,1.32,4.32,4.32,4.32h12.12a2.217,2.217,0,0,0,2.55-2.52,2.214,2.214,0,0,0-2.55-2.43h-9.84a.782.782,0,0,1-.84-.87v-4.35h9.03c2.19,0,2.49-1.26,2.49-2.46,0-2.01-1.41-2.28-2.49-2.28Zm28.5-3.27a15.379,15.379,0,0,0-3.81,3.24,11.237,11.237,0,0,0-2.85,7.38A7.806,7.806,0,0,0-22.065.06a22.384,22.384,0,0,0,8.67,1.5c2.19,0,4.65,0,4.65-3.12a2.2,2.2,0,0,0-2.37-2.49h-2.76c-4.11,0-7.68-.42-7.68-4.08,0-4.8,6.03-10.11,12.03-10.2,1.68-.03,3.48-.06,3.48-2.73,0-2.49-1.86-2.49-3.51-2.49-7.8,0-20.22.51-21.18.63-1.98.21-2.25,1.65-2.25,2.76a2.4,2.4,0,0,0,2.43,2.73c.51,0,3.12-.21,3.69-.24C-24.405-17.82-21.705-18.06-20.325-18.18Zm6.51,5.04c.81,1.86.9,2.04,1.53,2.04.36,0,1.23-.21,1.23-1.02a7.743,7.743,0,0,0-.9-2.46c-.6-1.2-.99-1.53-1.47-1.53s-1.23.39-1.23.99a1.736,1.736,0,0,0,.09.51C-14.505-14.37-13.935-13.38-13.815-13.14Zm3.09-1.41c.84,1.89.9,2.04,1.53,2.04.51,0,1.23-.33,1.23-1.02a7.641,7.641,0,0,0-.87-2.43c-.6-1.17-.96-1.56-1.47-1.56-.48,0-1.26.39-1.26.99a1.736,1.736,0,0,0,.09.51C-11.415-15.81-10.845-14.79-10.725-14.55ZM8.625-9.3c-1.89-2.34-2.88-3.57-3.72-6.27v-.42h1.11c1.11,0,2.22-.33,2.22-2.31,0-2.25-1.53-2.31-2.22-2.31H4.9v-2.82c0-1.83-.84-2.43-2.46-2.43a2.07,2.07,0,0,0-2.16,2.43v2.82h-1.89c-1.11,0-2.22.36-2.22,2.34,0,2.25,1.56,2.28,2.22,2.28H.135a22.36,22.36,0,0,1-2.91,6.36c-1.05,1.56-1.38,2.04-1.38,3.03a2.694,2.694,0,0,0,2.4,2.85c.99,0,1.53-.6,2.04-1.62V.6c0,1.86.84,2.37,2.46,2.37C4.755,2.97,4.9,1.44,4.9.6V-7.44c.48.93,1.02,1.8,1.98,1.8a2.367,2.367,0,0,0,1.74-.78v4.98c0,2.91,1.38,3.75,3.75,3.75h7.8c2.37,0,3.72-.84,3.72-3.75V-21.12c0-2.91-1.35-3.72-3.72-3.72h-7.8c-2.37,0-3.75.81-3.75,3.72Zm10.53-.69h-5.82V-12.9h5.82Zm-5.82-7.26v-2.22a.636.636,0,0,1,.72-.72h4.38a.636.636,0,0,1,.72.72v2.22Zm5.82,14.19a.649.649,0,0,1-.72.72h-4.38a.636.636,0,0,1-.72-.72V-5.64h5.82Zm24.24-6.15A7.233,7.233,0,0,1,40.6-3.42c-.39.36-.69.48-3.18,1.74a5.325,5.325,0,0,0-.69.42V-3.42c0-3.03-.51-3.54-3.54-3.54h-2.64c-3.03,0-3.54.51-3.54,3.54v2.4c0,3.03.48,3.57,3.51,3.57h2.7c1.5,0,2.52,0,3.15-1.05A2.209,2.209,0,0,0,38.5,2.94c1.29,0,5.52-2.25,7.14-6.6a11.247,11.247,0,0,0,2.13,3.6c1.26,1.41,3.3,2.88,4.59,2.88a2.773,2.773,0,0,0,2.43-2.85,1.764,1.764,0,0,0-.75-1.56l-2.16-1.26a8.215,8.215,0,0,1-3.87-6.57V-10.8c0-1.95-.9-2.4-2.52-2.4-1.8,0-2.1,1.26-2.1,2.4ZM33.015-1.8a.42.42,0,0,1-.45.48h-.9a.433.433,0,0,1-.45-.48V-2.94a.433.433,0,0,1,.45-.48h.9a.433.433,0,0,1,.45.48Zm2.61-14.85c1.05,0,1.98-.27,1.98-2.04,0-1.74-1.23-1.86-1.98-1.86h-7.5c-1.38,0-2.01.57-2.01,2.04a1.727,1.727,0,0,0,2.01,1.86Zm3.6-8.34c-.75,0-2.4.63-2.4,1.89a19.09,19.09,0,0,0,1.11,3.36c.48,1.08.81,1.59,1.95,1.59a2.346,2.346,0,0,0,2.58-2.07,11.626,11.626,0,0,0-1.08-3.12C40.6-24.87,40.125-24.99,39.225-24.99Zm12.51,8.16a7.688,7.688,0,0,1-3.72-6.3,4.5,4.5,0,0,0-.15-1.38c-.3-.93-.87-1.29-2.37-1.29a1.854,1.854,0,0,0-2.07,1.74c-.03.18-.03.99-.03,1.17a6.883,6.883,0,0,1-3.96,6.27c-2.4,1.23-2.49,1.29-2.67,2.16a1.7,1.7,0,0,0-1.98-1.47h-5.91c-.87,0-2.01.18-2.01,1.92a1.708,1.708,0,0,0,2.01,1.86h5.91a1.717,1.717,0,0,0,1.98-1.41,2.688,2.688,0,0,0,2.22,2.46c1.38,0,5.34-2.7,6.75-6.39,1.68,3.72,5.22,6.36,6.66,6.36,1.23,0,2.34-1.47,2.34-3.06a1.557,1.557,0,0,0-.9-1.53Zm-17.01-4.44c.78,0,2.01-.15,2.01-1.89a1.727,1.727,0,0,0-2.01-1.86h-5.85c-.78,0-2.01.15-2.01,1.89a1.727,1.727,0,0,0,2.01,1.86Zm-.06,13.59c.69,0,2.13,0,2.13-1.89a1.733,1.733,0,0,0-2.01-1.86h-5.91c-.72,0-2.01.12-2.01,1.89a1.727,1.727,0,0,0,2.01,1.86Zm20.1-15.42a2.45,2.45,0,0,0-2.52-1.86,1.738,1.738,0,0,0-1.59.87c-.12.21-.66,1.38-.78,1.65a5.766,5.766,0,0,0-.81,2.19,2.376,2.376,0,0,0,2.52,2.07c.99,0,1.38-.54,1.92-1.59C54.735-22.14,54.855-22.35,54.765-23.1ZM38.895-11.04a2.181,2.181,0,0,0-2.01,1.95c0,.51,0,.51,1.05,2.88.66,1.5.84,1.92,2.01,1.92.87,0,2.49-.54,2.49-2.04a11.542,11.542,0,0,0-1.5-3.81A1.783,1.783,0,0,0,38.895-11.04ZM54.7-9.24c0-.96-1.2-1.83-2.52-1.83-1.17,0-1.41.45-2.4,2.55-.66,1.38-.72,1.53-.72,1.89a2.349,2.349,0,0,0,2.43,2.16c.9,0,1.38-.36,2.04-1.53C54.7-8.13,54.7-8.49,54.7-9.24Zm22.74-8.16c2.94-.09,3.27-.09,3.96-.12,1.11-.03,2.61-.18,2.61-2.37,0-2.13-1.47-2.37-2.58-2.37-.57,0-3.36.12-3.99.12,0-1.2,0-3-2.7-3s-2.67,1.98-2.64,2.67l.03.48c-2.34.06-4.98.09-7.02.12-.72,0-4.29-.03-5.1-.03-1.23,0-2.97.06-2.97,2.37,0,1.65.9,2.13,1.44,2.25a16.466,16.466,0,0,0,3.69.15c2.67,0,6.42-.06,10.08-.15l.03,1.47a13.539,13.539,0,0,0-3.6-.48c-5.07,0-7.59,2.82-7.59,6,0,3.75,3.06,6.03,7.44,6.03a6.919,6.919,0,0,0,4.11-1.02,3.019,3.019,0,0,1-2.25,2.04,16.856,16.856,0,0,1-5.61.69c-1.38,0-2.88,0-2.88,2.13a2.744,2.744,0,0,0,.81,1.98,2.694,2.694,0,0,0,2.01.6,35.672,35.672,0,0,0,4.68-.45c6.42-1.11,8.67-4.56,8.67-8.97a10.619,10.619,0,0,0-.63-3.75Zm-8.22,9.21c-.42,0-3.03-.09-3.03-2.1,0-1.62,1.89-2.1,3.03-2.1.21,0,3.03,0,3.03,2.16C72.255-8.64,70.425-8.19,69.225-8.19Zm32.64-7.41a49.786,49.786,0,0,1,5.88-3.75,2.68,2.68,0,0,0,1.56-2.55c0-1.74-1.17-2.22-3.09-2.22-.27,0-.96,0-1.53.03-4.77.18-8.31.27-12.18.27-1.56,0-2.82.63-2.82,2.52,0,1.98,1.2,2.52,2.67,2.52.3,0,.81-.03,1.71-.09,3.03-.24,4.62-.39,6-.42-.24.24-.69.57-.78.66-4.8,3.69-6.54,5.01-9.78,7.29-1.95,1.38-2.43,1.71-2.43,2.88a2.877,2.877,0,0,0,2.73,2.82c.72,0,1.14-.27,3.03-2.01a12.955,12.955,0,0,1,9.36-3.78,8.581,8.581,0,0,1,3.06.45,4.089,4.089,0,0,1,2.58,3.87,4.306,4.306,0,0,1-3.03,4.2,6.334,6.334,0,0,0,.09-.96,5.3,5.3,0,0,0-.81-2.82c-1.32-2.01-4.29-2.22-5.4-2.22-3.51,0-6.69,1.74-6.69,5.49,0,4.56,5.1,5.52,8.94,5.52a16.554,16.554,0,0,0,7.14-1.35,8.815,8.815,0,0,0,5.28-8.31,7.733,7.733,0,0,0-4.29-7.32,11.839,11.839,0,0,0-4.83-1.02A7.185,7.185,0,0,0,101.865-15.6Zm-1.05,13.38a5.984,5.984,0,0,1-1.23.15c-2.22,0-3-.78-3-1.47,0-.81.9-1.35,2.22-1.35a1.811,1.811,0,0,1,2.1,1.86A6.685,6.685,0,0,1,100.815-2.22Z" transform="translate(270 1051)" fill="#fff"/>
    <g id="グループ_129" data-name="グループ 129" transform="translate(5 40)">
      <path id="パス_2756" data-name="パス 2756" d="M18.45-.81c-.84-.78-2.22-1.98-4.89-4.05A20.99,20.99,0,0,0,16.8-9.09l-3.15-1.68a27.08,27.08,0,0,1-2.91,3.78,45.876,45.876,0,0,0-5.46-3.33L3.09-7.59A42.393,42.393,0,0,1,8.04-4.5,28.65,28.65,0,0,1,.66-.63L2.91,2.73a32.9,32.9,0,0,0,7.98-5.07,55.921,55.921,0,0,1,4.89,4.47Zm10.5-19.5v-3.24H8.94c.36-.6.48-.81.93-1.56l-3.99-.72a18.039,18.039,0,0,1-5.4,6.51l2.37,3.06a38.336,38.336,0,0,0,3.84-4.05ZM1.11-11.13H20.88c-.06.87-.12,2.58-.12,4.8,0,4.59.6,8.88,4.2,8.88A3.158,3.158,0,0,0,27.84.9a12.782,12.782,0,0,0,1.59-4.32L26.88-5.91c-.39,1.74-.96,4.26-1.68,4.26-.87,0-.87-3.18-.87-4.02,0-2.46.27-6.9.39-8.64H1.11Zm4.92-7.68v3H26.79v-3Zm25.02-1.53H36v1.41H31.38V-6.69H36v1.71H30.81v3.27H36V2.76h3.3V-1.71h4.98V-4.98H39.3V-6.69h4.68V-18.93H39.3v-1.41h4.8v-3.21H39.3v-2.01H36v2.01H31.05Zm5.07,4.11v2.16H34.11v-2.16Zm5.13,0v2.16H39.21v-2.16ZM36.12-11.7v2.22H34.11V-11.7Zm5.13,0v2.22H39.21V-11.7ZM58.5-5.19V-8.55H53.7v-2.46H50.04v2.46H44.97v3.36h5.07v3.75H44.01V2.07H59.13V-1.44H53.7V-5.19Zm0-19.5H44.79v3.45h4.17l-2.46.99a17.267,17.267,0,0,0,3,4.59,20.869,20.869,0,0,1-5.43,2.46l1.59,3.33a20.579,20.579,0,0,0,6.42-3.33,17.207,17.207,0,0,0,5.7,3.3l1.59-3.45a17.57,17.57,0,0,1-4.62-2.22,15.571,15.571,0,0,0,3.75-5.79Zm-3.84,3.45a12.018,12.018,0,0,1-2.55,3.45,15.265,15.265,0,0,1-2.49-3.45Zm17.01-.78v3.84H86.7v-3.84Zm.87,10.11a10.165,10.165,0,0,0-1.8,5.58c0,6.27,6.99,6.27,10.98,6.27,1.65,0,3.9-.06,5.49-.21V-4.26a59.318,59.318,0,0,1-7.62.3c-3.51,0-5.19-.84-5.19-2.73a6.865,6.865,0,0,1,1.38-3.78ZM64.08-24.12A121.856,121.856,0,0,0,63-9.12,52.435,52.435,0,0,0,63.99,1.5l4.05-.39A53.118,53.118,0,0,1,67.02-9.78a84.4,84.4,0,0,1,1.2-14.01Zm28.38,1.08c-.12,1.56-.45,4.95-.45,8.7,0,3.57.27,15.27,6.84,15.27,4.74,0,7.11-6.36,7.89-8.52l-3.33-1.83a20.834,20.834,0,0,1-1.98,4.17c-.6.93-1.23,1.68-2.22,1.68-2.82,0-3.18-7.71-3.18-10.95a50.062,50.062,0,0,1,.72-8.16ZM118.44-2.22c.03-6.18-.12-14.31-6.42-20.25l-3.21,2.25c4.95,5.13,5.22,11.04,5.22,18.24ZM126.93.3a53.881,53.881,0,0,0,11.25-.9c2.34-.51,10.08-2.19,10.08-11.13,0-5.97-4.11-9.93-10.41-9.93a52.028,52.028,0,0,0-7.98.84c-.87.15-8.19,1.35-8.4,1.38l.81,4.35c2.04-.51,11.07-2.73,15.24-2.73,5.16,0,6.39,3.36,6.39,6.06,0,7.68-7.95,8.28-17.82,8.22ZM174.3-11.61a23.473,23.473,0,0,0-2.76-4.38l-2.34,1.23a35.06,35.06,0,0,1,2.7,4.5Zm3.93-2.07a21.747,21.747,0,0,0-2.73-4.05l-2.37,1.23a28.557,28.557,0,0,1,2.76,4.26Zm-.39-9.66c-3.06.12-16.8.63-19.38.78-2.22.12-4.62.27-6.63.27l.15,4.2c1.89-.18,11.16-.96,13.26-1.14-7.14,4.56-7.68,9.54-7.68,11.49A8.178,8.178,0,0,0,162.21-.6c2.76,1.35,5.82,1.98,12.39,2.01l.57-4.29c-12.48.42-13.47-3.09-13.47-5.4,0-3.75,3.27-6.9,4.98-8.22a12.8,12.8,0,0,1,7.53-2.88c1.11-.03,3.06.03,3.75.03Zm10.02,2.7H182.7v3.69h5.01l-.18,4.56h-5.28v3.66h5.16c0,7.35,1.17,10.26,9.6,10.26,4.95,0,10.62-.75,10.62-8.04a15.619,15.619,0,0,0-1.92-7.56l-3.69,1.08a13.985,13.985,0,0,1,1.5,6.06c0,4.14-2.55,4.62-6.36,4.62-5.64,0-5.7-1.05-5.7-6.42h.69c5.4,0,7.23-.48,8.73-1.41l-1.29-3.42c-1.2.69-2.91,1.17-7.05,1.17h-.96l.24-4.56h9.12v-3.69h-8.91l.21-3.75h-4.23Zm35.55-3.99V2.79h3.6V1.26h7.59V2.79h3.57V-24.63ZM234.6-13.92v4.17h-7.59v-4.17Zm0,7.41v4.35h-7.59V-6.51Zm0-14.67v4.02h-7.59v-4.02ZM211.62-3.09a24.16,24.16,0,0,0,3.63-6.66V2.79h3.6V-9.78a27.164,27.164,0,0,0,2.25,3.36l1.92-3.33a19.62,19.62,0,0,1-4.17-5.58V-16.8h3.54v-3.51h-3.54v-5.28h-3.6v5.28H210.9v3.51h4.14a24.918,24.918,0,0,1-4.68,9.09Zm36.66-1.05v2.85H244.8V-4.14Zm4.83,6.96a13.665,13.665,0,0,0,7.56-7.2c.54,1.38,1.92,4.8,7.38,7.2l1.71-3.51a13.153,13.153,0,0,1-5.01-2.97,9.368,9.368,0,0,1-2.46-7.14v-1.83h-3.54v1.98c0,4.77-1.62,8.07-7.47,10.08V-6.96h-9.69V2.76h3.21V1.62h6.48V-.48ZM241.59-8.52h9.69v-3h-9.69Zm10.59-1.35a24.425,24.425,0,0,1,1.68,5.76l3.33-.99a25.772,25.772,0,0,0-1.86-5.7Zm-10.59-12h9.69v-2.97h-9.69Zm10.95-1.56a18.4,18.4,0,0,1,1.05,5.52l3.45-.99a25.366,25.366,0,0,0-1.38-5.46ZM241.59-13.08h9.69v-2.91h-9.69Zm17.16-10.83c0,4.83-2.61,7.98-7.17,9.54l1.89,3.39a14.093,14.093,0,0,0,7.2-7.14,14.142,14.142,0,0,0,7.23,7.2l1.8-3.45a12.048,12.048,0,0,1-4.77-3.03,8.463,8.463,0,0,1-2.58-6.66V-25.5h-3.6ZM240.72-17.4h11.46v-3H240.72Zm24.81-7.05a23.656,23.656,0,0,1-1.89,5.22l3,1.32a26.5,26.5,0,0,0,2.16-5.52Zm.3,13.5a29.3,29.3,0,0,1-2.07,5.64l3.06,1.23a26.651,26.651,0,0,0,2.31-6Zm17.01-12.69.54,16.83h3.24l.54-16.83Zm.09,19.41V0h4.14V-4.23Z" transform="translate(120 926)" fill="#f29600"/>
      <path id="パス_2108" data-name="パス 2108" d="M0,0,37.549,2.771,0,5.115Z" transform="translate(92.828 897.378) rotate(60)" fill="#f29600"/>
      <path id="パス_2109" data-name="パス 2109" d="M0,5.115,37.549,2.345,0,0Z" transform="translate(441.602 899.936) rotate(120)" fill="#f29600"/>
    </g>
  </g>
</svg>
