<svg xmlns="http://www.w3.org/2000/svg" xmlns:xlink="http://www.w3.org/1999/xlink" width="270.464" height="81.152" viewBox="0 0 270.464 81.152">
  <defs>
    <filter id="パス_2863" x="0" y="0" width="270.464" height="81.152" filterUnits="userSpaceOnUse">
      <feOffset dy="3" input="SourceAlpha"/>
      <feGaussianBlur stdDeviation="3" result="blur"/>
      <feFlood flood-opacity="0.161"/>
      <feComposite operator="in" in2="blur"/>
      <feComposite in="SourceGraphic"/>
    </filter>
  </defs>
  <g transform="matrix(1, 0, 0, 1, 0, 0)" filter="url(#パス_2863)">
    <path id="パス_2863-2" data-name="パス 2863" d="M-84.8-12.464c-.928,3.472-2.048,5.024-2.96,5.968L-86.3-4.832a16.225,16.225,0,0,0,3.44-7.056ZM-72.16-6.8c-1.44-1.36-2.3-2.592-3.536-5.728l-1.888.7c1.568,4.544,3.264,6.032,4.016,6.688ZM-81.1-13.616v7.36c0,.464-.288.464-.448.464h-2.192l.368,2.064h2.512a1.619,1.619,0,0,0,1.856-1.744v-8.144Zm4.64,6.976c-2.224,3.712-4.7,5.552-11.088,6.128l.672,2.1c6.736-.7,9.68-3.072,12.1-7.024Zm7.52-6.352c0,1.1-.048,4.8-.048,7.12,0,2.3,0,3.776.8,4.88A4.713,4.713,0,0,0-64.048.752c3.9,0,6.032-2.288,6.736-6.224l-2.08-.736C-59.568-5.072-60.1-1.3-64-1.3c-2.5,0-2.848-1.488-2.848-3.376,0-2.384.16-7.792.176-8.3Zm25.9,6.8a12.519,12.519,0,0,0-1.472-2.336l-1.248.656a18.7,18.7,0,0,1,1.44,2.4Zm2.1-1.1A11.6,11.6,0,0,0-42.4-9.456l-1.264.656a15.23,15.23,0,0,1,1.472,2.272Zm-.208-5.152c-1.632.064-8.96.336-10.336.416-1.184.064-2.464.144-3.536.144l.08,2.24c1.008-.1,5.952-.512,7.072-.608-3.808,2.432-4.1,5.088-4.1,6.128A4.362,4.362,0,0,0-49.488-.32C-48.016.4-46.384.736-42.88.752l.3-2.288c-6.656.224-7.184-1.648-7.184-2.88,0-2,1.744-3.68,2.656-4.384a6.827,6.827,0,0,1,4.016-1.536c.592-.016,1.632.016,2,.016Zm5.344,1.44H-38.56V-9.04h2.672l-.1,2.432H-38.8v1.952h2.752c0,3.92.624,5.472,5.12,5.472,2.64,0,5.664-.4,5.664-4.288A8.33,8.33,0,0,0-26.288-7.5l-1.968.576a7.459,7.459,0,0,1,.8,3.232c0,2.208-1.36,2.464-3.392,2.464-3.008,0-3.04-.56-3.04-3.424h.368c2.88,0,3.856-.256,4.656-.752l-.688-1.824c-.64.368-1.552.624-3.76.624h-.512L-33.7-9.04h4.864v-1.968h-4.752l.112-2h-2.256Zm13.056-1.344a20.509,20.509,0,0,1,2.384,3.584l1.824-1.1a17.124,17.124,0,0,0-2.5-3.584ZM-10.944-13.5A15.731,15.731,0,0,1-13.28-9.84l1.824,1.2a17.579,17.579,0,0,0,2.464-3.936ZM-16.96-8.576h-6.432v1.888H-11.1v1.84H-22.7v1.872h11.6v1.888H-23.52V.848H-11.1v.64H-9.04V-8.576h-5.84v-5.072h-2.08ZM6.848-12.448c-1.632.064-8.96.336-10.336.416-1.52.08-2.768.144-3.536.144l.08,2.24c1.008-.1,5.952-.512,7.072-.608-3.808,2.432-4.1,5.088-4.1,6.128A4.362,4.362,0,0,0-1.488-.32C-.016.4,1.616.736,5.12.752l.3-2.288c-6.656.224-7.184-1.648-7.184-2.88C-1.76-6.416-.016-8.1.9-8.8a6.809,6.809,0,0,1,4.016-1.536c.5-.016,1.5,0,2,.016Zm3.072-.528a38.453,38.453,0,0,0-.56,6.768A43.573,43.573,0,0,0,9.84.7L11.984.448a33.877,33.877,0,0,1-.544-6.512,30.888,30.888,0,0,1,.656-6.7Zm3.12,2.624v2h4.624l.064,3.216a5.24,5.24,0,0,0-1.28-.128c-2.384,0-3.664,1.488-3.664,3.04,0,.848.48,2.928,3.7,2.928,3.184,0,3.232-2.016,3.248-2.9a12.738,12.738,0,0,1,1.984,1.84l1.36-1.84a13.14,13.14,0,0,0-3.264-2.3L19.76-8.352h2.864v-2h-2.9v-2.592h-2.1v2.592Zm4.72,7.824c0,.64-.016,1.456-1.36,1.456-1.52,0-1.7-.832-1.7-1.168,0-.688.656-1.264,1.792-1.264a2.971,2.971,0,0,1,1.264.272Zm7.7-9.12v1.9H31.3V-8.32H25.76v1.856H31.3v1.376a4.878,4.878,0,0,0-1.28-.128c-2.112,0-4.128.944-4.128,3.056,0,1.312.9,2.96,4,2.96,3.536,0,3.536-2.1,3.536-2.816v-.3A22.626,22.626,0,0,1,36.672.272l1.392-1.856a17.608,17.608,0,0,0-4.64-2.944V-6.464H38.1V-8.32H33.424V-9.744h4.992v-1.9H33.424V-13.04H31.3v1.392Zm5.872,9.232c0,.656-.112,1.344-1.6,1.344-.736,0-1.84-.176-1.84-1.136,0-.992,1.168-1.264,1.984-1.264a4.208,4.208,0,0,1,1.456.272ZM42.4-12.8v2.032l6.032-.1c-2.384,2.192-4.784,4.4-7.2,6.528l1.2,1.856c.592-.624,2.208-2.208,2.752-2.72a6.9,6.9,0,0,1,4.1-1.408,2.622,2.622,0,0,1,2.976,2.7,2.672,2.672,0,0,1-2.208,2.688c.016-.224.032-.32.032-.448a2.84,2.84,0,0,0-2.96-2.9c-1.44,0-2.992.9-2.992,2.5a2.619,2.619,0,0,0,1.3,2.192,5.269,5.269,0,0,0,2.976.7c4.224,0,6.08-2.3,6.08-4.912a4.179,4.179,0,0,0-4.416-4.368,4.8,4.8,0,0,0-1.776.288c.464-.384.736-.608,3.28-2.912V-12.8ZM48.32-.96C46.256-.8,45.9-1.536,45.9-1.984c0-.512.432-.9,1.12-.9a1.362,1.362,0,0,1,1.36,1.488A1.487,1.487,0,0,1,48.32-.96ZM67.84-5.888a21.679,21.679,0,0,1-.5,4.464c-.256.784-.624.784-1.12.784H63.04l.4,2.048h3.232c1.2,0,1.92-.16,2.416-1.28.5-1.1.832-4.288.912-7.92H62.848c.064-.848.08-1.44.08-1.936h8.64V-11.7H65.024v-1.936H62.9V-11.7H56.448v1.968h4.4C60.816-4.368,59.5-2.352,56.16-.5L57.408,1.44a9.567,9.567,0,0,0,5.216-7.328ZM77.968-.352A27.5,27.5,0,0,0,74.736-3.92L73.024-2.768A30.759,30.759,0,0,1,76,.96ZM-114.912,11.6c-.848,0-2.7-.016-3.584,0-.96.016-5.024.064-5.792.064-.368,0-.9-.016-1.216-.032v2.112c.96-.048,4.272-.128,5.312-.16-.384.208-1.248.672-1.6.912l1.44,1.264a14.928,14.928,0,0,1,5.44-2.224Zm-9.424,5.152a5.529,5.529,0,0,0-1.84,3.792,3.422,3.422,0,0,0,1.824,2.96c1.392.736,2.784.912,6.08.912a29.747,29.747,0,0,0,4.208-.208l-.048-2.16a36.575,36.575,0,0,1-4.784.272c-2.448,0-5.136-.032-5.136-1.9a3.64,3.64,0,0,1,1.3-2.56Zm9.312.736A13.38,13.38,0,0,0-116.56,15.1l-1.184.672a15.339,15.339,0,0,1,1.472,2.432Zm2.032-1.024a10.8,10.8,0,0,0-1.52-2.3l-1.2.672a13.65,13.65,0,0,1,1.488,2.336Zm7.856,8.992h2.08V14.544h-.432a16.568,16.568,0,0,0,.848-1.68h6.176v-2h-15.072v2h6.8c-.48.992-1.92,3.936-7.04,6.336l1.12,1.984a18.04,18.04,0,0,0,5.52-4.256Zm2.192-9.584a20.99,20.99,0,0,0,5.376,5.36l1.344-1.9a17.254,17.254,0,0,1-5.136-4.5Zm14.752-5.088V17.7c0,3.28-.928,4.992-3.36,6.176l1.36,1.632a6.853,6.853,0,0,0,3.712-5.12h3.664V22.8c0,.656-.048.672-.592.672h-1.648l.4,1.984h1.872c1.488,0,1.872-.32,1.872-1.872v-12.8Zm5.376,1.792v2.08H-86.3v-2.08Zm0,3.856v2.144H-86.3V16.432Zm-12.32-5.408V23.168h1.856V21.92h3.872v-10.9Zm3.92,1.856V15.5H-93.28V12.88Zm0,4.368v2.816H-93.28V17.248Zm15.184-6.432c-.1.7-.16,1.28-.272,1.936h-2.7v2h2.336a28.677,28.677,0,0,1-2.5,7.664l2.16.736a56.436,56.436,0,0,0,2.512-8.4h3.472v-2H-74.08c.112-.56.176-1.04.288-1.792Zm11.008,1.7a21.055,21.055,0,0,0-5.1.448l.16,5.776a9.432,9.432,0,0,0-1.152-.08c-2.96,0-4.064,1.632-4.064,3.168,0,1.36.912,3.04,3.824,3.04,2.848,0,3.472-1.888,3.472-2.8v-.288a12.567,12.567,0,0,1,2.032,1.76L-64.64,21.5a14.114,14.114,0,0,0-3.216-2.112L-68,14.816a8.968,8.968,0,0,1,1.664-.112,11.364,11.364,0,0,1,1.328.064Zm-4.88,9.056c0,1.136-.832,1.408-1.648,1.408-.672,0-1.7-.256-1.7-1.184,0-1.024,1.088-1.376,2.016-1.376a3.547,3.547,0,0,1,1.328.256ZM-48.48,11.6h-6.768V10.368H-57.28v4.32H-62.1v5.984h12.272V14.688h-5.424V13.52h6.768Zm-3.328,4.944v2.24H-60.1v-2.24Zm-10.048,4.368a8.453,8.453,0,0,1-1.9,3.44l1.616,1.248a10.774,10.774,0,0,0,2.08-4.016Zm2.832.544a10.579,10.579,0,0,1,.08,1.488,16.819,16.819,0,0,1-.16,2.4l2.016-.032c.016-.3.032-.576.032-.96a24.9,24.9,0,0,0-.144-2.9Zm3.328.048a16.786,16.786,0,0,1,.88,3.824l2.016-.272a25.792,25.792,0,0,0-1.04-3.728Zm3.664.256a22.8,22.8,0,0,1,1.92,3.792l1.84-.96A20.846,20.846,0,0,0-50.3,20.96ZM-41.04,11.616a12.922,12.922,0,0,1,1.056,1.9c-.416.128-2.352.752-2.56.832-.176-.608-.784-2.544-.928-3.024L-45.6,11.9c.224.576.72,2,1.04,3.1-.56.192-2.24.736-2.576.848l.624,2.128c.24-.1,1.68-.64,2.512-.96a69.93,69.93,0,0,1,1.84,7.984l2.288-.352a86.111,86.111,0,0,0-2.112-8.4c.56-.208,1.824-.656,2.64-.912.128.4.208.688.352,1.264l2.1-.576c-.08-.384-.144-.656-.272-1.1,1.824.032,2.1,1.184,2.1,1.808,0,.832-.56,2.048-2.608,2.048a5.9,5.9,0,0,1-1.76-.3l-.1,1.984a7.509,7.509,0,0,0,2.16.32c2.672,0,4.464-1.472,4.464-4.048,0-2.016-1.264-3.776-4.08-3.776a5.211,5.211,0,0,0-.912.064,13.244,13.244,0,0,0-1.28-2.176Zm17.328,6.416c0,4.272-1.648,5.728-2.272,6.288l1.616,1.2a8.659,8.659,0,0,0,1.6-2.656c1.232,2.192,2.912,2.464,6.288,2.432l.288-1.888a23.211,23.211,0,0,1-3.376-.128V21.024h2.784V19.312h-2.784V17.264h1.36A4.73,4.73,0,0,1-18.88,18.4l1.536.656a6.508,6.508,0,0,0,.848-1.744v-1.76h-2.672l.608-.528a8.172,8.172,0,0,0-.656-.608,13.488,13.488,0,0,0,2.464-1.92V10.864H-24.1V12.5h4.816a6.059,6.059,0,0,1-1.184.976c-.592-.4-1.056-.672-1.472-.912l-1.2,1.152a14.55,14.55,0,0,1,2.576,1.84h-3.776v1.712h3.04V22.24a5.952,5.952,0,0,1-.928-1.536,19.8,19.8,0,0,0,.208-2.656Zm-1.2,4.656A5.6,5.6,0,0,1-26.528,21.1h2.288V19.472H-26.8c.048-.384.08-.736.1-1.216h1.888V16.624h-4.016c.08-.24.144-.432.24-.8l-1.312-.288h4.048c1.1,0,1.36-.8,1.616-2.448l-1.728-.384c-.144,1.264-.368,1.264-.624,1.264H-28.88c-.336,0-.4-.176-.4-.368v-.512a16.547,16.547,0,0,0,4.64-1.232l-.976-1.488A11.732,11.732,0,0,1-29.28,11.52V10.384h-1.84v4a1.083,1.083,0,0,0,.816,1.1A8.022,8.022,0,0,1-31.712,18.3l1.44,1.088a5.889,5.889,0,0,0,.768-1.136H-28.5a10.69,10.69,0,0,1-.064,1.216H-31.5V21.1h2.528a5.024,5.024,0,0,1-2.7,2.544l1.072,1.728A7.14,7.14,0,0,0-27.6,22.368a7.046,7.046,0,0,0,1.424,1.76Zm20.336-4.24h-6.912v5.5H-5.28l.224,1.536H-2.32c.544,0,1.376-.064,1.376-1.536V10.976H-7.376v6.352h4.528v5.744c0,.272-.048.432-.416.432H-4.576Zm1.728-5.92v1.008H-5.472V12.528Zm0,2.224v1.072H-5.472V14.752ZM-6.4,20.08v2.176H-9.664V20.08Zm-8.656,5.408h1.936v-8.16h4.384V10.976h-6.32Zm4.416-12.96v1.008H-13.1V12.528Zm0,2.224v1.072H-13.1V14.752ZM3.968,10.816c-.1.7-.16,1.28-.272,1.936H.992v2H3.328a28.677,28.677,0,0,1-2.5,7.664l2.16.736a56.436,56.436,0,0,0,2.512-8.4H8.976v-2H5.92c.112-.56.176-1.04.288-1.792Zm11.008,1.7a21.055,21.055,0,0,0-5.1.448l.16,5.776a9.432,9.432,0,0,0-1.152-.08c-2.96,0-4.064,1.632-4.064,3.168,0,1.36.912,3.04,3.824,3.04,2.848,0,3.472-1.888,3.472-2.8v-.288a12.567,12.567,0,0,1,2.032,1.76L15.36,21.5a14.114,14.114,0,0,0-3.216-2.112L12,14.816a8.968,8.968,0,0,1,1.664-.112,11.364,11.364,0,0,1,1.328.064ZM10.1,21.568c0,1.136-.832,1.408-1.648,1.408-.672,0-1.7-.256-1.7-1.184,0-1.024,1.088-1.376,2.016-1.376a3.547,3.547,0,0,1,1.328.256ZM21.3,10.976c-.048,3.9.288,4.72.672,5.424-1.3.576-4.144,1.888-4.144,4.7A3.164,3.164,0,0,0,19.856,24c1.1.448,2.464.72,6.4.72a33.679,33.679,0,0,0,3.984-.176v-2.16a38.62,38.62,0,0,1-4.992.272c-3.408,0-5.168-.144-5.168-1.728,0-1.744,2.272-2.592,3.088-2.9a28.559,28.559,0,0,1,6.576-1.408L29.36,14.4A41.338,41.338,0,0,0,23.9,15.68a8.808,8.808,0,0,1-.4-3.216c0-.608.032-1.136.048-1.488Zm7.632,2.3A15.58,15.58,0,0,0,28,10.608l-1.408.24a12.964,12.964,0,0,1,.832,2.8Zm2.208-.384a13.386,13.386,0,0,0-.944-2.544l-1.392.272a11.777,11.777,0,0,1,.88,2.624Zm5.7-.592H33.456v1.984h3.376a4.823,4.823,0,0,0-.016.512c0,.368,0,.912.032,1.232-3.712,1.488-3.776,4.32-3.776,4.912a2.814,2.814,0,0,0,2.912,3.072c2.368,0,5.344-2.416,6.576-6.64a2.658,2.658,0,0,1,2.208,2.592,2.723,2.723,0,0,1-2.3,2.672,10.116,10.116,0,0,1-2.784.3l.64,1.9c2.72-.016,6.544-.88,6.544-4.784,0-2.8-2.24-4.7-6.224-4.7a9.032,9.032,0,0,0-1.76.144c0-.112,0-.784.016-1.216h7.36V12.3h-7.3l.032-1.344-2.144-.016Zm2.416,7.76a21.952,21.952,0,0,1-.32-2.88,5.982,5.982,0,0,1,1.2-.112c.224,0,.384.016.592.016A7.725,7.725,0,0,1,39.248,20.064Zm-1.616,1.584a2.264,2.264,0,0,1-1.392.528c-1.248,0-1.248-1.216-1.248-1.456a3.3,3.3,0,0,1,2-2.848A17.24,17.24,0,0,0,37.632,21.648ZM51.44,10.832a36.689,36.689,0,0,0-.608,7.312A25.773,25.773,0,0,0,50.96,20.9l2.1-.16a12.037,12.037,0,0,1-.16-2c0-2.048,2.08-4.432,3.968-4.432,2.272,0,2.272,3.136,2.272,3.744,0,4.3-3.008,4.8-7.392,4.848l.464,2.016c5.5,0,9.152-1.488,9.152-6.752,0-3.92-1.888-5.824-4.3-5.824a4.911,4.911,0,0,0-3.9,2.032,13.054,13.054,0,0,1,.56-3.328Zm14.016,1.52v1.9H71.3V15.68H65.76v1.856H71.3v1.376a4.878,4.878,0,0,0-1.28-.128c-2.112,0-4.128.944-4.128,3.056,0,1.312.9,2.96,4,2.96,3.536,0,3.536-2.1,3.536-2.816v-.3a22.626,22.626,0,0,1,3.248,2.592l1.392-1.856a17.608,17.608,0,0,0-4.64-2.944V17.536H78.1V15.68H73.424V14.256h4.992v-1.9H73.424V10.96H71.3v1.392Zm5.872,9.232c0,.656-.112,1.344-1.6,1.344-.736,0-1.84-.176-1.84-1.136,0-.992,1.168-1.264,1.984-1.264a4.208,4.208,0,0,1,1.456.272ZM83.056,11.008c0,1.1-.048,4.8-.048,7.12,0,2.3,0,3.776.8,4.88a4.713,4.713,0,0,0,4.144,1.744c3.9,0,6.032-2.288,6.736-6.224l-2.08-.736C92.432,18.928,91.9,22.7,88,22.7c-2.5,0-2.848-1.488-2.848-3.376,0-2.384.16-7.792.176-8.3Zm16.9.032c-.032.5-.064,1.1-.16,1.856H97.376v1.968H99.52a41.925,41.925,0,0,1-2.528,9.264l2.064.7a51.319,51.319,0,0,0,2.528-9.968h4.256V12.9h-3.952c.112-.784.176-1.28.24-1.84Zm10.672,3.92c-4.08-.064-5.584.464-6.8.992l.64,1.744a11.594,11.594,0,0,1,4.624-.7c.672,0,1.12.032,1.552.048Zm-6.736,3.952a4.339,4.339,0,0,0-1.344,2.864c0,2.944,3.792,2.944,5.568,2.944,1.792,0,2.08-.016,2.72-.064V22.592a32.039,32.039,0,0,1-3.392.16c-1.04,0-2.928,0-2.928-1.216a2.417,2.417,0,0,1,.864-1.632Zm20.528-7.1a30.031,30.031,0,0,0-7.136-.992l-.336,1.968a28.326,28.326,0,0,1,7.008,1.168Zm-9.408,1.584a4.567,4.567,0,0,0-.32,1.344c-.1.976-.16,4.208-.16,5.3l2.1.032a4.193,4.193,0,0,0,.016-.448,7.186,7.186,0,0,1,4.864-1.888c1.024,0,2.592.416,2.592,2.08,0,3.04-4.112,3.04-5.584,3.04a24.829,24.829,0,0,1-3.968-.336l.16,2.032a23.64,23.64,0,0,0,3.6.224c3.2,0,4.544-.368,5.584-.928a4.253,4.253,0,0,0,2.4-4c0-2.224-1.52-4.016-4.336-4.016a9.8,9.8,0,0,0-5.28,1.536,10.493,10.493,0,0,1,.4-3.664ZM-90.784,36.72h-3.7v1.968h3.7v2.144c-3.808,1.472-4.048,3.728-4.048,4.544A3.256,3.256,0,0,0-91.3,48.5c2.544,0,2.544-1.488,2.544-2.08V42.208a8.244,8.244,0,0,1,2.112-.24c.672,0,3.216,0,3.216,2.368,0,2.64-2.912,2.624-4.784,2.624l.432,1.872c3.264.048,6.5-.8,6.5-4.368a4.256,4.256,0,0,0-1.392-3.248,5.4,5.4,0,0,0-3.776-1.1,11.66,11.66,0,0,0-2.3.224V38.688h3.488V36.72h-3.488v-1.7h-2.032Zm0,9.216c0,.32,0,.608-.7.608A1.256,1.256,0,0,1-92.832,45.3c0-1.424,1.472-2.224,2.048-2.528Zm5.12-9.9a11.9,11.9,0,0,1,3.232,4.176l1.888-1.056a11.783,11.783,0,0,0-3.536-4.32Zm15.5,11.536c-.448-.416-1.184-1.056-2.608-2.16a11.2,11.2,0,0,0,1.728-2.256l-1.68-.9a14.442,14.442,0,0,1-1.552,2.016A24.468,24.468,0,0,0-77.184,42.5l-1.168,1.456a22.61,22.61,0,0,1,2.64,1.648,15.28,15.28,0,0,1-3.936,2.064l1.2,1.792a17.549,17.549,0,0,0,4.256-2.7,29.824,29.824,0,0,1,2.608,2.384Zm5.6-10.4V35.44H-75.232c.192-.32.256-.432.5-.832l-2.128-.384a9.621,9.621,0,0,1-2.88,3.472l1.264,1.632a20.446,20.446,0,0,0,2.048-2.16Zm-14.848,4.9h10.544c-.032.464-.064,1.376-.064,2.56,0,2.448.32,4.736,2.24,4.736a1.684,1.684,0,0,0,1.536-.88,6.817,6.817,0,0,0,.848-2.3l-1.36-1.328c-.208.928-.512,2.272-.9,2.272-.464,0-.464-1.7-.464-2.144,0-1.312.144-3.68.208-4.608H-79.408Zm2.624-4.1v1.6h11.072v-1.6Zm13.344-.816h2.64V37.9h-2.464v6.528H-60.8v.912h-2.768v1.744H-60.8v2.384h1.76V47.088h2.656V45.344H-59.04v-.912h2.5V37.9h-2.5v-.752h2.56V35.44h-2.56V34.368H-60.8V35.44h-2.64Zm2.7,2.192V40.5h-1.072V39.344Zm2.736,0V40.5h-1.088V39.344Zm-2.736,2.416v1.184h-1.072V41.76Zm2.736,0v1.184h-1.088V41.76Zm9.2,3.472V43.44h-2.56V42.128h-1.952V43.44h-2.7v1.792h2.7v2h-3.216V49.1h8.064V47.232h-2.9v-2Zm0-10.4h-7.312v1.84h2.224L-55.2,37.2a9.209,9.209,0,0,0,1.6,2.448,11.13,11.13,0,0,1-2.9,1.312l.848,1.776a10.976,10.976,0,0,0,3.424-1.776,9.177,9.177,0,0,0,3.04,1.76l.848-1.84A9.37,9.37,0,0,1-50.8,39.7a8.3,8.3,0,0,0,2-3.088Zm-2.048,1.84a6.409,6.409,0,0,1-1.36,1.84,8.142,8.142,0,0,1-1.328-1.84Zm9.072-.416V38.3h8.016V36.256Zm.464,5.392a5.421,5.421,0,0,0-.96,2.976c0,3.344,3.728,3.344,5.856,3.344.88,0,2.08-.032,2.928-.112V45.728a31.636,31.636,0,0,1-4.064.16c-1.872,0-2.768-.448-2.768-1.456a3.661,3.661,0,0,1,.736-2.016Zm-4.512-6.512a64.99,64.99,0,0,0-.576,8,27.965,27.965,0,0,0,.528,5.664l2.16-.208a28.329,28.329,0,0,1-.544-5.808,45.012,45.012,0,0,1,.64-7.472Zm26.912.464c-.848,0-2.7-.016-3.584,0-.96.016-5.024.064-5.792.064-.368,0-.9-.016-1.216-.032v2.112c.96-.048,4.272-.128,5.312-.16-.384.208-1.248.672-1.6.912l1.44,1.264a14.929,14.929,0,0,1,5.44-2.224Zm-9.424,5.152a5.529,5.529,0,0,0-1.84,3.792,3.422,3.422,0,0,0,1.824,2.96c1.392.736,2.784.912,6.08.912a29.748,29.748,0,0,0,4.208-.208l-.048-2.16a36.575,36.575,0,0,1-4.784.272c-2.448,0-5.136-.032-5.136-1.9a3.64,3.64,0,0,1,1.3-2.56Zm9.312.736A13.381,13.381,0,0,0-20.56,39.1l-1.184.672a15.34,15.34,0,0,1,1.472,2.432Zm2.032-1.024a10.8,10.8,0,0,0-1.52-2.3l-1.2.672a13.65,13.65,0,0,1,1.488,2.336Zm8.144-5.6V49.488h1.92v-.816H-2.88v.816h1.9V34.864Zm5.968,5.712V42.8H-6.928V40.576Zm0,3.952v2.32H-6.928v-2.32Zm0-7.824v2.144H-6.928V36.7Zm-12.256,9.648A12.886,12.886,0,0,0-13.2,42.8v6.688h1.92v-6.7a14.489,14.489,0,0,0,1.2,1.792L-9.056,42.8a10.464,10.464,0,0,1-2.224-2.976V39.04h1.888V37.168H-11.28V34.352H-13.2v2.816h-2.32V39.04h2.208a13.29,13.29,0,0,1-2.5,4.848Zm19.552-.56v1.52H2.56v-1.52ZM6.992,49.5a7.288,7.288,0,0,0,4.032-3.84A6.647,6.647,0,0,0,14.96,49.5l.912-1.872A7.015,7.015,0,0,1,13.2,46.048a5,5,0,0,1-1.312-3.808v-.976H10V42.32c0,2.544-.864,4.3-3.984,5.376V44.288H.848v5.184H2.56v-.608H6.016v-1.12ZM.848,43.456H6.016v-1.6H.848Zm5.648-.72a13.027,13.027,0,0,1,.9,3.072l1.776-.528a13.745,13.745,0,0,0-.992-3.04Zm-5.648-6.4H6.016V34.752H.848Zm5.84-.832a9.816,9.816,0,0,1,.56,2.944l1.84-.528a13.529,13.529,0,0,0-.736-2.912Zm-5.84,5.52H6.016V39.472H.848ZM10,35.248a5.074,5.074,0,0,1-3.824,5.088l1.008,1.808a7.516,7.516,0,0,0,3.84-3.808,7.542,7.542,0,0,0,3.856,3.84l.96-1.84A6.426,6.426,0,0,1,13.3,38.72a4.514,4.514,0,0,1-1.376-3.552V34.4H10ZM.384,38.72H6.5v-1.6H.384Zm13.232-3.76a12.617,12.617,0,0,1-1.008,2.784l1.6.7A14.132,14.132,0,0,0,15.36,35.5Zm.16,7.2a15.628,15.628,0,0,1-1.1,3.008l1.632.656a14.213,14.213,0,0,0,1.232-3.2ZM29.52,47.5a53.8,53.8,0,0,0-7.68-4.848c-.672-.384-.96-.56-.96-.88a.612.612,0,0,1,.192-.432c.272-.272,3.168-2.448,3.744-2.928,1.264-1.056,2.688-2.24,2.944-2.464L25.7,34.592c-1.872,1.792-2.3,2.16-6.176,5.408-.992.832-1.248,1.424-1.248,1.888,0,.976,1.136,1.68,1.84,2.128A56.432,56.432,0,0,1,27.52,49.1Zm6.448-12.528c-.032.528-.048.7-.16,1.92H33.376v1.968h2.16a45.342,45.342,0,0,1-2.512,9.376l2.048.544a50.859,50.859,0,0,0,2.528-9.92h4.24V36.9H37.9c.048-.32.208-1.632.224-1.84Zm10.656,4a17.327,17.327,0,0,0-6.8.976l.624,1.76a13.5,13.5,0,0,1,4.624-.7c.672,0,1.12.032,1.568.048Zm-6.736,3.968a4.237,4.237,0,0,0-1.36,2.928,2.638,2.638,0,0,0,1.6,2.32c.688.336,1.52.544,4.112.544,1.6,0,2.1-.048,2.672-.08l-.08-2.048a31.981,31.981,0,0,1-3.408.16c-1.008,0-2.912,0-2.912-1.232a2.5,2.5,0,0,1,.864-1.6Zm5.36-5.552a12.057,12.057,0,0,0-1.008-2.528l-1.312.416a11.509,11.509,0,0,1,.944,2.608Zm2.16-.56A14.258,14.258,0,0,0,46.32,34.4l-1.312.432A12.463,12.463,0,0,1,46.016,37.3Zm7.6-1.728a22.622,22.622,0,0,0,.624,2.416H49.344V39.5h7.008a20.858,20.858,0,0,0,2.688,4.88l1.824-1.136a14.814,14.814,0,0,1-2.352-3.824,26.081,26.081,0,0,0,4.192-.512L62.368,36.9a30.929,30.929,0,0,1-4.608.576,16.079,16.079,0,0,1-.592-2.592Zm-.848,5.984c-3.008.912-4.08,2.56-4.08,4.1a3,3,0,0,0,1.664,2.672c1.072.576,2.224.864,5.488.864,1.584,0,2.72-.048,3.7-.144l.08-2.064a34.456,34.456,0,0,1-4.16.24c-2.96,0-4.7-.208-4.7-1.648,0-.768.56-1.744,2.864-2.4Zm11.152-5.376c-.064.832-.24,2.64-.24,4.64,0,1.9.144,8.144,3.648,8.144,2.528,0,3.792-3.392,4.208-4.544l-1.776-.976A11.111,11.111,0,0,1,70.1,45.2c-.32.5-.656.9-1.184.9-1.5,0-1.7-4.112-1.7-5.84A26.7,26.7,0,0,1,67.6,35.9Zm13.856,11.1c.016-3.3-.064-7.632-3.424-10.8l-1.712,1.2c2.64,2.736,2.784,5.888,2.784,9.728Zm4.544-3.056a2.552,2.552,0,0,0,0,5.1,2.552,2.552,0,1,0,0-5.1Zm0,.96A1.584,1.584,0,1,1,82.128,46.3,1.588,1.588,0,0,1,83.712,44.72Z" transform="translate(135.18 19.65)" fill="#002063"/>
  </g>
</svg>
