<svg id="グループ_108" data-name="グループ 108" xmlns="http://www.w3.org/2000/svg" width="206.282" height="236.989" viewBox="0 0 206.282 236.989">
  <g id="_1022_color" data-name="1022_color" transform="translate(0 0)">
    <path id="パス_2064" data-name="パス 2064" d="M2.422,242.086a110.026,110.026,0,0,1,13.265-26.073c2.04-2.955,4.289-5.959,4.858-9.5A24.856,24.856,0,0,0,20.5,200.7c-1.05-13.952-1.663-30.621.2-35.168,2.95-7.183,4.607-21.674,5.266-29.28a14.2,14.2,0,0,1,1.977-4.669q.471-.742.9-1.53c2.688-4.933,4.135-11.133,5.241-16.534a20.234,20.234,0,0,1,1.475-5.25,5.409,5.409,0,0,1,4.175-3.149c2.759-.183,4.812,2.486,5.959,5a30.8,30.8,0,0,1-1.479,27.97l60.176,66.624c-9.063,11.752-14.55,17.247-31.089,28.085-2.252,1.475-10.457,5.991-12.514,7.764-6.779,5.822-11.568,15.323-14.55,23.664Z" transform="translate(-1.142 -48.964)" fill="#fff"/>
    <path id="パス_2065" data-name="パス 2065" d="M222.9,81.19a43.632,43.632,0,0,1,4.616-3.238,8.715,8.715,0,0,1,5.8-.951c2.639.423,4.305,3.323,4.239,6a14.467,14.467,0,0,1-2.827,7.4c-3.764,5.694-8.484,11.634-11.535,13.639" transform="translate(-103.846 -35.805)" fill="#fff"/>
    <path id="パス_2066" data-name="パス 2066" d="M222.692,80.969a38.111,38.111,0,0,1,3.745-2.649,7.149,7.149,0,0,1,3.71-1.279,4.767,4.767,0,0,1,3.24.715,4.9,4.9,0,0,1,1.635,2.755c.653,2.74-.89,5.6-2.326,7.82a87.164,87.164,0,0,1-5.6,7.713,28.7,28.7,0,0,1-5.664,5.755c-1.37.913-.083,3.134,1.293,2.213a28.881,28.881,0,0,0,5.973-5.895,86.567,86.567,0,0,0,6.394-8.783c1.763-2.8,3.225-6.237,2.375-9.591a7.515,7.515,0,0,0-2.078-3.627,6.4,6.4,0,0,0-4.2-1.631,9.486,9.486,0,0,0-5.276,1.13,38.173,38.173,0,0,0-5.043,3.543,1.293,1.293,0,0,0,0,1.813,1.31,1.31,0,0,0,1.813,0Z" transform="translate(-102.733 -34.68)" fill="#211715"/>
    <path id="パス_2067" data-name="パス 2067" d="M92.868,2.406h51.52a12.848,12.848,0,0,1,12.848,12.848v128.67a12.846,12.846,0,0,1-12.846,12.846H92.87a12.848,12.848,0,0,1-12.848-12.848V15.253A12.846,12.846,0,0,1,92.87,2.406Z" transform="translate(-37.29 -1.117)" fill="#fff"/>
    <path id="パス_2068" data-name="パス 2068" d="M155.482,2.406a2.056,2.056,0,0,0-1.359,1.779V6.2a5.235,5.235,0,0,1-5.224,5.235c-4.977.007-12.441.017-17.482.027-5.041-.01-12.5-.02-17.482-.027A5.235,5.235,0,0,1,108.711,6.2V4.185a2.058,2.058,0,0,0-1.236-1.779" transform="translate(-50.078 -1.117)" fill="#211715"/>
    <rect id="長方形_129" data-name="長方形 129" width="72.164" height="132.453" transform="translate(45.257 13.749)" fill="#00b900"/>
    <g id="グループ_109" data-name="グループ 109" transform="translate(62.043 62.694)">
      <g id="グループ_104" data-name="グループ 104" transform="translate(0)">
        <g id="グループ_102" data-name="グループ 102">
          <path id="パス_2088" data-name="パス 2088" d="M891.16,513.716c0-8.475-8.5-15.371-18.941-15.371s-18.941,6.9-18.941,15.371c0,7.6,6.739,13.961,15.84,15.164.617.133,1.456.406,1.669.935a3.89,3.89,0,0,1,.061,1.713s-.222,1.336-.274,1.621c-.082.479-.381,1.873,1.644,1.021s10.908-6.423,14.881-11h0C889.845,520.162,891.16,517.108,891.16,513.716Z" transform="translate(-853.279 -498.345)" fill="#fff"/>
        </g>
        <g id="グループ_103" data-name="グループ 103" transform="translate(6.206 11.268)">
          <path id="パス_2089" data-name="パス 2089" d="M1004.834,570.848h-5.321a.366.366,0,0,1-.365-.365v-.005h0v-8.252h0v-.008a.366.366,0,0,1,.365-.365h5.321a.365.365,0,0,1,.365.366v1.343a.365.365,0,0,1-.365.365h-3.616v1.395h3.616a.365.365,0,0,1,.365.365v1.343a.365.365,0,0,1-.365.365h-3.616v1.395h3.616a.365.365,0,0,1,.365.365v1.329a.365.365,0,0,1-.365.365Z" transform="translate(-979.46 -561.847)" fill="#06c755"/>
          <path id="パス_2090" data-name="パス 2090" d="M893.961,570.847a.365.365,0,0,0,.365-.365v-1.343a.365.365,0,0,0-.365-.365h-3.617v-6.561a.365.365,0,0,0-.365-.365h-1.343a.365.365,0,0,0-.365.365v8.259h0v.005a.365.365,0,0,0,.365.365h5.326Z" transform="translate(-888.27 -561.847)" fill="#06c755"/>
          <rect id="長方形_131" data-name="長方形 131" width="2.066" height="8.989" rx="1.033" transform="translate(7.189 0.007)" fill="#06c755"/>
          <path id="パス_2091" data-name="パス 2091" d="M955.137,561.855h-1.343a.365.365,0,0,0-.365.365v4.91l-3.782-5.107a.36.36,0,0,0-.029-.037h0l-.022-.023-.006-.006-.02-.016-.01-.007-.019-.013-.011-.006-.02-.011-.011-.005-.021-.009h-.012l-.022-.007h-.013l-.022,0H948a.365.365,0,0,0-.365.365v8.241a.365.365,0,0,0,.365.365h1.343a.365.365,0,0,0,.365-.365v-4.908l3.787,5.115a.365.365,0,0,0,.091.091h0l.023.014.01.005.017.008.017.007h.011l.025.008h.005a.367.367,0,0,0,.091.013h1.336a.365.365,0,0,0,.365-.365v-8.266A.365.365,0,0,0,955.137,561.855Z" transform="translate(-937.098 -561.848)" fill="#06c755"/>
        </g>
      </g>
    </g>
    <path id="パス_2069" data-name="パス 2069" d="M153.463.392c.509-.4-.056-.047-.193.04a3.562,3.562,0,0,0-.941.862,4.426,4.426,0,0,0-.6,2.878,5.632,5.632,0,0,1-.385,2.626,4.038,4.038,0,0,1-1.618,1.73,4.58,4.58,0,0,1-2.391.513l-3.048,0-6.781.01q-6.274.011-12.547,0l-6.843-.01h-3.224a17.562,17.562,0,0,1-2.649-.039,3.994,3.994,0,0,1-3.354-3.728c-.047-1.149.2-2.422-.3-3.5A3.085,3.085,0,0,0,107.76.7a4.384,4.384,0,0,0-.5-.365c-.136-.084-.411-.294.015.062a1.318,1.318,0,0,0-1.813,0,1.293,1.293,0,0,0,0,1.813,5.166,5.166,0,0,0,.58.386c.043.027.177.134-.005-.011a.976.976,0,0,1,.175.169c-.107-.16.118.267.091.164a5.1,5.1,0,0,1,.023,1.262,13.8,13.8,0,0,0,.053,1.656,6.55,6.55,0,0,0,3.374,5c1.935,1.022,4.151.779,6.265.782l6.98.01q6.547.011,13.094,0l7.051-.011,3.265,0a11.752,11.752,0,0,0,3.09-.229,6.564,6.564,0,0,0,4.623-4.762,32.934,32.934,0,0,0,.174-3.54.492.492,0,0,1,.279-.431,8.233,8.233,0,0,0,.712-.442,1.29,1.29,0,0,0,0-1.813,1.315,1.315,0,0,0-1.813,0Z" transform="translate(-48.967 -0.009)" fill="#211715"/>
    <path id="パス_2070" data-name="パス 2070" d="M143.262,154.367H92.208a13.026,13.026,0,0,1-4.259-.639,11.713,11.713,0,0,1-6.684-6.022c-1.564-3.248-1.089-7.4-1.089-10.925V14.685a12,12,0,0,1,3.535-8.867,11.638,11.638,0,0,1,8.033-3.25h48.476c2.457,0,4.861-.121,7.216.776a11.7,11.7,0,0,1,7.385,10.919v120.7c0,2.686.046,5.376,0,8.06a11.687,11.687,0,0,1-11.564,11.348,1.282,1.282,0,0,0,0,2.564,14.289,14.289,0,0,0,14.016-12.423,28.033,28.033,0,0,0,.112-3.525V23.45c0-3.087.017-6.175,0-9.263A14.327,14.327,0,0,0,148.124.87C145.6-.08,143,0,140.379,0H92.97c-.548,0-1.1-.011-1.656.007a14.262,14.262,0,0,0-9.269,3.858,14.457,14.457,0,0,0-4.434,10.672V141.915a15.552,15.552,0,0,0,1.864,7.893,14.41,14.41,0,0,0,12.668,7.125H143.26a1.283,1.283,0,0,0,0-2.566Z" transform="translate(-36.164 0.004)" fill="#211715"/>
    <path id="パス_2071" data-name="パス 2071" d="M125.47,279.757h27.5a1.282,1.282,0,1,0,0-2.564h-27.5a1.282,1.282,0,1,0,0,2.564Z" transform="translate(-57.883 -129.12)" fill="#211715"/>
    <path id="パス_2072" data-name="パス 2072" d="M136.245,11.357q5.058,0,10.118-.005a1.282,1.282,0,0,0,0-2.564q-5.059,0-10.118.005a1.282,1.282,0,1,0,0,2.564Z" transform="translate(-62.901 -4.09)" fill="#4d4544"/>
    <path id="パス_2073" data-name="パス 2073" d="M166,11.392a1.5,1.5,0,1,0-1.459-1.5,1.5,1.5,0,0,0,1.459,1.5Z" transform="translate(-76.668 -3.909)" fill="#4d4544"/>
    <path id="パス_2074" data-name="パス 2074" d="M50.207,131.587q.471-.742.9-1.53c2.688-4.933,4.135-11.133,5.241-16.534a20.235,20.235,0,0,1,1.475-5.25A5.409,5.409,0,0,1,62,105.125c2.759-.183,4.812,2.486,5.959,5a30.8,30.8,0,0,1-1.479,27.97" transform="translate(-23.402 -48.964)" fill="#fff"/>
    <path id="パス_2075" data-name="パス 2075" d="M50.171,131.123a43.737,43.737,0,0,0,5.009-12.742c.548-2.171,1.015-4.363,1.448-6.56.4-2,.8-4.2,2.375-5.632a3.06,3.06,0,0,1,4.111-.148,10.661,10.661,0,0,1,3.021,4.617,29.6,29.6,0,0,1,2.032,12.307,29.162,29.162,0,0,1-3.938,13.378,1.282,1.282,0,1,0,2.213,1.294,32.162,32.162,0,0,0,2.471-26.849c-1.363-3.751-4.066-8.871-8.88-7.947a7.042,7.042,0,0,0-4.761,4.321,39.424,39.424,0,0,0-1.81,7.3c-1.162,5.3-2.584,10.729-5.508,15.366-.882,1.4,1.335,2.688,2.214,1.294Z" transform="translate(-22.259 -47.852)" fill="#211715"/>
    <path id="パス_2076" data-name="パス 2076" d="M25.724,152.944a13.805,13.805,0,0,0-2.061,4.659c-.28,1.434-.3,2.952-.449,4.4-.358,3.482-.786,6.957-1.327,10.414a96.94,96.94,0,0,1-2.162,10.614c-.644,2.356-1.7,4.567-2.058,6.994a66.829,66.829,0,0,0-.563,9.449c-.022,4.067.112,8.135.308,12.2.21,4.356.575,8.7.839,13.052a13.4,13.4,0,0,1-.944,6.417,33.837,33.837,0,0,1-3.331,5.481,113.577,113.577,0,0,0-12.745,23.96q-.606,1.57-1.162,3.162a1.294,1.294,0,0,0,.9,1.577,1.307,1.307,0,0,0,1.577-.9A109.15,109.15,0,0,1,14.6,240.255c2.319-3.489,5.261-6.942,6.029-11.183a28.369,28.369,0,0,0-.02-7.147q-.234-3.177-.421-6.357c-.247-4.2-.434-8.413-.5-12.623a102.932,102.932,0,0,1,.248-10.374q.04-.471.091-.943c.017-.16.036-.321.053-.48l.025-.2c.053-.419-.018.122.016-.111.079-.537.169-1.073.29-1.6.25-1.089.723-2.1,1.075-3.158a69.756,69.756,0,0,0,2.35-9.842c.657-3.668,1.164-7.363,1.595-11.065q.282-2.428.515-4.861c.065-.681.1-1.37.187-2.05-.029.216.032-.122.047-.183.044-.183.1-.365.156-.541a11.2,11.2,0,0,1,.452-1.162,15.652,15.652,0,0,1,1.148-2.137c.908-1.384-1.313-2.671-2.214-1.294Z" transform="translate(-0.025 -70.965)" fill="#211715"/>
    <path id="パス_2077" data-name="パス 2077" d="M84.572,350.325a67.2,67.2,0,0,1,8.8-17.187,37.864,37.864,0,0,1,3.042-3.641q.782-.822,1.616-1.594c.25-.229.5-.457.762-.677.062-.053.127-.1.19-.156.207-.175-.183.132.037-.027a67.007,67.007,0,0,1,5.7-3.606c1.907-1.13,3.837-2.222,5.724-3.386,2.679-1.656,5.274-3.471,7.847-5.288a107.348,107.348,0,0,0,12.895-10.44,121.2,121.2,0,0,0,11.411-13.2,1.29,1.29,0,0,0-.457-1.754,1.315,1.315,0,0,0-1.754.457,121.981,121.981,0,0,1-9.984,11.671,97.093,97.093,0,0,1-12.282,10.254c-2.782,2-5.612,3.938-8.5,5.788-1.758,1.129-3.591,2.148-5.389,3.205-2.017,1.188-4.059,2.362-5.98,3.7a28.532,28.532,0,0,0-5.788,5.7,67.357,67.357,0,0,0-10.371,19.5,1.293,1.293,0,0,0,.9,1.577,1.308,1.308,0,0,0,1.578-.9Z" transform="translate(-38.238 -134.715)" fill="#211715"/>
    <path id="パス_2078" data-name="パス 2078" d="M225.076,172.295l2.337-2.137c1.759-1.607,3.582-3.307,4.385-5.551a8.452,8.452,0,0,0-3.054-9.264c-2.786-2.09-6.447-2.955-9.361-1.05-1.426.932-4.312,4.36-5.609,6.29a15.756,15.756,0,0,0-2.838,7.308,7,7,0,0,0,2.915,6.507,7.7,7.7,0,0,0,7.49.259,28.58,28.58,0,0,0,3.739-2.362Z" transform="translate(-98.252 -71.38)" fill="#fff"/>
    <path id="パス_2079" data-name="パス 2079" d="M224.916,172.1c2.068-1.889,4.359-3.7,5.938-6.042a8.985,8.985,0,0,0,1.3-7.134,10.72,10.72,0,0,0-11.485-7.964,9.161,9.161,0,0,0-5.371,3.268,35.417,35.417,0,0,0-4.081,5.189c-2.662,4.239-4.293,10.615.107,14.364a8.531,8.531,0,0,0,8.221,1.426,13.519,13.519,0,0,0,3.083-1.523,18.4,18.4,0,0,0,2.284-1.586c1.249-1.082-.571-2.89-1.813-1.813-.214.183.214-.137-.016.014-.111.073-.216.154-.325.23q-.5.344-1,.67a18.84,18.84,0,0,1-2.038,1.2,6.631,6.631,0,0,1-5.588.206,5.541,5.541,0,0,1-2.961-4.244,11,11,0,0,1,1.557-6.445,26.94,26.94,0,0,1,3.327-4.691c.606-.708,1.229-1.4,1.9-2.054.26-.254.527-.5.808-.731.032-.027.2-.149.025-.021.058-.041.114-.084.174-.121a7,7,0,0,1,.743-.419c3.6-1.656,8.227,1.115,9.612,4.527a6.561,6.561,0,0,1-.555,6.177c-1.432,2.222-3.726,3.937-5.658,5.7C221.882,171.4,223.7,173.212,224.916,172.1Z" transform="translate(-97.185 -70.273)" fill="#211715"/>
    <path id="パス_2080" data-name="パス 2080" d="M222.221,216.268l2.573-1.194c1.937-.9,3.953-1.86,5.244-3.562a7.582,7.582,0,0,0-.11-8.743c-1.815-2.538-4.713-4.265-7.718-3.424a28.026,28.026,0,0,0-6.492,3.863,14.123,14.123,0,0,0-4.4,5.481,6.275,6.275,0,0,0,.735,6.348,6.9,6.9,0,0,0,6.331,2.243A25.592,25.592,0,0,0,222.221,216.268Z" transform="translate(-98.2 -92.757)" fill="#fff"/>
    <path id="パス_2081" data-name="パス 2081" d="M221.757,216.281a32.272,32.272,0,0,0,6.657-3.541,8.193,8.193,0,0,0,3.112-5.979c.3-4.438-3.158-9.158-7.629-9.888a8.4,8.4,0,0,0-5.677,1.312,32.357,32.357,0,0,0-4.861,3.3c-3.647,3.041-6.851,8.411-3.658,12.925,2.76,3.906,8.111,3.568,12.058,1.87a1.291,1.291,0,0,0,.457-1.754,1.316,1.316,0,0,0-1.754-.457c.457-.2-.144.032-.3.08q-.53.165-1.065.311a15.043,15.043,0,0,1-2.058.48,7.512,7.512,0,0,1-2.264-.118,5.185,5.185,0,0,1-2.192-1.01,4.8,4.8,0,0,1-1.48-4.808,10.461,10.461,0,0,1,3.239-4.967,24.382,24.382,0,0,1,3.975-2.923,9.965,9.965,0,0,1,3.777-1.759c3.428-.44,6.624,3.106,6.863,6.322a5.79,5.79,0,0,1-2.192,5.128c-1.827,1.456-4.2,2.3-6.3,3.272a1.293,1.293,0,0,0-.457,1.754,1.312,1.312,0,0,0,1.752.448Z" transform="translate(-97.089 -91.663)" fill="#211715"/>
    <path id="パス_2092" data-name="パス 2092" d="M246.884,337.5c-10.481-9.925-20.239-9.147-31.071-13.268-9.957-3.788-15.558-13.154-20.487-22.6-2.034-3.9-4.111-7.938-4.419-12.324s2.336-11.04,5.917-14.621l.267-.267c-8.383-12.409-14.214-22.7-22.928-37.446-1.553-2.632-4.161-7.336-4.69-10.316-.908-5.128,1.047-7.5,4.2-8.123.938-.183,5.429.033,8.9,4.69,8.427,11.3,15.61,21.41,21.873,29.855-1.636-7.143,4.988-7.49,8.262-6.942,2.821.468,4.855,2.071,6.728,4.231,1.644,1.9,3.22,3.765,4.808,5.664-.978-4.977.873-7.543,4.545-8.671,1.961-.6,4.957-.414,6.7,1.255,1.024.977,2,1.918,2.935,2.836,2.137-2.838,6.288-3.477,9.676-2.434,3.354,1.031,6.12,3.38,8.707,5.755,6.958,6.378,13.565,13.628,16.585,22.57,3.946,11.683,2.384,28.38,10.47,37.691" transform="translate(-78.855 -101.779)" fill="#fff"/>
    <path id="パス_2093" data-name="パス 2093" d="M234.858,273.3c.172-1.812,1.426-2.671,3.116-3.05a9.8,9.8,0,0,1,2.558-.183q.548.025,1.1.091c-.3-.04.058.011.1.018.14.026.279.049.417.079a9.332,9.332,0,0,1,1.188.333c2.567.913,4.3,3.173,6.005,5.171,1.91,2.234,3.789,4.493,5.67,6.752,2.375,2.856,4.765,5.707,7.188,8.526a1.293,1.293,0,0,0,1.813,0,1.308,1.308,0,0,0,0-1.813c-4.434-5.159-8.718-10.446-13.144-15.613-2.035-2.375-4.145-4.68-7.235-5.621a12.642,12.642,0,0,0-6.474-.188,6.9,6.9,0,0,0-3.212,1.7,5.929,5.929,0,0,0-1.644,3.8,1.292,1.292,0,0,0,1.279,1.279A1.31,1.31,0,0,0,234.858,273.3Z" transform="translate(-108.222 -124.596)" fill="#211715"/>
    <path id="パス_2094" data-name="パス 2094" d="M271.9,276.812a4.541,4.541,0,0,1,2.489-3.882,6.816,6.816,0,0,1,5.3-.5,6.491,6.491,0,0,1,2.447,1.766q1.336,1.285,2.658,2.589,2.537,2.51,4.972,5.12c1.989,2.14,3.911,4.339,5.792,6.571a1.293,1.293,0,0,0,1.813,0,1.31,1.31,0,0,0,0-1.816q-5.342-6.335-11.236-12.156c-1.842-1.811-3.615-4.019-6.22-4.681a9.543,9.543,0,0,0-6.825.884,7.216,7.216,0,0,0-3.759,6.1,1.279,1.279,0,1,0,2.558,0Z" transform="translate(-125.478 -125.561)" fill="#211715"/>
    <path id="パス_2095" data-name="パス 2095" d="M298.667,277.364A7.348,7.348,0,0,1,305.518,275c2.888.4,5.449,2.147,7.631,3.98A75.87,75.87,0,0,1,326,292.512a41.611,41.611,0,0,1,4.574,7.991,41.1,41.1,0,0,1,2.3,7.757c1.119,5.452,1.61,11.008,2.629,16.478,1.083,5.815,2.8,11.722,6.728,16.293a1.293,1.293,0,0,0,1.813,0,1.308,1.308,0,0,0,0-1.813c-3.446-4.006-4.924-9.309-5.921-14.39-1.1-5.593-1.587-11.286-2.7-16.875a40.288,40.288,0,0,0-7.014-16.463,78.258,78.258,0,0,0-13.275-14.18c-2.778-2.359-5.917-4.447-9.615-4.877a9.685,9.685,0,0,0-8.666,3.119,1.321,1.321,0,0,0,0,1.813,1.291,1.291,0,0,0,1.813,0Z" transform="translate(-138.128 -126.868)" fill="#211715"/>
    <path id="パス_2096" data-name="パス 2096" d="M265.543,384.477a38.4,38.4,0,0,0-8.474-6.127,45.125,45.125,0,0,0-8.235-3.234c-5.53-1.62-11.459-2.457-16.677-5-5.259-2.558-9.268-6.92-12.477-11.723-1.693-2.536-3.2-5.193-4.629-7.881a55.349,55.349,0,0,1-4.278-9.231,15.691,15.691,0,0,1-.85-5.216,16.505,16.505,0,0,1,.829-4.354,20.492,20.492,0,0,1,4.73-8.234c1.161-1.176-.651-2.992-1.813-1.813a22.881,22.881,0,0,0-4.861,7.856,17.942,17.942,0,0,0-1.37,8.387,31.207,31.207,0,0,0,3.644,10.546c1.462,2.867,2.972,5.716,4.633,8.473,3.159,5.245,6.979,10.241,12.125,13.675,5.091,3.394,11.236,4.613,17.067,6.107a53.829,53.829,0,0,1,9.292,3.084,35.827,35.827,0,0,1,9.525,6.5c1.2,1.13,3.014-.68,1.813-1.813Z" transform="translate(-96.608 -149.659)" fill="#211715"/>
    <path id="パス_2097" data-name="パス 2097" d="M204.608,290.637a56.178,56.178,0,0,0-6.116-15.7c-1.291-2.251-2.84-4.358-4.261-6.528q-2.3-3.513-4.523-7.079c-2.975-4.769-5.851-9.6-8.707-14.443q-2.322-3.938-4.637-7.881c-1.419-2.412-2.885-4.8-4.186-7.279a23.734,23.734,0,0,1-2.617-6.532,9.069,9.069,0,0,1-.056-3.388,3.934,3.934,0,0,1,1.015-2.043,3.829,3.829,0,0,1,1.8-.988,2.936,2.936,0,0,0,.563-.132c-.043.075-.354.017-.06.014.262,0,.519-.007.78.015.081.006.16.016.243.024.207.02-.321-.058.027,0,.153.026.305.053.457.085a9.912,9.912,0,0,1,1.279.365,9.788,9.788,0,0,1,2.649,1.5,16.108,16.108,0,0,1,2.845,3.169q1.479,1.989,2.95,3.984,2.844,3.858,5.663,7.733c3.372,4.626,6.724,9.263,10.112,13.876,5.27,7.176,10.552,14.45,16.625,20.978q.862.925,1.753,1.827a1.282,1.282,0,0,0,1.813-1.813c-6.1-6.137-11.271-13.194-16.4-20.138-3.433-4.645-6.817-9.325-10.215-14q-2.808-3.858-5.629-7.705-1.521-2.071-3.049-4.137c-1-1.351-1.955-2.767-3.057-4.037-2.357-2.716-6.652-5.216-10.363-3.981a6.276,6.276,0,0,0-4.1,4.059,11.739,11.739,0,0,0,.351,7.17,43.243,43.243,0,0,0,3.424,7.261c1.471,2.614,3.035,5.181,4.555,7.764,3.024,5.144,6.04,10.292,9.135,15.391q4.487,7.383,9.274,14.575a55.264,55.264,0,0,1,3.745,6.284,58.773,58.773,0,0,1,3.265,8.081c.457,1.425.851,2.868,1.172,4.33.354,1.611,2.826.929,2.473-.681Z" transform="translate(-77.71 -100.651)" fill="#211715"/>
  </g>
</svg>
