<svg xmlns="http://www.w3.org/2000/svg" xmlns:xlink="http://www.w3.org/1999/xlink" width="591" height="78" viewBox="0 0 591 78">
  <defs>
    <filter id="長方形_290" x="0" y="0" width="591" height="78" filterUnits="userSpaceOnUse">
      <feOffset dy="3" input="SourceAlpha"/>
      <feGaussianBlur stdDeviation="3" result="blur"/>
      <feFlood flood-opacity="0.161"/>
      <feComposite operator="in" in2="blur"/>
      <feComposite in="SourceGraphic"/>
    </filter>
  </defs>
  <g id="グループ_307" data-name="グループ 307" transform="translate(-5100 -6910)">
    <g transform="matrix(1, 0, 0, 1, 5100, 6910)" filter="url(#長方形_290)">
      <rect id="長方形_290-2" data-name="長方形 290" width="573" height="60" rx="10" transform="translate(9 6)" fill="#00b900"/>
    </g>
    <path id="パス_2830" data-name="パス 2830" d="M-107.145-22.59c0-1.77-.81-2.64-2.91-2.64-2.64,0-2.85,1.62-2.85,2.64V-4.32c0,3.12,1.32,4.32,4.32,4.32h11.01a2.219,2.219,0,0,0,2.55-2.52,2.2,2.2,0,0,0-2.55-2.43h-8.73a.782.782,0,0,1-.84-.87Zm21.69,0c0-1.74-.78-2.64-2.91-2.64-2.64,0-2.82,1.62-2.82,2.64V-2.01c0,1.77.78,2.67,2.88,2.67,2.64,0,2.85-1.62,2.85-2.67Zm19.89,15.24-6.81-15.72a3.8,3.8,0,0,0-3.81-2.19c-2.58,0-3.96.72-3.96,2.7V-2.01c0,1.05.21,2.67,2.85,2.67,2.1,0,2.91-.9,2.91-2.67V-15.93l-.06-1.29,6.81,15.72A3.8,3.8,0,0,0-63.825.66c2.4,0,3.96-.66,3.96-2.7V-22.59c0-1.02-.21-2.64-2.85-2.64-2.13,0-2.91.9-2.91,2.64V-8.64Zm16.74-7.56v-3.87a.773.773,0,0,1,.84-.84h9.12c1.62,0,2.55-.66,2.55-2.52a2.242,2.242,0,0,0-2.55-2.46h-11.4c-2.76,0-4.32.99-4.32,4.32V-4.32c0,3.15,1.32,4.32,4.32,4.32h12.12a2.217,2.217,0,0,0,2.55-2.52,2.214,2.214,0,0,0-2.55-2.43h-9.84a.782.782,0,0,1-.84-.87v-4.35h9.03c2.19,0,2.49-1.26,2.49-2.46,0-2.01-1.41-2.28-2.49-2.28Zm28.5-3.27a15.379,15.379,0,0,0-3.81,3.24,11.237,11.237,0,0,0-2.85,7.38A7.806,7.806,0,0,0-22.065.06a22.384,22.384,0,0,0,8.67,1.5c2.19,0,4.65,0,4.65-3.12a2.2,2.2,0,0,0-2.37-2.49h-2.76c-4.11,0-7.68-.42-7.68-4.08,0-4.8,6.03-10.11,12.03-10.2,1.68-.03,3.48-.06,3.48-2.73,0-2.49-1.86-2.49-3.51-2.49-7.8,0-20.22.51-21.18.63-1.98.21-2.25,1.65-2.25,2.76a2.4,2.4,0,0,0,2.43,2.73c.51,0,3.12-.21,3.69-.24C-24.405-17.82-21.705-18.06-20.325-18.18Zm6.51,5.04c.81,1.86.9,2.04,1.53,2.04.36,0,1.23-.21,1.23-1.02a7.743,7.743,0,0,0-.9-2.46c-.6-1.2-.99-1.53-1.47-1.53s-1.23.39-1.23.99a1.736,1.736,0,0,0,.09.51C-14.505-14.37-13.935-13.38-13.815-13.14Zm3.09-1.41c.84,1.89.9,2.04,1.53,2.04.51,0,1.23-.33,1.23-1.02a7.641,7.641,0,0,0-.87-2.43c-.6-1.17-.96-1.56-1.47-1.56-.48,0-1.26.39-1.26.99a1.736,1.736,0,0,0,.09.51C-11.415-15.81-10.845-14.79-10.725-14.55ZM8.625-9.3c-1.89-2.34-2.88-3.57-3.72-6.27v-.42h1.11c1.11,0,2.22-.33,2.22-2.31,0-2.25-1.53-2.31-2.22-2.31H4.9v-2.82c0-1.83-.84-2.43-2.46-2.43a2.07,2.07,0,0,0-2.16,2.43v2.82h-1.89c-1.11,0-2.22.36-2.22,2.34,0,2.25,1.56,2.28,2.22,2.28H.135a22.36,22.36,0,0,1-2.91,6.36c-1.05,1.56-1.38,2.04-1.38,3.03a2.694,2.694,0,0,0,2.4,2.85c.99,0,1.53-.6,2.04-1.62V.6c0,1.86.84,2.37,2.46,2.37C4.755,2.97,4.9,1.44,4.9.6V-7.44c.48.93,1.02,1.8,1.98,1.8a2.367,2.367,0,0,0,1.74-.78v4.98c0,2.91,1.38,3.75,3.75,3.75h7.8c2.37,0,3.72-.84,3.72-3.75V-21.12c0-2.91-1.35-3.72-3.72-3.72h-7.8c-2.37,0-3.75.81-3.75,3.72Zm10.53-.69h-5.82V-12.9h5.82Zm-5.82-7.26v-2.22a.636.636,0,0,1,.72-.72h4.38a.636.636,0,0,1,.72.72v2.22Zm5.82,14.19a.649.649,0,0,1-.72.72h-4.38a.636.636,0,0,1-.72-.72V-5.64h5.82Zm24.24-6.15A7.233,7.233,0,0,1,40.6-3.42c-.39.36-.69.48-3.18,1.74a5.325,5.325,0,0,0-.69.42V-3.42c0-3.03-.51-3.54-3.54-3.54h-2.64c-3.03,0-3.54.51-3.54,3.54v2.4c0,3.03.48,3.57,3.51,3.57h2.7c1.5,0,2.52,0,3.15-1.05A2.209,2.209,0,0,0,38.5,2.94c1.29,0,5.52-2.25,7.14-6.6a11.247,11.247,0,0,0,2.13,3.6c1.26,1.41,3.3,2.88,4.59,2.88a2.773,2.773,0,0,0,2.43-2.85,1.764,1.764,0,0,0-.75-1.56l-2.16-1.26a8.215,8.215,0,0,1-3.87-6.57V-10.8c0-1.95-.9-2.4-2.52-2.4-1.8,0-2.1,1.26-2.1,2.4ZM33.015-1.8a.42.42,0,0,1-.45.48h-.9a.433.433,0,0,1-.45-.48V-2.94a.433.433,0,0,1,.45-.48h.9a.433.433,0,0,1,.45.48Zm2.61-14.85c1.05,0,1.98-.27,1.98-2.04,0-1.74-1.23-1.86-1.98-1.86h-7.5c-1.38,0-2.01.57-2.01,2.04a1.727,1.727,0,0,0,2.01,1.86Zm3.6-8.34c-.75,0-2.4.63-2.4,1.89a19.09,19.09,0,0,0,1.11,3.36c.48,1.08.81,1.59,1.95,1.59a2.346,2.346,0,0,0,2.58-2.07,11.626,11.626,0,0,0-1.08-3.12C40.6-24.87,40.125-24.99,39.225-24.99Zm12.51,8.16a7.688,7.688,0,0,1-3.72-6.3,4.5,4.5,0,0,0-.15-1.38c-.3-.93-.87-1.29-2.37-1.29a1.854,1.854,0,0,0-2.07,1.74c-.03.18-.03.99-.03,1.17a6.883,6.883,0,0,1-3.96,6.27c-2.4,1.23-2.49,1.29-2.67,2.16a1.7,1.7,0,0,0-1.98-1.47h-5.91c-.87,0-2.01.18-2.01,1.92a1.708,1.708,0,0,0,2.01,1.86h5.91a1.717,1.717,0,0,0,1.98-1.41,2.688,2.688,0,0,0,2.22,2.46c1.38,0,5.34-2.7,6.75-6.39,1.68,3.72,5.22,6.36,6.66,6.36,1.23,0,2.34-1.47,2.34-3.06a1.557,1.557,0,0,0-.9-1.53Zm-17.01-4.44c.78,0,2.01-.15,2.01-1.89a1.727,1.727,0,0,0-2.01-1.86h-5.85c-.78,0-2.01.15-2.01,1.89a1.727,1.727,0,0,0,2.01,1.86Zm-.06,13.59c.69,0,2.13,0,2.13-1.89a1.733,1.733,0,0,0-2.01-1.86h-5.91c-.72,0-2.01.12-2.01,1.89a1.727,1.727,0,0,0,2.01,1.86Zm20.1-15.42a2.45,2.45,0,0,0-2.52-1.86,1.738,1.738,0,0,0-1.59.87c-.12.21-.66,1.38-.78,1.65a5.766,5.766,0,0,0-.81,2.19,2.376,2.376,0,0,0,2.52,2.07c.99,0,1.38-.54,1.92-1.59C54.735-22.14,54.855-22.35,54.765-23.1ZM38.895-11.04a2.181,2.181,0,0,0-2.01,1.95c0,.51,0,.51,1.05,2.88.66,1.5.84,1.92,2.01,1.92.87,0,2.49-.54,2.49-2.04a11.542,11.542,0,0,0-1.5-3.81A1.783,1.783,0,0,0,38.895-11.04ZM54.7-9.24c0-.96-1.2-1.83-2.52-1.83-1.17,0-1.41.45-2.4,2.55-.66,1.38-.72,1.53-.72,1.89a2.349,2.349,0,0,0,2.43,2.16c.9,0,1.38-.36,2.04-1.53C54.7-8.13,54.7-8.49,54.7-9.24Zm22.74-8.16c2.94-.09,3.27-.09,3.96-.12,1.11-.03,2.61-.18,2.61-2.37,0-2.13-1.47-2.37-2.58-2.37-.57,0-3.36.12-3.99.12,0-1.2,0-3-2.7-3s-2.67,1.98-2.64,2.67l.03.48c-2.34.06-4.98.09-7.02.12-.72,0-4.29-.03-5.1-.03-1.23,0-2.97.06-2.97,2.37,0,1.65.9,2.13,1.44,2.25a16.466,16.466,0,0,0,3.69.15c2.67,0,6.42-.06,10.08-.15l.03,1.47a13.539,13.539,0,0,0-3.6-.48c-5.07,0-7.59,2.82-7.59,6,0,3.75,3.06,6.03,7.44,6.03a6.919,6.919,0,0,0,4.11-1.02,3.019,3.019,0,0,1-2.25,2.04,16.856,16.856,0,0,1-5.61.69c-1.38,0-2.88,0-2.88,2.13a2.744,2.744,0,0,0,.81,1.98,2.694,2.694,0,0,0,2.01.6,35.672,35.672,0,0,0,4.68-.45c6.42-1.11,8.67-4.56,8.67-8.97a10.619,10.619,0,0,0-.63-3.75Zm-8.22,9.21c-.42,0-3.03-.09-3.03-2.1,0-1.62,1.89-2.1,3.03-2.1.21,0,3.03,0,3.03,2.16C72.255-8.64,70.425-8.19,69.225-8.19Zm32.64-7.41a49.786,49.786,0,0,1,5.88-3.75,2.68,2.68,0,0,0,1.56-2.55c0-1.74-1.17-2.22-3.09-2.22-.27,0-.96,0-1.53.03-4.77.18-8.31.27-12.18.27-1.56,0-2.82.63-2.82,2.52,0,1.98,1.2,2.52,2.67,2.52.3,0,.81-.03,1.71-.09,3.03-.24,4.62-.39,6-.42-.24.24-.69.57-.78.66-4.8,3.69-6.54,5.01-9.78,7.29-1.95,1.38-2.43,1.71-2.43,2.88a2.877,2.877,0,0,0,2.73,2.82c.72,0,1.14-.27,3.03-2.01a12.955,12.955,0,0,1,9.36-3.78,8.581,8.581,0,0,1,3.06.45,4.089,4.089,0,0,1,2.58,3.87,4.306,4.306,0,0,1-3.03,4.2,6.334,6.334,0,0,0,.09-.96,5.3,5.3,0,0,0-.81-2.82c-1.32-2.01-4.29-2.22-5.4-2.22-3.51,0-6.69,1.74-6.69,5.49,0,4.56,5.1,5.52,8.94,5.52a16.554,16.554,0,0,0,7.14-1.35,8.815,8.815,0,0,0,5.28-8.31,7.733,7.733,0,0,0-4.29-7.32,11.839,11.839,0,0,0-4.83-1.02A7.185,7.185,0,0,0,101.865-15.6Zm-1.05,13.38a5.984,5.984,0,0,1-1.23.15c-2.22,0-3-.78-3-1.47,0-.81.9-1.35,2.22-1.35a1.811,1.811,0,0,1,2.1,1.86A6.685,6.685,0,0,1,100.815-2.22Z" transform="translate(5396 6957)" fill="#fff"/>
  </g>
</svg>
