<svg xmlns="http://www.w3.org/2000/svg" xmlns:xlink="http://www.w3.org/1999/xlink" width="353" height="68" viewBox="0 0 353 68">
  <defs>
    <filter id="長方形_294" x="0" y="0" width="353" height="68" filterUnits="userSpaceOnUse">
      <feOffset dy="3" input="SourceAlpha"/>
      <feGaussianBlur stdDeviation="3" result="blur"/>
      <feFlood flood-opacity="0.161"/>
      <feComposite operator="in" in2="blur"/>
      <feComposite in="SourceGraphic"/>
    </filter>
  </defs>
  <g id="グループ_315" data-name="グループ 315" transform="translate(-6255 -4562)">
    <g transform="matrix(1, 0, 0, 1, 6255, 4562)" filter="url(#長方形_294)">
      <rect id="長方形_294-2" data-name="長方形 294" width="335" height="50" rx="10" transform="translate(9 6)" fill="#00b900"/>
    </g>
    <path id="パス_2857" data-name="パス 2857" d="M-85.716-18.072c0-1.416-.648-2.112-2.328-2.112-2.112,0-2.28,1.3-2.28,2.112V-3.456C-90.324-.96-89.268,0-86.868,0h8.808a1.776,1.776,0,0,0,2.04-2.016A1.763,1.763,0,0,0-78.06-3.96h-6.984a.625.625,0,0,1-.672-.7Zm17.352,0c0-1.392-.624-2.112-2.328-2.112-2.112,0-2.256,1.3-2.256,2.112V-1.608c0,1.416.624,2.136,2.3,2.136,2.112,0,2.28-1.3,2.28-2.136ZM-52.452-5.88-57.9-18.456a3.038,3.038,0,0,0-3.048-1.752c-2.064,0-3.168.576-3.168,2.16v16.44c0,.84.168,2.136,2.28,2.136,1.68,0,2.328-.72,2.328-2.136V-12.744l-.048-1.032L-54.108-1.2A3.041,3.041,0,0,0-51.06.528c1.92,0,3.168-.528,3.168-2.16v-16.44c0-.816-.168-2.112-2.28-2.112-1.7,0-2.328.72-2.328,2.112v11.16Zm13.392-6.048v-3.1a.618.618,0,0,1,.672-.672h7.3c1.3,0,2.04-.528,2.04-2.016a1.793,1.793,0,0,0-2.04-1.968h-9.12c-2.208,0-3.456.792-3.456,3.456V-3.456C-43.668-.936-42.612,0-40.212,0h9.7a1.773,1.773,0,0,0,2.04-2.016,1.771,1.771,0,0,0-2.04-1.944h-7.872a.625.625,0,0,1-.672-.7v-3.48h7.224c1.752,0,1.992-1.008,1.992-1.968,0-1.608-1.128-1.824-1.992-1.824Zm22.8-2.616a12.3,12.3,0,0,0-3.048,2.592,8.99,8.99,0,0,0-2.28,5.9,6.244,6.244,0,0,0,3.936,6.1,17.907,17.907,0,0,0,6.936,1.2c1.752,0,3.72,0,3.72-2.5a1.757,1.757,0,0,0-1.9-1.992H-11.1c-3.288,0-6.144-.336-6.144-3.264,0-3.84,4.824-8.088,9.624-8.16,1.344-.024,2.784-.048,2.784-2.184,0-1.992-1.488-1.992-2.808-1.992-6.24,0-16.176.408-16.944.5a1.909,1.909,0,0,0-1.8,2.208,1.921,1.921,0,0,0,1.944,2.184c.408,0,2.5-.168,2.952-.192C-19.524-14.256-17.364-14.448-16.26-14.544Zm5.208,4.032c.648,1.488.72,1.632,1.224,1.632.288,0,.984-.168.984-.816a6.194,6.194,0,0,0-.72-1.968c-.48-.96-.792-1.224-1.176-1.224s-.984.312-.984.792a1.389,1.389,0,0,0,.072.408C-11.6-11.5-11.148-10.7-11.052-10.512ZM-8.58-11.64c.672,1.512.72,1.632,1.224,1.632.408,0,.984-.264.984-.816a6.113,6.113,0,0,0-.7-1.944c-.48-.936-.768-1.248-1.176-1.248-.384,0-1.008.312-1.008.792a1.389,1.389,0,0,0,.072.408C-9.132-12.648-8.676-11.832-8.58-11.64ZM6.9-7.44a13.2,13.2,0,0,1-2.976-5.016v-.336h.888c.888,0,1.776-.264,1.776-1.848,0-1.8-1.224-1.848-1.776-1.848H3.924v-2.256c0-1.464-.672-1.944-1.968-1.944A1.656,1.656,0,0,0,.228-18.744v2.256H-1.284c-.888,0-1.776.288-1.776,1.872,0,1.8,1.248,1.824,1.776,1.824H.108A17.888,17.888,0,0,1-2.22-7.7c-.84,1.248-1.1,1.632-1.1,2.424A2.155,2.155,0,0,0-1.4-3C-.612-3-.18-3.48.228-4.3V.48c0,1.488.672,1.9,1.968,1.9,1.608,0,1.728-1.224,1.728-1.9V-5.952c.384.744.816,1.44,1.584,1.44A1.894,1.894,0,0,0,6.9-5.136v3.984c0,2.328,1.1,3,3,3h6.24c1.9,0,2.976-.672,2.976-3V-16.9c0-2.328-1.08-2.976-2.976-2.976H9.9c-1.9,0-3,.648-3,2.976Zm8.424-.552H10.668V-10.32h4.656ZM10.668-13.8v-1.776a.509.509,0,0,1,.576-.576h3.5a.509.509,0,0,1,.576.576V-13.8ZM15.324-2.448a.519.519,0,0,1-.576.576h-3.5a.509.509,0,0,1-.576-.576V-4.512h4.656Zm19.392-4.92a5.787,5.787,0,0,1-2.232,4.632A12.538,12.538,0,0,1,29.94-1.344a4.26,4.26,0,0,0-.552.336V-2.736c0-2.424-.408-2.832-2.832-2.832H24.444c-2.424,0-2.832.408-2.832,2.832v1.92c0,2.424.384,2.856,2.808,2.856h2.16c1.2,0,2.016,0,2.52-.84a1.767,1.767,0,0,0,1.7,1.152c1.032,0,4.416-1.8,5.712-5.28a9,9,0,0,0,1.7,2.88c1.008,1.128,2.64,2.3,3.672,2.3a2.219,2.219,0,0,0,1.944-2.28,1.411,1.411,0,0,0-.6-1.248L41.508-2.28a6.572,6.572,0,0,1-3.1-5.256v-1.1c0-1.56-.72-1.92-2.016-1.92-1.44,0-1.68,1.008-1.68,1.92Zm-8.3,5.928a.336.336,0,0,1-.36.384h-.72a.347.347,0,0,1-.36-.384v-.912a.347.347,0,0,1,.36-.384h.72a.347.347,0,0,1,.36.384ZM28.5-13.32c.84,0,1.584-.216,1.584-1.632,0-1.392-.984-1.488-1.584-1.488h-6c-1.1,0-1.608.456-1.608,1.632A1.382,1.382,0,0,0,22.5-13.32Zm2.88-6.672c-.6,0-1.92.5-1.92,1.512a15.272,15.272,0,0,0,.888,2.688c.384.864.648,1.272,1.56,1.272a1.877,1.877,0,0,0,2.064-1.656,9.3,9.3,0,0,0-.864-2.5C32.484-19.9,32.1-19.992,31.38-19.992Zm10.008,6.528a6.15,6.15,0,0,1-2.976-5.04,3.6,3.6,0,0,0-.12-1.1c-.24-.744-.7-1.032-1.9-1.032a1.483,1.483,0,0,0-1.656,1.392c-.024.144-.024.792-.024.936A5.506,5.506,0,0,1,31.548-13.3c-1.92.984-1.992,1.032-2.136,1.728a1.356,1.356,0,0,0-1.584-1.176H23.1c-.7,0-1.608.144-1.608,1.536A1.367,1.367,0,0,0,23.1-9.72h4.728a1.374,1.374,0,0,0,1.584-1.128A2.151,2.151,0,0,0,31.188-8.88c1.1,0,4.272-2.16,5.4-5.112C37.932-11.016,40.764-8.9,41.916-8.9c.984,0,1.872-1.176,1.872-2.448a1.245,1.245,0,0,0-.72-1.224ZM27.78-17.016c.624,0,1.608-.12,1.608-1.512a1.382,1.382,0,0,0-1.608-1.488H23.1c-.624,0-1.608.12-1.608,1.512A1.382,1.382,0,0,0,23.1-17.016ZM27.732-6.144c.552,0,1.7,0,1.7-1.512a1.387,1.387,0,0,0-1.608-1.488H23.1c-.576,0-1.608.1-1.608,1.512A1.382,1.382,0,0,0,23.1-6.144ZM43.812-18.48A1.96,1.96,0,0,0,41.8-19.968a1.39,1.39,0,0,0-1.272.7c-.1.168-.528,1.1-.624,1.32a4.613,4.613,0,0,0-.648,1.752,1.9,1.9,0,0,0,2.016,1.656c.792,0,1.1-.432,1.536-1.272C43.788-17.712,43.884-17.88,43.812-18.48Zm-12.7,9.648a1.745,1.745,0,0,0-1.608,1.56c0,.408,0,.408.84,2.3.528,1.2.672,1.536,1.608,1.536.7,0,1.992-.432,1.992-1.632a9.233,9.233,0,0,0-1.2-3.048A1.427,1.427,0,0,0,31.116-8.832Zm12.648,1.44c0-.768-.96-1.464-2.016-1.464-.936,0-1.128.36-1.92,2.04-.528,1.1-.576,1.224-.576,1.512A1.88,1.88,0,0,0,41.2-3.576c.72,0,1.1-.288,1.632-1.224C43.764-6.5,43.764-6.792,43.764-7.392ZM61.956-13.92c2.352-.072,2.616-.072,3.168-.1.888-.024,2.088-.144,2.088-1.9,0-1.7-1.176-1.9-2.064-1.9-.456,0-2.688.1-3.192.1,0-.96,0-2.4-2.16-2.4s-2.136,1.584-2.112,2.136l.024.384c-1.872.048-3.984.072-5.616.1-.576,0-3.432-.024-4.08-.024-.984,0-2.376.048-2.376,1.9,0,1.32.72,1.7,1.152,1.8a13.172,13.172,0,0,0,2.952.12c2.136,0,5.136-.048,8.064-.12l.024,1.176a10.831,10.831,0,0,0-2.88-.384c-4.056,0-6.072,2.256-6.072,4.8,0,3,2.448,4.824,5.952,4.824a5.535,5.535,0,0,0,3.288-.816,2.415,2.415,0,0,1-1.8,1.632,13.485,13.485,0,0,1-4.488.552c-1.1,0-2.3,0-2.3,1.7a2.2,2.2,0,0,0,.648,1.584,2.155,2.155,0,0,0,1.608.48,28.538,28.538,0,0,0,3.744-.36C60.66.48,62.46-2.28,62.46-5.808a8.5,8.5,0,0,0-.5-3ZM55.38-6.552c-.336,0-2.424-.072-2.424-1.68,0-1.3,1.512-1.68,2.424-1.68.168,0,2.424,0,2.424,1.728C57.8-6.912,56.34-6.552,55.38-6.552ZM81.492-12.48a39.829,39.829,0,0,1,4.7-3,2.144,2.144,0,0,0,1.248-2.04c0-1.392-.936-1.776-2.472-1.776-.216,0-.768,0-1.224.024-3.816.144-6.648.216-9.744.216-1.248,0-2.256.5-2.256,2.016,0,1.584.96,2.016,2.136,2.016.24,0,.648-.024,1.368-.072,2.424-.192,3.7-.312,4.8-.336-.192.192-.552.456-.624.528C75.588-11.952,74.2-10.9,71.6-9.072c-1.56,1.1-1.944,1.368-1.944,2.3a2.3,2.3,0,0,0,2.184,2.256c.576,0,.912-.216,2.424-1.608a10.364,10.364,0,0,1,7.488-3.024,6.865,6.865,0,0,1,2.448.36,3.271,3.271,0,0,1,2.064,3.1,3.445,3.445,0,0,1-2.424,3.36,5.066,5.066,0,0,0,.072-.768,4.236,4.236,0,0,0-.648-2.256c-1.056-1.608-3.432-1.776-4.32-1.776-2.808,0-5.352,1.392-5.352,4.392,0,3.648,4.08,4.416,7.152,4.416A13.244,13.244,0,0,0,86.46.6a7.052,7.052,0,0,0,4.224-6.648A6.187,6.187,0,0,0,87.252-11.9a9.471,9.471,0,0,0-3.864-.816A5.748,5.748,0,0,0,81.492-12.48Zm-.84,10.7a4.787,4.787,0,0,1-.984.12c-1.776,0-2.4-.624-2.4-1.176,0-.648.72-1.08,1.776-1.08a1.449,1.449,0,0,1,1.68,1.488A5.348,5.348,0,0,1,80.652-1.776Z" transform="translate(6432 4602)" fill="#fff"/>
  </g>
</svg>
