<svg xmlns="http://www.w3.org/2000/svg" xmlns:xlink="http://www.w3.org/1999/xlink" width="386.409" height="48.432" viewBox="0 0 386.409 48.432">
  <defs>
    <filter id="パス_2832" x="24.621" y="0" width="337.136" height="48.432" filterUnits="userSpaceOnUse">
      <feOffset dy="3" input="SourceAlpha"/>
      <feGaussianBlur stdDeviation="3" result="blur"/>
      <feFlood flood-opacity="0.161"/>
      <feComposite operator="in" in2="blur"/>
      <feComposite in="SourceGraphic"/>
    </filter>
  </defs>
  <g id="グループ_274" data-name="グループ 274" transform="translate(-446.795 -4661.608)">
    <g transform="matrix(1, 0, 0, 1, 446.8, 4661.61)" filter="url(#パス_2832)">
      <path id="パス_2832-2" data-name="パス 2832" d="M-157.248-9.472c0,1.6,0,6.208-2.272,9.728l2.912,2.752a17.5,17.5,0,0,0,2.336-7.52h7.008v2.784c0,.96-.224.96-1.216.96h-2.912l.672,3.68h3.648c1.12,0,2.88,0,2.88-2.912V-19.968h-3.2a11.847,11.847,0,0,0,1.7-2.3v-3.136h-5.76c.224-.544.384-.864.608-1.472l-3.808-.448a17.13,17.13,0,0,1-4.928,7.008l1.216,3.9c.576-.448.736-.608,1.12-.928Zm5.312-7.424v3.168h-2.08V-16.9Zm0,6.144V-7.52h-2.08v-3.232Zm4.672-6.144v3.168h-2.112V-16.9Zm0,6.144V-7.52h-2.112v-3.232Zm-7.52-9.216a24.274,24.274,0,0,0,1.664-2.3h3.328a8.539,8.539,0,0,1-1.888,2.3Zm10.88-6.24v3.36h3.424a7.117,7.117,0,0,1-3.584,3.712l1.92,3.04a10.911,10.911,0,0,0,5.472-6.752h3.424c-.032,2.944-.544,2.944-1.632,2.944h-2.752l.8,3.2h3.616a2.631,2.631,0,0,0,2.944-1.792,35.265,35.265,0,0,0,.672-7.712Zm6.624,16.384v3.072h-6.176v3.68h6.272V2.912h3.552V-3.072h4.672v-3.68h-4.672V-9.824h4v-3.424h-4V-15.84h-3.648v2.592h-2.048c.224-1.12.32-1.7.416-2.24l-3.232-.544c-.544,3.9-1.088,5.248-1.92,6.688l2.816,2.016a11.57,11.57,0,0,0,1.088-2.5Zm19.68-13.152v3.68h6.528V-16a23.173,23.173,0,0,1-.064,2.464h-7.552v3.744h6.88c-1.5,5.12-5.664,7.712-8.64,9.024l2.464,3.68A18.454,18.454,0,0,0-108.736-7.1c.768,2.144,2.752,6.72,10.24,10.048L-96.48-.992c-3.52-1.376-8-3.872-9.728-8.8h9.28v-3.744h-1.856v-9.44h-8.256v-4.256h-4.032v4.256Zm10.4,9.44a28.972,28.972,0,0,0,.16-3.008V-19.3h4.224v5.76Zm-18.912-10.656a22.394,22.394,0,0,1,5.312,3.424l2.432-3.392a21.23,21.23,0,0,0-5.568-3.2Zm-1.408,8.608a20.617,20.617,0,0,1,5.216,3.36l2.432-3.36a19.414,19.414,0,0,0-5.6-3.3Zm5.856,4.992a39.422,39.422,0,0,1-6.016,9.76l2.592,3.648a43.588,43.588,0,0,0,6.432-11.072Zm31.776-15.392c0,2.208-.1,9.6-.1,14.24,0,4.608,0,7.552,1.6,9.76C-86.464.64-83.616,1.5-80.1,1.5c7.808,0,12.064-4.576,13.472-12.448l-4.16-1.472c-.352,2.272-1.408,9.824-9.216,9.824-4.992,0-5.7-2.976-5.7-6.752,0-4.768.32-15.584.352-16.608Zm33.792.064c-.064.992-.128,2.208-.32,3.712h-4.832v3.936h4.288c-.256,1.568-2.016,12.1-5.056,18.528l4.128,1.408c2.08-4.736,4.128-14.144,5.056-19.936h8.512v-3.936h-7.9c.224-1.568.352-2.56.48-3.68Zm21.344,7.84c-8.16-.128-11.168.928-13.6,1.984l1.28,3.488c1.376-.512,3.68-1.408,9.248-1.408,1.344,0,2.24.064,3.1.1Zm-13.472,7.9a8.678,8.678,0,0,0-2.688,5.728c0,5.888,7.584,5.888,11.136,5.888,3.584,0,4.16-.032,5.44-.128V-2.816a64.078,64.078,0,0,1-6.784.32c-2.08,0-5.856,0-5.856-2.432,0-.512.16-1.632,1.728-3.264Zm47.2-15.2H-14.048v-1.888h-3.84v1.888h-12.9v2.944h12.9v1.376h-10.3v6.3h10.3v1.28h-11.3v2.56h11.3v1.376h-13.28V-6.72h13.28v1.472H-29.312v2.624h11.424v1.088c0,.64-.128.96-.96.96H-23.68l.64,3.488h6.3c1.952,0,2.688-1.536,2.688-3.1V-2.624h7.264V-1.6h3.936V-6.624H-.832V-9.6H-2.848v-3.872h-11.2v-1.28H-3.52v-6.3H-14.048v-1.376H-1.024Zm-16.864,6.72v1.6h-6.464v-1.6Zm10.464,0v1.6h-6.624v-1.6Zm.64,7.744v1.44h-7.264v-1.44Zm0,4.16v1.5h-7.264v-1.5ZM8.928-8.128a16.4,16.4,0,0,0,1.6-1.92A29.563,29.563,0,0,1,13.792-7.04,17.278,17.278,0,0,1,7.552-.16l2.464,3.2c6.048-4.352,9.6-11.968,9.792-22.112h-5.76a27.847,27.847,0,0,0,.448-3.36h5.728v-3.712H9.056v3.712H11.04A18.015,18.015,0,0,1,6.912-11.84v-7.488a47.049,47.049,0,0,0,1.7-7.616L4.864-27.2c-.512,4.512-1.92,9.088-4.448,12.224L1.728-9.5c.64-.8.96-1.248,1.5-2.016V3.008h3.68V-11.424Zm7.3-7.36a24.584,24.584,0,0,1-.992,4.9,32.475,32.475,0,0,0-3.04-2.368,15.175,15.175,0,0,0,.96-2.528ZM20.96-3.872h3.552v-21.44H20.96ZM26.3-1.792c0,.64,0,.864-.8.864H22.176l.8,3.936H27.2c2.016,0,2.88-.992,2.88-3.072V-27.2H26.3ZM42.592-26.336a24.74,24.74,0,0,1-.448,2.88H35.008v3.936h6.048a26.6,26.6,0,0,1-7.04,10.752l3.04,3.136c.544-.544,1.44-1.376,4.128-5.5,3.168-3.2,5.408-3.2,5.792-3.2a2.451,2.451,0,0,1,2.336,1.408C46.784-11.648,40.9-8.8,40.9-4.416A5.46,5.46,0,0,0,44.416.576C46.272,1.312,48.7,1.6,53.376,1.6c2.368,0,5.28-.1,6.4-.128V-2.656c-2.592.256-5.44.384-8.064.384-3.2,0-6.272,0-6.272-2.5,0-2.048,2.816-3.424,4.512-4.288a33.8,33.8,0,0,1-.064,4.032H54.08c.032-1.024.032-1.536.032-2.464,0-1.056-.032-2.176-.128-3.232a45.341,45.341,0,0,1,7.648-2.144l-.96-4.224A59.346,59.346,0,0,0,53.12-14.56a5.325,5.325,0,0,0-5.056-3.392,8.9,8.9,0,0,0-3.68.928,15.691,15.691,0,0,0,1.056-2.5H59.2v-3.936H46.592c.288-1.216.384-1.728.512-2.56ZM90.176-24.8c-1.7,0-5.408-.032-7.168,0-1.92.032-10.048.128-11.584.128-.736,0-1.792-.032-2.432-.064v4.224c1.92-.1,8.544-.256,10.624-.32-.768.416-2.5,1.344-3.2,1.824L79.3-16.48c1.44-.9,5.888-3.712,10.88-4.448ZM71.328-14.5c-2.176,2.4-3.68,4.576-3.68,7.584A6.844,6.844,0,0,0,71.3-.992C74.08.48,76.864.832,83.456.832A59.5,59.5,0,0,0,91.872.416l-.1-4.32a73.149,73.149,0,0,1-9.568.544c-4.9,0-10.272-.064-10.272-3.808,0-1.184.416-2.912,2.592-5.12Zm18.624,1.472a26.761,26.761,0,0,0-3.072-4.768l-2.368,1.344a30.68,30.68,0,0,1,2.944,4.864Zm4.064-2.048a21.594,21.594,0,0,0-3.04-4.608l-2.4,1.344a27.3,27.3,0,0,1,2.976,4.672ZM110.56-11.9V2.912h3.712V1.376h7.936V2.912h3.808V-11.9Zm-8.9-15.488a28.612,28.612,0,0,1-2.5,4.992,11.327,11.327,0,0,0-.992-.768l-1.632,3.36a20.916,20.916,0,0,1,4.224,3.872c-.448.608-1.152,1.568-1.76,2.336-.9,0-1.216,0-2.24.032l.224,3.584c.608-.064,1.024-.1,4.8-.384V2.912h3.392V-10.656c.256-.032,1.44-.16,1.664-.192.064.192.256,1.088.32,1.344l2.912-1.024a38.484,38.484,0,0,0-2.112-6.3l-2.688.992c.256.64.384,1.024.7,1.92-.48.032-2.56.128-2.976.16a89.614,89.614,0,0,0,6.24-8.832l-3.3-1.376a54.173,54.173,0,0,1-3.04,4.992c-.416-.448-.8-.8-1.28-1.28a33.775,33.775,0,0,0,3.552-6.08Zm20.544,19.1V-2.3h-7.936V-8.288ZM97.824-8.544c-.32,4.8-.7,6.4-1.28,8.16l3.1,1.408a35.626,35.626,0,0,0,1.184-9.184Zm8.16.32a42.706,42.706,0,0,1,.672,7.232l3.04-.64a38.96,38.96,0,0,0-1.056-7.1Zm3.9-18.016v3.616H114.4c-.544,3.1-2.72,5.088-5.7,6.3l2.24,3.52a13.611,13.611,0,0,0,7.328-9.824h4.448a20.087,20.087,0,0,1-.768,4.8c-.224.448-.48.544-1.088.544h-3.552l.9,3.872h3.968c2.112,0,3.008-.928,3.52-3.136a55.846,55.846,0,0,0,.864-9.7Zm49.664,8.512c-6.752-2.4-11.136-6.208-13.5-9.568h-3.9a29.07,29.07,0,0,1-13.7,9.5l2.048,3.936A32.222,32.222,0,0,0,143.9-23.68a34.652,34.652,0,0,0,13.472,10.048ZM135.776-15.9v5.632c0,2.688,0,6.272-5.7,9.92l3.1,3.3c5.888-4,6.688-8.288,6.688-13.056V-15.9ZM148-15.9V2.848h4.064V-15.9Z" transform="translate(193.2 33.39)" fill="#002063"/>
    </g>
    <path id="パス_2631" data-name="パス 2631" d="M0,0,37.549,2.771,0,5.115Z" transform="translate(451.225 4667) rotate(60)" fill="#002063"/>
    <path id="パス_2632" data-name="パス 2632" d="M0,5.115,37.549,2.345,0,0Z" transform="translate(833.205 4669.558) rotate(120)" fill="#002063"/>
  </g>
</svg>
