<svg xmlns="http://www.w3.org/2000/svg" xmlns:xlink="http://www.w3.org/1999/xlink" width="322.415" height="90.68" viewBox="0 0 322.415 90.68">
  <defs>
    <filter id="パス_2797" x="0" y="0" width="322.415" height="90.68" filterUnits="userSpaceOnUse">
      <feOffset dy="3" input="SourceAlpha"/>
      <feGaussianBlur stdDeviation="3" result="blur"/>
      <feFlood flood-opacity="0.161"/>
      <feComposite operator="in" in2="blur"/>
      <feComposite in="SourceGraphic"/>
    </filter>
  </defs>
  <g id="グループ_273" data-name="グループ 273" transform="translate(-22.225 -1812.16)">
    <rect id="長方形_249" data-name="長方形 249" width="301" height="6" transform="translate(37 1857)" fill="#f29600"/>
    <rect id="長方形_248" data-name="長方形 248" width="252" height="6" transform="translate(59 1885)" fill="#f29600"/>
    <g transform="matrix(1, 0, 0, 1, 22.23, 1812.16)" filter="url(#パス_2797)">
      <path id="パス_2797-2" data-name="パス 2797" d="M-145.23-11.64c-1.575.015-7.9.06-9.015.06-.315,0-.705-.015-.93-.03l-.015,1.995c.3-.015,4.59-.135,5.01-.12a8.923,8.923,0,0,0-1.515.825l1.365,1.185a12.513,12.513,0,0,1,5.1-2.04Zm-8.82,4.83a5.37,5.37,0,0,0-1.725,3.69c0,3.5,4.395,3.5,7.53,3.5a27.26,27.26,0,0,0,3.81-.165l-.045-2.025a36.808,36.808,0,0,1-4.515.255c-3.09,0-4.77-.21-4.77-1.86a3.385,3.385,0,0,1,1.155-2.34Zm19.02,7.5c3.93-.27,6.72-1.935,6.72-6.375,0-3.765-2.4-6-6.285-6-4.23,0-7.08,2.8-7.08,6.735,0,2.175,1.02,4.44,3.045,4.44a3.65,3.65,0,0,0,2.94-2.01c1.245-2.1,1.53-5.505,1.68-7.3,2.925.225,3.54,2.34,3.54,4.035,0,3.675-2.505,4.44-5.19,4.56Zm-.975-10.425c-.345,4.68-1.395,7.185-2.5,7.185-.36,0-1.2-.345-1.2-2.235A4.666,4.666,0,0,1-136.005-9.735Zm13.8,4.725h.975l-1.08,1.2A7.975,7.975,0,0,1-120.5-2.2l1.2-1.185a7.465,7.465,0,0,0-1.83-1.62h2.655V-.885c0,.435-.165.48-.48.48h-.8a6.742,6.742,0,0,0,.69-.42l-.33-1.53a20.261,20.261,0,0,1-3.765,1.74l.6,1.62A20.1,20.1,0,0,0-120.195-.15l.285,1.515h1.92c1.02,0,1.305-.615,1.305-1.35v-1.89a8.568,8.568,0,0,0,3.15,2.9l.78-1.725a7.732,7.732,0,0,1-3.93-3.885v-.42h3.765V-6.585h-3.765V-7.47h3.165V-8.88h-3.165v-.81h3.51v-1.53h-1.635a8.488,8.488,0,0,0,.57-1.35l-1.8-.225a7.565,7.565,0,0,1-.525,1.575h-1.875a8.61,8.61,0,0,0-.675-1.575l-1.755.21a9.876,9.876,0,0,1,.57,1.365h-1.68v1.53h3.51v.81h-3.09v1.41h3.09v.885h-3.735v.825a6.928,6.928,0,0,1-1.515-2.16v-.525h1.275v-1.68h-1.275v-2.64h-1.725v2.64h-1.65v1.68h1.59a9.45,9.45,0,0,1-1.83,4.38l.6,2.49a9.6,9.6,0,0,0,1.29-2.565v5.5h1.725V-5.4a5.729,5.729,0,0,0,.75,1.11l.765-1.17Zm8.04.045a6.957,6.957,0,0,1-1.545,1.68l1.23,1a8.02,8.02,0,0,0,1.635-1.71Zm5.385-7.395c-.09.66-.15,1.2-.255,1.815h-2.535V-8.67h2.19a26.885,26.885,0,0,1-2.34,7.185l2.025.69A52.909,52.909,0,0,0-107.34-8.67h3.255v-1.875h-2.865c.1-.525.165-.975.27-1.68Zm10.32,1.59a19.739,19.739,0,0,0-4.785.42l.15,5.415a8.842,8.842,0,0,0-1.08-.075c-2.775,0-3.81,1.53-3.81,2.97,0,1.275.855,2.85,3.585,2.85,2.67,0,3.255-1.77,3.255-2.625v-.27a11.782,11.782,0,0,1,1.9,1.65L-98.1-2.34a13.232,13.232,0,0,0-3.015-1.98l-.135-4.29a8.408,8.408,0,0,1,1.56-.1,10.654,10.654,0,0,1,1.245.06Zm-4.575,8.49c0,1.065-.78,1.32-1.545,1.32-.63,0-1.59-.24-1.59-1.11,0-.96,1.02-1.29,1.89-1.29a3.325,3.325,0,0,1,1.245.24Zm12.06-9.33a12.115,12.115,0,0,1,.99,1.785c-.39.12-2.205.7-2.4.78-.165-.57-.735-2.385-.87-2.835l-2,.54c.21.54.675,1.875.975,2.91-.525.18-2.1.69-2.415.795l.585,2c.225-.09,1.575-.6,2.355-.9A65.559,65.559,0,0,1-92.025.945l2.145-.33A80.73,80.73,0,0,0-91.86-7.26c.525-.2,1.71-.615,2.475-.855.12.375.195.645.33,1.185l1.965-.54c-.075-.36-.135-.615-.255-1.035,1.71.03,1.965,1.11,1.965,1.695,0,.78-.525,1.92-2.445,1.92a5.532,5.532,0,0,1-1.65-.285l-.09,1.86a7.039,7.039,0,0,0,2.025.3c2.5,0,4.185-1.38,4.185-3.795,0-1.89-1.185-3.54-3.825-3.54a4.885,4.885,0,0,0-.855.06,12.415,12.415,0,0,0-1.2-2.04Zm11.7-.735a34.4,34.4,0,0,0-.57,6.855,24.161,24.161,0,0,0,.12,2.58l1.965-.15a11.285,11.285,0,0,1-.15-1.875c0-1.92,1.95-4.155,3.72-4.155,2.13,0,2.13,2.94,2.13,3.51,0,4.035-2.82,4.5-6.93,4.545l.435,1.89c5.16,0,8.58-1.395,8.58-6.33,0-3.675-1.77-5.46-4.035-5.46a4.6,4.6,0,0,0-3.66,1.9,12.238,12.238,0,0,1,.525-3.12ZM-56.4-5.52a20.324,20.324,0,0,1-.465,4.185c-.24.735-.585.735-1.05.735H-60.9l.375,1.92h3.03c1.125,0,1.8-.15,2.265-1.2.465-1.035.78-4.02.855-7.425H-61.08c.06-.8.075-1.35.075-1.815h8.1v-1.845H-59.04V-12.78h-1.995v1.815H-67.08V-9.12h4.125C-62.985-4.1-64.215-2.2-67.35-.465l1.17,1.815a8.969,8.969,0,0,0,4.89-6.87ZM-40.35-5.8a11.736,11.736,0,0,0-1.38-2.19l-1.17.615a17.531,17.531,0,0,1,1.35,2.25Zm1.965-1.035A10.874,10.874,0,0,0-39.75-8.865l-1.185.615a14.278,14.278,0,0,1,1.38,2.13Zm-.195-4.83c-1.53.06-8.4.315-9.69.39-1.11.06-2.31.135-3.315.135l.075,2.1c.945-.09,5.58-.48,6.63-.57-3.57,2.28-3.84,4.77-3.84,5.745A4.089,4.089,0,0,0-46.4-.3c1.38.675,2.91.99,6.195,1l.285-2.145c-6.24.21-6.735-1.545-6.735-2.7,0-1.875,1.635-3.45,2.49-4.11A6.4,6.4,0,0,1-40.4-9.69c.555-.015,1.53.015,1.875.015Zm9.24,6.8a8.091,8.091,0,0,0,2.67-5.775h1.6a11.853,11.853,0,0,1-.345,3.57.657.657,0,0,1-.69.435h-1.485l.33,1.68H-25.2c1.1,0,1.905-.42,1.905-7.365h-6.72v1.68h1.65a5.935,5.935,0,0,1-2.25,4.5l-.09-.945c-.33.06-.5.075-1.92.285V-7.86h1.83V-9.3h-1.83v-1.02h2.16v-1.53h-2.16V-12.8H-34.38v.945H-36.9v1.53h2.52V-9.3h-2.145v1.44h2.145v1.29c-1.785.21-2.145.225-2.655.255l.18,1.68c2.46-.315,2.835-.375,6.285-.975l-.045-.465Zm-1.47.03a4.267,4.267,0,0,1-.075.765h-6.15v1.65h5.385C-32.775-1.1-35.46-.555-37.14-.375l.735,1.8c1.68-.285,4.875-1.05,6.39-3.195a10.24,10.24,0,0,0,6.4,3.18l.8-1.815a9.678,9.678,0,0,1-5.49-2.025h5.34V-4.08h-6.09a6.6,6.6,0,0,0,.075-.765Zm8.79.18c.57-.045,1.245-.09,2.3-.2V1.365h1.68v-6.4c.18-.015.7-.09.915-.12.045.18.075.315.15.615l1.56-.51a14,14,0,0,0-1.17-3l-1.35.465a7.063,7.063,0,0,1,.405,1.035c-.42.045-1.1.09-1.545.105a27.93,27.93,0,0,0,2.955-4.215L-17.7-11.3A23.018,23.018,0,0,1-19.155-8.85a8.179,8.179,0,0,0-.585-.66,17.561,17.561,0,0,0,1.65-2.76l-1.53-.57a20.869,20.869,0,0,1-1.245,2.265c-.12-.075-.18-.135-.39-.285L-22.14-9.4A11.325,11.325,0,0,1-20.16-7.41c-.21.3-.51.7-.78,1.05-.285.015-.555.015-1.125.015Zm.42.615a15.47,15.47,0,0,1-.555,3.885l1.44.7a21.362,21.362,0,0,0,.57-4.38Zm7.485-8.745A9.383,9.383,0,0,1-16.38-8.28L-15.09-6.8A8.98,8.98,0,0,0-13.53-9.03h3.3A75.333,75.333,0,0,1-10.56-1c-.12.435-.33.48-.75.48h-2.67l.36,1.89h3.3A1.537,1.537,0,0,0-8.925.3c.435-1.095.48-4.23.6-11.085h-4.44a12.975,12.975,0,0,0,.525-1.86Zm-3.555,8.88A26.433,26.433,0,0,1-17.25-.45L-15.675-.7A18.962,18.962,0,0,0-16.29-4.17Zm2.715-2.43A16.573,16.573,0,0,1-13.14-2.67l1.65-.87a12.979,12.979,0,0,0-1.86-3.585Zm12.42-6a11.6,11.6,0,0,1-.21,1.35H-6.09V-9.15h2.835a12.467,12.467,0,0,1-3.3,5.04L-5.13-2.64A13.568,13.568,0,0,0-3.2-5.22C-1.71-6.72-.66-6.72-.48-6.72a1.149,1.149,0,0,1,1.095.66C-.57-5.46-3.33-4.125-3.33-2.07A2.559,2.559,0,0,0-1.68.27a11.577,11.577,0,0,0,4.2.48C3.63.75,4.995.7,5.52.69V-1.245c-1.215.12-2.55.18-3.78.18-1.5,0-2.94,0-2.94-1.17,0-.96,1.32-1.605,2.115-2.01a15.845,15.845,0,0,1-.03,1.89H2.85c.015-.48.015-.72.015-1.155,0-.495-.015-1.02-.06-1.515A21.254,21.254,0,0,1,6.39-6.03L5.94-8.01A27.818,27.818,0,0,0,2.4-6.825,2.5,2.5,0,0,0,.03-8.415,4.17,4.17,0,0,0-1.7-7.98,7.355,7.355,0,0,0-1.2-9.15H5.25v-1.845H-.66c.135-.57.18-.81.24-1.2Zm16.6.255a21.208,21.208,0,0,0,.585,2.265H8.76v1.86h6.57A19.554,19.554,0,0,0,17.85-3.39l1.71-1.065A13.888,13.888,0,0,1,17.355-8.04a24.451,24.451,0,0,0,3.93-.48l-.315-1.89a29,29,0,0,1-4.32.54A15.074,15.074,0,0,1,16.1-12.3Zm-.8,5.61c-2.82.855-3.825,2.4-3.825,3.84a2.809,2.809,0,0,0,1.56,2.5c1,.54,2.085.81,5.145.81C17.64.675,18.7.63,19.62.54l.075-1.935a32.3,32.3,0,0,1-3.9.225c-2.775,0-4.41-.195-4.41-1.545,0-.72.525-1.635,2.685-2.25Zm18.99-5.79c.03.525.09,2.46.1,2.925l-4.74.105.03-2.805H25.665V-9.18l-2.3.045.06,1.83,2.235-.045v3.54a7.884,7.884,0,0,0,.3,2.565c.72,1.59,2.37,1.86,5.805,1.86,2.475,0,3.195-.06,3.69-.1V-1.425a30.761,30.761,0,0,1-4.14.18c-3.66,0-3.75-.135-3.735-2.64l.03-3.51L32.43-7.5a13.49,13.49,0,0,1-.135,2.235c-.1.57-.21.84-.795.84a13.313,13.313,0,0,1-1.845-.2l.105,1.8a12.087,12.087,0,0,0,1.905.165c2.55,0,2.625-1.575,2.7-4.89l2.28-.06-.03-1.83-2.25.045a25.226,25.226,0,0,0-.135-2.91Zm16.875.84a28.154,28.154,0,0,0-6.69-.93l-.315,1.845a26.555,26.555,0,0,1,6.57,1.095ZM40.32-9.945a4.281,4.281,0,0,0-.3,1.26c-.09.915-.15,3.945-.15,4.965l1.965.03a3.93,3.93,0,0,0,.015-.42,6.737,6.737,0,0,1,4.56-1.77c.96,0,2.43.39,2.43,1.95,0,2.85-3.855,2.85-5.235,2.85a23.277,23.277,0,0,1-3.72-.315L40.035.51A22.162,22.162,0,0,0,43.41.72c3,0,4.26-.345,5.235-.87A3.987,3.987,0,0,0,50.9-3.9c0-2.085-1.425-3.765-4.065-3.765a9.192,9.192,0,0,0-4.95,1.44,9.837,9.837,0,0,1,.375-3.435ZM56.145-12.2c0,.045-.015,2.01-.015,2.205H53.64v1.875h2.475v1.08a16.375,16.375,0,0,1-2.94,3.705l1.1,1.92A10.959,10.959,0,0,0,56.1-3.7c-.015.63-.045,3.72-.045,4.425H58.08c-.03-.765-.075-2.37-.075-4.29,0-1.14.015-1.755.045-3.075,1.575-1.995,3.1-2.625,3.885-2.625.885,0,.945.825.915,1.755L62.7-3.63C62.58-.36,63.99.015,66.48.21l.435-1.98c-2.205.045-2.175-.8-2.145-2.04l.12-3.99a4.421,4.421,0,0,0-.345-2.295,2.461,2.461,0,0,0-2.145-1.14A6.618,6.618,0,0,0,58.1-9.18c.015-1.005.06-2.655.075-3.015Zm25.275.525c-1.53.06-8.4.315-9.69.39-1.425.075-2.6.135-3.315.135l.075,2.1c.945-.09,5.58-.48,6.63-.57-3.57,2.28-3.84,4.77-3.84,5.745A4.089,4.089,0,0,0,73.605-.3c1.38.675,2.91.99,6.195,1l.285-2.145c-6.24.21-6.735-1.545-6.735-2.7,0-1.875,1.635-3.45,2.49-4.11A6.383,6.383,0,0,1,79.6-9.69c.465-.015,1.41,0,1.875.015Zm2.31.15c-.06.78-.225,2.475-.225,4.35,0,1.785.135,7.635,3.42,7.635,2.37,0,3.555-3.18,3.945-4.26L89.205-4.71a10.417,10.417,0,0,1-.99,2.085c-.3.465-.615.84-1.11.84-1.41,0-1.59-3.855-1.59-5.475a25.03,25.03,0,0,1,.36-4.08ZM96.72-1.11c.015-3.09-.06-7.155-3.21-10.125L91.9-10.11c2.475,2.565,2.61,5.52,2.61,9.12ZM99.75-12v1.905l5.655-.09c-2.235,2.055-4.485,4.125-6.75,6.12l1.125,1.74c.555-.585,2.07-2.07,2.58-2.55a6.47,6.47,0,0,1,3.84-1.32,2.458,2.458,0,0,1,2.79,2.535,2.505,2.505,0,0,1-2.07,2.52c.015-.21.03-.3.03-.42a2.662,2.662,0,0,0-2.775-2.715,2.583,2.583,0,0,0-2.805,2.34A2.455,2.455,0,0,0,102.585.12a4.94,4.94,0,0,0,2.79.66c3.96,0,5.7-2.16,5.7-4.6a3.917,3.917,0,0,0-4.14-4.1,4.5,4.5,0,0,0-1.665.27c.435-.36.69-.57,3.075-2.73V-12ZM105.3-.9c-1.935.15-2.265-.54-2.265-.96,0-.48.4-.84,1.05-.84a1.277,1.277,0,0,1,1.275,1.4A1.394,1.394,0,0,1,105.3-.9Zm12.375-6.54h8.5v-4.875h-8.5Zm6.75-3.66v.8h-5.01v-.8Zm0,1.74v.81h-5.01v-.81Zm-4.23,6.09a8.716,8.716,0,0,1-4.08,2.235l.69,1.3a8.753,8.753,0,0,0,5.1-3.54h.885A8.28,8.28,0,0,1,118.5.27l1.08,1.245a8.8,8.8,0,0,0,4.74-4.785h.63a22.239,22.239,0,0,1-.195,2.37c-.06.345-.12.6-.6.6H122.37l.27,1.635h2.16a1.324,1.324,0,0,0,1.44-.87c.42-.96.48-5.04.48-5.13h-6.165c.195-.27.285-.435.465-.72H127.1V-6.8H117v1.41h2.325a5.592,5.592,0,0,1-2.265,1.8l-.045-.705a8.631,8.631,0,0,1-.99.4V-7.83h.99V-9.615h-.99V-12.75H114.24v3.135h-1.35V-7.83h1.35V-3.3c-.675.21-1.08.3-1.53.4l.195,1.95A38.7,38.7,0,0,0,116.97-2.46l.255.405a7.639,7.639,0,0,0,1.98-1.215ZM131.16-6.96h7.785V-8.04a23.366,23.366,0,0,0,2.28,1.155l1.035-1.89c-3.945-1.5-5.385-3.045-6.225-4.02h-2.04a13.3,13.3,0,0,1-6.225,4.02l.99,1.89a21.7,21.7,0,0,0,2.4-1.2Zm.915-1.7a11.979,11.979,0,0,0,2.9-2.58,15.134,15.134,0,0,0,2.97,2.58ZM129.3,1.35h1.89V.8h7.6V1.35h1.89V-5.67H129.3Zm9.495-5.325v3.09h-7.6v-3.09ZM148.1-.33a25.779,25.779,0,0,0-3.03-3.345l-1.6,1.08A28.836,28.836,0,0,1,146.25.9ZM-139.12,22.5a10.788,10.788,0,0,0,3.56-7.7h2.14a15.8,15.8,0,0,1-.46,4.76.876.876,0,0,1-.92.58h-1.98l.44,2.24h2.74c1.46,0,2.54-.56,2.54-9.82h-8.96V14.8h2.2a7.913,7.913,0,0,1-3,6l-.12-1.26c-.44.08-.66.1-2.56.38v-1.4h2.44V16.6h-2.44V15.24h2.88V13.2h-2.88V11.94h-2.34V13.2h-3.36v2.04h3.36V16.6h-2.86v1.92h2.86v1.72c-2.38.28-2.86.3-3.54.34l.24,2.24c3.28-.42,3.78-.5,8.38-1.3l-.06-.62Zm-1.96.04a5.691,5.691,0,0,1-.1,1.02h-8.2v2.2h7.18c-1.5,1.78-5.08,2.5-7.32,2.74l.98,2.4c2.24-.38,6.5-1.4,8.52-4.26a13.653,13.653,0,0,0,8.54,4.24l1.06-2.42a12.9,12.9,0,0,1-7.32-2.7h7.12v-2.2h-8.12a8.8,8.8,0,0,0,.1-1.02Zm11.72.24c.76-.06,1.66-.12,3.06-.26v8.3h2.24V22.28c.24-.02.94-.12,1.22-.16.06.24.1.42.2.82l2.08-.68a18.67,18.67,0,0,0-1.56-4l-1.8.62a9.418,9.418,0,0,1,.54,1.38c-.56.06-1.46.12-2.06.14a37.24,37.24,0,0,0,3.94-5.62l-2.1-.84a30.69,30.69,0,0,1-1.94,3.26,10.9,10.9,0,0,0-.78-.88,23.415,23.415,0,0,0,2.2-3.68l-2.04-.76a27.825,27.825,0,0,1-1.66,3.02c-.16-.1-.24-.18-.52-.38l-1.18,1.94a15.1,15.1,0,0,1,2.64,2.66c-.28.4-.68.94-1.04,1.4-.38.02-.74.02-1.5.02Zm.56.82a20.628,20.628,0,0,1-.74,5.18l1.92.94a28.483,28.483,0,0,0,.76-5.84Zm9.98-11.66a12.51,12.51,0,0,1-3.02,6.02l1.72,1.98a11.973,11.973,0,0,0,2.08-2.98h4.4a100.442,100.442,0,0,1-.44,10.7c-.16.58-.44.64-1,.64h-3.56l.48,2.52h4.4a2.049,2.049,0,0,0,1.86-1.42c.58-1.46.64-5.64.8-14.78h-5.92a17.3,17.3,0,0,0,.7-2.48Zm-4.74,11.84A35.244,35.244,0,0,1-123,28.4l2.1-.34a25.282,25.282,0,0,0-.82-4.62Zm3.62-3.24a22.1,22.1,0,0,1,2.42,4.9l2.2-1.16a17.306,17.306,0,0,0-2.48-4.78Zm16.56-8a15.463,15.463,0,0,1-.28,1.8h-4.46V16.8h3.78a16.623,16.623,0,0,1-4.4,6.72l1.9,1.96a18.091,18.091,0,0,0,2.58-3.44c1.98-2,3.38-2,3.62-2a1.532,1.532,0,0,1,1.46.88c-1.58.8-5.26,2.58-5.26,5.32a3.412,3.412,0,0,0,2.2,3.12c1.16.46,2.68.64,5.6.64,1.48,0,3.3-.06,4-.08V27.34c-1.62.16-3.4.24-5.04.24-2,0-3.92,0-3.92-1.56,0-1.28,1.76-2.14,2.82-2.68a21.127,21.127,0,0,1-.04,2.52h2.62c.02-.64.02-.96.02-1.54,0-.66-.02-1.36-.08-2.02a28.338,28.338,0,0,1,4.78-1.34l-.6-2.64A37.092,37.092,0,0,0-96.8,19.9a3.328,3.328,0,0,0-3.16-2.12,5.561,5.561,0,0,0-2.3.58,9.806,9.806,0,0,0,.66-1.56H-93V14.34h-7.88c.18-.76.24-1.08.32-1.6Zm15.1,10.54a11.554,11.554,0,0,1-1.42,6.08l1.82,1.72a10.939,10.939,0,0,0,1.46-4.7h4.38v1.74c0,.6-.14.6-.76.6h-1.82l.42,2.3h2.28c.7,0,1.8,0,1.8-1.82V16.52h-2a7.4,7.4,0,0,0,1.06-1.44V13.12h-3.6c.14-.34.24-.54.38-.92l-2.38-.28a10.706,10.706,0,0,1-3.08,4.38l.76,2.44c.36-.28.46-.38.7-.58Zm3.32-4.64v1.98h-1.3V18.44Zm0,3.84V24.3h-1.3V22.28Zm2.92-3.84v1.98h-1.32V18.44Zm0,3.84V24.3h-1.32V22.28Zm-4.7-5.76a15.172,15.172,0,0,0,1.04-1.44h2.08a5.337,5.337,0,0,1-1.18,1.44Zm6.8-3.9v2.1h2.14a4.448,4.448,0,0,1-2.24,2.32l1.2,1.9a6.82,6.82,0,0,0,3.42-4.22h2.14c-.02,1.84-.34,1.84-1.02,1.84h-1.72l.5,2h2.26a1.645,1.645,0,0,0,1.84-1.12A22.041,22.041,0,0,0-71,12.62Zm4.14,10.24v1.92h-3.86v2.3h3.92v3.74h2.22V27.08h2.92v-2.3h-2.92V22.86h2.5V20.72h-2.5V19.1H-75.8v1.62h-1.28c.14-.7.2-1.06.26-1.4l-2.02-.34a10.028,10.028,0,0,1-1.2,4.18l1.76,1.26a7.231,7.231,0,0,0,.68-1.56Zm12.68-5.8V30.84h2.46V26.26h6.86v1.7c0,.44-.04.5-.42.5h-2.76l.4,2.38h3.48a1.555,1.555,0,0,0,1.76-1.7V17.06h-4.64v-5.1h-2.46v5.1Zm9.32,2.16v1.52h-6.86V19.22Zm0,3.54v1.5h-6.86v-1.5Zm-15.14-8.88a20.789,20.789,0,0,1,3.36,2.14l1.5-2.12a20.11,20.11,0,0,0-3.48-2Zm-.64,5.5a15.28,15.28,0,0,1,3.24,2.04l1.42-2.18a14.96,14.96,0,0,0-3.44-1.98Zm3.54,2.96a23.838,23.838,0,0,1-3.58,5.94l1.54,2.44a29.5,29.5,0,0,0,4.02-6.96Zm2.44-9.42a19.39,19.39,0,0,1,1.88,3.88l2.38-.78a16.62,16.62,0,0,0-2.02-3.98Zm10.7-.82A15.959,15.959,0,0,1-55,16l2.16.94a15.851,15.851,0,0,0,2.24-4.06Zm6.72.66c0,1.38-.06,6-.06,8.9,0,2.88,0,4.72,1,6.1,1.2,1.64,2.98,2.18,5.18,2.18,4.88,0,7.54-2.86,8.42-7.78l-2.6-.92c-.22,1.42-.88,6.14-5.76,6.14-3.12,0-3.56-1.86-3.56-4.22,0-2.98.2-9.74.22-10.38Zm34.74.68c-2.04.08-11.2.42-12.92.52-1.9.1-3.46.18-4.42.18l.1,2.8c1.26-.12,7.44-.64,8.84-.76-4.76,3.04-5.12,6.36-5.12,7.66a5.452,5.452,0,0,0,3.1,4.76c1.84.9,3.88,1.32,8.26,1.34l.38-2.86c-8.32.28-8.98-2.06-8.98-3.6,0-2.5,2.18-4.6,3.32-5.48a8.511,8.511,0,0,1,5.02-1.92c.62-.02,1.88,0,2.5.02ZM-.6,30.84A20.785,20.785,0,0,0,6.64,20.22,47.117,47.117,0,0,1,6.1,27.9c-.14.46-.48.48-.94.48H2.62l.42,2.46h3.2a2.235,2.235,0,0,0,2.24-2.12c.46-2.24.6-10.74.54-14.12H1.98a22.694,22.694,0,0,0,.62-2.42L.06,11.94A18.448,18.448,0,0,1-1.9,17.58V15.84H-3.5V11.98H-5.86v3.86h-.88a21.454,21.454,0,0,0,.06-2.42l-2.06-.08A20.822,20.822,0,0,1-9.66,20l1.78,1.64a14.981,14.981,0,0,0,.86-3.38h1.16v4.28c-1.54.44-2.88.72-3.8.9L-9.22,26c.8-.2,1.62-.4,3.36-.9v5.74H-3.5V24.32a14.87,14.87,0,0,0,1.76-.74l-.16-2.36c-.56.2-.94.36-1.6.58V18.26h1.14a7.815,7.815,0,0,1-.66.82l1.7,1.86a14.013,14.013,0,0,0,2.44-4.1H2.16A15.239,15.239,0,0,1-3.3,25.08l1.36,1.94a18.486,18.486,0,0,0,6.3-10.18H5.7A20.544,20.544,0,0,1-2.06,28.82ZM22.04,17.88v4H15.7V24.4h6.34v6.44h2.52V24.4h4.82V21.88H24.56v-4H28.9V15.44H24.56V11.96H22.04v3.48h-2.2c.28-1.14.36-1.76.46-2.38l-2.36-.3a18.162,18.162,0,0,1-2.6,7l2.14,1.48a16.865,16.865,0,0,0,1.62-3.36ZM12.28,30.84H14.7V16.9a25.145,25.145,0,0,0,1.28-4.7l-2.52-.26a16.449,16.449,0,0,1-3.28,7.84l.88,3.26a11.222,11.222,0,0,0,1.22-1.44Zm24.34-18.3a15.462,15.462,0,0,1-.28,1.8H31.88V16.8h3.78a16.623,16.623,0,0,1-4.4,6.72l1.9,1.96a18.091,18.091,0,0,0,2.58-3.44c1.98-2,3.38-2,3.62-2a1.532,1.532,0,0,1,1.46.88c-1.58.8-5.26,2.58-5.26,5.32a3.412,3.412,0,0,0,2.2,3.12c1.16.46,2.68.64,5.6.64,1.48,0,3.3-.06,4-.08V27.34c-1.62.16-3.4.24-5.04.24-2,0-3.92,0-3.92-1.56,0-1.28,1.76-2.14,2.82-2.68a21.127,21.127,0,0,1-.04,2.52H43.8c.02-.64.02-.96.02-1.54,0-.66-.02-1.36-.08-2.02a28.338,28.338,0,0,1,4.78-1.34l-.6-2.64A37.092,37.092,0,0,0,43.2,19.9a3.328,3.328,0,0,0-3.16-2.12,5.561,5.561,0,0,0-2.3.58,9.807,9.807,0,0,0,.66-1.56H47V14.34H39.12c.18-.76.24-1.08.32-1.6ZM51.88,30.7a15.923,15.923,0,0,0,6.28-2.34l-1.4-1.14h6.42l-1.24,1.06a14.861,14.861,0,0,0,6.22,2.4L69.4,28.5a15.144,15.144,0,0,1-4.86-1.28h3.24V18.16H52.22v9.06h3.56a15.832,15.832,0,0,1-5.16,1.3Zm2.86-8.6H65.26v1.04H54.74Zm0-2.32H65.26v.98H54.74Zm0,4.7H65.26V25.5H54.74Zm-3.44-7.2H68.7V12.36H51.3Zm7.36-3.18h2.66v1.56H58.66Zm-4.96,0h2.74v1.56H53.7Zm9.86,0h2.7v1.56h-2.7Zm8.08-.46c-.08,1.04-.3,3.3-.3,5.8,0,2.38.18,10.18,4.56,10.18,3.16,0,4.74-4.24,5.26-5.68l-2.22-1.22a13.889,13.889,0,0,1-1.32,2.78c-.4.62-.82,1.12-1.48,1.12-1.88,0-2.12-5.14-2.12-7.3a33.374,33.374,0,0,1,.48-5.44ZM88.96,27.52c.02-4.12-.08-9.54-4.28-13.5l-2.14,1.5c3.3,3.42,3.48,7.36,3.48,12.16Zm20.56,1.04a10.765,10.765,0,0,1-5.98-3.66h5.8V22.8h-7.18a10.386,10.386,0,0,0,.16-1.48h5.88V15.84H92.1v7.02a10.146,10.146,0,0,1-1.94,6.34l2.08,1.72A13.3,13.3,0,0,0,94.4,24.9h4.68c-1.28,2.52-4.26,3.48-5.4,3.86l1.5,2.14c1.06-.42,4.62-1.86,6.18-5.3a11.291,11.291,0,0,0,6.74,5.26Zm-9.6-7.24a8.1,8.1,0,0,1-.18,1.48h-5.2V21.32Zm5.82-1.84H94.54V17.7h11.2ZM90.66,12.6v2.18h18.68V12.6Zm23.16.16c0,1.38-.06,6-.06,8.9,0,2.88,0,4.72,1,6.1,1.2,1.64,2.98,2.18,5.18,2.18,4.88,0,7.54-2.86,8.42-7.78l-2.6-.92c-.22,1.42-.88,6.14-5.76,6.14-3.12,0-3.56-1.86-3.56-4.22,0-2.98.2-9.74.22-10.38Zm34.74.68c-2.04.08-11.2.42-12.92.52-1.9.1-3.46.18-4.42.18l.1,2.8c1.26-.12,7.44-.64,8.84-.76-4.76,3.04-5.12,6.36-5.12,7.66a5.452,5.452,0,0,0,3.1,4.76c1.84.9,3.88,1.32,8.26,1.34l.38-2.86c-8.32.28-8.98-2.06-8.98-3.6,0-2.5,2.18-4.6,3.32-5.48a8.511,8.511,0,0,1,5.02-1.92c.62-.02,1.88,0,2.5.02Zm-273.32,30.8h-3.44V46.7h3.34l-.12,3.04h-3.52v2.44h3.44c0,4.9.78,6.84,6.4,6.84,3.3,0,7.08-.5,7.08-5.36a10.413,10.413,0,0,0-1.28-5.04l-2.46.72a9.324,9.324,0,0,1,1,4.04c0,2.76-1.7,3.08-4.24,3.08-3.76,0-3.8-.7-3.8-4.28h.46c3.6,0,4.82-.32,5.82-.94l-.86-2.28c-.8.46-1.94.78-4.7.78h-.64l.16-3.04h6.08V44.24h-5.94l.14-2.5h-2.82Zm30.28-1.48a37.539,37.539,0,0,0-8.92-1.24l-.42,2.46a35.407,35.407,0,0,1,8.76,1.46Zm-11.76,1.98a5.708,5.708,0,0,0-.4,1.68c-.12,1.22-.2,5.26-.2,6.62l2.62.04a5.239,5.239,0,0,0,.02-.56,8.983,8.983,0,0,1,6.08-2.36c1.28,0,3.24.52,3.24,2.6,0,3.8-5.14,3.8-6.98,3.8a31.036,31.036,0,0,1-4.96-.42l.2,2.54a29.55,29.55,0,0,0,4.5.28c4,0,5.68-.46,6.98-1.16a5.316,5.316,0,0,0,3-5c0-2.78-1.9-5.02-5.42-5.02a12.256,12.256,0,0,0-6.6,1.92c.04-2.84.18-3.7.5-4.58Zm31.34-2.16a44.012,44.012,0,0,0-9.86-1.06l-.26,2.28a40,40,0,0,1,9.68,1.24Zm-12.44,3.5v2.54l7.96-.26c-.96.84-1.92,1.66-4.46,3.98-1.26,1.14-4.48,4.08-4.88,4.42l1.78,2.18c.34-.38,3.74-3.96,4.8-4.88a3.233,3.233,0,0,1,1.88-.66c1,0,1,.8,1,1.42v.8a3.61,3.61,0,0,0,.54,2.16c.68.86,1.68,1.22,4.84,1.22a23.738,23.738,0,0,0,2.4-.12l-.04-2.6c-.66.06-1.8.18-2.76.18-2.38,0-2.46-.32-2.46-1.72V54c0-1.62-.5-2.68-1.94-2.68a2.434,2.434,0,0,0-.86.16c1.36-1.14,3.5-2.9,4.12-3.34V46.02ZM-67,42v2.54l7.54-.12c-2.98,2.74-5.98,5.5-9,8.16l1.5,2.32c.74-.78,2.76-2.76,3.44-3.4a8.627,8.627,0,0,1,5.12-1.76c.66,0,3.72,0,3.72,3.38a3.34,3.34,0,0,1-2.76,3.36c.02-.28.04-.4.04-.56a3.549,3.549,0,0,0-3.7-3.62c-1.8,0-3.74,1.12-3.74,3.12a3.273,3.273,0,0,0,1.62,2.74,6.586,6.586,0,0,0,3.72.88c5.28,0,7.6-2.88,7.6-6.14a5.223,5.223,0,0,0-5.52-5.46,6,6,0,0,0-2.22.36c.58-.48.92-.76,4.1-3.64V42Zm7.4,14.8c-2.58.2-3.02-.72-3.02-1.28,0-.64.54-1.12,1.4-1.12a1.7,1.7,0,0,1,1.7,1.86A1.859,1.859,0,0,1-59.6,56.8Zm24.04-.2c0,.32-.12.64-.54.64h-3.78l.5,2.56h4.3c1.3,0,2.06-.54,2.06-1.84V44.04h2.38V41.58H-49.36v2.46h13.8ZM-47.82,45.74V55.96h2.42V54.82h7.32V45.74Zm7.3,2.24v4.58H-45.4V47.98ZM-28.66,59.8h2.32V55.84h3.3v1.32a.357.357,0,0,1-.38.38h-1.82l.4,2.26h2.64a1.518,1.518,0,0,0,1.46-1.62V47.5h-7.92Zm5.62-10.32v1.4h-3.3v-1.4Zm0,3.1v1.48h-3.3V52.58Zm3.9-11.62v7.2a1.664,1.664,0,0,0,1.88,1.64h4.5c1.58,0,2.08-1.16,2.18-3.84l-2.34-.64c-.04,2.26-.36,2.26-.84,2.26H-16.1c-.26,0-.52-.06-.52-.48V45.46a23.072,23.072,0,0,0,5.74-2.2l-1.36-1.82a20.918,20.918,0,0,1-4.38,2V40.96Zm.06,16.96a1.557,1.557,0,0,0,1.68,1.72h4.36c1.88,0,2.18-1.06,2.46-4.24l-2.36-.62c-.16,2.46-.26,2.62-.86,2.62h-2.26c-.46,0-.56-.32-.56-.6V54.78A25.471,25.471,0,0,0-11,52.46l-1.46-1.86a17.657,17.657,0,0,1-4.16,2.1V50.36h-2.46Zm-.44-11.8a20.744,20.744,0,0,0-2.56-4.46l-1.96.9c.28.44.56.84.98,1.62-.48.04-2.58.24-2.9.26a22.227,22.227,0,0,0,1.46-3.22l-2.46-.26a21.806,21.806,0,0,1-1.32,3.54h-1.26l.2,2.16c2.32-.1,4.86-.38,7.16-.7a12.24,12.24,0,0,1,.46,1.14Zm18.14,6.9h3.8v3.76H-3.34V59.1H9.46V56.78H4.92V53.02H8.64V50.74H4.92V47.38h4.2V45.06H4.92v-4.1H2.42v4.1H.88a18.814,18.814,0,0,0,.46-2.94l-2.38-.38A17.476,17.476,0,0,1-2,46.64,16.849,16.849,0,0,0-3.2,44l-1.28.78V40.96H-6.9V59.84h2.42V45.34a15.967,15.967,0,0,1,.98,2.7l1.28-.8a11.685,11.685,0,0,1-1.18,2.1l1.98,1.54.04-.08Zm.04-2.28A14.362,14.362,0,0,0,.2,47.38H2.42v3.36Zm-7.72-5.96a23.6,23.6,0,0,1-.66,5.58l1.64,1c.3-1.08.58-2.44.62-6.56Zm26.48.36c.06-.5.36-2.9.42-3.44l-2.76-.2c-.08,1.08-.16,2.02-.36,3.64H11.38V47.7l2.96-.04a32,32,0,0,1-3.18,10.08l2.54,1.08a44.041,44.041,0,0,0,3.32-11.18l1.9-.02c1.24-.02,2.36.16,2.36,2.64a18.422,18.422,0,0,1-.76,5.28c-.3.68-.94.92-1.84.92a20.423,20.423,0,0,1-2.6-.26l.16,2.58a25.132,25.132,0,0,0,2.96.2,3.775,3.775,0,0,0,3.2-1.3c.98-1.2,1.48-4.44,1.48-6.66,0-2.7-.46-5.88-4.34-5.88Zm11.72,7.8c-.14-4.38-.88-5.86-1.92-7.38l-2.4.96c1.18,2.32,1.42,3.62,1.42,6.78ZM26.52,44.5a12.329,12.329,0,0,0-1.28-3.12l-1.64.5a14.183,14.183,0,0,1,1.2,3.22Zm2.98-.44a11.887,11.887,0,0,0-1.32-3.12l-1.62.5a14.593,14.593,0,0,1,1.3,3.14Zm6.54-.68H31.82v2.48h4.22a6.029,6.029,0,0,0-.02.64c0,.46,0,1.14.04,1.54-4.64,1.86-4.72,5.4-4.72,6.14a3.517,3.517,0,0,0,3.64,3.84c2.96,0,6.68-3.02,8.22-8.3,2.76.86,2.76,2.86,2.76,3.24,0,.7-.22,2.6-2.88,3.34a12.645,12.645,0,0,1-3.48.38l.8,2.38c3.4-.02,8.18-1.1,8.18-5.98,0-3.5-2.8-5.88-7.78-5.88a11.291,11.291,0,0,0-2.2.18c0-.14,0-.98.02-1.52h9.2V43.38H38.7l.04-1.68-2.68-.02Zm3.02,9.7a27.44,27.44,0,0,1-.4-3.6,7.478,7.478,0,0,1,1.5-.14c.28,0,.48.02.74.02A9.657,9.657,0,0,1,39.06,53.08Zm-2.02,1.98a2.831,2.831,0,0,1-1.74.66c-1.56,0-1.56-1.52-1.56-1.82a4.12,4.12,0,0,1,2.5-3.56A21.55,21.55,0,0,0,37.04,55.06ZM54.3,41.54a45.862,45.862,0,0,0-.76,9.14,32.216,32.216,0,0,0,.16,3.44l2.62-.2a15.046,15.046,0,0,1-.2-2.5c0-2.56,2.6-5.54,4.96-5.54,2.84,0,2.84,3.92,2.84,4.68,0,5.38-3.76,6-9.24,6.06l.58,2.52c6.88,0,11.44-1.86,11.44-8.44,0-4.9-2.36-7.28-5.38-7.28a6.139,6.139,0,0,0-4.88,2.54,16.318,16.318,0,0,1,.7-4.16Zm17.52,1.9v2.38h7.3V47.6H72.2v2.32h6.92v1.72a6.1,6.1,0,0,0-1.6-.16c-2.64,0-5.16,1.18-5.16,3.82,0,1.64,1.12,3.7,5,3.7,4.42,0,4.42-2.62,4.42-3.52V55.1a28.282,28.282,0,0,1,4.06,3.24l1.74-2.32a22.01,22.01,0,0,0-5.8-3.68V49.92h5.84V47.6H81.78V45.82h6.24V43.44H81.78V41.7H79.12v1.74Zm7.34,11.54c0,.82-.14,1.68-2,1.68-.92,0-2.3-.22-2.3-1.42,0-1.24,1.46-1.58,2.48-1.58a5.26,5.26,0,0,1,1.82.34Zm21.42-11.34H91.22V46.1h9.42l.02,1.34a3.822,3.822,0,0,0-1.74-.4,4.095,4.095,0,1,0-.16,8.18,2.871,2.871,0,0,0,2.02-.62c-.5,1.48-1.76,2.22-6.42,2.3l.84,2.42a21.233,21.233,0,0,0,3.7-.46,5.938,5.938,0,0,0,4.76-6.24,7.456,7.456,0,0,0-.24-1.88c-.02-.08-.14-.44-.14-.5V46.1h5.52V43.64h-5.52V41.62h-2.74Zm.18,7.7a1.718,1.718,0,0,1-1.8,1.74,1.83,1.83,0,0,1-1.94-1.92A1.9,1.9,0,0,1,99,49.22a1.622,1.622,0,0,1,1.76,1.66Zm17.8-9.1.36,11.22h2.16l.36-11.22Zm.06,12.94V58h2.76V55.18Z" transform="translate(164.77 18.84)"/>
    </g>
  </g>
</svg>
