<svg xmlns="http://www.w3.org/2000/svg" xmlns:xlink="http://www.w3.org/1999/xlink" width="477.776" height="93.536" viewBox="0 0 477.776 93.536">
  <defs>
    <filter id="パス_2810" x="0" y="0" width="477.776" height="93.536" filterUnits="userSpaceOnUse">
      <feOffset dy="3" input="SourceAlpha"/>
      <feGaussianBlur stdDeviation="3" result="blur"/>
      <feFlood flood-opacity="0.161"/>
      <feComposite operator="in" in2="blur"/>
      <feComposite in="SourceGraphic"/>
    </filter>
  </defs>
  <g id="グループ_269" data-name="グループ 269" transform="translate(-391.768 -3516.504)">
    <rect id="長方形_169" data-name="長方形 169" width="228" height="11" transform="translate(396 3589)" fill="#f29600"/>
    <g transform="matrix(1, 0, 0, 1, 391.77, 3516.5)" filter="url(#パス_2810)">
      <path id="パス_2810-2" data-name="パス 2810" d="M-117.824-24.832c-3.36.032-16.864.128-19.232.128-.672,0-1.5-.032-1.984-.064l-.032,4.256c.64-.032,9.792-.288,10.688-.256a19.036,19.036,0,0,0-3.232,1.76l2.912,2.528a26.694,26.694,0,0,1,10.88-4.352Zm-18.816,10.3c-1.888,2.048-3.68,4.48-3.68,7.872C-140.32.8-130.944.8-124.256.8a58.155,58.155,0,0,0,8.128-.352l-.1-4.32a78.524,78.524,0,0,1-9.632.544c-6.592,0-10.176-.448-10.176-3.968,0-2.144,1.184-3.616,2.464-4.992Zm40.576,16C-87.68.9-81.728-2.656-81.728-12.128c0-8.032-5.12-12.8-13.408-12.8-9.024,0-15.1,5.984-15.1,14.368,0,4.64,2.176,9.472,6.5,9.472,3.68,0,5.728-3.36,6.272-4.288,2.656-4.48,3.264-11.744,3.584-15.584,6.24.48,7.552,4.992,7.552,8.608,0,7.84-5.344,9.472-11.072,9.728Zm-2.08-22.24c-.736,9.984-2.976,15.328-5.344,15.328-.768,0-2.56-.736-2.56-4.768C-106.048-14.528-104.224-19.392-98.144-20.768Zm47.04-.32H-61.632v-4.8h-4.416l.032,14.848a12.862,12.862,0,0,0-1.856-.128c-5.376,0-9.184,2.688-9.184,6.656,0,1.792,1.056,6.272,8,6.272,7.072,0,7.328-4.192,7.328-6.176v-1.44A37.888,37.888,0,0,1-52.7.352l2.944-3.808a36.212,36.212,0,0,0-11.872-6.752v-6.656H-51.1Zm-14.848,16c0,1.5-.192,3.008-3.36,3.008-3.456,0-3.648-2.048-3.648-2.56,0-1.824,1.856-2.816,4.576-2.816a6.27,6.27,0,0,1,2.432.352ZM-23.584-24.16a70.6,70.6,0,0,0-15.3-2.3l-.864,3.872c3.2.192,10.24.9,15.2,2.624Zm-15.392,26.3A36.973,36.973,0,0,0-28.768.608c4.16-1.376,7.712-4.1,7.712-10.816,0-8.16-6.3-8.16-8.1-8.16-2.4,0-6.592.512-8.288.7-3.04.352-4.224.48-5.856.576l.672,4.416c1.248-.16,2.656-.416,4.9-.832a69.615,69.615,0,0,1,7.9-.992c2.272,0,4.224.544,4.224,4.32,0,6.464-5.152,8.192-14.432,8.32ZM-8.064-26.368c-.192,1.408-.32,2.56-.544,3.872h-5.408v4h4.672A57.354,57.354,0,0,1-14.336-3.168l4.32,1.472A112.873,112.873,0,0,0-4.992-18.5H1.952v-4H-4.16c.224-1.12.352-2.08.576-3.584Zm22.016,3.392c-6.08.1-7.872.352-10.208.9l.32,11.552a18.864,18.864,0,0,0-2.3-.16c-5.92,0-8.128,3.264-8.128,6.336,0,2.72,1.824,6.08,7.648,6.08,5.7,0,6.944-3.776,6.944-5.6v-.576a25.134,25.134,0,0,1,4.064,3.52L14.72-4.992A28.228,28.228,0,0,0,8.288-9.216L8-18.368a17.937,17.937,0,0,1,3.328-.224,22.728,22.728,0,0,1,2.656.128ZM4.192-4.864c0,2.272-1.664,2.816-3.3,2.816C-.448-2.048-2.5-2.56-2.5-4.416c0-2.048,2.176-2.752,4.032-2.752a7.094,7.094,0,0,1,2.656.512ZM28-20.672a32.162,32.162,0,0,0,1.472-5.376L24.9-26.5c-.32,1.952-1.44,9.216-7.264,13.376L20.9-10.24a20.712,20.712,0,0,0,5.312-6.432h7.584c-.608,6.016-1.6,12.576-13.184,14.688l2.08,3.712C34.176-.96,37.408-6.784,38.3-16.672h7.68v-4Zm21.824,6.24v4.544H78.176v-4.544ZM84.16,1.7A34.462,34.462,0,0,0,96.928-7.9a93.448,93.448,0,0,1,9.6,9.568l3.616-3.552a111.61,111.61,0,0,0-10.656-9.248,32.768,32.768,0,0,0,5.888-13.28H83.488v4.1h16.16A32.365,32.365,0,0,1,81.632-1.856Zm31.68-27.648a76.907,76.907,0,0,0-1.12,13.536,87.146,87.146,0,0,0,.96,13.824L119.968.9a67.753,67.753,0,0,1-1.088-13.024,61.776,61.776,0,0,1,1.312-13.408Zm6.24,5.248v4h9.248l.128,6.432a10.48,10.48,0,0,0-2.56-.256c-4.768,0-7.328,2.976-7.328,6.08,0,1.7.96,5.856,7.392,5.856,6.368,0,6.464-4.032,6.5-5.792A25.476,25.476,0,0,1,139.424-.7l2.72-3.68a26.281,26.281,0,0,0-6.528-4.608l-.1-7.712h5.728v-4h-5.792v-5.184h-4.192V-20.7Zm9.44,15.648c0,1.28-.032,2.912-2.72,2.912-3.04,0-3.392-1.664-3.392-2.336,0-1.376,1.312-2.528,3.584-2.528a5.942,5.942,0,0,1,2.528.544ZM-222.592,35.6c4.192-3.84,5.28-7.84,5.7-12.32h3.424c-.032,5.5-.64,7.392-.736,7.616a1.4,1.4,0,0,1-1.472.928h-3.168l.7,3.584h4.384c2.336,0,4.064-.9,4.064-15.712h-14.336V23.28h3.52c-.48,4.8-2.016,7.264-4.8,9.6l-.192-2.016c-.7.128-1.056.16-4.1.608v-2.24h3.9V26.16h-3.9V23.984h4.608V20.72H-229.6V18.7h-3.744V20.72h-5.376v3.264h5.376V26.16h-4.576v3.072h4.576v2.752c-3.808.448-4.576.48-5.664.544l.384,3.584c5.248-.672,6.048-.8,13.408-2.08l-.1-.992Zm-3.136.064a9.1,9.1,0,0,1-.16,1.632h-13.12v3.52h11.488c-2.4,2.848-8.128,4-11.712,4.384l1.568,3.84c3.584-.608,10.4-2.24,13.632-6.816,2.336,2.72,6.944,5.888,13.664,6.784l1.7-3.872c-4.928-.48-8.064-1.568-11.712-4.32h11.392V37.3h-12.992a14.085,14.085,0,0,0,.16-1.632Zm18.752.384c1.216-.1,2.656-.192,4.9-.416v13.28h3.584V35.248c.384-.032,1.5-.192,1.952-.256.1.384.16.672.32,1.312l3.328-1.088a29.872,29.872,0,0,0-2.5-6.4l-2.88.992a15.065,15.065,0,0,1,.864,2.208c-.9.1-2.336.192-3.3.224a59.584,59.584,0,0,0,6.3-8.992l-3.36-1.344a49.106,49.106,0,0,1-3.1,5.216,17.447,17.447,0,0,0-1.248-1.408,37.464,37.464,0,0,0,3.52-5.888l-3.264-1.216a44.52,44.52,0,0,1-2.656,4.832c-.256-.16-.384-.288-.832-.608l-1.888,3.1a24.161,24.161,0,0,1,4.224,4.256c-.448.64-1.088,1.5-1.664,2.24-.608.032-1.184.032-2.4.032Zm.9,1.312a33,33,0,0,1-1.184,8.288l3.072,1.5a45.573,45.573,0,0,0,1.216-9.344ZM-190.112,18.7a20.016,20.016,0,0,1-4.832,9.632l2.752,3.168a19.158,19.158,0,0,0,3.328-4.768h7.04a160.708,160.708,0,0,1-.7,17.12c-.256.928-.7,1.024-1.6,1.024h-5.7l.768,4.032h7.04a3.278,3.278,0,0,0,2.976-2.272c.928-2.336,1.024-9.024,1.28-23.648h-9.472a27.68,27.68,0,0,0,1.12-3.968ZM-197.7,37.648a56.389,56.389,0,0,1,.9,7.392l3.36-.544a40.452,40.452,0,0,0-1.312-7.392Zm5.792-5.184a35.355,35.355,0,0,1,3.872,7.84l3.52-1.856A27.69,27.69,0,0,0-188.48,30.8Zm18.656,4.064c0,1.6,0,6.208-2.272,9.728l2.912,2.752a17.5,17.5,0,0,0,2.336-7.52h7.008v2.784c0,.96-.224.96-1.216.96h-2.912l.672,3.68h3.648c1.12,0,2.88,0,2.88-2.912V26.032h-3.2a11.847,11.847,0,0,0,1.7-2.3V20.592h-5.76c.224-.544.384-.864.608-1.472l-3.808-.448a17.13,17.13,0,0,1-4.928,7.008l1.216,3.9c.576-.448.736-.608,1.12-.928Zm5.312-7.424v3.168h-2.08V29.1Zm0,6.144V38.48h-2.08V35.248Zm4.672-6.144v3.168h-2.112V29.1Zm0,6.144V38.48h-2.112V35.248Zm-7.52-9.216a24.274,24.274,0,0,0,1.664-2.3h3.328a8.539,8.539,0,0,1-1.888,2.3Zm10.88-6.24v3.36h3.424a7.117,7.117,0,0,1-3.584,3.712l1.92,3.04a10.911,10.911,0,0,0,5.472-6.752h3.424c-.032,2.944-.544,2.944-1.632,2.944h-2.752l.8,3.2h3.616a2.631,2.631,0,0,0,2.944-1.792,35.265,35.265,0,0,0,.672-7.712Zm6.624,16.384v3.072h-6.176v3.68h6.272v5.984h3.552V42.928h4.672v-3.68h-4.672V36.176h4V32.752h-4V30.16h-3.648v2.592h-2.048c.224-1.12.32-1.7.416-2.24l-3.232-.544c-.544,3.9-1.088,5.248-1.92,6.688l2.816,2.016a11.57,11.57,0,0,0,1.088-2.5Zm20.288-9.28V48.944h3.936V41.616h10.976v2.72c0,.7-.064.8-.672.8h-4.416l.64,3.808h5.568a2.489,2.489,0,0,0,2.816-2.72V26.9h-7.424v-8.16H-125.5V26.9Zm14.912,3.456v2.432h-10.976V30.352Zm0,5.664v2.4h-10.976v-2.4ZM-142.3,21.808a33.263,33.263,0,0,1,5.376,3.424l2.4-3.392a32.177,32.177,0,0,0-5.568-3.2Zm-1.024,8.8a24.448,24.448,0,0,1,5.184,3.264l2.272-3.488a23.936,23.936,0,0,0-5.5-3.168Zm5.664,4.736a38.141,38.141,0,0,1-5.728,9.5l2.464,3.9A47.2,47.2,0,0,0-134.5,37.616Zm3.9-15.072a31.025,31.025,0,0,1,3.008,6.208l3.808-1.248a26.593,26.593,0,0,0-3.232-6.368Zm17.12-1.312A25.534,25.534,0,0,1-120,25.2l3.456,1.5a25.361,25.361,0,0,0,3.584-6.5Zm30.56,14.656a25.037,25.037,0,0,0-2.944-4.672l-2.5,1.312a37.4,37.4,0,0,1,2.88,4.8Zm4.192-2.208a23.2,23.2,0,0,0-2.912-4.32L-87.328,28.4a30.459,30.459,0,0,1,2.944,4.544ZM-82.3,21.1c-3.264.128-17.92.672-20.672.832-2.368.128-4.928.288-7.072.288l.16,4.48c2.016-.192,11.9-1.024,14.144-1.216-7.616,4.864-8.192,10.176-8.192,12.256a8.724,8.724,0,0,0,4.96,7.616c2.944,1.44,6.208,2.112,13.216,2.144l.608-4.576c-13.312.448-14.368-3.3-14.368-5.76,0-4,3.488-7.36,5.312-8.768a13.654,13.654,0,0,1,8.032-3.072c1.184-.032,3.264.032,4,.032ZM-65.92,19.92c.064,1.088.16,2.3.352,3.712H-76.384V27.28H-64.96c.128.736.384,1.76.768,3.136-.384,0-.576.032-.992.032H-77.5v3.584H-63.04a18.451,18.451,0,0,0,3.392,6.336l3.84-2.048a16.27,16.27,0,0,1-2.816-4.512A48.025,48.025,0,0,0-50.4,32.656l-.672-3.648a40.542,40.542,0,0,1-8.9,1.248c-.352-1.216-.608-2.208-.8-3.2A42.8,42.8,0,0,0-52.576,25.9l-.96-3.616a40.175,40.175,0,0,1-7.808,1.184c-.16-1.344-.192-2.3-.256-3.648Zm-5.536,15.616c-1.056.9-3.52,2.88-3.52,6.016,0,2.464,1.92,4.256,4.064,4.992,1.7.576,4.256,1.12,10.976,1.12,2.528,0,4.448-.128,6.208-.288V43.312a51.725,51.725,0,0,1-7.712.416,48.435,48.435,0,0,1-5.632-.224c-1.44-.192-3.68-.448-3.68-2.464,0-1.5,1.5-2.72,2.24-3.3ZM-43.2,20.4v4.064l12.064-.192c-4.768,4.384-9.568,8.8-14.4,13.056l2.4,3.712c1.184-1.248,4.416-4.416,5.5-5.44a13.8,13.8,0,0,1,8.192-2.816c1.056,0,5.952,0,5.952,5.408,0,2.848-1.632,4.544-4.416,5.376.032-.448.064-.64.064-.9a5.679,5.679,0,0,0-5.92-5.792c-2.88,0-5.984,1.792-5.984,4.992a5.237,5.237,0,0,0,2.592,4.384A10.538,10.538,0,0,0-31.2,47.664c8.448,0,12.16-4.608,12.16-9.824,0-4.128-2.592-8.736-8.832-8.736a9.6,9.6,0,0,0-3.552.576c.928-.768,1.472-1.216,6.56-5.824V20.4Zm11.84,23.68c-4.128.32-4.832-1.152-4.832-2.048,0-1.024.864-1.792,2.24-1.792a2.723,2.723,0,0,1,2.72,2.976A2.974,2.974,0,0,1-31.36,44.08ZM-7.9,19.632c-.064,1.376-.224,3.072-.544,5.792h-5.344v4.1l4.736-.064a49.034,49.034,0,0,1-5.216,15.968l4.16,1.92c.864-1.568,3.008-5.6,5.28-17.92l3.136-.032c1.984-.032,3.744.256,3.744,4.224,0,1.088-.224,6.208-1.216,8.448-.512,1.12-1.5,1.472-2.944,1.472a29.076,29.076,0,0,1-4.16-.416l.256,4.128a43.564,43.564,0,0,0,4.736.32c2.336,0,3.936-.608,5.12-2.08,1.568-1.92,2.368-7.1,2.368-10.656,0-4.32-.736-9.408-6.944-9.408H-4.16c.32-1.856.48-3.456.7-5.536ZM14.816,37.1c-.7-8.256-3.072-11.84-5.28-14.592L5.888,24.4c1.568,2.016,3.936,5.376,4.416,13.44Zm9.568-13.12h-5.5V27.92h5.344l-.192,4.864H18.4v3.9h5.5c0,7.84,1.248,10.944,10.24,10.944,5.28,0,11.328-.8,11.328-8.576a16.66,16.66,0,0,0-2.048-8.064l-3.936,1.152a14.918,14.918,0,0,1,1.6,6.464c0,4.416-2.72,4.928-6.784,4.928-6.016,0-6.08-1.12-6.08-6.848h.736c5.76,0,7.712-.512,9.312-1.5L36.9,31.536c-1.28.736-3.1,1.248-7.52,1.248H28.352l.256-4.864h9.728V23.984h-9.5l.224-4H24.544Zm29.728-3.968c0,2.208-.1,9.6-.1,14.24,0,4.608,0,7.552,1.6,9.76C57.536,46.64,60.384,47.5,63.9,47.5c7.808,0,12.064-4.576,13.472-12.448l-4.16-1.472c-.352,2.272-1.408,9.824-9.216,9.824-4.992,0-5.7-2.976-5.7-6.752,0-4.768.32-15.584.352-16.608Zm33.664-.032c0,.1-.032,4.288-.032,4.7H82.432v4h5.28v2.3a34.933,34.933,0,0,1-6.272,7.9l2.336,4.1a23.38,23.38,0,0,0,3.9-4.9c-.032,1.344-.1,7.936-.1,9.44H91.9c-.064-1.632-.16-5.056-.16-9.152,0-2.432.032-3.744.1-6.56,3.36-4.256,6.624-5.6,8.288-5.6,1.888,0,2.016,1.76,1.952,3.744l-.32,8.288c-.256,6.976,2.752,7.776,8.064,8.192l.928-4.224c-4.7.1-4.64-1.7-4.576-4.352l.256-8.512c.064-2.3-.128-3.872-.736-4.9a5.249,5.249,0,0,0-4.576-2.432c-3.968,0-7.36,2.624-9.184,4.384.032-2.144.128-5.664.16-6.432Zm27.136,2.72v3.808h11.68V29.36H115.52v3.712h11.072v2.752a9.757,9.757,0,0,0-2.56-.256c-4.224,0-8.256,1.888-8.256,6.112,0,2.624,1.792,5.92,8,5.92,7.072,0,7.072-4.192,7.072-5.632V41.36a45.251,45.251,0,0,1,6.5,5.184l2.784-3.712a35.217,35.217,0,0,0-9.28-5.888V33.072h9.344V29.36h-9.344V26.512h9.984V22.7h-9.984V19.92h-4.256V22.7Zm11.744,18.464c0,1.312-.224,2.688-3.2,2.688-1.472,0-3.68-.352-3.68-2.272,0-1.984,2.336-2.528,3.968-2.528a8.416,8.416,0,0,1,2.912.544Zm38.176-21.344c.064,1.12.192,5.248.224,6.24l-10.112.224.064-5.984h-4.256v6.112l-4.9.1.128,3.9,4.768-.1v7.552a16.818,16.818,0,0,0,.64,5.472c1.536,3.392,5.056,3.968,12.384,3.968,5.28,0,6.816-.128,7.872-.224V42.96a65.622,65.622,0,0,1-8.832.384c-7.808,0-8-.288-7.968-5.632l.064-7.488L165.184,30a28.779,28.779,0,0,1-.288,4.768c-.224,1.216-.448,1.792-1.7,1.792a28.4,28.4,0,0,1-3.936-.416l.224,3.84a25.786,25.786,0,0,0,4.064.352c5.44,0,5.6-3.36,5.76-10.432l4.864-.128-.064-3.9-4.8.1a53.815,53.815,0,0,0-.288-6.208Zm21.056,0c-.448,1.472-1.088,3.456-2.112,6.72-1.824,5.76-2.272,7.168-6.176,19.9l4.416,1.344c.288-1.152,1.632-6.56,1.728-7.008.544-1.44,2.112-5.6,5.568-5.6,2.08,0,2.08,1.472,2.08,3.9V40.4c0,4.128,1.7,7.1,6.3,7.1,5.632,0,8.064-4.288,8.864-12.768l-4.128-1.184c-.64,7.744-2.24,9.76-4.448,9.76-2.336,0-2.336-2.5-2.336-3.3v-1.7c0-2.272,0-7.232-5.312-7.232a6.229,6.229,0,0,0-3.744,1.216c.288-.928,3.36-9.536,4.128-11.648Zm29.536,17.7a5.1,5.1,0,0,0,0,10.208,5.1,5.1,0,1,0,0-10.208Zm0,1.92a3.168,3.168,0,1,1-3.168,3.168A3.175,3.175,0,0,1,215.424,39.44Z" transform="translate(248.23 32.5)"/>
    </g>
  </g>
</svg>
