<svg xmlns="http://www.w3.org/2000/svg" xmlns:xlink="http://www.w3.org/1999/xlink" width="423.056" height="48.208" viewBox="0 0 423.056 48.208">
  <defs>
    <filter id="パス_2786" x="0" y="0" width="423.056" height="48.208" filterUnits="userSpaceOnUse">
      <feOffset dy="3" input="SourceAlpha"/>
      <feGaussianBlur stdDeviation="3" result="blur"/>
      <feFlood flood-opacity="0.161"/>
      <feComposite operator="in" in2="blur"/>
      <feComposite in="SourceGraphic"/>
    </filter>
  </defs>
  <g transform="matrix(1, 0, 0, 1, 0, 0)" filter="url(#パス_2786)">
    <path id="パス_2786-2" data-name="パス 2786" d="M26.176-24.832c-3.36.032-16.864.128-19.232.128-.672,0-1.5-.032-1.984-.064l-.032,4.256c.64-.032,9.792-.288,10.688-.256a19.036,19.036,0,0,0-3.232,1.76L15.3-16.48a26.694,26.694,0,0,1,10.88-4.352ZM7.36-14.528c-1.888,2.048-3.68,4.48-3.68,7.872C3.68.8,13.056.8,19.744.8A58.155,58.155,0,0,0,27.872.448l-.1-4.32a78.524,78.524,0,0,1-9.632.544c-6.592,0-10.176-.448-10.176-3.968,0-2.144,1.184-3.616,2.464-4.992ZM41.888-26.176c-.448,1.472-1.088,3.456-2.112,6.72C37.952-13.7,37.5-12.288,33.6.448l4.416,1.344C38.3.64,39.648-4.768,39.744-5.216c.544-1.44,2.112-5.6,5.568-5.6,2.08,0,2.08,1.472,2.08,3.9V-5.6c0,4.128,1.7,7.1,6.3,7.1,5.632,0,8.064-4.288,8.864-12.768l-4.128-1.184c-.64,7.744-2.24,9.76-4.448,9.76-2.336,0-2.336-2.5-2.336-3.3v-1.7c0-2.272,0-7.232-5.312-7.232A6.229,6.229,0,0,0,42.592-13.7c.288-.928,3.36-9.536,4.128-11.648Zm30.048-.192c-.192,1.408-.32,2.56-.544,3.872H65.984v4h4.672A57.353,57.353,0,0,1,65.664-3.168L69.984-1.7a112.873,112.873,0,0,0,5.024-16.8h6.944v-4H75.84c.224-1.12.352-2.08.576-3.584Zm22.016,3.392c-6.08.1-7.872.352-10.208.9l.32,11.552a18.864,18.864,0,0,0-2.3-.16c-5.92,0-8.128,3.264-8.128,6.336,0,2.72,1.824,6.08,7.648,6.08,5.7,0,6.944-3.776,6.944-5.6v-.576a25.134,25.134,0,0,1,4.064,3.52L94.72-4.992a28.228,28.228,0,0,0-6.432-4.224L88-18.368a17.937,17.937,0,0,1,3.328-.224,22.728,22.728,0,0,1,2.656.128ZM84.192-4.864c0,2.272-1.664,2.816-3.3,2.816-1.344,0-3.392-.512-3.392-2.368,0-2.048,2.176-2.752,4.032-2.752a7.094,7.094,0,0,1,2.656.512Zm22.24-17.7H99.04v3.936h7.392v4.288c-7.616,2.944-8.1,7.456-8.1,9.088,0,2.336,1.824,6.24,7.072,6.24,5.088,0,5.088-2.976,5.088-4.16v-8.416a16.488,16.488,0,0,1,4.224-.48c1.344,0,6.432,0,6.432,4.736,0,5.28-5.824,5.248-9.568,5.248l.864,3.744c6.528.1,12.992-1.6,12.992-8.736a8.512,8.512,0,0,0-2.784-6.5c-.96-.8-2.944-2.208-7.552-2.208a23.32,23.32,0,0,0-4.608.448v-3.3h6.976V-22.56H110.5v-3.392h-4.064Zm0,18.432c0,.64,0,1.216-1.408,1.216a2.512,2.512,0,0,1-2.688-2.5c0-2.848,2.944-4.448,4.1-5.056Zm10.24-19.808a23.8,23.8,0,0,1,6.464,8.352l3.776-2.112a23.565,23.565,0,0,0-7.072-8.64Zm23.392,7.264a30.954,30.954,0,0,0-1.92-4.544l-1.76.768v-6.784h-3.776V2.912h3.776V-18.88a23.911,23.911,0,0,1,1.12,3.3Zm14.336.832V-1.984H142.464V-15.84H138.72V2.912h3.744V1.5H154.4V2.912h3.712V-15.84ZM145.184-2.88a20.326,20.326,0,0,0,3.84-4.16,22.5,22.5,0,0,1,2.368,3.232l2.624-2.4a25.794,25.794,0,0,0-3.008-3.9,24.114,24.114,0,0,0,2.368-5.6l-3.136-1.472a18.3,18.3,0,0,1-1.792,4.448,31.5,31.5,0,0,0-3.168-2.752l-2.272,2.24a31.389,31.389,0,0,1,3.616,3.456,18.4,18.4,0,0,1-3.9,4.32ZM129.376-20.544c0,1.152-.032,5.44-.96,8l2.4,1.664c.32-.96.96-2.848.992-9.5Zm8.672-4.256a30.039,30.039,0,0,1,3.1,6.528l3.424-1.344a26.313,26.313,0,0,0-3.3-6.5Zm6.784-1.568a26.547,26.547,0,0,1,2.176,6.528l3.648-.96a28.183,28.183,0,0,0-2.3-6.5Zm10.784-.512a32.176,32.176,0,0,1-3.552,8.064l3.3,1.6a32.876,32.876,0,0,0,3.9-8.192Zm27.744,6.368a66.492,66.492,0,0,1-.7,6.688,32.922,32.922,0,0,0-6.08-1.216c.256-1.376.608-4.032.736-5.184.224-2.016.48-4.448.576-5.216H163.68v4.032l9.472-.032c-.192,2.432-.384,4.224-.736,6.272-6.464.256-10.72,4.256-10.72,8.9,0,2.688,1.568,5.952,5.5,5.952,3.584,0,6.624-2.72,8.608-10.88a31.718,31.718,0,0,1,5.952,1.44c-1.024,3.52-2.208,6.432-7.488,8.192L176.8,1.76a14.194,14.194,0,0,0,9.024-9.92c1.44.736,2.3,1.248,3.424,1.92l1.44-4.448a33.609,33.609,0,0,0-3.872-1.76c.64-4.1.864-6.176,1.024-7.68ZM171.68-11.52c-.48,1.984-1.728,7.264-4.48,7.264-.992,0-1.7-.672-1.7-2.048C165.5-7.2,165.984-11.072,171.68-11.52Zm29.984-11.872h-6.752v3.968h6.752a9.647,9.647,0,0,0-.032,1.024c0,.736,0,1.824.064,2.464-7.424,2.976-7.552,8.64-7.552,9.824,0,3.456,2.048,6.144,5.824,6.144,4.736,0,10.688-4.832,13.152-13.28,4.416,1.376,4.416,4.576,4.416,5.184,0,1.12-.352,4.16-4.608,5.344a20.232,20.232,0,0,1-5.568.608L208.64,1.7c5.44-.032,13.088-1.76,13.088-9.568,0-5.6-4.48-9.408-12.448-9.408a18.065,18.065,0,0,0-3.52.288c0-.224,0-1.568.032-2.432h14.72v-3.968H205.92l.064-2.688-4.288-.032ZM206.5-7.872a43.9,43.9,0,0,1-.64-5.76,11.964,11.964,0,0,1,2.4-.224c.448,0,.768.032,1.184.032A15.451,15.451,0,0,1,206.5-7.872ZM203.264-4.7a4.529,4.529,0,0,1-2.784,1.056c-2.5,0-2.5-2.432-2.5-2.912,0-2.432,1.536-4.352,4-5.7A34.481,34.481,0,0,0,203.264-4.7ZM230.88-26.336c-.96,3.552-1.216,10.784-1.216,14.624a51.546,51.546,0,0,0,.256,5.5l4.192-.32a24.073,24.073,0,0,1-.32-4c0-4.1,4.16-8.864,7.936-8.864,4.544,0,4.544,6.272,4.544,7.488,0,8.608-6.016,9.6-14.784,9.7l.928,4.032c11.008,0,18.3-2.976,18.3-13.5,0-7.84-3.776-11.648-8.608-11.648a9.823,9.823,0,0,0-7.808,4.064c.448-4.352.576-4.96,1.12-6.656Zm28.032,3.04v3.808h11.68v2.848H259.52v3.712h11.072v2.752a9.757,9.757,0,0,0-2.56-.256c-4.224,0-8.256,1.888-8.256,6.112,0,2.624,1.792,5.92,8,5.92,7.072,0,7.072-4.192,7.072-5.632V-4.64a45.251,45.251,0,0,1,6.5,5.184l2.784-3.712a35.217,35.217,0,0,0-9.28-5.888v-3.872h9.344V-16.64h-9.344v-2.848h9.984V-23.3h-9.984V-26.08h-4.256V-23.3ZM270.656-4.832c0,1.312-.224,2.688-3.2,2.688-1.472,0-3.68-.352-3.68-2.272,0-1.984,2.336-2.528,3.968-2.528a8.416,8.416,0,0,1,2.912.544Zm38.176-21.344c.064,1.12.192,5.248.224,6.24l-10.112.224.064-5.984h-4.256v6.112l-4.9.1.128,3.9,4.768-.1v7.552a16.818,16.818,0,0,0,.64,5.472c1.536,3.392,5.056,3.968,12.384,3.968,5.28,0,6.816-.128,7.872-.224V-3.04a65.623,65.623,0,0,1-8.832.384c-7.808,0-8-.288-7.968-5.632l.064-7.488L309.184-16a28.78,28.78,0,0,1-.288,4.768c-.224,1.216-.448,1.792-1.7,1.792a28.4,28.4,0,0,1-3.936-.416l.224,3.84a25.786,25.786,0,0,0,4.064.352c5.44,0,5.6-3.36,5.76-10.432l4.864-.128-.064-3.9-4.8.1a53.811,53.811,0,0,0-.288-6.208Zm21.056,0c-.448,1.472-1.088,3.456-2.112,6.72-1.824,5.76-2.272,7.168-6.176,19.9l4.416,1.344c.288-1.152,1.632-6.56,1.728-7.008.544-1.44,2.112-5.6,5.568-5.6,2.08,0,2.08,1.472,2.08,3.9V-5.6c0,4.128,1.7,7.1,6.3,7.1,5.632,0,8.064-4.288,8.864-12.768l-4.128-1.184c-.64,7.744-2.24,9.76-4.448,9.76-2.336,0-2.336-2.5-2.336-3.3v-1.7c0-2.272,0-7.232-5.312-7.232a6.229,6.229,0,0,0-3.744,1.216c.288-.928,3.36-9.536,4.128-11.648Zm30.208-.192c-.064,1.376-.224,3.072-.544,5.792h-5.344v4.1l4.736-.064A49.034,49.034,0,0,1,353.728-.576l4.16,1.92c.864-1.568,3.008-5.6,5.28-17.92l3.136-.032c1.984-.032,3.744.256,3.744,4.224,0,1.088-.224,6.208-1.216,8.448-.512,1.12-1.5,1.472-2.944,1.472a29.077,29.077,0,0,1-4.16-.416l.256,4.128a43.563,43.563,0,0,0,4.736.32c2.336,0,3.936-.608,5.12-2.08,1.568-1.92,2.368-7.1,2.368-10.656,0-4.32-.736-9.408-6.944-9.408H363.84c.32-1.856.48-3.456.7-5.536ZM382.816-8.9c-.7-8.256-3.072-11.84-5.28-14.592L373.888-21.6c1.568,2.016,3.936,5.376,4.416,13.44Zm17.952,1.728c0-2.336,0-2.592,1.376-3.424l3.3-1.952c2.624-1.568,3.3-3.04,3.3-6.528,0-5.856-3.872-6.4-8.608-6.4-8.032,0-8.864,2.432-8.864,8.576h4.128c0-3.552.224-4.736,4.736-4.736,3.424,0,4.48.48,4.48,3.392,0,1.92-.672,2.336-1.984,3.072l-3.744,2.112c-2.208,1.248-2.208,2.5-2.208,5.888ZM400.928,0V-4.512h-4.416V0Z" transform="translate(5.32 33.3)"/>
  </g>
</svg>
