<svg xmlns="http://www.w3.org/2000/svg" xmlns:xlink="http://www.w3.org/1999/xlink" width="899.536" height="87.616" viewBox="0 0 899.536 87.616">
  <defs>
    <filter id="パス_2811" x="0" y="0" width="899.536" height="87.616" filterUnits="userSpaceOnUse">
      <feOffset dy="3" input="SourceAlpha"/>
      <feGaussianBlur stdDeviation="3" result="blur"/>
      <feFlood flood-opacity="0.161"/>
      <feComposite operator="in" in2="blur"/>
      <feComposite in="SourceGraphic"/>
    </filter>
  </defs>
  <g id="グループ_268" data-name="グループ 268" transform="translate(-183.768 -4485.456)">
    <rect id="長方形_185" data-name="長方形 185" width="888" height="11" transform="translate(192 4552)" fill="#f29600"/>
    <g transform="matrix(1, 0, 0, 1, 183.77, 4485.46)" filter="url(#パス_2811)">
      <path id="パス_2811-2" data-name="パス 2811" d="M-232.368-18.624c-2.52.024-12.648.1-14.424.1-.5,0-1.128-.024-1.488-.048l-.024,3.192c.48-.024,7.344-.216,8.016-.192a14.278,14.278,0,0,0-2.424,1.32l2.184,1.9a20.021,20.021,0,0,1,8.16-3.264ZM-246.48-10.9a8.592,8.592,0,0,0-2.76,5.9C-249.24.6-242.208.6-237.192.6a43.616,43.616,0,0,0,6.1-.264l-.072-3.24a58.893,58.893,0,0,1-7.224.408c-4.944,0-7.632-.336-7.632-2.976a5.416,5.416,0,0,1,1.848-3.744Zm30.432,12C-209.76.672-205.3-1.992-205.3-9.1c0-6.024-3.84-9.6-10.056-9.6-6.768,0-11.328,4.488-11.328,10.776,0,3.48,1.632,7.1,4.872,7.1,2.76,0,4.3-2.52,4.7-3.216,1.992-3.36,2.448-8.808,2.688-11.688,4.68.36,5.664,3.744,5.664,6.456,0,5.88-4.008,7.1-8.3,7.3Zm-1.56-16.68c-.552,7.488-2.232,11.5-4.008,11.5-.576,0-1.92-.552-1.92-3.576C-223.536-10.9-222.168-14.544-217.608-15.576Zm22.08,7.56h1.56L-195.7-6.1a12.761,12.761,0,0,1,2.9,2.568l1.92-1.9A11.944,11.944,0,0,0-193.8-8.016h4.248v6.6c0,.7-.264.768-.768.768h-1.272a10.787,10.787,0,0,0,1.1-.672l-.528-2.448A32.419,32.419,0,0,1-197.04-.984l.96,2.592A32.167,32.167,0,0,0-192.312-.24l.456,2.424h3.072c1.632,0,2.088-.984,2.088-2.16V-3a13.709,13.709,0,0,0,5.04,4.632l1.248-2.76A12.371,12.371,0,0,1-186.7-7.344v-.672h6.024v-2.52H-186.7v-1.416h5.064v-2.256H-186.7v-1.3h5.616v-2.448H-183.7a13.581,13.581,0,0,0,.912-2.16l-2.88-.36a12.1,12.1,0,0,1-.84,2.52h-3a13.777,13.777,0,0,0-1.08-2.52l-2.808.336a15.8,15.8,0,0,1,.912,2.184h-2.688V-15.5h5.616v1.3H-194.5v2.256h4.944v1.416h-5.976v1.32a11.085,11.085,0,0,1-2.424-3.456v-.84h2.04V-16.2h-2.04v-4.224h-2.76V-16.2h-2.64v2.688h2.544A15.121,15.121,0,0,1-203.736-6.5l.96,3.984a15.362,15.362,0,0,0,2.064-4.1V2.184h2.76V-8.64a9.166,9.166,0,0,0,1.2,1.776l1.224-1.872Zm12.864.072a11.132,11.132,0,0,1-2.472,2.688l1.968,1.608a12.832,12.832,0,0,0,2.616-2.736Zm8.616-11.832c-.144,1.056-.24,1.92-.408,2.9h-4.056v3h3.5a43.016,43.016,0,0,1-3.744,11.5l3.24,1.1a84.656,84.656,0,0,0,3.768-12.6h5.208v-3h-4.584c.168-.84.264-1.56.432-2.688Zm16.512,2.544c-4.56.072-5.9.264-7.656.672l.24,8.664a14.148,14.148,0,0,0-1.728-.12c-4.44,0-6.1,2.448-6.1,4.752,0,2.04,1.368,4.56,5.736,4.56,4.272,0,5.208-2.832,5.208-4.2v-.432A18.851,18.851,0,0,1-158.784-.7l1.824-3.048a21.171,21.171,0,0,0-4.824-3.168L-162-13.776a13.453,13.453,0,0,1,2.5-.168,17.046,17.046,0,0,1,1.992.1Zm-7.32,13.584c0,1.7-1.248,2.112-2.472,2.112-1.008,0-2.544-.384-2.544-1.776,0-1.536,1.632-2.064,3.024-2.064a5.321,5.321,0,0,1,1.992.384Zm19.3-14.928a19.384,19.384,0,0,1,1.584,2.856c-.624.192-3.528,1.128-3.84,1.248-.264-.912-1.176-3.816-1.392-4.536l-3.192.864c.336.864,1.08,3,1.56,4.656-.84.288-3.36,1.1-3.864,1.272l.936,3.192c.36-.144,2.52-.96,3.768-1.44a104.892,104.892,0,0,1,2.76,11.976l3.432-.528a129.168,129.168,0,0,0-3.168-12.6c.84-.312,2.736-.984,3.96-1.368.192.6.312,1.032.528,1.9l3.144-.864c-.12-.576-.216-.984-.408-1.656,2.736.048,3.144,1.776,3.144,2.712,0,1.248-.84,3.072-3.912,3.072a8.852,8.852,0,0,1-2.64-.456L-143.3-5.3a11.263,11.263,0,0,0,3.24.48c4.008,0,6.7-2.208,6.7-6.072,0-3.024-1.9-5.664-6.12-5.664a7.817,7.817,0,0,0-1.368.1,19.866,19.866,0,0,0-1.92-3.264Zm18.72-1.176c-.72,2.664-.912,8.088-.912,10.968a38.658,38.658,0,0,0,.192,4.128l3.144-.24a18.056,18.056,0,0,1-.24-3c0-3.072,3.12-6.648,5.952-6.648,3.408,0,3.408,4.7,3.408,5.616,0,6.456-4.512,7.2-11.088,7.272l.7,3.024c8.256,0,13.728-2.232,13.728-10.128,0-5.88-2.832-8.736-6.456-8.736a7.367,7.367,0,0,0-5.856,3.048,19.582,19.582,0,0,1,.84-4.992Zm36.6,10.92a32.518,32.518,0,0,1-.744,6.7C-91.368-.96-91.92-.96-92.664-.96H-97.44l.6,3.072h4.848c1.8,0,2.88-.24,3.624-1.92C-87.624-1.464-87.12-6.24-87-11.688H-97.728c.1-1.272.12-2.16.12-2.9h12.96v-2.952h-9.816v-2.9h-3.192v2.9h-9.672v2.952h6.6c-.048,8.04-2.016,11.064-7.032,13.848l1.872,2.9c5.376-3.072,7.2-6.936,7.824-10.992Zm25.68-.456a18.779,18.779,0,0,0-2.208-3.5l-1.872.984a28.05,28.05,0,0,1,2.16,3.6Zm3.144-1.656a17.4,17.4,0,0,0-2.184-3.24l-1.9.984a22.845,22.845,0,0,1,2.208,3.408Zm-.312-7.728c-2.448.1-13.44.5-15.5.624-1.776.1-3.7.216-5.3.216l.12,3.36c1.512-.144,8.928-.768,10.608-.912-5.712,3.648-6.144,7.632-6.144,9.192A6.543,6.543,0,0,0-74.232-.48C-72.024.6-69.576,1.1-64.32,1.128l.456-3.432c-9.984.336-10.776-2.472-10.776-4.32,0-3,2.616-5.52,3.984-6.576a10.24,10.24,0,0,1,6.024-2.3c.888-.024,2.448.024,3,.024ZM-46.944-7.8c3.144-2.88,3.96-5.88,4.272-9.24H-40.1c-.024,4.128-.48,5.544-.552,5.712a1.052,1.052,0,0,1-1.1.7h-2.376l.528,2.688h3.288c1.752,0,3.048-.672,3.048-11.784H-48.024v2.688h2.64c-.36,3.6-1.512,5.448-3.6,7.2l-.144-1.512c-.528.1-.792.12-3.072.456v-1.68h2.928v-2.3H-52.2v-1.632h3.456V-18.96H-52.2v-1.512h-2.808v1.512H-59.04v2.448h4.032v1.632H-58.44v2.3h3.432v2.064c-2.856.336-3.432.36-4.248.408l.288,2.688c3.936-.5,4.536-.6,10.056-1.56l-.072-.744Zm-2.352.048a6.827,6.827,0,0,1-.12,1.224h-9.84v2.64h8.616c-1.8,2.136-6.1,3-8.784,3.288l1.176,2.88c2.688-.456,7.8-1.68,10.224-5.112A16.384,16.384,0,0,0-37.776,2.256l1.272-2.9a15.485,15.485,0,0,1-8.784-3.24h8.544v-2.64h-9.744a10.563,10.563,0,0,0,.12-1.224Zm14.064.288c.912-.072,1.992-.144,3.672-.312v9.96h2.688V-8.064c.288-.024,1.128-.144,1.464-.192.072.288.12.5.24.984l2.5-.816a22.4,22.4,0,0,0-1.872-4.8l-2.16.744a11.3,11.3,0,0,1,.648,1.656c-.672.072-1.752.144-2.472.168A44.688,44.688,0,0,0-25.8-17.064l-2.52-1.008a36.829,36.829,0,0,1-2.328,3.912,13.086,13.086,0,0,0-.936-1.056,28.1,28.1,0,0,0,2.64-4.416l-2.448-.912a33.39,33.39,0,0,1-1.992,3.624c-.192-.12-.288-.216-.624-.456l-1.416,2.328a18.121,18.121,0,0,1,3.168,3.192c-.336.48-.816,1.128-1.248,1.68-.456.024-.888.024-1.8.024Zm.672.984a24.753,24.753,0,0,1-.888,6.216l2.3,1.128a34.18,34.18,0,0,0,.912-7.008Zm11.976-13.992a15.012,15.012,0,0,1-3.624,7.224l2.064,2.376a14.368,14.368,0,0,0,2.5-3.576h5.28A120.532,120.532,0,0,1-16.9-1.608c-.192.7-.528.768-1.2.768h-4.272l.576,3.024h5.28A2.459,2.459,0,0,0-14.28.48c.7-1.752.768-6.768.96-17.736h-7.1a20.76,20.76,0,0,0,.84-2.976ZM-28.272-6.264A42.293,42.293,0,0,1-27.6-.72l2.52-.408a30.339,30.339,0,0,0-.984-5.544Zm4.344-3.888a26.517,26.517,0,0,1,2.9,5.88l2.64-1.392A20.767,20.767,0,0,0-21.36-11.4Zm19.872-9.6a18.555,18.555,0,0,1-.336,2.16H-9.744v2.952h4.536a19.948,19.948,0,0,1-5.28,8.064l2.28,2.352a21.709,21.709,0,0,0,3.1-4.128c2.376-2.4,4.056-2.4,4.344-2.4A1.838,1.838,0,0,1,.984-9.7c-1.9.96-6.312,3.1-6.312,6.384A4.1,4.1,0,0,0-2.688.432C-1.3.984.528,1.2,4.032,1.2c1.776,0,3.96-.072,4.8-.1v-3.1C6.888-1.8,4.752-1.7,2.784-1.7c-2.4,0-4.7,0-4.7-1.872,0-1.536,2.112-2.568,3.384-3.216a25.353,25.353,0,0,1-.048,3.024H4.56c.024-.768.024-1.152.024-1.848,0-.792-.024-1.632-.1-2.424a34.006,34.006,0,0,1,5.736-1.608L9.5-12.816a44.51,44.51,0,0,0-5.664,1.9A3.994,3.994,0,0,0,.048-13.464a6.673,6.673,0,0,0-2.76.7A11.768,11.768,0,0,0-1.92-14.64H8.4v-2.952H-1.056c.216-.912.288-1.3.384-1.92Zm26.568.408a33.932,33.932,0,0,0,.936,3.624H14.016v2.976H24.528a31.287,31.287,0,0,0,4.032,7.32l2.736-1.7a22.221,22.221,0,0,1-3.528-5.736,39.122,39.122,0,0,0,6.288-.768l-.5-3.024a46.394,46.394,0,0,1-6.912.864,24.118,24.118,0,0,1-.888-3.888ZM21.24-10.368C16.728-9,15.12-6.528,15.12-4.224a4.494,4.494,0,0,0,2.5,4.008c1.608.864,3.336,1.3,8.232,1.3,2.376,0,4.08-.072,5.544-.216l.12-3.1a51.684,51.684,0,0,1-6.24.36c-4.44,0-7.056-.312-7.056-2.472,0-1.152.84-2.616,4.3-3.6Zm30.384-9.264c.048.84.144,3.936.168,4.68l-7.584.168.048-4.488H41.064v4.584l-3.672.072.1,2.928,3.576-.072V-6.1a12.614,12.614,0,0,0,.48,4.1C42.7.552,45.336.984,50.832.984c3.96,0,5.112-.1,5.9-.168v-3.1a49.217,49.217,0,0,1-6.624.288c-5.856,0-6-.216-5.976-4.224l.048-5.616,7.7-.168a21.585,21.585,0,0,1-.216,3.576C51.5-7.512,51.336-7.08,50.4-7.08a21.3,21.3,0,0,1-2.952-.312l.168,2.88a19.339,19.339,0,0,0,3.048.264c4.08,0,4.2-2.52,4.32-7.824l3.648-.1L58.584-15.1l-3.6.072a40.361,40.361,0,0,0-.216-4.656Zm27,1.344a45.046,45.046,0,0,0-10.7-1.488l-.5,2.952a42.488,42.488,0,0,1,10.512,1.752ZM64.512-15.912a6.85,6.85,0,0,0-.48,2.016c-.144,1.464-.24,6.312-.24,7.944l3.144.048a6.288,6.288,0,0,0,.024-.672,10.78,10.78,0,0,1,7.3-2.832c1.536,0,3.888.624,3.888,3.12,0,4.56-6.168,4.56-8.376,4.56a37.243,37.243,0,0,1-5.952-.5l.24,3.048a35.46,35.46,0,0,0,5.4.336c4.8,0,6.816-.552,8.376-1.392a6.379,6.379,0,0,0,3.6-6c0-3.336-2.28-6.024-6.5-6.024-1.632,0-5.4.432-7.92,2.3.048-3.408.216-4.44.6-5.5Zm25.32-3.6c0,.072-.024,3.216-.024,3.528H85.824v3h3.96v1.728a26.2,26.2,0,0,1-4.7,5.928l1.752,3.072A17.535,17.535,0,0,0,89.76-5.928c-.024,1.008-.072,5.952-.072,7.08h3.24c-.048-1.224-.12-3.792-.12-6.864,0-1.824.024-2.808.072-4.92,2.52-3.192,4.968-4.2,6.216-4.2,1.416,0,1.512,1.32,1.464,2.808l-.24,6.216c-.192,5.232,2.064,5.832,6.048,6.144l.7-3.168c-3.528.072-3.48-1.272-3.432-3.264l.192-6.384a7.073,7.073,0,0,0-.552-3.672,3.937,3.937,0,0,0-3.432-1.824c-2.976,0-5.52,1.968-6.888,3.288.024-1.608.1-4.248.12-4.824Zm40.44.84c-2.448.1-13.44.5-15.5.624-2.28.12-4.152.216-5.3.216l.12,3.36c1.512-.144,8.928-.768,10.608-.912-5.712,3.648-6.144,7.632-6.144,9.192a6.543,6.543,0,0,0,3.72,5.712C119.976.6,122.424,1.1,127.68,1.128l.456-3.432c-9.984.336-10.776-2.472-10.776-4.32,0-3,2.616-5.52,3.984-6.576a10.213,10.213,0,0,1,6.024-2.3c.744-.024,2.256,0,3,.024Zm3.7.24c-.1,1.248-.36,3.96-.36,6.96,0,2.856.216,12.216,5.472,12.216,3.792,0,5.688-5.088,6.312-6.816l-2.664-1.464A16.666,16.666,0,0,1,141.144-4.2c-.48.744-.984,1.344-1.776,1.344-2.256,0-2.544-6.168-2.544-8.76a40.05,40.05,0,0,1,.576-6.528ZM154.752-1.776c.024-4.944-.1-11.448-5.136-16.2l-2.568,1.8c3.96,4.1,4.176,8.832,4.176,14.592ZM159.6-19.2v3.048l9.048-.144c-3.576,3.288-7.176,6.6-10.8,9.792l1.8,2.784c.888-.936,3.312-3.312,4.128-4.08a10.353,10.353,0,0,1,6.144-2.112c.792,0,4.464,0,4.464,4.056,0,2.136-1.224,3.408-3.312,4.032.024-.336.048-.48.048-.672a4.259,4.259,0,0,0-4.44-4.344c-2.16,0-4.488,1.344-4.488,3.744A3.928,3.928,0,0,0,164.136.192,7.9,7.9,0,0,0,168.6,1.248c6.336,0,9.12-3.456,9.12-7.368a6.268,6.268,0,0,0-6.624-6.552,7.2,7.2,0,0,0-2.664.432c.7-.576,1.1-.912,4.92-4.368V-19.2Zm8.88,17.76c-3.1.24-3.624-.864-3.624-1.536,0-.768.648-1.344,1.68-1.344a2.042,2.042,0,0,1,2.04,2.232A2.231,2.231,0,0,1,168.48-1.44ZM188.28-11.9h13.608v-7.8H188.28Zm10.8-5.856v1.272h-8.016V-17.76Zm0,2.784v1.3h-8.016v-1.3Zm-6.768,9.744a13.945,13.945,0,0,1-6.528,3.576l1.1,2.088a14,14,0,0,0,8.16-5.664h1.416A13.247,13.247,0,0,1,189.6.432l1.728,1.992a14.085,14.085,0,0,0,7.584-7.656h1.008a35.585,35.585,0,0,1-.312,3.792c-.1.552-.192.96-.96.96h-2.856l.432,2.616h3.456a2.118,2.118,0,0,0,2.3-1.392c.672-1.536.768-8.064.768-8.208h-9.864c.312-.432.456-.7.744-1.152h9.72v-2.256H187.2v2.256h3.72a8.947,8.947,0,0,1-3.624,2.88l-.072-1.128a13.809,13.809,0,0,1-1.584.648v-6.312h1.584v-2.856H185.64V-20.4h-2.856v5.016h-2.16v2.856h2.16V-5.28c-1.08.336-1.728.48-2.448.648l.312,3.12a61.92,61.92,0,0,0,6.5-2.424l.408.648a12.222,12.222,0,0,0,3.168-1.944Zm17.544-5.9h12.456v-1.728a37.389,37.389,0,0,0,3.648,1.848l1.656-3.024c-6.312-2.4-8.616-4.872-9.96-6.432h-3.264a21.285,21.285,0,0,1-9.96,6.432l1.584,3.024a34.724,34.724,0,0,0,3.84-1.92Zm1.464-2.712a19.167,19.167,0,0,0,4.632-4.128,24.215,24.215,0,0,0,4.752,4.128ZM206.88,2.16H209.9V1.272h12.168V2.16H225.1V-9.072H206.88Zm15.192-8.52v4.944H209.9V-6.36Zm14.88,5.832A41.246,41.246,0,0,0,232.1-5.88l-2.568,1.728A46.138,46.138,0,0,1,234,1.44ZM-430.592,35.6c4.192-3.84,5.28-7.84,5.7-12.32h3.424c-.032,5.5-.64,7.392-.736,7.616a1.4,1.4,0,0,1-1.472.928h-3.168l.7,3.584h4.384c2.336,0,4.064-.9,4.064-15.712h-14.336V23.28h3.52c-.48,4.8-2.016,7.264-4.8,9.6l-.192-2.016c-.7.128-1.056.16-4.1.608v-2.24h3.9V26.16h-3.9V23.984h4.608V20.72H-437.6V18.7h-3.744V20.72h-5.376v3.264h5.376V26.16h-4.576v3.072h4.576v2.752c-3.808.448-4.576.48-5.664.544l.384,3.584c5.248-.672,6.048-.8,13.408-2.08l-.1-.992Zm-3.136.064a9.1,9.1,0,0,1-.16,1.632h-13.12v3.52h11.488c-2.4,2.848-8.128,4-11.712,4.384l1.568,3.84c3.584-.608,10.4-2.24,13.632-6.816,2.336,2.72,6.944,5.888,13.664,6.784l1.7-3.872c-4.928-.48-8.064-1.568-11.712-4.32h11.392V37.3h-12.992a14.079,14.079,0,0,0,.16-1.632Zm18.752.384c1.216-.1,2.656-.192,4.9-.416v13.28h3.584V35.248c.384-.032,1.5-.192,1.952-.256.1.384.16.672.32,1.312l3.328-1.088a29.872,29.872,0,0,0-2.5-6.4l-2.88.992a15.069,15.069,0,0,1,.864,2.208c-.9.1-2.336.192-3.3.224a59.582,59.582,0,0,0,6.3-8.992l-3.36-1.344a49.1,49.1,0,0,1-3.1,5.216,17.448,17.448,0,0,0-1.248-1.408,37.462,37.462,0,0,0,3.52-5.888l-3.264-1.216a44.526,44.526,0,0,1-2.656,4.832c-.256-.16-.384-.288-.832-.608l-1.888,3.1a24.161,24.161,0,0,1,4.224,4.256c-.448.64-1.088,1.5-1.664,2.24-.608.032-1.184.032-2.4.032Zm.9,1.312a33,33,0,0,1-1.184,8.288l3.072,1.5a45.574,45.574,0,0,0,1.216-9.344ZM-398.112,18.7a20.016,20.016,0,0,1-4.832,9.632l2.752,3.168a19.158,19.158,0,0,0,3.328-4.768h7.04a160.7,160.7,0,0,1-.7,17.12c-.256.928-.7,1.024-1.6,1.024h-5.7l.768,4.032h7.04a3.278,3.278,0,0,0,2.976-2.272c.928-2.336,1.024-9.024,1.28-23.648h-9.472a27.682,27.682,0,0,0,1.12-3.968ZM-405.7,37.648a56.39,56.39,0,0,1,.9,7.392l3.36-.544a40.451,40.451,0,0,0-1.312-7.392Zm5.792-5.184a35.355,35.355,0,0,1,3.872,7.84l3.52-1.856A27.689,27.689,0,0,0-396.48,30.8Zm26.5-12.8a24.746,24.746,0,0,1-.448,2.88h-7.136V26.48h6.048a26.6,26.6,0,0,1-7.04,10.752l3.04,3.136c.544-.544,1.44-1.376,4.128-5.5,3.168-3.2,5.408-3.2,5.792-3.2a2.451,2.451,0,0,1,2.336,1.408c-2.528,1.28-8.416,4.128-8.416,8.512a5.46,5.46,0,0,0,3.52,4.992c1.856.736,4.288,1.024,8.96,1.024,2.368,0,5.28-.1,6.4-.128V43.344c-2.592.256-5.44.384-8.064.384-3.2,0-6.272,0-6.272-2.5,0-2.048,2.816-3.424,4.512-4.288a33.8,33.8,0,0,1-.064,4.032h4.192c.032-1.024.032-1.536.032-2.464,0-1.056-.032-2.176-.128-3.232a45.341,45.341,0,0,1,7.648-2.144l-.96-4.224a59.347,59.347,0,0,0-7.552,2.528,5.325,5.325,0,0,0-5.056-3.392,8.9,8.9,0,0,0-3.68.928,15.691,15.691,0,0,0,1.056-2.5h13.76V22.544h-12.608c.288-1.216.384-1.728.512-2.56Zm24.16,16.864c0,1.6,0,6.208-2.272,9.728l2.912,2.752a17.5,17.5,0,0,0,2.336-7.52h7.008v2.784c0,.96-.224.96-1.216.96h-2.912l.672,3.68h3.648c1.12,0,2.88,0,2.88-2.912V26.032h-3.2a11.845,11.845,0,0,0,1.7-2.3V20.592h-5.76c.224-.544.384-.864.608-1.472l-3.808-.448a17.13,17.13,0,0,1-4.928,7.008l1.216,3.9c.576-.448.736-.608,1.12-.928Zm5.312-7.424v3.168h-2.08V29.1Zm0,6.144V38.48h-2.08V35.248Zm4.672-6.144v3.168h-2.112V29.1Zm0,6.144V38.48h-2.112V35.248Zm-7.52-9.216a24.277,24.277,0,0,0,1.664-2.3h3.328a8.539,8.539,0,0,1-1.888,2.3Zm10.88-6.24v3.36h3.424a7.117,7.117,0,0,1-3.584,3.712l1.92,3.04a10.911,10.911,0,0,0,5.472-6.752h3.424c-.032,2.944-.544,2.944-1.632,2.944h-2.752l.8,3.2h3.616a2.631,2.631,0,0,0,2.944-1.792,35.264,35.264,0,0,0,.672-7.712Zm6.624,16.384v3.072h-6.176v3.68h6.272v5.984h3.552V42.928h4.672v-3.68h-4.672V36.176h4V32.752h-4V30.16h-3.648v2.592h-2.048c.224-1.12.32-1.7.416-2.24l-3.232-.544c-.544,3.9-1.088,5.248-1.92,6.688l2.816,2.016a11.571,11.571,0,0,0,1.088-2.5Zm20.288-9.28V48.944h3.936V41.616h10.976v2.72c0,.7-.064.8-.672.8h-4.416l.64,3.808h5.568a2.489,2.489,0,0,0,2.816-2.72V26.9h-7.424v-8.16H-301.5V26.9Zm14.912,3.456v2.432h-10.976V30.352Zm0,5.664v2.4h-10.976v-2.4ZM-318.3,21.808a33.263,33.263,0,0,1,5.376,3.424l2.4-3.392a32.175,32.175,0,0,0-5.568-3.2Zm-1.024,8.8a24.447,24.447,0,0,1,5.184,3.264l2.272-3.488a23.936,23.936,0,0,0-5.5-3.168Zm5.664,4.736a38.141,38.141,0,0,1-5.728,9.5l2.464,3.9A47.194,47.194,0,0,0-310.5,37.616Zm3.9-15.072a31.022,31.022,0,0,1,3.008,6.208l3.808-1.248a26.593,26.593,0,0,0-3.232-6.368Zm17.12-1.312A25.534,25.534,0,0,1-296,25.2l3.456,1.5a25.362,25.362,0,0,0,3.584-6.5Zm10.752,1.056c0,2.208-.1,9.6-.1,14.24,0,4.608,0,7.552,1.6,9.76,1.92,2.624,4.768,3.488,8.288,3.488,7.808,0,12.064-4.576,13.472-12.448l-4.16-1.472c-.352,2.272-1.408,9.824-9.216,9.824-4.992,0-5.7-2.976-5.7-6.752,0-4.768.32-15.584.352-16.608ZM-226.3,21.1c-3.264.128-17.92.672-20.672.832-3.04.16-5.536.288-7.072.288l.16,4.48c2.016-.192,11.9-1.024,14.144-1.216-7.616,4.864-8.192,10.176-8.192,12.256a8.724,8.724,0,0,0,4.96,7.616c2.944,1.44,6.208,2.112,13.216,2.144l.608-4.576c-13.312.448-14.368-3.3-14.368-5.76,0-4,3.488-7.36,5.312-8.768a13.617,13.617,0,0,1,8.032-3.072c.992-.032,3.008,0,4,.032Zm17.344,27.84c6.784-5.152,9.632-11.264,11.584-16.992-.192,7.68-.576,11.264-.864,12.288-.224.736-.768.768-1.5.768h-4.064l.672,3.936h5.12c2.88,0,3.392-2.432,3.584-3.392.736-3.584.96-17.184.864-22.592h-11.264a36.31,36.31,0,0,0,.992-3.872L-207.9,18.7a29.518,29.518,0,0,1-3.136,9.024V24.944h-2.56V18.768h-3.776v6.176h-1.408a34.33,34.33,0,0,0,.1-3.872l-3.3-.128c-.192,5.568-.48,7.584-1.472,10.656l2.848,2.624a23.969,23.969,0,0,0,1.376-5.408h1.856v6.848c-2.464.7-4.608,1.152-6.08,1.44l.7,4.1c1.28-.32,2.592-.64,5.376-1.44v9.184h3.776V38.512a23.791,23.791,0,0,0,2.816-1.184l-.256-3.776c-.9.32-1.5.576-2.56.928V28.816h1.824a12.5,12.5,0,0,1-1.056,1.312l2.72,2.976a22.421,22.421,0,0,0,3.9-6.56h1.664a24.382,24.382,0,0,1-8.736,13.184l2.176,3.1a29.577,29.577,0,0,0,10.08-16.288h2.144c-.992,4.064-3.808,13.024-12.416,19.168Zm36.224-20.736v6.4H-182.88V38.64h10.144v10.3h4.032V38.64h7.712V34.608H-168.7v-6.4h6.944V24.3H-168.7V18.736h-4.032V24.3h-3.52c.448-1.824.576-2.816.736-3.808l-3.776-.48a29.058,29.058,0,0,1-4.16,11.2l3.424,2.368a26.983,26.983,0,0,0,2.592-5.376Zm-15.616,20.736h3.872V26.64a40.231,40.231,0,0,0,2.048-7.52l-4.032-.416a26.319,26.319,0,0,1-5.248,12.544l1.408,5.216a17.956,17.956,0,0,0,1.952-2.3Zm38.944-29.28a24.74,24.74,0,0,1-.448,2.88h-7.136V26.48h6.048a26.6,26.6,0,0,1-7.04,10.752l3.04,3.136c.544-.544,1.44-1.376,4.128-5.5,3.168-3.2,5.408-3.2,5.792-3.2a2.451,2.451,0,0,1,2.336,1.408c-2.528,1.28-8.416,4.128-8.416,8.512a5.46,5.46,0,0,0,3.52,4.992c1.856.736,4.288,1.024,8.96,1.024,2.368,0,5.28-.1,6.4-.128V43.344c-2.592.256-5.44.384-8.064.384-3.2,0-6.272,0-6.272-2.5,0-2.048,2.816-3.424,4.512-4.288a33.8,33.8,0,0,1-.064,4.032h4.192c.032-1.024.032-1.536.032-2.464,0-1.056-.032-2.176-.128-3.232a45.341,45.341,0,0,1,7.648-2.144l-.96-4.224a59.347,59.347,0,0,0-7.552,2.528,5.325,5.325,0,0,0-5.056-3.392,8.9,8.9,0,0,0-3.68.928,15.692,15.692,0,0,0,1.056-2.5h13.76V22.544h-12.608c.288-1.216.384-1.728.512-2.56Zm24.416,29.056a25.477,25.477,0,0,0,10.048-3.744l-2.24-1.824h10.272l-1.984,1.7a23.778,23.778,0,0,0,9.952,3.84L-96.96,45.2a24.231,24.231,0,0,1-7.776-2.048h5.184v-14.5h-24.9v14.5h5.7a25.331,25.331,0,0,1-8.256,2.08Zm4.576-13.76h16.832v1.664h-16.832Zm0-3.712h16.832v1.568h-16.832Zm0,7.52h16.832V40.4h-16.832Zm-5.5-11.52h27.84V19.376h-27.84Zm11.776-5.088h4.256v2.5h-4.256Zm-7.936,0h4.384v2.5h-4.384Zm15.776,0h4.32v2.5h-4.32Zm12.928-.736c-.128,1.664-.48,5.28-.48,9.28,0,3.808.288,16.288,7.3,16.288,5.056,0,7.584-6.784,8.416-9.088L-81.7,35.952A22.223,22.223,0,0,1-83.808,40.4c-.64.992-1.312,1.792-2.368,1.792-3.008,0-3.392-8.224-3.392-11.68a53.4,53.4,0,0,1,.768-8.7Zm27.712,22.208c.032-6.592-.128-15.264-6.848-21.6l-3.424,2.4c5.28,5.472,5.568,11.776,5.568,19.456Zm32.9,1.664a17.225,17.225,0,0,1-9.568-5.856h9.28V36.08H-44.544a16.616,16.616,0,0,0,.256-2.368h9.408V24.944H-60.64V36.176a16.234,16.234,0,0,1-3.1,10.144l3.328,2.752A21.277,21.277,0,0,0-56.96,39.44h7.488c-2.048,4.032-6.816,5.568-8.64,6.176l2.4,3.424c1.7-.672,7.392-2.976,9.888-8.48.96,1.76,3.776,6.144,10.784,8.416Zm-15.36-11.584a12.964,12.964,0,0,1-.288,2.368h-8.32V33.712Zm9.312-2.944h-17.92V27.92h17.92ZM-62.944,19.76v3.488h29.888V19.76Zm37.056.256c0,2.208-.1,9.6-.1,14.24,0,4.608,0,7.552,1.6,9.76,1.92,2.624,4.768,3.488,8.288,3.488,7.808,0,12.064-4.576,13.472-12.448l-4.16-1.472c-.352,2.272-1.408,9.824-9.216,9.824-4.992,0-5.7-2.976-5.7-6.752,0-4.768.32-15.584.352-16.608ZM29.7,21.1c-3.264.128-17.92.672-20.672.832-3.04.16-5.536.288-7.072.288l.16,4.48c2.016-.192,11.9-1.024,14.144-1.216C8.64,30.352,8.064,35.664,8.064,37.744a8.724,8.724,0,0,0,4.96,7.616c2.944,1.44,6.208,2.112,13.216,2.144l.608-4.576c-13.312.448-14.368-3.3-14.368-5.76,0-4,3.488-7.36,5.312-8.768a13.617,13.617,0,0,1,8.032-3.072c.992-.032,3.008,0,4,.032Zm10.688,2.88h-5.5V27.92h5.344l-.192,4.864H34.4v3.9h5.5c0,7.84,1.248,10.944,10.24,10.944,5.28,0,11.328-.8,11.328-8.576a16.66,16.66,0,0,0-2.048-8.064l-3.936,1.152a14.918,14.918,0,0,1,1.6,6.464c0,4.416-2.72,4.928-6.784,4.928-6.016,0-6.08-1.12-6.08-6.848h.736c5.76,0,7.712-.512,9.312-1.5L52.9,31.536c-1.28.736-3.1,1.248-7.52,1.248H44.352l.256-4.864h9.728V23.984h-9.5l.224-4H40.544Zm48.448-2.368A60.061,60.061,0,0,0,74.56,19.632l-.672,3.936A56.651,56.651,0,0,1,87.9,25.9ZM70.016,24.784a9.134,9.134,0,0,0-.64,2.688c-.192,1.952-.32,8.416-.32,10.592l4.192.064a8.385,8.385,0,0,0,.032-.9,14.373,14.373,0,0,1,9.728-3.776c2.048,0,5.184.832,5.184,4.16,0,6.08-8.224,6.08-11.168,6.08a49.658,49.658,0,0,1-7.936-.672l.32,4.064a47.28,47.28,0,0,0,7.2.448c6.4,0,9.088-.736,11.168-1.856a8.506,8.506,0,0,0,4.8-8c0-4.448-3.04-8.032-8.672-8.032-2.176,0-7.2.576-10.56,3.072.064-4.544.288-5.92.8-7.328Zm50.144-3.456a70.419,70.419,0,0,0-15.776-1.7l-.416,3.648a64,64,0,0,1,15.488,1.984Zm-19.9,5.6v4.064l12.736-.416c-1.536,1.344-3.072,2.656-7.136,6.368-2.016,1.824-7.168,6.528-7.808,7.072L100.9,47.5c.544-.608,5.984-6.336,7.68-7.808a5.172,5.172,0,0,1,3.008-1.056c1.6,0,1.6,1.28,1.6,2.272v1.28a5.776,5.776,0,0,0,.864,3.456c1.088,1.376,2.688,1.952,7.744,1.952a37.979,37.979,0,0,0,3.84-.192l-.064-4.16c-1.056.1-2.88.288-4.416.288-3.808,0-3.936-.512-3.936-2.752V39.6c0-2.592-.8-4.288-3.1-4.288a3.894,3.894,0,0,0-1.376.256c2.176-1.824,5.6-4.64,6.592-5.344V26.832ZM132.8,20.4v4.064l12.064-.192c-4.768,4.384-9.568,8.8-14.4,13.056l2.4,3.712c1.184-1.248,4.416-4.416,5.5-5.44a13.8,13.8,0,0,1,8.192-2.816c1.056,0,5.952,0,5.952,5.408,0,2.848-1.632,4.544-4.416,5.376.032-.448.064-.64.064-.9a5.679,5.679,0,0,0-5.92-5.792c-2.88,0-5.984,1.792-5.984,4.992a5.237,5.237,0,0,0,2.592,4.384,10.538,10.538,0,0,0,5.952,1.408c8.448,0,12.16-4.608,12.16-9.824,0-4.128-2.592-8.736-8.832-8.736a9.6,9.6,0,0,0-3.552.576c.928-.768,1.472-1.216,6.56-5.824V20.4Zm11.84,23.68c-4.128.32-4.832-1.152-4.832-2.048,0-1.024.864-1.792,2.24-1.792a2.723,2.723,0,0,1,2.72,2.976A2.975,2.975,0,0,1,144.64,44.08Zm38.464-.32c0,.512-.192,1.024-.864,1.024h-6.048l.8,4.1h6.88c2.08,0,3.3-.864,3.3-2.944V23.664h3.808V19.728H161.024v3.936H183.1ZM163.488,26.384V42.736h3.872V40.912h11.712V26.384Zm11.68,3.584V37.3H167.36V29.968ZM194.144,48.88h3.712V42.544h5.28v2.112a.571.571,0,0,1-.608.608h-2.912l.64,3.616h4.224a2.429,2.429,0,0,0,2.336-2.592V29.2H194.144Zm8.992-16.512v2.24h-5.28v-2.24Zm0,4.96V39.7h-5.28V37.328Zm6.24-18.592v11.52c0,.352.16,2.624,3.008,2.624h7.2c2.528,0,3.328-1.856,3.488-6.144l-3.744-1.024c-.064,3.616-.576,3.616-1.344,3.616H214.24c-.416,0-.832-.1-.832-.768V25.936a36.916,36.916,0,0,0,9.184-3.52L220.416,19.5a33.468,33.468,0,0,1-7.008,3.2V18.736Zm.1,27.136a2.492,2.492,0,0,0,2.688,2.752h6.976c3.008,0,3.488-1.7,3.936-6.784l-3.776-.992c-.256,3.936-.416,4.192-1.376,4.192H214.3c-.736,0-.9-.512-.9-.96V40.848a40.754,40.754,0,0,0,8.992-3.712l-2.336-2.976a28.251,28.251,0,0,1-6.656,3.36V33.776h-3.936Zm-.7-18.88a33.19,33.19,0,0,0-4.1-7.136l-3.136,1.44c.448.7.9,1.344,1.568,2.592-.768.064-4.128.384-4.64.416a35.564,35.564,0,0,0,2.336-5.152l-3.936-.416a34.89,34.89,0,0,1-2.112,5.664h-2.016l.32,3.456c3.712-.16,7.776-.608,11.456-1.12a19.585,19.585,0,0,1,.736,1.824Zm29.024,11.04h6.08v6.016h-9.216V47.76h20.48V44.048h-7.264V38.032h5.952V34.384h-5.952V29.008h6.72V25.3h-6.72v-6.56h-4V25.3h-2.464a30.1,30.1,0,0,0,.736-4.7l-3.808-.608a27.961,27.961,0,0,1-1.536,7.84,26.96,26.96,0,0,0-1.92-4.224l-2.048,1.248V18.736H228.96V48.944h3.872v-23.2a25.547,25.547,0,0,1,1.568,4.32l2.048-1.28a18.7,18.7,0,0,1-1.888,3.36l3.168,2.464.064-.128Zm.064-3.648a22.98,22.98,0,0,0,2.464-5.376h3.552v5.376ZM225.5,24.848a37.757,37.757,0,0,1-1.056,8.928l2.624,1.6c.48-1.728.928-3.9.992-10.5Zm42.368.576c.1-.8.576-4.64.672-5.5l-4.416-.32c-.128,1.728-.256,3.232-.576,5.824h-5.344v4.1l4.736-.064a51.194,51.194,0,0,1-5.088,16.128l4.064,1.728c2.528-5.12,4.224-11.808,5.312-17.888l3.04-.032c1.984-.032,3.776.256,3.776,4.224,0,1.088-.224,6.208-1.216,8.448-.48,1.088-1.5,1.472-2.944,1.472a32.676,32.676,0,0,1-4.16-.416l.256,4.128a40.211,40.211,0,0,0,4.736.32,6.041,6.041,0,0,0,5.12-2.08c1.568-1.92,2.368-7.1,2.368-10.656,0-4.32-.736-9.408-6.944-9.408ZM286.624,37.9c-.224-7.008-1.408-9.376-3.072-11.808l-3.84,1.536c1.888,3.712,2.272,5.792,2.272,10.848Zm-4.192-13.5a19.726,19.726,0,0,0-2.048-4.992l-2.624.8a22.693,22.693,0,0,1,1.92,5.152Zm4.768-.7a19.02,19.02,0,0,0-2.112-4.992l-2.592.8a23.348,23.348,0,0,1,2.08,5.024Zm10.464-1.088h-6.752v3.968h6.752a9.642,9.642,0,0,0-.032,1.024c0,.736,0,1.824.064,2.464-7.424,2.976-7.552,8.64-7.552,9.824,0,3.456,2.048,6.144,5.824,6.144,4.736,0,10.688-4.832,13.152-13.28,4.416,1.376,4.416,4.576,4.416,5.184,0,1.12-.352,4.16-4.608,5.344a20.232,20.232,0,0,1-5.568.608l1.28,3.808c5.44-.032,13.088-1.76,13.088-9.568,0-5.6-4.48-9.408-12.448-9.408a18.064,18.064,0,0,0-3.52.288c0-.224,0-1.568.032-2.432h14.72V22.608H301.92l.064-2.688-4.288-.032Zm4.832,15.52a43.907,43.907,0,0,1-.64-5.76,11.965,11.965,0,0,1,2.4-.224c.448,0,.768.032,1.184.032A15.45,15.45,0,0,1,302.5,38.128ZM299.264,41.3a4.529,4.529,0,0,1-2.784,1.056c-2.5,0-2.5-2.432-2.5-2.912,0-2.432,1.536-4.352,4-5.7A34.48,34.48,0,0,0,299.264,41.3ZM326.88,19.664c-.96,3.552-1.216,10.784-1.216,14.624a51.543,51.543,0,0,0,.256,5.5l4.192-.32a24.075,24.075,0,0,1-.32-4c0-4.1,4.16-8.864,7.936-8.864,4.544,0,4.544,6.272,4.544,7.488,0,8.608-6.016,9.6-14.784,9.7l.928,4.032c11.008,0,18.3-2.976,18.3-13.5,0-7.84-3.776-11.648-8.608-11.648a9.823,9.823,0,0,0-7.808,4.064c.448-4.352.576-4.96,1.12-6.656Zm28.032,3.04v3.808h11.68V29.36H355.52v3.712h11.072v2.752a9.757,9.757,0,0,0-2.56-.256c-4.224,0-8.256,1.888-8.256,6.112,0,2.624,1.792,5.92,8,5.92,7.072,0,7.072-4.192,7.072-5.632V41.36a45.251,45.251,0,0,1,6.5,5.184l2.784-3.712a35.217,35.217,0,0,0-9.28-5.888V33.072h9.344V29.36h-9.344V26.512h9.984V22.7h-9.984V19.92h-4.256V22.7Zm11.744,18.464c0,1.312-.224,2.688-3.2,2.688-1.472,0-3.68-.352-3.68-2.272,0-1.984,2.336-2.528,3.968-2.528a8.416,8.416,0,0,1,2.912.544Zm34.272-18.144H385.952V26.96h15.072l.032,2.144a6.116,6.116,0,0,0-2.784-.64,6.552,6.552,0,1,0-.256,13.088,4.594,4.594,0,0,0,3.232-.992c-.8,2.368-2.816,3.552-10.272,3.68l1.344,3.872a33.973,33.973,0,0,0,5.92-.736c6.72-1.5,7.616-7.168,7.616-9.984a11.929,11.929,0,0,0-.384-3.008c-.032-.128-.224-.7-.224-.8V26.96h8.832V23.024h-8.832V19.792h-4.384Zm.288,12.32a2.75,2.75,0,0,1-2.88,2.784,2.928,2.928,0,0,1-3.1-3.072,3.045,3.045,0,0,1,3.168-3.1,2.6,2.6,0,0,1,2.816,2.656Zm28.48-14.56.576,17.952h3.456l.576-17.952Zm.1,20.7V46h4.416V41.488Z" transform="translate(456.23 26.54)"/>
    </g>
  </g>
</svg>
