<svg xmlns="http://www.w3.org/2000/svg" xmlns:xlink="http://www.w3.org/1999/xlink" width="231.78" height="66.24" viewBox="0 0 231.78 66.24">
  <defs>
    <filter id="パス_2869" x="0" y="0" width="231.78" height="66.24" filterUnits="userSpaceOnUse">
      <feOffset dy="3" input="SourceAlpha"/>
      <feGaussianBlur stdDeviation="3" result="blur"/>
      <feFlood flood-opacity="0.161"/>
      <feComposite operator="in" in2="blur"/>
      <feComposite in="SourceGraphic"/>
    </filter>
  </defs>
  <g transform="matrix(1, 0, 0, 1, 0, 0)" filter="url(#パス_2869)">
    <path id="パス_2869-2" data-name="パス 2869" d="M-63.64-15.52c-2.1.02-10.54.08-12.02.08-.42,0-.94-.02-1.24-.04l-.02,2.66c.4-.02,6.12-.18,6.68-.16a11.9,11.9,0,0,0-2.02,1.1l1.82,1.58a16.684,16.684,0,0,1,6.8-2.72ZM-75.4-9.08a7.16,7.16,0,0,0-2.3,4.92C-77.7.5-71.84.5-67.66.5A36.347,36.347,0,0,0-62.58.28l-.06-2.7a49.078,49.078,0,0,1-6.02.34c-4.12,0-6.36-.28-6.36-2.48a4.513,4.513,0,0,1,1.54-3.12Zm25.36,10c5.24-.36,8.96-2.58,8.96-8.5,0-5.02-3.2-8-8.38-8-5.64,0-9.44,3.74-9.44,8.98,0,2.9,1.36,5.92,4.06,5.92,2.3,0,3.58-2.1,3.92-2.68,1.66-2.8,2.04-7.34,2.24-9.74,3.9.3,4.72,3.12,4.72,5.38,0,4.9-3.34,5.92-6.92,6.08Zm-1.3-13.9C-51.8-6.74-53.2-3.4-54.68-3.4c-.48,0-1.6-.46-1.6-2.98C-56.28-9.08-55.14-12.12-51.34-12.98Zm29.4-.2h-6.58v-3h-2.76l.02,9.28a8.038,8.038,0,0,0-1.16-.08c-3.36,0-5.74,1.68-5.74,4.16,0,1.12.66,3.92,5,3.92,4.42,0,4.58-2.62,4.58-3.86v-.9A23.68,23.68,0,0,1-22.94.22l1.84-2.38a22.633,22.633,0,0,0-7.42-4.22v-4.16h6.58Zm-9.28,10c0,.94-.12,1.88-2.1,1.88-2.16,0-2.28-1.28-2.28-1.6,0-1.14,1.16-1.76,2.86-1.76a3.919,3.919,0,0,1,1.52.22ZM-4.74-15.1a44.123,44.123,0,0,0-9.56-1.44l-.54,2.42a40.584,40.584,0,0,1,9.5,1.64ZM-14.36,1.34A23.108,23.108,0,0,0-7.98.38c2.6-.86,4.82-2.56,4.82-6.76,0-5.1-3.94-5.1-5.06-5.1-1.5,0-4.12.32-5.18.44-1.9.22-2.64.3-3.66.36l.42,2.76c.78-.1,1.66-.26,3.06-.52a43.509,43.509,0,0,1,4.94-.62c1.42,0,2.64.34,2.64,2.7,0,4.04-3.22,5.12-9.02,5.2ZM4.96-16.48c-.12.88-.2,1.6-.34,2.42H1.24v2.5H4.16A35.846,35.846,0,0,1,1.04-1.98l2.7.92a70.546,70.546,0,0,0,3.14-10.5h4.34v-2.5H7.4c.14-.7.22-1.3.36-2.24Zm13.76,2.12a26.318,26.318,0,0,0-6.38.56l.2,7.22a11.79,11.79,0,0,0-1.44-.1c-3.7,0-5.08,2.04-5.08,3.96,0,1.7,1.14,3.8,4.78,3.8,3.56,0,4.34-2.36,4.34-3.5v-.36a15.708,15.708,0,0,1,2.54,2.2L19.2-3.12a17.642,17.642,0,0,0-4.02-2.64L15-11.48a11.21,11.21,0,0,1,2.08-.14,14.205,14.205,0,0,1,1.66.08ZM12.62-3.04c0,1.42-1.04,1.76-2.06,1.76-.84,0-2.12-.32-2.12-1.48,0-1.28,1.36-1.72,2.52-1.72a4.434,4.434,0,0,1,1.66.32ZM30.88-6.5a10.788,10.788,0,0,0,3.56-7.7h2.14a15.8,15.8,0,0,1-.46,4.76.876.876,0,0,1-.92.58H33.22l.44,2.24H36.4c1.46,0,2.54-.56,2.54-9.82H29.98v2.24h2.2a7.913,7.913,0,0,1-3,6l-.12-1.26c-.44.08-.66.1-2.56.38v-1.4h2.44V-12.4H26.5v-1.36h2.88V-15.8H26.5v-1.26H24.16v1.26H20.8v2.04h3.36v1.36H21.3v1.92h2.86v1.72c-2.38.28-2.86.3-3.54.34l.24,2.24c3.28-.42,3.78-.5,8.38-1.3l-.06-.62Zm-1.96.04a5.689,5.689,0,0,1-.1,1.02h-8.2v2.2H27.8C26.3-1.46,22.72-.74,20.48-.5l.98,2.4c2.24-.38,6.5-1.4,8.52-4.26a13.653,13.653,0,0,0,8.54,4.24L39.58-.54a12.9,12.9,0,0,1-7.32-2.7h7.12v-2.2H31.26a8.8,8.8,0,0,0,.1-1.02Zm11.72.24c.76-.06,1.66-.12,3.06-.26v8.3h2.24V-6.72c.24-.02.94-.12,1.22-.16.06.24.1.42.2.82l2.08-.68a18.67,18.67,0,0,0-1.56-4l-1.8.62a9.418,9.418,0,0,1,.54,1.38c-.56.06-1.46.12-2.06.14a37.24,37.24,0,0,0,3.94-5.62l-2.1-.84a30.69,30.69,0,0,1-1.94,3.26,10.9,10.9,0,0,0-.78-.88,23.415,23.415,0,0,0,2.2-3.68l-2.04-.76a27.825,27.825,0,0,1-1.66,3.02c-.16-.1-.24-.18-.52-.38l-1.18,1.94a15.1,15.1,0,0,1,2.64,2.66c-.28.4-.68.94-1.04,1.4-.38.02-.74.02-1.5.02Zm.56.82a20.627,20.627,0,0,1-.74,5.18l1.92.94a28.483,28.483,0,0,0,.76-5.84Zm9.98-11.66a12.51,12.51,0,0,1-3.02,6.02l1.72,1.98a11.974,11.974,0,0,0,2.08-2.98h4.4a100.442,100.442,0,0,1-.44,10.7c-.16.58-.44.64-1,.64H51.36l.48,2.52h4.4A2.049,2.049,0,0,0,58.1.4c.58-1.46.64-5.64.8-14.78H52.98a17.3,17.3,0,0,0,.7-2.48ZM46.44-5.22A35.243,35.243,0,0,1,47-.6l2.1-.34a25.282,25.282,0,0,0-.82-4.62Zm3.62-3.24a22.1,22.1,0,0,1,2.42,4.9l2.2-1.16A17.306,17.306,0,0,0,52.2-9.5Zm16.56-8a15.463,15.463,0,0,1-.28,1.8H61.88v2.46h3.78a16.623,16.623,0,0,1-4.4,6.72l1.9,1.96a18.091,18.091,0,0,0,2.58-3.44c1.98-2,3.38-2,3.62-2a1.532,1.532,0,0,1,1.46.88c-1.58.8-5.26,2.58-5.26,5.32A3.412,3.412,0,0,0,67.76.36c1.16.46,2.68.64,5.6.64,1.48,0,3.3-.06,4-.08V-1.66c-1.62.16-3.4.24-5.04.24-2,0-3.92,0-3.92-1.56,0-1.28,1.76-2.14,2.82-2.68a21.127,21.127,0,0,1-.04,2.52H73.8c.02-.64.02-.96.02-1.54,0-.66-.02-1.36-.08-2.02a28.338,28.338,0,0,1,4.78-1.34l-.6-2.64A37.091,37.091,0,0,0,73.2-9.1a3.328,3.328,0,0,0-3.16-2.12,5.561,5.561,0,0,0-2.3.58,9.806,9.806,0,0,0,.66-1.56H77v-2.46H69.12c.18-.76.24-1.08.32-1.6ZM-101.24,13.88a28.277,28.277,0,0,0,.78,3.02h-7.86v2.48h8.76a26.072,26.072,0,0,0,3.36,6.1l2.28-1.42a18.518,18.518,0,0,1-2.94-4.78,32.6,32.6,0,0,0,5.24-.64l-.42-2.52a38.661,38.661,0,0,1-5.76.72,20.1,20.1,0,0,1-.74-3.24Zm-1.06,7.48c-3.76,1.14-5.1,3.2-5.1,5.12a3.745,3.745,0,0,0,2.08,3.34c1.34.72,2.78,1.08,6.86,1.08,1.98,0,3.4-.06,4.62-.18l.1-2.58a43.07,43.07,0,0,1-5.2.3c-3.7,0-5.88-.26-5.88-2.06,0-.96.7-2.18,3.58-3Zm25.32-7.72c.04.7.12,3.28.14,3.9l-6.32.14.04-3.74h-2.66v3.82l-3.06.06.08,2.44,2.98-.06v4.72a10.511,10.511,0,0,0,.4,3.42c.96,2.12,3.16,2.48,7.74,2.48,3.3,0,4.26-.08,4.92-.14V28.1a41.014,41.014,0,0,1-5.52.24c-4.88,0-5-.18-4.98-3.52l.04-4.68,6.42-.14a17.987,17.987,0,0,1-.18,2.98c-.14.76-.28,1.12-1.06,1.12a17.751,17.751,0,0,1-2.46-.26l.14,2.4a16.116,16.116,0,0,0,2.54.22c3.4,0,3.5-2.1,3.6-6.52l3.04-.08-.04-2.44-3,.06a33.634,33.634,0,0,0-.18-3.88Zm22.5,1.12a37.538,37.538,0,0,0-8.92-1.24l-.42,2.46a35.407,35.407,0,0,1,8.76,1.46Zm-11.76,1.98a5.708,5.708,0,0,0-.4,1.68c-.12,1.22-.2,5.26-.2,6.62l2.62.04a5.239,5.239,0,0,0,.02-.56,8.983,8.983,0,0,1,6.08-2.36c1.28,0,3.24.52,3.24,2.6,0,3.8-5.14,3.8-6.98,3.8a31.036,31.036,0,0,1-4.96-.42l.2,2.54a29.55,29.55,0,0,0,4.5.28c4,0,5.68-.46,6.98-1.16a5.316,5.316,0,0,0,3-5c0-2.78-1.9-5.02-5.42-5.02a12.256,12.256,0,0,0-6.6,1.92c.04-2.84.18-3.7.5-4.58Zm21.1-3c0,.06-.02,2.68-.02,2.94h-3.32v2.5h3.3v1.44a21.833,21.833,0,0,1-3.92,4.94l1.46,2.56a14.612,14.612,0,0,0,2.44-3.06c-.02.84-.06,4.96-.06,5.9h2.7c-.04-1.02-.1-3.16-.1-5.72,0-1.52.02-2.34.06-4.1,2.1-2.66,4.14-3.5,5.18-3.5,1.18,0,1.26,1.1,1.22,2.34l-.2,5.18c-.16,4.36,1.72,4.86,5.04,5.12l.58-2.64c-2.94.06-2.9-1.06-2.86-2.72l.16-5.32a5.894,5.894,0,0,0-.46-3.06,3.281,3.281,0,0,0-2.86-1.52c-2.48,0-4.6,1.64-5.74,2.74.02-1.34.08-3.54.1-4.02Zm33.7.7c-2.04.08-11.2.42-12.92.52-1.9.1-3.46.18-4.42.18l.1,2.8c1.26-.12,7.44-.64,8.84-.76-4.76,3.04-5.12,6.36-5.12,7.66a5.452,5.452,0,0,0,3.1,4.76c1.84.9,3.88,1.32,8.26,1.34l.38-2.86c-8.32.28-8.98-2.06-8.98-3.6,0-2.5,2.18-4.6,3.32-5.48a8.511,8.511,0,0,1,5.02-1.92c.62-.02,1.88,0,2.5.02Zm3.08.2c-.08,1.04-.3,3.3-.3,5.8,0,2.38.18,10.18,4.56,10.18,3.16,0,4.74-4.24,5.26-5.68l-2.22-1.22A13.889,13.889,0,0,1-2.38,26.5c-.4.62-.82,1.12-1.48,1.12-1.88,0-2.12-5.14-2.12-7.3a33.374,33.374,0,0,1,.48-5.44ZM8.96,28.52c.02-4.12-.08-9.54-4.28-13.5l-2.14,1.5c3.3,3.42,3.48,7.36,3.48,12.16Zm2.86-13.08v2.38h7.3V19.6H12.2v2.32h6.92v1.72a6.1,6.1,0,0,0-1.6-.16c-2.64,0-5.16,1.18-5.16,3.82,0,1.64,1.12,3.7,5,3.7,4.42,0,4.42-2.62,4.42-3.52V27.1a28.282,28.282,0,0,1,4.06,3.24l1.74-2.32a22.01,22.01,0,0,0-5.8-3.68V21.92h5.84V19.6H21.78V17.82h6.24V15.44H21.78V13.7H19.12v1.74Zm7.34,11.54c0,.82-.14,1.68-2,1.68-.92,0-2.3-.22-2.3-1.42,0-1.24,1.46-1.58,2.48-1.58a5.26,5.26,0,0,1,1.82.34ZM43.02,13.64c.04.7.12,3.28.14,3.9l-6.32.14.04-3.74H34.22v3.82l-3.06.06.08,2.44,2.98-.06v4.72a10.511,10.511,0,0,0,.4,3.42c.96,2.12,3.16,2.48,7.74,2.48,3.3,0,4.26-.08,4.92-.14V28.1a41.014,41.014,0,0,1-5.52.24c-4.88,0-5-.18-4.98-3.52l.04-4.68L43.24,20a17.987,17.987,0,0,1-.18,2.98c-.14.76-.28,1.12-1.06,1.12a17.751,17.751,0,0,1-2.46-.26l.14,2.4a16.116,16.116,0,0,0,2.54.22c3.4,0,3.5-2.1,3.6-6.52l3.04-.08-.04-2.44-3,.06a33.634,33.634,0,0,0-.18-3.88Zm13.16,0c-.28.92-.68,2.16-1.32,4.2-1.14,3.6-1.42,4.48-3.86,12.44l2.76.84c.18-.72,1.02-4.1,1.08-4.38.34-.9,1.32-3.5,3.48-3.5,1.3,0,1.3.92,1.3,2.44v.82c0,2.58,1.06,4.44,3.94,4.44,3.52,0,5.04-2.68,5.54-7.98l-2.58-.74c-.4,4.84-1.4,6.1-2.78,6.1-1.46,0-1.46-1.56-1.46-2.06V25.2c0-1.42,0-4.52-3.32-4.52a3.893,3.893,0,0,0-2.34.76c.18-.58,2.1-5.96,2.58-7.28Zm18.88-.12c-.04.86-.14,1.92-.34,3.62H71.38V19.7l2.96-.04a30.646,30.646,0,0,1-3.26,9.98l2.6,1.2c.54-.98,1.88-3.5,3.3-11.2l1.96-.02c1.24-.02,2.34.16,2.34,2.64a18.422,18.422,0,0,1-.76,5.28c-.32.7-.94.92-1.84.92a18.173,18.173,0,0,1-2.6-.26l.16,2.58a27.227,27.227,0,0,0,2.96.2,3.735,3.735,0,0,0,3.2-1.3c.98-1.2,1.48-4.44,1.48-6.66,0-2.7-.46-5.88-4.34-5.88H77.4c.2-1.16.3-2.16.44-3.46Zm14.2,10.92c-.44-5.16-1.92-7.4-3.3-9.12L83.68,16.5c.98,1.26,2.46,3.36,2.76,8.4Zm11.22,1.08c0-1.46,0-1.62.86-2.14l2.06-1.22c1.64-.98,2.06-1.9,2.06-4.08,0-3.66-2.42-4-5.38-4-5.02,0-5.54,1.52-5.54,5.36h2.58c0-2.22.14-2.96,2.96-2.96,2.14,0,2.8.3,2.8,2.12,0,1.2-.42,1.46-1.24,1.92L99.3,21.84c-1.38.78-1.38,1.56-1.38,3.68Zm.1,4.48V27.18H97.82V30Z" transform="translate(117.32 23.12)"/>
  </g>
</svg>
