<svg xmlns="http://www.w3.org/2000/svg" xmlns:xlink="http://www.w3.org/1999/xlink" width="760" height="220.673" viewBox="0 0 760 220.673">
  <defs>
    <filter id="パス_2754" x="92.288" y="64.56" width="575.48" height="72.376" filterUnits="userSpaceOnUse">
      <feOffset dy="3" input="SourceAlpha"/>
      <feGaussianBlur stdDeviation="3" result="blur"/>
      <feFlood flood-opacity="0.161"/>
      <feComposite operator="in" in2="blur"/>
      <feComposite in="SourceGraphic"/>
    </filter>
    <filter id="パス_2753" x="93.144" y="15.632" width="142" height="46.096" filterUnits="userSpaceOnUse">
      <feOffset dy="3" input="SourceAlpha"/>
      <feGaussianBlur stdDeviation="3" result="blur-2"/>
      <feFlood flood-opacity="0.161"/>
      <feComposite operator="in" in2="blur-2"/>
      <feComposite in="SourceGraphic"/>
    </filter>
    <filter id="パス_2755" x="94.2" y="141.632" width="449.104" height="46.16" filterUnits="userSpaceOnUse">
      <feOffset dy="3" input="SourceAlpha"/>
      <feGaussianBlur stdDeviation="3" result="blur-3"/>
      <feFlood flood-opacity="0.161"/>
      <feComposite operator="in" in2="blur-3"/>
      <feComposite in="SourceGraphic"/>
    </filter>
  </defs>
  <g id="グループ_244" data-name="グループ 244" transform="translate(-260 -1324)">
    <g id="e0772_1" transform="translate(240 1315.7)" opacity="0.289">
      <path id="パス_2116" data-name="パス 2116" d="M367.4,206.217l30.7,22.756,30-22.756H741.2l38.8-27V35.371L741.2,8.3H58.8L20,35.371V179.215l38.8,27Z" fill="#f29600"/>
    </g>
    <rect id="長方形_146" data-name="長方形 146" width="560" height="28" transform="translate(360 1427)" fill="#f29600"/>
    <g transform="matrix(1, 0, 0, 1, 260, 1324)" filter="url(#パス_2754)">
      <path id="パス_2754-2" data-name="パス 2754" d="M21-23.912v8.848h5.376l-5.04,2.744A36.5,36.5,0,0,0,26.488-6.5,41.03,41.03,0,0,1,16.464-4.48l3.192,9.8A58.028,58.028,0,0,0,35.448-.28,94.434,94.434,0,0,0,51.184,5.656l4.088-9.688a53.493,53.493,0,0,1-10.92-2.744,26.628,26.628,0,0,0,5.936-8.288v-8.848H24.3c4.76-3.416,7.5-7.448,8.12-14.728h3.584v7.28c0,3.3.9,5.264,5.208,5.264h7.392c4.816,0,6.1-3.024,6.328-13.1l-7.168-2.184c0,2.744-.168,4.648-.224,5.152-.056.336-.224,1.064-.952,1.064H45.64c-.672,0-.9-.336-.9-1.512v-10.3h-21v4.76a11.1,11.1,0,0,1-4.144,9.3v-6.16H15.624V-47.88H6.888v8.792H1.568v8.736h5.32v8.68a46.8,46.8,0,0,1-5.6,1.232l.784,9.52c2.408-.672,3.472-.952,4.816-1.344v6.5c0,1.008,0,1.624-1.344,1.624H1.512l1.4,9.464H10.64c3.472,0,4.984-1.792,4.984-5.04V-14.952c1.9-.672,2.8-1.064,3.864-1.512v-8.9c-1.4.5-2.3.784-3.864,1.288v-6.272H18.76l5.1,6.44Zm18.648,8.848a15.29,15.29,0,0,1-4.2,4.088,29.2,29.2,0,0,1-5.32-4.088Zm66.136-9.016c1.008.224,1.232.28,1.792.392l3.528-8.4c-9.912-.84-14-2.856-16.408-7h5.488a18.285,18.285,0,0,1-1.792,2.8l8.12,2.464a33.546,33.546,0,0,0,2.968-6.328V-45.7H88.032a14.554,14.554,0,0,0,1.176-2.016l-9.352-.28a23.638,23.638,0,0,1-8.96,7l4.592,6.328A29.087,29.087,0,0,0,82.1-39.088h3.64c-1.9,4.872-9.576,6.048-12.376,6.216l2.3,5.1H68.6a39.406,39.406,0,0,0,3.7-1.792l-.784-7.952A101.1,101.1,0,0,1,56.9-32.76l1.848,9.016c.952-.336,1.512-.5,3.024-1.12V-3.92h9.52c-4.536,1.512-8.064,1.96-14.616,2.072l3.7,7.784c7.392-.9,13.16-2.408,19.376-5.768L75.992-3.92H91.28L87.808,0c7.5,3.472,11.536,4.536,19.656,5.824l3.7-8.008A48.969,48.969,0,0,1,96.824-3.92h8.96Zm-34.664.952H96.432v1.9H71.12Zm0,5.936H96.432v1.96H71.12Zm0,6.1H96.432v1.96H71.12ZM83.552-27.776a21.614,21.614,0,0,0,6.944-5.6,19.868,19.868,0,0,0,6.216,5.6ZM57.68-40.88a45.048,45.048,0,0,1,9.912,4.144l4.368-7.392a57.1,57.1,0,0,0-10.36-3.64ZM154.728-5.824c0,1.344-.112,1.68-1.456,1.68h-5.264l1.624,9.52h5.936c3.3,0,8.68,0,8.68-6.832V-46.088H118.72v27.44a28.644,28.644,0,0,1-5.6,17.528l8.008,6.664c3.584-3.864,5.712-11.592,6.216-16.184h9.3V4.872h8.736V-10.64h9.352ZM136.64-37.464V-32.2h-8.792v-5.264Zm18.088,0V-32.2h-9.352v-5.264ZM136.64-24.136v5.32h-8.848c0-.28.056-1.456.056-1.736v-3.584Zm18.088,0v5.32h-9.352v-5.32Zm54.152,19.6a92.465,92.465,0,0,0-8.344-8.68c16.632-11.368,19.432-23.072,20.5-28.9H171.3V-32.7H206.64c-1.456,2.52-4.536,7.952-13.216,13.16a87.944,87.944,0,0,0-8.456-6.328L177.3-19.264c6.776,4.872,16.8,13.664,22.792,21.952Zm42.672-30.912a81.869,81.869,0,0,0-18.76-8.176L228.48-35.28a76.256,76.256,0,0,1,17.864,8.792ZM232.568,2.968c16.8-2.632,36.288-7.056,45.136-38.192l-9.128-4.648c-6.272,22.9-17.7,30.464-39.312,32.312Zm76.776-42.56a75.373,75.373,0,0,0-17.864-5.432l-3.36,7.952a75.174,75.174,0,0,1,17.472,6.1Zm-5.152,14.056a72.09,72.09,0,0,0-17.136-5.992l-3.248,8.064a76.673,76.673,0,0,1,16.8,6.664ZM289.576,3.36C309.232.728,324.016-4.816,333.424-33.1l-9.184-4.536C316.68-11.816,304.248-8.9,286.72-7.224Zm56.672-38.584v8.232H371.5v6.272H347.2v7.952h24.3v6.5H345.688V2.184H380.8V-35.224Zm73.3-.224a81.869,81.869,0,0,0-18.76-8.176L396.48-35.28a76.257,76.257,0,0,1,17.864,8.792ZM400.568,2.968c16.8-2.632,36.288-7.056,45.136-38.192l-9.128-4.648c-6.272,22.9-17.7,30.464-39.312,32.312ZM471.24,5.544A16.6,16.6,0,0,0,474.376.056l2.3,5.208a42.022,42.022,0,0,0,11.256-6.552,46.788,46.788,0,0,0,11.424,6.664L503.5-3.248a32.211,32.211,0,0,1-9.408-4.368,29.192,29.192,0,0,0,5.936-12.1v-8.12h-9.968v-7h3.08a11.157,11.157,0,0,1-1.288,4.144l8.68,1.68c.616-1.96,1.736-5.712,1.96-14.28H490.336v-4.76h-9.072v4.76H469.672v15.344L468.1-29.008a34,34,0,0,1-3.36,5.712l4.088,3.36a8.364,8.364,0,0,0,.84-1.064c-.056,2.128-.056,2.408-.168,3.976a29.469,29.469,0,0,1-6.216-6.552,47.585,47.585,0,0,0,3.92-8.736V-41.1h-4.144v-6.944h-8.512V-41.1H449.4v8.792h8.9c-1.232,2.576-3.472,6.384-10.024,11.368L450.744-9.3a44.909,44.909,0,0,0,3.808-3.136V5.32h8.512V-12.656a32.657,32.657,0,0,0,2.52,3.36l3.808-7.056a36.457,36.457,0,0,1-4.816,14.728Zm10.024-40.376v7h-3.416v-7ZM477.792-17.08c.056-1.008.056-1.288.056-2.464h13.5a26.927,26.927,0,0,1-3.136,5.88,26.262,26.262,0,0,1-2.856-5.04Zm0,.392a42.59,42.59,0,0,0,4.48,9.072,27.6,27.6,0,0,1-6.5,3.64A59.877,59.877,0,0,0,477.792-16.688ZM511.28-30.52h16.072v1.848h-16.8v4.312h16.8v1.792h-22.12V-15.4h53.536v-7.168H536.7V-24.36h16.688v-4.312H536.7V-30.52H552.72v-1.064h4.648V-45.64H536.984v-2.8h-9.912v2.8H506.688v14.056h4.592Zm5.1-5.432v-2.24h10.976v2.24Zm20.328-2.24h11.088v2.24H536.7ZM510.552,5.376h10.08V3.64h22.96V5.376h9.688V-13.552H510.552Zm10.08-12.04h22.96v2.912h-22.96Z" transform="translate(100 119)"/>
    </g>
    <g transform="matrix(1, 0, 0, 1, 260, 1324)" filter="url(#パス_2753)">
      <path id="パス_2753-2" data-name="パス 2753" d="M9.664-23.392H2.912v3.968H9.664A9.646,9.646,0,0,0,9.632-18.4c0,.736,0,1.824.064,2.464C2.272-12.96,2.144-7.3,2.144-6.112,2.144-2.656,4.192.032,7.968.032,12.7.032,18.656-4.8,21.12-13.248c4.416,1.376,4.416,4.576,4.416,5.184,0,1.12-.352,4.16-4.608,5.344a20.232,20.232,0,0,1-5.568.608L16.64,1.7c5.44-.032,13.088-1.76,13.088-9.568,0-5.6-4.48-9.408-12.448-9.408a18.065,18.065,0,0,0-3.52.288c0-.224,0-1.568.032-2.432h14.72v-3.968H13.92l.064-2.688L9.7-26.112ZM14.5-7.872a43.9,43.9,0,0,1-.64-5.76,11.964,11.964,0,0,1,2.4-.224c.448,0,.768.032,1.184.032A15.451,15.451,0,0,1,14.5-7.872ZM11.264-4.7A4.529,4.529,0,0,1,8.48-3.648c-2.5,0-2.5-2.432-2.5-2.912,0-2.432,1.536-4.352,4-5.7A34.48,34.48,0,0,0,11.264-4.7ZM39.936-26.368c-.192,1.408-.32,2.56-.544,3.872H33.984v4h4.672A57.354,57.354,0,0,1,33.664-3.168L37.984-1.7a112.873,112.873,0,0,0,5.024-16.8h6.944v-4H43.84c.224-1.12.352-2.08.576-3.584Zm22.016,3.392c-6.08.1-7.872.352-10.208.9l.32,11.552a18.864,18.864,0,0,0-2.3-.16c-5.92,0-8.128,3.264-8.128,6.336,0,2.72,1.824,6.08,7.648,6.08,5.7,0,6.944-3.776,6.944-5.6v-.576a25.134,25.134,0,0,1,4.064,3.52L62.72-4.992a28.228,28.228,0,0,0-6.432-4.224L56-18.368a17.937,17.937,0,0,1,3.328-.224,22.728,22.728,0,0,1,2.656.128ZM52.192-4.864c0,2.272-1.664,2.816-3.3,2.816-1.344,0-3.392-.512-3.392-2.368,0-2.048,2.176-2.752,4.032-2.752a7.094,7.094,0,0,1,2.656.512ZM71.9-25.92c-.064.992-.128,2.208-.32,3.712H66.752v3.936H71.04C70.784-16.7,69.024-6.176,65.984.256l4.128,1.408c2.08-4.736,4.128-14.144,5.056-19.936H83.68v-3.936h-7.9c.224-1.568.352-2.56.48-3.68Zm21.344,7.84c-8.16-.128-11.168.928-13.6,1.984l1.28,3.488c1.376-.512,3.68-1.408,9.248-1.408,1.344,0,2.24.064,3.1.1Zm-13.472,7.9a8.678,8.678,0,0,0-2.688,5.728c0,5.888,7.584,5.888,11.136,5.888,3.584,0,4.16-.032,5.44-.128V-2.816a64.078,64.078,0,0,1-6.784.32c-2.08,0-5.856,0-5.856-2.432,0-.512.16-1.632,1.728-3.264ZM99.84-25.952a76.907,76.907,0,0,0-1.12,13.536,87.146,87.146,0,0,0,.96,13.824L103.968.9a67.753,67.753,0,0,1-1.088-13.024,61.776,61.776,0,0,1,1.312-13.408Zm6.24,5.248v4h9.248l.128,6.432a10.48,10.48,0,0,0-2.56-.256c-4.768,0-7.328,2.976-7.328,6.08,0,1.7.96,5.856,7.392,5.856,6.368,0,6.464-4.032,6.5-5.792A25.477,25.477,0,0,1,123.424-.7l2.72-3.68a26.281,26.281,0,0,0-6.528-4.608l-.1-7.712h5.728v-4h-5.792v-5.184h-4.192V-20.7Zm9.44,15.648c0,1.28-.032,2.912-2.72,2.912-3.04,0-3.392-1.664-3.392-2.336,0-1.376,1.312-2.528,3.584-2.528a5.942,5.942,0,0,1,2.528.544Z" transform="translate(100 48)"/>
    </g>
    <g transform="matrix(1, 0, 0, 1, 260, 1324)" filter="url(#パス_2755)">
      <path id="パス_2755-2" data-name="パス 2755" d="M12.448-23.488v4.1H28.48v-4.1ZM13.376-12.7a10.842,10.842,0,0,0-1.92,5.952c0,6.688,7.456,6.688,11.712,6.688,1.76,0,4.16-.064,5.856-.224V-4.544a63.273,63.273,0,0,1-8.128.32c-3.744,0-5.536-.9-5.536-2.912a7.323,7.323,0,0,1,1.472-4.032ZM4.352-25.728a129.98,129.98,0,0,0-1.152,16A55.93,55.93,0,0,0,4.256,1.6l4.32-.416A56.659,56.659,0,0,1,7.488-10.432a90.023,90.023,0,0,1,1.28-14.944Zm37.312,2.336H34.912v3.968h6.752a9.646,9.646,0,0,0-.032,1.024c0,.736,0,1.824.064,2.464-7.424,2.976-7.552,8.64-7.552,9.824,0,3.456,2.048,6.144,5.824,6.144C44.7.032,50.656-4.8,53.12-13.248c4.416,1.376,4.416,4.576,4.416,5.184,0,1.12-.352,4.16-4.608,5.344a20.232,20.232,0,0,1-5.568.608L48.64,1.7c5.44-.032,13.088-1.76,13.088-9.568,0-5.6-4.48-9.408-12.448-9.408a18.065,18.065,0,0,0-3.52.288c0-.224,0-1.568.032-2.432h14.72v-3.968H45.92l.064-2.688L41.7-26.112ZM46.5-7.872a43.9,43.9,0,0,1-.64-5.76,11.964,11.964,0,0,1,2.4-.224c.448,0,.768.032,1.184.032A15.451,15.451,0,0,1,46.5-7.872ZM43.264-4.7A4.529,4.529,0,0,1,40.48-3.648c-2.5,0-2.5-2.432-2.5-2.912,0-2.432,1.536-4.352,4-5.7A34.48,34.48,0,0,0,43.264-4.7ZM72.8,1.024a49.828,49.828,0,0,0,8.448-.64c2.752-.448,10.4-1.7,10.4-10.208,0-5.888-4.576-8.544-9.344-8.544a49.973,49.973,0,0,0-6.4.64c-1.12.16-6.592,1.056-7.808,1.216l.736,4.192C74.5-13.5,79.36-14.528,82.048-14.528c2.56,0,5.12,1.12,5.12,4.736,0,6.464-7.008,7.008-14.976,7.072ZM125.7-24.9c-3.264.128-17.92.672-20.672.832-3.04.16-5.536.288-7.072.288l.16,4.48c2.016-.192,11.9-1.024,14.144-1.216-7.616,4.864-8.192,10.176-8.192,12.256a8.724,8.724,0,0,0,4.96,7.616C111.968.8,115.232,1.472,122.24,1.5l.608-4.576c-13.312.448-14.368-3.3-14.368-5.76,0-4,3.488-7.36,5.312-8.768a13.617,13.617,0,0,1,8.032-3.072c.992-.032,3.008,0,4,.032Zm4.928.32c-.128,1.664-.48,5.28-.48,9.28,0,3.808.288,16.288,7.3,16.288,5.056,0,7.584-6.784,8.416-9.088L142.3-10.048A22.223,22.223,0,0,1,140.192-5.6c-.64.992-1.312,1.792-2.368,1.792-3.008,0-3.392-8.224-3.392-11.68a53.4,53.4,0,0,1,.768-8.7ZM158.336-2.368c.032-6.592-.128-15.264-6.848-21.6l-3.424,2.4c5.28,5.472,5.568,11.776,5.568,19.456ZM164.8-25.6v4.064l12.064-.192c-4.768,4.384-9.568,8.8-14.4,13.056l2.4,3.712c1.184-1.248,4.416-4.416,5.5-5.44a13.8,13.8,0,0,1,8.192-2.816c1.056,0,5.952,0,5.952,5.408,0,2.848-1.632,4.544-4.416,5.376.032-.448.064-.64.064-.9a5.679,5.679,0,0,0-5.92-5.792c-2.88,0-5.984,1.792-5.984,4.992A5.237,5.237,0,0,0,170.848.256,10.538,10.538,0,0,0,176.8,1.664c8.448,0,12.16-4.608,12.16-9.824,0-4.128-2.592-8.736-8.832-8.736a9.6,9.6,0,0,0-3.552.576c.928-.768,1.472-1.216,6.56-5.824V-25.6ZM176.64-1.92c-4.128.32-4.832-1.152-4.832-2.048,0-1.024.864-1.792,2.24-1.792a2.723,2.723,0,0,1,2.72,2.976A2.975,2.975,0,0,1,176.64-1.92ZM200.1-26.368c-.064,1.376-.224,3.072-.544,5.792h-5.344v4.1l4.736-.064A49.034,49.034,0,0,1,193.728-.576l4.16,1.92c.864-1.568,3.008-5.6,5.28-17.92l3.136-.032c1.984-.032,3.744.256,3.744,4.224,0,1.088-.224,6.208-1.216,8.448-.512,1.12-1.5,1.472-2.944,1.472a29.076,29.076,0,0,1-4.16-.416l.256,4.128a43.564,43.564,0,0,0,4.736.32c2.336,0,3.936-.608,5.12-2.08,1.568-1.92,2.368-7.1,2.368-10.656,0-4.32-.736-9.408-6.944-9.408H203.84c.32-1.856.48-3.456.7-5.536ZM222.816-8.9c-.7-8.256-3.072-11.84-5.28-14.592L213.888-21.6c1.568,2.016,3.936,5.376,4.416,13.44Zm9.568-13.12h-5.5v3.936h5.344l-.192,4.864H226.4v3.9h5.5c0,7.84,1.248,10.944,10.24,10.944,5.28,0,11.328-.8,11.328-8.576a16.66,16.66,0,0,0-2.048-8.064l-3.936,1.152a14.918,14.918,0,0,1,1.6,6.464c0,4.416-2.72,4.928-6.784,4.928-6.016,0-6.08-1.12-6.08-6.848h.736c5.76,0,7.712-.512,9.312-1.5L244.9-14.464c-1.28.736-3.1,1.248-7.52,1.248h-1.024l.256-4.864h9.728v-3.936h-9.5l.224-4h-4.512Zm29.728-3.968c0,2.208-.1,9.6-.1,14.24,0,4.608,0,7.552,1.6,9.76C265.536.64,268.384,1.5,271.9,1.5c7.808,0,12.064-4.576,13.472-12.448l-4.16-1.472c-.352,2.272-1.408,9.824-9.216,9.824-4.992,0-5.7-2.976-5.7-6.752,0-4.768.32-15.584.352-16.608Zm33.664-.032c0,.1-.032,4.288-.032,4.7h-5.312v4h5.28v2.3a34.933,34.933,0,0,1-6.272,7.9l2.336,4.1a23.38,23.38,0,0,0,3.9-4.9c-.032,1.344-.1,7.936-.1,9.44h4.32c-.064-1.632-.16-5.056-.16-9.152,0-2.432.032-3.744.1-6.56,3.36-4.256,6.624-5.6,8.288-5.6,1.888,0,2.016,1.76,1.952,3.744l-.32,8.288C309.5-.768,312.512.032,317.824.448l.928-4.224c-4.7.1-4.64-1.7-4.576-4.352l.256-8.512c.064-2.3-.128-3.872-.736-4.9a5.249,5.249,0,0,0-4.576-2.432c-3.968,0-7.36,2.624-9.184,4.384.032-2.144.128-5.664.16-6.432Zm27.136,2.72v3.808h11.68v2.848H323.52v3.712h11.072v2.752a9.757,9.757,0,0,0-2.56-.256c-4.224,0-8.256,1.888-8.256,6.112,0,2.624,1.792,5.92,8,5.92,7.072,0,7.072-4.192,7.072-5.632V-4.64a45.251,45.251,0,0,1,6.5,5.184l2.784-3.712a35.217,35.217,0,0,0-9.28-5.888v-3.872h9.344V-16.64h-9.344v-2.848h9.984V-23.3h-9.984V-26.08h-4.256V-23.3ZM334.656-4.832c0,1.312-.224,2.688-3.2,2.688-1.472,0-3.68-.352-3.68-2.272,0-1.984,2.336-2.528,3.968-2.528a8.416,8.416,0,0,1,2.912.544Zm38.176-21.344c.064,1.12.192,5.248.224,6.24l-10.112.224.064-5.984h-4.256v6.112l-4.9.1.128,3.9,4.768-.1v7.552a16.818,16.818,0,0,0,.64,5.472c1.536,3.392,5.056,3.968,12.384,3.968,5.28,0,6.816-.128,7.872-.224V-3.04a65.623,65.623,0,0,1-8.832.384c-7.808,0-8-.288-7.968-5.632l.064-7.488L373.184-16a28.78,28.78,0,0,1-.288,4.768c-.224,1.216-.448,1.792-1.7,1.792a28.4,28.4,0,0,1-3.936-.416l.224,3.84a25.786,25.786,0,0,0,4.064.352c5.44,0,5.6-3.36,5.76-10.432l4.864-.128-.064-3.9-4.8.1a53.811,53.811,0,0,0-.288-6.208Zm21.056,0c-.448,1.472-1.088,3.456-2.112,6.72-1.824,5.76-2.272,7.168-6.176,19.9l4.416,1.344c.288-1.152,1.632-6.56,1.728-7.008.544-1.44,2.112-5.6,5.568-5.6,2.08,0,2.08,1.472,2.08,3.9V-5.6c0,4.128,1.7,7.1,6.3,7.1,5.632,0,8.064-4.288,8.864-12.768l-4.128-1.184c-.64,7.744-2.24,9.76-4.448,9.76-2.336,0-2.336-2.5-2.336-3.3v-1.7c0-2.272,0-7.232-5.312-7.232a6.229,6.229,0,0,0-3.744,1.216c.288-.928,3.36-9.536,4.128-11.648Zm35.808.96.576,17.952h3.456l.576-17.952Zm.1,20.7V0h4.416V-4.512Z" transform="translate(100 174)"/>
    </g>
  </g>
</svg>
