<svg xmlns="http://www.w3.org/2000/svg" xmlns:xlink="http://www.w3.org/1999/xlink" width="450.409" height="48.432" viewBox="0 0 450.409 48.432">
  <defs>
    <filter id="パス_2836" x="27.853" y="0" width="397.104" height="48.432" filterUnits="userSpaceOnUse">
      <feOffset dy="3" input="SourceAlpha"/>
      <feGaussianBlur stdDeviation="3" result="blur"/>
      <feFlood flood-opacity="0.161"/>
      <feComposite operator="in" in2="blur"/>
      <feComposite in="SourceGraphic"/>
    </filter>
  </defs>
  <g id="グループ_288" data-name="グループ 288" transform="translate(-414.795 -8667.64)">
    <g transform="matrix(1, 0, 0, 1, 414.8, 8667.64)" filter="url(#パス_2836)">
      <path id="パス_2836-2" data-name="パス 2836" d="M-165.824-24.8c-1.7,0-5.408-.032-7.168,0-1.92.032-10.048.128-11.584.128-.736,0-1.792-.032-2.432-.064v4.224c1.92-.1,8.544-.256,10.624-.32-.768.416-2.5,1.344-3.2,1.824l2.88,2.528c1.44-.9,5.888-3.712,10.88-4.448Zm-18.848,10.3c-2.176,2.4-3.68,4.576-3.68,7.584A6.844,6.844,0,0,0-184.7-.992C-181.92.48-179.136.832-172.544.832a59.5,59.5,0,0,0,8.416-.416l-.1-4.32a73.149,73.149,0,0,1-9.568.544c-4.9,0-10.272-.064-10.272-3.808,0-1.184.416-2.912,2.592-5.12Zm18.624,1.472a26.761,26.761,0,0,0-3.072-4.768l-2.368,1.344a30.679,30.679,0,0,1,2.944,4.864Zm4.064-2.048a21.594,21.594,0,0,0-3.04-4.608l-2.4,1.344a27.3,27.3,0,0,1,2.976,4.672Zm16.288-11.2V2.976h3.84V1.344h8.1V2.976h3.808V-26.272Zm11.936,11.424V-10.4h-8.1v-4.448Zm0,7.9V-2.3h-8.1v-4.64Zm0-15.648V-18.3h-8.1v-4.288ZM-158.272-3.3a25.771,25.771,0,0,0,3.872-7.1V2.976h3.84V-10.432a28.977,28.977,0,0,0,2.4,3.584l2.048-3.552a20.928,20.928,0,0,1-4.448-5.952V-17.92h3.776v-3.744h-3.776V-27.3h-3.84v5.632h-4.64v3.744h4.416a26.579,26.579,0,0,1-4.992,9.7Zm39.1-1.12v3.04h-3.712v-3.04Zm5.152,7.424a14.576,14.576,0,0,0,8.064-7.68c.576,1.472,2.048,5.12,7.872,7.68l1.824-3.744A14.03,14.03,0,0,1-101.6-3.9a9.993,9.993,0,0,1-2.624-7.616v-1.952H-108v2.112c0,5.088-1.728,8.608-7.968,10.752V-7.424H-126.3V2.944h3.424V1.728h6.912V-.512ZM-126.3-9.088h10.336v-3.2H-126.3Zm11.3-1.44a26.054,26.054,0,0,1,1.792,6.144l3.552-1.056a27.489,27.489,0,0,0-1.984-6.08Zm-11.3-12.8h10.336V-26.5H-126.3Zm11.68-1.664A19.632,19.632,0,0,1-113.5-19.1l3.68-1.056a27.057,27.057,0,0,0-1.472-5.824Zm-11.68,11.04h10.336v-3.1H-126.3ZM-108-25.5c0,5.152-2.784,8.512-7.648,10.176l2.016,3.616a15.033,15.033,0,0,0,7.68-7.616,15.085,15.085,0,0,0,7.712,7.68l1.92-3.68a12.851,12.851,0,0,1-5.088-3.232,9.027,9.027,0,0,1-2.752-7.1V-27.2H-108Zm-19.232,6.944h12.224v-3.2h-12.224Zm26.464-7.52a25.234,25.234,0,0,1-2.016,5.568l3.2,1.408a28.264,28.264,0,0,0,2.3-5.888Zm.32,14.4a31.257,31.257,0,0,1-2.208,6.016l3.264,1.312a28.427,28.427,0,0,0,2.464-6.4ZM-87.9-26.368c-.064,1.376-.224,3.072-.544,5.792h-5.344v4.1l4.736-.064A49.034,49.034,0,0,1-94.272-.576l4.16,1.92c.864-1.568,3.008-5.6,5.28-17.92l3.136-.032c1.984-.032,3.744.256,3.744,4.224,0,1.088-.224,6.208-1.216,8.448-.512,1.12-1.5,1.472-2.944,1.472a29.076,29.076,0,0,1-4.16-.416l.256,4.128a43.563,43.563,0,0,0,4.736.32c2.336,0,3.936-.608,5.12-2.08,1.568-1.92,2.368-7.1,2.368-10.656,0-4.32-.736-9.408-6.944-9.408H-84.16c.32-1.856.48-3.456.7-5.536ZM-65.184-8.9c-.7-8.256-3.072-11.84-5.28-14.592L-74.112-21.6c1.568,2.016,3.936,5.376,4.416,13.44Zm26.016-15.488A60.061,60.061,0,0,0-53.44-26.368l-.672,3.936A56.651,56.651,0,0,1-40.1-20.1Zm-18.816,3.168a9.133,9.133,0,0,0-.64,2.688c-.192,1.952-.32,8.416-.32,10.592l4.192.064a8.385,8.385,0,0,0,.032-.9,14.373,14.373,0,0,1,9.728-3.776c2.048,0,5.184.832,5.184,4.16,0,6.08-8.224,6.08-11.168,6.08a49.658,49.658,0,0,1-7.936-.672l.32,4.064a47.28,47.28,0,0,0,7.2.448c6.4,0,9.088-.736,11.168-1.856a8.506,8.506,0,0,0,4.8-8c0-4.448-3.04-8.032-8.672-8.032-2.176,0-7.2.576-10.56,3.072.064-4.544.288-5.92.8-7.328ZM-29.248-9.472c0,1.6,0,6.208-2.272,9.728l2.912,2.752a17.5,17.5,0,0,0,2.336-7.52h7.008v2.784c0,.96-.224.96-1.216.96h-2.912l.672,3.68h3.648c1.12,0,2.88,0,2.88-2.912V-19.968h-3.2a11.847,11.847,0,0,0,1.7-2.3v-3.136h-5.76c.224-.544.384-.864.608-1.472l-3.808-.448a17.13,17.13,0,0,1-4.928,7.008l1.216,3.9c.576-.448.736-.608,1.12-.928Zm5.312-7.424v3.168h-2.08V-16.9Zm0,6.144V-7.52h-2.08v-3.232Zm4.672-6.144v3.168h-2.112V-16.9Zm0,6.144V-7.52h-2.112v-3.232Zm-7.52-9.216a24.274,24.274,0,0,0,1.664-2.3h3.328a8.539,8.539,0,0,1-1.888,2.3Zm10.88-6.24v3.36h3.424a7.117,7.117,0,0,1-3.584,3.712l1.92,3.04a10.911,10.911,0,0,0,5.472-6.752h3.424C-5.28-19.9-5.792-19.9-6.88-19.9H-9.632l.8,3.2h3.616A2.631,2.631,0,0,0-2.272-18.5,35.266,35.266,0,0,0-1.6-26.208ZM-9.28-9.824v3.072h-6.176v3.68h6.272V2.912h3.552V-3.072H-.96v-3.68H-5.632V-9.824h4v-3.424h-4V-15.84H-9.28v2.592h-2.048c.224-1.12.32-1.7.416-2.24l-3.232-.544c-.544,3.9-1.088,5.248-1.92,6.688l2.816,2.016a11.57,11.57,0,0,0,1.088-2.5ZM10.4-22.976v3.68h6.528V-16a23.175,23.175,0,0,1-.064,2.464H9.312v3.744h6.88c-1.5,5.12-5.664,7.712-8.64,9.024l2.464,3.68A18.455,18.455,0,0,0,19.264-7.1C20.032-4.96,22.016-.384,29.5,2.944L31.52-.992c-3.52-1.376-8-3.872-9.728-8.8h9.28v-3.744H29.216v-9.44H20.96v-4.256H16.928v4.256Zm10.4,9.44a28.97,28.97,0,0,0,.16-3.008V-19.3h4.224v5.76ZM1.888-24.192A22.394,22.394,0,0,1,7.2-20.768L9.632-24.16a21.23,21.23,0,0,0-5.568-3.2ZM.48-15.584A20.617,20.617,0,0,1,5.7-12.224l2.432-3.36a19.414,19.414,0,0,0-5.6-3.3Zm5.856,4.992A39.422,39.422,0,0,1,.32-.832L2.912,2.816A43.588,43.588,0,0,0,9.344-8.256ZM34.912-23.3v3.808h11.68v2.848H35.52v3.712H46.592v2.752a9.757,9.757,0,0,0-2.56-.256c-4.224,0-8.256,1.888-8.256,6.112,0,2.624,1.792,5.92,8,5.92,7.072,0,7.072-4.192,7.072-5.632V-4.64a45.252,45.252,0,0,1,6.5,5.184l2.784-3.712a35.217,35.217,0,0,0-9.28-5.888v-3.872h9.344V-16.64H50.848v-2.848h9.984V-23.3H50.848V-26.08H46.592V-23.3ZM46.656-4.832c0,1.312-.224,2.688-3.2,2.688-1.472,0-3.68-.352-3.68-2.272,0-1.984,2.336-2.528,3.968-2.528a8.416,8.416,0,0,1,2.912.544ZM89.92-12.384a25.037,25.037,0,0,0-2.944-4.672l-2.5,1.312a37.4,37.4,0,0,1,2.88,4.8Zm4.192-2.208a23.2,23.2,0,0,0-2.912-4.32L88.672-17.6a30.46,30.46,0,0,1,2.944,4.544ZM93.7-24.9c-3.264.128-17.92.672-20.672.832-2.368.128-4.928.288-7.072.288l.16,4.48c2.016-.192,11.9-1.024,14.144-1.216-7.616,4.864-8.192,10.176-8.192,12.256A8.724,8.724,0,0,0,77.024-.64C79.968.8,83.232,1.472,90.24,1.5l.608-4.576c-13.312.448-14.368-3.3-14.368-5.76,0-4,3.488-7.36,5.312-8.768a13.654,13.654,0,0,1,8.032-3.072c1.184-.032,3.264.032,4,.032Zm18.24,26.368c8.384-.576,14.336-4.128,14.336-13.6,0-8.032-5.12-12.8-13.408-12.8-9.024,0-15.1,5.984-15.1,14.368,0,4.64,2.176,9.472,6.5,9.472,3.68,0,5.728-3.36,6.272-4.288,2.656-4.48,3.264-11.744,3.584-15.584,6.24.48,7.552,4.992,7.552,8.608,0,7.84-5.344,9.472-11.072,9.728Zm-2.08-22.24c-.736,9.984-2.976,15.328-5.344,15.328-.768,0-2.56-.736-2.56-4.768C101.952-14.528,103.776-19.392,109.856-20.768Zm49.632,7.04a35.912,35.912,0,0,0-5.632-7.2l-3.168,1.6c.544.576.8.864,1.6,1.856-2.3.192-6.112.288-7.072.288a34.172,34.172,0,0,0,1.984-4.192h11.84V-24.9h-8.96v-2.24h-4.032v2.24h-8.7v3.52h5.632a44.281,44.281,0,0,1-1.856,4.288c-.608,0-3.3.064-3.712.064l.448,3.712c7.424-.288,9.536-.416,16.544-1.152a28.842,28.842,0,0,1,1.6,2.656Zm-29.856-9.888a19.993,19.993,0,0,1,4.928,3.3l2.336-3.3a20.108,20.108,0,0,0-5.024-3.008Zm-1.248,8.448A19.354,19.354,0,0,1,133.44-11.9l2.3-3.2a17.144,17.144,0,0,0-5.216-3.136Zm5.216,5.12a43.092,43.092,0,0,1-5.12,9.76l2.912,3.168a41.528,41.528,0,0,0,5.344-10.656Zm11.584-1.664V2.144h3.584V-11.712ZM151.1-12V.352c0,1.856.512,2.464,2.336,2.464h2.944c2.272,0,2.816-.256,3.072-7.04l-3.04-.864c0,1.7-.064,2.688-.128,3.328-.032.48-.1.768-.544.768-.96,0-1.024,0-1.024-.832V-12Zm-11.744.032c-.1,7.072-1.312,9.824-4.7,12.288l3.072,2.752c4.064-3.552,5.12-7.328,5.28-15.04Zm28.416-14.048c0,.1-.032,4.288-.032,4.7h-5.312v4h5.28v2.3a34.933,34.933,0,0,1-6.272,7.9l2.336,4.1a23.38,23.38,0,0,0,3.9-4.9c-.032,1.344-.1,7.936-.1,9.44h4.32c-.064-1.632-.16-5.056-.16-9.152,0-2.432.032-3.744.1-6.56,3.36-4.256,6.624-5.6,8.288-5.6,1.888,0,2.016,1.76,1.952,3.744l-.32,8.288C181.5-.768,184.512.032,189.824.448l.928-4.224c-4.7.1-4.64-1.7-4.576-4.352l.256-8.512c.064-2.3-.128-3.872-.736-4.9a5.249,5.249,0,0,0-4.576-2.432c-3.968,0-7.36,2.624-9.184,4.384.032-2.144.128-5.664.16-6.432Z" transform="translate(225.2 33.36)" fill="#002063"/>
    </g>
    <path id="パス_2635" data-name="パス 2635" d="M0,0,37.549,2.771,0,5.115Z" transform="translate(419.225 8669.924) rotate(60)" fill="#002063"/>
    <path id="パス_2636" data-name="パス 2636" d="M0,5.115,37.549,2.345,0,0Z" transform="translate(865.205 8672.481) rotate(120)" fill="#002063"/>
  </g>
</svg>
