<svg xmlns="http://www.w3.org/2000/svg" width="209.921" height="308.102" viewBox="0 0 209.921 308.102">
  <g id="グループ_319" data-name="グループ 319" transform="translate(-4866.987 75.551)">
    <path id="パス_2210" data-name="パス 2210" d="M142.579,70.933A50.217,50.217,0,0,0,139.3,57.313c-1.937-5.057-4.526-10.1-8.45-13.912a18.186,18.186,0,0,0-7.588-4.553c-3.065-.881-4.374,3.89-1.315,4.769,5.29,1.521,8.877,6.917,11.291,11.991a50.337,50.337,0,0,1,3.026,8.307q.535,1.952.928,3.939.179.935.318,1.877a1.8,1.8,0,0,1,.049.412c.027.264.055.528.076.792a2.538,2.538,0,0,0,2.473,2.473,2.491,2.491,0,0,0,2.473-2.473Z" transform="translate(4870.651 -74.362)" fill="#211715"/>
    <path id="パス_2211" data-name="パス 2211" d="M114.6,38.671c-1.008-2.869-2.081-5.874-4.191-8.141a14.228,14.228,0,0,0-3.171-2.4,19.478,19.478,0,0,0-3.955-1.878,2.493,2.493,0,0,0-3.042,1.727,2.528,2.528,0,0,0,1.727,3.042c.108.035.214.07.321.109.082.03.608.239.179.065s.065.034.15.074c.135.063.269.127.4.193.585.29,1.159.6,1.721.939.494.294.981.6,1.443.939.36.261.02.045-.127-.1.084.086.191.156.281.236.2.175.389.361.57.554.085.091.167.183.247.277.062.073.359.449.083.093s.019.033.073.11c.089.126.174.252.257.382a14.553,14.553,0,0,1,.824,1.478q.206.417.391.843c.043.1.087.2.129.3l-.122-.284a2.1,2.1,0,0,1,.192.474c.3.756.576,1.521.845,2.289a2.474,2.474,0,0,0,4.77-1.315Z" transform="translate(4870.039 -74.746)" fill="#211715"/>
    <path id="パス_2212" data-name="パス 2212" d="M103.109,37.957a28.491,28.491,0,0,0-12.02-8.1,27.914,27.914,0,0,0-5.609-1.282,24.181,24.181,0,0,0-6.471-.358,2.553,2.553,0,0,0-2.473,2.473,2.488,2.488,0,0,0,2.473,2.473,20.3,20.3,0,0,1,5.309.206,28.472,28.472,0,0,1,5.288,1.2,23.159,23.159,0,0,1,10.006,6.887,2.5,2.5,0,0,0,3.5,0,2.524,2.524,0,0,0,0-3.5Z" transform="translate(4869.317 -74.686)" fill="#211715"/>
    <path id="パス_2213" data-name="パス 2213" d="M122.656,8.8C115.752,2.864,106.477.288,97.5.022A44.951,44.951,0,0,0,84.271,1.536a34.513,34.513,0,0,0-5.945,2.249c-.42.206-.847.412-1.25.651-.515.3.316-.081-.3.14-.832.3-1.666.582-2.51.843-3.916,1.207-7.884,1.876-11.6,3.691a41.634,41.634,0,0,0-12.216,9.406C43.3,26.332,38.861,36.424,36.8,46.753c-2.506,12.566-1.307,25.461,2.14,37.729.859,3.06,5.633,1.76,4.769-1.315C40.856,73,39.523,62.35,40.935,51.823c1.283-9.571,4.728-19.383,10.676-27.059A41.029,41.029,0,0,1,62.076,15.1a27.731,27.731,0,0,1,5.815-2.846c1.656-.562,3.375-.849,5.059-1.3,1.654-.448,3.311-.927,4.919-1.522,1.477-.547,2.811-1.372,4.265-1.965a35.554,35.554,0,0,1,11.58-2.452c8.76-.456,18.626,1.425,25.444,7.287a2.536,2.536,0,0,0,3.5,0,2.5,2.5,0,0,0,0-3.5Z" transform="translate(4868.062 -75.546)" fill="#211715"/>
    <path id="パス_2214" data-name="パス 2214" d="M125.3,16.314c17.6,6.713,22.839,27.555,23.538,44.548a58.253,58.253,0,0,1-.958,14.737c-.675,3.1,4.093,4.431,4.769,1.315,2.169-9.977,1.375-20.776-.64-30.71-1.923-9.481-5.532-19.218-12.367-26.289a35.485,35.485,0,0,0-13.027-8.371,2.493,2.493,0,0,0-3.042,1.728,2.528,2.528,0,0,0,1.727,3.042Z" transform="translate(4870.751 -75.195)" fill="#211715"/>
    <path id="パス_2215" data-name="パス 2215" d="M71.66,40.626A26.9,26.9,0,0,0,61.4,43.644a19.729,19.729,0,0,0-7.121,7.15c-3.336,5.637-2.443,12.256-2.549,18.534a32.484,32.484,0,0,1-.322,4.546,12.923,12.923,0,0,1-.5,1.935c-.16.463-.054.133-.008.036-.077.162-.161.319-.248.476-.05.091-.1.177-.163.265-.345.544.309-.336-.108.123-2.149,2.342,1.34,5.849,3.5,3.5,1.879-2.048,2.37-4.806,2.631-7.482.292-3.051.161-6.132.159-9.191a26.393,26.393,0,0,1,.7-7.821c.032-.1.276-.758.2-.573-.147.343.177-.35.206-.412.082-.165.166-.329.252-.493a21.158,21.158,0,0,1,1.371-2.252,14.076,14.076,0,0,1,2.793-2.944,18.974,18.974,0,0,1,9.472-3.464A2.551,2.551,0,0,0,74.13,43.1a2.487,2.487,0,0,0-2.473-2.473Z" transform="translate(4868.497 -74.304)" fill="#211715"/>
    <path id="パス_2216" data-name="パス 2216" d="M117.72,137.531c.158,1.979.412,3.95.721,5.91a32.554,32.554,0,0,0,.952,5.115,2.474,2.474,0,1,0,4.77-1.315,31.685,31.685,0,0,1-.921-4.917q-.1-.642-.2-1.284c-.028-.2-.061-.4-.082-.594.07.643-.011-.1-.028-.234q-.164-1.34-.271-2.679a2.473,2.473,0,0,0-4.947,0Z" transform="translate(4870.575 -71.42)" fill="#211715"/>
    <path id="パス_2217" data-name="パス 2217" d="M145.409,80.366c1.855-1.794,5.256-1.926,6.9.288a8.7,8.7,0,0,1,1.18,4.292,28.767,28.767,0,0,1-.026,5.58,25.068,25.068,0,0,1-3.069,9.737c-1.146,2.007-3.127,5.037-5.79,4.492a2.534,2.534,0,0,0-3.042,1.727,2.5,2.5,0,0,0,1.727,3.042,8.058,8.058,0,0,0,6.3-1.036,16.51,16.51,0,0,0,4.647-5.013A30.231,30.231,0,0,0,158.484,89.6c.314-4.524.062-10.409-3.782-13.462a9.756,9.756,0,0,0-12.791.733C139.618,79.085,143.118,82.581,145.409,80.366Z" transform="translate(4871.291 -73.282)" fill="#211715"/>
    <path id="パス_2218" data-name="パス 2218" d="M141.705,100.486a27.646,27.646,0,0,1-1.7,9.829c-.135.379-.285.753-.433,1.127-.246.625.06-.119-.114.274-.126.282-.249.566-.378.847-.551,1.209-1.147,2.4-1.773,3.57a59.314,59.314,0,0,1-11.814,15.886,23.893,23.893,0,0,1-9.023,5.491c-3.041.912-1.746,5.689,1.315,4.769,7.386-2.218,13.067-7.983,17.613-13.965a66.553,66.553,0,0,0,9.134-16.033,31.182,31.182,0,0,0,2.122-11.8C146.557,97.31,141.61,97.291,141.705,100.486Z" transform="translate(4870.483 -72.549)" fill="#211715"/>
    <path id="パス_2219" data-name="パス 2219" d="M49.783,81.1A9.71,9.71,0,0,0,37.21,82.232c-3.4,3.641-2.8,9.458-1.923,13.97a30.149,30.149,0,0,0,5.923,12.961c2.846,3.55,7.4,6.817,12.142,5.416,3.046-.9,1.752-5.675-1.315-4.77-2.848.841-5.756-2.073-7.329-4.143a25.764,25.764,0,0,1-4.359-9.452,25.4,25.4,0,0,1-.721-5.159c-.053-1.54-.173-3.418.677-4.783,1.546-2.485,4.815-2.506,6.979-.9a2.491,2.491,0,0,0,3.384-.887A2.532,2.532,0,0,0,49.78,81.1Z" transform="translate(4868.036 -73.123)" fill="#211715"/>
    <path id="パス_2220" data-name="パス 2220" d="M49.35,107.142c4.236,14.154,13.771,27.379,26.915,34.483a35.476,35.476,0,0,0,11.7,4.013,2.555,2.555,0,0,0,3.042-1.727,2.491,2.491,0,0,0-1.727-3.042c-14.015-2.042-25.409-13.723-31.54-25.888a55.916,55.916,0,0,1-3.62-9.153C53.21,102.785,48.434,104.081,49.35,107.142Z" transform="translate(4868.483 -72.366)" fill="#211715"/>
    <path id="パス_2221" data-name="パス 2221" d="M78.649,148.456a27.563,27.563,0,0,0,.767-3.971c.265-1.558.508-3.116.712-4.684a2.47,2.47,0,0,0-4.219-1.752,2.916,2.916,0,0,0-.721,1.752c-.019.147-.038.295-.058.442l.088-.658c-.176,1.3-.407,2.59-.618,3.885a23.829,23.829,0,0,1-.721,3.67,2.493,2.493,0,0,0,1.727,3.042,2.529,2.529,0,0,0,3.043-1.727Z" transform="translate(4869.233 -71.35)" fill="#211715"/>
    <path id="パス_2222" data-name="パス 2222" d="M159.325,263.145a17.979,17.979,0,0,1-1.965,1.666,8.372,8.372,0,0,1-1.679.965c-.515.163.316.056-.188.015a2.244,2.244,0,0,1-.581-.066c-2.789-.532-5.382-1.839-8.23-2.048-3.813-.278-7.7.71-11.434,1.319a21.2,21.2,0,0,1-12.47-2.186,2.543,2.543,0,0,0-3.384.887,2.5,2.5,0,0,0,.887,3.384,29.326,29.326,0,0,0,11.287,3.077c3.485.144,6.9-.8,10.338-1.277a15.27,15.27,0,0,1,7.111.337c2.331.744,5.153,1.909,7.632,1.4,2.35-.483,4.492-2.348,6.171-3.978,2.288-2.222-1.212-5.718-3.5-3.5Z" transform="translate(4870.616 -67.529)" fill="#211715"/>
    <path id="パス_2223" data-name="パス 2223" d="M114.632,243.3c6.9-1.924,13.742-4.17,20.435-6.725a76.016,76.016,0,0,1,9.9-3.3,16.709,16.709,0,0,1,4.245-.507,19.286,19.286,0,0,1,5.762,1.321c2.627.92,5.2,1.982,7.809,2.956a2.5,2.5,0,0,0,3.043-1.728,2.527,2.527,0,0,0-1.728-3.042c-5.905-2.206-11.718-5.123-18.191-4.194a49.175,49.175,0,0,0-10.262,3.008c-3.35,1.264-6.7,2.484-10.1,3.638-4.045,1.377-8.116,2.661-12.233,3.813-3.062.853-1.761,5.628,1.315,4.77Z" transform="translate(4870.387 -68.584)" fill="#211715"/>
    <path id="パス_2224" data-name="パス 2224" d="M8.632,185.051C3.557,201.827,1.4,219.2.284,236.642A154.884,154.884,0,0,0,.49,258.1q.389,5.256.945,10.506a87.719,87.719,0,0,0,1.553,10.776C4.811,287.2,9.119,294.263,16,298.565a26.044,26.044,0,0,0,12.122,3.857,66.954,66.954,0,0,0,11.13-.4c14.305-1.4,28.45-4.631,42.3-8.406a321.34,321.34,0,0,0,40.147-13.505q2.088-.878,4.158-1.8a2.492,2.492,0,0,0,.887-3.384,2.535,2.535,0,0,0-3.384-.887,284.941,284.941,0,0,1-37.147,13.126A295.706,295.706,0,0,1,44.7,296.437c-2.893.4-5.8.711-8.715.914-4.039.281-8.227.515-12.16-.618-7.191-2.07-12.4-7.863-14.9-14.748-2.284-6.266-2.592-13.231-3.162-19.824a157.508,157.508,0,0,1-.843-20.178c.706-16.592,2.5-33.33,6.734-49.421q.817-3.111,1.752-6.189c.927-3.054-3.849-4.359-4.769-1.315Z" transform="translate(4866.979 -69.945)" fill="#211715"/>
    <path id="パス_2225" data-name="パス 2225" d="M35.563,253.29c10.025-1.171,20.016-3.044,29.918-4.985,9.854-1.93,19.645-4.35,29.41-6.682,5.809-1.388,11.636-2.772,17.36-4.489,3.041-.913,1.746-5.689-1.315-4.77-10.776,3.233-21.848,5.585-32.809,8.072C69.555,242.38,61,244.189,52.345,245.7q-4.637.81-9.285,1.558c-2.718.432-5.136.8-7.5,1.081a2.549,2.549,0,0,0-2.473,2.473,2.489,2.489,0,0,0,2.473,2.473Z" transform="translate(4867.99 -68.451)" fill="#211715"/>
    <path id="パス_2226" data-name="パス 2226" d="M109.993,237.135c.453-.082-.927.023-.473-.292a7.175,7.175,0,0,0,.277.979q.27.94.557,1.876c.467,1.535.954,3.065,1.45,4.592,1.149,3.537,2.342,7.06,3.536,10.582,1.2,3.539,2.405,7.075,3.579,10.621q.773,2.319,1.5,4.637a6.264,6.264,0,0,1,.588,1.9c-.012.1.039-.133.033-.12-.118.248-.721.491-.956.625-2.762,1.582-.273,5.858,2.5,4.272,1.693-.97,3.274-2.35,3.385-4.437a12.646,12.646,0,0,0-1.007-4.284c-.987-3.1-2.026-6.183-3.068-9.275-2.152-6.368-4.369-12.717-6.369-19.135-.429-1.377-.773-2.793-1.237-4.157a4.694,4.694,0,0,0-5.612-3.164,2.5,2.5,0,0,0-1.728,3.042,2.529,2.529,0,0,0,3.043,1.728Z" transform="translate(4870.243 -68.452)" fill="#211715"/>
    <path id="パス_2227" data-name="パス 2227" d="M87.543,291.877a8.194,8.194,0,0,0,2.831.659c1.923.265,3.851.485,5.781.694,5.11.551,10.229,1.031,15.355,1.472,11.779,1.022,23.549,1.443,35.364,1.9a208.1,208.1,0,0,0,27.722-.334c7.1-.675,14.846-1.569,21.136-5.222,6.723-3.906,10.188-10.647,11.136-18.181a80.1,80.1,0,0,0,.3-12.735c-.135-3.964-.288-7.928-.6-11.884A226.361,226.361,0,0,0,196.355,197.3q-1.084-3.4-2.267-6.771a2.534,2.534,0,0,0-3.042-1.728,2.5,2.5,0,0,0-1.727,3.043A229.258,229.258,0,0,1,201,241.712a213.5,213.5,0,0,1,1.328,23.6c.006,7.044-.7,14.44-6.251,19.432-4.677,4.2-11.48,5.323-17.492,6.126a165.1,165.1,0,0,1-26.493.96c-12.2-.341-24.414-.742-36.576-1.741q-7.76-.637-15.51-1.411c-2.105-.211-4.211-.431-6.312-.674q-1.183-.137-2.362-.291c.737.095-.085-.012-.36-.054-.244-.036-.491-.072-.734-.116-.536-.1-.952-.353-.193.059-2.8-1.518-5.3,2.752-2.5,4.272Z" transform="translate(4869.616 -69.78)" fill="#211715"/>
    <path id="パス_2228" data-name="パス 2228" d="M47.121,214.326a1.843,1.843,0,0,0-2.133.972l-1.348,1.977a208.485,208.485,0,0,1,17.89,18.167l3.534-3.343A203.231,203.231,0,0,0,49.4,215.784a5.325,5.325,0,0,0-2.191-1.443Z" transform="translate(4868.312 -69)" fill="#211715"/>
    <path id="パス_2229" data-name="パス 2229" d="M63.686,233.772c-3.469-3.826-6.943-7.653-10.591-11.311q-2.606-2.616-5.336-5.1a25.822,25.822,0,0,0-6.142-4.637,9.181,9.181,0,0,0-7.091-.646,6.134,6.134,0,0,0-4.114,5.539c.054,2.533,1.752,4.687,3.479,6.372,1.677,1.638,3.342,3.269,4.983,4.947,4.073,4.158,8.26,8.2,12.224,12.47,2.172,2.337,5.668-1.168,3.5-3.5-3.092-3.329-6.324-6.531-9.533-9.75-1.451-1.455-2.9-2.912-4.32-4.4s-3.049-2.77-4.376-4.328a3.644,3.644,0,0,1-1.043-2.014c0,.129-.092.282.037.061a1.958,1.958,0,0,1,.71-.721c1.4-.716,3.265.269,4.431.988a32.489,32.489,0,0,1,4.717,3.987q2.311,2.138,4.528,4.373c3.595,3.613,7.022,7.389,10.445,11.164,2.142,2.364,5.632-1.143,3.5-3.5Z" transform="translate(4867.908 -69.08)" fill="#211715"/>
    <path id="パス_2230" data-name="パス 2230" d="M35.549,219.087a7.573,7.573,0,0,0-7.614,2.361c-2.4,2.9-1.443,6.446.663,9.172a84.232,84.232,0,0,0,6.609,6.974c2.3,2.36,4.622,4.7,7.076,6.9a2.528,2.528,0,0,0,3.5,0,2.5,2.5,0,0,0,0-3.5c-3.857-3.462-7.377-7.268-11.027-10.941a25.232,25.232,0,0,1-2.294-2.473c-.464-.612-1.161-1.5-1.04-2.325.1-.648.5-.9,1.015-1.165a2.5,2.5,0,0,1,1.8-.242c3.06.9,4.367-3.872,1.315-4.77Z" transform="translate(4867.789 -68.86)" fill="#211715"/>
    <path id="パス_2231" data-name="パス 2231" d="M33.482,231.352a6.74,6.74,0,0,0-5.706,3.072,6.542,6.542,0,0,0,.1,6.507,36.419,36.419,0,0,0,4.156,5.482l4.45,5.553a2.488,2.488,0,0,0,3.5,0,2.531,2.531,0,0,0,0-3.5c-2.313-2.886-4.679-5.737-6.941-8.663a14.506,14.506,0,0,1-.937-1.42c-.065-.147-.251-.966-.2-.515-.019-.156-.015-.309-.021-.466-.02-.639-.08.188.011-.141.012-.044.15-.482.063-.238s.225-.206.032-.031.734-.607.309-.3c.123-.089.255-.162.38-.246.16-.1.269-.124.028-.038,0,0,.618-.161.356-.118s.412,0,.418,0a2.5,2.5,0,0,0,2.473-2.473,2.523,2.523,0,0,0-2.473-2.473Z" transform="translate(4867.802 -68.478)" fill="#211715"/>
    <path id="パス_2232" data-name="パス 2232" d="M47.155,216.619c-.238.474-.964-.135-.094.44a13.533,13.533,0,0,1,1.649,1.513q1.88,1.777,3.71,3.6,3.668,3.646,7.147,7.476a199.283,199.283,0,0,1,13,15.87,2.549,2.549,0,0,0,3.384.887,2.493,2.493,0,0,0,.887-3.384,210.36,210.36,0,0,0-15.686-18.947q-4.172-4.465-8.608-8.677c-1.361-1.292-2.767-2.87-4.653-3.363a4.39,4.39,0,0,0-5.012,2.089c-1.428,2.835,2.837,5.343,4.271,2.5Z" transform="translate(4868.28 -69.073)" fill="#211715"/>
    <path id="パス_2233" data-name="パス 2233" d="M171.853,171.2A117.6,117.6,0,0,0,168,184.265c-.97,3.927-1.9,7.891-2.505,11.893-.653,4.287-1.031,8.625-1.479,12.935-1.5,14.288-2.906,28.585-4.555,42.854q-.309,2.665-.636,5.329-.141,1.144-.288,2.289-.071.563-.146,1.124c-.017.132-.034.264-.052.4-.078.591.058-.42-.014.11-.28,2.061-.546,4.122-.984,6.156-.668,3.1,4.1,4.431,4.77,1.315.971-4.507,1.4-9.161,1.945-13.731.849-7.111,1.611-14.228,2.362-21.347,1.25-11.859,2.314-23.748,3.77-35.585.09-.728-.088.562-.006.041.041-.266.076-.533.119-.8.15-.959.326-1.915.515-2.867.453-2.339.969-4.666,1.519-6.984a124.191,124.191,0,0,1,4.289-14.884,2.494,2.494,0,0,0-1.727-3.043,2.527,2.527,0,0,0-3.042,1.728Z" transform="translate(4871.783 -70.371)" fill="#211715"/>
    <path id="パス_2234" data-name="パス 2234" d="M37.794,215.371c-.979-4.746-2.276-9.41-3.607-14.068a89.787,89.787,0,0,0-2.944-9.158,143.726,143.726,0,0,0-9.6-19.387c-1.624-2.736-5.9-.25-4.272,2.5A134.223,134.223,0,0,1,26.6,193.782a93.643,93.643,0,0,1,2.914,9.19c1.3,4.534,2.55,9.088,3.5,13.713.643,3.115,5.412,1.8,4.77-1.315Z" transform="translate(4867.498 -70.304)" fill="#211715"/>
    <path id="パス_2235" data-name="パス 2235" d="M13.149,187.4a34.716,34.716,0,0,1,6.5-11.668c2.989-3.327,6.719-5.508,10.665-7.523a194.3,194.3,0,0,1,28.966-11.777c2.714-.872,5.481-1.546,8.244-2.26,3.079-.8,1.774-5.572-1.315-4.769a186.576,186.576,0,0,0-22.569,7.454c-5.125,2.055-10.2,4.253-15.137,6.736-4.278,2.153-8.428,4.527-11.768,8.02A40.042,40.042,0,0,0,8.378,186.09a2.5,2.5,0,0,0,1.727,3.042,2.524,2.524,0,0,0,3.043-1.727Z" transform="translate(4867.232 -70.984)" fill="#211715"/>
    <path id="パス_2236" data-name="パス 2236" d="M133.134,155.717a155.2,155.2,0,0,1,19.883,7.517c5.236,2.29,10.4,4.758,15.4,7.523,4.592,2.539,9.293,5.05,12.541,9.275a45.117,45.117,0,0,1,4.2,6.808,54.051,54.051,0,0,1,2.659,5.945,2.541,2.541,0,0,0,3.042,1.727,2.492,2.492,0,0,0,1.728-3.042,59.184,59.184,0,0,0-6.244-12.372,30.73,30.73,0,0,0-5.113-6.027,47.884,47.884,0,0,0-7.3-4.876,212.248,212.248,0,0,0-30.3-14.139c-3.048-1.194-6.031-2.226-9.18-3.114-3.069-.867-4.379,3.9-1.315,4.769Z" transform="translate(4870.992 -70.938)" fill="#211715"/>
    <path id="パス_2237" data-name="パス 2237" d="M119.562,180.455c7.275-7.374,12.264-16.454,17.559-25.248a2.484,2.484,0,0,0,0-2.5,41.031,41.031,0,0,0-8.772-10.733,2.528,2.528,0,0,0-3.5,0,77.239,77.239,0,0,1-21.708,15.469,12.41,12.41,0,0,0-3.8,2.291,2.6,2.6,0,0,0-.257,3.389,3.354,3.354,0,0,0,2.637,1.146,1.7,1.7,0,0,0,.363.03c-.216.277-1.011-.951-1.2-.884l.461.625c.448.584.919,1.15,1.4,1.709,1.4,1.626,2.84,3.214,4.281,4.8,3.005,3.309,6.05,6.582,9.04,9.906,2.134,2.37,5.624-1.134,3.5-3.5-3.176-3.531-6.414-7.008-9.6-10.525-1.546-1.713-3.105-3.428-4.581-5.206-.424-.515.082.143-.227-.309a3.176,3.176,0,0,0-1.1-1.09,4.379,4.379,0,0,0-1.733-.45c-.161-.018-.325-.022-.484-.044-.74-.1.356.126-.094-.032l1.091.636-.063-.061.637,2.406.014-.082-.637,1.091c.225-.276-.265.052.053-.091.206-.094.431-.274.631-.39.379-.218.77-.42,1.163-.618.981-.487,1.976-.945,2.949-1.448a79.86,79.86,0,0,0,7.362-4.32,82.2,82.2,0,0,0,13.4-10.954h-3.5a36.918,36.918,0,0,1,8,9.731v-2.5c-5.084,8.436-9.812,17.181-16.787,24.251C113.827,179.225,117.323,182.729,119.562,180.455Z" transform="translate(4869.99 -71.23)" fill="#211715"/>
    <path id="パス_2238" data-name="パス 2238" d="M82.98,176.958c-6.975-7.07-11.7-15.815-16.787-24.251v2.5a36.938,36.938,0,0,1,8-9.731h-3.5a82.2,82.2,0,0,0,13.4,10.954,80.205,80.205,0,0,0,7.167,4.22c1,.515,2.023,1,3.036,1.494.431.211.857.431,1.273.67.173.1.353.2.515.309.636.445-.141-.206.165.167l-.637-1.091.014.082.637-2.406-.063.061L97.3,159.3c-.376.132.412-.036.025.022-.16.024-.323.026-.482.042a4.672,4.672,0,0,0-1.782.431,3.233,3.233,0,0,0-1.144,1.079c-.049.069-.092.143-.141.212-.113.159.272-.331-.032.043-1.484,1.825-3.081,3.561-4.66,5.3-3.186,3.52-6.424,6.994-9.6,10.525-2.125,2.361,1.362,5.874,3.5,3.5,2.608-2.9,5.256-5.758,7.888-8.64,1.49-1.634,2.979-3.271,4.443-4.931a16.424,16.424,0,0,0,2.815-3.417c.253-.568-.715,1.031-1.067.817-.123-.072,0-.021.146,0a3.99,3.99,0,0,0,1.282-.165,2.6,2.6,0,0,0,1.958-2.819c-.206-1.762-2.121-2.667-3.542-3.372a95.849,95.849,0,0,1-10.877-6.149,75.684,75.684,0,0,1-11.831-9.8,2.534,2.534,0,0,0-3.5,0,41.032,41.032,0,0,0-8.772,10.733,2.484,2.484,0,0,0,0,2.5c5.3,8.8,10.285,17.878,17.56,25.248C81.722,182.729,85.218,179.225,82.98,176.958Z" transform="translate(4868.86 -71.23)" fill="#211715"/>
    <path id="パス_2239" data-name="パス 2239" d="M96.271,120.715a6.828,6.828,0,0,1,.515-.552c.082-.079.739-.589.272-.257a10.514,10.514,0,0,1,1.289-.79c.083-.042.907-.395.448-.218.292-.111.585-.215.884-.309s.611-.172.921-.239q.233-.051.47-.093c.268-.042.316-.05.147-.026s-.121.019.149-.012c.174-.015.349-.028.524-.039q.525-.031,1.05-.034a18.585,18.585,0,0,1,1.93.09c.126.011.25.025.375.04-.246-.033-.222-.028.076.018s.626.113.936.187.587.147.877.238c.1.032.957.353.4.12a2.544,2.544,0,0,0,3.383-.887c.56-1.058.385-2.846-.887-3.384a18.164,18.164,0,0,0-9.476-1.2,12.387,12.387,0,0,0-7.785,3.845,2.474,2.474,0,1,0,3.5,3.5Z" transform="translate(4869.791 -72.088)" fill="#211715"/>
    <path id="パス_2240" data-name="パス 2240" d="M99.537,96.828q.4,1.2.749,2.409a17.979,17.979,0,0,1,.648,2.568l-.089-.657a2.243,2.243,0,0,1,0,.506l.089-.657a1.448,1.448,0,0,1-.059.228l.249-.592a1.089,1.089,0,0,1-.11.2l.386-.5a.715.715,0,0,1-.1.11l.5-.386a2.965,2.965,0,0,1-.556.315l.59-.248a2.6,2.6,0,0,1-.595.164l.657-.089a6.347,6.347,0,0,1-1.118-.062,2.473,2.473,0,0,0-1.752,4.225,2.729,2.729,0,0,0,1.752.721,8.475,8.475,0,0,0,.928.076,4.989,4.989,0,0,0,2.321-.66,3.331,3.331,0,0,0,1.682-2.187,5.239,5.239,0,0,0-.1-2.333c-.363-1.507-.808-2.995-1.3-4.465a2.616,2.616,0,0,0-1.134-1.478,2.473,2.473,0,0,0-3.633,2.793Z" transform="translate(4869.981 -72.683)" fill="#211715"/>
    <path id="パス_2241" data-name="パス 2241" d="M74.353,83.992c-.618,2.434.255,7.89,5.081,8.055,6.335-.435,6.229-7.091,3.887-10.077C81.4,79.525,76.2,78.787,74.353,83.992Z" transform="translate(4869.245 -73.099)" fill="#211715"/>
    <path id="パス_2242" data-name="パス 2242" d="M123.717,80.814c.928,2.327.765,7.832-4,8.62-6.338.386-7.091-6.207-5.153-9.46C116.15,77.31,121.218,75.908,123.717,80.814Z" transform="translate(4870.45 -73.176)" fill="#211715"/>
    <path id="パス_2243" data-name="パス 2243" d="M74.8,70.583a9.978,9.978,0,0,1-1.031.91l.5-.387a13.546,13.546,0,0,1-2.948,1.774l.59-.249a4.908,4.908,0,0,1-.721.243,2.473,2.473,0,0,0-1.727,3.042,2.5,2.5,0,0,0,1.134,1.478,2.639,2.639,0,0,0,1.905.249,8.718,8.718,0,0,0,1.666-.65,13.01,13.01,0,0,0,1.322-.732A14.968,14.968,0,0,0,78.3,74.08a2.569,2.569,0,0,0,.721-1.752,2.518,2.518,0,0,0-.721-1.752,2.488,2.488,0,0,0-1.752-.721,2.549,2.549,0,0,0-1.752.721Z" transform="translate(4869.098 -73.411)" fill="#211715"/>
    <path id="パス_2244" data-name="パス 2244" d="M83.779,118.373v3.054a2.553,2.553,0,0,0,.721,1.752,2.76,2.76,0,0,0,1.752.721A2.5,2.5,0,0,0,88,123.179a2.569,2.569,0,0,0,.721-1.752v-3.054A2.552,2.552,0,0,0,88,116.621a2.759,2.759,0,0,0-1.752-.721,2.5,2.5,0,0,0-1.752.721,2.576,2.576,0,0,0-.721,1.752Z" transform="translate(4869.538 -72.005)" fill="#211715"/>
  </g>
</svg>
