<svg xmlns="http://www.w3.org/2000/svg" xmlns:xlink="http://www.w3.org/1999/xlink" width="283.56" height="124" viewBox="0 0 283.56 124">
  <defs>
    <filter id="パス_2788" x="0" y="0" width="283.56" height="124" filterUnits="userSpaceOnUse">
      <feOffset dy="3" input="SourceAlpha"/>
      <feGaussianBlur stdDeviation="3" result="blur"/>
      <feFlood flood-opacity="0.161"/>
      <feComposite operator="in" in2="blur"/>
      <feComposite in="SourceGraphic"/>
    </filter>
  </defs>
  <g id="グループ_270" data-name="グループ 270" transform="translate(-6240.82 -51.88)">
    <rect id="長方形_249" data-name="長方形 249" width="84" height="6" transform="translate(6299 100)" fill="#f29600"/>
    <rect id="長方形_250" data-name="長方形 250" width="202" height="6" transform="translate(6270 71)" fill="#f29600"/>
    <rect id="長方形_248" data-name="長方形 248" width="140" height="6" transform="translate(6250 158)" fill="#f29600"/>
    <g transform="matrix(1, 0, 0, 1, 6240.82, 51.88)" filter="url(#パス_2788)">
      <path id="パス_2788-2" data-name="パス 2788" d="M-96.96-8.38H-107.4v2.4h7.58a8.454,8.454,0,0,1-2.3,2.68,8.906,8.906,0,0,1-2.52-2.62l-2.12.96a10.3,10.3,0,0,0,2.44,2.98,15.947,15.947,0,0,1-4.5,1.32l1.1,2.5a19.308,19.308,0,0,0,5.64-2.22,24.336,24.336,0,0,0,5.66,2.34l1.2-2.48A17.527,17.527,0,0,1-99.9-2a13.372,13.372,0,0,0,2.94-3.98Zm-17.3,4.2c.76-.2,1.3-.36,2.1-.62v3.7c0,.46-.12.48-.48.48h-1.64l.28,2.46h2.54c.98,0,1.72-.32,1.72-1.6V-5.58c1.1-.4,1.38-.52,1.82-.72V-8.72a18.5,18.5,0,0,1-1.82.66v-3.26h1.94V-13.6h-1.94v-3.36h-2.42v3.36h-2.24v2.28h2.24v4a20.628,20.628,0,0,1-2.28.56Zm8.42-10.62a4.608,4.608,0,0,1-2.44,4.2l1.62,1.96a6.249,6.249,0,0,0,3.14-5.56h2.1v3.1c0,.56,0,1.62,1.6,1.62h2.26c1.64,0,2.1-1.02,2.18-4.54l-2.1-.5a22.462,22.462,0,0,1-.14,2.3.38.38,0,0,1-.4.34h-.58c-.34,0-.4-.2-.4-.48v-4.16h-6.84Zm14.48,4.86a16.428,16.428,0,0,0,2.18-.9l-.24-2.12a39.254,39.254,0,0,1-5.08,1.54l.5,2.36a14.245,14.245,0,0,0,1.52-.48v8.16h3.38A16.809,16.809,0,0,1-94.54-.22l1.02,2.18a18.082,18.082,0,0,0,6.48-2.1l-1.02-1.24h5.82L-83.2-.12A22.34,22.34,0,0,0-76.46,1.9l1.02-2.22A16.292,16.292,0,0,1-81-1.38h3.48V-9.44c.34.1.54.14.92.24l1.14-2.24c-3.9-.68-5.12-1.5-5.98-2.88h2.84a5.825,5.825,0,0,1-.86,1.16l2.12.8a9.072,9.072,0,0,0,1.26-2.08v-1.62h-8a6.087,6.087,0,0,0,.5-.8L-86-17.12a9.732,9.732,0,0,1-3.24,2.74l1.26,1.68a8.732,8.732,0,0,0,2.28-1.62h1.84c-.24.64-.72,1.88-4.86,2.5l.8,1.88Zm1.38,1.54h10v.92h-10Zm0,2.18h10v.98h-10Zm0,2.28h10V-3h-10Zm2.9-6a8.19,8.19,0,0,0,4.66-2.74,9.606,9.606,0,0,0,3.56,2.74Zm-6.86-5.04a17.039,17.039,0,0,1,3.58,1.38l1-2.1a24.766,24.766,0,0,0-3.62-1.22ZM-59.08-1.24c0,.56-.18.58-.6.58H-61.6l.34,2.54h2.72C-56.6,1.88-56.6.6-56.6-.3V-16.22H-72.34v9.36A10.112,10.112,0,0,1-74.5-.3l1.94,2.14A11.636,11.636,0,0,0-70.1-4.1h4.26V1.68h2.34V-4.1h4.42Zm-6.76-12.6v2.56h-4.04v-2.56Zm6.76,0v2.56H-63.5v-2.56ZM-65.84-9v2.6h-4.04V-9Zm6.76,0v2.6H-63.5V-9Zm18.5,7.64a31.686,31.686,0,0,0-3.14-3.4c3.7-2.38,6.74-5.78,7.7-10.06H-53.76v2.54h13.74c-.48.92-1.58,3.06-5.58,5.78a29.4,29.4,0,0,0-3.48-2.64l-1.98,1.8A41.181,41.181,0,0,1-43.02.58Zm14.94-11.12a23.823,23.823,0,0,0-6.28-2.76l-1.24,2.3a26.7,26.7,0,0,1,6.1,2.98ZM-32.04.76c7.9-1.04,13-3.9,16.12-13.48l-2.6-1.24c-2.82,9.26-7.9,11.3-14.4,11.78ZM-4.78-13.68a25.675,25.675,0,0,0-5.9-2.1l-1.04,2.28a26.9,26.9,0,0,1,5.8,2.2Zm-1.74,4.6a23.135,23.135,0,0,0-5.76-2.18l-1.08,2.28a27.738,27.738,0,0,1,5.72,2.3ZM-11.6.68C-3.16-.16.9-3.54,3.78-11.86L1.22-13.04C-1.5-4.36-5.52-2.66-12.3-2.18ZM9.12-11.92v2.28h8.94V-7H9.36v2.26h8.7v2.86H8.9V.48H20.6v-12.4Zm25.24-.56a23.823,23.823,0,0,0-6.28-2.76l-1.24,2.3a26.7,26.7,0,0,1,6.1,2.98ZM27.96.76c7.9-1.04,13-3.9,16.12-13.48l-2.6-1.24c-2.82,9.26-7.9,11.3-14.4,11.78ZM61.68-12.72a5.33,5.33,0,0,1-.64,1.84l2.36.66A17.951,17.951,0,0,0,64.3-15H59.84v-2.04H57.48V-15H53.2v5.1l-.96-.62a10.2,10.2,0,0,1-1.4,2.16l1.3,1A10.264,10.264,0,0,0,53.2-8.7v.58A13.573,13.573,0,0,1,51.08-.06L52.84,1.9A8.87,8.87,0,0,0,54.12-.28l.92,2.04A13.866,13.866,0,0,0,59.22-.66a13.778,13.778,0,0,0,4.4,2.56l1.1-2.32a12.205,12.205,0,0,1-3.84-1.96,13.643,13.643,0,0,0,2.46-5.1V-9.56H59.82v-3.16Zm-6,6.48a15.019,15.019,0,0,0,1.98,3.86A10.733,10.733,0,0,1,54.24-.54,19.585,19.585,0,0,0,55.5-7.32h5.42a10.554,10.554,0,0,1-1.66,3.28A11.487,11.487,0,0,1,57.8-6.88Zm1.8-6.48v3.16H55.52v-3.16ZM52.52-5.8a11.477,11.477,0,0,1-2.3-2.82,13.484,13.484,0,0,0,1.54-3.36V-14.3H49.94v-2.74H47.66v2.74H45.64v2.32h3.82a10.267,10.267,0,0,1-4.2,5.24l.86,2.7a11.268,11.268,0,0,0,1.54-1.3V1.84h2.28V-5.9A16.975,16.975,0,0,0,51.3-3.84Zm15.82-5.06h5.44v.9H67.56v1.58h6.22v.94H65.52v1.98H84.44V-7.44H76.22v-.94h6.22V-9.96H76.22v-.9h5.46v-.54h2.3v-4.4h-7.7v-1.26H73.7v1.26H66.02v4.4h2.32Zm.14-1.7v-1.16H81.5v1.16H76.22v-.84H73.78v.84Zm-.92,14.4H70.1V1.08h9.82v.76h2.52V-4.54H67.56ZM70.1-2.64h9.82V-.9H70.1Zm16.7-9.525a36.05,36.05,0,0,0-.525,6.345,40.85,40.85,0,0,0,.45,6.48l2.01-.24a31.759,31.759,0,0,1-.51-6.1,28.958,28.958,0,0,1,.615-6.285ZM89.725-9.7V-7.83H94.06l.06,3.015a4.912,4.912,0,0,0-1.2-.12c-2.235,0-3.435,1.395-3.435,2.85,0,.795.45,2.745,3.465,2.745C95.935.66,95.98-1.23,96-2.055A11.942,11.942,0,0,1,97.855-.33L99.13-2.055a12.319,12.319,0,0,0-3.06-2.16L96.025-7.83H98.71V-9.7H96v-2.43H94.03V-9.7ZM94.15-2.37c0,.6-.015,1.365-1.275,1.365-1.425,0-1.59-.78-1.59-1.095,0-.645.615-1.185,1.68-1.185a2.786,2.786,0,0,1,1.185.255ZM105.6-.33a25.779,25.779,0,0,0-3.03-3.345l-1.605,1.08A28.837,28.837,0,0,1,103.75.9ZM-81.54,24.06h-2.88v2.38h9.32V30.8h2.54V26.44h6.98V24.06h-6.98v-3.2h5.58V18.54h-5.58V16.18h6.22V13.8H-78.32a11.394,11.394,0,0,0,.52-1.48l-2.6-.46A11.686,11.686,0,0,1-84.68,18l1.66,2.16a13.353,13.353,0,0,0,1.48-1.4Zm.2-5.52a23.766,23.766,0,0,0,1.74-2.36h4.5v2.36Zm6.24,2.32v3.2h-3.96v-3.2Zm24.98,7.52a33.244,33.244,0,0,0-2.74-2.54c2.92-2.56,5.26-5.32,6.14-7.24V16.22h-8.96a22.446,22.446,0,0,0,1.24-2.66L-57,12.84a24.287,24.287,0,0,1-7.06,9.58l1.84,1.88a30.642,30.642,0,0,0,5.04-5.66h7.34a23.648,23.648,0,0,1-4.98,5.66c-1.56-1.14-1.92-1.38-3.2-2.18L-59.68,24a40.626,40.626,0,0,1,7.72,6.22Zm11.98-6.8h12.12V14H-28.4a13.3,13.3,0,0,0,1.04-1.84l-2.54-.38A9.729,9.729,0,0,1-30.92,14h-2.3a10.16,10.16,0,0,0-1-2.22l-2.4.4A15.1,15.1,0,0,1-35.66,14h-2.48Zm4.98-5.82v1.26h-2.7V15.76Zm0,2.82v1.28h-2.7V18.58Zm4.88-2.82v1.26h-2.74V15.76Zm0,2.82v1.28h-2.74V18.58Zm-9.3,12.24h2.36v-.74h6.28v.74h2.38v-8.3H-37.58Zm8.64-6.52v1.18h-6.28V24.3Zm0,2.76v1.18h-6.28V27.06Zm-15.44,1.36a34.366,34.366,0,0,0,5.9-1.98l-.1-2.3c-.46.16-.58.22-1.54.5V19.08h1.5V16.64h-1.5V11.98h-2.36v4.66h-1.96v2.44h1.96v6.24a21.99,21.99,0,0,1-2.2.46Zm21.34,2.48c2.6-2.52,3.96-7.38,3.96-13.04h1.56a89.335,89.335,0,0,1-.38,9.54c-.16.84-.32.84-.88.84h-1.74l.38,2.58h1.86c1.78,0,2.44-.38,2.76-2.28.2-1.22.46-4.66.46-13.16h-4.02v-3.4H-21.5v3.4h-2.86v2.48h2.86c0,7.36-2.14,9.62-3.3,10.88Zm9.34-.08h2.38v-1.3h2.64v1.3H-6.3V12.94h-7.4Zm5.02-15.48V27.08h-2.64V15.34Zm6.545,1.48c0,1.035-.045,4.5-.045,6.675s0,3.54.75,4.575A4.419,4.419,0,0,0,2.455,29.7c3.66,0,5.655-2.145,6.315-5.835l-1.95-.69c-.165,1.065-.66,4.6-4.32,4.6-2.34,0-2.67-1.4-2.67-3.165,0-2.235.15-7.3.165-7.785Zm26.055.51c-1.53.06-8.4.315-9.69.39-1.425.075-2.595.135-3.315.135l.075,2.1c.945-.09,5.58-.48,6.63-.57-3.57,2.28-3.84,4.77-3.84,5.745A4.089,4.089,0,0,0,16.1,28.7c1.38.675,2.91.99,6.195,1l.285-2.145c-6.24.21-6.735-1.545-6.735-2.7,0-1.875,1.635-3.45,2.49-4.11A6.383,6.383,0,0,1,22.1,19.31c.465-.015,1.41,0,1.875.015Zm2.31.15c-.06.78-.225,2.475-.225,4.35,0,1.785.135,7.635,3.42,7.635,2.37,0,3.555-3.18,3.945-4.26L31.7,24.29a10.417,10.417,0,0,1-.99,2.085c-.3.465-.615.84-1.11.84-1.41,0-1.59-3.855-1.59-5.475a25.031,25.031,0,0,1,.36-4.08ZM39.22,27.89c.015-3.09-.06-7.155-3.21-10.125L34.4,18.89c2.475,2.565,2.61,5.52,2.61,9.12Zm2.145-9.81v1.785H46.84V21.2H41.65v1.74h5.19v1.29a4.574,4.574,0,0,0-1.2-.12c-1.98,0-3.87.885-3.87,2.865,0,1.23.84,2.775,3.75,2.775,3.315,0,3.315-1.965,3.315-2.64v-.285a21.212,21.212,0,0,1,3.045,2.43l1.305-1.74a16.508,16.508,0,0,0-4.35-2.76V22.94h4.38V21.2h-4.38V19.865h4.68V18.08h-4.68V16.775H46.84V18.08Zm5.5,8.655c0,.615-.1,1.26-1.5,1.26-.69,0-1.725-.165-1.725-1.065,0-.93,1.1-1.185,1.86-1.185A3.945,3.945,0,0,1,46.87,26ZM62.935,18.23h-7.02v1.845H62.98l.015,1a2.867,2.867,0,0,0-1.305-.3,3.071,3.071,0,1,0-.12,6.135,2.154,2.154,0,0,0,1.515-.465c-.375,1.11-1.32,1.665-4.815,1.725l.63,1.815a15.925,15.925,0,0,0,2.775-.345,4.453,4.453,0,0,0,3.57-4.68,5.592,5.592,0,0,0-.18-1.41c-.015-.06-.105-.33-.105-.375v-3.1H69.1V18.23H64.96V16.715H62.9Zm.135,5.775a1.289,1.289,0,0,1-1.35,1.3,1.372,1.372,0,0,1-1.455-1.44,1.427,1.427,0,0,1,1.485-1.455,1.217,1.217,0,0,1,1.32,1.245Zm10.41,1.02a2.393,2.393,0,0,0,0,4.785,2.393,2.393,0,1,0,0-4.785Zm0,.9A1.485,1.485,0,1,1,72,27.41,1.488,1.488,0,0,1,73.48,25.925ZM-88.635,52.615a12.11,12.11,0,0,1-1.02,4.95V56.83H-94.9v-2.6l.78,1.305a7.879,7.879,0,0,0,1.56-2.25v3.3h1.5V53.17a10.443,10.443,0,0,0,1.185,1.77l.87-1.425a12.1,12.1,0,0,1-1.86-2.385h1.515v-1.6h-1.71V45.22h-1.5v4.305H-94.5v1.6h1.725a10.06,10.06,0,0,1-2.13,2.82V45.715h-1.71v13.35h1.71v-.51h5.25V58.42l1.185.9c1.185-1.65,1.56-4.56,1.56-6.645V51.55h1.275v7.785h1.74V51.55h.945V49.63h-3.96V47.8a14.245,14.245,0,0,0,3.87-1.02l-.765-1.725a14.365,14.365,0,0,1-4.83,1.155ZM-92.82,48.64A12.546,12.546,0,0,0-93.375,46l-1.32.345a12.159,12.159,0,0,1,.6,2.7Zm3.105.45a14.117,14.117,0,0,0,.96-2.805l-1.335-.3a15.142,15.142,0,0,1-.81,2.61Zm10.44-3.435a34.4,34.4,0,0,0-.57,6.855,24.161,24.161,0,0,0,.12,2.58l1.965-.15a11.285,11.285,0,0,1-.15-1.875c0-1.92,1.95-4.155,3.72-4.155,2.13,0,2.13,2.94,2.13,3.51,0,4.035-2.82,4.5-6.93,4.545l.435,1.89c5.16,0,8.58-1.4,8.58-6.33,0-3.675-1.77-5.46-4.035-5.46a4.6,4.6,0,0,0-3.66,1.9,12.238,12.238,0,0,1,.525-3.12Zm13.47,9.915a1.108,1.108,0,0,0,1.065,1.215h1.83c1.275,0,1.62-1.035,1.875-3.615l-1.575-.36a15.868,15.868,0,0,1-.165,1.755c-.015.135-.09.435-.315.435h-.585c-.27,0-.3-.06-.3-.315v-3.8l2.94-.525-.045-1.86-2.895.51v-3.75h-1.83v4.08l-1.44.24.135,1.86,1.305-.225Zm4.245-7.9h2.445c0,4.86-.36,7.995-4.605,10.23l1.335,1.59c4.155-2.625,5.145-5.655,5.175-11.82h1.9c.015,1.635.03,7.485-.525,9.225-.195.585-.42.6-.9.6H-58.8l.375,1.9h2.46A1.832,1.832,0,0,0-54.1,58.18c.825-2.055.735-10.575.72-12.36H-61.56Zm12.705-1.86c0,.045-.015,2.01-.015,2.205h-2.49v1.875h2.475v1.08a16.375,16.375,0,0,1-2.94,3.7l1.1,1.92a10.959,10.959,0,0,0,1.83-2.3c-.015.63-.045,3.72-.045,4.425h2.025c-.03-.765-.075-2.37-.075-4.29,0-1.14.015-1.755.045-3.075,1.575-1.995,3.1-2.625,3.885-2.625.885,0,.945.825.915,1.755l-.15,3.885c-.12,3.27,1.29,3.645,3.78,3.84l.435-1.98c-2.205.045-2.175-.795-2.145-2.04l.12-3.99a4.421,4.421,0,0,0-.345-2.3,2.461,2.461,0,0,0-2.145-1.14A6.618,6.618,0,0,0-46.9,48.82c.015-1.005.06-2.655.075-3.015ZM-29.58,47.23h-7v1.845h7.035l.015.99a2.53,2.53,0,0,0-1.305-.3,3.045,3.045,0,0,0-3.225,3.27,2.907,2.907,0,0,0,2.955,2.9,2.294,2.294,0,0,0,1.695-.48c-.36.855-.885,1.665-4.77,1.71l.525,1.83c2.505-.2,3.435-.48,4.215-.9a4.588,4.588,0,0,0,2.115-4.125,6.467,6.467,0,0,0-.21-1.59v-3.3h4.14V47.23h-4.14V45.715h-2.055Zm.15,5.775a1.256,1.256,0,0,1-1.32,1.305,1.35,1.35,0,0,1-1.425-1.41,1.433,1.433,0,0,1,1.485-1.5,1.137,1.137,0,0,1,1.26,1.245Zm6.585-.915a9.462,9.462,0,0,0-.975-2.37l-1.185.39a10.878,10.878,0,0,1,.915,2.43Zm-2.055.42a9.262,9.262,0,0,0-.9-2.43l-1.2.42a10.046,10.046,0,0,1,.825,2.415Zm10.56.615a8.091,8.091,0,0,0,2.67-5.775h1.6a11.853,11.853,0,0,1-.345,3.57.657.657,0,0,1-.69.435h-1.485l.33,1.68H-10.2c1.1,0,1.9-.42,1.9-7.365h-6.72v1.68h1.65a5.935,5.935,0,0,1-2.25,4.5l-.09-.945c-.33.06-.5.075-1.92.285V50.14h1.83V48.7h-1.83V47.68h2.16V46.15h-2.16v-.945H-19.38v.945H-21.9v1.53h2.52V48.7h-2.145v1.44h2.145v1.29c-1.785.21-2.145.225-2.655.255l.18,1.68c2.46-.315,2.835-.375,6.285-.975l-.045-.465Zm-1.47.03a4.267,4.267,0,0,1-.075.765h-6.15v1.65h5.385c-1.125,1.335-3.81,1.875-5.49,2.055l.735,1.8c1.68-.285,4.875-1.05,6.39-3.195a10.24,10.24,0,0,0,6.4,3.18l.795-1.815a9.678,9.678,0,0,1-5.49-2.025h5.34V53.92h-6.09a6.6,6.6,0,0,0,.075-.765Zm8.79.18c.57-.045,1.245-.09,2.3-.195v6.225h1.68V52.96c.18-.015.705-.09.915-.12.045.18.075.315.15.615l1.56-.51a14,14,0,0,0-1.17-3l-1.35.465a7.063,7.063,0,0,1,.405,1.035c-.42.045-1.1.09-1.545.1a27.93,27.93,0,0,0,2.955-4.215l-1.575-.63A23.018,23.018,0,0,1-4.155,49.15a8.179,8.179,0,0,0-.585-.66,17.561,17.561,0,0,0,1.65-2.76l-1.53-.57a20.869,20.869,0,0,1-1.245,2.265c-.12-.075-.18-.135-.39-.285L-7.14,48.6A11.325,11.325,0,0,1-5.16,50.59c-.21.3-.51.7-.78,1.05-.285.015-.555.015-1.125.015Zm.42.615a15.47,15.47,0,0,1-.555,3.885l1.44.705a21.362,21.362,0,0,0,.57-4.38ZM.885,45.205A9.383,9.383,0,0,1-1.38,49.72l1.29,1.485A8.98,8.98,0,0,0,1.47,48.97h3.3a75.333,75.333,0,0,1-.33,8.025c-.12.435-.33.48-.75.48H1.02l.36,1.89h3.3a1.537,1.537,0,0,0,1.4-1.065c.435-1.095.48-4.23.6-11.085H2.235a12.975,12.975,0,0,0,.525-1.86Zm-3.555,8.88a26.433,26.433,0,0,1,.42,3.465l1.575-.255A18.962,18.962,0,0,0-1.29,53.83Zm2.715-2.43A16.573,16.573,0,0,1,1.86,55.33l1.65-.87a12.979,12.979,0,0,0-1.86-3.585Zm10.32-5.835c0,1.035-.045,4.5-.045,6.675s0,3.54.75,4.575a4.419,4.419,0,0,0,3.885,1.635c3.66,0,5.655-2.145,6.315-5.835l-1.95-.69c-.165,1.065-.66,4.6-4.32,4.6-2.34,0-2.67-1.4-2.67-3.165,0-2.235.15-7.3.165-7.785Zm26.055.51c-1.53.06-8.4.315-9.69.39-1.425.075-2.595.135-3.315.135l.075,2.1c.945-.09,5.58-.48,6.63-.57-3.57,2.28-3.84,4.77-3.84,5.745A4.089,4.089,0,0,0,28.6,57.7c1.38.675,2.91.99,6.195,1.005l.285-2.145c-6.24.21-6.735-1.545-6.735-2.7,0-1.875,1.635-3.45,2.49-4.11A6.383,6.383,0,0,1,34.6,48.31c.465-.015,1.41,0,1.875.015Zm3.945-.51c0,1.035-.045,4.5-.045,6.675s0,3.54.75,4.575a4.419,4.419,0,0,0,3.885,1.635c3.66,0,5.655-2.145,6.315-5.835l-1.95-.69c-.165,1.065-.66,4.6-4.32,4.6-2.34,0-2.67-1.4-2.67-3.165,0-2.235.15-7.3.165-7.785Zm13.5,1.26v1.785H59.34V50.2H54.15v1.74h5.19v1.29a4.574,4.574,0,0,0-1.2-.12c-1.98,0-3.87.885-3.87,2.865,0,1.23.84,2.775,3.75,2.775,3.315,0,3.315-1.965,3.315-2.64v-.285a21.211,21.211,0,0,1,3.045,2.43l1.305-1.74a16.508,16.508,0,0,0-4.35-2.76V51.94h4.38V50.2h-4.38V48.865h4.68V47.08h-4.68V45.775H59.34V47.08Zm5.5,8.655c0,.615-.1,1.26-1.5,1.26-.69,0-1.725-.165-1.725-1.065,0-.93,1.1-1.185,1.86-1.185A3.945,3.945,0,0,1,59.37,55Zm9.36-9.255c-.06.78-.225,2.475-.225,4.35,0,1.785.135,7.635,3.42,7.635,2.37,0,3.555-3.18,3.945-4.26l-1.665-.915a10.417,10.417,0,0,1-.99,2.085c-.3.465-.615.84-1.11.84-1.41,0-1.59-3.855-1.59-5.475a25.03,25.03,0,0,1,.36-4.08ZM81.72,56.89c.015-3.09-.06-7.155-3.21-10.125L76.9,47.89c2.475,2.565,2.61,5.52,2.61,9.12Zm6.375.78a25.779,25.779,0,0,0-3.03-3.345L83.46,55.4a28.837,28.837,0,0,1,2.79,3.5ZM-131.6,88.84a21.129,21.129,0,0,0,6.02-1.76,22.243,22.243,0,0,0,6.78,1.8l.88-2.3a19.1,19.1,0,0,1-5.24-.88,11.447,11.447,0,0,0,3.12-3.14V80.64h-6.52c.32-.46.46-.72.6-.96.86-.04,4.66-.32,5.42-.38.3.66.4.94.54,1.3l2.18-1.12a19.794,19.794,0,0,0-2.88-4.74l-1.92,1.06,1.08,1.64c-1.4.1-3.28.18-4,.2a53.917,53.917,0,0,0,5.06-5.78l-2.42-1a47.773,47.773,0,0,1-3.34,4.18,11.989,11.989,0,0,0-1.14-.98,18.443,18.443,0,0,0,2.54-3.34l-2.4-.9a17.108,17.108,0,0,1-1.94,2.96c-.28-.18-.52-.32-.94-.54l-1.34,1.86a22.623,22.623,0,0,1,3.72,2.62c-.32.34-.72.76-.96.98-.42,0-3.12.04-3.34.04l.18,2.14c.52,0,2.82-.08,3.28-.1a8.7,8.7,0,0,1-4.04,3l1.22,2.08a13.989,13.989,0,0,0,1.62-.98,10.006,10.006,0,0,0,1.84,1.78,17.209,17.209,0,0,1-4.48.88Zm8.76-6.24a11.592,11.592,0,0,1-2.7,2,14.982,14.982,0,0,1-2.64-2Zm-10.4-8.16a13.011,13.011,0,0,1-3.94,5.1l.9,2.9c.44-.36.64-.52,1.14-.98v7.38h2.42V78.44a19.782,19.782,0,0,0,1.62-3.12Zm-2.94,1.76a15.4,15.4,0,0,0,4.84-5.6l-2.24-.72a10.687,10.687,0,0,1-3.58,3.88Zm24.76,3.12v2.1h1.6a31.328,31.328,0,0,1-1.14,5.54l2.34.42a10.067,10.067,0,0,0,.34-1.36h6.7c-.1.74-.42.92-1.02.92h-2.36l.42,1.9h2.8c2.08,0,2.22-1.16,2.42-2.82h.96v-2.1h-.8c.08-1.34.1-1.98.12-2.5h.94v-2.1h-.92c0-.5.04-4.22.04-4.3h-9.06c.42-.66.6-1.04.76-1.34h9.18v-2.2h-8.32a8.39,8.39,0,0,0,.3-1.38l-2.32-.18a10.536,10.536,0,0,1-2,4.34A6.974,6.974,0,0,0-111.2,73l-1.1.66v-3.7h-2.38V88.84h2.38V74.64a14.59,14.59,0,0,1,1.04,2.3l.72-.52.74.78.42-.42c-.02.4-.16,2.02-.2,2.54Zm10.2-2.28c-.02.82-.02,1.52-.04,2.28h-1.98c.04-.56.08-1.16.12-2.28Zm-3.98,0c-.02.32-.1,1.92-.12,2.28h-2c.1-1.04.14-1.68.18-2.28Zm-2.7,6.88c.14-.9.22-1.58.34-2.5h2.08c-.04.56-.16,1.68-.28,2.5Zm4.26,0c.08-.6.16-1.4.26-2.5h2.1c-.02.8-.08,1.9-.1,2.5ZM-116.68,74a20.561,20.561,0,0,1-.52,5.02l1.54.98a24.939,24.939,0,0,0,.5-5.9Zm23-3.24c0,1.38-.06,6-.06,8.9,0,2.88,0,4.72,1,6.1,1.2,1.64,2.98,2.18,5.18,2.18,4.88,0,7.54-2.86,8.42-7.78l-2.6-.92c-.22,1.42-.88,6.14-5.76,6.14-3.12,0-3.56-1.86-3.56-4.22,0-2.98.2-9.74.22-10.38Zm34.74.68c-2.04.08-11.2.42-12.92.52-1.9.1-3.46.18-4.42.18l.1,2.8c1.26-.12,7.44-.64,8.84-.76-4.76,3.04-5.12,6.36-5.12,7.66a5.452,5.452,0,0,0,3.1,4.76c1.84.9,3.88,1.32,8.26,1.34l.38-2.86c-8.32.28-8.98-2.06-8.98-3.6,0-2.5,2.18-4.6,3.32-5.48a8.511,8.511,0,0,1,5.02-1.92c.62-.02,1.88,0,2.5.02Zm3.08.2c-.08,1.04-.3,3.3-.3,5.8,0,2.38.18,10.18,4.56,10.18,3.16,0,4.74-4.24,5.26-5.68l-2.22-1.22a13.889,13.889,0,0,1-1.32,2.78c-.4.62-.82,1.12-1.48,1.12-1.88,0-2.12-5.14-2.12-7.3A33.374,33.374,0,0,1-53,71.88Zm17.32,13.88c.02-4.12-.08-9.54-4.28-13.5l-2.14,1.5c3.3,3.42,3.48,7.36,3.48,12.16ZM-34.5,71v2.54l7.54-.12c-2.98,2.74-5.98,5.5-9,8.16l1.5,2.32c.74-.78,2.76-2.76,3.44-3.4a8.627,8.627,0,0,1,5.12-1.76c.66,0,3.72,0,3.72,3.38a3.34,3.34,0,0,1-2.76,3.36c.02-.28.04-.4.04-.56a3.549,3.549,0,0,0-3.7-3.62c-1.8,0-3.74,1.12-3.74,3.12a3.273,3.273,0,0,0,1.62,2.74,6.586,6.586,0,0,0,3.72.88c5.28,0,7.6-2.88,7.6-6.14a5.223,5.223,0,0,0-5.52-5.46,6,6,0,0,0-2.22.36c.58-.48.92-.76,4.1-3.64V71Zm7.4,14.8c-2.58.2-3.02-.72-3.02-1.28,0-.64.54-1.12,1.4-1.12a1.7,1.7,0,0,1,1.7,1.86A1.859,1.859,0,0,1-27.1,85.8ZM-8.82,72.52a17.381,17.381,0,0,1-1.72,7.5,13.76,13.76,0,0,1-6.68,6.4l1.78,2.36A15.925,15.925,0,0,0-7.46,78.74,16.009,16.009,0,0,0,.52,88.76l1.7-2.4c-1.2-.6-4.84-2.4-6.58-6.2a19.166,19.166,0,0,1-1.72-7.72V70.02H-8.82ZM8.065,77.355c.045-.375.27-2.175.315-2.58l-2.07-.15c-.06.81-.12,1.515-.27,2.73H3.535v1.92l2.22-.03a24,24,0,0,1-2.385,7.56l1.905.81a33.031,33.031,0,0,0,2.49-8.385l1.425-.015c.93-.015,1.77.12,1.77,1.98a13.816,13.816,0,0,1-.57,3.96c-.225.51-.705.69-1.38.69a15.317,15.317,0,0,1-1.95-.195l.12,1.935a18.85,18.85,0,0,0,2.22.15,2.832,2.832,0,0,0,2.4-.975c.735-.9,1.11-3.33,1.11-5,0-2.025-.345-4.41-3.255-4.41Zm8.79,5.85c-.1-3.285-.66-4.4-1.44-5.535l-1.8.72a9.192,9.192,0,0,1,1.065,5.085Zm-1.965-6.33a9.247,9.247,0,0,0-.96-2.34l-1.23.375a10.637,10.637,0,0,1,.9,2.415Zm2.235-.33a8.915,8.915,0,0,0-.99-2.34l-1.215.375a10.945,10.945,0,0,1,.975,2.355Zm4.8,11.835a15.847,15.847,0,0,0,4.515-1.32,16.682,16.682,0,0,0,5.085,1.35l.66-1.725a14.323,14.323,0,0,1-3.93-.66A8.585,8.585,0,0,0,30.6,83.67V82.23H25.7c.24-.345.345-.54.45-.72.645-.03,3.495-.24,4.065-.285.225.5.3.705.4.975l1.635-.84a14.846,14.846,0,0,0-2.16-3.555l-1.44.795.81,1.23c-1.05.075-2.46.135-3,.15a40.437,40.437,0,0,0,3.795-4.335L28.45,74.9a35.83,35.83,0,0,1-2.505,3.135,8.991,8.991,0,0,0-.855-.735,13.832,13.832,0,0,0,1.9-2.5l-1.8-.675a12.83,12.83,0,0,1-1.455,2.22c-.21-.135-.39-.24-.7-.4L22.03,77.325a16.968,16.968,0,0,1,2.79,1.965c-.24.255-.54.57-.72.735-.315,0-2.34.03-2.5.03l.135,1.605c.39,0,2.115-.06,2.46-.075a6.522,6.522,0,0,1-3.03,2.25l.915,1.56a10.492,10.492,0,0,0,1.215-.735A7.5,7.5,0,0,0,24.67,86a12.907,12.907,0,0,1-3.36.66Zm6.57-4.68a8.694,8.694,0,0,1-2.025,1.5,11.237,11.237,0,0,1-1.98-1.5Zm-7.8-6.12A9.758,9.758,0,0,1,17.74,81.4l.675,2.175c.33-.27.48-.39.855-.735V88.38h1.815v-7.8A14.837,14.837,0,0,0,22.3,78.24Zm-2.2,1.32a11.551,11.551,0,0,0,3.63-4.2l-1.68-.54a8.015,8.015,0,0,1-2.685,2.91Zm18.975-4.245a11.6,11.6,0,0,1-.21,1.35H33.91V77.85h2.835a12.468,12.468,0,0,1-3.3,5.04l1.425,1.47a13.568,13.568,0,0,0,1.935-2.58c1.485-1.5,2.535-1.5,2.715-1.5a1.149,1.149,0,0,1,1.095.66c-1.185.6-3.945,1.935-3.945,3.99a2.559,2.559,0,0,0,1.65,2.34,11.577,11.577,0,0,0,4.2.48c1.11,0,2.475-.045,3-.06V85.755c-1.215.12-2.55.18-3.78.18-1.5,0-2.94,0-2.94-1.17,0-.96,1.32-1.6,2.115-2.01a15.846,15.846,0,0,1-.03,1.89H42.85c.015-.48.015-.72.015-1.155,0-.495-.015-1.02-.06-1.515a21.254,21.254,0,0,1,3.585-1l-.45-1.98a27.818,27.818,0,0,0-3.54,1.185,2.5,2.5,0,0,0-2.37-1.59,4.17,4.17,0,0,0-1.725.435,7.355,7.355,0,0,0,.495-1.17h6.45V76H39.34c.135-.57.18-.81.24-1.2Zm16.53,1.71H48.4v1.86H61.6v-1.86H56v-2.2h-2.01Zm-3.645,2.94a22.759,22.759,0,0,1,1.245,6L53.59,85a23.977,23.977,0,0,0-1.38-6.15Zm-2.4,8.49h14.1v-1.86H57.9a46.72,46.72,0,0,0,1.9-6.84l-2.1-.33a45.33,45.33,0,0,1-1.74,7.17H47.95ZM66.7,74.745c-.045.735-.06.93-.12,1.785H63.535v1.815h2.85a21.782,21.782,0,0,1-1.035,4.77l2.055.48c.06-.225.075-.3.135-.54a5.574,5.574,0,0,1,3.855-1.515c.99,0,2.355.45,2.355,1.965,0,2.055-2.28,2.415-4.605,2.415a26.009,26.009,0,0,1-3.225-.225l.345,1.89c.555.045,1.725.135,2.985.135,2.43,0,6.6-.285,6.6-4.17,0-.855-.33-3.78-4.275-3.78a6.735,6.735,0,0,0-3.57.975,15.741,15.741,0,0,0,.45-2.4h7.83V76.53h-7.62c.075-.54.1-1,.165-1.725ZM78.865,76.08v1.785H84.34V79.2H79.15v1.74h5.19v1.29a4.573,4.573,0,0,0-1.2-.12c-1.98,0-3.87.885-3.87,2.865,0,1.23.84,2.775,3.75,2.775,3.315,0,3.315-1.965,3.315-2.64v-.285a21.212,21.212,0,0,1,3.045,2.43l1.305-1.74a16.508,16.508,0,0,0-4.35-2.76V80.94h4.38V79.2h-4.38V77.865h4.68V76.08h-4.68V74.775h-2V76.08Zm5.505,8.655c0,.615-.105,1.26-1.5,1.26-.69,0-1.725-.165-1.725-1.065,0-.93,1.1-1.185,1.86-1.185A3.945,3.945,0,0,1,84.37,84ZM102.265,74.73c.03.525.09,2.46.105,2.925l-4.74.105.03-2.805h-2V77.82l-2.295.045.06,1.83,2.235-.045v3.54a7.884,7.884,0,0,0,.3,2.565c.72,1.59,2.37,1.86,5.805,1.86,2.475,0,3.195-.06,3.69-.1V85.575a30.76,30.76,0,0,1-4.14.18c-3.66,0-3.75-.135-3.735-2.64l.03-3.51,4.815-.105a13.49,13.49,0,0,1-.135,2.235c-.1.57-.21.84-.795.84a13.313,13.313,0,0,1-1.845-.195l.105,1.8a12.087,12.087,0,0,0,1.9.165c2.55,0,2.625-1.575,2.7-4.89l2.28-.06-.03-1.83-2.25.045a25.227,25.227,0,0,0-.135-2.91Zm9.87,0c-.21.69-.51,1.62-.99,3.15-.855,2.7-1.065,3.36-2.895,9.33l2.07.63c.135-.54.765-3.075.81-3.285.255-.675.99-2.625,2.61-2.625.975,0,.975.69.975,1.83v.615c0,1.935.8,3.33,2.955,3.33,2.64,0,3.78-2.01,4.155-5.985l-1.935-.555c-.3,3.63-1.05,4.575-2.085,4.575-1.1,0-1.1-1.17-1.1-1.545V83.4c0-1.065,0-3.39-2.49-3.39a2.92,2.92,0,0,0-1.755.57c.135-.435,1.575-4.47,1.935-5.46Zm13.845,8.3a2.393,2.393,0,0,0,0,4.785,2.393,2.393,0,1,0,0-4.785Zm0,.9A1.485,1.485,0,1,1,124.5,85.41,1.488,1.488,0,0,1,125.98,83.925Z" transform="translate(146.18 23.12)"/>
    </g>
  </g>
</svg>
