<svg xmlns="http://www.w3.org/2000/svg" xmlns:xlink="http://www.w3.org/1999/xlink" width="352.973" height="121.943" viewBox="0 0 352.973 121.943">
  <defs>
    <filter id="パス_2781" x="11.713" y="32.147" width="326.605" height="48.101" filterUnits="userSpaceOnUse">
      <feOffset dy="3" input="SourceAlpha"/>
      <feGaussianBlur stdDeviation="3" result="blur"/>
      <feFlood flood-opacity="0.161"/>
      <feComposite operator="in" in2="blur"/>
      <feComposite in="SourceGraphic"/>
    </filter>
    <filter id="パス_2782" x="12.072" y="4.778" width="80" height="32.048" filterUnits="userSpaceOnUse">
      <feOffset dy="3" input="SourceAlpha"/>
      <feGaussianBlur stdDeviation="3" result="blur-2"/>
      <feFlood flood-opacity="0.161"/>
      <feComposite operator="in" in2="blur-2"/>
      <feComposite in="SourceGraphic"/>
    </filter>
    <filter id="パス_2783" x="12.6" y="73.778" width="233.552" height="32.08" filterUnits="userSpaceOnUse">
      <feOffset dy="3" input="SourceAlpha"/>
      <feGaussianBlur stdDeviation="3" result="blur-3"/>
      <feFlood flood-opacity="0.161"/>
      <feComposite operator="in" in2="blur-3"/>
      <feComposite in="SourceGraphic"/>
    </filter>
  </defs>
  <g id="グループ_257" data-name="グループ 257" transform="translate(-10 -1208.038)">
    <g id="e0772_1" transform="translate(10 1208.038)" opacity="0.289">
      <path id="パス_2116" data-name="パス 2116" d="M180.972,117.668l16.965,12.575,16.578-12.575H351.532l21.441-14.921V23.259L351.532,8.3H41.441L20,23.259v79.488l21.441,14.921Z" transform="translate(-20 -8.3)" fill="#f29600"/>
    </g>
    <rect id="長方形_245" data-name="長方形 245" width="314" height="16" transform="translate(30 1263)" fill="#f29600"/>
    <g transform="matrix(1, 0, 0, 1, 10, 1208.04)" filter="url(#パス_2781)">
      <path id="パス_2781-2" data-name="パス 2781" d="M11.625-13.237v4.9H14.6L11.811-6.82A20.2,20.2,0,0,0,14.663-3.6,22.713,22.713,0,0,1,9.114-2.48l1.767,5.425a32.122,32.122,0,0,0,8.742-3.1,52.276,52.276,0,0,0,8.711,3.286L30.6-2.232a29.612,29.612,0,0,1-6.045-1.519,14.74,14.74,0,0,0,3.286-4.588v-4.9H13.454a10.037,10.037,0,0,0,4.495-8.153h1.984v4.03c0,1.829.5,2.914,2.883,2.914h4.092c2.666,0,3.379-1.674,3.5-7.254l-3.968-1.209c0,1.519-.093,2.573-.124,2.852-.031.186-.124.589-.527.589h-.527c-.372,0-.5-.186-.5-.837v-5.7H13.144v2.635a6.142,6.142,0,0,1-2.294,5.146v-3.41h-2.2v-4.867H3.813v4.867H.868V-16.8H3.813V-12a25.905,25.905,0,0,1-3.1.682l.434,5.27c1.333-.372,1.922-.527,2.666-.744v3.6c0,.558,0,.9-.744.9H.837l.775,5.239H5.89c1.922,0,2.759-.992,2.759-2.79V-8.277c1.054-.372,1.55-.589,2.139-.837v-4.929c-.775.279-1.271.434-2.139.713V-16.8h1.736l2.821,3.565Zm10.323,4.9a8.464,8.464,0,0,1-2.325,2.263,16.164,16.164,0,0,1-2.945-2.263ZM58.559-13.33c.558.124.682.155.992.217l1.953-4.65c-5.487-.465-7.75-1.581-9.083-3.875h3.038a10.123,10.123,0,0,1-.992,1.55l4.495,1.364a18.57,18.57,0,0,0,1.643-3.5V-25.3H48.732a8.057,8.057,0,0,0,.651-1.116l-5.177-.155a13.085,13.085,0,0,1-4.96,3.875l2.542,3.5a16.1,16.1,0,0,0,3.658-2.449h2.015c-1.054,2.7-5.3,3.348-6.851,3.441l1.271,2.821H37.975a21.813,21.813,0,0,0,2.046-.992l-.434-4.4A55.966,55.966,0,0,1,31.5-18.135l1.023,4.991c.527-.186.837-.279,1.674-.62V-2.17h5.27a24.066,24.066,0,0,1-8.091,1.147l2.046,4.309A28.234,28.234,0,0,0,44.144.093L42.067-2.17H50.53L48.608,0A34.414,34.414,0,0,0,59.489,3.224l2.046-4.433A27.108,27.108,0,0,1,53.6-2.17h4.96ZM39.37-12.8H53.382v1.054H39.37Zm0,3.286H53.382v1.085H39.37Zm0,3.379H53.382v1.085H39.37Zm6.882-9.238a11.965,11.965,0,0,0,3.844-3.1,11,11,0,0,0,3.441,3.1ZM31.93-22.63a24.937,24.937,0,0,1,5.487,2.294l2.418-4.092A31.61,31.61,0,0,0,34.1-26.443ZM85.653-3.224c0,.744-.062.93-.806.93H81.933l.9,5.27h3.286c1.829,0,4.805,0,4.805-3.782V-25.513H65.72v15.19a15.856,15.856,0,0,1-3.1,9.7l4.433,3.689C69.037.93,70.215-3.348,70.494-5.89H75.64V2.7h4.836V-5.89h5.177ZM75.64-20.739v2.914H70.773v-2.914Zm10.013,0v2.914H80.476v-2.914ZM75.64-13.361v2.945h-4.9c0-.155.031-.806.031-.961v-1.984Zm10.013,0v2.945H80.476v-2.945ZM115.63-2.511a51.186,51.186,0,0,0-4.619-4.805c9.207-6.293,10.757-12.772,11.346-16H94.829V-18.1H114.39a18.892,18.892,0,0,1-7.316,7.285,48.682,48.682,0,0,0-4.681-3.5l-4.247,3.658A61.7,61.7,0,0,1,110.763,1.488Zm23.622-17.112a45.32,45.32,0,0,0-10.385-4.526L126.48-19.53a42.214,42.214,0,0,1,9.889,4.867ZM128.743,1.643c9.3-1.457,20.088-3.906,24.986-21.142l-5.053-2.573C145.2-9.393,138.88-5.208,126.914-4.185Zm42.5-23.56a41.724,41.724,0,0,0-9.889-3.007l-1.86,4.4a41.614,41.614,0,0,1,9.672,3.379Zm-2.852,7.781a39.907,39.907,0,0,0-9.486-3.317l-1.8,4.464a42.444,42.444,0,0,1,9.3,3.689Zm-8.091,16C171.182.4,179.366-2.666,184.574-18.321l-5.084-2.511C175.3-6.541,168.423-4.929,158.72-4ZM191.673-19.5v4.557h13.981v3.472H192.2v4.4h13.454v3.6H191.363V1.209H210.8V-19.5Zm40.579-.124a45.32,45.32,0,0,0-10.385-4.526L219.48-19.53a42.213,42.213,0,0,1,9.889,4.867ZM221.743,1.643c9.3-1.457,20.088-3.906,24.986-21.142l-5.053-2.573C238.2-9.393,231.88-5.208,219.914-4.185Zm39.122,1.426A9.187,9.187,0,0,0,262.6.031l1.271,2.883A23.263,23.263,0,0,0,270.1-.713a25.9,25.9,0,0,0,6.324,3.689L278.721-1.8a17.831,17.831,0,0,1-5.208-2.418,16.16,16.16,0,0,0,3.286-6.7v-4.5h-5.518v-3.875h1.7a6.176,6.176,0,0,1-.713,2.294l4.8.93a26.557,26.557,0,0,0,1.085-7.9h-6.727V-26.6h-5.022v2.635H260v8.494l-.868-.589a18.822,18.822,0,0,1-1.86,3.162l2.263,1.86a4.631,4.631,0,0,0,.465-.589c-.031,1.178-.031,1.333-.093,2.2a16.312,16.312,0,0,1-3.441-3.627,26.341,26.341,0,0,0,2.17-4.836v-4.867h-2.294V-26.6h-4.712v3.844h-2.852v4.867H253.7c-.682,1.426-1.922,3.534-5.549,6.293l1.364,6.448a24.861,24.861,0,0,0,2.108-1.736V2.945h4.712V-7.006a18.075,18.075,0,0,0,1.4,1.86l2.108-3.906A20.182,20.182,0,0,1,257.176-.9Zm5.549-22.351v3.875h-1.891v-3.875Zm-1.922,9.827c.031-.558.031-.713.031-1.364h7.471a14.9,14.9,0,0,1-1.736,3.255,14.537,14.537,0,0,1-1.581-2.79Zm0,.217a23.578,23.578,0,0,0,2.48,5.022,15.277,15.277,0,0,1-3.6,2.015A33.148,33.148,0,0,0,264.492-9.238ZM283.03-16.9h8.9v1.023h-9.3v2.387h9.3v.992H279.682v3.968h29.636v-3.968H297.1v-.992h9.238v-2.387H297.1V-16.9h8.866v-.589h2.573v-7.781H297.259v-1.55h-5.487v1.55H280.488v7.781h2.542Zm2.821-3.007v-1.24h6.076v1.24Zm11.253-1.24h6.138v1.24H297.1ZM282.627,2.976h5.58V2.015h12.71v.961h5.363V-7.5H282.627Zm5.58-6.665h12.71v1.612h-12.71Z" transform="translate(20 64.96)"/>
    </g>
    <g transform="matrix(1, 0, 0, 1, 10, 1208.04)" filter="url(#パス_2782)">
      <path id="パス_2782-2" data-name="パス 2782" d="M4.832-11.7H1.456v1.984H4.832a4.823,4.823,0,0,0-.016.512c0,.368,0,.912.032,1.232C1.136-6.48,1.072-3.648,1.072-3.056A2.814,2.814,0,0,0,3.984.016c2.368,0,5.344-2.416,6.576-6.64a2.658,2.658,0,0,1,2.208,2.592,2.723,2.723,0,0,1-2.3,2.672,10.116,10.116,0,0,1-2.784.3l.64,1.9c2.72-.016,6.544-.88,6.544-4.784,0-2.8-2.24-4.7-6.224-4.7A9.032,9.032,0,0,0,6.88-8.5c0-.112,0-.784.016-1.216h7.36V-11.7H6.96l.032-1.344-2.144-.016Zm2.416,7.76a21.952,21.952,0,0,1-.32-2.88,5.982,5.982,0,0,1,1.2-.112c.224,0,.384.016.592.016A7.725,7.725,0,0,1,7.248-3.936ZM5.632-2.352a2.264,2.264,0,0,1-1.392.528c-1.248,0-1.248-1.216-1.248-1.456a3.3,3.3,0,0,1,2-2.848A17.24,17.24,0,0,0,5.632-2.352ZM19.968-13.184c-.1.7-.16,1.28-.272,1.936h-2.7v2h2.336a28.677,28.677,0,0,1-2.5,7.664l2.16.736a56.436,56.436,0,0,0,2.512-8.4h3.472v-2H21.92c.112-.56.176-1.04.288-1.792Zm11.008,1.7a21.055,21.055,0,0,0-5.1.448l.16,5.776a9.432,9.432,0,0,0-1.152-.08c-2.96,0-4.064,1.632-4.064,3.168,0,1.36.912,3.04,3.824,3.04,2.848,0,3.472-1.888,3.472-2.8v-.288a12.567,12.567,0,0,1,2.032,1.76L31.36-2.5a14.114,14.114,0,0,0-3.216-2.112L28-9.184A8.968,8.968,0,0,1,29.664-9.3a11.364,11.364,0,0,1,1.328.064ZM26.1-2.432c0,1.136-.832,1.408-1.648,1.408-.672,0-1.7-.256-1.7-1.184,0-1.024,1.088-1.376,2.016-1.376a3.547,3.547,0,0,1,1.328.256ZM35.952-12.96c-.032.5-.064,1.1-.16,1.856H33.376v1.968H35.52A41.925,41.925,0,0,1,32.992.128l2.064.7a51.319,51.319,0,0,0,2.528-9.968H41.84V-11.1H37.888c.112-.784.176-1.28.24-1.84ZM46.624-9.04c-4.08-.064-5.584.464-6.8.992l.64,1.744a11.594,11.594,0,0,1,4.624-.7c.672,0,1.12.032,1.552.048ZM39.888-5.088a4.339,4.339,0,0,0-1.344,2.864C38.544.72,42.336.72,44.112.72,45.9.72,46.192.7,46.832.656V-1.408a32.039,32.039,0,0,1-3.392.16c-1.04,0-2.928,0-2.928-1.216A2.417,2.417,0,0,1,41.376-4.1ZM49.92-12.976a38.454,38.454,0,0,0-.56,6.768A43.573,43.573,0,0,0,49.84.7L51.984.448a33.877,33.877,0,0,1-.544-6.512,30.888,30.888,0,0,1,.656-6.7Zm3.12,2.624v2h4.624l.064,3.216a5.24,5.24,0,0,0-1.28-.128c-2.384,0-3.664,1.488-3.664,3.04,0,.848.48,2.928,3.7,2.928,3.184,0,3.232-2.016,3.248-2.9a12.738,12.738,0,0,1,1.984,1.84l1.36-1.84a13.14,13.14,0,0,0-3.264-2.3L59.76-8.352h2.864v-2h-2.9v-2.592h-2.1v2.592Zm4.72,7.824c0,.64-.016,1.456-1.36,1.456-1.52,0-1.7-.832-1.7-1.168,0-.688.656-1.264,1.792-1.264a2.971,2.971,0,0,1,1.264.272Z" transform="translate(20 23.96)"/>
    </g>
    <g transform="matrix(1, 0, 0, 1, 10, 1208.04)" filter="url(#パス_2783)">
      <path id="パス_2783-2" data-name="パス 2783" d="M6.224-11.744V-9.7H14.24v-2.048Zm.464,5.392a5.421,5.421,0,0,0-.96,2.976c0,3.344,3.728,3.344,5.856,3.344.88,0,2.08-.032,2.928-.112V-2.272a31.637,31.637,0,0,1-4.064.16c-1.872,0-2.768-.448-2.768-1.456a3.661,3.661,0,0,1,.736-2.016ZM2.176-12.864a64.99,64.99,0,0,0-.576,8A27.965,27.965,0,0,0,2.128.8L4.288.592a28.33,28.33,0,0,1-.544-5.808,45.012,45.012,0,0,1,.64-7.472ZM20.832-11.7H17.456v1.984h3.376a4.823,4.823,0,0,0-.016.512c0,.368,0,.912.032,1.232-3.712,1.488-3.776,4.32-3.776,4.912A2.814,2.814,0,0,0,19.984.016c2.368,0,5.344-2.416,6.576-6.64a2.658,2.658,0,0,1,2.208,2.592,2.723,2.723,0,0,1-2.3,2.672,10.116,10.116,0,0,1-2.784.3l.64,1.9c2.72-.016,6.544-.88,6.544-4.784,0-2.8-2.24-4.7-6.224-4.7a9.032,9.032,0,0,0-1.76.144c0-.112,0-.784.016-1.216h7.36V-11.7h-7.3l.032-1.344-2.144-.016Zm2.416,7.76a21.952,21.952,0,0,1-.32-2.88,5.982,5.982,0,0,1,1.2-.112c.224,0,.384.016.592.016A7.725,7.725,0,0,1,23.248-3.936ZM21.632-2.352a2.264,2.264,0,0,1-1.392.528c-1.248,0-1.248-1.216-1.248-1.456a3.3,3.3,0,0,1,2-2.848A17.24,17.24,0,0,0,21.632-2.352ZM36.4.512a24.914,24.914,0,0,0,4.224-.32c1.376-.224,5.2-.848,5.2-5.1,0-2.944-2.288-4.272-4.672-4.272a24.987,24.987,0,0,0-3.2.32c-.56.08-3.3.528-3.9.608l.368,2.1a42.884,42.884,0,0,1,6.608-1.1A2.253,2.253,0,0,1,43.584-4.9c0,3.232-3.5,3.5-7.488,3.536Zm26.448-12.96c-1.632.064-8.96.336-10.336.416-1.52.08-2.768.144-3.536.144l.08,2.24c1.008-.1,5.952-.512,7.072-.608-3.808,2.432-4.1,5.088-4.1,6.128A4.362,4.362,0,0,0,54.512-.32C55.984.4,57.616.736,61.12.752l.3-2.288c-6.656.224-7.184-1.648-7.184-2.88,0-2,1.744-3.68,2.656-4.384a6.809,6.809,0,0,1,4.016-1.536c.5-.016,1.5,0,2,.016Zm2.464.16c-.064.832-.24,2.64-.24,4.64,0,1.9.144,8.144,3.648,8.144,2.528,0,3.792-3.392,4.208-4.544l-1.776-.976A11.111,11.111,0,0,1,70.1-2.8c-.32.5-.656.9-1.184.9-1.5,0-1.7-4.112-1.7-5.84A26.7,26.7,0,0,1,67.6-12.1Zm13.856,11.1c.016-3.3-.064-7.632-3.424-10.8l-1.712,1.2c2.64,2.736,2.784,5.888,2.784,9.728ZM82.4-12.8v2.032l6.032-.1c-2.384,2.192-4.784,4.4-7.2,6.528l1.2,1.856c.592-.624,2.208-2.208,2.752-2.72a6.9,6.9,0,0,1,4.1-1.408,2.622,2.622,0,0,1,2.976,2.7,2.672,2.672,0,0,1-2.208,2.688c.016-.224.032-.32.032-.448a2.84,2.84,0,0,0-2.96-2.9c-1.44,0-2.992.9-2.992,2.5a2.619,2.619,0,0,0,1.3,2.192,5.269,5.269,0,0,0,2.976.7c4.224,0,6.08-2.3,6.08-4.912a4.179,4.179,0,0,0-4.416-4.368,4.8,4.8,0,0,0-1.776.288c.464-.384.736-.608,3.28-2.912V-12.8ZM88.32-.96C86.256-.8,85.9-1.536,85.9-1.984c0-.512.432-.9,1.12-.9a1.362,1.362,0,0,1,1.36,1.488A1.487,1.487,0,0,1,88.32-.96Zm11.728-12.224c-.032.688-.112,1.536-.272,2.9H97.1V-8.24l2.368-.032A24.517,24.517,0,0,1,96.864-.288l2.08.96c.432-.784,1.5-2.8,2.64-8.96l1.568-.016c.992-.016,1.872.128,1.872,2.112a14.737,14.737,0,0,1-.608,4.224c-.256.56-.752.736-1.472.736a14.538,14.538,0,0,1-2.08-.208l.128,2.064a21.782,21.782,0,0,0,2.368.16,2.988,2.988,0,0,0,2.56-1.04c.784-.96,1.184-3.552,1.184-5.328,0-2.16-.368-4.7-3.472-4.7H101.92c.16-.928.24-1.728.352-2.768Zm11.36,8.736c-.352-4.128-1.536-5.92-2.64-7.3l-1.824.944c.784,1.008,1.968,2.688,2.208,6.72Zm4.784-6.56H113.44V-9.04h2.672l-.1,2.432H113.2v1.952h2.752c0,3.92.624,5.472,5.12,5.472,2.64,0,5.664-.4,5.664-4.288A8.33,8.33,0,0,0,125.712-7.5l-1.968.576a7.459,7.459,0,0,1,.8,3.232c0,2.208-1.36,2.464-3.392,2.464-3.008,0-3.04-.56-3.04-3.424h.368c2.88,0,3.856-.256,4.656-.752l-.688-1.824c-.64.368-1.552.624-3.76.624h-.512L118.3-9.04h4.864v-1.968h-4.752l.112-2h-2.256Zm14.864-1.984c0,1.1-.048,4.8-.048,7.12,0,2.3,0,3.776.8,4.88A4.713,4.713,0,0,0,135.952.752c3.9,0,6.032-2.288,6.736-6.224l-2.08-.736C140.432-5.072,139.9-1.3,136-1.3c-2.5,0-2.848-1.488-2.848-3.376,0-2.384.16-7.792.176-8.3Zm16.832-.016c0,.048-.016,2.144-.016,2.352h-2.656v2h2.64V-7.5a17.467,17.467,0,0,1-3.136,3.952L145.888-1.5a11.69,11.69,0,0,0,1.952-2.448c-.016.672-.048,3.968-.048,4.72h2.16c-.032-.816-.08-2.528-.08-4.576,0-1.216.016-1.872.048-3.28,1.68-2.128,3.312-2.8,4.144-2.8.944,0,1.008.88.976,1.872l-.16,4.144c-.128,3.488,1.376,3.888,4.032,4.1l.464-2.112c-2.352.048-2.32-.848-2.288-2.176l.128-4.256a4.715,4.715,0,0,0-.368-2.448,2.625,2.625,0,0,0-2.288-1.216,7.059,7.059,0,0,0-4.592,2.192c.016-1.072.064-2.832.08-3.216Zm13.568,1.36v1.9h5.84V-8.32H161.76v1.856H167.3v1.376a4.879,4.879,0,0,0-1.28-.128c-2.112,0-4.128.944-4.128,3.056,0,1.312.9,2.96,4,2.96,3.536,0,3.536-2.1,3.536-2.816v-.3A22.626,22.626,0,0,1,172.672.272l1.392-1.856a17.608,17.608,0,0,0-4.64-2.944V-6.464H174.1V-8.32h-4.672V-9.744h4.992v-1.9h-4.992V-13.04H167.3v1.392Zm5.872,9.232c0,.656-.112,1.344-1.6,1.344-.736,0-1.84-.176-1.84-1.136,0-.992,1.168-1.264,1.984-1.264a4.208,4.208,0,0,1,1.456.272Zm19.088-10.672c.032.56.1,2.624.112,3.12l-5.056.112.032-2.992h-2.128v3.056l-2.448.048.064,1.952,2.384-.048v3.776a8.409,8.409,0,0,0,.32,2.736c.768,1.7,2.528,1.984,6.192,1.984,2.64,0,3.408-.064,3.936-.112V-1.52a32.812,32.812,0,0,1-4.416.192c-3.9,0-4-.144-3.984-2.816l.032-3.744L186.592-8a14.39,14.39,0,0,1-.144,2.384c-.112.608-.224.9-.848.9a14.2,14.2,0,0,1-1.968-.208l.112,1.92a12.893,12.893,0,0,0,2.032.176c2.72,0,2.8-1.68,2.88-5.216l2.432-.064-.032-1.952-2.4.048a26.905,26.905,0,0,0-.144-3.1Zm10.528,0c-.224.736-.544,1.728-1.056,3.36-.912,2.88-1.136,3.584-3.088,9.952L195.008.9c.144-.576.816-3.28.864-3.5.272-.72,1.056-2.8,2.784-2.8,1.04,0,1.04.736,1.04,1.952V-2.8c0,2.064.848,3.552,3.152,3.552,2.816,0,4.032-2.144,4.432-6.384l-2.064-.592c-.32,3.872-1.12,4.88-2.224,4.88-1.168,0-1.168-1.248-1.168-1.648V-3.84c0-1.136,0-3.616-2.656-3.616a3.114,3.114,0,0,0-1.872.608c.144-.464,1.68-4.768,2.064-5.824Zm17.9.48.288,8.976h1.728l.288-8.976ZM214.9-2.256V0H217.1V-2.256Z" transform="translate(20 92.96)"/>
    </g>
  </g>
</svg>
