<svg xmlns="http://www.w3.org/2000/svg" xmlns:xlink="http://www.w3.org/1999/xlink" width="258.409" height="48.432" viewBox="0 0 258.409 48.432">
  <defs>
    <filter id="パス_2860" x="24.588" y="0" width="207.44" height="48.432" filterUnits="userSpaceOnUse">
      <feOffset dy="3" input="SourceAlpha"/>
      <feGaussianBlur stdDeviation="3" result="blur"/>
      <feFlood flood-opacity="0.161"/>
      <feComposite operator="in" in2="blur"/>
      <feComposite in="SourceGraphic"/>
    </filter>
  </defs>
  <g id="グループ_317" data-name="グループ 317" transform="translate(-4491.795 -5455.242)">
    <path id="パス_2859" data-name="パス 2859" d="M0,0,37.549,2.771,0,5.115Z" transform="translate(4496.226 5457.462) rotate(60)" fill="#002063"/>
    <path id="パス_2858" data-name="パス 2858" d="M0,5.115,37.549,2.345,0,0Z" transform="translate(4750.205 5460.02) rotate(120)" fill="#002063"/>
    <g transform="matrix(1, 0, 0, 1, 4491.8, 5455.24)" filter="url(#パス_2860)">
      <path id="パス_2860-2" data-name="パス 2860" d="M-91.488-2.272h4.512A26.706,26.706,0,0,1-95.328-.448l1.792,3.456A24.753,24.753,0,0,0-83.712.1l-1.952-2.368h10.5L-77.088.256A30.681,30.681,0,0,0-67.04,3.136L-64.9-.448a27.492,27.492,0,0,1-9.088-1.824h5.472V-12.416h1.152c2.048,0,2.368-2.016,2.528-6.4h-9.76v-1.408h7.968v-5.76h-7.968V-27.3H-78.4v1.312h-3.584V-27.3h-3.744v1.312H-94.5v2.5h8.768v.992a1.69,1.69,0,0,1-.032.416h-7.648a54.425,54.425,0,0,1-.864,5.472h5.856c-.576.48-2.56,1.952-7.2,3.232l1.44,3.52c.8-.256,1.472-.512,2.688-1.024Zm19.04-10.464v1.376h-15.1v-1.376Zm-2.144-2.24v-1.632h5.824c0,1.056-.256,1.056-.608,1.056h-2.112l.128.576Zm-10.5,0a11.994,11.994,0,0,0,1.312-1.632H-78.4v1.632Zm6.688-3.84h-4.256a6.829,6.829,0,0,0,.416-1.408h3.84Zm-3.584-3.264v-1.408H-78.4v1.408ZM-72.448-9.5v1.44h-15.1V-9.5Zm-2.144-13.984h4.128v1.408h-4.128Zm2.144,17.28V-4.64h-15.1V-6.208ZM-86.176-20.224a6.684,6.684,0,0,1-.576,1.408h-3.232c.1-.48.224-1.28.256-1.408Zm47.648,18.24c0,.9-.288.928-.96.928H-42.56l.544,4.064h4.352c3.1,0,3.1-2.048,3.1-3.488V-25.952H-59.744v14.976A16.18,16.18,0,0,1-63.2-.48l3.1,3.424c2.208-2.432,3.488-6.272,3.936-9.5h6.816V2.688H-45.6V-6.56h7.072Zm-10.816-20.16v4.1h-6.464v-4.1Zm10.816,0v4.1H-45.6v-4.1ZM-49.344-14.4v4.16h-6.464V-14.4Zm10.816,0v4.16H-45.6V-14.4Zm18.976-9.088v4.1H-3.52v-4.1Zm.928,10.784a10.842,10.842,0,0,0-1.92,5.952c0,6.688,7.456,6.688,11.712,6.688,1.76,0,4.16-.064,5.856-.224V-4.544a63.273,63.273,0,0,1-8.128.32c-3.744,0-5.536-.9-5.536-2.912a7.323,7.323,0,0,1,1.472-4.032Zm-9.024-13.024a129.98,129.98,0,0,0-1.152,16A55.93,55.93,0,0,0-27.744,1.6l4.32-.416a56.66,56.66,0,0,1-1.088-11.616,90.023,90.023,0,0,1,1.28-14.944ZM7.392.32a57.473,57.473,0,0,0,12-.96c2.5-.544,10.752-2.336,10.752-11.872,0-6.368-4.384-10.592-11.1-10.592a55.5,55.5,0,0,0-8.512.9c-.928.16-8.736,1.44-8.96,1.472l.864,4.64c2.176-.544,11.808-2.912,16.256-2.912,5.5,0,6.816,3.584,6.816,6.464,0,8.192-8.48,8.832-19.008,8.768Zm27.232-24.9c-.128,1.664-.48,5.28-.48,9.28,0,3.808.288,16.288,7.3,16.288,5.056,0,7.584-6.784,8.416-9.088L46.3-10.048A22.223,22.223,0,0,1,44.192-5.6c-.64.992-1.312,1.792-2.368,1.792-3.008,0-3.392-8.224-3.392-11.68a53.4,53.4,0,0,1,.768-8.7ZM62.336-2.368c.032-6.592-.128-15.264-6.848-21.6l-3.424,2.4c5.28,5.472,5.568,11.776,5.568,19.456ZM93.7-24.9c-3.264.128-17.92.672-20.672.832-3.04.16-5.536.288-7.072.288l.16,4.48c2.016-.192,11.9-1.024,14.144-1.216-7.616,4.864-8.192,10.176-8.192,12.256A8.724,8.724,0,0,0,77.024-.64C79.968.8,83.232,1.472,90.24,1.5l.608-4.576c-13.312.448-14.368-3.3-14.368-5.76,0-4,3.488-7.36,5.312-8.768a13.617,13.617,0,0,1,8.032-3.072c.992-.032,3.008,0,4,.032Z" transform="translate(129.2 33.3)" fill="#002063"/>
    </g>
  </g>
</svg>
