<svg xmlns="http://www.w3.org/2000/svg" xmlns:xlink="http://www.w3.org/1999/xlink" width="520.409" height="83.928" viewBox="0 0 520.409 83.928">
  <defs>
    <filter id="パス_2833" x="26.541" y="34.496" width="268.624" height="48.72" filterUnits="userSpaceOnUse">
      <feOffset dy="3" input="SourceAlpha"/>
      <feGaussianBlur stdDeviation="3" result="blur"/>
      <feFlood flood-opacity="0.161"/>
      <feComposite operator="in" in2="blur"/>
      <feComposite in="SourceGraphic"/>
    </filter>
    <filter id="パス_2835" x="351.772" y="35.072" width="141.904" height="47.92" filterUnits="userSpaceOnUse">
      <feOffset dy="3" input="SourceAlpha"/>
      <feGaussianBlur stdDeviation="3" result="blur-2"/>
      <feFlood flood-opacity="0.161"/>
      <feComposite operator="in" in2="blur-2"/>
      <feComposite in="SourceGraphic"/>
    </filter>
    <filter id="パス_2834" x="288.391" y="0" width="71.628" height="83.928" filterUnits="userSpaceOnUse">
      <feOffset dy="3" input="SourceAlpha"/>
      <feGaussianBlur stdDeviation="3" result="blur-3"/>
      <feFlood flood-opacity="0.161"/>
      <feComposite operator="in" in2="blur-3"/>
      <feComposite in="SourceGraphic"/>
    </filter>
  </defs>
  <g id="グループ_289" data-name="グループ 289" transform="translate(-376.795 -6778.728)">
    <g transform="matrix(1, 0, 0, 1, 376.8, 6778.73)" filter="url(#パス_2833)">
      <path id="パス_2833-2" data-name="パス 2833" d="M10.432-22.56H3.04v3.936h7.392v4.288c-7.616,2.944-8.1,7.456-8.1,9.088,0,2.336,1.824,6.24,7.072,6.24C14.5.992,14.5-1.984,14.5-3.168v-8.416a16.488,16.488,0,0,1,4.224-.48c1.344,0,6.432,0,6.432,4.736,0,5.28-5.824,5.248-9.568,5.248l.864,3.744c6.528.1,12.992-1.6,12.992-8.736a8.512,8.512,0,0,0-2.784-6.5c-.96-.8-2.944-2.208-7.552-2.208a23.32,23.32,0,0,0-4.608.448v-3.3h6.976V-22.56H14.5v-3.392H10.432Zm0,18.432c0,.64,0,1.216-1.408,1.216a2.512,2.512,0,0,1-2.688-2.5c0-2.848,2.944-4.448,4.1-5.056Zm10.24-19.808a23.8,23.8,0,0,1,6.464,8.352L30.912-17.7a23.565,23.565,0,0,0-7.072-8.64Zm14.72,11.968a27.84,27.84,0,0,0,5.664-3.008,40.121,40.121,0,0,0,3.328,2.72A58.761,58.761,0,0,1,32.608-9.44l1.248,3.808c.64-.128,1.7-.384,2.88-.64V2.944h4V1.728H55.264V2.944h3.9V-6.3c.9.192,1.632.352,3.008.608l1.216-3.968a44.014,44.014,0,0,1-11.52-2.4,19.448,19.448,0,0,0,5.5-4.96v-2.848H46.368c.384-.512.512-.672.832-1.12l-3.776-.544H58.24v3.84h4v-7.328H49.92V-27.36h-4v2.336H33.792v7.232h4v-3.744h5.344c-.8,1.088-2.912,3.9-9.472,6.368ZM55.264-4.352v2.88H40.736v-2.88Zm-3.04-12.512A12.838,12.838,0,0,1,48-13.792a24.544,24.544,0,0,1-4.32-3.072ZM40.9-7.392A56.24,56.24,0,0,0,48-9.984a39.141,39.141,0,0,0,6.784,2.592Zm34.4-3.3h2.08l-2.3,2.56A17.014,17.014,0,0,1,78.944-4.7L81.5-7.232a15.924,15.924,0,0,0-3.9-3.456h5.664v8.8c0,.928-.352,1.024-1.024,1.024h-1.7a14.383,14.383,0,0,0,1.472-.9l-.7-3.264A43.224,43.224,0,0,1,73.28-1.312l1.28,3.456A42.888,42.888,0,0,0,79.584-.32l.608,3.232h4.1c2.176,0,2.784-1.312,2.784-2.88V-4a18.279,18.279,0,0,0,6.72,6.176L95.456-1.5a16.5,16.5,0,0,1-8.384-8.288v-.9H95.1v-3.36H87.072v-1.888h6.752v-3.008H87.072v-1.728H94.56v-3.264H91.072a18.107,18.107,0,0,0,1.216-2.88l-3.84-.48a16.138,16.138,0,0,1-1.12,3.36h-4a18.369,18.369,0,0,0-1.44-3.36l-3.744.448a21.071,21.071,0,0,1,1.216,2.912H75.776v3.264h7.488v1.728H76.672v3.008h6.592v1.888H75.3v1.76A14.78,14.78,0,0,1,72.064-16.9v-1.12h2.72V-21.6h-2.72v-5.632h-3.68V-21.6h-3.52v3.584h3.392a20.161,20.161,0,0,1-3.9,9.344l1.28,5.312a20.484,20.484,0,0,0,2.752-5.472V2.912h3.68V-11.52a12.222,12.222,0,0,0,1.6,2.368l1.632-2.5Zm17.152.1a14.842,14.842,0,0,1-3.3,3.584l2.624,2.144a17.108,17.108,0,0,0,3.488-3.648Zm16-12.9v4.1H124.48v-4.1Zm.928,10.784a10.842,10.842,0,0,0-1.92,5.952c0,6.688,7.456,6.688,11.712,6.688,1.76,0,4.16-.064,5.856-.224V-4.544a63.273,63.273,0,0,1-8.128.32c-3.744,0-5.536-.9-5.536-2.912a7.323,7.323,0,0,1,1.472-4.032Zm-9.024-13.024a129.98,129.98,0,0,0-1.152,16A55.93,55.93,0,0,0,100.256,1.6l4.32-.416a56.659,56.659,0,0,1-1.088-11.616,90.023,90.023,0,0,1,1.28-14.944ZM144.064-6.784h7.744l-2.048,1.7a29.317,29.317,0,0,0,7.232,3.424L158.88-4.64a26.626,26.626,0,0,1-5.728-2.144h5.792V-9.792H153.92v-1.984h4.256v-2.816H153.92v-1.216h-3.648v1.216h-4.928v-1.216h-3.68v1.216H137.6v2.816h4.064v1.984H136.9v3.008h6.336a23.768,23.768,0,0,1-5.408,1.92L140-1.984c-3.008-.96-3.648-2.368-4.064-3.968v-9.216H128.96v3.776h3.072v7.616a14.329,14.329,0,0,1-3.52,2.528l1.76,4.128a21.308,21.308,0,0,0,4.608-4.288,6.31,6.31,0,0,0,3.584,2.752,14.979,14.979,0,0,0,4.928.8h15.232l.864-3.744h-15.1a15.656,15.656,0,0,1-4.1-.32,24.6,24.6,0,0,0,6.176-3.168Zm6.208-4.992v1.984h-4.928v-1.984ZM129.248-24.32a30.207,30.207,0,0,1,4.864,5.5L137.12-21.6a27.581,27.581,0,0,0-4.96-5.344Zm7.52.352h6.272v1.216h-5.888V-18.5c0,.9.192,2.176,2.272,2.176h5.76c1.7,0,1.984-2.24,2.112-3.424l-3.072-.352c-.16,1.088-.192,1.344-.992,1.344H141.12c-.608,0-.608-.16-.608-.608v-1.184h5.856v-5.92h-9.6Zm11.008,0h6.56v1.216H148v4.544c0,.256.064,1.888,2.5,1.888h6.3c1.76,0,2.048-2.048,2.208-3.392l-3.264-.384c-.1,1.024-.128,1.344-.832,1.344H152c-.64,0-.768-.192-.768-.608v-1.184H157.7v-5.92h-9.92Zm22.3,3.456v4h9.152l.16,6.272a10.133,10.133,0,0,0-2.5-.256c-4.96,0-7.3,3.232-7.3,6.08,0,2.528,1.856,5.856,7.264,5.856,6.368,0,6.464-4.256,6.5-5.7a25.6,25.6,0,0,1,3.968,3.84l2.848-3.744a23.827,23.827,0,0,0-6.656-4.768l-.128-7.584h5.792v-4H183.3l-.16-5.28h-4.16l.128,5.28Zm9.376,15.968c0,.9,0,2.432-2.88,2.432-2.144,0-3.3-.992-3.3-2.368,0-1.6,1.472-2.592,3.52-2.592a6.415,6.415,0,0,1,2.656.544ZM163.744-25.952A71.37,71.37,0,0,0,162.72-12.8a97.372,97.372,0,0,0,.992,14.24l4.32-.512A64.193,64.193,0,0,1,166.88-12.32a63.18,63.18,0,0,1,1.312-13.216Zm23.68,3.232a28.051,28.051,0,0,0-1.376-4.736l-2.528.448a23.374,23.374,0,0,1,1.248,4.864Zm3.9-.256a22.634,22.634,0,0,0-1.44-4.8l-2.432.544a19.951,19.951,0,0,1,1.344,4.8Zm8.448-3.04c0,.1-.032,4.288-.032,4.7h-5.312v4h5.28v2.3a34.933,34.933,0,0,1-6.272,7.9l2.336,4.1a23.38,23.38,0,0,0,3.9-4.9c-.032,1.344-.1,7.936-.1,9.44h4.32c-.064-1.632-.16-5.056-.16-9.152,0-2.432.032-3.744.1-6.56,3.36-4.256,6.624-5.6,8.288-5.6,1.888,0,2.016,1.76,1.952,3.744l-.32,8.288C213.5-.768,216.512.032,221.824.448l.928-4.224c-4.7.1-4.64-1.7-4.576-4.352l.256-8.512c.064-2.3-.128-3.872-.736-4.9a5.249,5.249,0,0,0-4.576-2.432c-3.968,0-7.36,2.624-9.184,4.384.032-2.144.128-5.664.16-6.432ZM228.8-25.6v4.064l12.064-.192c-4.768,4.384-9.568,8.8-14.4,13.056l2.4,3.712c1.184-1.248,4.416-4.416,5.5-5.44a13.8,13.8,0,0,1,8.192-2.816c1.056,0,5.952,0,5.952,5.408,0,2.848-1.632,4.544-4.416,5.376.032-.448.064-.64.064-.9a5.679,5.679,0,0,0-5.92-5.792c-2.88,0-5.984,1.792-5.984,4.992A5.237,5.237,0,0,0,234.848.256,10.538,10.538,0,0,0,240.8,1.664c8.448,0,12.16-4.608,12.16-9.824,0-4.128-2.592-8.736-8.832-8.736a9.6,9.6,0,0,0-3.552.576c.928-.768,1.472-1.216,6.56-5.824V-25.6ZM240.64-1.92c-4.128.32-4.832-1.152-4.832-2.048,0-1.024.864-1.792,2.24-1.792a2.723,2.723,0,0,1,2.72,2.976A2.975,2.975,0,0,1,240.64-1.92Z" transform="translate(33.2 68.27)" fill="#002063"/>
    </g>
    <g transform="matrix(1, 0, 0, 1, 376.8, 6778.73)" filter="url(#パス_2835)">
      <path id="パス_2835-2" data-name="パス 2835" d="M7.392.32a57.473,57.473,0,0,0,12-.96c2.5-.544,10.752-2.336,10.752-11.872,0-6.368-4.384-10.592-11.1-10.592a55.5,55.5,0,0,0-8.512.9c-.928.16-8.736,1.44-8.96,1.472l.864,4.64c2.176-.544,11.808-2.912,16.256-2.912,5.5,0,6.816,3.584,6.816,6.464,0,8.192-8.48,8.832-19.008,8.768ZM47.936,1.472C56.32.9,62.272-2.656,62.272-12.128c0-8.032-5.12-12.8-13.408-12.8-9.024,0-15.1,5.984-15.1,14.368,0,4.64,2.176,9.472,6.5,9.472,3.68,0,5.728-3.36,6.272-4.288,2.656-4.48,3.264-11.744,3.584-15.584,6.24.48,7.552,4.992,7.552,8.608,0,7.84-5.344,9.472-11.072,9.728Zm-2.08-22.24C45.12-10.784,42.88-5.44,40.512-5.44c-.768,0-2.56-.736-2.56-4.768C37.952-14.528,39.776-19.392,45.856-20.768Zm30.5,9.984h7.04v2.72h-7.2v3.392h7.2v3.04H74.4V2.016H95.072V-1.632H87.136v-3.04h7.392V-8.064H87.136v-2.72h7.072V-26.4H76.352ZM83.52-22.912v2.848H79.968v-2.848Zm0,5.728v3.04H79.968v-3.04Zm7.072-5.728v2.848H87.136v-2.848Zm0,5.728v3.04H87.136v-3.04ZM64.992.64A73.221,73.221,0,0,0,75.328-2.88V-6.688c-.832.352-1.376.544-3.136,1.12v-6.816h2.752v-3.744H72.192v-5.888h3.136v-3.808h-10.4v3.808h3.424v5.888H65.28v3.744h3.072v8.032c-1.664.48-2.688.736-3.9,1.024Zm44.96-27.84v4.288H98.528V2.72H102.5V1.28H121.5V2.72h3.968V-22.912H113.888V-27.2Zm0,8.128v6.336H102.5v-6.336Zm11.552,0v6.336h-7.616v-6.336ZM109.952-9.056v6.464H102.5V-9.056Zm11.552,0v6.464h-7.616V-9.056Z" transform="translate(359.2 68.27)" fill="#002063"/>
    </g>
    <g transform="matrix(1, 0, 0, 1, 376.8, 6778.73)" filter="url(#パス_2834)">
      <path id="パス_2834-2" data-name="パス 2834" d="M14.186-22.386C14.186-7.134,17.548.656,42.148.656c12.546,0,25.666-2.214,25.666-19.106,0-11.726-7.134-14.35-9.594-15.252,2.624-.9,8.692-2.952,8.692-13.776,0-15.334-12.546-17.794-24.272-17.794-18.286,0-26.65,3.034-27.06,21.156H26.9c.41-7.216.656-10.824,15.826-10.824C53.3-54.94,55.514-51.578,55.514-46c0,8.118-5.986,8.118-10.414,8.118h-10v9.266H45.264c8.036,0,11.152,2.46,11.152,9.43,0,5-1.64,9.512-13.776,9.512-16.646,0-17.138-3.854-16.974-12.71Z" transform="translate(283.2 71.27)" fill="#002063"/>
    </g>
    <path id="パス_2633" data-name="パス 2633" d="M0,0,37.549,2.771,0,5.115Z" transform="translate(381.225 6815.924) rotate(60)" fill="#002063"/>
    <path id="パス_2634" data-name="パス 2634" d="M0,5.115,37.549,2.345,0,0Z" transform="translate(897.205 6818.481) rotate(120)" fill="#002063"/>
  </g>
</svg>
