<svg xmlns="http://www.w3.org/2000/svg" width="204.717" height="301.897" viewBox="0 0 204.717 301.897">
  <g id="グループ_318" data-name="グループ 318" transform="translate(-5868.77 72.448)">
    <path id="パス_2147" data-name="パス 2147" d="M117.28,138.206a90.361,90.361,0,0,0,1.272,9.31,8.388,8.388,0,0,0,4.13,6c.282.157.572.292.868.422-.024-.01,1.386.582.612.242.183.081.364.168.545.254q1.238.577,2.472,1.162,3.561,1.679,7.118,3.366a2.483,2.483,0,0,0,3.307-.867,2.437,2.437,0,0,0-.867-3.307c-3.621-1.719-7.221-3.514-10.9-5.1a7.719,7.719,0,0,1-1.344-.741c-.142-.1-.129-.092.037.027-.11-.095-.216-.192-.316-.3s-.19-.2-.28-.307c.149.2.175.23.078.091-.125-.192-.231-.391-.346-.587-.233-.391.081.358-.089-.221-.128-.441-.252-.875-.339-1.328a74.053,74.053,0,0,1-1.118-8.123,2.479,2.479,0,0,0-2.417-2.417,2.437,2.437,0,0,0-2.417,2.417Z" transform="translate(5869.598 -71.463)" fill="#211715"/>
    <path id="パス_2148" data-name="パス 2148" d="M144.871,80.953c1.813-1.754,5.137-1.883,6.74.281a8.5,8.5,0,0,1,1.153,4.2,28.108,28.108,0,0,1-.025,5.454,24.49,24.49,0,0,1-3,9.517c-1.12,1.962-3.056,4.924-5.659,4.391a2.477,2.477,0,0,0-2.973,1.688,2.44,2.44,0,0,0,1.688,2.973,7.876,7.876,0,0,0,6.158-1.012,16.117,16.117,0,0,0,4.542-4.9,29.549,29.549,0,0,0,4.156-13.564c.307-4.422.06-10.173-3.7-13.158a9.536,9.536,0,0,0-12.5.716c-2.241,2.167,1.179,5.583,3.419,3.419Z" transform="translate(5869.769 -71.906)" fill="#211715"/>
    <path id="パス_2149" data-name="パス 2149" d="M140.654,101.161a27.021,27.021,0,0,1-1.663,9.607c-.132.371-.279.735-.423,1.1-.241.61.058-.116-.112.268-.123.276-.244.553-.37.828-.539,1.181-1.121,2.344-1.732,3.489a57.975,57.975,0,0,1-11.547,15.527,23.339,23.339,0,0,1-8.82,5.366c-2.972.892-1.706,5.561,1.285,4.663,7.219-2.168,12.772-7.8,17.215-13.649a65.033,65.033,0,0,0,8.927-15.672,30.467,30.467,0,0,0,2.074-11.528C145.4,98.056,140.56,98.043,140.654,101.161Z" transform="translate(5869.577 -71.731)" fill="#211715"/>
    <path id="パス_2150" data-name="パス 2150" d="M49,81.787a9.49,9.49,0,0,0-12.289,1.108c-3.324,3.558-2.74,9.244-1.88,13.654a29.467,29.467,0,0,0,5.788,12.661c2.782,3.47,7.228,6.663,11.868,5.292,2.977-.878,1.712-5.546-1.285-4.662-2.784.822-5.626-2.027-7.164-4.049a25.182,25.182,0,0,1-4.261-9.239,24.83,24.83,0,0,1-.705-5.042c-.051-1.5-.169-3.341.662-4.675,1.511-2.429,4.706-2.45,6.822-.878a2.434,2.434,0,0,0,3.307-.867,2.475,2.475,0,0,0-.867-3.308Z" transform="translate(5868.995 -71.868)" fill="#211715"/>
    <path id="パス_2151" data-name="パス 2151" d="M48.906,107.8c4.14,13.834,13.46,26.76,26.307,33.7a34.7,34.7,0,0,0,11.435,3.922,2.5,2.5,0,0,0,2.973-1.688,2.435,2.435,0,0,0-1.688-2.973c-13.7-2-24.835-13.413-30.822-25.3a54.656,54.656,0,0,1-3.538-8.947c-.889-2.973-5.557-1.707-4.662,1.285Z" transform="translate(5869.101 -71.688)" fill="#211715"/>
    <path id="パス_2152" data-name="パス 2152" d="M103.3,43.215C97.409,48,91.373,52.714,85.727,57.791l4.041,1.067c-1.517-3.714-3.216-7.459-4.4-11.293A2.446,2.446,0,0,0,81.323,46.5C70.81,56.5,60.07,66.437,51.016,77.823a2.493,2.493,0,0,0,0,3.419,2.434,2.434,0,0,0,3.419,0C63.487,69.86,74.228,59.914,84.746,49.916l-4.04-1.071c1.184,3.835,2.884,7.58,4.4,11.293a2.458,2.458,0,0,0,4.041,1.067c5.641-5.077,11.684-9.789,17.573-14.576a2.434,2.434,0,0,0,0-3.419,2.474,2.474,0,0,0-3.419,0Z" transform="translate(5869.112 -72.14)" fill="#211715"/>
    <path id="パス_2153" data-name="パス 2153" d="M113.063,48.242c6.075,1.461,11.126,5.672,15.268,10.18a59.283,59.283,0,0,1,9.942,15.5,2.436,2.436,0,0,0,3.308.867,2.475,2.475,0,0,0,.867-3.307,62.609,62.609,0,0,0-10.957-16.756c-4.655-4.97-10.4-9.526-17.143-11.146-3.022-.726-4.314,3.934-1.285,4.663Z" transform="translate(5869.555 -72.133)" fill="#211715"/>
    <path id="パス_2154" data-name="パス 2154" d="M44.491,29.782c-10.55,11.974-11.713,29.436-9.513,44.545a30.08,30.08,0,0,0,2.736,9.7c1.449,2.754,5.625.313,4.175-2.441-.117-.222-.227-.446-.332-.673-.116-.246,0,.011.016.053-.062-.146-.12-.3-.175-.446q-.341-.919-.6-1.861a40.291,40.291,0,0,1-.944-4.305,71.176,71.176,0,0,1-.88-9.77,55.5,55.5,0,0,1,2.608-20.076A33.52,33.52,0,0,1,47.91,33.2C49.96,30.874,46.553,27.441,44.491,29.782Z" transform="translate(5868.994 -72.238)" fill="#211715"/>
    <path id="パス_2155" data-name="パス 2155" d="M73.556,6.178A86.375,86.375,0,0,0,62.82,9.819a42.994,42.994,0,0,0-8.8,4.641,59.517,59.517,0,0,0-11.9,10.457c-1.092,1.284-3.21,3.683-1.277,5.3a2.484,2.484,0,0,0,3.419,0,2.438,2.438,0,0,0,0-3.419l-.014-.012.622,1.067c.1.26.049,1.486-.162,1.6.074-.038.1-.271.181-.29.049-.011.16-.222.2-.277.2-.294-.376.446.063-.077.676-.806,1.37-1.586,2.1-2.343a60.786,60.786,0,0,1,6.547-5.9,44.521,44.521,0,0,1,9.171-5.612A69.483,69.483,0,0,1,74.838,10.84c3.028-.714,1.746-5.377-1.285-4.663Z" transform="translate(5869.038 -72.405)" fill="#211715"/>
    <path id="パス_2156" data-name="パス 2156" d="M128.2,17.295c-3.828-7.152-11.659-11.331-19.051-13.877A63.471,63.471,0,0,0,84.492.134a57.9,57.9,0,0,0-6.884.817,14.535,14.535,0,0,0-5.982,2.172,2.491,2.491,0,0,0-.867,3.307,2.434,2.434,0,0,0,3.307.867c2.408-1.788,6.411-2.022,9.519-2.26A61.091,61.091,0,0,1,94.272,5.1c7.655.749,15.559,2.881,22.126,6.975a20.9,20.9,0,0,1,7.63,7.655c1.47,2.744,5.641.3,4.174-2.441Z" transform="translate(5869.258 -72.449)" fill="#211715"/>
    <path id="パス_2157" data-name="パス 2157" d="M131.546,25.3c3.247,1.2,6.107,4.121,8.36,6.787a34.75,34.75,0,0,1,5.91,9.562c2.875,7.412,3.928,15.666,4.066,23.57a50.768,50.768,0,0,1-1.041,12.389c-.705,3.028,3.958,4.32,4.662,1.285,1.963-8.461,1.429-17.553.108-26.069a61.091,61.091,0,0,0-3.022-12.172,41.044,41.044,0,0,0-6.539-11.095c-2.985-3.727-6.67-7.238-11.221-8.917a2.439,2.439,0,0,0-2.973,1.688,2.468,2.468,0,0,0,1.688,2.973Z" transform="translate(5869.689 -72.3)" fill="#211715"/>
    <path id="パス_2158" data-name="パス 2158" d="M59.254,156.36c17.517,15.187,43.434,15.067,64.5,8.562,4.969-1.534,10.173-3.387,14.441-6.432a2.486,2.486,0,0,0,.867-3.308,2.439,2.439,0,0,0-3.308-.867,42.305,42.305,0,0,1-11.159,5.259A96.093,96.093,0,0,1,108.93,163.4a67.212,67.212,0,0,1-31.8-2.321,43.13,43.13,0,0,1-14.463-8.14c-2.341-2.029-5.775,1.377-3.419,3.42Z" transform="translate(5869.171 -71.343)" fill="#211715"/>
    <path id="パス_2159" data-name="パス 2159" d="M62.86,157.533c2.892-.912,5.794-1.792,8.686-2.7a12.137,12.137,0,0,0,4.343-2.269,8.471,8.471,0,0,0,2.6-4.751c.5-2.41.824-4.892,1.143-7.331a2.417,2.417,0,0,0-2.417-2.417,2.494,2.494,0,0,0-2.417,2.417c.036-.274-.047.341-.059.425-.044.312-.092.625-.14.937-.093.592-.2,1.184-.3,1.775-.13.754-.226,1.511-.355,2.269-.118.691-.327,1.336-.5,2.009-.08.3.22-.421.064-.145-.037.067-.065.142-.1.211-.072.141-.148.278-.232.412-.15.242-.244.317.007.036-.15.168-.292.339-.455.5-.128.124-.264.24-.4.353.373-.3-.053.015-.224.119s-.367.213-.555.308c-.1.05-.2.1-.3.146.239-.114.055-.018-.083.034-.314.119-.634.219-.955.319-1.3.41-2.609.813-3.914,1.218-1.575.488-3.151.974-4.723,1.471a2.418,2.418,0,1,0,1.285,4.662Z" transform="translate(5869.181 -71.447)" fill="#211715"/>
    <path id="パス_2160" data-name="パス 2160" d="M12.6,187.266c2.461-6.86,6.346-12.817,12.725-16.572A147.465,147.465,0,0,1,47.55,160.282c2.275-.867,4.571-1.683,6.892-2.417q1.55-.494,3.117-.936.795-.224,1.6-.43c.231-.059.465-.111.695-.176-.186.053-.519-.223-.229.046,2.281,2.115,5.708-1.3,3.419-3.42-2.1-1.946-4.273-1.382-6.766-.682-2.2.617-4.375,1.322-6.529,2.08-4.585,1.612-9.087,3.467-13.519,5.46-4.018,1.808-7.984,3.745-11.844,5.868a32.713,32.713,0,0,0-9.5,7.52,41.365,41.365,0,0,0-6.95,12.792,2.44,2.44,0,0,0,1.688,2.973,2.467,2.467,0,0,0,2.973-1.688Z" transform="translate(5868.804 -71.348)" fill="#211715"/>
    <path id="パス_2161" data-name="パス 2161" d="M157.974,263.857a17.485,17.485,0,0,1-1.921,1.63,8.185,8.185,0,0,1-1.641.943c-.5.159.309.054-.183.014a2.212,2.212,0,0,1-.568-.063c-2.726-.52-5.26-1.8-8.044-2-3.727-.272-7.524.694-11.176,1.289a20.728,20.728,0,0,1-12.188-2.137,2.486,2.486,0,0,0-3.308.867,2.44,2.44,0,0,0,.867,3.308,28.663,28.663,0,0,0,11.031,3.008c3.407.141,6.749-.785,10.1-1.248a14.925,14.925,0,0,1,6.95.329c2.278.727,5.036,1.866,7.461,1.368,2.3-.471,4.39-2.293,6.03-3.887,2.236-2.172-1.184-5.589-3.419-3.425Z" transform="translate(5869.608 -70.539)" fill="#211715"/>
    <path id="パス_2162" data-name="パス 2162" d="M114.122,243.676c6.749-1.881,13.432-4.075,19.973-6.573a74.445,74.445,0,0,1,9.678-3.23,16.378,16.378,0,0,1,4.149-.495,18.855,18.855,0,0,1,5.632,1.291c2.567.9,5.085,1.937,7.632,2.888a2.438,2.438,0,0,0,2.974-1.688,2.47,2.47,0,0,0-1.689-2.973c-5.772-2.157-11.454-5.007-17.78-4.1a48.064,48.064,0,0,0-10.03,2.94c-3.275,1.236-6.553,2.428-9.871,3.556-3.954,1.346-7.933,2.6-11.957,3.722-2.993.834-1.721,5.5,1.285,4.663Z" transform="translate(5869.554 -70.789)" fill="#211715"/>
    <path id="パス_2163" data-name="パス 2163" d="M164.843,193.493c-.276,9.258-1.373,18.526-2.327,27.731-1.171,11.305-2.442,22.606-3.952,33.871.056-.426-.046.34-.068.495l-.121.88q-.123.891-.25,1.78-.218,1.532-.453,3.063c-.227,1.472-.456,2.947-.771,4.4-.655,3.034,4,4.331,4.662,1.285.673-3.123,1.07-6.305,1.5-9.463.728-5.293,1.388-10.6,2.014-15.9,1.374-11.583,2.633-23.193,3.661-34.818.393-4.432.8-8.876.932-13.324.093-3.111-4.742-3.109-4.835,0Z" transform="translate(5869.885 -71.061)" fill="#211715"/>
    <path id="パス_2164" data-name="パス 2164" d="M33.467,195.327c1.063,7.117,3.257,14.032,4.8,21.052a2.418,2.418,0,1,0,4.663-1.285c-1.545-7.018-3.74-13.932-4.8-21.052a2.432,2.432,0,0,0-2.973-1.688,2.478,2.478,0,0,0-1.688,2.973Z" transform="translate(5868.989 -71.053)" fill="#211715"/>
    <path id="パス_2165" data-name="パス 2165" d="M7.991,185.745a194.6,194.6,0,0,0-7.252,71.8c.524,7.065.953,14.351,2.839,21.2,2.077,7.544,6.324,14.822,13.276,18.808,6.763,3.877,14.863,3.181,22.323,2.381,13.815-1.483,27.462-4.618,40.841-8.3A312.97,312.97,0,0,0,118.5,278.648q2.041-.858,4.064-1.759a2.435,2.435,0,0,0,.867-3.308,2.478,2.478,0,0,0-3.308-.867,277.282,277.282,0,0,1-35.556,12.612A295.868,295.868,0,0,1,44.42,294.44c-2.82.41-5.654.739-8.494.969-3.7.3-7.588.626-11.262-.079-7.031-1.345-12.132-6.849-14.853-13.245-2.783-6.547-3.346-13.8-3.941-20.8-.566-6.653-1.017-13.341-1.044-20.02a184.956,184.956,0,0,1,6.053-48.013q.829-3.122,1.771-6.216c.907-2.986-3.762-4.261-4.662-1.285Z" transform="translate(5868.747 -71.113)" fill="#211715"/>
    <path id="パス_2166" data-name="パス 2166" d="M35.065,253.548c9.8-1.144,19.564-2.976,29.242-4.872,9.631-1.887,19.2-4.252,28.745-6.531,5.678-1.357,11.373-2.711,16.967-4.388,2.972-.892,1.706-5.56-1.285-4.663-10.533,3.16-21.354,5.458-32.067,7.89-8.377,1.9-16.736,3.669-25.2,5.149q-4.533.792-9.074,1.523c-2.656.422-5.021.787-7.328,1.057a2.491,2.491,0,0,0-2.417,2.417,2.433,2.433,0,0,0,2.417,2.417Z" transform="translate(5868.984 -70.758)" fill="#211715"/>
    <path id="パス_2167" data-name="パス 2167" d="M109.484,237.753c.443-.081-.907.022-.462-.285a7.014,7.014,0,0,0,.271.957q.265.919.544,1.833c.456,1.5.933,3,1.417,4.488,1.123,3.457,2.29,6.9,3.456,10.342,1.172,3.458,2.351,6.915,3.5,10.381.5,1.511.992,3.022,1.469,4.533a6.123,6.123,0,0,1,.575,1.861c-.012.1.038-.13.032-.117-.116.243-.705.48-.935.61-2.7,1.546-.267,5.725,2.441,4.175,1.655-.948,3.2-2.3,3.309-4.337a12.372,12.372,0,0,0-.984-4.187c-.965-3.032-1.98-6.043-3-9.065-2.1-6.224-4.269-12.43-6.225-18.7-.419-1.346-.755-2.73-1.209-4.063a4.588,4.588,0,0,0-5.486-3.092,2.439,2.439,0,0,0-1.688,2.973,2.472,2.472,0,0,0,2.973,1.689Z" transform="translate(5869.52 -70.758)" fill="#211715"/>
    <path id="パス_2168" data-name="パス 2168" d="M136.8,157.535c.315-.2,2.78,1.05,3.3,1.253q2.518.977,5.026,1.983c4.095,1.648,8.151,3.388,12.148,5.262,4.61,2.162,9.147,4.494,13.52,7.106a36.115,36.115,0,0,1,5.557,3.685,25.135,25.135,0,0,1,4.018,4.656,53.344,53.344,0,0,1,5.718,11.08,2.487,2.487,0,0,0,2.974,1.689,2.438,2.438,0,0,0,1.688-2.97,59.705,59.705,0,0,0-5.419-11.046,36.1,36.1,0,0,0-4.349-5.66,29.966,29.966,0,0,0-5.948-4.511,182.108,182.108,0,0,0-28.169-13.769c-1.978-.8-3.964-1.578-5.953-2.351-2.161-.838-4.331-1.992-6.553-.581C131.738,155.023,134.161,159.209,136.8,157.535Z" transform="translate(5869.714 -71.34)" fill="#211715"/>
    <path id="パス_2169" data-name="パス 2169" d="M87.074,290.275a8.011,8.011,0,0,0,2.767.644c1.88.259,3.764.474,5.651.678,5,.539,10,1.007,15.008,1.438,11.513,1,23.017,1.41,34.565,1.858a203.411,203.411,0,0,0,27.1-.326c6.942-.66,14.511-1.533,20.659-5.1,6.571-3.817,9.958-10.407,10.884-17.77a78.3,78.3,0,0,0,.289-12.448c-.132-3.875-.281-7.75-.584-11.616a221.232,221.232,0,0,0-9.981-49.793q-1.061-3.324-2.216-6.619a2.477,2.477,0,0,0-2.973-1.688,2.44,2.44,0,0,0-1.688,2.974,224.08,224.08,0,0,1,11.413,48.739,208.7,208.7,0,0,1,1.3,23.066c.006,6.885-.683,14.114-6.11,18.992-4.57,4.109-11.221,5.2-17.1,5.988a161.484,161.484,0,0,1-25.894.938c-11.921-.333-23.863-.726-35.75-1.7q-7.586-.622-15.16-1.379-3.087-.3-6.169-.659-1.155-.135-2.309-.284c.72.093-.083-.012-.352-.052-.239-.035-.479-.07-.717-.114-.524-.1-.931-.345-.187.057-2.736-1.484-5.179,2.689-2.441,4.175Z" transform="translate(5869.37 -71.073)" fill="#211715"/>
    <path id="パス_2170" data-name="パス 2170" d="M74.232,71.684a9.744,9.744,0,0,1-1.012.888l.49-.378a13.24,13.24,0,0,1-2.882,1.733l.577-.244a4.675,4.675,0,0,1-.705.237A2.417,2.417,0,0,0,69.012,76.9,2.447,2.447,0,0,0,70.12,78.34a2.587,2.587,0,0,0,1.863.244,8.539,8.539,0,0,0,1.631-.634,12.911,12.911,0,0,0,1.292-.715,14.6,14.6,0,0,0,2.745-2.13,2.506,2.506,0,0,0,.705-1.712,2.461,2.461,0,0,0-.705-1.712,2.432,2.432,0,0,0-1.712-.705,2.487,2.487,0,0,0-1.712.705Z" transform="translate(5869.247 -71.934)" fill="#211715"/>
    <path id="パス_2171" data-name="パス 2171" d="M46.6,215.053a1.8,1.8,0,0,0-2.085.95L43.2,217.934a203.8,203.8,0,0,1,17.485,17.757l3.454-3.268a198.808,198.808,0,0,0-15.31-15.945,5.214,5.214,0,0,0-2.142-1.41Z" transform="translate(5869.061 -70.888)" fill="#211715"/>
    <path id="パス_2172" data-name="パス 2172" d="M62.488,234c-3.39-3.74-6.786-7.48-10.352-11.056q-2.547-2.556-5.216-4.987a25.242,25.242,0,0,0-6-4.533,8.973,8.973,0,0,0-6.931-.632,6,6,0,0,0-4.021,5.414c.052,2.476,1.712,4.581,3.4,6.228,1.639,1.6,3.267,3.2,4.87,4.835,3.981,4.064,8.073,8.02,11.948,12.188,2.123,2.283,5.54-1.141,3.419-3.419-3.022-3.253-6.182-6.383-9.317-9.53-1.418-1.422-2.835-2.847-4.222-4.3s-2.98-2.707-4.277-4.23a3.562,3.562,0,0,1-1.019-1.968c0,.125-.09.276.036.059a1.914,1.914,0,0,1,.694-.705c1.364-.705,3.191.262,4.331.966a31.7,31.7,0,0,1,4.61,3.9q2.258,2.089,4.426,4.274c3.513,3.531,6.863,7.222,10.209,10.912,2.094,2.311,5.5-1.117,3.419-3.419Z" transform="translate(5868.964 -70.907)" fill="#211715"/>
    <path id="パス_2173" data-name="パス 2173" d="M34.9,219.811a7.4,7.4,0,0,0-7.442,2.308c-2.344,2.835-1.41,6.3.648,8.965a82.51,82.51,0,0,0,6.46,6.816c2.248,2.307,4.518,4.593,6.916,6.749a2.471,2.471,0,0,0,3.419,0,2.442,2.442,0,0,0,0-3.419c-3.77-3.384-7.21-7.1-10.778-10.7a24.56,24.56,0,0,1-2.242-2.417c-.453-.6-1.135-1.467-1.016-2.272.094-.634.489-.883.992-1.138a2.44,2.44,0,0,1,1.759-.237c2.991.88,4.269-3.784,1.285-4.663Z" transform="translate(5868.936 -70.855)" fill="#211715"/>
    <path id="パス_2174" data-name="パス 2174" d="M32.893,232.081a6.587,6.587,0,0,0-5.577,3,6.394,6.394,0,0,0,.1,6.36,35.6,35.6,0,0,0,4.062,5.359l4.349,5.427a2.432,2.432,0,0,0,3.419,0,2.474,2.474,0,0,0,0-3.419c-2.26-2.82-4.573-5.607-6.784-8.467a14.168,14.168,0,0,1-.916-1.388c-.063-.144-.246-.944-.193-.5-.018-.151-.015-.3-.02-.454-.019-.624-.079.183.011-.138.012-.043.147-.471.061-.233s.221-.2.031-.03.717-.593.3-.29c.12-.087.25-.158.372-.241.156-.1.263-.121.027-.037,0,0,.6-.157.348-.116s.409,0,.409,0a2.439,2.439,0,0,0,2.417-2.417,2.464,2.464,0,0,0-2.417-2.417Z" transform="translate(5868.939 -70.764)" fill="#211715"/>
    <path id="パス_2175" data-name="パス 2175" d="M46.611,217.24c-.234.463-.943-.132-.093.43a13.229,13.229,0,0,1,1.612,1.479q1.837,1.737,3.626,3.517,3.586,3.564,6.985,7.307a194.542,194.542,0,0,1,12.707,15.512,2.491,2.491,0,0,0,3.308.867,2.437,2.437,0,0,0,.867-3.308,205.771,205.771,0,0,0-15.331-18.518q-4.079-4.366-8.415-8.481c-1.331-1.263-2.7-2.805-4.547-3.287a4.292,4.292,0,0,0-4.9,2.041c-1.4,2.772,2.773,5.223,4.175,2.441Z" transform="translate(5869.053 -70.906)" fill="#211715"/>
    <path id="パス_2176" data-name="パス 2176" d="M95.73,121.274a6.676,6.676,0,0,1,.5-.54c.081-.078.722-.576.266-.251a10.147,10.147,0,0,1,1.26-.773c.082-.041.887-.386.438-.214.285-.109.572-.211.864-.3s.6-.168.9-.234q.229-.049.459-.091c.262-.041.309-.049.144-.026s-.118.019.146-.011c.17-.015.341-.027.513-.038q.512-.03,1.025-.033a18.17,18.17,0,0,1,1.887.088c.123.011.245.024.367.039-.241-.032-.217-.027.075.017s.611.111.915.182c.288.067.574.144.857.233.1.031.936.345.395.116a2.485,2.485,0,0,0,3.307-.867c.547-1.033.377-2.781-.867-3.307a17.752,17.752,0,0,0-9.267-1.168,12.112,12.112,0,0,0-7.609,3.757,2.42,2.42,0,1,0,3.42,3.425Z" transform="translate(5869.412 -71.622)" fill="#211715"/>
    <path id="パス_2177" data-name="パス 2177" d="M99.07,97.486q.388,1.169.732,2.355a17.577,17.577,0,0,1,.634,2.51l-.087-.643a2.2,2.2,0,0,1,0,.495l.087-.643a1.449,1.449,0,0,1-.057.223l.244-.578a1.069,1.069,0,0,1-.108.193l.379-.49a.717.717,0,0,1-.1.109l.489-.378a2.9,2.9,0,0,1-.544.308l.577-.244a2.441,2.441,0,0,1-.581.16l.643-.086a6.206,6.206,0,0,1-1.093-.06,2.417,2.417,0,0,0-1.712,4.13,2.672,2.672,0,0,0,1.712.705,8.284,8.284,0,0,0,.907.075,4.889,4.889,0,0,0,2.268-.645,3.255,3.255,0,0,0,1.644-2.137,5.12,5.12,0,0,0-.1-2.28c-.355-1.473-.79-2.927-1.268-4.364a2.554,2.554,0,0,0-1.108-1.444,2.417,2.417,0,0,0-3.551,2.73Z" transform="translate(5869.458 -71.763)" fill="#211715"/>
    <path id="パス_2178" data-name="パス 2178" d="M73.907,84.627c-.6,2.38.249,7.713,4.966,7.874,6.192-.425,6.088-6.932,3.8-9.849C80.8,80.267,75.709,79.546,73.907,84.627Z" transform="translate(5869.282 -71.862)" fill="#211715"/>
    <path id="パス_2179" data-name="パス 2179" d="M123.047,81.469c.907,2.274.747,7.655-3.909,8.424-6.195.379-6.931-6.066-5.036-9.246C115.651,78.044,120.6,76.674,123.047,81.469Z" transform="translate(5869.568 -71.881)" fill="#211715"/>
  </g>
</svg>
