<svg xmlns="http://www.w3.org/2000/svg" xmlns:xlink="http://www.w3.org/1999/xlink" width="753.992" height="94.56" viewBox="0 0 753.992 94.56">
  <defs>
    <filter id="パス_2803" x="0" y="0" width="753.992" height="94.56" filterUnits="userSpaceOnUse">
      <feOffset dy="3" input="SourceAlpha"/>
      <feGaussianBlur stdDeviation="3" result="blur"/>
      <feFlood flood-opacity="0.161"/>
      <feComposite operator="in" in2="blur"/>
      <feComposite in="SourceGraphic"/>
    </filter>
  </defs>
  <g id="グループ_265" data-name="グループ 265" transform="translate(-5082.416 -255.448)">
    <g id="グループ_261" data-name="グループ 261" transform="translate(4830 -1812)">
      <rect id="長方形_199" data-name="長方形 199" width="226" height="10" transform="translate(570 2141)" fill="#f29600"/>
      <rect id="長方形_151" data-name="長方形 151" width="317" height="10" transform="translate(319 2094)" fill="#f29600"/>
      <rect id="長方形_198" data-name="長方形 198" width="133" height="10" transform="translate(680 2094)" fill="#f29600"/>
      <g transform="matrix(1, 0, 0, 1, 252.42, 2067.45)" filter="url(#パス_2803)">
        <path id="パス_2803-2" data-name="パス 2803" d="M-291.136-13.408h-16.7v3.84h12.128a13.527,13.527,0,0,1-3.68,4.288,14.249,14.249,0,0,1-4.032-4.192l-3.392,1.536a16.481,16.481,0,0,0,3.9,4.768,25.515,25.515,0,0,1-7.2,2.112l1.76,4a30.894,30.894,0,0,0,9.024-3.552,38.938,38.938,0,0,0,9.056,3.744l1.92-3.968A28.042,28.042,0,0,1-295.84-3.2a21.4,21.4,0,0,0,4.7-6.368Zm-27.68,6.72c1.216-.32,2.08-.576,3.36-.992v5.92c0,.736-.192.768-.768.768h-2.624l.448,3.936h4.064c1.568,0,2.752-.512,2.752-2.56V-8.928c1.76-.64,2.208-.832,2.912-1.152v-3.872a29.6,29.6,0,0,1-2.912,1.056v-5.216h3.1V-21.76h-3.1v-5.376h-3.872v5.376h-3.584v3.648h3.584v6.4a33.006,33.006,0,0,1-3.648.9Zm13.472-16.992a7.373,7.373,0,0,1-3.9,6.72l2.592,3.136c3.488-2.272,4.768-4.736,5.024-8.9h3.36v4.96c0,.9,0,2.592,2.56,2.592h3.616c2.624,0,3.36-1.632,3.488-7.264l-3.36-.8a35.945,35.945,0,0,1-.224,3.68.608.608,0,0,1-.64.544h-.928c-.544,0-.64-.32-.64-.768v-6.656h-10.944Zm23.168,7.776a26.284,26.284,0,0,0,3.488-1.44l-.384-3.392a62.806,62.806,0,0,1-8.128,2.464l.8,3.776a22.793,22.793,0,0,0,2.432-.768V-2.208h5.408a26.894,26.894,0,0,1-8.7,1.856l1.632,3.488a28.931,28.931,0,0,0,10.368-3.36L-276.9-2.208h9.312L-269.12-.192A35.744,35.744,0,0,0-258.336,3.04L-256.7-.512a26.068,26.068,0,0,1-8.9-1.7h5.568V-15.1c.544.16.864.224,1.472.384l1.824-3.584c-6.24-1.088-8.192-2.4-9.568-4.608h4.544a9.32,9.32,0,0,1-1.376,1.856l3.392,1.28a14.517,14.517,0,0,0,2.016-3.328V-25.7h-12.8a9.738,9.738,0,0,0,.8-1.28l-3.872-.416a15.571,15.571,0,0,1-5.184,4.384l2.016,2.688a13.97,13.97,0,0,0,3.648-2.592h2.944c-.384,1.024-1.152,3.008-7.776,4l1.28,3.008Zm2.208,2.464h16v1.472h-16Zm0,3.488h16v1.568h-16Zm0,3.648h16v1.5h-16Zm4.64-9.6a13.1,13.1,0,0,0,7.456-4.384,15.369,15.369,0,0,0,5.7,4.384ZM-286.3-23.968a27.263,27.263,0,0,1,5.728,2.208l1.6-3.36a39.625,39.625,0,0,0-5.792-1.952Zm55.776,21.984c0,.9-.288.928-.96.928h-3.072l.544,4.064h4.352c3.1,0,3.1-2.048,3.1-3.488V-25.952h-25.184v14.976A16.18,16.18,0,0,1-255.2-.48l3.1,3.424c2.208-2.432,3.488-6.272,3.936-9.5h6.816V2.688h3.744V-6.56h7.072Zm-10.816-20.16v4.1h-6.464v-4.1Zm10.816,0v4.1H-237.6v-4.1ZM-241.344-14.4v4.16h-6.464V-14.4Zm10.816,0v4.16H-237.6V-14.4Zm29.6,12.224a50.7,50.7,0,0,0-5.024-5.44c5.92-3.808,10.784-9.248,12.32-16.1h-28.384v4.064h21.984c-.768,1.472-2.528,4.9-8.928,9.248a47.039,47.039,0,0,0-5.568-4.224l-3.168,2.88A65.889,65.889,0,0,1-204.832.928Zm23.9-17.792a38.118,38.118,0,0,0-10.048-4.416l-1.984,3.68a42.716,42.716,0,0,1,9.76,4.768Zm-10.24,21.184c12.64-1.664,20.8-6.24,25.792-21.568l-4.16-1.984c-4.512,14.816-12.64,18.08-23.04,18.848Zm43.616-23.1a41.081,41.081,0,0,0-9.44-3.36l-1.664,3.648a43.031,43.031,0,0,1,9.28,3.52Zm-2.784,7.36a37.015,37.015,0,0,0-9.216-3.488l-1.728,3.648a44.382,44.382,0,0,1,9.152,3.68ZM-154.56,1.088c13.5-1.344,20-6.752,24.608-20.064l-4.1-1.888C-138.4-6.976-144.832-4.256-155.68-3.488Zm33.152-20.16v3.648h14.3V-11.2h-13.92v3.616h13.92v4.576H-121.76V.768h18.72v-19.84Zm40.384-.9a38.117,38.117,0,0,0-10.048-4.416l-1.984,3.68a42.716,42.716,0,0,1,9.76,4.768ZM-91.264,1.216c12.64-1.664,20.8-6.24,25.792-21.568l-4.16-1.984C-74.144-7.52-82.272-4.256-92.672-3.488Zm53.952-21.568a8.527,8.527,0,0,1-1.024,2.944l3.776,1.056A28.722,28.722,0,0,0-33.12-24h-7.136v-3.264h-3.776V-24H-50.88v8.16l-1.536-.992a16.324,16.324,0,0,1-2.24,3.456l2.08,1.6a16.422,16.422,0,0,0,1.7-2.144v.928c0,4.576-.736,9.216-3.392,12.9l2.816,3.136A14.192,14.192,0,0,0-49.408-.448l1.472,3.264a22.185,22.185,0,0,0,6.688-3.872,22.045,22.045,0,0,0,7.04,4.1l1.76-3.712a19.528,19.528,0,0,1-6.144-3.136,21.83,21.83,0,0,0,3.936-8.16V-15.3h-5.632v-5.056Zm-9.6,10.368a24.03,24.03,0,0,0,3.168,6.176A17.172,17.172,0,0,1-49.216-.864,31.336,31.336,0,0,0-47.2-11.712h8.672a16.887,16.887,0,0,1-2.656,5.248,18.379,18.379,0,0,1-2.336-4.544Zm2.88-10.368V-15.3h-3.136v-5.056ZM-51.968-9.28a18.364,18.364,0,0,1-3.68-4.512,21.575,21.575,0,0,0,2.464-5.376V-22.88H-56.1v-4.384h-3.648v4.384h-3.232v3.712h6.112a16.427,16.427,0,0,1-6.72,8.384l1.376,4.32a18.029,18.029,0,0,0,2.464-2.08V2.944H-56.1V-9.44a27.16,27.16,0,0,0,2.176,3.3Zm25.312-8.1h8.7v1.44H-27.9v2.528h9.952v1.5H-31.168v3.168H-.9V-11.9H-14.048v-1.5H-4.1v-2.528h-9.952v-1.44h8.736v-.864h3.68v-7.04h-12.32V-27.3H-18.08v2.016H-30.368v7.04h3.712Zm.224-2.72v-1.856H-5.6V-20.1h-8.448V-21.44h-3.9V-20.1ZM-27.9,2.944h4.064V1.728H-8.128V2.944H-4.1V-7.264H-27.9Zm4.064-7.168H-8.128V-1.44H-23.84ZM2.88-19.464A57.68,57.68,0,0,0,2.04-9.312,65.36,65.36,0,0,0,2.76,1.056L5.976.672A50.815,50.815,0,0,1,5.16-9.1a46.332,46.332,0,0,1,.984-10.056Zm4.68,3.936v3H14.5l.1,4.824a7.86,7.86,0,0,0-1.92-.192c-3.576,0-5.5,2.232-5.5,4.56,0,1.272.72,4.392,5.544,4.392,4.776,0,4.848-3.024,4.872-4.344a19.108,19.108,0,0,1,2.976,2.76l2.04-2.76a19.711,19.711,0,0,0-4.9-3.456l-.072-5.784h4.3v-3H17.592v-3.888H14.448v3.888ZM14.64-3.792c0,.96-.024,2.184-2.04,2.184-2.28,0-2.544-1.248-2.544-1.752,0-1.032.984-1.9,2.688-1.9a4.457,4.457,0,0,1,1.9.408ZM32.952-.528A41.246,41.246,0,0,0,28.1-5.88L25.536-4.152A46.138,46.138,0,0,1,30,1.44ZM53.536-7.9H48.928V-4.1H63.84V2.88H67.9V-4.1H79.072V-7.9H67.9v-5.12h8.928v-3.712H67.9v-3.776h9.952V-24.32H58.688a18.232,18.232,0,0,0,.832-2.368l-4.16-.736A18.7,18.7,0,0,1,48.512-17.6l2.656,3.456a21.364,21.364,0,0,0,2.368-2.24Zm.32-8.832a38.024,38.024,0,0,0,2.784-3.776h7.2v3.776Zm9.984,3.712V-7.9H57.5v-5.12ZM103.808-.992a53.189,53.189,0,0,0-4.384-4.064c4.672-4.1,8.416-8.512,9.824-11.584v-3.808H94.912A35.915,35.915,0,0,0,96.9-24.7l-4.1-1.152A38.86,38.86,0,0,1,81.5-10.528L84.448-7.52a49.028,49.028,0,0,0,8.064-9.056h11.744c-2.144,4.064-7.168,8.384-7.968,9.056-2.5-1.824-3.072-2.208-5.12-3.488L88.512-8a65,65,0,0,1,12.352,9.952Zm19.168-10.88h19.392V-24H138.56a21.279,21.279,0,0,0,1.664-2.944l-4.064-.608A15.566,15.566,0,0,1,134.528-24h-3.68a16.256,16.256,0,0,0-1.6-3.552l-3.84.64A24.166,24.166,0,0,1,126.944-24h-3.968Zm7.968-9.312v2.016h-4.32v-2.016Zm0,4.512v2.048h-4.32v-2.048Zm7.808-4.512v2.016h-4.384v-2.016Zm0,4.512v2.048h-4.384v-2.048ZM123.872,2.912h3.776V1.728H137.7V2.912H141.5v-13.28H123.872ZM137.7-7.52v1.888H127.648V-7.52Zm0,4.416v1.888H127.648V-3.1Zm-24.7,2.176a54.985,54.985,0,0,0,9.44-3.168l-.16-3.68c-.736.256-.928.352-2.464.8v-8.9h2.4v-3.9h-2.4v-7.456h-3.776v7.456H112.9v3.9h3.136v9.984a35.184,35.184,0,0,1-3.52.736ZM147.136,3.04c4.16-4.032,6.336-11.808,6.336-20.864h2.5A142.935,142.935,0,0,1,155.36-2.56c-.256,1.344-.512,1.344-1.408,1.344h-2.784l.608,4.128h2.976c2.848,0,3.9-.608,4.416-3.648.32-1.952.736-7.456.736-21.056h-6.432v-5.44H149.6v5.44h-4.576v3.968H149.6c0,11.776-3.424,15.392-5.28,17.408Zm14.944-.128h3.808V.832h4.224v2.08h3.808V-25.7H162.08Zm8.032-24.768V-3.072h-4.224V-21.856Zm10.472,2.368c0,1.656-.072,7.2-.072,10.68,0,3.456,0,5.664,1.2,7.32,1.44,1.968,3.576,2.616,6.216,2.616,5.856,0,9.048-3.432,10.1-9.336l-3.12-1.1c-.264,1.7-1.056,7.368-6.912,7.368-3.744,0-4.272-2.232-4.272-5.064,0-3.576.24-11.688.264-12.456Zm41.688.816c-2.448.1-13.44.5-15.5.624-2.28.12-4.152.216-5.3.216l.12,3.36c1.512-.144,8.928-.768,10.608-.912-5.712,3.648-6.144,7.632-6.144,9.192a6.543,6.543,0,0,0,3.72,5.712C211.976.6,214.424,1.1,219.68,1.128l.456-3.432c-9.984.336-10.776-2.472-10.776-4.32,0-3,2.616-5.52,3.984-6.576a10.213,10.213,0,0,1,6.024-2.3c.744-.024,2.256,0,3,.024Zm3.7.24c-.1,1.248-.36,3.96-.36,6.96,0,2.856.216,12.216,5.472,12.216,3.792,0,5.688-5.088,6.312-6.816l-2.664-1.464A16.666,16.666,0,0,1,233.144-4.2c-.48.744-.984,1.344-1.776,1.344-2.256,0-2.544-6.168-2.544-8.76a40.05,40.05,0,0,1,.576-6.528ZM246.752-1.776c.024-4.944-.1-11.448-5.136-16.2l-2.568,1.8c3.96,4.1,4.176,8.832,4.176,14.592Zm3.432-15.7v2.856h8.76v2.136h-8.3V-9.7h8.3v2.064a7.318,7.318,0,0,0-1.92-.192c-3.168,0-6.192,1.416-6.192,4.584,0,1.968,1.344,4.44,6,4.44,5.3,0,5.3-3.144,5.3-4.224V-3.48A33.938,33.938,0,0,1,267.008.408L269.1-2.376a26.412,26.412,0,0,0-6.96-4.416V-9.7h7.008V-12.48h-7.008v-2.136h7.488v-2.856h-7.488V-19.56h-3.192v2.088Zm8.808,13.848c0,.984-.168,2.016-2.4,2.016-1.1,0-2.76-.264-2.76-1.7,0-1.488,1.752-1.9,2.976-1.9a6.312,6.312,0,0,1,2.184.408Zm25.7-13.608H273.464v2.952h11.3l.024,1.608a4.587,4.587,0,0,0-2.088-.48,4.9,4.9,0,0,0-5.232,4.992,4.856,4.856,0,0,0,5.04,4.824,3.446,3.446,0,0,0,2.424-.744c-.6,1.776-2.112,2.664-7.7,2.76l1.008,2.9a25.48,25.48,0,0,0,4.44-.552c5.04-1.128,5.712-5.376,5.712-7.488a8.948,8.948,0,0,0-.288-2.256c-.024-.1-.168-.528-.168-.6V-14.28h6.624v-2.952h-6.624v-2.424h-3.288Zm.216,9.24a2.062,2.062,0,0,1-2.16,2.088,2.2,2.2,0,0,1-2.328-2.3,2.284,2.284,0,0,1,2.376-2.328,1.947,1.947,0,0,1,2.112,1.992ZM301.568-6.36a3.81,3.81,0,0,0-3.816,3.816,3.831,3.831,0,0,0,3.816,3.84,3.851,3.851,0,0,0,3.84-3.84A3.831,3.831,0,0,0,301.568-6.36Zm0,1.44a2.381,2.381,0,0,1,2.376,2.376,2.366,2.366,0,0,1-2.376,2.376,2.366,2.366,0,0,1-2.376-2.376A2.381,2.381,0,0,1,301.568-4.92Zm-663.384,42.3a19.377,19.377,0,0,1-1.632,7.92V44.128h-8.4V39.976l1.248,2.088a12.606,12.606,0,0,0,2.5-3.6v5.28h2.4V38.272a16.713,16.713,0,0,0,1.9,2.832l1.392-2.28a19.359,19.359,0,0,1-2.976-3.816h2.424V32.44H-365.7V25.552h-2.4V32.44h-3.1v2.568h2.76a16.1,16.1,0,0,1-3.408,4.512V26.344h-2.736V47.7h2.736v-.816h8.4v-.216l1.9,1.44c1.9-2.64,2.5-7.3,2.5-10.632v-1.8h2.04V48.136h2.784V35.68h1.512V32.608h-6.336V29.68a22.792,22.792,0,0,0,6.192-1.632l-1.224-2.76a22.984,22.984,0,0,1-7.728,1.848Zm-6.7-6.36A20.074,20.074,0,0,0-369.4,26.8l-2.112.552a19.454,19.454,0,0,1,.96,4.32Zm4.968.72a22.588,22.588,0,0,0,1.536-4.488l-2.136-.48a24.227,24.227,0,0,1-1.3,4.176Zm16.7-5.5c-.72,2.664-.912,8.088-.912,10.968a38.655,38.655,0,0,0,.192,4.128l3.144-.24a18.054,18.054,0,0,1-.24-3c0-3.072,3.12-6.648,5.952-6.648,3.408,0,3.408,4.7,3.408,5.616,0,6.456-4.512,7.2-11.088,7.272l.7,3.024c8.256,0,13.728-2.232,13.728-10.128,0-5.88-2.832-8.736-6.456-8.736a7.367,7.367,0,0,0-5.856,3.048,19.582,19.582,0,0,1,.84-4.992Zm21.552,15.864a1.772,1.772,0,0,0,1.7,1.944h2.928c2.04,0,2.592-1.656,3-5.784l-2.52-.576a25.387,25.387,0,0,1-.264,2.808c-.024.216-.144.7-.5.7h-.936c-.432,0-.48-.1-.48-.5V34.624l4.7-.84-.072-2.976-4.632.816v-6h-2.928v6.528l-2.3.384.216,2.976,2.088-.36Zm6.792-12.648h3.912c0,7.776-.576,12.792-7.368,16.368l2.136,2.544c6.648-4.2,8.232-9.048,8.28-18.912h3.048c.024,2.616.048,11.976-.84,14.76-.312.936-.672.96-1.44.96h-3.312l.6,3.048h3.936a2.931,2.931,0,0,0,2.976-1.944c1.32-3.288,1.176-16.92,1.152-19.776H-318.5Zm20.328-2.976c0,.072-.024,3.216-.024,3.528h-3.984v3h3.96v1.728a26.2,26.2,0,0,1-4.7,5.928l1.752,3.072a17.535,17.535,0,0,0,2.928-3.672c-.024,1.008-.072,5.952-.072,7.08h3.24c-.048-1.224-.12-3.792-.12-6.864,0-1.824.024-2.808.072-4.92,2.52-3.192,4.968-4.2,6.216-4.2,1.416,0,1.512,1.32,1.464,2.808l-.24,6.216c-.192,5.232,2.064,5.832,6.048,6.144l.7-3.168c-3.528.072-3.48-1.272-3.432-3.264l.192-6.384a7.073,7.073,0,0,0-.552-3.672,3.937,3.937,0,0,0-3.432-1.824c-2.976,0-5.52,1.968-6.888,3.288.024-1.608.1-4.248.12-4.824Zm30.84,2.28h-11.208V31.72h11.256l.024,1.584a4.048,4.048,0,0,0-2.088-.48,4.871,4.871,0,0,0-5.16,5.232,4.651,4.651,0,0,0,4.728,4.632,3.671,3.671,0,0,0,2.712-.768c-.576,1.368-1.416,2.664-7.632,2.736l.84,2.928c4.008-.312,5.5-.768,6.744-1.44,3.072-1.656,3.384-5.208,3.384-6.6A10.349,10.349,0,0,0-264.064,37V31.72h6.624V28.768h-6.624V26.344h-3.288Zm.24,9.24A2.009,2.009,0,0,1-269.2,40.1a2.161,2.161,0,0,1-2.28-2.256,2.294,2.294,0,0,1,2.376-2.4,1.82,1.82,0,0,1,2.016,1.992Zm10.536-1.464a15.14,15.14,0,0,0-1.56-3.792l-1.9.624a17.4,17.4,0,0,1,1.464,3.888Zm-3.288.672a14.819,14.819,0,0,0-1.44-3.888L-263.2,34a16.073,16.073,0,0,1,1.32,3.864Zm16.9.984c3.144-2.88,3.96-5.88,4.272-9.24h2.568c-.024,4.128-.48,5.544-.552,5.712a1.052,1.052,0,0,1-1.1.7h-2.376l.528,2.688h3.288c1.752,0,3.048-.672,3.048-11.784h-10.752V28.96h2.64c-.36,3.6-1.512,5.448-3.6,7.2l-.144-1.512c-.528.1-.792.12-3.072.456v-1.68h2.928v-2.3H-248.2V29.488h3.456V27.04H-248.2V25.528h-2.808V27.04h-4.032v2.448h4.032V31.12h-3.432v2.3h3.432v2.064c-2.856.336-3.432.36-4.248.408l.288,2.688c3.936-.5,4.536-.6,10.056-1.56l-.072-.744Zm-2.352.048a6.828,6.828,0,0,1-.12,1.224h-9.84v2.64h8.616c-1.8,2.136-6.1,3-8.784,3.288l1.176,2.88c2.688-.456,7.8-1.68,10.224-5.112a16.384,16.384,0,0,0,10.248,5.088l1.272-2.9a15.485,15.485,0,0,1-8.784-3.24h8.544v-2.64h-9.744a10.562,10.562,0,0,0,.12-1.224Zm14.064.288c.912-.072,1.992-.144,3.672-.312v9.96h2.688V37.936c.288-.024,1.128-.144,1.464-.192.072.288.12.5.24.984l2.5-.816a22.4,22.4,0,0,0-1.872-4.8l-2.16.744a11.3,11.3,0,0,1,.648,1.656c-.672.072-1.752.144-2.472.168a44.688,44.688,0,0,0,4.728-6.744l-2.52-1.008a36.828,36.828,0,0,1-2.328,3.912,13.089,13.089,0,0,0-.936-1.056,28.1,28.1,0,0,0,2.64-4.416l-2.448-.912a33.392,33.392,0,0,1-1.992,3.624c-.192-.12-.288-.216-.624-.456l-1.416,2.328a18.121,18.121,0,0,1,3.168,3.192c-.336.48-.816,1.128-1.248,1.68-.456.024-.888.024-1.8.024Zm.672.984a24.753,24.753,0,0,1-.888,6.216l2.3,1.128a34.18,34.18,0,0,0,.912-7.008Zm11.976-13.992a15.012,15.012,0,0,1-3.624,7.224l2.064,2.376a14.368,14.368,0,0,0,2.5-3.576h5.28a120.534,120.534,0,0,1-.528,12.84c-.192.7-.528.768-1.2.768h-4.272l.576,3.024h5.28a2.459,2.459,0,0,0,2.232-1.7c.7-1.752.768-6.768.96-17.736h-7.1a20.761,20.761,0,0,0,.84-2.976Zm-5.688,14.208a42.291,42.291,0,0,1,.672,5.544l2.52-.408a30.339,30.339,0,0,0-.984-5.544Zm4.344-3.888a26.517,26.517,0,0,1,2.9,5.88l2.64-1.392A20.767,20.767,0,0,0-217.36,34.6Zm16.512-9.336c0,1.656-.072,7.2-.072,10.68,0,3.456,0,5.664,1.2,7.32,1.44,1.968,3.576,2.616,6.216,2.616,5.856,0,9.048-3.432,10.1-9.336l-3.12-1.1c-.264,1.7-1.056,7.368-6.912,7.368-3.744,0-4.272-2.232-4.272-5.064,0-3.576.24-11.688.264-12.456Zm41.688.816c-2.448.1-13.44.5-15.5.624-2.28.12-4.152.216-5.3.216l.12,3.36c1.512-.144,8.928-.768,10.608-.912-5.712,3.648-6.144,7.632-6.144,9.192a6.543,6.543,0,0,0,3.72,5.712c2.208,1.08,4.656,1.584,9.912,1.608l.456-3.432c-9.984.336-10.776-2.472-10.776-4.32,0-3,2.616-5.52,3.984-6.576a10.213,10.213,0,0,1,6.024-2.3c.744-.024,2.256,0,3,.024Zm6.312-.816c0,1.656-.072,7.2-.072,10.68,0,3.456,0,5.664,1.2,7.32,1.44,1.968,3.576,2.616,6.216,2.616,5.856,0,9.048-3.432,10.1-9.336l-3.12-1.1c-.264,1.7-1.056,7.368-6.912,7.368-3.744,0-4.272-2.232-4.272-5.064,0-3.576.24-11.688.264-12.456Zm21.6,2.016v2.856h8.76V33.52h-8.3V36.3h8.3v2.064a7.318,7.318,0,0,0-1.92-.192c-3.168,0-6.192,1.416-6.192,4.584,0,1.968,1.344,4.44,6,4.44,5.3,0,5.3-3.144,5.3-4.224V42.52a33.939,33.939,0,0,1,4.872,3.888l2.088-2.784a26.413,26.413,0,0,0-6.96-4.416V36.3h7.008V33.52h-7.008V31.384h7.488V28.528h-7.488V26.44h-3.192v2.088Zm8.808,13.848c0,.984-.168,2.016-2.4,2.016-1.1,0-2.76-.264-2.76-1.7,0-1.488,1.752-1.9,2.976-1.9a6.312,6.312,0,0,1,2.184.408Zm14.976-14.808c-.1,1.248-.36,3.96-.36,6.96,0,2.856.216,12.216,5.472,12.216,3.792,0,5.688-5.088,6.312-6.816l-2.664-1.464a16.666,16.666,0,0,1-1.584,3.336c-.48.744-.984,1.344-1.776,1.344-2.256,0-2.544-6.168-2.544-8.76a40.049,40.049,0,0,1,.576-6.528Zm20.784,16.656c.024-4.944-.1-11.448-5.136-16.2l-2.568,1.8c3.96,4.1,4.176,8.832,4.176,14.592Zm10.2,1.248A41.246,41.246,0,0,0-83.9,40.12l-2.568,1.728A46.138,46.138,0,0,1-82,47.44Zm24.488,3.472a33.807,33.807,0,0,0,9.632-2.816,35.589,35.589,0,0,0,10.848,2.88l1.408-3.68a30.556,30.556,0,0,1-8.384-1.408A18.315,18.315,0,0,0-36.064,38.9V35.824H-46.5c.512-.736.736-1.152.96-1.536,1.376-.064,7.456-.512,8.672-.608.48,1.056.64,1.5.864,2.08l3.488-1.792a31.671,31.671,0,0,0-4.608-7.584l-3.072,1.7,1.728,2.624c-2.24.16-5.248.288-6.4.32a86.268,86.268,0,0,0,8.1-9.248l-3.872-1.6a76.437,76.437,0,0,1-5.344,6.688A19.18,19.18,0,0,0-47.808,25.3a29.509,29.509,0,0,0,4.064-5.344l-3.84-1.44a27.372,27.372,0,0,1-3.1,4.736c-.448-.288-.832-.512-1.5-.864l-2.144,2.976a36.2,36.2,0,0,1,5.952,4.192c-.512.544-1.152,1.216-1.536,1.568-.672,0-4.992.064-5.344.064l.288,3.424c.832,0,4.512-.128,5.248-.16a13.914,13.914,0,0,1-6.464,4.8l1.952,3.328a22.383,22.383,0,0,0,2.592-1.568A16.009,16.009,0,0,0-48.7,43.856a27.534,27.534,0,0,1-7.168,1.408Zm14.016-9.984a18.547,18.547,0,0,1-4.32,3.2,23.972,23.972,0,0,1-4.224-3.2ZM-57.184,25.9a20.818,20.818,0,0,1-6.3,8.16l1.44,4.64c.7-.576,1.024-.832,1.824-1.568V48.944h3.872V32.3a31.652,31.652,0,0,0,2.592-4.992Zm-4.7,2.816a24.642,24.642,0,0,0,7.744-8.96l-3.584-1.152a17.1,17.1,0,0,1-5.728,6.208Zm39.616,4.992v3.36h2.56a50.125,50.125,0,0,1-1.824,8.864l3.744.672a16.108,16.108,0,0,0,.544-2.176h10.72C-6.688,45.616-7.2,45.9-8.16,45.9h-3.776l.672,3.04h4.48c3.328,0,3.552-1.856,3.872-4.512h1.536v-3.36h-1.28c.128-2.144.16-3.168.192-4h1.5v-3.36H-2.432c0-.8.064-6.752.064-6.88h-14.5c.672-1.056.96-1.664,1.216-2.144H-.96v-3.52H-14.272a13.424,13.424,0,0,0,.48-2.208l-3.712-.288a16.858,16.858,0,0,1-3.2,6.944A11.157,11.157,0,0,0-21.92,23.6l-1.76,1.056v-5.92h-3.808V48.944h3.808V26.224a23.344,23.344,0,0,1,1.664,3.68l1.152-.832,1.184,1.248.672-.672c-.032.64-.256,3.232-.32,4.064Zm16.32-3.648c-.032,1.312-.032,2.432-.064,3.648H-9.184c.064-.9.128-1.856.192-3.648Zm-6.368,0c-.032.512-.16,3.072-.192,3.648h-3.2c.16-1.664.224-2.688.288-3.648Zm-4.32,11.008c.224-1.44.352-2.528.544-4h3.328c-.064.9-.256,2.688-.448,4Zm6.816,0c.128-.96.256-2.24.416-4h3.36c-.032,1.28-.128,3.04-.16,4ZM-30.688,25.2a32.9,32.9,0,0,1-.832,8.032l2.464,1.568a39.9,39.9,0,0,0,.8-9.44Zm36.8-5.184c0,2.208-.1,9.6-.1,14.24,0,4.608,0,7.552,1.6,9.76C9.536,46.64,12.384,47.5,15.9,47.5c7.808,0,12.064-4.576,13.472-12.448l-4.16-1.472c-.352,2.272-1.408,9.824-9.216,9.824-4.992,0-5.7-2.976-5.7-6.752,0-4.768.32-15.584.352-16.608ZM61.7,21.1c-3.264.128-17.92.672-20.672.832-3.04.16-5.536.288-7.072.288l.16,4.48c2.016-.192,11.9-1.024,14.144-1.216-7.616,4.864-8.192,10.176-8.192,12.256a8.724,8.724,0,0,0,4.96,7.616c2.944,1.44,6.208,2.112,13.216,2.144l.608-4.576c-13.312.448-14.368-3.3-14.368-5.76,0-4,3.488-7.36,5.312-8.768a13.617,13.617,0,0,1,8.032-3.072c.992-.032,3.008,0,4,.032Zm4.928.32c-.128,1.664-.48,5.28-.48,9.28,0,3.808.288,16.288,7.3,16.288,5.056,0,7.584-6.784,8.416-9.088L78.3,35.952A22.223,22.223,0,0,1,76.192,40.4c-.64.992-1.312,1.792-2.368,1.792-3.008,0-3.392-8.224-3.392-11.68a53.4,53.4,0,0,1,.768-8.7ZM94.336,43.632c.032-6.592-.128-15.264-6.848-21.6l-3.424,2.4c5.28,5.472,5.568,11.776,5.568,19.456ZM100.8,20.4v4.064l12.064-.192c-4.768,4.384-9.568,8.8-14.4,13.056l2.4,3.712c1.184-1.248,4.416-4.416,5.5-5.44a13.8,13.8,0,0,1,8.192-2.816c1.056,0,5.952,0,5.952,5.408,0,2.848-1.632,4.544-4.416,5.376.032-.448.064-.64.064-.9a5.679,5.679,0,0,0-5.92-5.792c-2.88,0-5.984,1.792-5.984,4.992a5.237,5.237,0,0,0,2.592,4.384,10.538,10.538,0,0,0,5.952,1.408c8.448,0,12.16-4.608,12.16-9.824,0-4.128-2.592-8.736-8.832-8.736a9.6,9.6,0,0,0-3.552.576c.928-.768,1.472-1.216,6.56-5.824V20.4Zm11.84,23.68c-4.128.32-4.832-1.152-4.832-2.048,0-1.024.864-1.792,2.24-1.792a2.723,2.723,0,0,1,2.72,2.976A2.974,2.974,0,0,1,112.64,44.08Zm29.248-21.248a27.809,27.809,0,0,1-2.752,12,22.017,22.017,0,0,1-10.688,10.24l2.848,3.776a25.479,25.479,0,0,0,12.768-16.064,25.614,25.614,0,0,0,12.768,16.032l2.72-3.84c-1.92-.96-7.744-3.84-10.528-9.92A30.665,30.665,0,0,1,146.272,22.7V18.832h-4.384ZM168.9,30.568c.072-.6.432-3.48.5-4.128L166.1,26.2c-.1,1.3-.192,2.424-.432,4.368h-4.008V33.64l3.552-.048a38.4,38.4,0,0,1-3.816,12.1l3.048,1.3a52.85,52.85,0,0,0,3.984-13.416l2.28-.024c1.488-.024,2.832.192,2.832,3.168,0,.816-.168,4.656-.912,6.336-.36.816-1.128,1.1-2.208,1.1a24.507,24.507,0,0,1-3.12-.312l.192,3.1a30.158,30.158,0,0,0,3.552.24,4.531,4.531,0,0,0,3.84-1.56c1.176-1.44,1.776-5.328,1.776-7.992,0-3.24-.552-7.056-5.208-7.056Zm14.064,9.36c-.168-5.256-1.056-7.032-2.3-8.856l-2.88,1.152c1.416,2.784,1.7,4.344,1.7,8.136ZM179.824,29.8a14.794,14.794,0,0,0-1.536-3.744l-1.968.6a17.02,17.02,0,0,1,1.44,3.864Zm3.576-.528a14.264,14.264,0,0,0-1.584-3.744l-1.944.6a17.512,17.512,0,0,1,1.56,3.768Zm7.68,18.936A25.355,25.355,0,0,0,198.3,46.1a26.692,26.692,0,0,0,8.136,2.16L207.5,45.5a22.917,22.917,0,0,1-6.288-1.056,13.736,13.736,0,0,0,3.744-3.768v-2.3h-7.824c.384-.552.552-.864.72-1.152,1.032-.048,5.592-.384,6.5-.456.36.792.48,1.128.648,1.56l2.616-1.344a23.753,23.753,0,0,0-3.456-5.688l-2.3,1.272,1.3,1.968c-1.68.12-3.936.216-4.8.24a64.7,64.7,0,0,0,6.072-6.936l-2.9-1.2a57.328,57.328,0,0,1-4.008,5.016,14.385,14.385,0,0,0-1.368-1.176,22.132,22.132,0,0,0,3.048-4.008l-2.88-1.08a20.528,20.528,0,0,1-2.328,3.552c-.336-.216-.624-.384-1.128-.648l-1.608,2.232a27.149,27.149,0,0,1,4.464,3.144c-.384.408-.864.912-1.152,1.176-.5,0-3.744.048-4.008.048l.216,2.568c.624,0,3.384-.1,3.936-.12a10.435,10.435,0,0,1-4.848,3.6l1.464,2.5a16.787,16.787,0,0,0,1.944-1.176,12.007,12.007,0,0,0,2.208,2.136,20.651,20.651,0,0,1-5.376,1.056Zm10.512-7.488a13.91,13.91,0,0,1-3.24,2.4,17.979,17.979,0,0,1-3.168-2.4Zm-12.48-9.792a15.614,15.614,0,0,1-4.728,6.12l1.08,3.48c.528-.432.768-.624,1.368-1.176v8.856h2.9V35.728a23.739,23.739,0,0,0,1.944-3.744Zm-3.528,2.112a18.481,18.481,0,0,0,5.808-6.72l-2.688-.864a12.824,12.824,0,0,1-4.3,4.656Zm30.36-6.792a18.556,18.556,0,0,1-.336,2.16h-5.352V31.36h4.536a19.948,19.948,0,0,1-5.28,8.064l2.28,2.352a21.71,21.71,0,0,0,3.1-4.128c2.376-2.4,4.056-2.4,4.344-2.4a1.838,1.838,0,0,1,1.752,1.056c-1.9.96-6.312,3.1-6.312,6.384a4.1,4.1,0,0,0,2.64,3.744c1.392.552,3.216.768,6.72.768,1.776,0,3.96-.072,4.8-.1v-3.1c-1.944.192-4.08.288-6.048.288-2.4,0-4.7,0-4.7-1.872,0-1.536,2.112-2.568,3.384-3.216a25.354,25.354,0,0,1-.048,3.024h3.144c.024-.768.024-1.152.024-1.848,0-.792-.024-1.632-.1-2.424a34.006,34.006,0,0,1,5.736-1.608l-.72-3.168a44.51,44.51,0,0,0-5.664,1.9,3.994,3.994,0,0,0-3.792-2.544,6.673,6.673,0,0,0-2.76.7,11.769,11.769,0,0,0,.792-1.872H228.4V28.408h-9.456c.216-.912.288-1.3.384-1.92Zm26.448,2.736H233.44V31.96h21.12V28.984h-8.952V25.456h-3.216Zm-5.832,4.7a36.414,36.414,0,0,1,1.992,9.6l3.192-.48a38.363,38.363,0,0,0-2.208-9.84Zm-3.84,13.584h22.56V44.3h-6.648a74.753,74.753,0,0,0,3.048-10.944l-3.36-.528A72.528,72.528,0,0,1,245.536,44.3H232.72Zm30-20.88c-.072,1.176-.1,1.488-.192,2.856h-4.872v2.9h4.56a34.852,34.852,0,0,1-1.656,7.632l3.288.768c.1-.36.12-.48.216-.864a8.918,8.918,0,0,1,6.168-2.424c1.584,0,3.768.72,3.768,3.144,0,3.288-3.648,3.864-7.368,3.864a41.616,41.616,0,0,1-5.16-.36l.552,3.024c.888.072,2.76.216,4.776.216,3.888,0,10.56-.456,10.56-6.672,0-1.368-.528-6.048-6.84-6.048a10.776,10.776,0,0,0-5.712,1.56,25.191,25.191,0,0,0,.72-3.84h12.528v-2.9H265.864c.12-.864.168-1.608.264-2.76Zm19.464,2.136v2.856h8.76V33.52h-8.3V36.3h8.3v2.064a7.318,7.318,0,0,0-1.92-.192c-3.168,0-6.192,1.416-6.192,4.584,0,1.968,1.344,4.44,6,4.44,5.3,0,5.3-3.144,5.3-4.224V42.52a33.938,33.938,0,0,1,4.872,3.888l2.088-2.784a26.412,26.412,0,0,0-6.96-4.416V36.3h7.008V33.52h-7.008V31.384h7.488V28.528h-7.488V26.44h-3.192v2.088Zm8.808,13.848c0,.984-.168,2.016-2.4,2.016-1.1,0-2.76-.264-2.76-1.7,0-1.488,1.752-1.9,2.976-1.9a6.312,6.312,0,0,1,2.184.408Zm28.632-16.008c.048.84.144,3.936.168,4.68l-7.584.168.048-4.488h-3.192v4.584l-3.672.072.1,2.928,3.576-.072V39.9a12.614,12.614,0,0,0,.48,4.1c1.152,2.544,3.792,2.976,9.288,2.976,3.96,0,5.112-.1,5.9-.168v-3.1a49.217,49.217,0,0,1-6.624.288c-5.856,0-6-.216-5.976-4.224l.048-5.616,7.7-.168a21.585,21.585,0,0,1-.216,3.576c-.168.912-.336,1.344-1.272,1.344a21.3,21.3,0,0,1-2.952-.312l.168,2.88a19.339,19.339,0,0,0,3.048.264c4.08,0,4.2-2.52,4.32-7.824l3.648-.1-.048-2.928-3.6.072a40.365,40.365,0,0,0-.216-4.656Zm15.792,0c-.336,1.1-.816,2.592-1.584,5.04-1.368,4.32-1.7,5.376-4.632,14.928l3.312,1.008c.216-.864,1.224-4.92,1.3-5.256.408-1.08,1.584-4.2,4.176-4.2,1.56,0,1.56,1.1,1.56,2.928V41.8c0,3.1,1.272,5.328,4.728,5.328,4.224,0,6.048-3.216,6.648-9.576l-3.1-.888c-.48,5.808-1.68,7.32-3.336,7.32-1.752,0-1.752-1.872-1.752-2.472V40.24c0-1.7,0-5.424-3.984-5.424a4.672,4.672,0,0,0-2.808.912c.216-.7,2.52-7.152,3.1-8.736ZM357.568,39.64a3.828,3.828,0,0,0,0,7.656,3.828,3.828,0,1,0,0-7.656Zm0,1.44a2.376,2.376,0,1,1-2.376,2.376A2.381,2.381,0,0,1,357.568,41.08Z" transform="translate(383.58 33.55)"/>
      </g>
    </g>
  </g>
</svg>
