<svg xmlns="http://www.w3.org/2000/svg" xmlns:xlink="http://www.w3.org/1999/xlink" width="615.056" height="48.432" viewBox="0 0 615.056 48.432">
  <defs>
    <filter id="パス_2870" x="0" y="0" width="615.056" height="48.432" filterUnits="userSpaceOnUse">
      <feOffset dy="3" input="SourceAlpha"/>
      <feGaussianBlur stdDeviation="3" result="blur"/>
      <feFlood flood-opacity="0.161"/>
      <feComposite operator="in" in2="blur"/>
      <feComposite in="SourceGraphic"/>
    </filter>
  </defs>
  <g transform="matrix(1, 0, 0, 1, 0, 0)" filter="url(#パス_2870)">
    <path id="パス_2870-2" data-name="パス 2870" d="M-277.824-24.832c-3.36.032-16.864.128-19.232.128-.672,0-1.5-.032-1.984-.064l-.032,4.256c.64-.032,9.792-.288,10.688-.256a19.036,19.036,0,0,0-3.232,1.76l2.912,2.528a26.694,26.694,0,0,1,10.88-4.352Zm-18.816,10.3c-1.888,2.048-3.68,4.48-3.68,7.872C-300.32.8-290.944.8-284.256.8a58.155,58.155,0,0,0,8.128-.352l-.1-4.32a78.524,78.524,0,0,1-9.632.544c-6.592,0-10.176-.448-10.176-3.968,0-2.144,1.184-3.616,2.464-4.992Zm40.576,16c8.384-.576,14.336-4.128,14.336-13.6,0-8.032-5.12-12.8-13.408-12.8-9.024,0-15.1,5.984-15.1,14.368,0,4.64,2.176,9.472,6.5,9.472,3.68,0,5.728-3.36,6.272-4.288,2.656-4.48,3.264-11.744,3.584-15.584,6.24.48,7.552,4.992,7.552,8.608,0,7.84-5.344,9.472-11.072,9.728Zm-2.08-22.24c-.736,9.984-2.976,15.328-5.344,15.328-.768,0-2.56-.736-2.56-4.768C-266.048-14.528-264.224-19.392-258.144-20.768Zm47.04-.32h-10.528v-4.8h-4.416l.032,14.848a12.861,12.861,0,0,0-1.856-.128c-5.376,0-9.184,2.688-9.184,6.656,0,1.792,1.056,6.272,8,6.272,7.072,0,7.328-4.192,7.328-6.176v-1.44A37.888,37.888,0,0,1-212.7.352l2.944-3.808a36.212,36.212,0,0,0-11.872-6.752v-6.656H-211.1Zm-14.848,16c0,1.5-.192,3.008-3.36,3.008-3.456,0-3.648-2.048-3.648-2.56,0-1.824,1.856-2.816,4.576-2.816a6.27,6.27,0,0,1,2.432.352Zm42.368-19.072a70.6,70.6,0,0,0-15.3-2.3l-.864,3.872c3.2.192,10.24.9,15.2,2.624Zm-15.392,26.3A36.973,36.973,0,0,0-188.768.608c4.16-1.376,7.712-4.1,7.712-10.816,0-8.16-6.3-8.16-8.1-8.16-2.4,0-6.592.512-8.288.7-3.04.352-4.224.48-5.856.576l.672,4.416c1.248-.16,2.656-.416,4.9-.832a69.614,69.614,0,0,1,7.9-.992c2.272,0,4.224.544,4.224,4.32,0,6.464-5.152,8.192-14.432,8.32Zm30.912-28.512c-.192,1.408-.32,2.56-.544,3.872h-5.408v4h4.672a57.353,57.353,0,0,1-4.992,15.328l4.32,1.472a112.872,112.872,0,0,0,5.024-16.8h6.944v-4h-6.112c.224-1.12.352-2.08.576-3.584Zm22.016,3.392c-6.08.1-7.872.352-10.208.9l.32,11.552a18.864,18.864,0,0,0-2.3-.16c-5.92,0-8.128,3.264-8.128,6.336,0,2.72,1.824,6.08,7.648,6.08,5.7,0,6.944-3.776,6.944-5.6v-.576a25.133,25.133,0,0,1,4.064,3.52l2.432-4.064a28.227,28.227,0,0,0-6.432-4.224L-152-18.368a17.937,17.937,0,0,1,3.328-.224,22.728,22.728,0,0,1,2.656.128Zm-9.76,18.112c0,2.272-1.664,2.816-3.3,2.816-1.344,0-3.392-.512-3.392-2.368,0-2.048,2.176-2.752,4.032-2.752a7.094,7.094,0,0,1,2.656.512Zm29.216-5.536c4.192-3.84,5.28-7.84,5.7-12.32h3.424c-.032,5.5-.64,7.392-.736,7.616a1.4,1.4,0,0,1-1.472.928h-3.168l.7,3.584h4.384c2.336,0,4.064-.9,4.064-15.712h-14.336v3.584h3.52c-.48,4.8-2.016,7.264-4.8,9.6l-.192-2.016c-.7.128-1.056.16-4.1.608v-2.24h3.9V-19.84h-3.9v-2.176h4.608V-25.28H-133.6V-27.3h-3.744v2.016h-5.376v3.264h5.376v2.176h-4.576v3.072h4.576v2.752c-3.808.448-4.576.48-5.664.544l.384,3.584c5.248-.672,6.048-.8,13.408-2.08l-.1-.992Zm-3.136.064a9.1,9.1,0,0,1-.16,1.632h-13.12v3.52h11.488c-2.4,2.848-8.128,4-11.712,4.384l1.568,3.84c3.584-.608,10.4-2.24,13.632-6.816,2.336,2.72,6.944,5.888,13.664,6.784l1.7-3.872c-4.928-.48-8.064-1.568-11.712-4.32h11.392V-8.7h-12.992a14.085,14.085,0,0,0,.16-1.632Zm18.752.384c1.216-.1,2.656-.192,4.9-.416V2.912h3.584V-10.752c.384-.032,1.5-.192,1.952-.256.1.384.16.672.32,1.312l3.328-1.088a29.872,29.872,0,0,0-2.5-6.4l-2.88.992a15.068,15.068,0,0,1,.864,2.208c-.9.1-2.336.192-3.3.224a59.584,59.584,0,0,0,6.3-8.992l-3.36-1.344a49.1,49.1,0,0,1-3.1,5.216,17.449,17.449,0,0,0-1.248-1.408,37.464,37.464,0,0,0,3.52-5.888l-3.264-1.216a44.519,44.519,0,0,1-2.656,4.832c-.256-.16-.384-.288-.832-.608l-1.888,3.1a24.161,24.161,0,0,1,4.224,4.256c-.448.64-1.088,1.5-1.664,2.24-.608.032-1.184.032-2.4.032Zm.9,1.312a33,33,0,0,1-1.184,8.288l3.072,1.5a45.573,45.573,0,0,0,1.216-9.344ZM-94.112-27.3a20.016,20.016,0,0,1-4.832,9.632l2.752,3.168a19.158,19.158,0,0,0,3.328-4.768h7.04a160.709,160.709,0,0,1-.7,17.12c-.256.928-.7,1.024-1.6,1.024h-5.7l.768,4.032h7.04A3.278,3.278,0,0,0-83.04.64c.928-2.336,1.024-9.024,1.28-23.648h-9.472a27.679,27.679,0,0,0,1.12-3.968ZM-101.7-8.352a56.389,56.389,0,0,1,.9,7.392l3.36-.544A40.451,40.451,0,0,0-98.752-8.9Zm5.792-5.184A35.356,35.356,0,0,1-92.032-5.7l3.52-1.856A27.689,27.689,0,0,0-92.48-15.2Zm26.5-12.8a24.74,24.74,0,0,1-.448,2.88h-7.136v3.936h6.048a26.6,26.6,0,0,1-7.04,10.752l3.04,3.136c.544-.544,1.44-1.376,4.128-5.5,3.168-3.2,5.408-3.2,5.792-3.2a2.451,2.451,0,0,1,2.336,1.408C-65.216-11.648-71.1-8.8-71.1-4.416A5.46,5.46,0,0,0-67.584.576c1.856.736,4.288,1.024,8.96,1.024,2.368,0,5.28-.1,6.4-.128V-2.656c-2.592.256-5.44.384-8.064.384-3.2,0-6.272,0-6.272-2.5,0-2.048,2.816-3.424,4.512-4.288a33.8,33.8,0,0,1-.064,4.032h4.192c.032-1.024.032-1.536.032-2.464,0-1.056-.032-2.176-.128-3.232a45.341,45.341,0,0,1,7.648-2.144l-.96-4.224A59.346,59.346,0,0,0-58.88-14.56a5.325,5.325,0,0,0-5.056-3.392,8.9,8.9,0,0,0-3.68.928,15.691,15.691,0,0,0,1.056-2.5H-52.8v-3.936H-65.408c.288-1.216.384-1.728.512-2.56Zm35.424.544a45.243,45.243,0,0,0,1.248,4.832H-45.312v3.968H-31.3c.672,1.664,2.848,6.752,5.376,9.76L-22.272-9.5a29.628,29.628,0,0,1-4.7-7.648,52.163,52.163,0,0,0,8.384-1.024l-.672-4.032a61.859,61.859,0,0,1-9.216,1.152,32.158,32.158,0,0,1-1.184-5.184Zm-1.7,11.968C-41.7-12-43.84-8.7-43.84-5.632A5.992,5.992,0,0,0-40.512-.288C-38.368.864-36.064,1.44-29.536,1.44c3.168,0,5.44-.1,7.392-.288l.16-4.128a68.913,68.913,0,0,1-8.32.48c-5.92,0-9.408-.416-9.408-3.3,0-1.536,1.12-3.488,5.728-4.8ZM4.832-26.176c.064,1.12.192,5.248.224,6.24l-10.112.224.064-5.984H-9.248v6.112l-4.9.1.128,3.9,4.768-.1v7.552a16.818,16.818,0,0,0,.64,5.472C-7.072.736-3.552,1.312,3.776,1.312c5.28,0,6.816-.128,7.872-.224V-3.04a65.623,65.623,0,0,1-8.832.384c-7.808,0-8-.288-7.968-5.632l.064-7.488L5.184-16A28.779,28.779,0,0,1,4.9-11.232C4.672-10.016,4.448-9.44,3.2-9.44A28.4,28.4,0,0,1-.736-9.856l.224,3.84a25.786,25.786,0,0,0,4.064.352c5.44,0,5.6-3.36,5.76-10.432l4.864-.128-.064-3.9-4.8.1a53.815,53.815,0,0,0-.288-6.208Zm36,1.792A60.061,60.061,0,0,0,26.56-26.368l-.672,3.936A56.651,56.651,0,0,1,39.9-20.1ZM22.016-21.216a9.133,9.133,0,0,0-.64,2.688c-.192,1.952-.32,8.416-.32,10.592l4.192.064a8.385,8.385,0,0,0,.032-.9,14.373,14.373,0,0,1,9.728-3.776c2.048,0,5.184.832,5.184,4.16,0,6.08-8.224,6.08-11.168,6.08a49.658,49.658,0,0,1-7.936-.672l.32,4.064a47.28,47.28,0,0,0,7.2.448c6.4,0,9.088-.736,11.168-1.856a8.506,8.506,0,0,0,4.8-8c0-4.448-3.04-8.032-8.672-8.032-2.176,0-7.2.576-10.56,3.072.064-4.544.288-5.92.8-7.328Zm33.76-4.8c0,.1-.032,4.288-.032,4.7H50.432v4h5.28v2.3A34.933,34.933,0,0,1,49.44-7.1l2.336,4.1a23.38,23.38,0,0,0,3.9-4.9c-.032,1.344-.1,7.936-.1,9.44H59.9c-.064-1.632-.16-5.056-.16-9.152,0-2.432.032-3.744.1-6.56,3.36-4.256,6.624-5.6,8.288-5.6,1.888,0,2.016,1.76,1.952,3.744l-.32,8.288C69.5-.768,72.512.032,77.824.448l.928-4.224c-4.7.1-4.64-1.7-4.576-4.352l.256-8.512c.064-2.3-.128-3.872-.736-4.9a5.249,5.249,0,0,0-4.576-2.432c-3.968,0-7.36,2.624-9.184,4.384.032-2.144.128-5.664.16-6.432ZM109.7-24.9c-3.264.128-17.92.672-20.672.832-3.04.16-5.536.288-7.072.288l.16,4.48c2.016-.192,11.9-1.024,14.144-1.216-7.616,4.864-8.192,10.176-8.192,12.256A8.724,8.724,0,0,0,93.024-.64C95.968.8,99.232,1.472,106.24,1.5l.608-4.576c-13.312.448-14.368-3.3-14.368-5.76,0-4,3.488-7.36,5.312-8.768a13.617,13.617,0,0,1,8.032-3.072c.992-.032,3.008,0,4,.032Zm4.928.32c-.128,1.664-.48,5.28-.48,9.28,0,3.808.288,16.288,7.3,16.288,5.056,0,7.584-6.784,8.416-9.088L126.3-10.048A22.222,22.222,0,0,1,124.192-5.6c-.64.992-1.312,1.792-2.368,1.792-3.008,0-3.392-8.224-3.392-11.68a53.4,53.4,0,0,1,.768-8.7ZM142.336-2.368c.032-6.592-.128-15.264-6.848-21.6l-3.424,2.4c5.28,5.472,5.568,11.776,5.568,19.456ZM146.912-23.3v3.808h11.68v2.848H147.52v3.712h11.072v2.752a9.757,9.757,0,0,0-2.56-.256c-4.224,0-8.256,1.888-8.256,6.112,0,2.624,1.792,5.92,8,5.92,7.072,0,7.072-4.192,7.072-5.632V-4.64a45.251,45.251,0,0,1,6.5,5.184l2.784-3.712a35.217,35.217,0,0,0-9.28-5.888v-3.872h9.344V-16.64h-9.344v-2.848h9.984V-23.3h-9.984V-26.08h-4.256V-23.3ZM158.656-4.832c0,1.312-.224,2.688-3.2,2.688-1.472,0-3.68-.352-3.68-2.272,0-1.984,2.336-2.528,3.968-2.528a8.416,8.416,0,0,1,2.912.544Zm38.176-21.344c.064,1.12.192,5.248.224,6.24l-10.112.224.064-5.984h-4.256v6.112l-4.9.1.128,3.9,4.768-.1v7.552a16.818,16.818,0,0,0,.64,5.472c1.536,3.392,5.056,3.968,12.384,3.968,5.28,0,6.816-.128,7.872-.224V-3.04a65.623,65.623,0,0,1-8.832.384c-7.808,0-8-.288-7.968-5.632l.064-7.488L197.184-16a28.779,28.779,0,0,1-.288,4.768c-.224,1.216-.448,1.792-1.7,1.792a28.4,28.4,0,0,1-3.936-.416l.224,3.84a25.785,25.785,0,0,0,4.064.352c5.44,0,5.6-3.36,5.76-10.432l4.864-.128-.064-3.9-4.8.1a53.815,53.815,0,0,0-.288-6.208Zm21.056,0c-.448,1.472-1.088,3.456-2.112,6.72-1.824,5.76-2.272,7.168-6.176,19.9l4.416,1.344c.288-1.152,1.632-6.56,1.728-7.008.544-1.44,2.112-5.6,5.568-5.6,2.08,0,2.08,1.472,2.08,3.9V-5.6c0,4.128,1.7,7.1,6.3,7.1,5.632,0,8.064-4.288,8.864-12.768l-4.128-1.184c-.64,7.744-2.24,9.76-4.448,9.76-2.336,0-2.336-2.5-2.336-3.3v-1.7c0-2.272,0-7.232-5.312-7.232a6.229,6.229,0,0,0-3.744,1.216c.288-.928,3.36-9.536,4.128-11.648Zm30.208-.192c-.064,1.376-.224,3.072-.544,5.792h-5.344v4.1l4.736-.064A49.034,49.034,0,0,1,241.728-.576l4.16,1.92c.864-1.568,3.008-5.6,5.28-17.92l3.136-.032c1.984-.032,3.744.256,3.744,4.224,0,1.088-.224,6.208-1.216,8.448-.512,1.12-1.5,1.472-2.944,1.472a29.076,29.076,0,0,1-4.16-.416l.256,4.128a43.564,43.564,0,0,0,4.736.32c2.336,0,3.936-.608,5.12-2.08,1.568-1.92,2.368-7.1,2.368-10.656,0-4.32-.736-9.408-6.944-9.408H251.84c.32-1.856.48-3.456.7-5.536ZM270.816-8.9c-.7-8.256-3.072-11.84-5.28-14.592L261.888-21.6c1.568,2.016,3.936,5.376,4.416,13.44Zm17.952,1.728c0-2.336,0-2.592,1.376-3.424l3.3-1.952c2.624-1.568,3.3-3.04,3.3-6.528,0-5.856-3.872-6.4-8.608-6.4-8.032,0-8.864,2.432-8.864,8.576h4.128c0-3.552.224-4.736,4.736-4.736,3.424,0,4.48.48,4.48,3.392,0,1.92-.672,2.336-1.984,3.072l-3.744,2.112c-2.208,1.248-2.208,2.5-2.208,5.888ZM288.928,0V-4.512h-4.416V0Z" transform="translate(309.32 33.39)"/>
  </g>
</svg>
