<svg xmlns="http://www.w3.org/2000/svg" width="355" height="98" viewBox="0 0 355 98">
  <g id="グループ_313" data-name="グループ 313" transform="translate(-10 -7790)">
    <g id="グループ_171" data-name="グループ 171" transform="translate(10 7790)">
      <circle id="楕円形_21" data-name="楕円形 21" cx="49" cy="49" r="49" fill="#f29600"/>
      <path id="パス_2799" data-name="パス 2799" d="M-52.532-20V-4.918h1.981V-5.76h4.176v.842h1.964V-20Zm6.156,5.892v2.294h-4.176v-2.294Zm0,4.077v2.393h-4.176v-2.393Zm0-8.071v2.212h-4.176v-2.212ZM-59.019-8.153a13.292,13.292,0,0,0,2-3.664v6.9h1.981v-6.916A14.946,14.946,0,0,0-53.8-9.985l1.056-1.832a10.8,10.8,0,0,1-2.294-3.07V-15.7h1.948v-1.931h-1.948v-2.9h-1.981v2.9h-2.393V-15.7h2.278a13.709,13.709,0,0,1-2.575,5Zm20.169-.578v1.568h-1.915V-8.731ZM-36.192-4.9a7.518,7.518,0,0,0,4.159-3.961A6.857,6.857,0,0,0-27.972-4.9l.941-1.931a7.236,7.236,0,0,1-2.756-1.634,5.154,5.154,0,0,1-1.353-3.928V-13.4h-1.948v1.089c0,2.624-.891,4.44-4.11,5.546v-3.516H-42.53v5.348h1.766v-.627H-37.2V-6.717ZM-42.53-11.14H-37.2v-1.651H-42.53Zm5.826-.743a13.438,13.438,0,0,1,.924,3.169l1.832-.545a14.179,14.179,0,0,0-1.023-3.136Zm-5.826-6.6H-37.2v-1.634H-42.53Zm6.024-.858a10.126,10.126,0,0,1,.578,3.037l1.9-.545a13.956,13.956,0,0,0-.759-3Zm-6.024,5.694H-37.2v-1.6H-42.53Zm9.441-5.958a5.234,5.234,0,0,1-3.945,5.249l1.04,1.865a7.754,7.754,0,0,0,3.961-3.928,7.781,7.781,0,0,0,3.978,3.961l.99-1.9a6.629,6.629,0,0,1-2.624-1.667,4.656,4.656,0,0,1-1.419-3.664v-.792h-1.981Zm-9.92,3.582h6.3v-1.651h-6.3Zm13.65-3.879a13.015,13.015,0,0,1-1.04,2.872l1.651.726a14.578,14.578,0,0,0,1.188-3.037Zm.165,7.427a16.121,16.121,0,0,1-1.139,3.1l1.684.677A14.662,14.662,0,0,0-27.378-12Zm9.458,4.209,5.3-1.089v4.407h2.113V-9.8l1.469-.314-.2-1.981-1.271.264V-20.5h-2.113V-11.4l-5.546,1.155.314-.578a10.308,10.308,0,0,1-1.915-2.624h2.327v-1.865h-2.509v-5.166h-1.882v5.166h-2.74v1.865h2.509a12.672,12.672,0,0,1-2.773,3.829l.726,2.36a13.033,13.033,0,0,0,2.278-3.318v5.645h1.882v-5.744a14.981,14.981,0,0,0,1.089,1.733l.66-1.238Zm-6.751-11.075a11.288,11.288,0,0,1,.71,3.4l1.568-.512a13.861,13.861,0,0,0-.776-3.268Zm5.975-.429a13.484,13.484,0,0,1-.842,3.285l1.485.561a17.96,17.96,0,0,0,1.056-3.483Zm1.37,5.546A10.344,10.344,0,0,1-16.468-11.9l1.353-1.518A13.554,13.554,0,0,0-17.937-15.7Zm.479-4.209a12.871,12.871,0,0,1,2.707,2.443l1.337-1.518a11.653,11.653,0,0,0-2.839-2.294Zm11.025,3.07H-9.9v1.832h2.179v2.063H-9.5v1.816H5.187v-1.816H3.734v-2.063H5.616v-1.832H3.734V-17.4H5.187v-1.816H-5.476A4.721,4.721,0,0,0-4.9-20.284l-1.981-.38a6.766,6.766,0,0,1-3.268,3.136l1.221,1.634a6.022,6.022,0,0,0,1.287-.875Zm6.355-2.03v2.03h-1.5V-17.4Zm0,3.862v2.063h-1.5v-2.063ZM-4.469-17.4v2.03H-5.938V-17.4Zm0,3.862v2.063H-5.938v-2.063ZM1.919-17.4v2.03H.367V-17.4Zm0,3.862v2.063H.367v-2.063ZM-8.1-9.292A7.858,7.858,0,0,1-9.982-6.057l1.717,1.271c.578-.594,1.221-1.436,2-3.928Zm2.987.429c.033.363.05.891.05,1.634,0,.957-.05,1.6-.083,2.146l2.063-.033a22.949,22.949,0,0,0-.264-3.8Zm3.252-.05A15.816,15.816,0,0,1-.97-5.083l2.047-.132A17.108,17.108,0,0,0-.029-9.061Zm3.516.3A18.24,18.24,0,0,1,3.8-4.852L5.682-5.859A19.248,19.248,0,0,0,3.437-9.407Zm11.62.347,5.3-1.089v4.407h2.113V-9.8l1.469-.314-.2-1.981-1.271.264V-20.5H18.572V-11.4l-5.546,1.155.314-.578a10.308,10.308,0,0,1-1.915-2.624h2.327v-1.865H11.244v-5.166H9.362v5.166H6.623v1.865H9.131A12.672,12.672,0,0,1,6.358-9.622l.726,2.36a13.033,13.033,0,0,0,2.278-3.318v5.645h1.882v-5.744a14.98,14.98,0,0,0,1.089,1.733l.66-1.238ZM6.524-19.344a11.288,11.288,0,0,1,.71,3.4L8.8-16.455a13.861,13.861,0,0,0-.776-3.268Zm5.975-.429a13.484,13.484,0,0,1-.842,3.285l1.485.561A17.96,17.96,0,0,0,14.2-19.41Zm1.37,5.546A10.344,10.344,0,0,1,16.542-11.9L17.9-13.418A13.554,13.554,0,0,0,15.073-15.7Zm.479-4.209a12.871,12.871,0,0,1,2.707,2.443l1.337-1.518a11.653,11.653,0,0,0-2.839-2.294ZM-48.521,9.981h4.077v1.9h-5.084v1.816h5.084v2.278h-6.619v2h15.317v-2h-6.569V13.694h5.084V11.879h-5.084v-1.9h4.11V8.759c.776.429,1.353.66,1.832.875l1.04-2.047a14.374,14.374,0,0,1-6.916-4.7h-2.327c-1.089,1.353-2.723,3.07-6.9,4.72l.974,2.047c.528-.231,1.089-.479,1.981-.957Zm1.04-1.915a17.864,17.864,0,0,0,4.044-3.5,20.369,20.369,0,0,0,4.077,3.5Zm24.725,3.02V9.552H-26.14V8.033h3.681V6.4h-8.814V8.033h3.186V9.552h-2.921v1.535h2.921v1.964h-3.45v1.7h9.259v-1.7h-.759a9.906,9.906,0,0,0-.594-1.964Zm-2.657,0a10.232,10.232,0,0,1,.677,1.964h-1.4V11.087Zm-8.649,7.3h1.981v-.71h10.349v.71h2V3.527H-34.063ZM-21.733,5.475V15.741H-32.082V5.475Zm3.8,4.176a20.323,20.323,0,0,1,3.053,2.822,13.186,13.186,0,0,1-3.532,3.9l1.386,1.8a16.806,16.806,0,0,0,3.565-3.994c.1.149.776,1.023,1.618,2.443l1.684-1.353a18.833,18.833,0,0,0-2.278-3.07A16.507,16.507,0,0,0-11.2,7.241h.858V5.227h-2.773V2.867h-2.047v2.36h-2.971V7.241h4.869a13.971,13.971,0,0,1-.726,3.285A28.06,28.06,0,0,0-16.5,8.264ZM-6.053,2.867V5.821H-9.9v2.1h3.846v7.956c0,.446,0,.528-.627.528H-9.09l.446,2.014h2.756c1.469,0,1.931-.363,1.931-1.733V7.918h1.3v-2.1h-1.3V2.867Zm-4.588,7.163a19.669,19.669,0,0,1,1.948,4.324l1.964-.941a19.6,19.6,0,0,0-2.1-4.324ZM5.3,4.237H-.524v7.51A9.091,9.091,0,0,1-1.878,16.83L-.26,18.415a13.08,13.08,0,0,0,1.766-6.866V6.2H13.67V4.237H7.349V2.817H5.3Zm-2.756,6.47a14.4,14.4,0,0,1-1.386,5.6l1.733.891a16.264,16.264,0,0,0,1.452-6.173ZM4.956,17A1.222,1.222,0,0,0,6.309,18.25h2.74c1.585,0,1.717-1.337,1.948-4.176l-1.865-.38a17.789,17.789,0,0,1-.2,2.41.378.378,0,0,1-.413.231H7.4c-.314,0-.462-.1-.462-.4V10H4.956ZM4.642,7.8a12.913,12.913,0,0,1,3.846,2.443l1.32-1.6a18.181,18.181,0,0,0-3.945-2.41Zm5.447,2.872a16.831,16.831,0,0,1,1.832,6.47l2.047-.479a23.769,23.769,0,0,0-1.9-6.635Z" transform="translate(67.475 50.467)" fill="#fff"/>
    </g>
    <g id="グループ_311" data-name="グループ 311" transform="translate(0 -11.841)">
      <g id="グループ_126" data-name="グループ 126" transform="translate(283.843 7863.394)">
        <path id="パス_2800" data-name="パス 2800" d="M-31.259-9.872V-6.49h1.387V-8.617H-20.8V-6.49h1.387V-9.872h-1.955a21.115,21.115,0,0,0,.938-1.942l-1.083-.33c.846-.119,1.427-.238,2.021-.357l-.727-1.149a41.685,41.685,0,0,1-8.548.793c-1.03,0-1.691-.026-2.4-.053l.264,1.2c.37.013.872.013,1.44.026l-.634.238c.211.41.581,1.176.753,1.572Zm3.3,0c-.238-.608-.489-1.215-.766-1.81.938,0,1.744-.013,2.206-.026a12.612,12.612,0,0,1,.674,1.836Zm3.5,0a14.912,14.912,0,0,0-.581-1.916c2.074-.159,2.3-.185,3.1-.291a12.044,12.044,0,0,1-.938,2.206Zm-4.439,4.109a8.022,8.022,0,0,0,2.18,2.272,20.365,20.365,0,0,1-4.822.912l.581,1.361a19.876,19.876,0,0,0,5.668-1.44,17.154,17.154,0,0,0,5.72,1.506l.528-1.44a18.979,18.979,0,0,1-4.782-.9,8.28,8.28,0,0,0,2.589-2.88V-7.626h-8.244v1.255H-22.9a8.674,8.674,0,0,1-2.418,2.206,7.629,7.629,0,0,1-2.352-2.008Zm12.1,4.531h1.348v-9.34a17.163,17.163,0,0,0,1-2.88l-1.414-.211a12.29,12.29,0,0,1-2.655,5.43l.608,1.546a9.436,9.436,0,0,0,1.11-1.387Zm2.563-6.553A20.653,20.653,0,0,1-12.01-4.561l1.215-.819a22.826,22.826,0,0,0-2.272-3.171Zm5.443-3.039h-5.932v1.361h5.932v6.487c0,.159-.026.383-.343.383l-2.444-.04.185,1.4h2.444c1.136,0,1.572-.449,1.572-1.4v-6.83H-5.88v-1.361H-7.373v-2.8H-8.786Zm4,8.8h1.268V-3.042H-.661V-13.083H-4.783Zm2.867-9.724v2.973h-1.6v-2.973Zm0,4.214v3.2h-1.6v-3.2ZM6.9-12.488H4.174v-1.123H2.84v1.123H.211v1.268H2.84v1.533H-.252v1.281H4.6V-7.1H-.146V-5.83H4.6V-2.8c0,.2-.2.211-.291.211H2.338L2.6-1.245H4.729c1.229,0,1.229-.964,1.229-1.348V-5.83H7.2V-7.1H5.957V-8.406H7.305V-9.687H4.174V-11.22H6.9ZM0-4.839A10.854,10.854,0,0,1,1.7-2.606l1.149-.872A8.983,8.983,0,0,0,1.069-5.605ZM18.706-2.857c0,.264-.145.317-.3.317H16.91l.211,1.321h2.021c.885,0,.885-.872.885-1.242V-13.069H14.8v4.822h3.911Zm0-9.129v.872H16.077v-.872Zm0,1.77v.872H16.077v-.872ZM8.6-1.219H9.908V-8.247H13.62v-4.822H8.6Zm3.739-10.767v.872H9.908v-.872Zm0,1.77v.872H9.908v-.872Zm-1.11,2.722v4.9h6.13v-4.9ZM16.1-6.424v.912H12.471v-.912Zm0,1.8v.951H12.471v-.951Z" transform="translate(-136.108 13.731)"/>
        <path id="パス_2801" data-name="パス 2801" d="M-69.658-11.774h4.994v4.809H-70.12v1.295h5.456v4.65h1.387v-4.65h5.483V-6.966h-5.483v-4.809H-58.2v-1.281H-69.658Zm.661.9a24.889,24.889,0,0,1,1.321,3.527l1.308-.449a17.835,17.835,0,0,0-1.4-3.514Zm8.667-.423a18.807,18.807,0,0,1-1.4,3.527l1.229.5a19.4,19.4,0,0,0,1.572-3.673Zm4.743,10.133h1.453v-.687h6.725v.687h1.466V-12.9h-9.644Zm8.178-6.949h-6.725v-3.422h6.725Zm0,4.9h-6.725V-6.767h6.725Zm3.99-2.074c-.026,2.986,2.193,3.118,4,3.118,2.88,0,4.611-.317,4.611-5.337,0-3.911-.806-5.285-4.267-5.285-2.761,0-4.2.832-4.2,3.422,0,2.444,1.585,3.3,3.858,3.3A3.539,3.539,0,0,0-36.4-7.177a6.663,6.663,0,0,1-.3,2.444c-.33.912-1.057,1.149-2.682,1.149-2.378,0-2.484-.753-2.484-1.7Zm4.333-2.167c-1.929,0-2.616-.528-2.616-1.889s.33-2.008,2.6-2.008c1.321,0,2.655.2,2.655,1.863C-36.445-8.551-36.616-7.454-39.087-7.454Zm5.839-2.6v1.784h1.7v-1.784Zm0,6.011v1.77h1.7v-1.77Zm3.276-1.784c0,2.537.766,3.66,4.505,3.66,1.625,0,4.109-.159,4.109-3.065a2.294,2.294,0,0,0-1.612-2.471c.317-.092,1.48-.41,1.48-2.259,0-2.827-2.7-2.827-3.924-2.827-2.7,0-4.254.383-4.346,3.329h1.585c.013-1.017.026-1.9,2.84-1.9,1.572,0,2.272.4,2.272,1.585,0,1.493-1.229,1.493-1.889,1.493h-1.638v1.281h1.638c1.942,0,2.021.991,2.021,1.7,0,1.414-.846,1.7-2.722,1.7-2.774,0-2.761-.925-2.748-2.233Zm14.334-6.962c-3.554,0-4.373,1.255-4.373,5.311,0,4.082.832,5.311,4.373,5.311,3.607,0,4.36-1.361,4.36-5.166C-11.277-11.5-12.03-12.792-15.637-12.792Zm-.013,1.427c2.431,0,2.788.5,2.788,3.963,0,3.118-.3,3.8-2.682,3.8-2.576,0-2.88-.568-2.88-3.858C-18.424-10.784-18.107-11.365-15.65-11.365ZM1.128-8.3A3.342,3.342,0,0,1-1.435-7.032a4.5,4.5,0,0,1-2.338-.832,5.6,5.6,0,0,0-2.814-.912,4.643,4.643,0,0,0-2.259.634,4.505,4.505,0,0,0-1.2,1.044l.872.779A3.051,3.051,0,0,1-6.666-7.56c1,0,1.334.185,3,1.11a4.325,4.325,0,0,0,2.206.634A4.509,4.509,0,0,0,2-7.52Zm4.148-4.386v1.427H7.3v8.984H8.883V-12.686Zm9.644,4.994a2.481,2.481,0,0,0-1.638,2.6c0,2.576,2.259,2.92,4.346,2.92s4.333-.357,4.333-2.92c0-.277,0-2.153-1.625-2.6a2.378,2.378,0,0,0,1.4-2.286c0-2.7-2.655-2.814-4.109-2.814s-4.122.119-4.122,2.814A2.373,2.373,0,0,0,14.921-7.692Zm2.708-3.726c1.955,0,2.576.423,2.576,1.506,0,1.2-.661,1.612-2.484,1.612-1.506,0-2.682-.119-2.682-1.559C15.04-10.863,15.436-11.418,17.629-11.418Zm0,4.386c1.968,0,2.8.357,2.8,1.717,0,1.189-.4,1.757-2.8,1.757-2.312,0-2.814-.515-2.814-1.7C14.815-6.569,15.449-7.032,17.629-7.032Zm5.866-3.025v1.784h1.7v-1.784Zm0,6.011v1.77h1.7v-1.77Zm3.276-1.784c0,2.537.766,3.66,4.505,3.66,1.625,0,4.109-.159,4.109-3.065a2.294,2.294,0,0,0-1.612-2.471c.317-.092,1.48-.41,1.48-2.259,0-2.827-2.7-2.827-3.924-2.827-2.7,0-4.254.383-4.346,3.329h1.585c.013-1.017.026-1.9,2.84-1.9,1.572,0,2.272.4,2.272,1.585,0,1.493-1.229,1.493-1.889,1.493H30.153v1.281h1.638c1.942,0,2.021.991,2.021,1.7,0,1.414-.846,1.7-2.722,1.7-2.774,0-2.761-.925-2.748-2.233Zm14.334-6.962c-3.554,0-4.373,1.255-4.373,5.311,0,4.082.832,5.311,4.373,5.311,3.607,0,4.36-1.361,4.36-5.166C45.465-11.5,44.712-12.792,41.105-12.792Zm-.013,1.427c2.431,0,2.788.5,2.788,3.963,0,3.118-.3,3.8-2.682,3.8-2.576,0-2.88-.568-2.88-3.858C38.318-10.784,38.635-11.365,41.092-11.365Z" transform="translate(-36.079 13.624)"/>
        <path id="パス_2802" data-name="パス 2802" d="M-34.4-12.806a9.562,9.562,0,0,0-2.365,6.09A9.4,9.4,0,0,0-34.4-.625h1.255a9.342,9.342,0,0,1-2.259-6.09,9.769,9.769,0,0,1,2.259-6.09ZM-26.173-11v1.8h-4.28v3.686h-1.968v1.334h6.249v2.973h1.387V-4.179h4.769V-5.513h-4.769V-7.9h3.831V-9.2h-3.831V-11h4.254V-12.33h-7.993a9.46,9.46,0,0,0,.383-.991l-1.506-.37A7.9,7.9,0,0,1-32.58-9.464l.938,1.176A9.969,9.969,0,0,0-29.238-11Zm0,3.091v2.391h-2.867V-7.9Zm12.445-5.707v2.272h-4.9v6.857h1.374v-.74h3.527v4h1.387v-4h3.62v.74h1.4V-11.34h-5.02v-2.272Zm5.007,3.646V-6.6h-3.62V-9.966Zm-5.007,0V-6.6h-3.527V-9.966Zm9.327.608H-6.052v1.189H-4.4V-6.24H-5.722v1.189H6.089V-6.24H4.847V-8.169H6.433V-9.358H4.847v-1.889H6.089v-1.2H-2.617a4.888,4.888,0,0,0,.528-.925l-1.295-.37A5.669,5.669,0,0,1-6.25-11.075l.885,1.11a5.382,5.382,0,0,0,.964-.608ZM.924-11.247v1.889H-.5v-1.889Zm0,3.078V-6.24H-.5V-8.169Zm-2.616-3.078v1.889H-3.119v-1.889Zm0,3.078V-6.24H-3.119V-8.169Zm5.232-3.078v1.889H2.113v-1.889Zm0,3.078V-6.24H2.113V-8.169ZM-4.533-4.562a5.692,5.692,0,0,1-1.519,2.55L-4.9-1.1A6.536,6.536,0,0,0-3.264-4.219Zm2.444.251a11.176,11.176,0,0,1,.079,1.427,7.186,7.186,0,0,1-.079,1.506h1.4A17.817,17.817,0,0,0-.86-4.351ZM.541-4.377a10.814,10.814,0,0,1,.674,3L2.6-1.457A10.5,10.5,0,0,0,1.782-4.5Zm2.854.225A13.784,13.784,0,0,1,5.2-1.167l1.229-.766A15.993,15.993,0,0,0,4.6-4.707Zm7.755,1.189a14.087,14.087,0,0,0,3.21-5.152v6.9h1.414V-7.957A12.331,12.331,0,0,0,18.9-2.911l.872-1.427a12.339,12.339,0,0,1-3.5-5.4h3.3v-1.321h-3.8v-2.563H14.359v2.563H10.726v1.321h3.118a14.272,14.272,0,0,1-3.62,5.456ZM8.573-1.22H9.921v-8.918a13.191,13.191,0,0,0,.912-3.3l-1.44-.185A9.9,9.9,0,0,1,7.04-8.208L7.622-6.57a7.927,7.927,0,0,0,.951-1.1ZM20.331-12.806a9.769,9.769,0,0,1,2.259,6.09,9.342,9.342,0,0,1-2.259,6.09H21.6a9.48,9.48,0,0,0,2.365-6.09,9.638,9.638,0,0,0-2.365-6.09Z" transform="translate(57.192 13.744)"/>
      </g>
      <path id="パス_2798" data-name="パス 2798" d="M-272.572-60.6a6.953,6.953,0,0,0-5.513,2.647c-2.129,3.084-2.211,7.969-2.211,9.116,0,1.446.164,6.277,2.211,9.143a6.9,6.9,0,0,0,5.513,2.647,6.832,6.832,0,0,0,5.513-2.647c2.02-2.838,2.211-7.587,2.211-9.143,0-1.119-.082-6.059-2.211-9.116A6.865,6.865,0,0,0-272.572-60.6Zm0,4.2c2.129,0,2.7,3.712,2.7,7.56,0,4.258-.655,7.587-2.729,7.587-2.374,0-2.675-4.776-2.675-7.587C-275.274-52.709-274.7-56.394-272.572-56.394Zm10.753,7.669c-.191,1.992,1.528,2.129,2.238,2.129a2.749,2.749,0,0,0,1.992-.764,3,3,0,0,1,2.511-1.174c1.692,0,2.893,1.174,2.893,3.466,0,.983-.109,3.821-2.975,3.821a2.627,2.627,0,0,1-2.7-2.074,2.311,2.311,0,0,0-2.456-1.419c-1.174,0-2.293.519-2.293,2.047,0,1.446,1.91,5.649,7.587,5.649,3.794,0,7.86-2.238,7.86-8.324,0-4.667-3.248-7.369-6.9-7.369a5.793,5.793,0,0,0-3.33.873l.327-3.166a.883.883,0,0,1,.873-.764h5.9a2,2,0,0,0,2.347-2.129,2.03,2.03,0,0,0-2.347-2.1h-7.314c-1.774,0-3.084.273-3.357,3.057ZM-237.2-60.6a6.953,6.953,0,0,0-5.513,2.647c-2.129,3.084-2.211,7.969-2.211,9.116,0,1.446.164,6.277,2.211,9.143a6.9,6.9,0,0,0,5.513,2.647,6.832,6.832,0,0,0,5.513-2.647c2.02-2.838,2.211-7.587,2.211-9.143,0-1.119-.082-6.059-2.211-9.116A6.865,6.865,0,0,0-237.2-60.6Zm0,4.2c2.129,0,2.7,3.712,2.7,7.56,0,4.258-.655,7.587-2.729,7.587-2.374,0-2.675-4.776-2.675-7.587C-239.9-52.709-239.331-56.394-237.2-56.394Zm11.736,8.16c-2.1,0-2.32,1.255-2.32,2.429,0,1.61.764,2.293,2.32,2.293h4.339c2.1,0,2.293-1.283,2.293-2.456,0-1.61-.764-2.265-2.293-2.265Zm20.906-1.5a5.1,5.1,0,0,0,2.183-4.367c0-3.794-2.7-6.5-7.232-6.5-5.622,0-7.123,4.421-7.123,6.2,0,1.556,1.092,2.074,2.4,2.074,2.02,0,2.211-1.2,2.293-1.856.273-1.883,1.255-2.211,2.484-2.211,1.5,0,2.183,1.092,2.183,2.456,0,1.883-.764,2.838-2.265,2.838-.9,0-2.238,0-2.238,1.91,0,1.883,1.31,1.883,2.238,1.883,2.92,0,2.92,2.4,2.92,3.166a2.613,2.613,0,0,1-2.893,2.893c-2.32,0-2.538-1.556-2.729-2.7-.191-1.2-1.255-1.556-2.429-1.556-1.8,0-2.374,1.064-2.374,2.1a6.764,6.764,0,0,0,1.5,3.957c1.528,1.856,3.712,2.4,6.25,2.4,7.232,0,7.7-5.568,7.7-7.069A6.565,6.565,0,0,0-204.56-49.734Zm11.026-2.593v12.936c0,1.91,1.037,2.347,2.62,2.347,2.074,0,2.429-1.174,2.429-2.347V-59.068c0-.655-.6-1.556-2.074-1.556-1.528,0-1.8.71-2.183,1.719a4.05,4.05,0,0,1-3.466,2.757c-.9.136-1.965.273-1.965,1.883a1.762,1.762,0,0,0,1.747,1.938Zm12.554,3.6c-.191,1.992,1.528,2.129,2.238,2.129a2.749,2.749,0,0,0,1.992-.764,3,3,0,0,1,2.511-1.174c1.692,0,2.893,1.174,2.893,3.466,0,.983-.109,3.821-2.975,3.821a2.626,2.626,0,0,1-2.7-2.074,2.311,2.311,0,0,0-2.456-1.419c-1.174,0-2.293.519-2.293,2.047,0,1.446,1.91,5.649,7.587,5.649,3.794,0,7.86-2.238,7.86-8.324,0-4.667-3.248-7.369-6.9-7.369a5.793,5.793,0,0,0-3.33.873l.328-3.166a.883.883,0,0,1,.873-.764h5.9a2,2,0,0,0,2.347-2.129,2.03,2.03,0,0,0-2.347-2.1h-7.314c-1.774,0-3.084.273-3.357,3.057Zm27.128,2.429c-.136,3.029-.955,5.049-3.084,5.049a1.911,1.911,0,0,1-1.938-1.092c-.437-1.146-.71-1.8-2.484-1.8-2.074,0-2.429,1.474-2.429,2.02,0,1.747,2.074,5.076,6.85,5.076,7.751,0,8.3-8.624,8.3-12.472,0-4.722-1.037-6.823-2.265-8.406a7.232,7.232,0,0,0-5.7-2.675c-4.558,0-7.478,3.412-7.478,8.024,0,3.848,2.238,7.505,6.768,7.505A4.69,4.69,0,0,0-153.852-46.3Zm-2.456-10.1c.928,0,2.593.628,2.593,3.63s-1.692,3.63-2.593,3.63c-.955,0-2.62-.655-2.62-3.63C-158.928-55.793-157.209-56.394-156.308-56.394Zm11.681,8.16c-2.1,0-2.32,1.255-2.32,2.429,0,1.61.764,2.293,2.32,2.293h4.339c2.1,0,2.293-1.283,2.293-2.456,0-1.61-.764-2.265-2.293-2.265Zm10.48-11.79a2.018,2.018,0,0,0-2.347,2.129,2.006,2.006,0,0,0,2.347,2.1h6.8c.136,0,.655,0,.655.3a1.1,1.1,0,0,1-.246.464,35.809,35.809,0,0,0-2.975,4.694,33.371,33.371,0,0,0-3.739,11.408c0,.573.055,1.883,2.593,1.883,2.484,0,2.538-1.255,2.565-2.02.136-3.848,2.374-10.016,5.022-13.619,2.811-3.794,2.811-3.848,2.811-4.831a2.3,2.3,0,0,0-2.265-2.511Zm17.685,0a2.018,2.018,0,0,0-2.347,2.129,2.006,2.006,0,0,0,2.347,2.1h6.8c.136,0,.655,0,.655.3a1.1,1.1,0,0,1-.246.464,35.809,35.809,0,0,0-2.975,4.694,33.371,33.371,0,0,0-3.739,11.408c0,.573.055,1.883,2.593,1.883,2.484,0,2.538-1.255,2.565-2.02.136-3.848,2.374-10.016,5.022-13.619,2.811-3.794,2.811-3.848,2.811-4.831a2.3,2.3,0,0,0-2.265-2.511Zm17.685,0a2.018,2.018,0,0,0-2.347,2.129,2.006,2.006,0,0,0,2.347,2.1h6.8c.136,0,.655,0,.655.3a1.1,1.1,0,0,1-.246.464,35.811,35.811,0,0,0-2.975,4.694,33.371,33.371,0,0,0-3.739,11.408c0,.573.055,1.883,2.593,1.883,2.484,0,2.538-1.255,2.565-2.02.136-3.848,2.374-10.016,5.022-13.619,2.811-3.794,2.811-3.848,2.811-4.831a2.3,2.3,0,0,0-2.265-2.511Zm20.742,8.679c.136-3.057.955-5.076,3.084-5.076A1.933,1.933,0,0,1-73.012-55.3c.437,1.119.71,1.8,2.484,1.8,2.1,0,2.429-1.474,2.429-2.02,0-1.747-2.074-5.1-6.85-5.1-7.751,0-8.3,8.652-8.3,12.472,0,4.722,1.037,6.823,2.265,8.406a7.167,7.167,0,0,0,5.7,2.7c4.558,0,7.505-3.439,7.505-8.024,0-3.875-2.265-7.505-6.8-7.505A4.69,4.69,0,0,0-78.034-51.345Zm2.456,2.811c.955,0,2.62.655,2.62,3.63,0,3.029-1.692,3.657-2.62,3.657-.9,0-2.593-.655-2.593-3.657S-76.451-48.534-75.578-48.534Z" transform="translate(432.772 7887.793)" fill="#f29600"/>
      <g id="icon_059860" transform="translate(116.199 7825.169)">
        <path id="パス_2105" data-name="パス 2105" d="M10.156,131.416a29.213,29.213,0,0,0,5.737,3.3,7.278,7.278,0,0,0,2.068.674h.052c1.416,0,3.244-2.651,3.461-3.511a2.674,2.674,0,0,0-.949-2.765l-1.9-1.482a2.648,2.648,0,0,0-1.642-.565,2.681,2.681,0,0,0-1.81.7,8.932,8.932,0,0,0-.908.928.153.153,0,0,1-.075.015c-.8,0-3.579-2.421-4.323-3.195-.785-.754-3.232-3.57-3.189-4.335,0-.053.02-.067.025-.071a8.54,8.54,0,0,0,.917-.9,2.672,2.672,0,0,0,.137-3.452l-1.482-1.9a2.835,2.835,0,0,0-.7-.62,2.668,2.668,0,0,0-1.109-.387,2.861,2.861,0,0,0-.327-.019,2.587,2.587,0,0,0-.632.077c-.758.191-3.577,2.021-3.51,3.513A7.277,7.277,0,0,0,.674,119.5a29.3,29.3,0,0,0,9.482,11.915Z" transform="translate(0.001 -107.733)" fill="#f29600"/>
        <path id="パス_2106" data-name="パス 2106" d="M262.737,5.535a14.744,14.744,0,0,0-8.106-4.156,1.513,1.513,0,0,0-.552.02h-.006a1.52,1.52,0,0,0-.275.086l-.018.008a1.551,1.551,0,0,0-.245.134l-.016.011a1.559,1.559,0,0,0-.219.182h0a1.537,1.537,0,0,0-.459,1.089v0a1.531,1.531,0,0,0,1.268,1.523,11.761,11.761,0,0,1,9.735,9.726,1.531,1.531,0,0,0,1.521,1.266,1.55,1.55,0,0,0,1.532-1.791A14.77,14.77,0,0,0,262.737,5.535Z" transform="translate(-239.109 -1.363)" fill="#f29600"/>
        <path id="パス_2107" data-name="パス 2107" d="M253.937,121.137a5.571,5.571,0,0,1,3.593,3.588,1.557,1.557,0,0,0,1.476,1.094h0a1.541,1.541,0,0,0,1.49-1.973,8.675,8.675,0,0,0-5.687-5.685,1.541,1.541,0,0,0-1.972,1.488v.008A1.557,1.557,0,0,0,253.937,121.137Z" transform="translate(-239.106 -111.753)" fill="#f29600"/>
      </g>
    </g>
  </g>
</svg>
