<svg xmlns="http://www.w3.org/2000/svg" width="818.368" height="142" viewBox="0 0 818.368 142">
  <g id="グループ_309" data-name="グループ 309" transform="translate(-230 -14719)">
    <g id="グループ_171" data-name="グループ 171" transform="translate(-98 352)">
      <circle id="楕円形_21" data-name="楕円形 21" cx="71" cy="71" r="71" transform="translate(328 14367)" fill="#f29600"/>
      <path id="パス_2799" data-name="パス 2799" d="M-49.272-19.7V2.232h2.88V1.008h6.072V2.232h2.856V-19.7Zm8.952,8.568V-7.8h-6.072v-3.336Zm0,5.928v3.48h-6.072v-3.48Zm0-11.736v3.216h-6.072v-3.216ZM-58.7-2.472A19.328,19.328,0,0,0-55.8-7.8V2.232h2.88V-7.824a21.732,21.732,0,0,0,1.8,2.688L-49.584-7.8a15.7,15.7,0,0,1-3.336-4.464V-13.44h2.832v-2.808H-52.92v-4.224H-55.8v4.224h-3.48v2.808h3.312a19.934,19.934,0,0,1-3.744,7.272Zm29.328-.84v2.28H-32.16v-2.28Zm3.864,5.568A10.932,10.932,0,0,0-19.464-3.5c.432,1.1,1.536,3.84,5.9,5.76l1.368-2.808A10.522,10.522,0,0,1-16.2-2.928,7.494,7.494,0,0,1-18.168-8.64V-10.1H-21V-8.52c0,3.816-1.3,6.456-5.976,8.064V-5.568h-7.752V2.208h2.568V1.3h5.184V-.384Zm-9.216-9.072h7.752v-2.4h-7.752Zm8.472-1.08a19.541,19.541,0,0,1,1.344,4.608l2.664-.792a20.617,20.617,0,0,0-1.488-4.56Zm-8.472-9.6h7.752v-2.376h-7.752Zm8.76-1.248a14.724,14.724,0,0,1,.84,4.416l2.76-.792a20.293,20.293,0,0,0-1.1-4.368Zm-8.76,8.28h7.752v-2.328h-7.752ZM-21-19.128c0,3.864-2.088,6.384-5.736,7.632l1.512,2.712a11.275,11.275,0,0,0,5.76-5.712,11.314,11.314,0,0,0,5.784,5.76l1.44-2.76a9.639,9.639,0,0,1-3.816-2.424,6.771,6.771,0,0,1-2.064-5.328V-20.4H-21ZM-35.424-13.92h9.168v-2.4h-9.168Zm19.848-5.64a18.926,18.926,0,0,1-1.512,4.176l2.4,1.056a21.2,21.2,0,0,0,1.728-4.416Zm.24,10.8a23.443,23.443,0,0,1-1.656,4.512l2.448.984a21.32,21.32,0,0,0,1.848-4.8ZM-1.584-2.64l7.7-1.584V2.184H9.192V-4.872l2.136-.456-.288-2.88-1.848.384v-12.6H6.12V-7.2L-1.944-5.52l.456-.84a14.989,14.989,0,0,1-2.784-3.816H-.888v-2.712H-4.536V-20.4H-7.272v7.512h-3.984v2.712h3.648A18.426,18.426,0,0,1-11.64-4.608l1.056,3.432A18.951,18.951,0,0,0-7.272-6V2.208h2.736V-6.144a21.783,21.783,0,0,0,1.584,2.52l.96-1.8Zm-9.816-16.1A16.414,16.414,0,0,1-10.368-13.8l2.28-.744A20.155,20.155,0,0,0-9.216-19.3Zm8.688-.624a19.607,19.607,0,0,1-1.224,4.776l2.16.816A26.115,26.115,0,0,0-.24-18.84ZM-.72-11.3A15.041,15.041,0,0,1,3.168-7.92l1.968-2.208a19.709,19.709,0,0,0-4.1-3.312Zm.7-6.12a18.715,18.715,0,0,1,3.936,3.552L5.856-16.08a16.944,16.944,0,0,0-4.128-3.336ZM16.008-12.96H12.72V-10.3h3.168v3H13.3v2.64h21.36V-7.3H32.544v-3H35.28V-12.96H32.544v-2.952h2.112v-2.64h-15.5a6.865,6.865,0,0,0,.84-1.56l-2.88-.552c-.432.936-1.392,2.712-4.752,4.56l1.776,2.376A8.756,8.756,0,0,0,16.008-15Zm9.24-2.952v2.952H23.064v-2.952Zm0,5.616v3H23.064v-3Zm-4.632-5.616v2.952H18.48v-2.952Zm0,5.616v3H18.48v-3ZM29.9-15.912v2.952H27.648v-2.952Zm0,5.616v3H27.648v-3ZM15.336-4.128A11.426,11.426,0,0,1,12.6.576l2.5,1.848c.84-.864,1.776-2.088,2.9-5.712ZM19.68-3.5c.048.528.072,1.3.072,2.376,0,1.392-.072,2.328-.12,3.12l3-.048a33.37,33.37,0,0,0-.384-5.52Zm4.728-.072a23,23,0,0,1,1.3,5.568L28.68,1.8a24.877,24.877,0,0,0-1.608-5.592Zm5.112.432a26.522,26.522,0,0,1,3.12,5.472L35.376.864A27.988,27.988,0,0,0,32.112-4.3Zm16.9.5,7.7-1.584V2.184h3.072V-4.872l2.136-.456-.288-2.88-1.848.384v-12.6H54.12V-7.2L46.056-5.52l.456-.84a14.989,14.989,0,0,1-2.784-3.816h3.384v-2.712H43.464V-20.4H40.728v7.512H36.744v2.712h3.648A18.426,18.426,0,0,1,36.36-4.608l1.056,3.432A18.951,18.951,0,0,0,40.728-6V2.208h2.736V-6.144a21.783,21.783,0,0,0,1.584,2.52l.96-1.8ZM36.6-18.744A16.414,16.414,0,0,1,37.632-13.8l2.28-.744A20.155,20.155,0,0,0,38.784-19.3Zm8.688-.624a19.607,19.607,0,0,1-1.224,4.776l2.16.816A26.115,26.115,0,0,0,47.76-18.84ZM47.28-11.3A15.041,15.041,0,0,1,51.168-7.92l1.968-2.208a19.709,19.709,0,0,0-4.1-3.312Zm.7-6.12a18.715,18.715,0,0,1,3.936,3.552l1.944-2.208a16.944,16.944,0,0,0-4.128-3.336ZM-43.44,23.9h5.928v2.76H-44.9V29.3h7.392v3.312h-9.624v2.9h22.272v-2.9h-9.552V29.3h7.392v-2.64h-7.392V23.9h5.976V22.12c1.128.624,1.968.96,2.664,1.272l1.512-2.976a20.9,20.9,0,0,1-10.056-6.84H-37.7c-1.584,1.968-3.96,4.464-10.032,6.864l1.416,2.976c.768-.336,1.584-.7,2.88-1.392Zm1.512-2.784a25.975,25.975,0,0,0,5.88-5.088,29.618,29.618,0,0,0,5.928,5.088ZM-5.976,25.5V23.272H-10.9V21.064h5.352V18.688H-18.36v2.376h4.632v2.208h-4.248V25.5h4.248V28.36h-5.016v2.472H-5.28V28.36h-1.1A14.4,14.4,0,0,0-7.248,25.5Zm-3.864,0a14.877,14.877,0,0,1,.984,2.856H-10.9V25.5ZM-22.416,36.112h2.88V35.08H-4.488v1.032h2.9v-21.6H-22.416ZM-4.488,17.344V32.272H-19.536V17.344Zm5.52,6.072a29.551,29.551,0,0,1,4.44,4.1A19.173,19.173,0,0,1,.336,33.184L2.352,35.8a24.437,24.437,0,0,0,5.184-5.808c.144.216,1.128,1.488,2.352,3.552l2.448-1.968a27.385,27.385,0,0,0-3.312-4.464,24,24,0,0,0,1.8-7.2h1.248V16.984H8.04V13.552H5.064v3.432H.744v2.928h7.08a20.316,20.316,0,0,1-1.056,4.776A40.8,40.8,0,0,0,3.12,21.4Zm17.28-9.864v4.3H12.72V20.9h5.592V32.464c0,.648,0,.768-.912.768H13.9l.648,2.928h4.008c2.136,0,2.808-.528,2.808-2.52V20.9h1.9V17.848h-1.9v-4.3ZM11.64,23.968a28.6,28.6,0,0,1,2.832,6.288l2.856-1.368A28.5,28.5,0,0,0,14.28,22.6Zm23.184-8.424H26.352v10.92a13.22,13.22,0,0,1-1.968,7.392l2.352,2.3A19.02,19.02,0,0,0,29.3,26.176V18.4H46.992V15.544H37.8V13.48H34.824Zm-4.008,9.408A20.939,20.939,0,0,1,28.8,33.088l2.52,1.3c1.44-2.544,1.92-6.456,2.112-8.976Zm3.5,9.144a1.777,1.777,0,0,0,1.968,1.824h3.984c2.3,0,2.5-1.944,2.832-6.072L40.392,29.3a25.866,25.866,0,0,1-.288,3.5.55.55,0,0,1-.6.336H37.872c-.456,0-.672-.144-.672-.576V23.92H34.32Zm-.456-13.368a18.776,18.776,0,0,1,5.592,3.552l1.92-2.328a26.436,26.436,0,0,0-5.736-3.5Zm7.92,4.176a24.474,24.474,0,0,1,2.664,9.408l2.976-.7a34.562,34.562,0,0,0-2.76-9.648Z" transform="translate(399 14431)" fill="#fff"/>
    </g>
    <g id="グループ_170" data-name="グループ 170" transform="translate(-67 13770)">
      <g id="グループ_126" data-name="グループ 126" transform="translate(194 71)">
        <path id="パス_2800" data-name="パス 2800" d="M-31.2-9.072v4.1h1.68V-7.552h10.992v2.576h1.68v-4.1h-2.368a25.57,25.57,0,0,0,1.136-2.352l-1.312-.4c1.024-.144,1.728-.288,2.448-.432l-.88-1.392a50.484,50.484,0,0,1-10.352.96c-1.248,0-2.048-.032-2.912-.064l.32,1.456c.448.016,1.056.016,1.744.032l-.768.288c.256.5.7,1.424.912,1.9Zm4,0c-.288-.736-.592-1.472-.928-2.192,1.136,0,2.112-.016,2.672-.032a15.274,15.274,0,0,1,.816,2.224Zm4.24,0a18.059,18.059,0,0,0-.7-2.32c2.512-.192,2.784-.224,3.76-.352A14.587,14.587,0,0,1-21.04-9.072ZM-28.336-4.1A9.716,9.716,0,0,0-25.7-1.344a24.665,24.665,0,0,1-5.84,1.1l.7,1.648A24.072,24.072,0,0,0-23.968-.336,20.775,20.775,0,0,0-17.04,1.488l.64-1.744a22.985,22.985,0,0,1-5.792-1.088,10.028,10.028,0,0,0,3.136-3.488v-1.52H-29.04v1.52h7.968A10.505,10.505,0,0,1-24-2.16a9.239,9.239,0,0,1-2.848-2.432ZM-13.68,1.392h1.632V-9.92a20.785,20.785,0,0,0,1.216-3.488l-1.712-.256A14.884,14.884,0,0,1-15.76-7.088l.736,1.872A11.428,11.428,0,0,0-13.68-6.9Zm3.1-7.936a25.013,25.013,0,0,1,2.688,3.9l1.472-.992a27.645,27.645,0,0,0-2.752-3.84Zm6.592-3.68h-7.184v1.648h7.184V-.72c0,.192-.032.464-.416.464L-7.36-.3l.224,1.7h2.96c1.376,0,1.9-.544,1.9-1.7V-8.576H-.464v-1.648H-2.272v-3.392H-3.984ZM.864.432H2.4V-.8H5.856V-12.96H.864ZM4.336-11.344v3.6H2.4v-3.6Zm0,5.1v3.872H2.4V-6.24Zm10.672-6h-3.3V-13.6H10.1v1.36H6.912V-10.7H10.1v1.856H6.352V-7.3h5.872v1.584H6.48v1.536h5.744V-.512c0,.24-.24.256-.352.256H9.488l.32,1.632h2.576c1.488,0,1.488-1.168,1.488-1.632v-3.92h1.5V-5.712h-1.5V-7.3H15.5V-8.848H11.712V-10.7h3.3ZM6.656-2.976A13.145,13.145,0,0,1,8.72-.272l1.392-1.056A10.879,10.879,0,0,0,7.952-3.9Zm22.656,2.4c0,.32-.176.384-.368.384H27.136l.256,1.6H29.84c1.072,0,1.072-1.056,1.072-1.5V-12.944H24.576V-7.1h4.736Zm0-11.056v1.056H26.128v-1.056Zm0,2.144v1.056H26.128V-9.488Zm-12.24,10.9h1.584V-7.1h4.5v-5.84h-6.08ZM21.6-11.632v1.056H18.656v-1.056Zm0,2.144v1.056H18.656V-9.488Zm-1.344,3.3V-.256H27.68V-6.192Zm5.9,1.3v1.1h-4.4V-4.9Zm0,2.176v1.152h-4.4V-2.72Z" transform="translate(521 1001)"/>
        <path id="パス_2801" data-name="パス 2801" d="M-69.56-11.5h6.048V-5.68H-70.12v1.568h6.608V1.52h1.68V-4.112h6.64V-5.68h-6.64V-11.5h6.144v-1.552H-69.56Zm.8,1.088a30.147,30.147,0,0,1,1.6,4.272l1.584-.544a21.6,21.6,0,0,0-1.7-4.256Zm10.5-.512a22.778,22.778,0,0,1-1.7,4.272l1.488.608a23.49,23.49,0,0,0,1.9-4.448ZM-52.52,1.344h1.76V.512h8.144v.832h1.776V-12.864H-52.52Zm9.9-8.416H-50.76v-4.144h8.144Zm0,5.936H-50.76v-4.3h8.144Zm4.832-2.512C-37.816-.032-35.128.128-32.936.128c3.488,0,5.584-.384,5.584-6.464,0-4.736-.976-6.4-5.168-6.4-3.344,0-5.088,1.008-5.088,4.144,0,2.96,1.92,4,4.672,4,1.68,0,2.88-.368,3.648-1.344a8.07,8.07,0,0,1-.368,2.96c-.4,1.1-1.28,1.392-3.248,1.392-2.88,0-3.008-.912-3.008-2.064Zm5.248-2.624c-2.336,0-3.168-.64-3.168-2.288,0-1.632.4-2.432,3.152-2.432,1.6,0,3.216.24,3.216,2.256C-29.336-7.6-29.544-6.272-32.536-6.272Zm7.072-3.152v2.16H-23.4v-2.16Zm0,7.28V0H-23.4V-2.144ZM-21.5-4.3c0,3.072.928,4.432,5.456,4.432,1.968,0,4.976-.192,4.976-3.712a2.779,2.779,0,0,0-1.952-2.992c.384-.112,1.792-.5,1.792-2.736,0-3.424-3.264-3.424-4.752-3.424-3.264,0-5.152.464-5.264,4.032h1.92c.016-1.232.032-2.3,3.44-2.3,1.9,0,2.752.48,2.752,1.92,0,1.808-1.488,1.808-2.288,1.808H-17.4v1.552h1.984c2.352,0,2.448,1.2,2.448,2.064,0,1.712-1.024,2.064-3.3,2.064-3.36,0-3.344-1.12-3.328-2.7Zm17.36-8.432c-4.3,0-5.3,1.52-5.3,6.432,0,4.944,1.008,6.432,5.3,6.432,4.368,0,5.28-1.648,5.28-6.256C1.144-11.168.232-12.736-4.136-12.736Zm-.016,1.728c2.944,0,3.376.608,3.376,4.8,0,3.776-.368,4.608-3.248,4.608-3.12,0-3.488-.688-3.488-4.672C-7.512-10.3-7.128-11.008-4.152-11.008ZM16.168-7.3a4.048,4.048,0,0,1-3.1,1.536,5.444,5.444,0,0,1-2.832-1.008,6.782,6.782,0,0,0-3.408-1.1A5.623,5.623,0,0,0,4.088-7.1,5.456,5.456,0,0,0,2.632-5.84L3.688-4.9a3.7,3.7,0,0,1,3.04-1.5c1.216,0,1.616.224,3.632,1.344a5.239,5.239,0,0,0,2.672.768,5.461,5.461,0,0,0,4.192-2.064Zm5.024-5.312v1.728H23.64V0h1.92V-12.608ZM32.872-6.56c-1.776.48-1.984,2.3-1.984,3.152,0,3.12,2.736,3.536,5.264,3.536C38.7.128,41.4-.3,41.4-3.408c0-.336,0-2.608-1.968-3.152a2.88,2.88,0,0,0,1.7-2.768c0-3.264-3.216-3.408-4.976-3.408s-4.992.144-4.992,3.408A2.874,2.874,0,0,0,32.872-6.56Zm3.28-4.512c2.368,0,3.12.512,3.12,1.824,0,1.456-.8,1.952-3.008,1.952-1.824,0-3.248-.144-3.248-1.888C33.016-10.4,33.5-11.072,36.152-11.072Zm0,5.312c2.384,0,3.392.432,3.392,2.08,0,1.44-.48,2.128-3.392,2.128-2.8,0-3.408-.624-3.408-2.064C32.744-5.2,33.512-5.76,36.152-5.76Zm7.1-3.664v2.16H45.32v-2.16Zm0,7.28V0H45.32V-2.144ZM47.224-4.3c0,3.072.928,4.432,5.456,4.432,1.968,0,4.976-.192,4.976-3.712A2.779,2.779,0,0,0,55.7-6.576c.384-.112,1.792-.5,1.792-2.736,0-3.424-3.264-3.424-4.752-3.424-3.264,0-5.152.464-5.264,4.032H49.4c.016-1.232.032-2.3,3.44-2.3,1.9,0,2.752.48,2.752,1.92C55.592-7.28,54.1-7.28,53.3-7.28H51.32v1.552H53.3c2.352,0,2.448,1.2,2.448,2.064,0,1.712-1.024,2.064-3.3,2.064-3.36,0-3.344-1.12-3.328-2.7Zm17.36-8.432c-4.3,0-5.3,1.52-5.3,6.432,0,4.944,1.008,6.432,5.3,6.432,4.368,0,5.28-1.648,5.28-6.256C69.864-11.168,68.952-12.736,64.584-12.736Zm-.016,1.728c2.944,0,3.376.608,3.376,4.8,0,3.776-.368,4.608-3.248,4.608-3.12,0-3.488-.688-3.488-4.672C61.208-10.3,61.592-11.008,64.568-11.008Z" transform="translate(634 1001)"/>
        <path id="パス_2802" data-name="パス 2802" d="M-33.9-12.608c-2.256,2.928-2.864,5.232-2.864,7.376A11.386,11.386,0,0,0-33.9,2.144h1.52A11.314,11.314,0,0,1-35.12-5.232a11.832,11.832,0,0,1,2.736-7.376Zm9.968,2.192V-8.24H-29.12v4.464H-31.5V-2.16h7.568v3.6h1.68v-3.6h5.776V-3.776h-5.776v-2.9h4.64V-8.24h-4.64v-2.176H-17.1v-1.616h-9.68a11.457,11.457,0,0,0,.464-1.2l-1.824-.448A9.569,9.569,0,0,1-31.7-8.56l1.136,1.424a12.073,12.073,0,0,0,2.912-3.28Zm0,3.744v2.9h-3.472v-2.9Zm15.072-6.912v2.752H-14.8v8.3h1.664v-.9h4.272V1.424h1.68V-3.424H-2.8v.9h1.7v-8.3h-6.08v-2.752ZM-2.8-9.168v4.08H-7.184v-4.08Zm-6.064,0v4.08h-4.272v-4.08Zm11.3.736h-2v1.44h2v2.336H.832v1.44h14.3v-1.44h-1.5V-6.992h1.92v-1.44h-1.92V-10.72h1.5v-1.456H4.592a5.919,5.919,0,0,0,.64-1.12l-1.568-.448A6.865,6.865,0,0,1,.192-10.512L1.264-9.168A6.517,6.517,0,0,0,2.432-9.9ZM8.88-10.72v2.288H7.152V-10.72Zm0,3.728v2.336H7.152V-6.992ZM5.712-10.72v2.288H3.984V-10.72Zm0,3.728v2.336H3.984V-6.992Zm6.336-3.728v2.288H10.32V-10.72Zm0,3.728v2.336H10.32V-6.992ZM2.272-2.624A6.893,6.893,0,0,1,.432.464l1.392,1.1A7.916,7.916,0,0,0,3.808-2.208Zm2.96.3a13.535,13.535,0,0,1,.1,1.728,8.7,8.7,0,0,1-.1,1.824h1.7a21.578,21.578,0,0,0-.208-3.6ZM8.416-2.4a13.1,13.1,0,0,1,.816,3.632l1.68-.1a12.713,12.713,0,0,0-.992-3.68Zm3.456.272a16.694,16.694,0,0,1,2.192,3.616L15.552.56A19.369,19.369,0,0,0,13.328-2.8Zm9.392,1.44a17.061,17.061,0,0,0,3.888-6.24V1.424h1.712v-8.16A14.934,14.934,0,0,0,30.656-.624l1.056-1.728A14.943,14.943,0,0,1,27.472-8.9h4v-1.6H26.864v-3.1H25.152v3.1h-4.4v1.6h3.776a17.284,17.284,0,0,1-4.384,6.608Zm-3.12,2.112h1.632v-10.8a15.976,15.976,0,0,0,1.1-4L19.136-13.6a11.989,11.989,0,0,1-2.848,6.56l.7,1.984a9.6,9.6,0,0,0,1.152-1.328Zm14.24-14.032A11.832,11.832,0,0,1,35.12-5.232a11.314,11.314,0,0,1-2.736,7.376H33.92a11.481,11.481,0,0,0,2.864-7.376c0-2.144-.624-4.448-2.864-7.376Z" transform="translate(754 1001)"/>
      </g>
      <path id="パス_2798" data-name="パス 2798" d="M-259.92-60.552c-3.528,0-10.656,1.368-14.544,6.984-5.616,8.136-5.832,21.024-5.832,24.048,0,3.816.432,16.56,5.832,24.12A18.211,18.211,0,0,0-259.92,1.584c6.048,0,11.664-2.88,14.544-6.984,5.328-7.488,5.832-20.016,5.832-24.12,0-2.952-.216-15.984-5.832-24.048C-248.832-58.608-255.312-60.552-259.92-60.552Zm0,11.088c5.616,0,7.128,9.792,7.128,19.944,0,11.232-1.728,20.016-7.2,20.016-6.264,0-7.056-12.6-7.056-20.016C-267.048-39.744-265.536-49.464-259.92-49.464Zm28.368,20.232c-.5,5.256,4.032,5.616,5.9,5.616a7.251,7.251,0,0,0,5.256-2.016c1.512-1.584,2.952-3.1,6.624-3.1,4.464,0,7.632,3.1,7.632,9.144,0,2.592-.288,10.08-7.848,10.08-5.184,0-6.48-3.6-7.128-5.472-1.224-3.384-4.32-3.744-6.48-3.744-3.1,0-6.048,1.368-6.048,5.4,0,3.816,5.04,14.9,20.016,14.9,10.008,0,20.736-5.9,20.736-21.96,0-12.312-8.568-19.44-18.216-19.44a15.283,15.283,0,0,0-8.784,2.3l.864-8.352a2.329,2.329,0,0,1,2.3-2.016h15.552c1.656,0,6.192,0,6.192-5.616,0-5.472-4.752-5.544-6.192-5.544h-19.3c-4.68,0-8.136.72-8.856,8.064Zm64.944-31.32c-3.528,0-10.656,1.368-14.544,6.984-5.616,8.136-5.832,21.024-5.832,24.048,0,3.816.432,16.56,5.832,24.12a18.211,18.211,0,0,0,14.544,6.984c6.048,0,11.664-2.88,14.544-6.984,5.328-7.488,5.832-20.016,5.832-24.12,0-2.952-.216-15.984-5.832-24.048C-155.52-58.608-162-60.552-166.608-60.552Zm0,11.088c5.616,0,7.128,9.792,7.128,19.944,0,11.232-1.728,20.016-7.2,20.016-6.264,0-7.056-12.6-7.056-20.016C-173.736-39.744-172.224-49.464-166.608-49.464Zm30.96,21.528c-5.544,0-6.12,3.312-6.12,6.408,0,4.248,2.016,6.048,6.12,6.048H-124.2c5.544,0,6.048-3.384,6.048-6.48,0-4.248-2.016-5.976-6.048-5.976ZM-80.5-31.9c5.76-3.744,5.76-10.224,5.76-11.52,0-10.008-7.128-17.136-19.08-17.136-14.832,0-18.792,11.664-18.792,16.344,0,4.1,2.88,5.472,6.336,5.472,5.328,0,5.832-3.168,6.048-4.9.72-4.968,3.312-5.832,6.552-5.832,3.96,0,5.76,2.88,5.76,6.48,0,4.968-2.016,7.488-5.976,7.488-2.376,0-5.9,0-5.9,5.04,0,4.968,3.456,4.968,5.9,4.968,7.7,0,7.7,6.336,7.7,8.352,0,5.544-3.384,7.632-7.632,7.632-6.12,0-6.7-4.1-7.2-7.128-.5-3.168-3.312-4.1-6.408-4.1-4.752,0-6.264,2.808-6.264,5.544a17.844,17.844,0,0,0,3.96,10.44c4.032,4.9,9.792,6.336,16.488,6.336,19.08,0,20.3-14.688,20.3-18.648A17.32,17.32,0,0,0-80.5-31.9Zm29.088-6.84V-4.608c0,5.04,2.736,6.192,6.912,6.192,5.472,0,6.408-3.1,6.408-6.192V-56.52c0-1.728-1.584-4.1-5.472-4.1-4.032,0-4.752,1.872-5.76,4.536-2.52,6.408-7.56,7.056-9.144,7.272-2.376.36-5.184.72-5.184,4.968,0,3.024,1.872,5.112,4.608,5.112Zm33.12,9.5c-.5,5.256,4.032,5.616,5.9,5.616a7.251,7.251,0,0,0,5.256-2.016c1.512-1.584,2.952-3.1,6.624-3.1,4.464,0,7.632,3.1,7.632,9.144C7.128-16.992,6.84-9.5-.72-9.5c-5.184,0-6.48-3.6-7.128-5.472-1.224-3.384-4.32-3.744-6.48-3.744-3.1,0-6.048,1.368-6.048,5.4,0,3.816,5.04,14.9,20.016,14.9,10.008,0,20.736-5.9,20.736-21.96,0-12.312-8.568-19.44-18.216-19.44a15.283,15.283,0,0,0-8.784,2.3l.864-8.352a2.329,2.329,0,0,1,2.3-2.016H12.1c1.656,0,6.192,0,6.192-5.616,0-5.472-4.752-5.544-6.192-5.544H-7.2c-4.68,0-8.136.72-8.856,8.064ZM53.28-22.824C52.92-14.832,50.76-9.5,45.144-9.5c-2.016,0-4.248-.648-5.112-2.88-1.152-3.024-1.872-4.752-6.552-4.752-5.472,0-6.408,3.888-6.408,5.328,0,4.608,5.472,13.392,18.072,13.392,20.448,0,21.888-22.752,21.888-32.9,0-12.456-2.736-18-5.976-22.176a19.08,19.08,0,0,0-15.048-7.056c-12.024,0-19.728,9-19.728,21.168,0,10.152,5.9,19.8,17.856,19.8C49.536-19.584,51.984-21.672,53.28-22.824ZM46.8-49.464c2.448,0,6.84,1.656,6.84,9.576s-4.464,9.576-6.84,9.576c-2.52,0-6.912-1.728-6.912-9.576C39.888-47.88,44.424-49.464,46.8-49.464ZM77.616-27.936c-5.544,0-6.12,3.312-6.12,6.408,0,4.248,2.016,6.048,6.12,6.048H89.064c5.544,0,6.048-3.384,6.048-6.48,0-4.248-2.016-5.976-6.048-5.976Zm27.648-31.1c-1.584,0-6.192.072-6.192,5.616s4.68,5.544,6.192,5.544h17.928c.36,0,1.728,0,1.728.792a2.888,2.888,0,0,1-.648,1.224c-1.44,1.872-2.736,3.528-7.848,12.384-5.9,10.152-9.864,26.064-9.864,30.1,0,1.512.144,4.968,6.84,4.968,6.552,0,6.7-3.312,6.768-5.328.36-10.152,6.264-26.424,13.248-35.928,7.416-10.008,7.416-10.152,7.416-12.744,0-3.312-1.944-6.624-5.976-6.624Zm46.656,0c-1.584,0-6.192.072-6.192,5.616s4.68,5.544,6.192,5.544h17.928c.36,0,1.728,0,1.728.792a2.888,2.888,0,0,1-.648,1.224c-1.44,1.872-2.736,3.528-7.848,12.384-5.9,10.152-9.864,26.064-9.864,30.1,0,1.512.144,4.968,6.84,4.968,6.552,0,6.7-3.312,6.768-5.328.36-10.152,6.264-26.424,13.248-35.928,7.416-10.008,7.416-10.152,7.416-12.744,0-3.312-1.944-6.624-5.976-6.624Zm46.656,0c-1.584,0-6.192.072-6.192,5.616s4.68,5.544,6.192,5.544H216.5c.36,0,1.728,0,1.728.792a2.888,2.888,0,0,1-.648,1.224c-1.44,1.872-2.736,3.528-7.848,12.384-5.9,10.152-9.864,26.064-9.864,30.1,0,1.512.144,4.968,6.84,4.968,6.552,0,6.7-3.312,6.768-5.328.36-10.152,6.264-26.424,13.248-35.928,7.416-10.008,7.416-10.152,7.416-12.744,0-3.312-1.944-6.624-5.976-6.624Zm54.72,22.9c.36-8.064,2.52-13.392,8.136-13.392,2.016,0,4.248.72,5.112,2.952,1.152,2.952,1.872,4.752,6.552,4.752,5.544,0,6.408-3.888,6.408-5.328,0-4.608-5.472-13.464-18.072-13.464-20.448,0-21.888,22.824-21.888,32.9,0,12.456,2.736,18,5.976,22.176a18.907,18.907,0,0,0,15.048,7.128c12.024,0,19.8-9.072,19.8-21.168,0-10.224-5.976-19.8-17.928-19.8C257.04-39.384,254.592-37.3,253.3-36.144Zm6.48,7.416c2.52,0,6.912,1.728,6.912,9.576,0,7.992-4.464,9.648-6.912,9.648-2.376,0-6.84-1.728-6.84-9.648S257.472-28.728,259.776-28.728Z" transform="translate(835 1039)" fill="#f29600"/>
      <g id="icon_059860" transform="translate(459.001 965.637)">
        <path id="パス_2105" data-name="パス 2105" d="M26.794,160.2a77.064,77.064,0,0,0,15.135,8.715,19.2,19.2,0,0,0,5.455,1.778l.137,0c3.735,0,8.558-6.995,9.131-9.264a7.055,7.055,0,0,0-2.5-7.294l-5.013-3.909a6.986,6.986,0,0,0-4.332-1.489A7.073,7.073,0,0,0,40.03,150.6a23.562,23.562,0,0,0-2.4,2.447.4.4,0,0,1-.2.039c-2.1,0-9.443-6.387-11.4-8.428-2.072-1.99-8.528-9.417-8.414-11.435.008-.141.053-.176.067-.187a22.53,22.53,0,0,0,2.418-2.363,7.05,7.05,0,0,0,.362-9.106l-3.91-5.013a7.477,7.477,0,0,0-1.839-1.636,7.038,7.038,0,0,0-2.925-1.02,7.544,7.544,0,0,0-.864-.05,6.824,6.824,0,0,0-1.667.2c-2,.5-9.436,5.332-9.26,9.269a19.2,19.2,0,0,0,1.778,5.455A77.289,77.289,0,0,0,26.794,160.2Z" transform="translate(0 -96.362)" fill="#f29600"/>
        <path id="パス_2106" data-name="パス 2106" d="M278.947,12.37A38.9,38.9,0,0,0,257.563,1.407a3.992,3.992,0,0,0-1.455.052l-.015,0a4.01,4.01,0,0,0-.726.227l-.049.02a4.091,4.091,0,0,0-.645.353l-.041.029a4.112,4.112,0,0,0-.577.479l0,0a4.056,4.056,0,0,0-1.21,2.873v.006a4.038,4.038,0,0,0,3.345,4.017,31.028,31.028,0,0,1,25.682,25.659,4.039,4.039,0,0,0,4.012,3.341,4.088,4.088,0,0,0,4.043-4.725A38.964,38.964,0,0,0,278.947,12.37Z" transform="translate(-216.613 0)" fill="#f29600"/>
        <path id="パス_2107" data-name="パス 2107" d="M255.735,126.122a14.7,14.7,0,0,1,9.479,9.465,4.107,4.107,0,0,0,3.894,2.886h.006a4.065,4.065,0,0,0,3.93-5.2,22.885,22.885,0,0,0-15-15,4.066,4.066,0,0,0-5.2,3.927v.022A4.107,4.107,0,0,0,255.735,126.122Z" transform="translate(-216.61 -100.004)" fill="#f29600"/>
      </g>
    </g>
  </g>
</svg>
