<svg id="グループ_76" data-name="グループ 76" xmlns="http://www.w3.org/2000/svg" width="64.353" height="66.206" viewBox="0 0 64.353 66.206">
  <path id="パス_1703" data-name="パス 1703" d="M590.575,10444.179v-12.755c0-.09.04-.359,0-.085H589.6c-.035-.21,0-.16,0-.1a.5.5,0,0,0,.5.5h37.024l-.5-.5v49.078l.5-.5H604.378a.5.5,0,0,0,0,1h22.808a.5.5,0,0,0,.5-.5v-49.057a.5.5,0,0,0-.5-.5H590.067l.5.5v-.165a.5.5,0,0,0-.972,0,3.947,3.947,0,0,0,0,.729v12.376a.5.5,0,0,0,1,0Z" transform="translate(-563.332 -10424.681)" fill="#334d82"/>
  <path id="パス_1704" data-name="パス 1704" d="M590.406,10425.485c1.72-1.6,3.366-3.28,5.091-4.876.414-.379.833-.764,1.267-1.123l-.354.15h24.359l-.354-.15c1.84,1.5,3.49,3.262,5.211,4.932l1.092,1.066c.469.449,1.182-.258.713-.713-1.83-1.765-3.61-3.59-5.485-5.295-.319-.289-.763-.833-1.212-.848h-23.7a2.144,2.144,0,0,0-.823.045,1.633,1.633,0,0,0-.379.285c-1.995,1.694-3.8,3.579-5.685,5.379l-.459.434c-.5.444.239,1.158.713.713Z" transform="translate(-563.307 -10418.608)" fill="#334d82"/>
  <path id="パス_1705" data-name="パス 1705" d="M566.467,10455.092l-5.191,1.421-7.849,2.154-8.168,2.239-6.213,1.7-.972.27a1.5,1.5,0,0,0-.863.523,1.461,1.461,0,0,0-.19,1.312c.429,1.615.853,3.24,1.272,4.861q.733,2.827,1.5,5.65.838,3.067,1.68,6.133l2.2,8.018q1.057,3.831,2.1,7.664l.823,2.992c.19.688.359,1.4.573,2.08a1.36,1.36,0,0,0,.957.947,1.8,1.8,0,0,0,.907-.065l1-.273,2.817-.753,7.614-2.035,8.312-2.223,6.732-1.8,1.182-.314a5.2,5.2,0,0,0,1.092-.328,1.357,1.357,0,0,0,.7-1.158,2.273,2.273,0,0,0-.13-.683c-.09-.339-.184-.679-.274-1q-.853-3.111-1.71-6.224l-2.2-8.023q-1.062-3.864-2.119-7.729-.718-2.628-1.431-5.245c-.608-2.254-1.237-4.488-1.855-6.762-.185-.664-.369-1.332-.549-1.994a2.134,2.134,0,0,0-.449-1,1.38,1.38,0,0,0-1.312-.354c-.633.145-.364,1.117.269,1,.3-.069.394.185.459.429s.17.6.249.908l.6,2.179,1.167,4.224c.384,1.406.763,2.813,1.147,4.223l1.855,6.781q1.1,4.02,2.2,8.023,1,3.615,1.995,7.226l.733,2.673.274,1a.812.812,0,0,1,.06.5c-.075.18-.269.205-.439.249l-5.311,1.421-7.794,2.084-8.083,2.16-6.163,1.65-1,.258c-.18.045-.364.105-.5-.059a1.263,1.263,0,0,1-.155-.459l-.613-2.244-1.855-6.742q-1.092-3.987-2.194-7.978-1-3.57-1.955-7.141c-.394-1.427-.788-2.853-1.167-4.284-.768-2.906-1.561-5.818-2.279-8.735-.12-.5.324-.528.688-.623l1.052-.29,2.817-.772,7.48-2.044,8.148-2.234,6.6-1.811,1.995-.543a.532.532,0,1,0-.279-1.027Z" transform="translate(-536.945 -10436.881)" fill="#334d82"/>
  <path id="パス_1706" data-name="パス 1706" d="M574.8,10486.971l-8.352,2.238-7.285,1.965c-1.5.395-2.962.777-4.443,1.178a.838.838,0,1,0,.444,1.615c2.458-.658,4.917-1.3,7.37-1.965l7.131-1.92,5.58-1.5a.838.838,0,1,0-.444-1.615Z" transform="translate(-545.548 -10452.867)" fill="#334d82"/>
  <path id="パス_1707" data-name="パス 1707" d="M578.242,10499.66l-8.347,2.238-7.285,1.965c-1.5.395-2.967.778-4.448,1.178a.842.842,0,0,0,.449,1.619c2.453-.657,4.912-1.3,7.37-1.969l7.126-1.92,5.585-1.5a.838.838,0,1,0-.449-1.615Z" transform="translate(-547.298 -10459.229)" fill="#334d82"/>
  <path id="パス_1708" data-name="パス 1708" d="M581.589,10512.33l-8.352,2.239-7.285,1.965-4.443,1.177a.84.84,0,0,0,.444,1.621c2.458-.658,4.917-1.307,7.37-1.971l7.131-1.914,5.58-1.5a.84.84,0,0,0-.444-1.621Z" transform="translate(-548.95 -10465.581)" fill="#334d82"/>
</svg>
