<svg id="グループ_72" data-name="グループ 72" xmlns="http://www.w3.org/2000/svg" width="74.353" height="68.239" viewBox="0 0 74.353 68.239">
  <path id="パス_1503" data-name="パス 1503" d="M587.054,9661.8a5.993,5.993,0,0,0,2.359-.04,1.617,1.617,0,0,0,.908-.5,2.925,2.925,0,0,0,.5-1,.424.424,0,0,0-.813-.225,2.079,2.079,0,0,1-.324.688,1.077,1.077,0,0,1-.628.27,4.985,4.985,0,0,1-1.785,0,.433.433,0,0,0-.5.3.423.423,0,0,0,.294.5Z" transform="translate(-551.804 -9610.914)" fill="#334d82"/>
  <path id="パス_1504" data-name="パス 1504" d="M586.9,9657.167a7.708,7.708,0,0,0,2.189.278c.229,0,.459.025.688.025a1.364,1.364,0,0,0,1.257-.719,1.117,1.117,0,0,0-.469-1.281,2.33,2.33,0,0,0-.823-.309c-.6-.165-1.192-.35-1.785-.539-.354-.115-.7-.229-1.052-.359l-.224-.084c-.03,0-.224-.09-.12-.045a1.688,1.688,0,0,1-.249-.125c-.454-.294-.878.434-.424.729a5.775,5.775,0,0,0,1.291.5c.583.2,1.172.385,1.765.559.219.064.439.13.658.186a.959.959,0,0,1,.588.258.619.619,0,0,1,.065.165c0,.05-.04.065,0,0a.766.766,0,0,1-.5.185h-.6a6.92,6.92,0,0,1-2.059-.254.424.424,0,1,0-.224.813Z" transform="translate(-551.267 -9607.992)" fill="#334d82"/>
  <path id="パス_1505" data-name="パス 1505" d="M578.1,9651.222a3.68,3.68,0,0,0,.9.056,3.188,3.188,0,0,0,.853-.3,3.929,3.929,0,0,1,.793-.229h.524a.424.424,0,0,0,.224-.812h0a1.63,1.63,0,0,0-.758,0,3.723,3.723,0,0,0-.843.189c-.145.05-.284.109-.429.17l-.259.109c-.125.055-.1.039-.075.029h-.055a.153.153,0,0,1-.06,0h-.608a.435.435,0,0,0-.5.295.429.429,0,0,0,.3.5Z" transform="translate(-547.313 -9605.961)" fill="#334d82"/>
  <path id="パス_1506" data-name="パス 1506" d="M588.536,9647.613a3.565,3.565,0,0,1-1.162.244c-.429,0-.858-.08-1.292-.06a3.991,3.991,0,0,0-2.184.638,8.568,8.568,0,0,0-1.69,1.781,1.264,1.264,0,0,0-.289,1.061,1.176,1.176,0,0,0,.618.764c.957.435,1.705-.469,2.339-1,.414-.355-.184-.948-.593-.6a3.921,3.921,0,0,1-.963.808c-.209.085-.469.11-.563-.1s.3-.639.459-.832a9.78,9.78,0,0,1,.853-.908,3.087,3.087,0,0,1,2.059-.752c.449,0,.893.079,1.336.059a4.4,4.4,0,0,0,1.3-.268c.5-.186.289-1-.219-.813Z" transform="translate(-549.366 -9604.816)" fill="#334d82"/>
  <path id="パス_1507" data-name="パス 1507" d="M595.958,9657.811c.17-.109.349-.22.5-.318a3.846,3.846,0,0,1,.429-.24l-.1.04a3.113,3.113,0,0,1,.349-.11.424.424,0,1,0-.224-.812,3.433,3.433,0,0,0-.469.16c-.09.045-.174.1-.259.145-.229.13-.454.265-.673.409a.421.421,0,0,0,.424.729Z" transform="translate(-556.086 -9609.193)" fill="#334d82"/>
  <path id="パス_1508" data-name="パス 1508" d="M631.215,9581.727c.194-.369.653-.9,1.122-.613.369.225.409.8.4,1.182a3.162,3.162,0,0,1-1.406,2.538c-.454.294-.03,1.022.424.728a3.987,3.987,0,0,0,1.805-3.664,1.762,1.762,0,0,0-1.142-1.65,1.786,1.786,0,0,0-1.935,1.058C630.232,9581.8,630.96,9582.205,631.215,9581.727Z" transform="translate(-573.7 -9571.032)" fill="#334d82"/>
  <path id="パス_1509" data-name="パス 1509" d="M615.229,9593.838a3.059,3.059,0,0,0,1.152-.254,1.5,1.5,0,0,0,.5-.369.5.5,0,0,0,.125-.3.424.424,0,0,0-.723-.3l-.065.069-.045.04c-.05.039.09-.064.05-.04H616.2a1.8,1.8,0,0,1-.3.165l.1-.041a2.357,2.357,0,0,1-.593.154H615.2a.419.419,0,0,0-.424.419.424.424,0,0,0,.424.424Z" transform="translate(-565.852 -9577.185)" fill="#334d82"/>
  <path id="パス_1510" data-name="パス 1510" d="M617.224,9583.4c-.07.358.075,1.151.708,1.162.833-.09.783-1.067.459-1.5a.648.648,0,0,0-1.167.333Z" transform="translate(-567.069 -9572.327)" fill="#334d82"/>
  <path id="パス_1511" data-name="パス 1511" d="M612.338,9576.455c0,1.277.384,2.519.314,3.8a1.918,1.918,0,0,1-.529,1.361,1.969,1.969,0,0,0-.569.678,1.148,1.148,0,0,0,0,.958c.234.5.823.633,1.117,1.077a1.837,1.837,0,0,1,.209.6c.07.267.15.53.239.794a3.934,3.934,0,0,0,2.2,2.732,5.3,5.3,0,0,0,2.129.148,5.1,5.1,0,0,0,1.047-.2l.2-.076c.125-.049.145,0,.09-.059a1.584,1.584,0,0,1,.284.5c.254.5,1,.055.728-.424a1.876,1.876,0,0,0-.563-.764,1,1,0,0,0-.927,0,4.9,4.9,0,0,1-1.845.215,2.351,2.351,0,0,1-1.546-.5,3.547,3.547,0,0,1-.857-1.416,13.889,13.889,0,0,1-.449-1.5,2.4,2.4,0,0,0-1.092-1.291c-.115-.085-.234-.165-.229-.319,0-.293.354-.463.534-.652a2.7,2.7,0,0,0,.643-1.5c.18-1.4-.294-2.758-.279-4.154a.424.424,0,0,0-.843,0Z" transform="translate(-564.182 -9568.963)" fill="#334d82"/>
  <path id="パス_1512" data-name="パス 1512" d="M633.516,9589.5a6.5,6.5,0,0,0,3.6,2.254.424.424,0,1,0,.224-.812,5.731,5.731,0,0,1-3.221-2.039.424.424,0,1,0-.6.6Z" transform="translate(-575.173 -9575.314)" fill="#334d82"/>
  <path id="パス_1513" data-name="パス 1513" d="M624.051,9577.606a5.025,5.025,0,0,1,2.583,1.585,2.774,2.774,0,0,1,.244.334l.115.21s.055.12,0,.05a.745.745,0,0,1,.04.115.434.434,0,0,0,.5.294.424.424,0,0,0,.294-.5,4.093,4.093,0,0,0-1.5-1.85,5.449,5.449,0,0,0-2.119-1.033.424.424,0,0,0-.224.818Z" transform="translate(-570.311 -9569.315)" fill="#334d82"/>
  <path id="パス_1514" data-name="パス 1514" d="M617.378,9573.914v-.234a3.113,3.113,0,0,1,.075-.3.449.449,0,0,1,.055-.148c.02-.051-.04.08,0,0v-.061a3.226,3.226,0,0,1,.164-.289,1.187,1.187,0,0,1,.09-.129c.03-.051-.065.074,0,0l.05-.061c.07-.08.145-.154.219-.229l.12-.1c.04-.035-.06.045,0,0a.29.29,0,0,1,.065-.044,2.014,2.014,0,0,1,.284-.17.425.425,0,0,0,.155-.574.435.435,0,0,0-.578-.154,2.958,2.958,0,0,0-1.6,2.493.423.423,0,0,0,.419.423.433.433,0,0,0,.424-.423Z" transform="translate(-566.704 -9566.591)" fill="#334d82"/>
  <path id="パス_1515" data-name="パス 1515" d="M620.587,9575.357q.037-.05.07-.1s-.055.069,0,.024l.04-.044a2.25,2.25,0,0,1,.16-.175l.185-.165.04-.029c-.09.074-.04.029,0,0l.1-.07.2-.124.1-.05h.1l.12-.04a2.23,2.23,0,0,1,.239-.06.423.423,0,0,0,.294-.5.434.434,0,0,0-.5-.294,3.053,3.053,0,0,0-1.855,1.262.429.429,0,0,0,.15.578.435.435,0,0,0,.578-.149Z" transform="translate(-568.382 -9567.774)" fill="#334d82"/>
  <path id="パス_1516" data-name="パス 1516" d="M614.04,9568.828a5.063,5.063,0,0,1,1-3.277,5.955,5.955,0,0,1,1.9-2.033,6.127,6.127,0,0,1,1.5-.664,6.352,6.352,0,0,1,1.71-.2,12.937,12.937,0,0,1,3.655.453,8.925,8.925,0,0,1,5.41,3.99,3.981,3.981,0,0,1,.563,1.63,4.616,4.616,0,0,1-.055.868,2.8,2.8,0,0,0,.065,1,6.11,6.11,0,0,1,.2,1.67,4.985,4.985,0,0,1-.334,1.6,8.186,8.186,0,0,1-.953,1.626c-.314.463-.608.928-.893,1.41a5.169,5.169,0,0,0-.868,3.57.421.421,0,0,0,.813-.219,4.72,4.72,0,0,1,.932-3.187,22.691,22.691,0,0,0,1.75-2.892,5.893,5.893,0,0,0,.234-3.49,3.022,3.022,0,0,1-.125-.969,5.684,5.684,0,0,0,.07-.967,4.589,4.589,0,0,0-.544-1.8,9.575,9.575,0,0,0-5.674-4.543,13.58,13.58,0,0,0-3.82-.594,9.588,9.588,0,0,0-1.885.109,6.309,6.309,0,0,0-1.691.6,6.579,6.579,0,0,0-2.523,2.354,6.161,6.161,0,0,0-1.242,3.949.439.439,0,0,0,.424.424.425.425,0,0,0,.419-.424Z" transform="translate(-565.067 -9561.793)" fill="#334d82"/>
  <path id="パス_1517" data-name="パス 1517" d="M520.454,9669.193a1.191,1.191,0,0,0,.175.748,1.5,1.5,0,0,0,.553.4c.359.2.738.373,1.117.538a29.638,29.638,0,0,0,2.842,1.027,22.943,22.943,0,0,0,5.45,1.132,26.106,26.106,0,0,0,4.233-.205c.723-.085,1.451-.185,2.174-.289a3.116,3.116,0,0,0,1.755-.5,2.1,2.1,0,0,0,.389-1.327c.04-.393.075-.787.11-1.182q.12-1.494.2-2.991c.05-.942.1-1.89.095-2.837a29.888,29.888,0,0,0-.414-3.711.424.424,0,1,0-.813.225c.135,1,.319,1.994.369,2.992.04.8,0,1.6-.035,2.4-.08,1.729-.19,3.49-.364,5.19a2.383,2.383,0,0,1-.075.5c-.08.219-.3.244-.5.278-.648.109-1.3.194-1.955.278a34.143,34.143,0,0,1-4.029.339,19.108,19.108,0,0,1-5.35-.822c-1.037-.284-2.064-.618-3.072-1-.414-.16-.823-.334-1.222-.529-.185-.084-.364-.18-.544-.278a.873.873,0,0,1-.234-.14c.03.045,0,0,0,0a.536.536,0,0,1,0-.25.424.424,0,0,0-.843,0Z" transform="translate(-518.558 -9610.854)" fill="#334d82"/>
  <path id="パス_1518" data-name="パス 1518" d="M529.265,9607.983c-2.034-1.705-4.7-2-7.141-2.763a.433.433,0,0,0-.5.3c-.165.5-.3,1.043-.444,1.571-.06.229-.12.464-.174.692a3.612,3.612,0,0,1-.279.654,17.151,17.151,0,0,0-1.81,6.642,24.482,24.482,0,0,0,.13,4.054c.294,2.738.9,5.426,1.376,8.133.224,1.291.439,2.588.588,3.895.075.652.14,1.307.18,1.965a7.09,7.09,0,0,1-.025,1.81c-.219,1.062-.549,2.089-.828,3.136a21.748,21.748,0,0,0-.653,3.83c-.04.543.8.539.848,0a19.527,19.527,0,0,1,.548-3.346c.234-.912.5-1.811.748-2.728.06-.259.12-.523.174-.783a4.073,4.073,0,0,0,.065-.922c0-.644-.05-1.286-.1-1.925-.12-1.327-.309-2.643-.5-3.955-.439-2.657-1.027-5.285-1.406-7.953a20.729,20.729,0,0,1,.165-8.014,17.028,17.028,0,0,1,1.167-3.23c.12-.244.249-.5.364-.738a5.091,5.091,0,0,0,.214-.809c.155-.588.309-1.177.5-1.754l-.5.293c2.274.733,4.877.953,6.767,2.543.414.345,1-.249.6-.6Z" transform="translate(-517.775 -9583.562)" fill="#334d82"/>
  <path id="パス_1519" data-name="パス 1519" d="M526.329,9621.611c-.613,4.089,2.374,7.648,5.2,10.2a35.368,35.368,0,0,0,4.612,3.49,30.39,30.39,0,0,0,2.862,1.5c.913.454,1.825.912,2.743,1.352a55.878,55.878,0,0,0,6.572,2.673.429.429,0,0,0,.5-.294c.768-2.18,1.536-4.358,2.349-6.518a.419.419,0,0,0-.195-.474,93.809,93.809,0,0,1-8.731-4.942,4.268,4.268,0,0,1-.5-.334,3.663,3.663,0,0,1-.374-.418,8.959,8.959,0,0,1-.618-.788c-.434-.583-.828-1.192-1.217-1.8-.763-1.213-1.471-2.459-2.279-3.641a10.567,10.567,0,0,0-2.992-3.137c-.464-.284-.888.443-.424.729a9.172,9.172,0,0,1,2.538,2.646c.818,1.172,1.526,2.414,2.284,3.621.384.618.778,1.227,1.2,1.814.209.289.424.578.648.857a5.34,5.34,0,0,0,.708.8,11.47,11.47,0,0,0,1.127.714l1.112.688q1.027.627,2.064,1.241,2.458,1.437,5.021,2.678l-.194-.5c-.813,2.164-1.581,4.339-2.344,6.518l.5-.293a84.087,84.087,0,0,1-11.07-4.918,19.468,19.468,0,0,1-2.463-1.555q-1.1-.773-2.124-1.641a22.667,22.667,0,0,1-3.854-4.02,8.5,8.5,0,0,1-1.89-6.019.439.439,0,0,0-.294-.5.43.43,0,0,0-.5.3Z" transform="translate(-521.466 -9590.179)" fill="#334d82"/>
  <path id="パス_1520" data-name="パス 1520" d="M532.867,9616.855a5.161,5.161,0,0,0-3.735-.289,3.85,3.85,0,0,0-2.314,2.1.438.438,0,0,0,.155.578.424.424,0,0,0,.573-.154,3.044,3.044,0,0,1,1.81-1.709,4.251,4.251,0,0,1,3.081.2.438.438,0,0,0,.579-.149.429.429,0,0,0-.15-.579Z" transform="translate(-521.726 -9589.143)" fill="#334d82"/>
  <path id="パス_1521" data-name="パス 1521" d="M551.844,9684.514c-.344,1.795-.563,3.625-.848,5.436-.05.309-.095.623-.155.928-.1.533.713.758.813.225.344-1.8.568-3.625.853-5.436.045-.309.09-.623.15-.928C552.756,9684.205,551.948,9683.98,551.844,9684.514Z" transform="translate(-533.791 -9623.167)" fill="#334d82"/>
  <path id="パス_1522" data-name="パス 1522" d="M521.943,9680.674c-.11.857-.12,1.74-.165,2.6l-.189,3.8c0,.453-.045.912-.07,1.366-.03.544.813.538.843,0,.12-2.219.209-4.442.344-6.662a9.09,9.09,0,0,1,.08-1.106.423.423,0,0,0-.419-.424A.428.428,0,0,0,521.943,9680.674Z" transform="translate(-519.094 -9621.183)" fill="#334d82"/>
  <path id="パス_1523" data-name="パス 1523" d="M624.536,9623.666a40.058,40.058,0,0,0,0,4.168,24.654,24.654,0,0,0,.638,3.49c.244,1.067.5,2.125.673,3.2a21.5,21.5,0,0,1,.389,3.49c0,1-.115,2-.155,2.968q-.075,1.62-.08,3.236c0,1.295,0,2.592.045,3.884,0,.358,0,.713.03,1.072a2.492,2.492,0,0,0,.155,1.2c.264.443.833.522,1.292.633a25.746,25.746,0,0,0,3.79.6,13.269,13.269,0,0,0,3.989-.155c.534-.119.309-.933-.219-.812a11.877,11.877,0,0,1-3.306.158,24.644,24.644,0,0,1-3.371-.453c-.434-.084-.863-.185-1.281-.309-.284-.09-.2-.35-.209-.608l-.03-1.132c-.035-1.281-.055-2.568-.05-3.85,0-2.023.1-4.039.224-6.053a16.451,16.451,0,0,0-.309-3.461q-.239-1.5-.583-2.992a32.849,32.849,0,0,1-.768-3.8,35.456,35.456,0,0,1,0-4.488.424.424,0,0,0-.843,0Z" transform="translate(-570.716 -9592.616)" fill="#334d82"/>
  <path id="パス_1524" data-name="パス 1524" d="M643.568,9602.858a39.027,39.027,0,0,1,3.391,2.219,17.614,17.614,0,0,1,2.568,2.169,6.713,6.713,0,0,1,1.117,1.551,10.381,10.381,0,0,1,.673,1.861c.374,1.336.738,2.677,1.062,4.028a46.96,46.96,0,0,1,1.217,7.624,56.632,56.632,0,0,1-.035,7.529c-.195,3.057-.5,6.1-.783,9.155l.419-.423a28.845,28.845,0,0,1-2.992-.025c-1.1-.05-2.2-.115-3.3-.189-.543-.035-.539.808,0,.848,1.1.07,2.2.135,3.3.185a28.575,28.575,0,0,0,2.992,0,.433.433,0,0,0,.424-.418c.5-5.315,1.152-10.666.858-16.006a46.819,46.819,0,0,0-1.132-7.849c-.3-1.347-.658-2.683-1.027-4.015a10.576,10.576,0,0,0-1.591-3.76,14.32,14.32,0,0,0-2.907-2.691,37.654,37.654,0,0,0-3.83-2.544.424.424,0,0,0-.424.728Z" transform="translate(-580.199 -9581.986)" fill="#334d82"/>
  <path id="パス_1525" data-name="パス 1525" d="M643.123,9627.831h0l-.813.225c.823,2.149,1.636,4.308,2.458,6.481l.733,1.916a9.007,9.007,0,0,1,.733,2.883,52.555,52.555,0,0,1-.314,5.6,46.937,46.937,0,0,0,0,6.646c.035.539.883.544.843,0a45.221,45.221,0,0,1-.05-5.984c.115-1.89.364-3.774.369-5.674a8.363,8.363,0,0,0-.434-2.777c-.259-.773-.573-1.531-.868-2.289-.548-1.436-1.1-2.877-1.641-4.313q-.516-1.346-1-2.687a.434.434,0,0,0-.5-.295.424.424,0,0,0-.294.5h0a.435.435,0,0,0,.5.295.425.425,0,0,0,.294-.5Z" transform="translate(-579.654 -9594.762)" fill="#334d82"/>
  <path id="パス_1526" data-name="パス 1526" d="M635.381,9600.74a8.637,8.637,0,0,1,1.646,2.792l.194-.5a30.316,30.316,0,0,1-3.062,1.875.429.429,0,0,0-.14.588.307.307,0,0,0,.055.075,10.471,10.471,0,0,1,.8,1.191l.065-.5a9.368,9.368,0,0,1-.957.924c-.5.453-1.047.892-1.581,1.326-1.122.906-2.254,1.795-3.4,2.678a.432.432,0,0,0-.154.572.423.423,0,0,0,.578.154c1.182-.906,2.354-1.824,3.491-2.767.534-.435,1.072-.878,1.591-1.331a9.2,9.2,0,0,0,1-.962.433.433,0,0,0,.07-.5,12.369,12.369,0,0,0-.928-1.367l-.085.664a31.225,31.225,0,0,0,3.062-1.875.429.429,0,0,0,.189-.5,9.852,9.852,0,0,0-1.86-3.167.419.419,0,0,0-.593,0,.434.434,0,0,0,0,.6Z" transform="translate(-572.879 -9580.945)" fill="#334d82"/>
  <path id="パス_1527" data-name="パス 1527" d="M612.008,9609.127a3.836,3.836,0,0,0-1.546,1.9,16.074,16.074,0,0,0-.8,2.278c-.424,1.531-.658,3.092-1,4.642a16.745,16.745,0,0,1-.653,2.354,4.55,4.55,0,0,1-1,1.721,5.545,5.545,0,0,1-1.137.679l-1.212.683c-.738.414-1.5.833-2.219,1.237q-2.578,1.406-5.241,2.647a.429.429,0,0,0-.149.578,56.97,56.97,0,0,1,2.428,5.909.43.43,0,0,0,.5.295,100.216,100.216,0,0,0,9.654-3.7.424.424,0,0,0-.429-.729,96.642,96.642,0,0,1-9.449,3.611l.5.294a58.63,58.63,0,0,0-2.493-6.108l-.155.574c3.191-1.5,6.253-3.207,9.325-4.932a2.876,2.876,0,0,0,.878-.687,4.494,4.494,0,0,0,.564-.863,11.332,11.332,0,0,0,.828-2.244c.4-1.521.593-3.087.947-4.617a20.943,20.943,0,0,1,.793-2.683,3.792,3.792,0,0,1,1.466-2.12c.5-.254.055-1-.424-.728Z" transform="translate(-556.936 -9585.493)" fill="#334d82"/>
  <path id="パス_1528" data-name="パス 1528" d="M624.111,9644.754v.1h0a.516.516,0,0,1-.04.174,1.138,1.138,0,0,1-.06.17c.04-.1,0,0,0,0l-.055.1a1.868,1.868,0,0,1-.1.164.685.685,0,0,1-.07.1c-.06.088.03,0,0,.039s-.214.244-.329.359a7.9,7.9,0,0,1-2.084,1.352.423.423,0,0,0-.15.572.434.434,0,0,0,.578.154,8.347,8.347,0,0,0,2.309-1.541,2.55,2.55,0,0,0,.868-1.744.418.418,0,0,0-.419-.424.424.424,0,0,0-.424.424Z" transform="translate(-569.055 -9603.174)" fill="#334d82"/>
  <path id="パス_1529" data-name="パス 1529" d="M635,9600.273a7.064,7.064,0,0,0,.339-.639c.13-.259.284-.449.195-.753a8.9,8.9,0,0,0-.439-1.116.429.429,0,0,0-.573-.15c-1.995.868-3.989,1.855-6.058,2.573a.424.424,0,0,0-.254.618,14.417,14.417,0,0,0,2.812,2.639.441.441,0,0,0,.5.064,13.6,13.6,0,0,0,1.631-1.336,10.7,10.7,0,0,0,1.84-1.9c.3-.449-.424-.872-.728-.424a10.037,10.037,0,0,1-1.71,1.73,12.918,12.918,0,0,1-1.456,1.2l.5.064c-.414-.324-.823-.658-1.222-1a9.884,9.884,0,0,1-1.456-1.456l-.249.618c2.139-.742,4.174-1.766,6.258-2.658l-.578-.154a10.3,10.3,0,0,1,.384,1l.04-.324c-.189.314-.324.663-.5,1C633.973,9600.273,634.7,9600.712,635,9600.273Z" transform="translate(-572.554 -9579.726)" fill="#334d82"/>
  <path id="パス_1530" data-name="パス 1530" d="M647.23,9610.955a5.2,5.2,0,0,0-4.353.867,5.674,5.674,0,0,0-2.1,3.391,5.988,5.988,0,0,0-.06,2.064.422.422,0,0,0,.5.3.438.438,0,0,0,.294-.5,4.789,4.789,0,0,1,3.49-5.315,4.3,4.3,0,0,1,1.995.03c.529.124.753-.689.224-.813Z" transform="translate(-578.825 -9586.363)" fill="#334d82"/>
  <path id="パス_1531" data-name="パス 1531" d="M633.267,9600.156a94.849,94.849,0,0,0-6.781,8.975q-.927,1.377-1.835,2.773c-.294.453.434.877.728.423,2.024-3.106,4.109-6.178,6.422-9.08q1-1.255,2.064-2.493c.354-.409-.244-1-.6-.6Z" transform="translate(-570.766 -9580.96)" fill="#334d82"/>
  <path id="パス_1532" data-name="パス 1532" d="M629.122,9607.4c-.329.867-.583,1.77-.858,2.652-.354,1.117-.718,2.238-1,3.381-.125.528.688.753.813.225.274-1.143.638-2.264,1-3.381.274-.888.529-1.785.858-2.653a.425.425,0,0,0-.294-.5.434.434,0,0,0-.5.3Z" transform="translate(-572.106 -9584.515)" fill="#334d82"/>
  <path id="パス_1533" data-name="パス 1533" d="M626.594,9603.8a1.124,1.124,0,0,0-.873.949c-.025.264-.025.527-.04.792,0,.354-.035.708-.04,1.067v.184h0v.07l-.075.379c-.279,1.5-.5,3.036-.718,4.563-.095.723-.2,1.451-.239,2.184-.03.539.813.539.843,0,.075-1.342.3-2.678.5-3.988.1-.709.219-1.412.344-2.115.045-.259.095-.5.145-.772a5.588,5.588,0,0,0,.055-.817c0-.374.03-.748.05-1.122v-.319c0-.1.12-.174.264-.229.5-.18.289-1-.224-.813Z" transform="translate(-570.779 -9582.846)" fill="#334d82"/>
  <path id="パス_1534" data-name="パス 1534" d="M630.259,9677.969a10.647,10.647,0,0,0,.11,1.127h0a.613.613,0,0,1,0,.095.718.718,0,0,0,.035.27c.06.554.12,1.112.175,1.671.145,1.375.284,2.752.429,4.133.045.424.08.857.15,1.287a.424.424,0,0,0,.813-.225v-.035a.649.649,0,0,0-.025-.229c-.03-.225-.05-.448-.075-.673q-.1-.943-.195-1.88c-.135-1.3-.264-2.593-.4-3.89-.06-.543-.135-1.082-.17-1.63s-.878-.544-.843,0Z" transform="translate(-573.612 -9619.844)" fill="#334d82"/>
  <path id="パス_1535" data-name="パス 1535" d="M541.294,9615a17.26,17.26,0,0,1-1.022-2.03,12.4,12.4,0,0,0-1.231-2.229.439.439,0,0,0-.578-.149.418.418,0,0,0-.15.573,12.61,12.61,0,0,1,1.232,2.229,17.689,17.689,0,0,0,1,2.033c.3.449,1.027.03.728-.428Z" transform="translate(-527.485 -9586.23)" fill="#334d82"/>
  <path id="パス_1536" data-name="パス 1536" d="M523.334,9611.288h.1l.249.04.578.115c.5.1,1,.209,1.5.324.967.214,1.935.443,2.9.673.209.05.424.114.633.154a.434.434,0,0,0,.5-.245.418.418,0,0,0-.174-.527l-.1-.045a.424.424,0,0,0-.224.813l-.1-.04.324-.772c-.593-.1-1.182-.279-1.77-.419-1.042-.245-2.089-.5-3.141-.7-.419-.09-.838-.175-1.262-.225a.429.429,0,0,0-.424.424.434.434,0,0,0,.424.419Z" transform="translate(-519.797 -9586.178)" fill="#334d82"/>
  <path id="パス_1537" data-name="パス 1537" d="M577.831,9631.663c.653,1.212,1.381,2.384,2.054,3.585a.423.423,0,0,0,.728-.428c-.673-1.2-1.4-2.369-2.054-3.58C578.3,9630.74,577.562,9631.185,577.831,9631.663Z" transform="translate(-547.298 -9596.501)" fill="#334d82"/>
  <path id="パス_1538" data-name="パス 1538" d="M594.007,9634.4l-2.992,2.548a.424.424,0,0,0,0,.6.433.433,0,0,0,.6,0l2.992-2.549a.424.424,0,0,0-.593-.6Z" transform="translate(-553.875 -9598.146)" fill="#334d82"/>
  <path id="パス_1539" data-name="パス 1539" d="M588.08,9628.1c-.449,1.716-.843,3.445-1.232,5.176-.12.528.693.753.813.225.389-1.73.783-3.461,1.232-5.176a.424.424,0,0,0-.813-.225Z" transform="translate(-551.842 -9594.899)" fill="#334d82"/>
  <path id="パス_1540" data-name="パス 1540" d="M574.926,9637.818q.578.574,1.137,1.167a.429.429,0,0,0,.594,0,.434.434,0,0,0,0-.6c-.374-.389-.748-.777-1.132-1.162a.425.425,0,0,0-.6,0,.419.419,0,0,0,0,.594Z" transform="translate(-545.809 -9599.55)" fill="#334d82"/>
  <path id="パス_1541" data-name="パス 1541" d="M539.563,9597.734c.174-.424.5-1,.713-1.5.07-.154.145-.309.214-.459s.1-.338.189-.4c0,0-.095,0,.05.024a1.725,1.725,0,0,1,.219.041,5.164,5.164,0,0,0,.548.059,4.076,4.076,0,0,0,3.62-1.311,4.791,4.791,0,0,0,.7-1.676,8.728,8.728,0,0,0,.18-.872,7.4,7.4,0,0,1,.115-.823c.155-.529.723-.748,1-1.2a1.287,1.287,0,0,0-.554-1.686,1.925,1.925,0,0,1-.818-1.347,9.07,9.07,0,0,1-.11-1.875.424.424,0,0,0-.843,0,5.659,5.659,0,0,0,.618,3.291,2.307,2.307,0,0,0,.6.584c.175.115.464.294.409.549-.035.159-.264.3-.384.4a2.311,2.311,0,0,0-.608.793,8.021,8.021,0,0,0-.324,1.591,4.924,4.924,0,0,1-.559,1.62,2.1,2.1,0,0,1-1.411.974,5.224,5.224,0,0,1-1.95.113c-.4-.055-.768-.169-1.092.154a3.5,3.5,0,0,0-.5.953c-.279.594-.583,1.177-.833,1.785a.423.423,0,0,0,.294.5.431.431,0,0,0,.5-.293Z" transform="translate(-527.733 -9573.093)" fill="#334d82"/>
  <path id="パス_1542" data-name="パス 1542" d="M532.681,9587.809a1.8,1.8,0,0,0-2.144-.843,1.774,1.774,0,0,0-.9,1.745,4.023,4.023,0,0,0,2.209,3.455.421.421,0,0,0,.424-.728,3.212,3.212,0,0,1-1.76-2.384,1.464,1.464,0,0,1,.219-1.223c.4-.393,1,.051,1.222.4a.44.44,0,0,0,.579.154.43.43,0,0,0,.15-.579Z" transform="translate(-523.16 -9574.352)" fill="#334d82"/>
  <path id="パス_1543" data-name="パス 1543" d="M550.356,9597.809a4.159,4.159,0,0,1-.529-.029h.11a1.234,1.234,0,0,1-.284-.069l.1.04a.66.66,0,0,1-.125-.07l.085.064h0a.419.419,0,0,0-.718.3.394.394,0,0,0,.12.3,1.194,1.194,0,0,0,.209.14,1.474,1.474,0,0,0,.279.095,4.268,4.268,0,0,0,.748.065.44.44,0,0,0,.3-.125.425.425,0,0,0,0-.6.436.436,0,0,0-.3-.119Z" transform="translate(-532.872 -9579.755)" fill="#334d82"/>
  <path id="パス_1544" data-name="パス 1544" d="M548.109,9587.757c.115.349.065,1.167-.573,1.251-.843,0-.908-1-.638-1.445a.658.658,0,0,1,1.212.2Z" transform="translate(-531.748 -9574.549)" fill="#334d82"/>
  <path id="パス_1545" data-name="パス 1545" d="M521.54,9587.969a4.231,4.231,0,0,0-1.326-2.713,15.015,15.015,0,0,1-1.661-2.7,10.47,10.47,0,0,1-1-3.121,9.479,9.479,0,0,1,.249-3.366,5.279,5.279,0,0,1,1.5-2.713c.4-.368-.2-.962-.6-.6-1.621,1.5-2.074,3.915-2.044,6.02a9.184,9.184,0,0,0,.778,3.316,16.558,16.558,0,0,0,1.655,3.047c.294.424.628.817.942,1.227a2.446,2.446,0,0,1,.668,1.605.422.422,0,0,0,.843,0Z" transform="translate(-516.657 -9567.231)" fill="#334d82"/>
  <path id="パス_1546" data-name="パス 1546" d="M528.321,9595.795a5.47,5.47,0,0,1-1.5,1.5,8.4,8.4,0,0,1-1.95,1.037.424.424,0,1,0,.225.813,9.146,9.146,0,0,0,2.2-1.156,6.491,6.491,0,0,0,1.765-1.77c.284-.465-.444-.883-.728-.424Z" transform="translate(-520.6 -9578.738)" fill="#334d82"/>
  <path id="パス_1547" data-name="パス 1547" d="M545.814,9596.258a5.231,5.231,0,0,0-.169.627.432.432,0,0,0,.04.324.423.423,0,0,0,.578.154h0a.443.443,0,0,0,.194-.253,5.312,5.312,0,0,1,.17-.629.322.322,0,0,0,0-.169.316.316,0,0,0-.05-.16A.42.42,0,0,0,546,9596a.447.447,0,0,0-.195.255Z" transform="translate(-531.183 -9578.915)" fill="#334d82"/>
  <path id="パス_1548" data-name="パス 1548" d="M551.579,9582.011a11.9,11.9,0,0,0-.14-2.731.42.42,0,0,0-.5-.3.435.435,0,0,0-.3.5,2.563,2.563,0,0,0,.06.319.25.25,0,0,1,0,.064c0-.039,0-.035,0,0v.174c0,.215.025.43.03.639v1.3a.424.424,0,0,0,.843,0Z" transform="translate(-533.691 -9570.403)" fill="#334d82"/>
  <path id="パス_1549" data-name="パス 1549" d="M544.706,9579.08a7.526,7.526,0,0,1-1.591.2,12.341,12.341,0,0,1-1.556,0,.424.424,0,0,0,0,.843,12.767,12.767,0,0,0,3.371-.258.424.424,0,0,0-.224-.814Z" transform="translate(-528.953 -9570.444)" fill="#334d82"/>
  <path id="パス_1550" data-name="パス 1550" d="M538.092,9579.5c-.568,0-.828.7-1,1.132-.1.249-.195.5-.274.758-.035.1-.065.2-.1.3s-.1.273-.03.1l.663-.086c-.284-.273-.534-.7-.937-.812-.5-.139-.783.3-.962.684-.389.813-.773,1.631-1.132,2.459a.421.421,0,1,0,.728.423c.319-.738.658-1.461,1-2.188l.155-.33.07-.148c.05-.09.135-.12,0-.105s-.11,0-.085,0,.035.025.05.04a2.024,2.024,0,0,1,.174.175c.12.125.229.259.354.379a.419.419,0,0,0,.658-.086c.155-.354.249-.732.384-1.1a4.141,4.141,0,0,1,.26-.589,1.106,1.106,0,0,1,.08-.129.441.441,0,0,1,.04-.061c.03-.05-.05.05,0,0a.236.236,0,0,0,.04-.04c.035-.039.025,0,0,0h-.12a.424.424,0,0,0,0-.843Z" transform="translate(-525.485 -9570.64)" fill="#334d82"/>
  <path id="パス_1551" data-name="パス 1551" d="M535.958,9573.371a1.905,1.905,0,0,0,.838-2.055,3.276,3.276,0,0,0-1.047-1.85,10.1,10.1,0,0,0-3.59-2.144.4.4,0,0,0-.5.5h0l.618-.5a12.108,12.108,0,0,0-9.424.384,6.472,6.472,0,0,0-2.269,2.044c-.309.449.424.868.728.424,1.835-2.687,5.744-3.106,8.686-2.623a9.893,9.893,0,0,1,1.077.234c.15.04.294.085.439.134l.214.08h.125a.427.427,0,0,0,.618-.473h0l-.5.5a8.892,8.892,0,0,1,2.992,1.721,2.924,2.924,0,0,1,1,1.316c.15.453.174,1.222-.359,1.5a.424.424,0,0,0-.155.573.432.432,0,0,0,.578.154Z" transform="translate(-518.589 -9564.178)" fill="#334d82"/>
  <path id="パス_1552" data-name="パス 1552" d="M595.8,9646.453l-1.1.379a.423.423,0,0,0-.294.5,38.274,38.274,0,0,0,2.044,5.087.419.419,0,0,0,.5.194l1.2-.449a.434.434,0,0,0,.294-.5.423.423,0,0,0-.5-.295l-1.2.449.5.194a37.517,37.517,0,0,1-1.96-4.888l-.294.5,1.1-.379c.5-.175.289-1-.224-.812Z" transform="translate(-555.629 -9604.215)" fill="#334d82"/>
  <path id="パス_1553" data-name="パス 1553" d="M573.874,9650.482c.394.154.783.314,1.177.463l-.294-.5c-.534,1.825-1.122,3.635-1.815,5.4l.5-.295-1.242-.428c-.5-.18-.733.633-.224.813l1.242.429a.434.434,0,0,0,.5-.294c.693-1.766,1.281-3.58,1.815-5.4a.433.433,0,0,0-.294-.5c-.394-.15-.783-.311-1.177-.465a.423.423,0,0,0-.5.294.433.433,0,0,0,.294.5Z" transform="translate(-544.248 -9605.864)" fill="#334d82"/>
  <path id="パス_1554" data-name="パス 1554" d="M626.083,9603.046c-.165.429-.319.857-.464,1.292l-.2.652c-.03.109-.06.22-.095.334,0,0-.045.129,0,.04a.39.39,0,0,1-.035.06.278.278,0,0,1,.214-.124.424.424,0,0,0,0,.843.679.679,0,0,0,.633-.574c.075-.259.15-.5.229-.772q.244-.772.539-1.526a.424.424,0,0,0-.294-.5.435.435,0,0,0-.5.295Z" transform="translate(-571.037 -9582.333)" fill="#334d82"/>
  <path id="パス_1555" data-name="パス 1555" d="M648.755,9675.749a10.871,10.871,0,0,0-1.541,3.76,7.628,7.628,0,0,0-.095,2.209,1.5,1.5,0,0,0,1.416,1.2.424.424,0,0,0,0-.844.5.5,0,0,1-.179-.04.764.764,0,0,1-.289-.2.97.97,0,0,1-.135-.68,9.346,9.346,0,0,1,.165-1.825,11.038,11.038,0,0,1,1.386-3.161.424.424,0,0,0-.728-.424Z" transform="translate(-582.045 -9618.841)" fill="#334d82"/>
  <path id="パス_1556" data-name="パス 1556" d="M649.8,9683.39c0,.823-.09,1.636-.145,2.453-.03.454-.035.913-.06,1.366a7.793,7.793,0,0,0-.05,1.078c.055.742.534,1.5,1.391,1.275.952-.273.918-1.3.962-2.094.045-.937.12-1.87.16-2.808a.422.422,0,0,0-.843,0c-.04.907-.11,1.81-.16,2.713l-.03.758a.907.907,0,0,1-.115.469c-.165.234-.389.194-.474-.06a2.647,2.647,0,0,1,0-1.1c.035-.449.03-.9.06-1.348.05-.9.14-1.795.16-2.7a.424.424,0,0,0-.843,0Z" transform="translate(-583.282 -9622.566)" fill="#334d82"/>
  <path id="パス_1557" data-name="パス 1557" d="M652.26,9690.555a1.1,1.1,0,0,0,1.187.933,1.341,1.341,0,0,0,1.147-1.241c.11-.679.13-1.381.185-2.07l.165-2.074c.045-.543-.8-.538-.843,0-.085,1.043-.165,2.084-.249,3.127a6.133,6.133,0,0,1-.065.777.886.886,0,0,1-.2.553c-.249.211-.459.056-.5-.229a.424.424,0,0,0-.5-.295.434.434,0,0,0-.3.5Z" transform="translate(-584.643 -9623.913)" fill="#334d82"/>
  <path id="パス_1558" data-name="パス 1558" d="M655.4,9690.8a1.186,1.186,0,0,0,1.167.579,1.126,1.126,0,0,0,1-1.058c.09-.613.125-1.246.18-1.869s.115-1.3.145-1.955a.422.422,0,0,0-.843,0c-.045,1-.15,1.994-.244,2.992a4.794,4.794,0,0,1-.06.652.477.477,0,0,1-.155.359.431.431,0,0,1-.469-.15.421.421,0,1,0-.728.425Z" transform="translate(-586.184 -9624.112)" fill="#334d82"/>
  <path id="パス_1559" data-name="パス 1559" d="M660.113,9677a26.385,26.385,0,0,1,.05,4.986c-.06.594-.13,1.186-.234,1.774a6.289,6.289,0,0,1-.219.907.32.32,0,0,1-.14.215h-.2a.424.424,0,0,0-.728.43.959.959,0,0,0,.868.442,1.021,1.021,0,0,0,.868-.5,4.372,4.372,0,0,0,.439-1.69,23.787,23.787,0,0,0,.294-3.57c0-1-.065-1.994-.15-2.992-.05-.538-.893-.543-.843,0Z" transform="translate(-587.818 -9619.351)" fill="#334d82"/>
  <path id="パス_1560" data-name="パス 1560" d="M574.729,9661.257c.688.409,1.386.782,2.094,1.146s1.331.728,2.025,1.042a2.537,2.537,0,0,0,1.745.135,2.5,2.5,0,0,0,1.536-.952c.294-.46-.434-.883-.728-.43a2.023,2.023,0,0,1-2.493.329c-1.257-.628-2.493-1.281-3.725-1.994a.427.427,0,1,0-.454.724Z" transform="translate(-545.671 -9611.265)" fill="#334d82"/>
  <path id="パス_1561" data-name="パス 1561" d="M587.813,9664.158a2.194,2.194,0,0,0,1.087-.394,3.5,3.5,0,0,0,.788-.718.437.437,0,0,0,.125-.295.419.419,0,0,0-.718-.3,3.544,3.544,0,0,1-.294.314l-.169.154-.05.039h0l-.1.076a3.085,3.085,0,0,1-.409.229c.12-.06,0,0-.035,0a.542.542,0,0,1-.11.029h-.13a.424.424,0,1,0,0,.844Z" transform="translate(-552.089 -9612.196)" fill="#334d82"/>
</svg>
