<svg id="グループ_75" data-name="グループ 75" xmlns="http://www.w3.org/2000/svg" width="48.626" height="66.08" viewBox="0 0 48.626 66.08">
  <path id="パス_1661" data-name="パス 1661" d="M616.625,9997.055a6.838,6.838,0,0,0-4.917-3.411,15.8,15.8,0,0,0-5.645.06,5.568,5.568,0,0,0-2.543,1.073.44.44,0,1,0,.623.622s.11-.084.035-.029l.1-.069a1.735,1.735,0,0,1,.214-.134,4.314,4.314,0,0,1,.424-.215,7.06,7.06,0,0,1,1.142-.35,13.185,13.185,0,0,1,2.648-.284,9.459,9.459,0,0,1,4.722.838,5.51,5.51,0,0,1,2.438,2.344C616.121,9998,616.864,9997.563,616.625,9997.055Z" transform="translate(-582.978 -9993.418)" fill="#334d82"/>
  <path id="パス_1662" data-name="パス 1662" d="M624.752,10050.3a1.241,1.241,0,0,0,0-.135v.115a6.908,6.908,0,0,1-.06-.908.469.469,0,0,0-.13-.31.439.439,0,0,0-.623,0,.467.467,0,0,0-.13.313,8.219,8.219,0,0,0,.095,1.162.424.424,0,0,0,.2.26.432.432,0,0,0,.6-.154h0l.045-.105a.372.372,0,0,0,0-.233Z" transform="translate(-593.215 -10021.25)" fill="#334d82"/>
  <path id="パス_1663" data-name="パス 1663" d="M605.441,10050.365a8.685,8.685,0,0,0,.1-1.4.439.439,0,1,0-.878,0,9.256,9.256,0,0,1-.065,1.117v.049a.5.5,0,0,0,.045.34.44.44,0,0,0,.6.154h0a.4.4,0,0,0,.2-.26Z" transform="translate(-583.577 -10021.049)" fill="#334d82"/>
  <path id="パス_1664" data-name="パス 1664" d="M627.731,10035.563a4.8,4.8,0,0,1-.225,1.188c-.045.145-.09.289-.139.434a.577.577,0,0,1-.05.148c-.015.051-.07.15,0,.025a9.218,9.218,0,0,1-.609,1.112,11.913,11.913,0,0,1-2.493,2.892,5.3,5.3,0,0,1-1.85,1,.44.44,0,1,0,.234.848,7.641,7.641,0,0,0,3.515-2.494,12.272,12.272,0,0,0,1.925-2.857,6.262,6.262,0,0,0,.569-2.3.439.439,0,0,0-.878,0Z" transform="translate(-592.329 -10014.33)" fill="#334d82"/>
  <path id="パス_1665" data-name="パス 1665" d="M595.49,10033.2a13.55,13.55,0,0,0,1,3.924,9.557,9.557,0,0,0,3.361,4.039,6.153,6.153,0,0,0,2.493,1,.455.455,0,0,0,.544-.311.444.444,0,0,0-.309-.538,6.6,6.6,0,0,1-3.864-2.313,9.466,9.466,0,0,1-2.065-4.059c-.08-.324-.15-.648-.2-1a3.417,3.417,0,0,0-.07-.453,1.521,1.521,0,0,0-.045-.318.449.449,0,0,0-.439-.439.434.434,0,0,0-.439.439Z" transform="translate(-578.997 -10013.128)" fill="#334d82"/>
  <path id="パス_1666" data-name="パス 1666" d="M623.3,10010.131a3.811,3.811,0,0,1,1.306.733,10.039,10.039,0,0,1,1.331,1.276,8.624,8.624,0,0,1,1.86,3.53,16.1,16.1,0,0,1,.334,2.189.454.454,0,0,0,.439.438.449.449,0,0,0,.444-.438c-.065-.718-.165-1.426-.3-2.135a9.382,9.382,0,0,0-.778-2.174,10.013,10.013,0,0,0-2.623-3.24,5.06,5.06,0,0,0-1.78-1.033.443.443,0,0,0-.234.854Z" transform="translate(-592.809 -10001.365)" fill="#334d82"/>
  <path id="パス_1667" data-name="パス 1667" d="M635.038,10025.373a1,1,0,0,1,1.4.115,1.614,1.614,0,0,1,.229.917,5.309,5.309,0,0,1-.788,3.048c-.284.447-.748,1.057-1.346.892a.44.44,0,1,0-.234.848c1.531.424,2.533-1.386,2.937-2.583a6.246,6.246,0,0,0,.309-2.248,2.1,2.1,0,0,0-.9-1.836,1.922,1.922,0,0,0-2.224.225.444.444,0,0,0,0,.623.453.453,0,0,0,.623,0Z" transform="translate(-598.31 -10008.887)" fill="#334d82"/>
  <path id="パス_1668" data-name="パス 1668" d="M593.368,10024.734a1.85,1.85,0,0,0-3.107,1.372,5.942,5.942,0,0,0,1.271,4.293,2.18,2.18,0,0,0,2.1.917c.549-.129.319-1-.234-.848s-1.142-.5-1.426-.937a5.25,5.25,0,0,1-.783-1.994,5.349,5.349,0,0,1-.07-1.057,1.794,1.794,0,0,1,.195-.942,1,1,0,0,1,1.4-.2l.035.03a.453.453,0,0,0,.623,0,.444.444,0,0,0,0-.623Z" transform="translate(-576.381 -10008.872)" fill="#334d82"/>
  <path id="パス_1669" data-name="パス 1669" d="M595.478,9998.421a8.067,8.067,0,0,0-3.755,4.249,13.536,13.536,0,0,0-.927,5.8,10.319,10.319,0,0,0,.553,3.107.448.448,0,0,0,.539.3.433.433,0,0,0,.266-.205.439.439,0,0,0,.043-.334,11.629,11.629,0,0,1-.424-5.364,9.97,9.97,0,0,1,1.9-4.956,6.1,6.1,0,0,1,2.249-1.84.449.449,0,0,0,.155-.6.445.445,0,0,0-.6-.156Z" transform="translate(-576.651 -9995.897)" fill="#334d82"/>
  <path id="パス_1670" data-name="パス 1670" d="M631.277,10003.558a5.918,5.918,0,0,1,2.493,3.112,10.727,10.727,0,0,1,.668,4.287,11.137,11.137,0,0,1-.389,2.688.44.44,0,0,0,.848.234,12.841,12.841,0,0,0,.3-5.156,9.581,9.581,0,0,0-1.5-4.088,5.781,5.781,0,0,0-1.995-1.836c-.5-.278-.937.5-.444.758Z" transform="translate(-596.843 -9998.091)" fill="#334d82"/>
  <path id="パス_1671" data-name="パス 1671" d="M603.686,10015a4.574,4.574,0,0,0-3.411,1.76,6.952,6.952,0,0,0-1.656,3.615.441.441,0,0,0,.883,0,5.859,5.859,0,0,1,1.4-2.993,3.757,3.757,0,0,1,2.787-1.5.439.439,0,0,0,0-.877Z" transform="translate(-580.586 -10004.238)" fill="#334d82"/>
  <path id="パス_1672" data-name="パス 1672" d="M618.073,10008.79a2.551,2.551,0,0,0-1.5.688c-.394.338-.7.772-1.077,1.131a4.013,4.013,0,0,1-2.992,1.242.438.438,0,1,0,0,.877h0a4.677,4.677,0,0,0,3.246-1.187,9.851,9.851,0,0,0,1.157-1.171,1.867,1.867,0,0,1,1.137-.7.449.449,0,0,0,.439-.439.444.444,0,0,0-.439-.438Z" transform="translate(-587.329 -10001.125)" fill="#334d82"/>
  <path id="パス_1673" data-name="パス 1673" d="M612.066,10065.541c.908,0,1.82-.025,2.733-.025a.439.439,0,0,0,.391-.662.435.435,0,0,0-.391-.215h-2.733a.444.444,0,1,0,0,.882Z" transform="translate(-587.081 -10029.124)" fill="#334d82"/>
  <path id="パス_1674" data-name="パス 1674" d="M610.234,10061.2c.065.325.135.653.209,1a3.828,3.828,0,0,1,.189.938,5.82,5.82,0,0,1-.06.594q-.194,1.655-.4,3.307c-.1.832-.2,1.67-.3,2.492a.439.439,0,0,0,.439.439.448.448,0,0,0,.439-.438c.174-1.417.344-2.833.5-4.249.085-.707.219-1.431.249-2.144a3.866,3.866,0,0,0-.174-1c-.09-.395-.18-.788-.259-1.187a.443.443,0,0,0-.539-.309.453.453,0,0,0-.309.543Z" transform="translate(-586.226 -10027.116)" fill="#334d82"/>
  <path id="パス_1675" data-name="パス 1675" d="M614.649,10057.92h-1.621a.438.438,0,1,0,0,.877h1.621a.438.438,0,1,0,0-.877Z" transform="translate(-587.59 -10025.757)" fill="#334d82"/>
  <path id="パス_1676" data-name="パス 1676" d="M619.22,10070.232q-.324-2.133-.638-4.263c-.08-.528-.155-1.058-.234-1.585-.025-.186-.05-.375-.08-.564h0v-.08a1.409,1.409,0,0,1,0-.145,1.772,1.772,0,0,1,.08-.6c.11-.383.239-.762.339-1.15a.44.44,0,0,0-.848-.235,7.11,7.11,0,0,0-.459,1.935,6.494,6.494,0,0,0,.1.813c.165,1.171.344,2.344.5,3.521l.389,2.6a.449.449,0,0,0,.544.31.46.46,0,0,0,.309-.544Z" transform="translate(-589.991 -10027.443)" fill="#334d82"/>
  <path id="パス_1677" data-name="パス 1677" d="M621.307,10052.51c-.04.22-.085.443-.135.663a2.009,2.009,0,0,1-.269.614c-.249.418-.5.832-.773,1.241a13.623,13.623,0,0,1-1.765,2.229h.623c-.474-.578-.947-1.146-1.421-1.72-.264-.319-.524-.634-.778-.958-.12-.149-.324-.339-.354-.538v.234c0,.055-.155.084-.035.049a1.494,1.494,0,0,0,.155-.074l.274-.13c.195-.095.389-.2.578-.3a13.8,13.8,0,0,0,1.187-.732,15.017,15.017,0,0,0,2.164-1.794h-.623a6.84,6.84,0,0,1,1.217,1.561.439.439,0,1,0,.758-.444,7.646,7.646,0,0,0-1.351-1.74.452.452,0,0,0-.623,0,14.1,14.1,0,0,1-3.545,2.594,2.785,2.785,0,0,0-.858.5.728.728,0,0,0,0,.9,17.806,17.806,0,0,0,1.207,1.5l1.421,1.726a.443.443,0,0,0,.623,0,15.057,15.057,0,0,0,1.9-2.409c.274-.418.539-.848.8-1.275a2.382,2.382,0,0,0,.314-.709c.055-.244.11-.5.155-.742a.459.459,0,0,0-.309-.544.444.444,0,0,0-.534.31Z" transform="translate(-589.087 -10022.056)" fill="#334d82"/>
  <path id="パス_1678" data-name="パス 1678" d="M601.645,10053.816a21.085,21.085,0,0,0,2.927,4.064.445.445,0,0,0,.623,0c.848-1.043,1.745-2.045,2.543-3.122a1,1,0,0,0,.244-.663c-.03-.43-.444-.559-.773-.719a14.145,14.145,0,0,1-1.865-1.1,13.757,13.757,0,0,1-1.92-1.611.452.452,0,0,0-.623,0,7.757,7.757,0,0,0-1.4,1.815.443.443,0,0,0,.763.442,6.833,6.833,0,0,1,1.262-1.635H602.8a14.907,14.907,0,0,0,2.164,1.8c.374.253.758.5,1.152.712q.284.158.583.31l.269.13.165.074.05.03h0l-.06-.22c0,.115-.254.379-.334.5-.254.324-.5.639-.778.958-.474.573-.948,1.142-1.421,1.72h.623a19.478,19.478,0,0,1-2.787-3.883.441.441,0,0,0-.763.442Z" transform="translate(-581.961 -10022.056)" fill="#334d82"/>
  <path id="パス_1679" data-name="パス 1679" d="M582.951,10061.92c1.087-.414,2.134-.912,3.191-1.387s2.1-.928,3.151-1.386a.439.439,0,0,0-.444-.758q-1.541.664-3.072,1.351c-1,.449-1.995.934-3.062,1.327a.458.458,0,0,0-.309.543A.449.449,0,0,0,582.951,10061.92Z" transform="translate(-572.452 -10025.962)" fill="#334d82"/>
  <path id="パス_1680" data-name="パス 1680" d="M631.62,10057.61c1.566.663,3.122,1.361,4.677,2.054l2.224,1c.364.154.728.309,1.1.449a3.512,3.512,0,0,1,.962.5.444.444,0,0,0,.6-.16.458.458,0,0,0-.16-.6,9.3,9.3,0,0,0-2.024-.927q-1.127-.5-2.254-1c-1.561-.693-3.117-1.392-4.682-2.05a.455.455,0,0,0-.6.153.443.443,0,0,0,.16.6Z" transform="translate(-597.021 -10025.203)" fill="#334d82"/>
  <path id="パス_1681" data-name="パス 1681" d="M645.911,10065.318q-.539,3.4-1.047,6.8c-.334,2.264-.653,4.518-.843,6.8-.145,1.771-.264,3.541-.384,5.311a.444.444,0,1,0,.883,0c.179-2.736.324-5.484.673-8.212.294-2.278.668-4.667,1-6.981.18-1.156.359-2.309.544-3.465a.453.453,0,0,0-.309-.539.438.438,0,0,0-.539.3Z" transform="translate(-603.155 -10029.311)" fill="#334d82"/>
  <path id="パス_1682" data-name="パス 1682" d="M583.391,10082.667c.184,1.206.5,2.4.748,3.595.14.664.284,1.327.419,2,.045.2.085.409.125.613v.1c.025.114,0-.145,0,0s.05.383.07.573a21.343,21.343,0,0,1,.239,3.286.439.439,0,0,0,.878,0,20.754,20.754,0,0,0-.2-2.992c-.065-.523-.125-1.047-.229-1.565-.279-1.382-.588-2.753-.883-4.129-.115-.559-.249-1.122-.334-1.686a.432.432,0,0,0-.206-.265.427.427,0,0,0-.333-.039.443.443,0,0,0-.309.538Z" transform="translate(-572.936 -10037.898)" fill="#334d82"/>
  <path id="パス_1683" data-name="パス 1683" d="M601.309,10054.5c.224.923.529,1.826.828,2.729.424,1.256.873,2.492,1.331,3.754,1,2.753,2.054,5.485,3.112,8.229l1.346,3.49a.453.453,0,0,0,.539.309.443.443,0,0,0,.309-.543c-.893-2.318-1.8-4.633-2.683-6.98-1.022-2.684-2.034-5.376-2.992-8.094-.349-1.037-.708-2.079-.967-3.142a.44.44,0,0,0-.848.234Z" transform="translate(-581.914 -10023.758)" fill="#334d82"/>
  <path id="パス_1684" data-name="パス 1684" d="M616.222,10072.572c.773-2.04,1.5-4.1,2.184-6.158.913-2.684,1.805-5.371,2.608-8.084a36.661,36.661,0,0,0,1.042-4.058.44.44,0,0,0-.848-.235,34.161,34.161,0,0,1-.908,3.6c-.379,1.307-.783,2.6-1.2,3.9q-1.271,3.951-2.658,7.863c-.349,1-.7,1.966-1.067,2.942a.443.443,0,0,0,.3.543.457.457,0,0,0,.544-.309Z" transform="translate(-588.978 -10023.649)" fill="#334d82"/>
  <path id="パス_1685" data-name="パス 1685" d="M614,10091.488a12.206,12.206,0,0,0-.878,5.4c.15,2.18.239,4.354.389,6.533q.159,2.328.359,4.642a.453.453,0,0,0,.439.443.444.444,0,0,0,.439-.444c-.224-2.577-.414-5.155-.543-7.743-.05-1.022-.11-2.04-.175-3.062a11.659,11.659,0,0,1,.035-2.6,12.986,12.986,0,0,1,.783-2.931.434.434,0,0,0-.3-.539.449.449,0,0,0-.544.3Z" transform="translate(-587.845 -10042.427)" fill="#334d82"/>
  <path id="パス_1686" data-name="パス 1686" d="M619.616,10096.69a2.093,2.093,0,0,0-.394-.14,1.223,1.223,0,0,0-.538.025,1.454,1.454,0,0,0-.743.469,1.336,1.336,0,0,0-.1,1.615,1.661,1.661,0,0,0,1.421.753,1.278,1.278,0,0,0,1.2-.948,1.589,1.589,0,0,0-.843-1.773.459.459,0,0,0-.6.158.444.444,0,0,0,.159.6,1.216,1.216,0,0,1,.13.064l.06.041c.05.035-.085-.075,0,0l.095.1c.05.049,0,0,0-.025l.05.07c0,.045.05.084.07.129a.275.275,0,0,1,.035.065h0s.035.121.04.141h0a.564.564,0,0,0,0,.095s0,.109,0,.04v.045s-.05.119-.04.135.045-.1,0-.03l-.03.056-.035.055c-.045.069.07-.075,0,0l-.085.08c.06-.07.065-.045.03-.025l-.06.035h-.04c.07-.055.08-.029.03,0l-.125.035h-.174l-.145-.035h-.065c-.06,0,.095.05,0,0l-.11-.061-.06-.039h0l-.125-.115-.035-.045h0c-.03-.035-.025,0,0,.025,0-.025-.045-.07-.06-.1l-.055-.09c-.04-.074.035.105,0,0s0-.035,0-.055a.138.138,0,0,0,0-.044v-.19a.461.461,0,0,0,.025-.076s-.045.091,0,0a.2.2,0,0,1,0-.045l.03-.05-.025.035a1.317,1.317,0,0,1,.11-.115l.045-.035h.035l.065-.034h0s.155-.045.165-.05-.025,0-.03,0h.09c.08,0-.1-.029,0,0h.085c.04,0,.214.084.075,0a.5.5,0,0,0,.339.045.444.444,0,0,0,.1-.809Z" transform="translate(-590.108 -10045.115)" fill="#334d82"/>
  <path id="パス_1687" data-name="パス 1687" d="M643.64,10103.15c0,1.057.07,2.119.115,3.182q.1,2.493.219,4.946l.12,2.6c.025.568.9.568.878,0-.135-3.1-.289-6.208-.409-9.31,0-.474-.035-.947-.04-1.421a.444.444,0,0,0-.883,0Z" transform="translate(-603.157 -10048.234)" fill="#334d82"/>
  <path id="パス_1688" data-name="パス 1688" d="M647.833,10064.588c.424.225.883.384,1.286.648a5.892,5.892,0,0,1,1.042.947,4.929,4.929,0,0,1,1.087,1.9,9.226,9.226,0,0,1,.314,2.243c.055,1.077.115,2.159.17,3.241.239,4.408.5,8.816.748,13.225q.214,3.773.414,7.549c.03.563.913.568.883,0q-.359-6.844-.768-13.687-.194-3.366-.374-6.742-.09-1.626-.174-3.25a13.186,13.186,0,0,0-.289-2.533,5.906,5.906,0,0,0-1.232-2.389,7.152,7.152,0,0,0-1.162-1.1,9.393,9.393,0,0,0-1.5-.812c-.5-.266-.947.5-.444.762Z" transform="translate(-605.151 -10028.69)" fill="#334d82"/>
  <path id="パス_1689" data-name="パス 1689" d="M569.077,10060.352a7,7,0,0,0-.823-2.693c-.185-.394-.339-.793-.5-1.191s-.364-.843-.5-1.271a3.38,3.38,0,0,1-.289-1.287,3.045,3.045,0,0,1,.419-1.315,25.1,25.1,0,0,1,1.77-2.608,1.824,1.824,0,0,1,1.092-.9c.394-.063.6.26.569.619a.444.444,0,0,0,.748.31.638.638,0,0,1,.813,0c.234.16.239.59.18.863a.443.443,0,0,0,.648.5c.294-.184.573-.273.863-.023a.643.643,0,0,1,.194.728.444.444,0,0,0,.539.544.237.237,0,0,1,.1,0h.1c-.025,0,.07.074.09.1a.742.742,0,0,1,.09.148.874.874,0,0,1-.159.774,4.675,4.675,0,0,0-.923,1.814,3.882,3.882,0,0,0,.5,1.874,1.778,1.778,0,0,1,.125.883,1.917,1.917,0,0,1-.394.838c-.214.294-.374.633-.6.922a2.307,2.307,0,0,0-.5,1.037.459.459,0,0,0,.309.544.444.444,0,0,0,.539-.31,1.887,1.887,0,0,1,.125-.443,3.98,3.98,0,0,1,.344-.5c.209-.3.384-.624.6-.923a2.493,2.493,0,0,0,.319-2.239c-.214-.623-.693-1.227-.434-1.91s.937-1.2,1.042-1.994a1.492,1.492,0,0,0-.379-1.186,1.148,1.148,0,0,0-1.152-.32l.544.539a1.526,1.526,0,0,0-2.354-1.7l.648.5a1.7,1.7,0,0,0-.583-1.854,1.5,1.5,0,0,0-1.875.13l.748.309a1.431,1.431,0,0,0-.643-1.316,1.563,1.563,0,0,0-1.536.035,3.493,3.493,0,0,0-1.192,1.223c-.354.5-.708,1-1.057,1.5a4.874,4.874,0,0,0-1.167,3.077,10.664,10.664,0,0,0,1,2.912,10.475,10.475,0,0,1,1.132,3.23c0,.563.9.563.878,0Z" transform="translate(-564.272 -10020.863)" fill="#334d82"/>
  <path id="パス_1690" data-name="パス 1690" d="M571.777,10053.889a19,19,0,0,1,1.242-1.781l.319-.418c.05-.07.1-.141.15-.21s-.055.065,0,0l.06-.064a2.275,2.275,0,0,1,.628-.5.44.44,0,1,0-.449-.758,3.5,3.5,0,0,0-.763.589,8.706,8.706,0,0,0-.648.833,20.9,20.9,0,0,0-1.306,1.869.439.439,0,0,0,.758.443Z" transform="translate(-566.713 -10021.835)" fill="#334d82"/>
  <path id="パス_1691" data-name="パス 1691" d="M576.179,10056.04a12.288,12.288,0,0,1,.793-1.227l.1-.134h0l.055-.07.229-.284c.165-.189.329-.369.5-.548a.439.439,0,1,0-.618-.623h0a11.648,11.648,0,0,0-1.84,2.453.444.444,0,0,0,.763.443Z" transform="translate(-568.926 -10023.304)" fill="#334d82"/>
  <path id="パス_1692" data-name="パス 1692" d="M579.832,10058.023l.324-.5.16-.23.085-.114a.6.6,0,0,1,.05-.065s.065-.074,0,0c.13-.139.234-.293.364-.434a4.178,4.178,0,0,1,.434-.4.444.444,0,0,0,0-.624.452.452,0,0,0-.623,0,8.1,8.1,0,0,0-1.546,1.906.439.439,0,0,0,.758.443Z" transform="translate(-570.759 -10024.558)" fill="#334d82"/>
  <path id="パス_1693" data-name="パス 1693" d="M577.639,10050.655h.982a3.973,3.973,0,0,1,1.052.284l.09.05s.115.079.04,0a.394.394,0,0,1,.07.064s.09.095.055.056l.035.049.06.1c.045.08,0-.049,0,.045l.03.09a.735.735,0,0,1,0,.09h0v.115h0a1.908,1.908,0,0,1-.17.463.449.449,0,0,0,.159.6.438.438,0,0,0,.6-.16,2.035,2.035,0,0,0,.269-1.3,1.583,1.583,0,0,0-.683-1,2.543,2.543,0,0,0-.633-.273,3.905,3.905,0,0,0-.648-.16,7.841,7.841,0,0,0-1.361-.09.443.443,0,0,0,0,.881Z" transform="translate(-569.842 -10021.624)" fill="#334d82"/>
  <path id="パス_1694" data-name="パス 1694" d="M575.407,10075.64c.184-.8.229-1.63.374-2.433a.449.449,0,0,0-.3-.544c-.593-.1-1.2-.169-1.79-.255l-3.161-.423-1.446-.185a.439.439,0,0,0-.424.324c-.179.773-.324,1.551-.5,2.324-.13.548.718.783.848.234.184-.773.334-1.552.5-2.324l-.424.324c1.835.219,3.64.5,5.485.729.229.034.464.059.693.1l-.309-.543c-.145.809-.194,1.636-.379,2.434-.125.553.723.787.848.234Z" transform="translate(-565.306 -10032.716)" fill="#334d82"/>
  <path id="パス_1695" data-name="パス 1695" d="M574.01,10088.566a10.311,10.311,0,0,1-4.049,3.127,6.963,6.963,0,0,1-2.264.5,6.016,6.016,0,0,1-1.077-.039c-.394-.076-.793-.17-1.182-.279a2.635,2.635,0,0,1-1.586-1.3,4.254,4.254,0,0,1-.5-2.494,39.378,39.378,0,0,1,.818-5.554c.4-1.865.942-3.7,1.5-5.521l-.424.324c2.413.24,4.8.653,7.2,1l-.324-.424c-.195,1.79-.4,3.59-.658,5.346-.08.553-.16,1.106-.269,1.655a.453.453,0,0,0,.309.538.438.438,0,0,0,.539-.3c.424-2.164.638-4.372.883-6.557l.075-.678a.438.438,0,0,0-.319-.424c-2.493-.375-4.942-.8-7.43-1.053a.45.45,0,0,0-.424.324c-.5,1.705-1.027,3.41-1.416,5.146a44.546,44.546,0,0,0-.907,5.9,5.447,5.447,0,0,0,.4,2.832,3.888,3.888,0,0,0,1.646,1.814,5.534,5.534,0,0,0,1.316.434,6.81,6.81,0,0,0,1.272.175,7.266,7.266,0,0,0,2.443-.329,10.734,10.734,0,0,0,5.051-3.57.455.455,0,0,0,0-.624.439.439,0,0,0-.618,0Z" transform="translate(-562.454 -10035.037)" fill="#334d82"/>
  <path id="パス_1696" data-name="パス 1696" d="M586.212,10113.785c.174-3.127.379-6.248.578-9.37l.085-1.347a.439.439,0,0,0-.878,0h0q-.259,4.034-.5,8.068c-.055.883-.11,1.766-.16,2.647-.03.563.848.563.883,0Z" transform="translate(-573.927 -10048.173)" fill="#334d82"/>
  <path id="パス_1697" data-name="パス 1697" d="M596.988,10053.8a10.221,10.221,0,0,0-1.2.889c-.5.408-1,.826-1.446,1.266a10.9,10.9,0,0,0-1.137,1.177,1.6,1.6,0,0,0-.314.5.7.7,0,0,0,.194.648,18.541,18.541,0,0,0,1.7,2.134v-.618a8.49,8.49,0,0,0-1.082,1.092,1.108,1.108,0,0,0-.334.863,2.273,2.273,0,0,0,.279.583c.444.772.952,1.5,1.451,2.243,1.436,2.1,2.922,4.164,4.488,6.179a19.181,19.181,0,0,0,1.835,2.2c.4.395,1.027-.225.623-.619a16.555,16.555,0,0,1-1.5-1.754c-.314-.4-.643-.833-1-1.287s-.758-1-1.127-1.525c-1.316-1.8-2.643-3.625-3.82-5.525-.085-.145-.175-.284-.254-.429l-.095-.175c0-.035-.075-.174-.04-.084s0,0,0-.035a1.35,1.35,0,0,1,0,.164s.04-.055,0,0c0-.035.05-.09.07-.125a6.1,6.1,0,0,1,1.117-1.146.448.448,0,0,0,0-.618,15.485,15.485,0,0,1-1.381-1.705l-.254-.345s-.09-.1-.085-.119a1.085,1.085,0,0,1,.05.184c-.005-.01,0,.13,0,.07s-.055.08,0,.029l.045-.08.06-.089c.065-.095-.04.044.04-.05a18.34,18.34,0,0,1,2.413-2.289l.364-.294c.055-.045.11-.089.169-.13s-.045.035,0,0l.09-.069a5.419,5.419,0,0,1,.5-.354.439.439,0,0,0-.444-.758Z" transform="translate(-577.707 -10023.662)" fill="#334d82"/>
  <path id="パス_1698" data-name="パス 1698" d="M624.372,10054.391c.155.09.3.194.454.3l.264.194.274.214c.5.379.967.773,1.436,1.178a14.779,14.779,0,0,1,1.2,1.126l.19.21c.08.095-.03-.055,0,0a.95.95,0,0,0,.06.09c0,.039.04.119,0-.025.03.1,0-.069,0-.109s.095-.16,0-.075-.04.05-.095.12c-.5.652-1.087,1.281-1.661,1.895a.443.443,0,0,0,0,.623,9.837,9.837,0,0,1,1.062,1.033,1.368,1.368,0,0,1,.13.169l.07.1h0v-.039c0-.121.03-.125,0-.076a.613.613,0,0,0,0,.09c-.045.135.04-.09,0,.029a3.023,3.023,0,0,1-.16.34c-.4.783-.843,1.545-1.282,2.309q-1.81,3.117-3.745,6.163c-.274.435-.553.868-.843,1.292-.1.164-.214.324-.329.5l-.135.189-.055.075c-.08.109.055-.069,0,0a.454.454,0,0,0,0,.623.443.443,0,0,0,.623,0,19.919,19.919,0,0,0,1.312-1.93c.653-1,1.286-2.034,1.915-3.062,1.132-1.859,2.294-3.725,3.281-5.664a3.351,3.351,0,0,0,.314-.724,1.073,1.073,0,0,0-.324-.868,8.869,8.869,0,0,0-1.187-1.177v.624c.554-.589,1.092-1.2,1.6-1.82.194-.24.464-.5.389-.818a1.236,1.236,0,0,0-.279-.5,9.276,9.276,0,0,0-1.087-1.087c-.5-.449-1-.878-1.546-1.3a12.224,12.224,0,0,0-1.391-1.022.444.444,0,0,0-.444.764Z" transform="translate(-591.847 -10023.564)" fill="#334d82"/>
  <path id="パス_1699" data-name="パス 1699" d="M611.788,10040.545a3.724,3.724,0,0,0,4.343,0c.4-.394-.219-1-.623-.623,0,0-.11.1-.055.055s-.065.045-.095.061a1.077,1.077,0,0,1-.149.084l-.1.045c.06-.024,0,0-.03,0a3.181,3.181,0,0,1-1.122.186,3.084,3.084,0,0,1-1.1-.176h-.05l-.085-.039a.977.977,0,0,1-.165-.09l-.12-.08c.11.075,0,0-.03-.035-.409-.394-1.027.225-.623.623Z" transform="translate(-587.122 -10016.675)" fill="#334d82"/>
  <path id="パス_1700" data-name="パス 1700" d="M615.772,10032.553q.127.478.209.963v-.12a.41.41,0,0,1,0,.134v-.119a.139.139,0,0,1,0,.061l.045-.105a.162.162,0,0,1,0,.041l.07-.091-.03.03.085-.07-.075.04.1-.045a.691.691,0,0,1-.125.04h.115a.612.612,0,0,1-.12,0h.115l-.135-.025a.5.5,0,0,0-.339.045.439.439,0,0,0-.155.6h0a.412.412,0,0,0,.259.2c.1,0,.194.041.294.045a.909.909,0,0,0,.429-.1.6.6,0,0,0,.339-.4,1,1,0,0,0,0-.438c-.05-.31-.12-.613-.2-.918a.444.444,0,0,0-.853.234Z" transform="translate(-589.037 -10012.776)" fill="#334d82"/>
  <path id="パス_1701" data-name="パス 1701" d="M605.861,10026.936c-.155.5-.055,1.681.908,1.775,1.272,0,1.341-1.422.913-2.084a1,1,0,0,0-1.82.309Z" transform="translate(-584.187 -10009.832)" fill="#334d82"/>
  <path id="パス_1702" data-name="パス 1702" d="M624.211,10026.936c.155.5.055,1.681-.908,1.775-1.276,0-1.341-1.422-.912-2.084a1,1,0,0,1,1.82.309Z" transform="translate(-592.384 -10009.832)" fill="#334d82"/>
</svg>
