<svg id="グループ_73" data-name="グループ 73" xmlns="http://www.w3.org/2000/svg" width="45.723" height="67.073" viewBox="0 0 45.723 67.073">
  <path id="パス_1562" data-name="パス 1562" d="M642.652,8722.979a1,1,0,0,1,1.426.134,1.576,1.576,0,0,1,.224.889,4.856,4.856,0,0,1-.06,1.076,5.175,5.175,0,0,1-.718,1.95c-.284.454-.758,1.062-1.356.9a.4.4,0,0,0-.215.777c1.5.41,2.448-1.352,2.842-2.492a6.1,6.1,0,0,0,.314-2.16,2.063,2.063,0,0,0-.873-1.834,1.848,1.848,0,0,0-2.154.209.4.4,0,1,0,.568.568Z" transform="translate(-609.191 -8705.601)" fill="#334d82"/>
  <path id="パス_1563" data-name="パス 1563" d="M635.727,8731.953a4.961,4.961,0,0,1-.239,1.267c-.045.14-.09.278-.14.419a.153.153,0,0,1-.04.125c0,.016,0,.032,0,.049-.03.075.04-.095,0,0a10,10,0,0,1-.648,1.2,11.825,11.825,0,0,1-2.548,2.991,4.759,4.759,0,0,1-1.9,1c-.5.115-.294.893.214.777a7.068,7.068,0,0,0,3.57-2.493,12.674,12.674,0,0,0,1.995-2.991,6.379,6.379,0,0,0,.578-2.324.405.405,0,0,0-.808,0Z" transform="translate(-603.298 -8710.432)" fill="#334d82"/>
  <path id="パス_1564" data-name="パス 1564" d="M601.649,8721.734a1.863,1.863,0,0,0-1.995-.3,1.89,1.89,0,0,0-1,1.7,5.8,5.8,0,0,0,1.257,4.145,2.105,2.105,0,0,0,2.024.877c.5-.119.294-.893-.214-.773s-1.1-.458-1.386-.862a5.264,5.264,0,0,1-.893-3.087,1.825,1.825,0,0,1,.209-1,1,1,0,0,1,1.421-.175h0a.414.414,0,0,0,.569,0,.4.4,0,0,0,0-.528Z" transform="translate(-587.61 -8705.254)" fill="#334d82"/>
  <path id="パス_1565" data-name="パス 1565" d="M603.77,8729.9a11.471,11.471,0,0,0,4.986,8.158,6.729,6.729,0,0,0,2.6,1,.4.4,0,1,0,.214-.777A7.19,7.19,0,0,1,607.53,8736a10.972,10.972,0,0,1-2.538-4.238c-.11-.339-.2-.687-.279-1.037-.035-.15-.065-.3-.09-.459a.478.478,0,0,0-.04-.229.428.428,0,0,0,0-.079h0a.4.4,0,0,0,0-.076.414.414,0,0,0-.4-.4.408.408,0,0,0-.4.4Z" transform="translate(-590.185 -8709.371)" fill="#334d82"/>
  <path id="パス_1566" data-name="パス 1566" d="M615.62,8706.631c-.883.629-1.7,1.313-2.553,1.955-.339.254-.688.5-1.042.713-.08.05.09-.025,0,0s.13,0,.165,0,.239.109.209.149v-.03s-.07-.159,0-.029c-.085-.214-.16-.438-.229-.663s-.18-.583-.259-.882c-.035-.12-.07-.244-.1-.369l-.03-.12h0a.409.409,0,0,0-.688-.284,53.724,53.724,0,0,0-3.9,3.72q-1.586,1.63-3.107,3.325l-.419.465a1.24,1.24,0,0,0-.244.339c-.125.349.3.618.593.458l.09-.069c.359-.374-.209-.948-.573-.573,0,.029,0,0,.075-.056l.593.454c0,.045-.16.239-.06.129l.1-.119.364-.4c.419-.463.843-.928,1.266-1.386,1.2-1.292,2.413-2.563,3.675-3.79.678-.663,1.371-1.316,2.1-1.935l-.688-.284a7.312,7.312,0,0,0,.364,1.416c.085.265.165.5.264.783s.17.459.414.5c.369.1.818-.313,1.087-.5.529-.379,1.042-.777,1.556-1.178s.888-.7,1.386-1.062a.409.409,0,0,0,.14-.5.4.4,0,0,0-.549-.145Z" transform="translate(-589.997 -8697.899)" fill="#334d82"/>
  <path id="パス_1567" data-name="パス 1567" d="M631.486,8707.986a4.86,4.86,0,0,1,2.638,2.024,13.116,13.116,0,0,1,1.79,3.435,10.459,10.459,0,0,1,.539,2.4.419.419,0,0,0,.4.4.4.4,0,0,0,.4-.4,12.458,12.458,0,0,0-1.351-4.463,10.348,10.348,0,0,0-2.4-3.246,4.717,4.717,0,0,0-1.81-.934.4.4,0,0,0-.214.777Z" transform="translate(-603.939 -8698.197)" fill="#334d82"/>
  <path id="パス_1568" data-name="パス 1568" d="M618.745,8693.1a6.383,6.383,0,0,0-3.411-2.9,12.728,12.728,0,0,0-4.782-1.057,8.561,8.561,0,0,0-1.341.089,3.1,3.1,0,0,0-1.271.4.41.41,0,0,0-.145.555c.314.448,1,.6,1.446.807l.2-.752a10.914,10.914,0,0,0-2.812.319,9.854,9.854,0,0,0-2.493.937,9.392,9.392,0,0,0-1.8,1.332,3.46,3.46,0,0,0-.753.872.444.444,0,0,0,.065.528.763.763,0,0,0,.5.169q.447.007.893-.028l-.289-.689a9.7,9.7,0,0,0-3.037,4.732,11.2,11.2,0,0,0-.369,2.26,16.2,16.2,0,0,0,0,2.458,6.418,6.418,0,0,0,.449,2.229.4.4,0,0,0,.549.144.409.409,0,0,0,.145-.554c-.045-.1,0,.05,0,0a.615.615,0,0,1-.035-.09,1.6,1.6,0,0,1-.055-.169,4.512,4.512,0,0,1-.11-.449,7.245,7.245,0,0,1-.12-.927,16.484,16.484,0,0,1,0-2.324,11.524,11.524,0,0,1,.289-2.06,9.121,9.121,0,0,1,2.907-4.667.408.408,0,0,0-.284-.687,2.55,2.55,0,0,0-.5.029h-.439c-.065,0-.045,0,.17.139l.055.205c0,.04-.08.205,0,.135l.055-.08c-.045.055,0,0,.025-.035l.07-.085.165-.18a7.7,7.7,0,0,1,1-.888,8.344,8.344,0,0,1,1.606-.947,10.309,10.309,0,0,1,1.875-.574,9.837,9.837,0,0,1,2.349-.229.409.409,0,0,0,.2-.754c-.219-.1-.444-.184-.658-.278-.12-.056-.244-.11-.359-.175l-.145-.084h-.03c.025,0,0,0,.035.035l-.145.553a3.894,3.894,0,0,1,2.029-.383,10.516,10.516,0,0,1,2.134.215,10.409,10.409,0,0,1,4.179,1.724,4.208,4.208,0,0,1,1.356,1.616.407.407,0,0,0,.553.145.418.418,0,0,0,.145-.554Z" transform="translate(-587.942 -8689.149)" fill="#334d82"/>
  <path id="パス_1569" data-name="パス 1569" d="M639.505,8699.452a4.484,4.484,0,0,1,1.7,1.521,7.451,7.451,0,0,1,1.122,2.148,14.47,14.47,0,0,1,.474,4.938,9.722,9.722,0,0,1-.434,2.493c-.169.5.608.7.773.214a9.653,9.653,0,0,0,.439-2.378,16.8,16.8,0,0,0,0-2.743,13.56,13.56,0,0,0-.419-2.572,7.824,7.824,0,0,0-1.107-2.309,5.565,5.565,0,0,0-2.129-2.024.418.418,0,0,0-.553.145.409.409,0,0,0,.145.554Z" transform="translate(-608.004 -8693.932)" fill="#334d82"/>
  <path id="パス_1570" data-name="パス 1570" d="M608.3,8750.5l1.531-.707c.16-.064.314-.135.469-.215a1.769,1.769,0,0,0,.578-.5,2.6,2.6,0,0,0,.369-1.167c.1-.659.214-1.312.259-2a.4.4,0,0,0-.808,0c-.04.584-.135,1.157-.224,1.74a2.315,2.315,0,0,1-.274,1,2.046,2.046,0,0,1-.823.5c-.5.225-1,.454-1.5.684a.4.4,0,0,0-.145.553.413.413,0,0,0,.549.146Z" transform="translate(-592.144 -8717.406)" fill="#334d82"/>
  <path id="パス_1571" data-name="パス 1571" d="M636.665,8749.578l-1.5-.707a1.853,1.853,0,0,1-.848-.539,3.068,3.068,0,0,1-.259-1.042,11.61,11.61,0,0,1-.219-1.9.4.4,0,0,0-.8,0,12.857,12.857,0,0,0,.239,2.09,3.421,3.421,0,0,0,.344,1.256,1.737,1.737,0,0,0,.534.539,2.528,2.528,0,0,0,.419.209l.065.029c.09.035.085.029,0,0l.065.029,1.576.744a.415.415,0,0,0,.548-.145.409.409,0,0,0-.144-.555Z" transform="translate(-604.859 -8717.166)" fill="#334d82"/>
  <path id="パス_1572" data-name="パス 1572" d="M595.958,8822.853h27.171a.4.4,0,0,0,0-.8H595.958a.4.4,0,0,0,0,.8Z" transform="translate(-586.087 -8755.779)" fill="#334d82"/>
  <path id="パス_1573" data-name="パス 1573" d="M596.368,8820.433c.035-.653.095-1.3.15-1.954a.4.4,0,1,0-.8,0c-.055.652-.115,1.3-.155,1.954a.4.4,0,1,0,.808,0Z" transform="translate(-586.068 -8753.765)" fill="#334d82"/>
  <path id="パス_1574" data-name="パス 1574" d="M592.715,8772.09c.414,3.316.868,6.627,1.271,9.973q.165,1.292.314,2.588a.413.413,0,0,0,.4.4.392.392,0,0,0,.285-.115.4.4,0,0,0,.119-.283c-.409-3.426-.818-6.852-1.286-10.268-.1-.757-.209-1.5-.3-2.268a.4.4,0,1,0-.808,0Z" transform="translate(-584.64 -8730.542)" fill="#334d82"/>
  <path id="パス_1575" data-name="パス 1575" d="M649.83,8817.724c.07.783.095,1.571.125,2.354a.4.4,0,0,0,.808,0c-.03-.783-.06-1.571-.125-2.354a.4.4,0,0,0-.808,0Z" transform="translate(-613.277 -8753.409)" fill="#334d82"/>
  <path id="パス_1576" data-name="パス 1576" d="M650.5,8782.244q.384-3.062.788-6.118.354-2.7.708-5.4c.06-.5.125-.952.184-1.431a.409.409,0,0,0-.4-.4.413.413,0,0,0-.4.4c-.14,1.156-.3,2.309-.449,3.465q-.4,3.067-.8,6.133-.214,1.676-.424,3.352a.4.4,0,0,0,.4.4A.408.408,0,0,0,650.5,8782.244Z" transform="translate(-613.212 -8729.128)" fill="#334d82"/>
  <path id="パス_1577" data-name="パス 1577" d="M605.673,8799.168a7.546,7.546,0,0,0-1.247,1.5c-.289.444-.539.918-.833,1.356a.4.4,0,1,0,.7.409c.284-.434.529-.888.808-1.321a6.6,6.6,0,0,1,1.142-1.381.4.4,0,0,0-.569-.568Z" transform="translate(-590.069 -8744.256)" fill="#334d82"/>
  <path id="パス_1578" data-name="パス 1578" d="M611.616,8793.01a3.123,3.123,0,0,1-1.6,1.964l-.384.215-.19.09h0c-.174.069-.354.13-.534.188a11.744,11.744,0,0,1-1.232.355c-.5.109-.294.887.209.777,1.865-.4,4.044-1.342,4.518-3.387.115-.5-.663-.723-.778-.214Z" transform="translate(-592.002 -8741.07)" fill="#334d82"/>
  <path id="パス_1579" data-name="パス 1579" d="M617.009,8781.6a15.6,15.6,0,0,0,1.556-.828.405.405,0,1,0-.409-.7h0a13.983,13.983,0,0,1-1.556.827.41.41,0,0,0-.145.555.419.419,0,0,0,.554.144Z" transform="translate(-596.518 -8734.706)" fill="#334d82"/>
  <path id="パス_1580" data-name="パス 1580" d="M613.192,8777.582c.623-.234,1.247-.459,1.85-.738.279-.125.553-.264.823-.408a3.464,3.464,0,0,1,1.092-.469.4.4,0,0,0-.214-.778,3.55,3.55,0,0,0-1.127.464c-.294.159-.593.318-.9.458-.549.259-1.137.47-1.735.693a.419.419,0,0,0-.284.5.413.413,0,0,0,.5.283Z" transform="translate(-594.655 -8732.28)" fill="#334d82"/>
  <path id="パス_1581" data-name="パス 1581" d="M611.075,8783.2a5.63,5.63,0,0,1,1.182,1.726,3.894,3.894,0,0,1-.07,2.528.4.4,0,0,0,.778.215,4.727,4.727,0,0,0,.06-2.992,6.463,6.463,0,0,0-1.376-2.06c-.364-.374-.937.2-.568.567Z" transform="translate(-593.79 -8735.949)" fill="#334d82"/>
  <path id="パス_1582" data-name="パス 1582" d="M608.047,8785.709a5.751,5.751,0,0,1,1,1.387,1.551,1.551,0,0,1,.07.783c-.05.363-.115.728-.2,1.082a.4.4,0,1,0,.778.213,4.152,4.152,0,0,0,.12-2.322,6.5,6.5,0,0,0-1.177-1.711.4.4,0,0,0-.687.174.4.4,0,0,0,.114.395Z" transform="translate(-592.273 -8737.211)" fill="#334d82"/>
  <path id="パス_1583" data-name="パス 1583" d="M600.757,8783.784a2.421,2.421,0,0,1,.593,1.106,3.2,3.2,0,0,0,.174,1.258,1.174,1.174,0,0,0,1.072.5,1.348,1.348,0,0,0,1.057-.628h-.693a1.347,1.347,0,0,0,1.257.763,1.57,1.57,0,0,0,1.237-1l-.733-.094a1.123,1.123,0,0,0,1,.688,1.3,1.3,0,0,0,1.112-.414,2.6,2.6,0,0,0,.5-1.391,7.1,7.1,0,0,0,.145-1.557,4.85,4.85,0,0,0-.214-1.391,7.811,7.811,0,0,0-.768-1.387,4.812,4.812,0,0,0-.818-1,2.121,2.121,0,0,0-1.1-.627,3.239,3.239,0,0,0-1.331.145,2.714,2.714,0,0,0-1.2.563l.18-.1a2.251,2.251,0,0,0-1.291.807l.174-.1a2.3,2.3,0,0,0-.808.469,3.7,3.7,0,0,0-.588.559,6.811,6.811,0,0,0-.843,1.746c-.2.527-.424,1.052-.618,1.58a8,8,0,0,1-.309.838,3.362,3.362,0,0,1-.434.652c-.409.5-.878.934-1.321,1.4-.359.374.209.947.568.568a20.749,20.749,0,0,0,1.436-1.535,3.7,3.7,0,0,0,.548-.9c.14-.363.259-.742.4-1.106.259-.668.5-1.342.793-2a2.681,2.681,0,0,1,.538-.882,2.781,2.781,0,0,1,.763-.583,1.08,1.08,0,0,0,.19-.07,1.007,1.007,0,0,0,.214-.219,1.945,1.945,0,0,1,.439-.314,1.786,1.786,0,0,1,.344-.125.683.683,0,0,0,.244-.154c-.055.045.09-.05.12-.064a3.7,3.7,0,0,1,.828-.285c.13-.035.259-.06.389-.084h.374a1.058,1.058,0,0,1,.658.334,3.62,3.62,0,0,1,.648.713c.219.329.429.663.628,1a2.593,2.593,0,0,1,.324.957,6.765,6.765,0,0,1-.194,2.608.7.7,0,0,1-.5.594c.09-.045.075,0,0,0h-.11l-.125-.029a.557.557,0,0,1-.145-.065s-.045-.034-.035,0c-.1-.294-.583-.434-.738-.095-.11.24-.279.549-.568.6s-.394-.149-.539-.369a.409.409,0,0,0-.558-.134.429.429,0,0,0-.135.134.542.542,0,0,1-.5.229c-.289-.045-.279-.27-.284-.534a2.6,2.6,0,0,0-.145-1,4.317,4.317,0,0,0-.688-1.1.405.405,0,0,0-.568,0,.414.414,0,0,0,0,.568Z" transform="translate(-586.324 -8733.994)" fill="#334d82"/>
  <path id="パス_1584" data-name="パス 1584" d="M624.255,8781.025l-4.069-.588c-.568-.086-1.247-.09-1.626-.6a1.243,1.243,0,0,1-.229-.768v-.064h0a.219.219,0,0,0,0-.055l.08-.564.708-4.861.459-3.156.5-3.631c.085-.578.16-1.156.249-1.729a1.237,1.237,0,0,1,.813-1,1.026,1.026,0,0,1,.359-.064h.329l4.488.647,1.661.239a1.318,1.318,0,0,1,.883.469,1.207,1.207,0,0,1,.249.709v.174h0v.041q-.279,1.884-.544,3.779l-.633,4.348-.035.26a.4.4,0,1,0,.778.214l.5-3.45.668-4.633a2.211,2.211,0,0,1,.055-.35,2.049,2.049,0,0,0-.5-1.71,2.671,2.671,0,0,0-1.77-.7l-4.912-.708a3.734,3.734,0,0,0-1.8-.04,2.026,2.026,0,0,0-1.3,1.5c-.035.174-.055.354-.08.528l-.613,4.229c-.14,1-.284,1.965-.424,2.946l-.718,4.946-.209,1.441a2.025,2.025,0,0,0,1.67,2.328h0c1.451.22,2.912.424,4.368.633l.439.065a.426.426,0,1,0,.2-.827Z" transform="translate(-597.091 -8726.249)" fill="#334d82"/>
  <path id="パス_1585" data-name="パス 1585" d="M627.229,8767.263l-1.252-.185a.442.442,0,0,0-.309.04.4.4,0,0,0-.144.554h0a.384.384,0,0,0,.239.184l1.252.181a.441.441,0,0,0,.309-.04.405.405,0,0,0,.145-.549h0a.379.379,0,0,0-.239-.184Z" transform="translate(-601.063 -8728.214)" fill="#334d82"/>
  <path id="パス_1586" data-name="パス 1586" d="M631.17,8782.821c-1.271-.673-2.493-1.416-3.73-2.164-.878-.538-1.995-1.44-3.082-1.052a1.258,1.258,0,0,0-.793.832,1.363,1.363,0,0,0,.314,1.3l.5-.633a2.114,2.114,0,0,0-1.561-.385,1.167,1.167,0,0,0-.808.928c-.209,1,.738,1.626,1.5,2.06l.4-.7a1.1,1.1,0,0,0-1.655.629,1.253,1.253,0,0,0,.075,1,2.635,2.635,0,0,0,.743.764.4.4,0,0,0,.574-.568.717.717,0,0,0-1,0,1.241,1.241,0,0,0-.5.9,1.7,1.7,0,0,0,.449,1.171,11.624,11.624,0,0,0,.828.913,15.423,15.423,0,0,0,4.273,2.992,17.047,17.047,0,0,0,2.683,1,.4.4,0,0,0,.214-.777,14.869,14.869,0,0,1-7.2-4.457c-.214-.244-.5-.539-.439-.9a.429.429,0,0,1,.125-.2c.03-.033.095-.074.1-.084s0,0,.03,0-.249-.129-.16-.029l.573-.568c-.274-.22-.7-.5-.648-.838s.259-.408.5-.264a.4.4,0,0,0,.409-.7,4.094,4.094,0,0,1-.948-.707.406.406,0,0,1-.075-.105.913.913,0,0,1-.055-.1h0c0-.035-.035-.18-.03-.084a.856.856,0,0,1,0-.16v-.07a.852.852,0,0,1,.055-.139.227.227,0,0,1,.075-.1.251.251,0,0,1,.08-.045.6.6,0,0,1,.364,0,2.372,2.372,0,0,1,.593.273c.414.249.768-.294.5-.633a.53.53,0,0,1-.055-.624.325.325,0,0,1,.169-.154.864.864,0,0,1,.369-.055,2.29,2.29,0,0,1,1.132.43c.932.563,1.855,1.137,2.792,1.689.628.364,1.262.729,1.9,1.066.459.24.868-.453.4-.7Z" transform="translate(-599.315 -8734.453)" fill="#334d82"/>
  <path id="パス_1587" data-name="パス 1587" d="M631.924,8786.275c-1.675-1-3.316-2.089-4.957-3.156-.284-.184-.568-.369-.848-.559-.429-.289-.833.41-.4.7,1.526,1.031,3.092,1.994,4.647,2.991.384.239.768.5,1.157.718a.4.4,0,0,0,.4-.7Z" transform="translate(-601.096 -8735.947)" fill="#334d82"/>
  <path id="パス_1588" data-name="パス 1588" d="M629.642,8789.31c-1.6-1-3.171-2.034-4.737-3.077-.434-.284-.838.414-.409.7,1.571,1.041,3.141,2.078,4.737,3.076C629.677,8790.281,630.081,8789.574,629.642,8789.31Z" transform="translate(-600.484 -8737.789)" fill="#334d82"/>
  <path id="パス_1589" data-name="パス 1589" d="M628.014,8792.461a27.92,27.92,0,0,1-3.536-2.523.414.414,0,0,0-.568,0,.4.4,0,0,0,0,.568,28.852,28.852,0,0,0,3.7,2.652.4.4,0,0,0,.4-.7Z" transform="translate(-600.223 -8739.623)" fill="#334d82"/>
  <path id="パス_1590" data-name="パス 1590" d="M640.35,8782.818a3.839,3.839,0,0,1,1.187,1.168,8.21,8.21,0,0,1,.912,1.57,14.71,14.71,0,0,1,.459,1.79,4.312,4.312,0,0,0,.813,1.729.4.4,0,0,0,.569,0,.4.4,0,0,0,0-.568,3.873,3.873,0,0,1-.663-1.63,9.211,9.211,0,0,0-.548-1.891,9.755,9.755,0,0,0-.972-1.586,4.449,4.449,0,0,0-1.351-1.275.4.4,0,0,0-.4.693Z" transform="translate(-608.424 -8735.737)" fill="#334d82"/>
  <path id="パス_1591" data-name="パス 1591" d="M580.632,8779.318c1.685-1.59,3.4-3.146,5.081-4.732h-.568c1.416,1.5,2.862,2.947,4.288,4.424l1.142,1.182a2.379,2.379,0,0,1,.469.554c.1.21-.035.4-.15.573a15.032,15.032,0,0,1-1.74,1.95,15.491,15.491,0,0,1-4.413,3.491,5.613,5.613,0,0,1-2.942.543,4.543,4.543,0,0,1-2.533-1.2,6.763,6.763,0,0,1-1.92-5.12,19.324,19.324,0,0,1,.229-2.838c.165-1.143.364-2.284.583-3.421a82.458,82.458,0,0,1,3.76-13.061,8.4,8.4,0,0,1,3.236-4.3,20.736,20.736,0,0,1,2.713-1.361c1-.424,1.955-.8,2.947-1.177l1.4-.5-.309-.039a13.289,13.289,0,0,0,2.992,1.406,17.873,17.873,0,0,0,3.855.883,16.523,16.523,0,0,0,7.061-.869,9.122,9.122,0,0,0,2.872-1.416l-.5.064,3.072,1.313a20.158,20.158,0,0,1,2.757,1.316,9.8,9.8,0,0,1,2.109,1.63,8.811,8.811,0,0,1,1.466,2.418,38.163,38.163,0,0,1,2.468,8.478,80.852,80.852,0,0,1,1.321,8.521,13.9,13.9,0,0,1-.534,5.8,4.229,4.229,0,0,1-3.361,2.832c-1.95.205-3.635-1.053-5.041-2.234a48.489,48.489,0,0,1-4.3-4.173l-.783-.853v.567c1.536-1.5,3.151-2.872,4.732-4.294l1.267-1.146h-.568c1.466,1.282,2.817,2.7,4.219,4.055.374.358.947-.21.568-.568-1.4-1.356-2.753-2.772-4.219-4.059a.414.414,0,0,0-.569,0c-1.606,1.5-3.251,2.913-4.862,4.384q-.573.524-1.137,1.063a.4.4,0,0,0,0,.567c1.3,1.417,2.608,2.813,4.029,4.1a24.468,24.468,0,0,0,2.593,2.119,7.1,7.1,0,0,0,2.653,1.182,4.6,4.6,0,0,0,2.668-.215,4.927,4.927,0,0,0,2.025-1.545,9.266,9.266,0,0,0,1.5-5.564,30.466,30.466,0,0,0-.384-4.758c-.219-1.561-.5-3.111-.778-4.662-.264-1.406-.544-2.812-.868-4.209a34.8,34.8,0,0,0-1.282-4.174,18.549,18.549,0,0,0-1.316-2.926,7.31,7.31,0,0,0-1.97-2.159,14.055,14.055,0,0,0-2.384-1.5c-1-.5-2.069-.887-3.1-1.326l-1.576-.678a.423.423,0,0,0-.5.064l-.065.049a1.078,1.078,0,0,1-.125.085,3.1,3.1,0,0,1-.274.175c-.21.125-.426.24-.648.344a12.238,12.238,0,0,1-1.561.6,18.175,18.175,0,0,1-3.75.813,15.442,15.442,0,0,1-7.978-1.431c-.259-.124-.5-.254-.773-.394l-.324-.189a1.6,1.6,0,0,0-.394-.23.848.848,0,0,0-.5.11l-.5.185-1,.369c-1.346.5-2.683,1.042-3.989,1.67a9.6,9.6,0,0,0-3.191,2.254,10.713,10.713,0,0,0-1.88,3.262,85.214,85.214,0,0,0-2.787,8.766,63.471,63.471,0,0,0-1.72,8.852c-.289,2.577-.12,5.385,1.745,7.379a5.445,5.445,0,0,0,3.615,1.746,6.95,6.95,0,0,0,3.949-1.113,16.453,16.453,0,0,0,2.957-2.4,26.577,26.577,0,0,0,2.453-2.622,2.145,2.145,0,0,0,.5-.953,1.277,1.277,0,0,0-.339-1,21.325,21.325,0,0,0-1.536-1.616c-.918-.947-1.845-1.885-2.763-2.832q-.768-.791-1.526-1.585a.412.412,0,0,0-.574,0c-1.68,1.586-3.4,3.143-5.081,4.729-.374.358.194.928.573.573Z" transform="translate(-576.525 -8721.436)" fill="#334d82"/>
  <path id="パス_1592" data-name="パス 1592" d="M619.6,8738.186a3.634,3.634,0,0,0,4.228,0c.374-.365-.194-.933-.568-.568,0,0-.1.09-.055.055s-.07.045-.1.061a1.349,1.349,0,0,1-.145.08l-.1.049h-.04a3.188,3.188,0,0,1-1.107.18,3.118,3.118,0,0,1-1.087-.174,1.6,1.6,0,0,1-.3-.15l-.12-.08c.1.07,0,0-.035-.034-.369-.364-.942.2-.568.568Z" transform="translate(-598.059 -8713.383)" fill="#334d82"/>
  <path id="パス_1593" data-name="パス 1593" d="M623.52,8730.354a7.7,7.7,0,0,1,.209.941v-.1a1.072,1.072,0,0,1,0,.13v-.05l.04-.095v.035l.06-.08-.03.029.08-.064a.245.245,0,0,1-.075.039l.1-.039a.562.562,0,0,1-.125.039h.1a.491.491,0,0,1-.12,0h-.025a.447.447,0,0,0-.309.041.409.409,0,0,0-.145.554.394.394,0,0,0,.24.185c.095,0,.189.035.284.039a.866.866,0,0,0,.4-.095.554.554,0,0,0,.319-.378.969.969,0,0,0,0-.415c-.055-.3-.125-.6-.2-.9a.4.4,0,1,0-.773.213Z" transform="translate(-599.942 -8709.563)" fill="#334d82"/>
  <path id="パス_1594" data-name="パス 1594" d="M613.691,8725c-.155.5-.055,1.661.9,1.761,1.262,0,1.331-1.412.908-2.07a1,1,0,0,0-1.805.31Z" transform="translate(-595.129 -8706.742)" fill="#334d82"/>
  <path id="パス_1595" data-name="パス 1595" d="M631.769,8725c.155.5.055,1.661-.9,1.761-1.262,0-1.326-1.412-.9-2.07a1,1,0,0,1,1.805.31Z" transform="translate(-603.199 -8706.742)" fill="#334d82"/>
</svg>
