<svg xmlns="http://www.w3.org/2000/svg" width="500.005" height="94" viewBox="0 0 500.005 94">
  <g id="グループ_84" data-name="グループ 84" transform="translate(1313 -1113.833)">
    <rect id="長方形_125" data-name="長方形 125" width="500.005" height="94" transform="translate(-1313 1113.833)" fill="none"/>
    <path id="パス_2060" data-name="パス 2060" d="M-76.786-39.76V-49.7H-114.63V0H-103.7V-19.241h23.714v-9.94H-103.7V-39.76ZM-28.79,0V-9.94H-53.569V-49.7H-64.5V0ZM33.618-24.85v-.142a25.5,25.5,0,0,0-1.952-9.975A24.459,24.459,0,0,0,26.2-43.062a26.307,26.307,0,0,0-8.342-5.467A27.1,27.1,0,0,0,7.278-50.552,27.36,27.36,0,0,0-3.337-48.528a25.614,25.614,0,0,0-8.378,5.538,25.739,25.739,0,0,0-5.5,8.165,25.109,25.109,0,0,0-1.988,9.976v.142a25.5,25.5,0,0,0,1.952,9.976,24.459,24.459,0,0,0,5.467,8.094A26.307,26.307,0,0,0-3.443-1.171,27.1,27.1,0,0,0,7.136.852,27.36,27.36,0,0,0,17.75-1.171a25.614,25.614,0,0,0,8.378-5.538,25.739,25.739,0,0,0,5.5-8.165A25.109,25.109,0,0,0,33.618-24.85Zm-11.431.142a16.276,16.276,0,0,1-1.1,6,15.73,15.73,0,0,1-3.053,4.934,13.8,13.8,0,0,1-4.722,3.337A14.938,14.938,0,0,1,7.278-9.23a14.5,14.5,0,0,1-6.071-1.243A15.125,15.125,0,0,1-3.55-13.845a15.006,15.006,0,0,1-3.124-4.97,16.555,16.555,0,0,1-1.1-6.035v-.142a16.276,16.276,0,0,1,1.1-6,15.729,15.729,0,0,1,3.053-4.934,13.883,13.883,0,0,1,4.686-3.337A14.867,14.867,0,0,1,7.136-40.47a14.571,14.571,0,0,1,6.035,1.243,15.012,15.012,0,0,1,4.792,3.373,15.006,15.006,0,0,1,3.124,4.97,16.555,16.555,0,0,1,1.1,6.035ZM118.463-49.7H107.032L96.737-16.046,85.59-49.842H76.218l-11.147,33.8L54.776-49.7H43.061L60.03.355h9.514L80.762-32.163,91.98.355h9.514Z" transform="translate(-1064.461 1164.833)" fill="#f29600"/>
    <g id="グループ_20" data-name="グループ 20" transform="translate(-1313 1151.129)">
      <g id="グループ_19" data-name="グループ 19" transform="translate(0)">
        <g id="グループ_18" data-name="グループ 18">
          <rect id="長方形_1" data-name="長方形 1" width="29.851" height="9.029" transform="translate(0 10.411)" fill="#002063"/>
          <rect id="長方形_2" data-name="長方形 2" width="29.851" height="9.029" fill="#002063"/>
          <rect id="長方形_3" data-name="長方形 3" width="29.851" height="9.029" transform="translate(0 20.822)" fill="#002063"/>
        </g>
      </g>
    </g>
    <g id="グループ_23" data-name="グループ 23" transform="translate(-842.846 1151.129)">
      <g id="グループ_22" data-name="グループ 22" transform="translate(0)">
        <g id="グループ_21" data-name="グループ 21">
          <rect id="長方形_4" data-name="長方形 4" width="29.851" height="9.029" transform="translate(0 10.411)" fill="#002063"/>
          <rect id="長方形_5" data-name="長方形 5" width="29.851" height="9.029" fill="#002063"/>
          <rect id="長方形_6" data-name="長方形 6" width="29.851" height="9.029" transform="translate(0 20.822)" fill="#002063"/>
        </g>
      </g>
    </g>
    <text id="解決までの流れ" transform="translate(-1063.864 1202.967)" font-size="25" font-family="HiraginoSans-W3, Hiragino Sans" letter-spacing="0.05em"><tspan x="-91.25" y="0">解決までの流れ</tspan></text>
  </g>
</svg>
