<svg id="グループ_74" data-name="グループ 74" xmlns="http://www.w3.org/2000/svg" width="106.303" height="65.579" viewBox="0 0 106.303 65.579">
  <path id="パス_1596" data-name="パス 1596" d="M596.136,9170.445c-2.319,1.178-4.662,2.3-6.946,3.546a7.806,7.806,0,0,0-2.493,1.835,9.857,9.857,0,0,0-1.531,3.047c-.838,2.438-1.556,4.916-2.214,7.41-.334,1.246-.648,2.493-.962,3.744a6.62,6.62,0,0,0-.2,3.556,5.086,5.086,0,0,0,2.418,2.622l3.875,2.633c.544.369,1.052-.5.5-.877l-3.226-2.193c-.833-.564-2.049-1.147-2.493-2.115a4.782,4.782,0,0,1,.025-3.131c.3-1.207.608-2.414.922-3.615.618-2.34,1.282-4.662,2.044-6.981a13.044,13.044,0,0,1,1.281-3.042,5.824,5.824,0,0,1,2.159-1.834c2.384-1.352,4.887-2.494,7.325-3.75.583-.3.07-1.172-.5-.877Z" transform="translate(-517.135 -9137.753)" fill="#334d82"/>
  <path id="パス_1597" data-name="パス 1597" d="M635.31,9171.466c2.189,1.117,4.4,2.2,6.577,3.351a8.025,8.025,0,0,1,2.418,1.672,8.127,8.127,0,0,1,1.386,2.741c.788,2.279,1.461,4.593,2.089,6.917.3,1.141.6,2.283.888,3.436a8.362,8.362,0,0,1,.5,3.439,2.445,2.445,0,0,1-.688,1.387,9.924,9.924,0,0,1-1.5,1.1l-3.66,2.493c-.539.364-.035,1.246.5.877l3.4-2.309a7.335,7.335,0,0,0,2.543-2.209,4.81,4.81,0,0,0,.319-3.271c-.294-1.271-.633-2.533-.962-3.795-.643-2.493-1.341-4.946-2.139-7.38a16.346,16.346,0,0,0-1.3-3.212,6.219,6.219,0,0,0-2.229-2.163c-1.127-.688-2.339-1.252-3.491-1.85l-4.129-2.1c-.578-.3-1.092.579-.5.873Z" transform="translate(-543.933 -9137.839)" fill="#334d82"/>
  <path id="パス_1598" data-name="パス 1598" d="M605.979,9119.443a9.922,9.922,0,0,0-4.942,9.623c.075.639,1.092.648,1,0a8.947,8.947,0,0,1,4.438-8.746.5.5,0,1,0-.5-.877Z" transform="translate(-526.844 -9112.19)" fill="#334d82"/>
  <path id="パス_1599" data-name="パス 1599" d="M621.622,9149.014c.11.419.2.848.284,1.277l.03.148h0v-.045a.228.228,0,0,1,.07-.109s.11-.074.04-.039c.115-.056.055,0,0,0h-.155a.56.56,0,0,0-.389.049.5.5,0,0,0-.185.693h0a.462.462,0,0,0,.3.234,1.413,1.413,0,0,0,.733,0,.75.75,0,0,0,.534-.834c-.03-.273-.1-.553-.155-.827s-.115-.528-.185-.788a.517.517,0,0,0-1,.27Z" transform="translate(-537.002 -9126.738)" fill="#334d82"/>
  <path id="パス_1600" data-name="パス 1600" d="M629.87,9157.342c3.835-1.291,5.171-5.938,5.186-9.562a.5.5,0,1,0-1,0h0a11.687,11.687,0,0,1-1.416,5.873,5.862,5.862,0,0,1-3.027,2.713c-.618.205-.354,1.188.269,1Z" transform="translate(-541.022 -9126.179)" fill="#334d82"/>
  <path id="パス_1601" data-name="パス 1601" d="M605.21,9148.929c.095,4.06,2.269,8.517,6.582,9.35.638.124.913-.853.269-1-3.865-.748-5.754-4.737-5.834-8.373a.509.509,0,0,0-1.017.021Z" transform="translate(-528.962 -9126.746)" fill="#334d82"/>
  <path id="パス_1602" data-name="パス 1602" d="M603.067,9140.7a1.621,1.621,0,0,0-2.274.025,3.07,3.07,0,0,0-.5,2.408c.185,1.585,1.072,3.764,2.992,3.729a.5.5,0,1,0,0-1c-1.2,0-1.735-1.5-1.925-2.459a3.6,3.6,0,0,1,0-1.709.6.6,0,0,1,.743-.4.57.57,0,0,1,.234.135c.5.439,1.2-.278.718-.718Z" transform="translate(-526.48 -9122.651)" fill="#334d82"/>
  <path id="パス_1603" data-name="パス 1603" d="M640.311,9141.372a.6.6,0,0,1,.843,0,.547.547,0,0,1,.12.2,2.289,2.289,0,0,1,.095.844,4.71,4.71,0,0,1-.085.912c-.185.958-.723,2.493-1.925,2.454a.5.5,0,1,0,0,1c1.91.035,2.8-2.144,2.992-3.729a2.927,2.927,0,0,0-.5-2.409,1.627,1.627,0,0,0-2.279-.023c-.5.438.234,1.156.718.718Z" transform="translate(-545.833 -9122.61)" fill="#334d82"/>
  <path id="パス_1604" data-name="パス 1604" d="M631.511,9121.252a5.916,5.916,0,0,1,2.6,1.4,6.72,6.72,0,0,1,1.715,2.2,9.379,9.379,0,0,1,.658,2.578,16.711,16.711,0,0,1,.145,3.156c-.035.652,1,.648,1,0a17.484,17.484,0,0,0-.174-3.426,9.985,9.985,0,0,0-.8-2.9,7.56,7.56,0,0,0-1.995-2.447,6.823,6.823,0,0,0-2.9-1.542c-.638-.12-.913.858-.269,1Z" transform="translate(-541.954 -9112.633)" fill="#334d82"/>
  <path id="パス_1605" data-name="パス 1605" d="M615.169,9128.075c-.972.5-1.9,1.042-2.882,1.5-.08.035-.294.08-.339.141s.314.119.359.1,0,.064,0,0a.863.863,0,0,0-.1-.215,5.2,5.2,0,0,1-.4-1.361.5.5,0,0,0-.868-.358c-2.324,2.074-4.533,4.243-6.667,6.512-.444.474.269,1.2.718.718,2.134-2.268,4.343-4.437,6.667-6.512l-.868-.358a6.246,6.246,0,0,0,.5,1.771c.194.453.464.848,1,.683a9.175,9.175,0,0,0,1.5-.733c.633-.334,1.257-.683,1.9-1s.07-1.168-.5-.878Z" transform="translate(-528.42 -9116.369)" fill="#334d82"/>
  <path id="パス_1606" data-name="パス 1606" d="M613.994,9145.709c-.145.469-.05,1.535.828,1.625,1.162,0,1.227-1.3.833-1.9a.918.918,0,0,0-1.66.279Z" transform="translate(-533.338 -9125.043)" fill="#334d82"/>
  <path id="パス_1607" data-name="パス 1607" d="M630.692,9145.705c.145.463.05,1.535-.828,1.625-1.162,0-1.227-1.3-.833-1.91a.917.917,0,0,1,1.661.285Z" transform="translate(-540.796 -9125.038)" fill="#334d82"/>
  <path id="パス_1608" data-name="パス 1608" d="M629.735,9131a11.061,11.061,0,0,1,4.986,5.244.5.5,0,0,0,.878-.5,11.912,11.912,0,0,0-5.365-5.619C629.655,9129.83,629.141,9130.707,629.735,9131Z" transform="translate(-541.125 -9117.55)" fill="#334d82"/>
  <path id="パス_1609" data-name="パス 1609" d="M618.885,9158.588a3.8,3.8,0,0,0,4.279,0,.508.508,0,0,0-.718-.719l-.04.035c-.04.061.085-.049.04-.029l-.125.08-.145.075h0l-.095.034a2.873,2.873,0,0,1-1.047.164h-.548a3.008,3.008,0,0,1-.5-.114l-.115-.045c.055,0,.065.029,0,0l-.16-.08-.115-.075c-.06-.035.065.08.035,0l-.045-.035a.508.508,0,0,0-.718.718Z" transform="translate(-535.736 -9131.415)" fill="#334d82"/>
  <path id="パス_1610" data-name="パス 1610" d="M647.61,9188.256l-.688,2.822a.517.517,0,0,0,1,.27l.688-2.822a.516.516,0,1,0-1-.27Z" transform="translate(-549.866 -9146.532)" fill="#334d82"/>
  <path id="パス_1611" data-name="パス 1611" d="M618.309,9117.412c-1.421-1.8-3.989-2.312-6.188-2.144a13.559,13.559,0,0,0-3.112.658,5.355,5.355,0,0,0-2.084.942.5.5,0,0,0,.359.867,4.3,4.3,0,0,1,1.611.5c.573.309,1.087-.568.5-.878a5.641,5.641,0,0,0-2.119-.648l.359.868c.04-.04-.08.045.04-.029l.13-.076a3.951,3.951,0,0,1,.409-.2,11.879,11.879,0,0,1,1.157-.409,12.488,12.488,0,0,1,2.743-.593c1.95-.15,4.2.244,5.485,1.85.4.5,1.122-.21.718-.719Z" transform="translate(-529.74 -9110.115)" fill="#334d82"/>
  <path id="パス_1612" data-name="パス 1612" d="M651.388,9209.631c.309.174.608.364.9.568.145.1.279.205.419.3h0l.05.039.115.09.209.175a.5.5,0,1,0,.708-.708,12.137,12.137,0,0,0-1.88-1.316.5.5,0,0,0-.5.877Z" transform="translate(-551.998 -9156.982)" fill="#334d82"/>
  <path id="パス_1613" data-name="パス 1613" d="M596.781,9188.531q.329,1.327.648,2.652a.516.516,0,1,0,1-.269c-.209-.888-.429-1.771-.643-2.653a.5.5,0,0,0-.628-.354.5.5,0,0,0-.374.623Z" transform="translate(-524.727 -9146.538)" fill="#334d82"/>
  <path id="パス_1614" data-name="パス 1614" d="M592.541,9208.559a11.231,11.231,0,0,0-2.024,1.4.5.5,0,0,0,0,.718.523.523,0,0,0,.718,0l.214-.18.125-.1.055-.04c.05-.045-.08.055,0,0,.15-.115.3-.229.464-.339a10.171,10.171,0,0,1,1-.594.5.5,0,0,0-.5-.878Z" transform="translate(-521.519 -9156.861)" fill="#334d82"/>
  <path id="パス_1615" data-name="パス 1615" d="M608.812,9193.56q-6.168.045-12.341.075a3.954,3.954,0,0,0-1.845.159c-.588.345-.544,1-.539,1.565,0,1.157,0,2.309.035,3.49q.055,4.614.135,9.226c0,1.386.05,2.772.08,4.153,0,.529,0,1.058.04,1.581a1.15,1.15,0,0,0,.553,1,1.77,1.77,0,0,0,.962.139c3.725-.033,7.455,0,11.185,0h14.715a1.614,1.614,0,0,0,.893-.14,1.171,1.171,0,0,0,.558-1.053c.055-1.186.06-2.373.08-3.555q.09-4.632.15-9.25c0-1.366.035-2.727.045-4.094v-1.467c0-.623.03-1.295-.628-1.61a4.661,4.661,0,0,0-1.845-.114H618.65l-6.413-.041h-3.446a.5.5,0,0,0,0,1q5.939.044,11.888.074h.863a3.863,3.863,0,0,1,.823,0c.189.051.135.2.135.375v.628q0,1.72-.035,3.44-.05,4.374-.125,8.746-.035,2.03-.08,4.045c0,.5-.025,1-.035,1.525,0,.2.06.449-.16.5a4.107,4.107,0,0,1-.693,0c-3.64-.024-7.285,0-10.925,0h-14.3a3.322,3.322,0,0,1-.623,0c-.229-.045-.155-.318-.16-.527q-.045-1.746-.08-3.491-.08-4.412-.14-8.821l-.045-3.934v-2.125c0-.209-.055-.363.194-.373,1.336-.064,2.683,0,4.019,0l6.2-.04h3.3a.5.5,0,1,0,0-1Z" transform="translate(-523.384 -9149.383)" fill="#334d82"/>
  <path id="パス_1616" data-name="パス 1616" d="M600.72,9230.6h11.419c4.6,0,9.19-.03,11.419,0" transform="translate(-526.711 -9167.945)" fill="#334d82"/>
  <path id="パス_1617" data-name="パス 1617" d="M600.219,9230.611c6.228-.04,12.466,0,18.694,0h4.144a.5.5,0,0,0,0-1c-6.233-.034-12.466,0-18.694,0h-4.144a.5.5,0,0,0,0,1Z" transform="translate(-526.21 -9167.45)" fill="#334d82"/>
  <path id="パス_1618" data-name="パス 1618" d="M621.835,9210.68h-1.277a.5.5,0,0,0-.5.5v2.4a.53.53,0,0,0,.5.544h2.329a.911.911,0,0,0,.459-.065.6.6,0,0,0,.249-.593c0-.245,0-.5,0-.733v-1.552a.5.5,0,0,0-.5-.5h-1.272a.5.5,0,0,0,0,1H623.1l-.5-.5v2.439l.07-.26h0l.439-.249a3.835,3.835,0,0,0-.424,0h-1.656q-.222-.01-.444,0l.439.249h0l.07.26v-2.439l-.5.5h1.272a.5.5,0,0,0,0-1h0Z" transform="translate(-536.407 -9157.966)" fill="#334d82"/>
  <path id="パス_1619" data-name="パス 1619" d="M465.738,9161.619l-3.59,1.826c-1,.5-2.034,1-2.992,1.58a6.379,6.379,0,0,0-2.234,2.064,13.841,13.841,0,0,0-1.3,3.082q-1.182,3.551-2.109,7.175c-.324,1.227-.633,2.458-.942,3.69a5.837,5.837,0,0,0-.045,3.359,5.514,5.514,0,0,0,2.493,2.544l3.8,2.583c.544.369,1.052-.5.5-.877l-3.151-2.14c-.5-.335-1-.669-1.5-1a3.5,3.5,0,0,1-1.032-1,4.028,4.028,0,0,1-.165-3.047q.434-1.74.888-3.49c.583-2.234,1.207-4.458,1.915-6.656a21.567,21.567,0,0,1,1.142-3.1,5.122,5.122,0,0,1,1.895-2.119c1-.633,2.064-1.137,3.112-1.67l3.8-1.935c.583-.294.07-1.171-.5-.878Z" transform="translate(-452.299 -9133.34)" fill="#334d82"/>
  <path id="パス_1620" data-name="パス 1620" d="M506.442,9161.831c2.164,1.1,4.358,2.159,6.482,3.312a7.243,7.243,0,0,1,2.294,1.66,8.842,8.842,0,0,1,1.352,2.771c.778,2.284,1.456,4.6,2.084,6.932q.454,1.711.888,3.436a7.791,7.791,0,0,1,.449,3.3,2.493,2.493,0,0,1-.778,1.467,10.947,10.947,0,0,1-1.4,1.021l-3.665,2.494c-.534.363,0,1.246.5.877l3.4-2.313a7.132,7.132,0,0,0,2.493-2.154,4.713,4.713,0,0,0,.364-3.267c-.284-1.266-.633-2.522-.957-3.779-.638-2.453-1.321-4.9-2.114-7.3a17.27,17.27,0,0,0-1.282-3.246,5.983,5.983,0,0,0-2.134-2.175c-1.082-.683-2.254-1.231-3.4-1.81l-4.124-2.095c-.578-.294-1.1.579-.5.878Z" transform="translate(-479.291 -9133.008)" fill="#334d82"/>
  <path id="パス_1621" data-name="パス 1621" d="M519.335,9168.98c-.17,1-.434,2.024-.668,3.031-.339,1.441-.7,2.883-1.052,4.328a.517.517,0,0,0,1,.27c.349-1.445.708-2.882,1.047-4.328.239-1,.5-1.994.668-3.031.11-.639-.873-.912-1-.27Z" transform="translate(-485.038 -9136.876)" fill="#334d82"/>
  <path id="パス_1622" data-name="パス 1622" d="M497.419,9172.34q-.352-2.379-.708-4.762c-.075-.5-.155-1.032-.224-1.551v-.22a4.456,4.456,0,0,1,.289-1.132.516.516,0,0,0-1-.27,4.244,4.244,0,0,0-.3,1.66c.07.5.15,1.053.229,1.582.244,1.654.5,3.3.738,4.961a.507.507,0,1,0,.977-.27Z" transform="translate(-473.947 -9134.575)" fill="#334d82"/>
  <path id="パス_1623" data-name="パス 1623" d="M489.734,9164.111a5.5,5.5,0,0,1,.254,1.627c-.06.5-.125,1.025-.185,1.539q-.3,2.476-.6,4.947a.5.5,0,0,0,.5.5.523.523,0,0,0,.5-.5l.613-5.047c.06-.5.12-1,.175-1.5a6.343,6.343,0,0,0-.289-1.85c-.13-.639-1.107-.369-1,.27Z" transform="translate(-470.8 -9134.295)" fill="#334d82"/>
  <path id="パス_1624" data-name="パス 1624" d="M493.612,9161.2h-1.127a.531.531,0,0,0-.359.149.5.5,0,0,0-.153.359.5.5,0,0,0,.153.359.54.54,0,0,0,.359.148h1.127a.528.528,0,0,0,.359-.145.5.5,0,0,0,0-.718h0a.492.492,0,0,0-.359-.149Z" transform="translate(-472.19 -9133.159)" fill="#334d82"/>
  <path id="パス_1625" data-name="パス 1625" d="M485.575,9161.408a18.737,18.737,0,0,1-2.493-3.561v.5a5.564,5.564,0,0,1,1.092-1.5h-.718a12.268,12.268,0,0,0,1.735,1.441c.3.2.613.4.938.578.14.08.284.154.429.229l.234.115.12.055c.075.045.07.029,0-.04l-.07-.259c0-.08.055-.075,0-.025l-.055.08-.085.109-.055.07c-.185.239-.379.469-.568.7-.4.5-.813,1-1.212,1.466a.523.523,0,0,0,0,.718.5.5,0,0,0,.718,0l1.147-1.391a11.07,11.07,0,0,0,1-1.236.723.723,0,0,0-.159-1h-.045c-.359-.225-.768-.379-1.137-.6a11,11,0,0,1-2.189-1.7.5.5,0,0,0-.718,0,6.133,6.133,0,0,0-1.082,1.377,1.967,1.967,0,0,0-.219.423.674.674,0,0,0,.15.554c.15.25.3.5.454.748a14.9,14.9,0,0,0,2.1,2.857.508.508,0,1,0,.718-.719Z" transform="translate(-467.275 -9130.56)" fill="#334d82"/>
  <path id="パス_1626" data-name="パス 1626" d="M497.063,9162.109a14.9,14.9,0,0,0,2.1-2.856c.155-.25.3-.5.454-.749a.715.715,0,0,0,.16-.5,1.347,1.347,0,0,0-.2-.454,6.1,6.1,0,0,0-1.1-1.417.5.5,0,0,0-.718,0,10.81,10.81,0,0,1-2.154,1.681c-.369.22-.773.389-1.147.6a.722.722,0,0,0-.274,1l.04.064a11.672,11.672,0,0,0,.958,1.212c.389.469.783.938,1.167,1.411a.508.508,0,1,0,.718-.719c-.4-.5-.8-.973-1.207-1.461l-.573-.7s-.13-.174-.055-.069c-.025-.04-.055-.075-.08-.109l-.055-.085c-.05-.049,0-.055,0,.029l-.07.255c-.085.069-.09.085,0,.04l.075-.035.234-.115c.16-.074.319-.16.474-.244.319-.18.633-.374.932-.584a12.264,12.264,0,0,0,1.74-1.436h-.718a5.345,5.345,0,0,1,1.087,1.5v-.5a18.522,18.522,0,0,1-2.493,3.56.508.508,0,1,0,.718.718Z" transform="translate(-473.247 -9130.543)" fill="#334d82"/>
  <path id="パス_1627" data-name="パス 1627" d="M477.467,9170.4a9.668,9.668,0,0,0-1.237,1.436c-.349.5-.055.787.244,1.166,1.222,1.571,2.493,3.107,3.74,4.658a.5.5,0,0,0,.718,0,.524.524,0,0,0,0-.719l-2.722-3.375-.9-1.127-.15-.2-.06-.079c-.075-.095-.1-.229-.06-.035v.274c-.06.2.07-.07.08-.085.12-.154.249-.3.379-.454a8.008,8.008,0,0,1,.683-.748C478.669,9170.674,477.951,9169.956,477.467,9170.4Z" transform="translate(-464.218 -9137.701)" fill="#334d82"/>
  <path id="パス_1628" data-name="パス 1628" d="M479.145,9158.64a1.8,1.8,0,0,0-1.092.7,15.954,15.954,0,0,0-1.242,1.5,18.023,18.023,0,0,0-1.087,1.571,5.8,5.8,0,0,0-.324.6.668.668,0,0,0,.125.823,20.223,20.223,0,0,0,1.591,1.5c.5.434,1.2-.279.718-.719-.334-.3-.668-.6-1-.9-.15-.14-.3-.273-.444-.418l-.155-.16c-.095-.1.025.06,0,0l.07.259c0,.045-.06.189,0,.12a.573.573,0,0,0,.06-.125c.04-.08.085-.16.13-.239.115-.2.239-.394.369-.589.284-.434.583-.857.9-1.266a13.548,13.548,0,0,1,1-1.152,4.781,4.781,0,0,1,.4-.383c.09-.076-.075.044,0,0l.075-.056c.075-.05.05,0,.03,0s-.055.024,0,0,0,0-.085,0c.648-.035.653-1.052,0-1Z" transform="translate(-463.836 -9131.875)" fill="#334d82"/>
  <path id="パス_1629" data-name="パス 1629" d="M481.9,9159.234c.578,1.945,1.032,3.92,1.705,5.834.773,2.2,1.636,4.368,2.538,6.512a.528.528,0,0,0,.623.354.5.5,0,0,0,.359-.623c-.908-2.149-1.77-4.313-2.538-6.513-.678-1.919-1.132-3.889-1.71-5.834a.517.517,0,0,0-1,.27Z" transform="translate(-467.122 -9131.847)" fill="#334d82"/>
  <path id="パス_1630" data-name="パス 1630" d="M499.927,9158.98a72.1,72.1,0,0,1-3.56,12.342c-.224.613.758.877,1,.27a72.428,72.428,0,0,0,3.56-12.342C501.019,9158.612,500.042,9158.338,499.927,9158.98Z" transform="translate(-474.376 -9131.862)" fill="#334d82"/>
  <path id="パス_1631" data-name="パス 1631" d="M505.032,9171.112a8.172,8.172,0,0,1,.688.747l.354.435s.16.31.1.1v-.289c0-.16.035-.08-.025,0s-.13.215-.2.318c-.224.375-.459.738-.693,1.107q-1.1,1.736-2.219,3.49c-.354.549.524,1.058.878.5,1-1.551,1.995-3.1,2.992-4.673.07-.114.145-.225.2-.344a.647.647,0,0,0-.125-.723,9.911,9.911,0,0,0-1.222-1.416c-.5-.444-1.2.273-.718.718Z" transform="translate(-477.695 -9137.686)" fill="#334d82"/>
  <path id="パス_1632" data-name="パス 1632" d="M504,9159.646h-.06c-.14,0-.08-.045-.025,0l.075.045c.095.061-.03,0,0,0a4.944,4.944,0,0,1,.414.395,14.477,14.477,0,0,1,1,1.156c.314.409.618.833.9,1.262.12.189.239.379.354.568l.13.244c.025.045.04.085.065.13s0-.056,0-.109l.065-.255c0,.056.095-.09,0,0a2.02,2.02,0,0,0-.155.16l-.444.419-1,.9c-.5.434.234,1.151.718.718s1-.887,1.471-1.361c.194-.194.414-.424.334-.729a3.156,3.156,0,0,0-.309-.633,17.24,17.24,0,0,0-2.289-3.076c-.319-.35-.728-.828-1.237-.853-.653-.035-.653,1,0,1Z" transform="translate(-477.978 -9131.87)" fill="#334d82"/>
  <path id="パス_1633" data-name="パス 1633" d="M522.343,9199.872a12.136,12.136,0,0,1,1.172.788l-.1-.08c.15.115.294.234.434.354a.548.548,0,0,0,.359.15.5.5,0,0,0,.359-.868,11.835,11.835,0,0,0-1.71-1.222.5.5,0,0,0-.5.877Z" transform="translate(-487.293 -9152.074)" fill="#334d82"/>
  <path id="パス_1634" data-name="パス 1634" d="M465.292,9169.25c.17,1,.434,2.024.668,3.032.339,1.446.7,2.882,1.052,4.327.15.634,1.132.365,1-.269-.349-1.446-.708-2.888-1.052-4.328-.234-1-.5-2-.663-3.032C466.165,9168.338,465.187,9168.612,465.292,9169.25Z" transform="translate(-458.809 -9136.876)" fill="#334d82"/>
  <path id="パス_1635" data-name="パス 1635" d="M463.175,9198.628a11.823,11.823,0,0,0-2.024,1.4.508.508,0,1,0,.718.718l.214-.18.125-.095.055-.045h0c.15-.114.3-.224.464-.334q.483-.324,1-.6a.5.5,0,1,0-.5-.877Z" transform="translate(-456.662 -9151.883)" fill="#334d82"/>
  <path id="パス_1636" data-name="パス 1636" d="M479.442,9183.63l-12.341.08a4.018,4.018,0,0,0-1.845.154c-.588.345-.544,1-.539,1.571,0,1.151,0,2.309.035,3.49q.05,4.608.135,9.22c0,1.387.05,2.772.08,4.159,0,.5,0,1.052.04,1.575a1.151,1.151,0,0,0,.554,1,1.827,1.827,0,0,0,.962.141c3.725-.035,7.48,0,11.185,0h14.715a1.679,1.679,0,0,0,.893-.141,1.177,1.177,0,0,0,.559-1.057c.055-1.182.055-2.369.08-3.555q.09-4.623.15-9.246l.045-4.094v-1.5c0-.623.03-1.3-.633-1.61a4.823,4.823,0,0,0-1.84-.114H489.28l-6.408-.041-3.451-.024a.5.5,0,1,0,0,1l11.888.075h.863a4,4,0,0,1,.823,0c.189.05.135.2.135.379v.624c0,1.146,0,2.293-.035,3.439q-.05,4.374-.125,8.752-.035,2-.08,4.044c0,.5,0,1-.035,1.521,0,.205.065.454-.16.5a3.652,3.652,0,0,1-.693,0H481.078c-4.109,0-8.218-.024-12.331,0h-1.965a3.8,3.8,0,0,1-.623,0c-.229-.044-.155-.318-.16-.522q-.045-1.75-.075-3.491-.09-4.412-.145-8.826l-.045-3.934v-2.119c0-.22-.06-.369.194-.379,1.331-.06,2.683,0,4.014,0l6.2-.039h3.3a.5.5,0,0,0,0-1Z" transform="translate(-458.524 -9144.404)" fill="#334d82"/>
  <path id="パス_1637" data-name="パス 1637" d="M471.35,9220.677h11.419c4.592,0,9.19-.03,11.419,0" transform="translate(-461.85 -9162.971)" fill="#334d82"/>
  <path id="パス_1638" data-name="パス 1638" d="M470.849,9220.689c6.228-.039,12.466,0,18.694,0h4.144a.5.5,0,1,0,0-1c-6.233-.04-12.466,0-18.694,0h-4.144a.5.5,0,1,0,0,1Z" transform="translate(-461.349 -9162.476)" fill="#334d82"/>
  <path id="パス_1639" data-name="パス 1639" d="M492.47,9200.76H491.2a.5.5,0,0,0-.5.5v2.4a.529.529,0,0,0,.5.544h2.324a.9.9,0,0,0,.459-.064.6.6,0,0,0,.249-.594v-2.284a.5.5,0,0,0-.5-.5H492.46a.5.5,0,1,0,0,1h1.272l-.5-.5v2.438l.07-.254h0l.439-.255a3.836,3.836,0,0,0-.424,0H491.2l.439.255h0l.07.254v-2.438l-.5.5h1.272a.5.5,0,1,0,0-1h0Z" transform="translate(-471.551 -9152.992)" fill="#334d82"/>
  <path id="パス_1640" data-name="パス 1640" d="M473.133,9117.638a14.081,14.081,0,0,1,1.566-7.439,8.624,8.624,0,0,1,2.493-2.7,8.907,8.907,0,0,1,3.565-1.332,6.907,6.907,0,0,1,3.74.131c.274.109.529.264.8.383a5.648,5.648,0,0,0,1.037.3,5.55,5.55,0,0,1,1.331.465,7.478,7.478,0,0,1,3.346,4.014,12.359,12.359,0,0,1,.783,6.084.523.523,0,0,0,.354.623.5.5,0,0,0,.623-.354,13.382,13.382,0,0,0-.564-6.019,9.214,9.214,0,0,0-3.465-4.906,6.491,6.491,0,0,0-1.366-.679,15.657,15.657,0,0,1-1.85-.554,5.923,5.923,0,0,0-1.87-.628,8.326,8.326,0,0,0-2.114,0,11.461,11.461,0,0,0-3.989,1.077,9.169,9.169,0,0,0-3.077,2.623,10.56,10.56,0,0,0-1.89,3.988,21.783,21.783,0,0,0-.459,4.922.5.5,0,0,0,1,0Z" transform="translate(-462.237 -9104.965)" fill="#334d82"/>
  <path id="パス_1641" data-name="パス 1641" d="M491.862,9138.979c.115.434.2.872.294,1.315l.03.154h0v-.034a.246.246,0,0,1,.07-.11s.11-.074.04-.039c.165-.08-.05.029-.055,0s.135,0,.06,0h-.13a.561.561,0,0,0-.389.055.5.5,0,0,0-.185.693h0a.5.5,0,0,0,.3.234,1.441,1.441,0,0,0,.743,0,.774.774,0,0,0,.5-.468.849.849,0,0,0,.035-.369c-.035-.29-.1-.568-.165-.849s-.12-.548-.19-.817a.517.517,0,0,0-1,.27h0Z" transform="translate(-471.966 -9121.709)" fill="#334d82"/>
  <path id="パス_1642" data-name="パス 1642" d="M500.266,9147.267c3.944-1.326,5.321-6.112,5.335-9.839a.5.5,0,0,0-1,0,12.043,12.043,0,0,1-1.461,6.064,6.05,6.05,0,0,1-3.127,2.8c-.618.21-.354,1.191.269,1Z" transform="translate(-476.046 -9120.99)" fill="#334d82"/>
  <path id="パス_1643" data-name="パス 1643" d="M474.88,9138.623c.09,4.174,2.329,8.756,6.767,9.619.638.12.912-.857.274-1-3.989-.769-5.944-4.887-6.029-8.637a.506.506,0,0,0-1.012.015Z" transform="translate(-463.62 -9121.583)" fill="#334d82"/>
  <path id="パス_1644" data-name="パス 1644" d="M472.641,9130.133a1.659,1.659,0,0,0-2.324,0,3.174,3.174,0,0,0-.5,2.494c.194,1.625,1.1,3.863,3.062,3.828a.5.5,0,1,0,0-1c-1.247,0-1.805-1.546-1.995-2.539a3.747,3.747,0,0,1,0-1.774.629.629,0,0,1,.783-.419.607.607,0,0,1,.249.141c.5.438,1.2-.275.718-.719Z" transform="translate(-461.061 -9117.345)" fill="#334d82"/>
  <path id="パス_1645" data-name="パス 1645" d="M511.021,9130.815a.623.623,0,0,1,.888.03.663.663,0,0,1,.125.2,2.466,2.466,0,0,1,.1.873,4.934,4.934,0,0,1-.09.941c-.195,1-.753,2.564-1.995,2.539a.5.5,0,0,0,0,1c1.955.034,2.867-2.205,3.057-3.83a3.09,3.09,0,0,0-.5-2.493,1.659,1.659,0,0,0-2.324-.03c-.5.443.234,1.157.718.719Z" transform="translate(-481.002 -9117.309)" fill="#334d82"/>
  <path id="パス_1646" data-name="パス 1646" d="M483.945,9135.67c-.145.5-.05,1.58.853,1.676,1.2,0,1.262-1.342.858-1.965a.947.947,0,0,0-1.71.289Z" transform="translate(-468.137 -9119.999)" fill="#334d82"/>
  <path id="パス_1647" data-name="パス 1647" d="M501.056,9135.662c.15.5.055,1.58-.853,1.676-1.2,0-1.262-1.342-.858-1.965a.942.942,0,0,1,1.71.289Z" transform="translate(-475.774 -9119.992)" fill="#334d82"/>
  <path id="パス_1648" data-name="パス 1648" d="M488.987,9148.6a3.893,3.893,0,0,0,4.388,0,.508.508,0,0,0-.718-.718l-.045.04c-.04.06.085-.05.04-.03l-.125.08-.15.08h0l-.095.035a3.586,3.586,0,0,1-2.149,0l-.115-.045h0a.983.983,0,0,1-.16-.084,1.292,1.292,0,0,1-.119-.076c-.07-.035.07.086.03,0l-.045-.039a.523.523,0,0,0-.718,0,.5.5,0,0,0,0,.718Z" transform="translate(-470.626 -9126.388)" fill="#334d82"/>
  <path id="パス_1649" data-name="パス 1649" d="M476.44,9123.6a11.02,11.02,0,0,1,.723-3.146,4.169,4.169,0,0,1,2.159-2.494.51.51,0,0,0,.116-.934.5.5,0,0,0-.39-.043c-2.558.952-3.436,4.174-3.62,6.632-.055.653.962.647,1,0Z" transform="translate(-463.894 -9110.978)" fill="#334d82"/>
  <path id="パス_1650" data-name="パス 1650" d="M502.971,9117.873a6.735,6.735,0,0,1,2.174,2.992,9.881,9.881,0,0,1,.5,1.6,4.321,4.321,0,0,1,.15,1.126.5.5,0,1,0,1,0,8.482,8.482,0,0,0-.748-3.142,7.783,7.783,0,0,0-2.578-3.435c-.534-.385-1.042.5-.5.872Z" transform="translate(-477.584 -9110.959)" fill="#334d82"/>
  <path id="パス_1651" data-name="パス 1651" d="M499.62,9146.537a1.832,1.832,0,0,1,.309.309l-.08-.1a1.651,1.651,0,0,1,.239.4l-.05-.12a1.674,1.674,0,0,1,.085.269.517.517,0,1,0,1-.27h0a2.277,2.277,0,0,0-.768-1.212.57.57,0,0,0-.359-.148.5.5,0,0,0-.359.867Z" transform="translate(-475.949 -9125.372)" fill="#334d82"/>
  <path id="パス_1652" data-name="パス 1652" d="M485.357,9145.742a2,2,0,0,0-1,1.182.5.5,0,0,0,.354.623h0a.5.5,0,0,0,.394-.049.551.551,0,0,0,.234-.3.427.427,0,0,1,.05-.14l-.05.124a1.414,1.414,0,0,1,.184-.324l-.08.1a1.849,1.849,0,0,1,.274-.274l-.1.08a1.221,1.221,0,0,1,.224-.14.5.5,0,0,0-.12-.927.52.52,0,0,0-.389.049Z" transform="translate(-468.363 -9125.376)" fill="#334d82"/>
  <path id="パス_1653" data-name="パス 1653" d="M488.626,9113.918a.549.549,0,0,1,.065-.169l-.05.12a2.815,2.815,0,0,1,.254-.469l.075-.105c.05-.064-.06.08-.025.035l.04-.049c.06-.07.12-.135.184-.2a2.241,2.241,0,0,1,.189-.175l.05-.039c.075-.064-.1.074-.025,0l.1-.075a3.358,3.358,0,0,1,.474-.26l-.12.056.115-.05a.5.5,0,0,0,.3-.229.5.5,0,0,0-.179-.7.506.506,0,0,0-.394-.05,3.413,3.413,0,0,0-2.039,2.064.5.5,0,0,0,.354.629.508.508,0,0,0,.381-.039.5.5,0,0,0,.242-.3Z" transform="translate(-470.011 -9108.262)" fill="#334d82"/>
  <path id="パス_1654" data-name="パス 1654" d="M493.707,9115.209a4.442,4.442,0,0,1,.648-.394c.06-.036.12-.061.179-.091s.065-.024,0,0l.095-.039.359-.125.369-.095.2-.035h.1a5.052,5.052,0,0,1,.788,0,.5.5,0,1,0,0-1,5.183,5.183,0,0,0-3.261.962.5.5,0,0,0,.5.878Z" transform="translate(-472.669 -9109.208)" fill="#334d82"/>
  <path id="パス_1655" data-name="パス 1655" d="M560.969,9168.756l-8.7-3.371c.449,1.146,1.631,4.054,2.214,5.33-1.5-.618-10.581-5.569-10.581-5.569,1.5.618,6.981,2.673,8.477,3.291-.583-1.271-1.72-3.84-2.169-4.987C552.332,9164.277,560.969,9168.756,560.969,9168.756Z" transform="translate(-498.224 -9134.286)" fill="#334d82"/>
  <path id="パス_1656" data-name="パス 1656" d="M560.605,9167.734l-8.676-3.371a.509.509,0,0,0-.623.623c.718,1.83,1.451,3.665,2.269,5.45l.573-.743c.165.07-.115-.055-.165-.08l-.394-.184-1-.5c-.873-.444-1.74-.9-2.6-1.362q-2.6-1.374-5.186-2.777l-1.137-.618-.389.928c2.8,1.157,5.665,2.134,8.477,3.291.459.189.738-.394.573-.748-.733-1.605-1.466-3.222-2.119-4.862l-.623.624c.279.109.419.169.733.313s.738.34,1.1.5c.9.424,1.79.862,2.678,1.3q2.538,1.261,5.051,2.563l1.1.563c.578.3,1.092-.573.5-.878-2.852-1.5-5.714-2.946-8.617-4.333-.753-.358-1.5-.723-2.284-1.026a.5.5,0,0,0-.623.363.5.5,0,0,0,0,.266c.683,1.725,1.446,3.42,2.219,5.105l.573-.743c-2.792-1.157-5.665-2.134-8.477-3.29-.534-.225-.888.658-.394.928,2.892,1.575,5.789,3.141,8.716,4.652.653.334,1.311.683,1.995.967.459.189.733-.4.573-.743-.778-1.71-1.5-3.49-2.164-5.211l-.623.624,8.7,3.37C560.944,9168.951,561.209,9167.969,560.605,9167.734Z" transform="translate(-497.726 -9133.754)" fill="#334d82"/>
  <path id="パス_1657" data-name="パス 1657" d="M617.322,9171.668a20.666,20.666,0,0,1-.883-2.148c-.11-.345-.229-.684-.344-1.022a1.46,1.46,0,0,0-.3-.623,29.363,29.363,0,0,0-2.583-2.2c-.344-.289-.908-.953-1.4-.748-.344.145-.439.574-.578.883s-.309.633-.459.952-.588.958-.459,1.406a6.722,6.722,0,0,0,.788,1.421c.234.379.5.758.728,1.127a4.991,4.991,0,0,0,.748,1,.7.7,0,0,0,.783.079,1.423,1.423,0,0,0,.474-.658c.249-.5.5-1,.763-1.472.3-.578-.573-1.092-.878-.5l-.5.952-.214.419a4.368,4.368,0,0,1-.19.41l.259-.07h0l.224.134a3.806,3.806,0,0,1-.568-.753c-.2-.294-.4-.6-.589-.9-.289-.459-.573-.928-.823-1.406,0,0-.025-.055-.04-.08s.025.105,0,.03c.025.185-.035.278.035.085a6.479,6.479,0,0,1,.289-.623c.14-.295.284-.584.424-.878.06-.13.12-.255.174-.379l.095-.214.05-.121c0-.074.03-.074,0,0l-.359.15h.075l-.254-.07c.16.109.444.365.638.529l1.077.9a12.729,12.729,0,0,1,1.6,1.406l-.13-.225a29.414,29.414,0,0,0,1.431,3.736.505.505,0,1,0,.878-.5Z" transform="translate(-531.51 -9135.005)" fill="#334d82"/>
  <path id="パス_1658" data-name="パス 1658" d="M623.408,9172.2c.3-.628.568-1.262.838-1.9a17.061,17.061,0,0,0,.6-1.835l-.13.22a13.05,13.05,0,0,1,1.6-1.406l1.052-.872.414-.345.165-.14.085-.07-.259.07h.08l-.359-.149h0v.06l.1.244c.06.135.125.274.19.41l.424.882c.095.194.229.469.279.6s0,.2.05-.07c0,.085.045-.095,0-.039a.51.51,0,0,1-.045.094c-.254.5-.534.948-.823,1.407-.19.31-.389.608-.588.907a3.8,3.8,0,0,1-.569.748l.224-.129h0l.259.069s-.135-.3-.165-.364l-.239-.469c-.165-.319-.334-.633-.5-.947-.3-.579-1.182-.065-.878.5l.643,1.231c.2.4.374,1,.912,1,.439,0,.663-.389.888-.7s.424-.6.628-.917a18.349,18.349,0,0,0,1-1.681,1.841,1.841,0,0,0,.209-.448,1.169,1.169,0,0,0-.16-.72c-.249-.578-.548-1.136-.813-1.71-.145-.313-.244-.752-.658-.808a.961.961,0,0,0-.753.349c-.863.719-1.735,1.427-2.583,2.164a6.372,6.372,0,0,0-.5.46,1.87,1.87,0,0,0-.369.888,18.217,18.217,0,0,1-1.177,2.916c-.279.588.593,1.1.878.5Z" transform="translate(-537.596 -9135.023)" fill="#334d82"/>
  <path id="パス_1659" data-name="パス 1659" d="M622.47,9178.5v7.6a.5.5,0,0,0,1,0c0-2.533-.03-5.062-.03-7.6a.5.5,0,0,0-1,0Z" transform="translate(-537.6 -9141.581)" fill="#334d82"/>
  <path id="パス_1660" data-name="パス 1660" d="M491.349,9167.5h2.284a.5.5,0,1,0,0-1h-2.284a.5.5,0,1,0,0,1Z" transform="translate(-471.627 -9135.816)" fill="#334d82"/>
</svg>
