<svg xmlns="http://www.w3.org/2000/svg" width="300.001" height="300.001" viewBox="0 0 300.001 300.001">
  <g id="グループ_111" data-name="グループ 111" transform="translate(-456.91 -829.326)">
    <circle id="楕円形_5" data-name="楕円形 5" cx="150.001" cy="150.001" r="150.001" transform="translate(456.91 829.326)" fill="#f29600"/>
    <path id="パス_2099" data-name="パス 2099" d="M-90.1-8v-3.968h7.968v-4.32H-90.1V-19.52h8.7v-4.512H-99c.192-.448.384-.864.544-1.312a.864.864,0,0,0,.96-.416l-5.568-1.728a25.159,25.159,0,0,1-6.592,10.624,30.908,30.908,0,0,1,3.744,3.232,19.172,19.172,0,0,0,1.7-1.856V-8h-4.96v4.512H-94.9V3.04h4.8V-3.488h10.624V-8Zm-4.8-8.288h-8.672a26.1,26.1,0,0,0,2.208-3.232H-94.9Zm-4.64,4.32h4.64V-8h-4.64Zm38.048-14.24v12.064h8.352V-2.336c0,.544-.192.736-.768.736H-56.02V-12.576H-68.628V1.7h4.192V.064H-57.2a16.687,16.687,0,0,1,.736,2.976c6.24,0,8.032-.8,8.032-5.312V-26.208Zm-1.76,0H-75.988V3.04h4.608V-14.24h8.128ZM-67.6-21.824H-71.38v-1.088H-67.6Zm-3.776,3.072H-67.6V-17.5H-71.38Zm18.24-3.072h-3.936v-1.088h3.936Zm-3.936,3.072h3.936v1.344h-3.936Zm-3.3,10.88h-4.064V-9.216h4.064ZM-64.436-4.64h4.064V-3.3h-4.064Zm45.7-24.88c5.76-2.3,9.144-6.84,9.144-12.456,0-7.344-5.76-13.536-16.56-13.536-5.976,0-11.808,1.8-14.688,3.6l2.448,9.072A19.333,19.333,0,0,1-29.244-45.5c4.536,0,6.912,2.376,6.912,5.688,0,4.608-4.968,6.552-9,6.552h-3.24v8.856h3.6c5.256,0,10.152,2.448,10.152,7.92,0,4.1-3.168,7.344-8.784,7.344a22.139,22.139,0,0,1-10.3-2.808l-2.664,9.576C-39.756-.648-34.5.792-28.524.792c12.96,0,20.592-7.416,20.592-16.632a13.634,13.634,0,0,0-10.8-13.536ZM16.26.792C27.924.792,34.836-9.72,34.836-27.576c0-13.608-4.248-27.936-18.36-27.936-13.1,0-18.792,12.888-18.792,28.3C-2.316-13.464,2.292.792,16.26.792ZM16.4-9.288c-3.96,0-6.048-5.616-6.048-18.072s2.3-18.072,6.048-18.072c3.96,0,5.76,6.336,5.76,18.072C22.164-12.456,19.428-9.288,16.4-9.288ZM56.652.792C68.316.792,75.228-9.72,75.228-27.576c0-13.608-4.248-27.936-18.36-27.936-13.1,0-18.792,12.888-18.792,28.3C38.076-13.464,42.684.792,56.652.792ZM56.8-9.288c-3.96,0-6.048-5.616-6.048-18.072s2.3-18.072,6.048-18.072c3.96,0,5.76,6.336,5.76,18.072C62.556-12.456,59.82-9.288,56.8-9.288ZM85.684-27.3c-1.632,4.928-4.384,10.048-7.04,12.864a52.051,52.051,0,0,1,2.144,4.768,33.992,33.992,0,0,0,2.24-2.784V3.04H87.54V-18.24c.576-.064.864-.32.928-.64l-1.344-.352A64.028,64.028,0,0,0,89.78-25.12a.986.986,0,0,0,.992-.416Zm16.16,15.84v-5.312h6.976v-4.416h-6.976V-25.92c.672-.1.96-.32.992-.7l-5.728-.288v5.728H94.9c.32-.992.576-1.952.832-2.912.448.032.768-.128.864-.416l-5.024-1.344a33.9,33.9,0,0,1-3.84,10.592,25.834,25.834,0,0,1,3.648,2.24,23.988,23.988,0,0,0,1.888-3.744h3.84v5.312h-8.32v4.448h8.32V3.072h4.736V-7.008h8v-4.448ZM-49.28,42.752h4.448V40.928h6.3V42.5h4.672V14.272H-49.28ZM-38.528,29.28h-6.3V26.016h6.3Zm0-7.456h-6.3V18.656h6.3Zm-6.3,11.648h6.3v3.264h-6.3Zm-5.44-9.984V19.1h-3.68V13.6c.64-.128.9-.32.928-.672L-58.4,12.64V19.1h-4.288v4.384h3.712a28.186,28.186,0,0,1-4.576,9.888,25.561,25.561,0,0,1,2.144,4.416A24.973,24.973,0,0,0-58.4,31.936v11.1h4.448V30.56c.7,1.216,1.344,2.464,1.792,3.392l2.56-3.744c-.608-.8-3.2-4.1-4.352-5.344V23.488Zm20.512,7.968v11.1h3.872V41.44h6.112V31.456Zm13.856,4.48a14.2,14.2,0,0,0,2.88-6.752l-4.032-.8a11.858,11.858,0,0,1-2.688,5.664Zm-7.808,1.856h-2.176v-2.72h2.176ZM-11.968,12.64c-.224,6.112-.512,9.76-7.232,11.872a11.8,11.8,0,0,1,2.56,3.648,12.769,12.769,0,0,0,6.656-4.608A49.657,49.657,0,0,1-3.968,27.9L-.9,24.416A59.628,59.628,0,0,0-8.288,19.68a36.12,36.12,0,0,0,.8-5.984q.816-.144.864-.672Zm-17.7,9.888v3.456h9.824V22.528Zm.1-8.96v3.456H-19.9V13.568Zm24.128.608a30.1,30.1,0,0,1-2.144,5.248l3.36,1.44a37.92,37.92,0,0,0,2.656-4.576,1.017,1.017,0,0,0,.96-.352Zm-9.92,7.04a12.453,12.453,0,0,0,2.464-6.08l-3.776-.736a11.473,11.473,0,0,1-2.144,5.088V17.952H-31.2v3.616h12.384V19.776Zm7.84,6.048c.64-.128.992-.384,1.024-.768l-5.792-.224v5.12c0,2.336-1.888,5.952-7.328,7.9a19.844,19.844,0,0,1,2.56,3.808c3.712-1.408,6.432-4.544,7.168-6.528A11.859,11.859,0,0,0-3.3,43.1,39.328,39.328,0,0,1-.608,39.136c-3.552-1.344-5.44-3.3-6.272-5.12l2.624,1.12A33.206,33.206,0,0,0-1.376,30.3c.48,0,.832-.1.96-.384l-4.928-1.792A32.437,32.437,0,0,1-7.328,32.8a5.514,5.514,0,0,1-.192-1.408ZM-19.84,30.4V26.944h-9.824V30.4Zm49.952,1.024H18.048a5.545,5.545,0,0,0,.1-1.024h7.744V26.688H18.176V25.76h8.96v-2.5h2.592v-7.3H18.3V13.6c.672-.1.928-.32.96-.672l-5.76-.32v3.36H2.3v7.3H5.088v2.5h8.384v.928H6.144V30.4h7.3c-.032.352-.064.672-.128,1.024H2.016v3.9h9.12C9.408,36.992,6.4,38.4,1.312,39.392a18.637,18.637,0,0,1,2.88,3.744c6.144-1.536,9.76-3.776,11.744-6.464,2.528,3.552,6.144,5.536,12,6.432a16.721,16.721,0,0,1,2.72-4.064c-4.768-.416-8.128-1.632-10.336-3.712h9.792ZM6.912,20H24.864v2.048H18.176v-.864c.672-.1.928-.352.96-.7l-5.664-.288v1.856H6.912Zm54.5,5.088H46.592v12.8h1.92A25.8,25.8,0,0,1,43.2,40.32a26.2,26.2,0,0,1,2.816,2.848,24.176,24.176,0,0,0,6.976-3.648.953.953,0,0,0,.576-.224l-2.144-1.408h4.9L54.368,39.3c1.792,1.184,3.968,2.816,5.12,3.776l4.032-2.144c-1.152-.8-3.008-1.952-4.768-3.04h2.656ZM57.024,31.1v.736H50.752V31.1Zm0-3.264v.7H50.752v-.7Zm0,6.56v.736H50.752V34.4ZM41.5,30.176l1.056-.1a10.283,10.283,0,0,1,.32,1.472l3.552-1.568A27.43,27.43,0,0,0,43.68,23.04l-2.848,1.184c1.376-1.856,2.688-3.776,3.648-5.376a1.111,1.111,0,0,0,.992-.384l-4.256-1.92a44.589,44.589,0,0,1-2.688,4.864c-.192-.256-.416-.544-.64-.8a46.436,46.436,0,0,0,3.1-5.792,1.081,1.081,0,0,0,.96-.352L37.5,12.672a44.33,44.33,0,0,1-2.144,5.344l-.544-.48-2.176,3.2a25.907,25.907,0,0,1,3.552,4.224c-.416.576-.832,1.12-1.248,1.664h-2.3l.832,4.544a.7.7,0,0,0,.64-.512c.96-.032,2.112-.128,3.36-.192v2.112l-3.68-.832a27.27,27.27,0,0,1-1.344,7.424,23.179,23.179,0,0,1,3.232,1.568,27.777,27.777,0,0,0,1.7-7.616h.1v9.92H41.5v-8.7a36.5,36.5,0,0,1,1.28,4.7c1.216-.448,2.4-.864,3.584-1.28a50.125,50.125,0,0,0-1.984-6.144l-2.88.928Zm5.056-12.16V20.8h5.024v.7H44.448v2.912H63.2V21.5H56.224v-.7h5.184V18.016H56.224v-.672H62.56V14.432H56.224v-.8c.672-.128.928-.32.96-.7l-5.6-.288v1.792H45.408v2.912h6.176v.672ZM39.008,26.56c.48-.608.992-1.248,1.5-1.92.288.608.576,1.248.832,1.888Z" transform="translate(606.91 922.325)" fill="#fff"/>
    <path id="パス_2098" data-name="パス 2098" d="M-61.23-8.01H-73.65c.09-.48.15-.99.21-1.53.54-.06.84-.3.9-.63l-1.08-.09c3.69-2.76,4.59-6.6,5.07-10.68h2.4c-.18,4.35-.39,6.09-.75,6.57a1,1,0,0,1-.9.42c-.51,0-1.29-.03-2.22-.12a10.422,10.422,0,0,1,1.11,3.87c3.45.09,4.59-.21,5.58-1.5.81-1.05,1.11-4.08,1.35-11.52l.09-1.2-2.28-.18-.93.03H-75.42v3.63h2.91c-.33,3.18-1.05,5.88-3.75,7.86l-.03-1.77-4.02.3v-1.5h3.12v-3.21h-3.12v-1.32h3.99v-3.21h-3.99v-.99c.6-.09.84-.3.87-.6l-4.89-.27v1.86H-88.5v3.21h4.17v1.32h-3.42v3.21h3.42v1.77l-4.92.3,1.05,3.9a.666.666,0,0,0,.57-.48c2.4-.24,5.97-.63,9.6-1.05a8.152,8.152,0,0,1,.96,1.05l-.78-.06c-.06.96-.12,1.83-.24,2.61H-88.77v3.63h9.3c-1.44,1.8-4.23,2.91-9.93,3.63a12,12,0,0,1,2.07,3.66c7.56-1.17,10.8-3.27,12.36-6.27,2.25,3.75,5.58,5.58,11.76,6.24a16.356,16.356,0,0,1,2.64-4.17c-4.95-.21-8.16-1.11-10.17-3.09h9.51Zm26.46-12.33h-6.09c.42-1.2.75-2.4,1.05-3.6a.819.819,0,0,0,.87-.42l-5.1-1.29a29.736,29.736,0,0,1-3.93,10.44c-.21-.3-.39-.6-.57-.87-.99.51-1.98.99-2.97,1.53h-.03a65.445,65.445,0,0,0,3.9-5.31,1.068,1.068,0,0,0,.96-.36l-4.14-1.89a48.276,48.276,0,0,1-2.88,4.8c-.21-.27-.45-.54-.69-.81a44.959,44.959,0,0,0,3.27-5.43.93.93,0,0,0,.93-.33l-4.29-1.74a33.45,33.45,0,0,1-2.4,5.22l-.54-.42-1.95,3a26.3,26.3,0,0,1,3.45,3.63c-.45.57-.9,1.14-1.35,1.65H-59.4l.78,4.26a.669.669,0,0,0,.6-.45c.96-.06,2.1-.12,3.36-.21v2.07l-3.48-.81A24.145,24.145,0,0,1-59.55-.72,18.409,18.409,0,0,1-56.37.84a26.217,26.217,0,0,0,1.68-6.72h.03V2.85h3.99V-5.73A43.816,43.816,0,0,1-49.08-.42l3.57-1.35a52.12,52.12,0,0,0-2.07-5.91l-3.09,1.05V-9.24l1.65-.12a12.817,12.817,0,0,1,.45,1.44l3.3-1.77a21.174,21.174,0,0,0-2.19-4.65,21.153,21.153,0,0,1,2.79,1.98,25.794,25.794,0,0,0,2.22-3.87h6.63c-.21,9.48-.51,13.65-1.29,14.52a1.424,1.424,0,0,1-1.26.54c-.81,0-2.43,0-4.23-.15a9.824,9.824,0,0,1,1.38,4.11c.72.03,1.44.03,2.16.03,3.21,0,4.56-.39,5.73-2.04,1.14-1.59,1.47-6.27,1.74-19.59.03-.48.06-1.08.06-1.41l-2.31-.15ZM-53.19-12.6q.81-.9,1.62-1.89c.36.57.72,1.2,1.05,1.86ZM-38.1-6.54a27.051,27.051,0,0,0-3.75-6.69l-3.48,1.74a28.441,28.441,0,0,1,3.45,6.9ZM-4.65-21.9h-8.52v-2.73H-29.13v4.02h2.22V-5.19c-.87.09-1.68.21-2.4.27l1.47,4.71a.7.7,0,0,0,.57-.54c1.98-.33,4.74-.87,7.62-1.44V2.85h4.23V-.18a18.626,18.626,0,0,1,2.28,3.03,20.374,20.374,0,0,0,5.1-4.5,18.162,18.162,0,0,0,4.71,4.5A15.959,15.959,0,0,1-.3-.75,16.265,16.265,0,0,1-5.46-5.61,40.587,40.587,0,0,0-1.65-20.49a2.642,2.642,0,0,0,.33-.72l-2.58-.81Zm-9.66,1.29v2.97h7.98A33.734,33.734,0,0,1-8.1-10.68a38.913,38.913,0,0,1-1.95-6.96l-3.9.75A46.586,46.586,0,0,0-10.53-5.82a15.422,15.422,0,0,1-4.89,4.77V-20.61Zm-5.34,6.18v2.34h-3.12v-2.34Zm0-3.87h-3.12v-2.31h3.12ZM-22.77-8.22h3.12v2.13l-3.12.39ZM18.36-24.39a90.34,90.34,0,0,1,.75,11.1c0,3.69-1.53,8.49-9.78,11.7a26.369,26.369,0,0,1,3.3,3.63c9.78-4.05,11.52-9.6,11.55-15.39,0-3.99-.27-7.83-.51-10.08q.675-.225.72-.72ZM11.13-8.4a7.488,7.488,0,0,1-.06-.75,2.746,2.746,0,0,1,.12-.78,28.162,28.162,0,0,1,3.27-5.49,24.628,24.628,0,0,1-1.98-2.91,27.1,27.1,0,0,0-2.19,3.78h-.03a35.671,35.671,0,0,1,1.11-7.59.894.894,0,0,0,.72-.54L6.6-23.37a56.146,56.146,0,0,0-.81,8.73,33.548,33.548,0,0,0,.78,6.93Zm40.68-8.16v-8.19c.63-.12.87-.3.9-.66l-5.31-.27v9.12H41.64V2.88H45.9V-2.73h7.62v1.05c0,.39-.15.51-.6.54-.45,0-2.04,0-3.21-.09a15.439,15.439,0,0,1,1.26,4.05c5.37,0,6.81-.69,6.81-4.44V-16.56Zm1.71,5.28H45.9v-1.23h7.62ZM45.9-7.65h7.62v1.29H45.9Zm1.08-11.1a22.786,22.786,0,0,0-3.39-5.85l-3.33,1.71a24.517,24.517,0,0,0-5.31-2.7l-2.37,3.21a23.053,23.053,0,0,1,5.55,3.36l2.28-3.18a23.268,23.268,0,0,1,2.73,5.49ZM54.9-24.9a33.017,33.017,0,0,1-2.82,6.45s3.6,1.56,3.63,1.56a37.05,37.05,0,0,0,2.94-5.76.985.985,0,0,0,.96-.36ZM30.69-14.25a23.866,23.866,0,0,1,5.61,3.3l2.46-3.6a24.343,24.343,0,0,0-5.79-2.97ZM35.97,2.79a.988.988,0,0,0,.18-.57,1.124,1.124,0,0,0-.21-.63C37.38-.75,39-3.78,40.5-6.87L37.23-9.72A90.982,90.982,0,0,1,31.77-.36ZM66.96-24.33c-.21,3.57-.39,12-.39,16.14,0,6,2.49,9.87,9.69,9.87,4.11,0,7.95-1.56,11.79-5.16a33.312,33.312,0,0,1-2.58-4.14c-3.42,3.18-6.54,4.56-9.18,4.56-2.91,0-4.74-1.62-4.74-5.16,0-4.38.3-10.95.57-15.18.57-.09.84-.36.9-.72Zm-177.9,38.85v7.92h24.18V14.52Zm10.47,4.74V17.7h2.88v1.56Zm-6.45,0V17.7h2.85v1.56Zm12.93,0V17.7h3v1.56Zm5.52,4.05h-20.49V36.57h3.84a39.559,39.559,0,0,1-7.89,2.37,31.133,31.133,0,0,1,2.97,3,51.608,51.608,0,0,0,9.36-3.48,1.02,1.02,0,0,0,.3.03.744.744,0,0,0,.6-.24l-3.39-1.68h8.22l-2.76,1.74a58.246,58.246,0,0,1,8.28,3.57l4.8-2.13c-2.01-.9-5.28-2.13-8.28-3.18h4.44Zm-4.41,6.12v.99h-11.88v-.99Zm0-3.45v.96h-11.88v-.96Zm0,6.93v.99h-11.88v-.99Zm23.28-5.04c-.03.78-.06,1.5-.12,2.16h-5.85q.135-1.125.18-2.16Zm13.65,2.16h-9.36c.06-.63.09-1.29.15-1.98a1.139,1.139,0,0,0,.54-.18h6.87v-8.1H-79.71V25.2c0,4.08-.27,10.05-3.63,14.07a17.715,17.715,0,0,1,3.87,2.34,14.4,14.4,0,0,0,1.92-3.3,12.618,12.618,0,0,1,2.31,3.54c4.56-1.2,6.96-3,8.28-5.37,1.95,2.91,4.77,4.56,9.48,5.31a15.732,15.732,0,0,1,2.61-3.93c-4.68-.39-7.53-1.68-9.15-4.11h8.07Zm-6.09-5.4H-75.33V23.01h13.29Zm-8.49,9.12c-.93,2.1-2.85,3.54-6.99,4.5a22.447,22.447,0,0,0,1.41-4.5Zm-11.79-18.9v3.9h26.73v-3.9Zm35.34-.18c-.21,3.57-.39,12-.39,16.14,0,6,2.49,9.87,9.69,9.87,4.11,0,7.95-1.56,11.79-5.16a33.313,33.313,0,0,1-2.58-4.14c-3.42,3.18-6.54,4.56-9.18,4.56-2.91,0-4.74-1.62-4.74-5.16,0-4.38.3-10.95.57-15.18.57-.09.84-.36.9-.72ZM4.29,30.96H-7.02A5.2,5.2,0,0,0-6.93,30H.33V26.52H-6.9v-.87H1.5V23.31H3.93V16.47H-6.78V14.25c.63-.09.87-.3.9-.63l-5.4-.3v3.15h-10.5v6.84h2.61v2.34h7.86v.87h-6.87V30h6.84c-.03.33-.06.63-.12.96H-22.05v3.66h8.55c-1.62,1.56-4.44,2.88-9.21,3.81a17.472,17.472,0,0,1,2.7,3.51C-14.25,40.5-10.86,38.4-9,35.88c2.37,3.33,5.76,5.19,11.25,6.03A15.676,15.676,0,0,1,4.8,38.1c-4.47-.39-7.62-1.53-9.69-3.48H4.29ZM-17.46,20.25H-.63v1.92H-6.9v-.81c.63-.09.87-.33.9-.66l-5.31-.27v1.74h-6.15Zm51.09,4.77H19.74v12h1.8a24.187,24.187,0,0,1-4.98,2.28,24.563,24.563,0,0,1,2.64,2.67,22.665,22.665,0,0,0,6.54-3.42.894.894,0,0,0,.54-.21l-2.01-1.32h4.59l-1.83,1.32c1.68,1.11,3.72,2.64,4.8,3.54l3.78-2.01c-1.08-.75-2.82-1.83-4.47-2.85h2.49Zm-4.11,5.64v.69H23.64v-.69Zm0-3.06v.66H23.64V27.6Zm0,6.15v.69H23.64v-.69ZM14.97,29.79l.99-.09a9.641,9.641,0,0,1,.3,1.38l3.33-1.47a25.715,25.715,0,0,0-2.58-6.51l-2.67,1.11c1.29-1.74,2.52-3.54,3.42-5.04a1.042,1.042,0,0,0,.93-.36l-3.99-1.8a41.8,41.8,0,0,1-2.52,4.56c-.18-.24-.39-.51-.6-.75a43.533,43.533,0,0,0,2.91-5.43,1.014,1.014,0,0,0,.9-.33l-4.17-1.68a41.559,41.559,0,0,1-2.01,5.01l-.51-.45-2.04,3A24.287,24.287,0,0,1,9.99,24.9c-.39.54-.78,1.05-1.17,1.56H6.66l.78,4.26a.659.659,0,0,0,.6-.48c.9-.03,1.98-.12,3.15-.18v1.98l-3.45-.78a25.566,25.566,0,0,1-1.26,6.96,21.73,21.73,0,0,1,3.03,1.47,26.041,26.041,0,0,0,1.59-7.14h.09v9.3h3.78V33.69a34.221,34.221,0,0,1,1.2,4.41c1.14-.42,2.25-.81,3.36-1.2a46.992,46.992,0,0,0-1.86-5.76l-2.7.87Zm4.74-11.4V21h4.71v.66H17.73v2.73H35.31V21.66H28.77V21h4.86V18.39H28.77v-.63h5.94V15.03H28.77v-.75c.63-.12.87-.3.9-.66l-5.25-.27v1.68H18.63v2.73h5.79v.63ZM12.63,26.4c.45-.57.93-1.17,1.41-1.8.27.57.54,1.17.78,1.77Zm48.21.24H56.31a17.323,17.323,0,0,0,1.26-1.32.924.924,0,0,0,.96-.54l-4.05-.87a19.57,19.57,0,0,0,6.09-6.57,1.154,1.154,0,0,0,.54-.45L58.08,15.3l-.69.15h-5.1l.6-.63a.86.86,0,0,0,.9-.51L48.6,13.23c-2.04,2.43-5.64,4.8-10.92,6.42a13.391,13.391,0,0,1,2.88,3.21A39.025,39.025,0,0,0,48,18.99h6.27a17.511,17.511,0,0,1-3.48,2.67,26.418,26.418,0,0,0-3.09-1.71l-2.94,2.37c.66.36,1.41.81,2.13,1.29a42.386,42.386,0,0,1-9.45,2.46,15.132,15.132,0,0,1,1.98,3.69,43.943,43.943,0,0,0,11.61-3.78v.03a28.243,28.243,0,0,1-10.23,5.1,14.517,14.517,0,0,1,2.64,3.39,38.609,38.609,0,0,0,8.49-4.26h6.18a13.549,13.549,0,0,1-3.69,3.45,29.415,29.415,0,0,0-3.21-2.22L48,33.78c.78.54,1.68,1.2,2.49,1.86a41.42,41.42,0,0,1-10.74,2.25,16.024,16.024,0,0,1,1.89,3.96c10.65-1.41,18.9-4.86,22.44-13.41a1.319,1.319,0,0,0,.51-.48l-3.03-1.47ZM95.31,22.8V18.78H87.78c.3-1.32.54-2.64.75-3.99.45,0,.75-.18.84-.48l-5.07-.99c-.63,5.49-2.01,11.01-4.35,13.92a24.839,24.839,0,0,1,3.15,2.97,13.3,13.3,0,0,0,.87-1.26,34.311,34.311,0,0,0,1.59,4.5A12.709,12.709,0,0,1,81,37.41a25.17,25.17,0,0,0-2.25-1.26,13.044,13.044,0,0,0,1.29-3.27H82.2V29.34H75.24l.39-.81c.57.03.84-.12.93-.45l-3.9-.81-.72-.15c-.33.69-.69,1.44-1.08,2.22H66.81v3.54H69c-.63,1.14-1.26,2.22-1.8,3.09l3.81,1.11.12-.21c.27.12.54.21.81.33a17.662,17.662,0,0,1-4.95,1.08,9.11,9.11,0,0,1,1.71,3.6,18.759,18.759,0,0,0,7.29-2.67,21.815,21.815,0,0,1,2.82,1.89l1.56-1.77a22.589,22.589,0,0,1,1.38,2.55,17.649,17.649,0,0,0,6.15-4.35,16.056,16.056,0,0,0,4.74,4.35,17.121,17.121,0,0,1,3.03-3.81,13.923,13.923,0,0,1-5.07-4.53,34.351,34.351,0,0,0,3-10.74Zm-6.18,0a34.379,34.379,0,0,1-1.08,5.4,36.438,36.438,0,0,1-1.32-5.4ZM73.38,32.88h2.46a7.7,7.7,0,0,1-.69,1.59c-.72-.3-1.47-.57-2.19-.81Zm3.27-5.61V25.56c.87.72,1.68,1.44,2.22,1.95l2.28-2.94c-.69-.45-3.33-1.83-4.5-2.37v-.21h5.43V18.51H79.77a32.709,32.709,0,0,0,2.16-2.7.853.853,0,0,0,.84-.3l-4.05-1.56a23.047,23.047,0,0,1-2.07,3.63V14.22c.6-.09.84-.3.87-.6l-4.86-.27v5.16H70.83l1.74-.84a13.956,13.956,0,0,0-2.01-3.75l-3,1.41a16.57,16.57,0,0,1,1.59,3.18H66.93v3.48h4.68a15.278,15.278,0,0,1-5.04,3.3,14.662,14.662,0,0,1,2.19,3.12,20.612,20.612,0,0,0,3.9-2.82v1.68Zm2.07-8.76H76.65v-.93Zm24.57-2.7H97.74l.72,15.45h4.14Zm-2.76,23.52a2.921,2.921,0,0,0,3.03-3.12,2.963,2.963,0,0,0-3.03-3.15,3.137,3.137,0,0,0,0,6.27Zm11.7-23.52h-5.55l.72,15.45h4.14Zm-2.76,23.52a2.921,2.921,0,0,0,3.03-3.12,2.963,2.963,0,0,0-3.03-3.15,3.137,3.137,0,0,0,0,6.27Z" transform="translate(606.91 1026.325)" fill="#fff"/>
  </g>
</svg>
