<svg xmlns="http://www.w3.org/2000/svg" width="300.001" height="300.001" viewBox="0 0 300.001 300.001">
  <g id="グループ_111" data-name="グループ 111" transform="translate(-456.91 -829.326)">
    <circle id="楕円形_5" data-name="楕円形 5" cx="150.001" cy="150.001" r="150.001" transform="translate(456.91 829.326)" fill="#f29600"/>
    <path id="パス_2099" data-name="パス 2099" d="M-85.722-11.214H-103.11c.126-.672.21-1.386.294-2.142.756-.084,1.176-.42,1.26-.882l-1.512-.126c5.166-3.864,6.426-9.24,7.1-14.952h3.36c-.252,6.09-.546,8.526-1.05,9.2a1.407,1.407,0,0,1-1.26.588c-.714,0-1.806-.042-3.108-.168a14.591,14.591,0,0,1,1.554,5.418c4.83.126,6.426-.294,7.812-2.1,1.134-1.47,1.554-5.712,1.89-16.128l.126-1.68-3.192-.252-1.3.042h-14.448v5.082h4.074c-.462,4.452-1.47,8.232-5.25,11l-.042-2.478-5.628.42v-2.1h4.368v-4.494h-4.368v-1.848h5.586v-4.494h-5.586v-1.386c.84-.126,1.176-.42,1.218-.84l-6.846-.378v2.6H-123.9v4.494h5.838v1.848h-4.788v4.494h4.788v2.478l-6.888.42,1.47,5.46a.932.932,0,0,0,.8-.672c3.36-.336,8.358-.882,13.44-1.47a11.413,11.413,0,0,1,1.344,1.47l-1.092-.084c-.084,1.344-.168,2.562-.336,3.654h-14.952v5.082h13.02c-2.016,2.52-5.922,4.074-13.9,5.082a16.8,16.8,0,0,1,2.9,5.124c10.584-1.638,15.12-4.578,17.3-8.778,3.15,5.25,7.812,7.812,16.464,8.736a22.9,22.9,0,0,1,3.7-5.838C-91.728-2.1-96.222-3.36-99.036-6.132h13.314Zm37.044-17.262H-57.2c.588-1.68,1.05-3.36,1.47-5.04a1.147,1.147,0,0,0,1.218-.588l-7.14-1.806c-1.05,5.376-3.066,11.13-5.5,14.616-.294-.42-.546-.84-.8-1.218-1.386.714-2.772,1.386-4.158,2.142h-.042A91.623,91.623,0,0,0-66.7-27.8a1.5,1.5,0,0,0,1.344-.5l-5.8-2.646a67.586,67.586,0,0,1-4.032,6.72c-.294-.378-.63-.756-.966-1.134a62.943,62.943,0,0,0,4.578-7.6,1.3,1.3,0,0,0,1.3-.462l-6.006-2.436a46.829,46.829,0,0,1-3.36,7.308l-.756-.588-2.73,4.2a36.814,36.814,0,0,1,4.83,5.082c-.63.8-1.26,1.6-1.89,2.31H-83.16l1.092,5.964a.937.937,0,0,0,.84-.63c1.344-.084,2.94-.168,4.7-.294v2.9L-81.4-10.752c-.294,3.486-.924,7.434-1.974,9.744a25.773,25.773,0,0,1,4.452,2.184,36.7,36.7,0,0,0,2.352-9.408h.042V3.99h5.586V-8.022A61.341,61.341,0,0,1-68.712-.588l5-1.89a72.97,72.97,0,0,0-2.9-8.274l-4.326,1.47v-3.654l2.31-.168A17.944,17.944,0,0,1-68-11.088l4.62-2.478a29.643,29.643,0,0,0-3.066-6.51A29.615,29.615,0,0,1-62.538-17.3a36.111,36.111,0,0,0,3.108-5.418h9.282c-.294,13.272-.714,19.11-1.806,20.328a1.993,1.993,0,0,1-1.764.756c-1.134,0-3.4,0-5.922-.21a13.754,13.754,0,0,1,1.932,5.754c1.008.042,2.016.042,3.024.042,4.494,0,6.384-.546,8.022-2.856,1.6-2.226,2.058-8.778,2.436-27.426.042-.672.084-1.512.084-1.974l-3.234-.21ZM-74.466-17.64q1.134-1.26,2.268-2.646c.5.8,1.008,1.68,1.47,2.6ZM-53.34-9.156a37.872,37.872,0,0,0-5.25-9.366l-4.872,2.436a39.817,39.817,0,0,1,4.83,9.66Zm46.83-21.5H-18.438v-3.822H-40.782v5.628h3.108V-7.266c-1.218.126-2.352.294-3.36.378l2.058,6.594a.982.982,0,0,0,.8-.756c2.772-.462,6.636-1.218,10.668-2.016V3.99h5.922V-.252A26.077,26.077,0,0,1-18.4,3.99a28.523,28.523,0,0,0,7.14-6.3,25.427,25.427,0,0,0,6.594,6.3A22.343,22.343,0,0,1-.42-1.05a22.771,22.771,0,0,1-7.224-6.8C-4.788-13.44-3.066-20.328-2.31-28.686a3.7,3.7,0,0,0,.462-1.008L-5.46-30.828Zm-13.524,1.806V-24.7H-8.862a47.227,47.227,0,0,1-2.478,9.744A54.478,54.478,0,0,1-14.07-24.7l-5.46,1.05a65.22,65.22,0,0,0,4.788,15.5A21.591,21.591,0,0,1-21.588-1.47V-28.854ZM-27.51-20.2v3.276h-4.368V-20.2Zm0-5.418h-4.368v-3.234h4.368Zm-4.368,14.112h4.368v2.982l-4.368.546ZM25.7-34.146a126.476,126.476,0,0,1,1.05,15.54c0,5.166-2.142,11.886-13.692,16.38a36.917,36.917,0,0,1,4.62,5.082c13.692-5.67,16.128-13.44,16.17-21.546,0-5.586-.378-10.962-.714-14.112q.945-.315,1.008-1.008ZM15.582-11.76a10.483,10.483,0,0,1-.084-1.05,3.845,3.845,0,0,1,.168-1.092,39.427,39.427,0,0,1,4.578-7.686,34.479,34.479,0,0,1-2.772-4.074,37.937,37.937,0,0,0-3.066,5.292h-.042A49.94,49.94,0,0,1,15.918-31a1.251,1.251,0,0,0,1.008-.756L9.24-32.718A78.6,78.6,0,0,0,8.106-20.5a46.967,46.967,0,0,0,1.092,9.7ZM72.534-23.184V-34.65c.882-.168,1.218-.42,1.26-.924l-7.434-.378v12.768H58.3V4.032H64.26V-3.822H74.928v1.47c0,.546-.21.714-.84.756-.63,0-2.856,0-4.494-.126a21.615,21.615,0,0,1,1.764,5.67c7.518,0,9.534-.966,9.534-6.216V-23.184Zm2.394,7.392H64.26v-1.722H74.928ZM64.26-10.71H74.928V-8.9H64.26Zm1.512-15.54a31.9,31.9,0,0,0-4.746-8.19l-4.662,2.394a34.324,34.324,0,0,0-7.434-3.78l-3.318,4.494a32.275,32.275,0,0,1,7.77,4.7l3.192-4.452A32.576,32.576,0,0,1,60.4-23.394ZM76.86-34.86a46.224,46.224,0,0,1-3.948,9.03s5.04,2.184,5.082,2.184A51.871,51.871,0,0,0,82.11-31.71a1.378,1.378,0,0,0,1.344-.5ZM42.966-19.95a33.412,33.412,0,0,1,7.854,4.62l3.444-5.04a34.08,34.08,0,0,0-8.106-4.158ZM50.358,3.906a1.383,1.383,0,0,0,.252-.8,1.574,1.574,0,0,0-.294-.882C52.332-1.05,54.6-5.292,56.7-9.618l-4.578-3.99A127.374,127.374,0,0,1,44.478-.5ZM93.744-34.062c-.294,5-.546,16.8-.546,22.6,0,8.4,3.486,13.818,13.566,13.818,5.754,0,11.13-2.184,16.506-7.224a46.638,46.638,0,0,1-3.612-5.8c-4.788,4.452-9.156,6.384-12.852,6.384-4.074,0-6.636-2.268-6.636-7.224,0-6.132.42-15.33.8-21.252.8-.126,1.176-.5,1.26-1.008ZM-58.8,15.728V26.816h33.852V15.728Zm14.658,6.636V20.18h4.032v2.184Zm-9.03,0V20.18h3.99v2.184Zm18.1,0V20.18h4.2v2.184Zm7.728,5.67H-56.028V46.6h5.376A55.382,55.382,0,0,1-61.7,49.916a43.585,43.585,0,0,1,4.158,4.2,72.252,72.252,0,0,0,13.1-4.872,1.429,1.429,0,0,0,.42.042,1.042,1.042,0,0,0,.84-.336L-47.922,46.6h11.508l-3.864,2.436a81.545,81.545,0,0,1,11.592,5l6.72-2.982c-2.814-1.26-7.392-2.982-11.592-4.452h6.216ZM-33.516,36.6v1.386H-50.148V36.6Zm0-4.83v1.344H-50.148V31.772Zm0,9.7V42.86H-50.148V41.474ZM-.924,34.418c-.042,1.092-.084,2.1-.168,3.024h-8.19q.189-1.575.252-3.024Zm19.11,3.024H5.082c.084-.882.126-1.806.21-2.772a1.6,1.6,0,0,0,.756-.252h9.618V23.078H-15.078v7.6c0,5.712-.378,14.07-5.082,19.7a24.8,24.8,0,0,1,5.418,3.276,20.154,20.154,0,0,0,2.688-4.62A17.666,17.666,0,0,1-8.82,53.99c6.384-1.68,9.744-4.2,11.592-7.518,2.73,4.074,6.678,6.384,13.272,7.434A22.025,22.025,0,0,1,19.7,48.4c-6.552-.546-10.542-2.352-12.81-5.754h11.3ZM9.66,29.882H-8.946V27.614H9.66ZM-2.226,42.65c-1.3,2.94-3.99,4.956-9.786,6.3a31.426,31.426,0,0,0,1.974-6.3ZM-18.732,16.19v5.46H18.69V16.19Zm49.476-.252c-.294,5-.546,16.8-.546,22.6,0,8.4,3.486,13.818,13.566,13.818,5.754,0,11.13-2.184,16.506-7.224a46.638,46.638,0,0,1-3.612-5.8c-4.788,4.452-9.156,6.384-12.852,6.384-4.074,0-6.636-2.268-6.636-7.224,0-6.132.42-15.33.8-21.252.8-.126,1.176-.5,1.26-1.008Zm-81.48,72.806H-66.57a7.278,7.278,0,0,0,.126-1.344H-56.28V82.528H-66.4V81.31h11.76V78.034h3.4V68.458H-66.234V65.35c.882-.126,1.218-.42,1.26-.882l-7.56-.42v4.41h-14.7v9.576h3.654V81.31h11v1.218h-9.618V87.4h9.576c-.042.462-.084.882-.168,1.344H-87.612v5.124h11.97C-77.91,96.052-81.858,97.9-88.536,99.2a24.46,24.46,0,0,1,3.78,4.914c8.064-2.016,12.81-4.956,15.414-8.484,3.318,4.662,8.064,7.266,15.75,8.442a21.946,21.946,0,0,1,3.57-5.334c-6.258-.546-10.668-2.142-13.566-4.872h12.852ZM-81.186,73.75h23.562v2.688H-66.4V75.3c.882-.126,1.218-.462,1.26-.924L-72.576,74v2.436h-8.61ZM-9.66,80.428H-29.106v16.8h2.52a33.862,33.862,0,0,1-6.972,3.192,34.39,34.39,0,0,1,3.7,3.738,31.732,31.732,0,0,0,9.156-4.788,1.251,1.251,0,0,0,.756-.294l-2.814-1.848h6.426L-18.9,99.076c2.352,1.554,5.208,3.7,6.72,4.956l5.292-2.814c-1.512-1.05-3.948-2.562-6.258-3.99H-9.66Zm-5.754,7.9v.966h-8.232v-.966Zm0-4.284v.924h-8.232V84.04Zm0,8.61v.966h-8.232V92.65Zm-20.37-5.544,1.386-.126a13.5,13.5,0,0,1,.42,1.932l4.662-2.058a36,36,0,0,0-3.612-9.114l-3.738,1.554c1.806-2.436,3.528-4.956,4.788-7.056a1.459,1.459,0,0,0,1.3-.5l-5.586-2.52A58.523,58.523,0,0,1-39.69,75.6c-.252-.336-.546-.714-.84-1.05a60.947,60.947,0,0,0,4.074-7.6,1.419,1.419,0,0,0,1.26-.462l-5.838-2.352a58.184,58.184,0,0,1-2.814,7.014l-.714-.63-2.856,4.2a34,34,0,0,1,4.662,5.544c-.546.756-1.092,1.47-1.638,2.184h-3.024l1.092,5.964a.923.923,0,0,0,.84-.672c1.26-.042,2.772-.168,4.41-.252v2.772l-4.83-1.092c-.252,3.486-.8,7.434-1.764,9.744a30.422,30.422,0,0,1,4.242,2.058,36.458,36.458,0,0,0,2.226-10h.126v13.02h5.292V92.566A47.908,47.908,0,0,1-34.1,98.74c1.6-.588,3.15-1.134,4.7-1.68A65.788,65.788,0,0,0-32,89l-3.78,1.218Zm6.636-15.96V74.8h6.594v.924H-31.92v3.822H-7.308V75.724h-9.156V74.8h6.8V71.146h-6.8v-.882h8.316V66.442h-8.316v-1.05c.882-.168,1.218-.42,1.26-.924l-7.35-.378v2.352H-30.66v3.822h8.106v.882ZM-39.06,82.36c.63-.8,1.3-1.638,1.974-2.52.378.8.756,1.638,1.092,2.478Zm67.494.336H22.092a24.253,24.253,0,0,0,1.764-1.848,1.294,1.294,0,0,0,1.344-.756l-5.67-1.218a27.4,27.4,0,0,0,8.526-9.2,1.616,1.616,0,0,0,.756-.63L24.57,66.82l-.966.21h-7.14l.84-.882a1.2,1.2,0,0,0,1.26-.714L11.3,63.922c-2.856,3.4-7.9,6.72-15.288,8.988A18.747,18.747,0,0,1,.042,77.4a54.634,54.634,0,0,0,10.416-5.418h8.778a24.515,24.515,0,0,1-4.872,3.738,36.985,36.985,0,0,0-4.326-2.394L5.922,76.648c.924.5,1.974,1.134,2.982,1.806A59.34,59.34,0,0,1-4.326,81.9a21.185,21.185,0,0,1,2.772,5.166A61.52,61.52,0,0,0,14.7,81.772v.042A39.54,39.54,0,0,1,.378,88.954a20.324,20.324,0,0,1,3.7,4.746A54.053,54.053,0,0,0,15.96,87.736h8.652a18.969,18.969,0,0,1-5.166,4.83,41.179,41.179,0,0,0-4.494-3.108l-4.494,3.234c1.092.756,2.352,1.68,3.486,2.6a57.988,57.988,0,0,1-15.036,3.15,22.433,22.433,0,0,1,2.646,5.544c14.91-1.974,26.46-6.8,31.416-18.774a1.846,1.846,0,0,0,.714-.672l-4.242-2.058ZM76.692,77.32V71.692H66.15c.42-1.848.756-3.7,1.05-5.586.63,0,1.05-.252,1.176-.672l-7.1-1.386c-.882,7.686-2.814,15.414-6.09,19.488a34.773,34.773,0,0,1,4.41,4.158,18.625,18.625,0,0,0,1.218-1.764,48.036,48.036,0,0,0,2.226,6.3,17.792,17.792,0,0,1-6.384,5.544,35.234,35.234,0,0,0-3.15-1.764,18.262,18.262,0,0,0,1.806-4.578h3.024V86.476H48.594l.546-1.134c.8.042,1.176-.168,1.3-.63l-5.46-1.134-1.008-.21c-.462.966-.966,2.016-1.512,3.108h-5.67v4.956h3.066c-.882,1.6-1.764,3.108-2.52,4.326l5.334,1.554.168-.294c.378.168.756.294,1.134.462a24.728,24.728,0,0,1-6.93,1.512,12.754,12.754,0,0,1,2.394,5.04c4.494-.882,7.77-2.016,10.206-3.738a30.541,30.541,0,0,1,3.948,2.646l2.184-2.478a31.625,31.625,0,0,1,1.932,3.57,24.708,24.708,0,0,0,8.61-6.09,22.479,22.479,0,0,0,6.636,6.09A23.97,23.97,0,0,1,77.2,98.7a19.492,19.492,0,0,1-7.1-6.342A48.092,48.092,0,0,0,74.3,77.32Zm-8.652,0a48.132,48.132,0,0,1-1.512,7.56,51.012,51.012,0,0,1-1.848-7.56ZM45.99,91.432h3.444a10.78,10.78,0,0,1-.966,2.226c-1.008-.42-2.058-.8-3.066-1.134Zm4.578-7.854V81.184c1.218,1.008,2.352,2.016,3.108,2.73L56.868,79.8c-.966-.63-4.662-2.562-6.3-3.318v-.294h7.6V71.314H54.936a45.792,45.792,0,0,0,3.024-3.78,1.194,1.194,0,0,0,1.176-.42l-5.67-2.184a32.265,32.265,0,0,1-2.9,5.082v-4.7c.84-.126,1.176-.42,1.218-.84l-6.8-.378v7.224H42.42l2.436-1.176a19.538,19.538,0,0,0-2.814-5.25l-4.2,1.974a23.2,23.2,0,0,1,2.226,4.452H36.96v4.872h6.552a21.389,21.389,0,0,1-7.056,4.62,20.526,20.526,0,0,1,3.066,4.368,28.857,28.857,0,0,0,5.46-3.948v2.352Zm2.9-12.264h-2.9v-1.3Zm34.4-3.78h-7.77L81.1,89.164h5.8ZM84,100.462a4.09,4.09,0,0,0,4.242-4.368A4.148,4.148,0,0,0,84,91.684a4.392,4.392,0,0,0,0,8.778Zm3.864-32.928h-7.77L81.1,89.164h5.8ZM84,100.462a4.09,4.09,0,0,0,4.242-4.368A4.148,4.148,0,0,0,84,91.684a4.392,4.392,0,0,0,0,8.778Z" transform="translate(606.91 945.326)" fill="#fff"/>
  </g>
</svg>
