<svg xmlns="http://www.w3.org/2000/svg" width="500.5" height="286.018" viewBox="0 0 500.5 286.018">
  <g id="グループ_5" data-name="グループ 5" transform="translate(-86.19 -138.571)">
    <path id="前面オブジェクトで型抜き_1" data-name="前面オブジェクトで型抜き 1" d="M157.946,285h0L0,271.415V38.949L158.091,0h0l51.273,17.681L195.317,45.735l22.15,25.619L202.31,101.626l22.15,25.615L209.3,157.514l22.15,25.616-22.08,44.1,41.208-41.449-16.6-29.5,20.879-26.66-16.6-29.5,20.882-26.656-16.6-29.5,9.151-11.681,47.432,16.356V261.735L158.236,285h0L158.091.038,157.946,285ZM58.874,213.563h0l30.7.377v44.212l51.6,4.44V25.685L20.916,55.312V252.246l37.958,3.265V213.563h0Zm-30.8-21.851h0V165.954l17.365-1.079v26.4l-17.364.431Zm35.116-.945h0V163.6l22.061-1.357v27.978l-22.06.542Zm42.417-1.119V160.807l24.918-1.533v29.761l-24.917.613ZM28.077,141.232h0V115.473L45.442,113.1v26.406l-17.364,1.725Zm35.116-3.768h0V110.3l22.061-2.984v27.977l-22.06,2.171Zm42.417-4.477h0v-28.84l24.918-3.371v29.761l-24.917,2.452ZM28.077,91.744h0V66.03l17.365-3.668v26.4L28.078,91.744Zm35.116-6.563h0V58.019L85.254,53.4V81.382l-22.06,3.8Zm42.417-7.833h0v-29.3l24.918-5.225V73.057l-24.917,4.291Z" transform="translate(287.079 139.092)" fill="#002063" stroke="rgba(0,0,0,0)" stroke-miterlimit="10" stroke-width="1"/>
    <g id="グループ_2" data-name="グループ 2" transform="translate(101.294 158.807)">
      <path id="パス_13" data-name="パス 13" d="M142.152,168.713l3.4,1.854a3.94,3.94,0,0,1-.667.929c-2.449,9.15-5.715,16.275-10.162,21.558a23.1,23.1,0,0,0,6.907,7.578,24.287,24.287,0,0,0-5.136,4.451,26.728,26.728,0,0,1-6.549-7.474,30.369,30.369,0,0,1-8.88,4.795,22.139,22.139,0,0,0-3.061-5.9l-.9,5.114-5.722-1.01,1.768-10.024c-2.788.387-5.433.675-7.4.913a1.017,1.017,0,0,1-.873.682l-1.088-6.887,2.813-.048,3.471-19.684,6.59,1.539c-.119.44-.487.626-1.32.6L112.29,185l1.858-.091,4.029-22.849,6.876,1.589c-.12.44-.535.659-1.368.638l-5.675,32.183a22.9,22.9,0,0,0,9.173-5.036c-1.745-5.288-2.419-11.432-2.552-18.277l5.571-.022a50.372,50.372,0,0,0,1.672,13.058,47.894,47.894,0,0,0,5.892-12.059l-14.123-2.49,1.023-5.8,16.436,2.9Z" transform="translate(-103.784 -162.058)" fill="#002063"/>
      <path id="パス_14" data-name="パス 14" d="M193.137,189.426l-9.009-1.588a30.306,30.306,0,0,0,8.985,10.036,23.027,23.027,0,0,0-4.9,4.033,26.665,26.665,0,0,1-2.029-1.78l-1.238,7.02,5.235.924-.915,5.195-37.3-6.577.916-5.195,5.276.931,1.167-6.615c-.647.346-1.328.645-2.008.943a35.561,35.561,0,0,0-3.414-5.079,29.81,29.81,0,0,0,11.023-7.22l-8.36-1.475.909-5.153,9.252,1.631a49.781,49.781,0,0,0-2.481-6.338l5.467-1.337a39.177,39.177,0,0,1,3.22,7.6l-2.472.736,10.511,1.853-2.3-1.451a39.476,39.476,0,0,0,5.312-6.638l6.39,3.637a1.466,1.466,0,0,1-1.384.258,49.287,49.287,0,0,1-4.572,4.8l9.618,1.7Zm-27.993,14.23.988-5.6-1.786-.315-.988,5.6Zm6.767-17.973a43.908,43.908,0,0,1-7.47,7.01l18.059,3.185a39.5,39.5,0,0,1-5.028-9.215Zm.416,19.239.987-5.6L171.489,199l-.987,5.6Zm5.357.944,1.827.323.987-5.6-1.827-.322Z" transform="translate(-110.605 -163.434)" fill="#002063"/>
      <path id="パス_15" data-name="パス 15" d="M212.444,209a22,22,0,0,1-6.249,7.435l-4.45-4.425a16.7,16.7,0,0,0,5.762-6.1Zm21.53.826c2.461,2.652,5.076,6.335,6.013,9.095l-5.775,2.371a23.885,23.885,0,0,0-2.905-5.827c-1.477,4.343-3.26,5.2-7.279,4.491L218.59,219c-5.763-1.016-6.694-2.854-5.871-7.521l.616-3.49,5.551,1.272a26.511,26.511,0,0,0-2.218-1.9l1.988-1.072-14.569-2.568.872-4.952,11.2,1.975.273-1.543-7.59-1.337,2.025-11.485,7.59,1.338.258-1.461-10.634-1.875.859-4.871,35.429,6.248-.858,4.87-11.039-1.947-.258,1.461,7.955,1.4-2.025,11.485-7.955-1.4-.272,1.543,11.607,2.047-.873,4.951-16.963-2.991a18.947,18.947,0,0,1,3.273,3.506l-4.631,2.532a17.32,17.32,0,0,0-2.552-3.087,1.751,1.751,0,0,1-.814.108l-.38,2.15c-.2,1.137.07,1.268,1.694,1.554l4.1.723c1.217.215,1.56-.059,2.115-2.263a15.815,15.815,0,0,0,4.681,2.876,37.634,37.634,0,0,0-2.476-3.282Zm-18.947-15.476,2.193.386.458-2.6-2.192-.386Zm7.045,5.845-.272,1.543,2.394.421.273-1.542Zm3.182-4.042.458-2.6-2.394-.422-.458,2.6Zm-.9-8.9-.258,1.461,2.4.422.258-1.461Zm9.312,7.71-2.232-.394-.458,2.6,2.232.393Z" transform="translate(-117.649 -164.528)" fill="#002063"/>
      <path id="パス_16" data-name="パス 16" d="M256.782,226.267l3.456-19.6a39.741,39.741,0,0,1-4.173,3.491,58.236,58.236,0,0,0-1.962-6.664c4.377-2.994,9.42-9.052,12.79-15.111l6.4,3.556a1.179,1.179,0,0,1-1.392.3,82.5,82.5,0,0,1-4.793,6.771l1.74.81c-.154.391-.575.652-1.368.638l-4.736,26.865Zm19.727-5.56c-.451,2.556-.3,2.877,1.527,3.2l4.79.845c1.825.322,2.38-.919,3.7-6.5a17.586,17.586,0,0,0,5,3.435c-1.923,7.11-3.952,9.6-9.065,8.7l-6.209-1.095c-5.6-.988-6.847-3.174-5.7-9.668l5.081-28.814,7.159,1.64c-.126.48-.542.7-1.416.67l-2.239,12.7a79.231,79.231,0,0,0,10.71-4.974l3.635,6.207a1.691,1.691,0,0,1-1.261.028,89.922,89.922,0,0,1-14.15,4.786Z" transform="translate(-125.06 -165.784)" fill="#002063"/>
    </g>
    <g id="グループ_3" data-name="グループ 3" transform="translate(86.19 268.667)">
      <path id="パス_17" data-name="パス 17" d="M124.6,298.538a29.173,29.173,0,0,1-2.514,8.366l-5.357-1.689c.165-.577.371-1.277.536-2.019h-8.613a2.229,2.229,0,0,1-.618.165v.907l7.871-.536.247,3.832-8.077.577c.206.659.824.783,2.6.783h6.469c1.566,0,1.937-.33,2.143-1.978a17.159,17.159,0,0,0,4.781,1.566c-.618,3.668-2.184,4.616-6.347,4.616h-7.624c-5.6,0-7.377-1.03-7.623-4.575l-5.893.453-.288-3.915,6.141-.412V303.2H95.709v4.574a71.462,71.462,0,0,1-.453,8.53l3.915-1.319a29.95,29.95,0,0,1,2.308,5.481v-6.923l6.717.371c-.041.412-.371.7-1.195.824v9.231h1.772V313.539l6.8.371c-.041.453-.371.7-1.195.824v6.1a44.688,44.688,0,0,0,2.6-6.058L123.32,317q-.247.494-1.237.494a45.631,45.631,0,0,1-4.121,6.017l-3.585-1.607v2.06h9.561v4.986H93.32v-3.5a21.556,21.556,0,0,1-1.9,4.038,23.546,23.546,0,0,0-5.234-3.049c3.379-5.357,3.627-13.228,3.627-18.668v-9.355h12.61v-8.076l7.252.371c-.041.494-.412.742-1.236.907v.989h12.611v4.656H108.443v1.154h12.321Zm-23.118,23.408L96.7,323.676a27.854,27.854,0,0,0-1.648-5.564,43.226,43.226,0,0,1-1.236,5.852h7.665Z" transform="translate(-86.19 -290.255)" fill="#002063"/>
      <path id="パス_18" data-name="パス 18" d="M172.608,312.831l3.05.371c-.041.412-.124.989-.165,1.483-.453,8.242-.989,11.745-2.1,13.063-1.319,1.566-2.926,1.937-7.748,1.813a12.691,12.691,0,0,0-1.277-4.656l-3.009.948a25.862,25.862,0,0,0-1.607-5.893l3.751-1.113a24.232,24.232,0,0,1,1.854,5.729l-.536.165c1.113.082,2.1.124,2.678.124,1.195,0,1.607-.494,1.978-2.72l-3.255,1.442a16.24,16.24,0,0,0-2.02-4.616l3.3-1.442a17.042,17.042,0,0,1,2.06,3.915c.124-.989.247-2.267.371-3.915H152.663c-.5.494-1.031.989-1.567,1.442l3.462,1.155c-.659,3.132-1.648,6.469-3.627,8.612l-4.285-2.514a14.674,14.674,0,0,0,3.049-6.1,27,27,0,0,1-2.184,1.607c-.371-.453-.948-1.071-1.566-1.689v9.56h-5.687v-19q-1.051,1.545-2.1,2.843a64.1,64.1,0,0,0-2.431-6.429c2.967-3.667,5.935-10.261,7.706-16.608l6.428,2.144c-.165.371-.577.577-1.236.536-.865,2.472-1.813,4.945-2.884,7.377l1.4.453a1.388,1.388,0,0,1-1.195.824v14.341a36.5,36.5,0,0,0,10.344-13.146h-7.583v-4.7h3.833a32.345,32.345,0,0,0-2.35-6.1l4.781-1.607a28.015,28.015,0,0,1,2.72,6.3l-3.915,1.4h4.534a66.216,66.216,0,0,0,2.39-7.953l6.47,1.648c-.165.412-.577.659-1.277.659-.536,1.937-1.113,3.832-1.731,5.645h3.008l1.195-.041,2.761.371c-.288,2.308-.7,4.616-1.154,6.923h.454l2.761.371c-.247,2.06-.825,5.522-1.113,7.006ZM155.465,327.46a32.3,32.3,0,0,0-.659-7.129l4.2-.578a29.945,29.945,0,0,1,.907,6.965Zm11.58-17.307h-8.531c-.577.948-1.195,1.854-1.854,2.761h9.89Zm-2.06-7.212h-2.679c-.371.865-.783,1.731-1.195,2.6h3.38Z" transform="translate(-93.201 -290.248)" fill="#002063"/>
      <path id="パス_19" data-name="パス 19" d="M202.56,297.329v4.657H186.942v-4.657Zm-1.154,17.844v9.107c4.534-2.555,5.028-6.347,5.4-10.467l7.006.7c-.082.371-.454.659-1.113.742-.742,5.11-1.772,10.632-8.365,14.258a17.5,17.5,0,0,0-2.926-4.162v2.678h-7.623v1.442H188.8v-14.3Zm-.371-11.786v4.45H188.961v-4.45Zm-12.074,10.3v-4.451h12.074v4.451Zm12.115-22.171v4.45H189.208v-4.45Zm-4.739,31.814v-3.5h-2.555v3.5Zm23.736-.907c0,1.319,0,1.483.412,1.483h.577c.494,0,.66-.742.742-5.646a15.314,15.314,0,0,0,4.987,2.267c-.453,6.758-1.813,8.612-5.068,8.612h-2.308c-4.121,0-4.987-1.772-4.987-6.675v-9.6h-10.55V298.071h2.762a30.292,30.292,0,0,0-2.6-5.851l5.4-1.689a26.963,26.963,0,0,1,3.05,6.346l-3.38,1.195h9.561c-.948-.371-1.937-.742-2.926-1.071a38.553,38.553,0,0,0,2.349-6.759l7.006,2.144c-.165.371-.577.536-1.278.494a41.623,41.623,0,0,1-2.72,5.192h3.256v14.795h-4.286Zm-10.426-19.245V307.8h8.572v-4.615Z" transform="translate(-100.451 -290.241)" fill="#002063"/>
      <path id="パス_20" data-name="パス 20" d="M254.119,318.419H244.64v3.421h-5.522V292.7h15ZM248.6,298.1H244.64v4.7H248.6ZM244.64,312.98H248.6v-4.863H244.64Zm31.031-20.77V323.2c0,5.192-1.9,6.552-10.014,6.552a19.738,19.738,0,0,0-2.06-5.769c1.195.082,2.555.082,3.585.082,2.308,0,2.556,0,2.556-.948v-6.264h-8.325c-1.071,4.987-3.379,9.89-7.994,13.228a23.358,23.358,0,0,0-4.534-4c6.965-4.945,7.542-12.61,7.542-18.833V292.21ZM262.32,307.292c0,1.319-.041,2.762-.165,4.2h7.583v-4.2Zm7.418-9.561H262.32v4.2h7.418Z" transform="translate(-107.836 -290.52)" fill="#002063"/>
    </g>
    <g id="グループ_4" data-name="グループ 4" transform="translate(95.596 353.114)">
      <path id="パス_21" data-name="パス 21" d="M124.817,416.139c.005.5-.3.89-1.052,1.149.386,2.191.725,4.349,1.057,6.467l7.467-1.317c.511,3.843,1.262,8.816,2.049,13.28,1.574,8.929,2.419,11.583,2.7,11.533.2-.036-.22-3.142-.666-5.909a24.664,24.664,0,0,0,3.87,3.67c.689,5.57-.6,7.973-2.714,8.345a4.8,4.8,0,0,1-1.775-.1c-2.235-.569-3.927-4.706-5.341-10.357l-1.175,2.593a24.077,24.077,0,0,0-3.129-2.084,25.36,25.36,0,0,1-4.636,12.869,16.582,16.582,0,0,0-4.884-3.491,19.666,19.666,0,0,0,1.616-2.46l-4.829.852,1.095,6.209-5.438.959-1.095-6.209-5.438.959-.866-4.911,5.438-.959-.408-2.313-6.047,1.066-.865-4.911,2.882-.507A20.242,20.242,0,0,0,100.6,436.6l2.772-1.368-5.357.944-.866-4.91,6.9-1.216-.4-2.272-4.991.88-.852-4.83,4.991-.88-.558-3.165,6.68-.8c.031.413-.244.755-1.034,1.019l.35,1.989,4.952-.873.852,4.83-4.952.873.4,2.272,5.844-1.03-.451-2.557,4.464-.787c-.389-2.442-.846-5.039-1.319-7.718Zm-14.923,22.633a32.266,32.266,0,0,0,.781-4.824l-6.007,1.058a21.584,21.584,0,0,1,2.3,4.281l-1.5.766,5.641-.995Zm6.457-.636,2.013-4.247c.713.251,1.515.528,2.325.846-.136-1.483-.278-3.005-.51-4.555l-3.531.622.358,2.029-5.073.895,4.361.528c-.064.347-.409.533-1.017.64-.363,1.026-.945,2.468-1.524,3.7Zm1.356,7.209.786,4.465a23.049,23.049,0,0,0,2.278-9.148c-1.232-.578-2.5-1.108-3.666-1.572l.679,3.856-5.681,1,.408,2.313Zm7.911-16.124c.35,2.7.565,5.34.67,7.833a32.8,32.8,0,0,1,3.124,1.583c-.632-3.11-1.218-6.438-1.805-9.766Z" transform="translate(-97.147 -392.669)" fill="#002063"/>
      <path id="パス_22" data-name="パス 22" d="M181.523,414.57l2.95-.353c.3,3.377,4.275,24.479,2.909,27.648-1.005,2.6-2.608,3.012-6.341,3.671a15.031,15.031,0,0,0-2.387-5.228,17.218,17.218,0,0,0,2.335-.286c.487-.086.783-.306,1.04-.979.464-1.17-.054-5.765-2.094-18.755l-1.3.229c1.911,12.97,1.637,20.676-5.47,26.406a16.388,16.388,0,0,0-4.167-3.7,15.386,15.386,0,0,0,2.8-2.879l-.272-.83c-3.138,1.431-6.248,2.775-8.434,3.663a.835.835,0,0,1-.521.845l-3.042-5.154c.716-.21,1.506-.475,2.338-.747.811-2.277,1.634-4.975,2.4-7.747-1.876-2.1-4.609-4.543-6.747-6.468l.232-.585-1.259.221.874,4.952,2.6-1.169,1.562,4.83-3.208,1.737,1.617,9.172c.751,4.261-.029,6.241-6.321,7.35a22.338,22.338,0,0,0-2.426-5.221c.7-.082,1.434-.17,2-.27,1.339-.236,1.5-.265,1.38-.955l-1.309-7.427-1.956,1.015a1.058,1.058,0,0,1-.668.955l-2.464-6.135c1.175-.458,2.538-1.034,4.057-1.677l-1.1-6.209-3.612.637-.952-5.4,3.612-.637-1.337-7.589,6.543-.861c.038.453-.2.787-.986,1.052l1.138,6.453,2.394-.422.637,3.612.907-2.21.827.649a68.474,68.474,0,0,0,1.24-10.053l6.321,1.438a1.428,1.428,0,0,1-1.205.757,83.374,83.374,0,0,1-2.327,11.248c.492.415.943.839,1.347,1.228.461-2.132.847-4.208,1.094-6.135l2.981.772-.4-2.272,3.125-.551-1.524-8.645,6.5-.895c.046.494-.181.87-.971,1.134.465,2.638.908,5.154,1.276,7.475l2.6-.458Zm-11.784,20.74c-.4-.85-.85-1.733-1.332-2.569q-.561,1.794-1.146,3.466Zm1.675-13.518c-.559,2.526-1.285,5.29-2.092,8.068l1.843-1.412a61.885,61.885,0,0,1,3.053,5.445c.383-3.29-.027-7.276-.815-12.452Z" transform="translate(-104.143 -391.328)" fill="#002063"/>
      <path id="パス_23" data-name="パス 23" d="M231.064,407.02l2.991-.36c.079.446.208,1.177.282,1.834,2.636,16.608,3.4,22.624,2.542,24.617-1.079,2.659-2.884,3.1-7.389,3.9a14.987,14.987,0,0,0-2.227-4.8A21.519,21.519,0,0,1,224.81,438a15.24,15.24,0,0,0-3.06-2.641l.264,1.5-12.093,2.132.258,1.461-5.114.9-2.254-12.784a17.219,17.219,0,0,1-1.547,1.9,32.684,32.684,0,0,0-3.107-4.808,21.4,21.4,0,0,0,4.379-8.388l-5.114.9-.845-4.789,3.369-.594a28.887,28.887,0,0,0-3.326-1.3,22,22,0,0,0,2.432-8.756l5.968.622c-.058.386-.441.58-.936.625-.051.428-.134.9-.218,1.378l11.891-2.1.809,4.587-6.656,1.173a1.633,1.633,0,0,1-.776.346c-.063.6-.118,1.234-.22,1.838l8.482-1.5.844,4.788-6.656,1.174,4.053.206c-.064.346-.36.566-.961.713-.173.449-.337.938-.543,1.435l4.343-.766.759,4.3-4.871.858.186,1.055,4.018-.708.68,3.855-4.018.708.186,1.055,4.018-.708.68,3.855-4.018.709.186,1.055,4.87-.859c2.089-4.762,1.947-10.553.852-18.186l-3,.53-.959-5.438,3.084-.543-1.6-9.091,6.665-.882c.045.494-.222.876-1.012,1.141.487,2.76.944,5.358,1.347,7.881l3.328-.586Zm-28.539,3.317a23.087,23.087,0,0,1-.875,2.162l1.948-.343.266-2.055Zm7.239,14-.186-1.055-2.354.415.186,1.055Zm-.458-5.443c.167-.95.312-2.023.413-2.877l-1.7.3c-.2,1-.489,1.969-.779,2.941Zm1.323,10.353-.185-1.055-2.354.416.186,1.055Zm-1.673,4.271.185,1.055,2.354-.415-.186-1.055Zm18.368-20.187c.975,7.193,1.263,13.335.038,18.49a27.235,27.235,0,0,0,2.863-.379,1.316,1.316,0,0,0,1.128-.952c.512-1.137.009-5.65-1.919-17.53Z" transform="translate(-111.22 -390.22)" fill="#002063"/>
      <path id="パス_24" data-name="パス 24" d="M260.139,398.718l.809,4.586-14.813,2.611-.809-4.586Zm-2.522-5.288.773,4.382-11.161,1.968-.773-4.383Zm-9.4,13.374,11.526-2.032.773,4.382-11.526,2.033Zm12.514,3.569.773,4.382-11.526,2.033L249.2,412.4Zm1.131,5.7,2.211,12.54-7.062,1.246.271,1.542-4.747.838-2.484-14.083Zm-3.988,5.39-2.273.4.609,3.449,2.272-.4Zm18.83-12.819-5.438.959-.737-4.18a23.252,23.252,0,0,1-4.234,5.893l9.944-1.753,1.082-.275,2.669-.052c.039.454.094,3.624.1,4.627l2.111-.373,1.122-.282,3.122-.09c.031.413.042.955.047,1.456,1.3,11.865.428,12.394-7.474,13.62a12.438,12.438,0,0,0-2.279-4.619,27.527,27.527,0,0,0,3.316-.417,1.563,1.563,0,0,0,1.186-.628c.294-.47.41-1.7.218-4.223l-1.38.243-.027,1.511-5.052.3c.032-1.72.068-3.652.037-5.488l-1.542.272c.557,6.011.151,11.062-5.5,15.113a13.627,13.627,0,0,0-3.971-3.777c3.992-2.755,4.477-5.936,4.029-10.377l-2.922.515-.8-4.546a26.092,26.092,0,0,0-3.842-3.046,20.167,20.167,0,0,0,5.335-5.335l-4.058.716-.865-4.91,8.319-1.467-.229-1.3c-2.122.542-4.285,1.09-6.341,1.537a15.54,15.54,0,0,0-2.179-4.051c5.9-1.417,12.406-3.443,16.284-5.425l4.776,3.593c-.174.2-.3.22-1.107.363a61.083,61.083,0,0,1-6.109,2.375l.343,1.948,8.928-1.574.866,4.91-4.748.837a20.525,20.525,0,0,0,6.383,2.975,20.618,20.618,0,0,0-2.949,4.873,24.149,24.149,0,0,1-7.22-4.879Z" transform="translate(-118.12 -388.799)" fill="#002063"/>
    </g>
  </g>
</svg>
