<svg xmlns="http://www.w3.org/2000/svg" width="300.001" height="300.001" viewBox="0 0 300.001 300.001">
  <g id="グループ_69" data-name="グループ 69" transform="translate(-456.91 -829.326)">
    <circle id="楕円形_5" data-name="楕円形 5" cx="150.001" cy="150.001" r="150.001" transform="translate(456.91 829.326)" fill="#f29600"/>
    <g id="グループ_68" data-name="グループ 68" transform="translate(481.355 918.263)">
      <path id="パス_1303" data-name="パス 1303" d="M502.127,942.892a1.351,1.351,0,0,1-.95.3,2.061,2.061,0,0,1-.55-.05c-.9,1.1-2.4,2.7-3.751,4.05,1.35,1.2,2.6,2.351,3.1,2.851l-4.251,5.55c-.9-1.3-2.15-2.95-3.5-4.551V967.7h-7.151V952.644a39.257,39.257,0,0,1-3.752,3.451,28.214,28.214,0,0,0-3.7-6.752c4.551-3.1,8.952-8.451,11.852-13.952H479.023v-6.5h6.052v-8.652l8.651.45c-.05.55-.45.9-1.5,1.1v7.1a6.22,6.22,0,0,0,2.15-.3l4.8,2.851a1.814,1.814,0,0,1-1,.8,62.916,62.916,0,0,1-5.75,11.051l1,.85a52.651,52.651,0,0,0,3.6-5.651Zm18.652-19.354,4.1.25c0,.55-.05,1.651-.1,2.552-.45,25.754-.9,34.705-2.8,37.506-2.3,3.65-4.85,4-12.2,3.85a19.36,19.36,0,0,0-2.3-7.5c2.45.2,4.6.2,5.8.2a2.013,2.013,0,0,0,1.9-1.05c1.35-1.6,1.8-9.551,2.1-28.9h-5.7c-.451,13.7-1.5,28.305-12.853,37.306A22.41,22.41,0,0,0,493.375,962c9.952-7.2,10.6-19,10.853-31.555h-6.551v-6.851H519.13Z" transform="translate(-477.623 -901.884)" fill="#fff"/>
      <path id="パス_1304" data-name="パス 1304" d="M524.693,922.4H567.65v44.307h-7.7v-3.15h-27.9v3.15h-7.351Zm7.351,34.005h27.9V929.55h-27.9Zm4.151-22.1h19.453v17.3H536.195Zm12.7,11.451v-5.6h-6.352v5.6Z" transform="translate(-469.142 -901.494)" fill="#fff"/>
      <path id="パス_1305" data-name="パス 1305" d="M586.89,972.561c-10.875,0-21.093-5.719-21.281-19.687H577.8c.188,6,4.312,8.718,9.093,8.718,5.249,0,9-3.281,9-9.281,0-5.531-3.375-9.188-9.375-9.188h-1.781V932.53h1.781c5.907,0,8.438-3.656,8.438-8.344,0-5.625-3.751-8.531-8.156-8.531-4.594,0-7.969,3-8.251,8.063H566.358c.281-11.907,9.188-19.031,20.438-19.031,11.812,0,20.343,7.875,20.343,19.125,0,7.219-3.281,11.344-7.686,13.688,4.781,2.531,8.625,7.125,8.625,15.188C608.077,966,598.328,972.561,586.89,972.561Z" transform="translate(-461.771 -904.686)" fill="#fff"/>
      <path id="パス_1306" data-name="パス 1306" d="M627.737,972.561c-10.875,0-20.344-7.126-20.344-19.875V924.561c0-12.751,9.469-19.875,20.344-19.875s20.249,7.125,20.249,19.875v28.125C647.986,965.435,638.612,972.561,627.737,972.561Zm8.062-47.812c0-5.626-3.281-9.094-8.062-9.094s-8.156,3.469-8.156,9.094v27.843c0,5.626,3.375,9,8.156,9s8.062-3.374,8.062-9Z" transform="translate(-454.243 -904.686)" fill="#fff"/>
      <path id="パス_1307" data-name="パス 1307" d="M683.861,938.146a91.726,91.726,0,0,1-9.852-14.8l7.2-2.85c3.1,6.151,9.3,13.252,14.8,17.7a36.882,36.882,0,0,0-6.2,6.6c-.751-.7-1.45-1.451-2.2-2.25-.45,14.152-1,19.853-2.651,21.9-2.2,2.85-4.851,3.2-12.4,3.049a17.219,17.219,0,0,0-2.4-7.351c2.5.2,4.85.25,6.1.25a2.465,2.465,0,0,0,2-.749c.9-1,1.351-5.151,1.7-14.4h-8.4c-1.4,8.851-4,17.553-17.5,22.8a24.692,24.692,0,0,0-4.75-6.751c10.952-3.6,13.552-9.452,14.5-16.053h-7.5v-3.5a38.59,38.59,0,0,1-3.751,3.3,50.77,50.77,0,0,0-5.751-5.6c5.9-4,11.5-11.452,14.452-18.853l8.851,3a1.5,1.5,0,0,1-1.65.65,64.721,64.721,0,0,1-8.9,13.952H681.91Z" transform="translate(-447.142 -901.838)" fill="#fff"/>
      <path id="パス_1308" data-name="パス 1308" d="M500.256,988.52v2.151c1.8,1.95,5.851,7.1,6.8,8.351l-4,5.851c-.7-1.45-1.7-3.4-2.8-5.3v19.5h-6.951v-17.353a39,39,0,0,1-4.7,9.151,40,40,0,0,0-3.35-6.9c3.1-3.8,5.7-9.951,7.151-15.453h-5.8v-6.851h6.7v-10.1l8.4.45c-.051.55-.451.851-1.45,1.05v8.6h5.751v6.851Zm7.3-14.4h24.1v44.106h-7.3v-2.45h-9.852v2.85h-6.951Zm16.8,6.851h-9.852v4.951h9.852Zm0,11.5h-9.852v5.1h9.852Zm-9.852,16.752h9.852v-5.1h-9.852Z" transform="translate(-476.248 -892.636)" fill="#fff"/>
      <path id="パス_1309" data-name="パス 1309" d="M549.558,982.719v2.8H530.206v-5.651h19.353v2.4a17.934,17.934,0,0,0,3.35-7.952l5.9,1.151c-.5,3.4-1.8,7.151-3.851,9.5Zm-1.5,18.254v15.6h-9.552v1.75h-6.051v-17.352Zm-.1-13.953v5.4H532.605v-5.4Zm-15.353,12.3v-5.4h15.353v5.4Zm15.253-26.3v5.4h-15.1v-5.4Zm-5.951,33.605h-3.4v4.25h3.4Zm6.2-1.6c2-1.951,3.5-5.552,4.2-8.851l6.3,1.25c-.649,3.851-2.2,7.951-4.5,10.552Zm19.1-4.151a8.587,8.587,0,0,0,.3,2.2,50.648,50.648,0,0,0,3.1-7.3l7.7,2.8c-.2.45-.751.6-1.5.6a52,52,0,0,1-4.5,7.552l-4.1-1.751c1.3,2.851,4.251,5.9,9.8,8a61.585,61.585,0,0,0-4.2,6.2,18.538,18.538,0,0,1-10.3-10.2c-1.15,3.1-5.4,8-11.2,10.2a31.064,31.064,0,0,0-4-5.952c8.5-3.051,11.452-8.7,11.452-12.352v-8l9.052.35c-.051.6-.6,1-1.6,1.2Zm1.4-28.705q-.076.825-1.351,1.05a56.371,56.371,0,0,1-1.25,9.352,93.138,93.138,0,0,1,11.551,7.4l-4.8,5.451a77.55,77.55,0,0,0-9.4-6.8c-2.05,2.95-5.251,5.4-10.4,7.2a18.444,18.444,0,0,0-4-5.7c10.5-3.3,10.951-9,11.3-18.552Zm9.4,4.551a1.585,1.585,0,0,1-1.5.55,59.131,59.131,0,0,1-4.151,7.152l-5.251-2.251a47,47,0,0,0,3.35-8.2Z" transform="translate(-468.149 -892.636)" fill="#fff"/>
      <path id="パス_1310" data-name="パス 1310" d="M582.408,988.121V985.77c-.75.65-1.5,1.3-2.251,1.851a44,44,0,0,0-5.552-4.45,30.477,30.477,0,0,0,10.053-11.6l7.951,2.75a1.308,1.308,0,0,1-1.45.55c-.3.551-.65,1.151-1,1.7h29.3v6.352h-4.452v5.2h6.251v6.451h-6.251v5.15h5.5v6.451H576.606v-6.451h5.8v-5.15h-6.651v-6.451Zm5.2,20.2a30.033,30.033,0,0,1-5.4,10.8l-7.05-2.8a25.406,25.406,0,0,0,5.35-9.7Zm1.2-25.4v5.2h2.45v-5.2Zm0,11.652v5.15h2.45v-5.15Zm1.75,23.954a67.908,67.908,0,0,0-.9-9.9l6.752-.8a61.4,61.4,0,0,1,1.3,9.651Zm9.2-35.606h-2.5v5.2h2.5Zm0,11.652h-2.5v5.15h2.5Zm2.051,24a53.537,53.537,0,0,0-2.351-9.752l6.851-1.15a51.067,51.067,0,0,1,2.8,9.5Zm6.55-30.454v-5.2h-2.6v5.2Zm0,11.6v-5.15h-2.6v5.15Zm6.552,19.354a66.858,66.858,0,0,0-5.652-10.5l7-2.15a73.721,73.721,0,0,1,6.151,10.2Z" transform="translate(-460.15 -892.636)" fill="#fff"/>
      <path id="パス_1311" data-name="パス 1311" d="M634.205,995.579c1.7,1.3,6.4,5.651,7.452,6.7l-4.05,5.9a55.869,55.869,0,0,0-3.4-4.851v15.7h-6.95v-13.5a37.444,37.444,0,0,1-5.1,8.3,47.991,47.991,0,0,0-3.4-7.5,41.036,41.036,0,0,0,7.052-11.052H620v-6.752h7.252v-2.55l-5.5,1.5a46.725,46.725,0,0,0-2.251-11.452l5.5-1.45a47.678,47.678,0,0,1,2.2,8.552h.051v-11.6l8.4.451c-.05.55-.45.85-1.45,1.05v10.751a75.647,75.647,0,0,0,2.2-9.3l7.45,2.051c-.15.4-.649.65-1.45.65a67.771,67.771,0,0,1-3.95,10.4c-1.4-.5-2.85-1.049-4.251-1.5v2.45h6.5v6.752h-6.5Zm32.706,10.052-6.051,1.2v12.252h-7.152v-10.852l-11.553,2.251-1.2-6.9,12.752-2.45v-18.2l-5.451,3.8a34.848,34.848,0,0,0-5.6-7.852l5.252-3.5a38.806,38.806,0,0,1,5.8,7.152v-10.7l8.652.45c-.051.55-.451.9-1.5,1.1V999.78l4.9-.951Zm-20.6-17.9a42.036,42.036,0,0,1,7.05,7.852l-5.5,4.151a42.373,42.373,0,0,0-6.651-8.3Z" transform="translate(-452.196 -892.644)" fill="#fff"/>
      <path id="パス_1312" data-name="パス 1312" d="M667.054,1008.705a5.6,5.6,0,1,1,5.6,5.6A5.592,5.592,0,0,1,667.054,1008.705Zm2.25-8.7-1.5-25h10l-1.45,25Z" transform="translate(-443.494 -892.018)" fill="#fff"/>
    </g>
  </g>
</svg>
