<svg xmlns="http://www.w3.org/2000/svg" width="300.002" height="300.002" viewBox="0 0 300.002 300.002">
  <g id="グループ_2" data-name="グループ 2" transform="translate(-1860 -354)">
    <g id="グループ_94" data-name="グループ 94" transform="translate(1403.09 -475.326)">
      <circle id="楕円形_5" data-name="楕円形 5" cx="150.001" cy="150.001" r="150.001" transform="translate(456.91 829.326)" fill="#f29600"/>
      <path id="パス_2063" data-name="パス 2063" d="M-39.884-23.452v3.016H-51.636v-3.016Zm7.332-4.524H-58.5v12.064h6.656a31.8,31.8,0,0,1-10.712,5.564,47.8,47.8,0,0,1,3.9,5.46A43.936,43.936,0,0,0-49.4-9.828V-3.64h7.176V-8.32a24.313,24.313,0,0,0,10.14,4.576A23.286,23.286,0,0,1-27.82-9.672a35.082,35.082,0,0,1-6.292-1.4c1.664-.832,3.38-1.82,4.524-2.548a1.734,1.734,0,0,0,1.56-.312L-32.552-17ZM-36.5-15.912c-.936.728-1.976,1.508-2.912,2.132a12.454,12.454,0,0,1-2.236-2.132Zm-5.62-18.512V-35.88h10.5v-5.2h-10.5V-42.9c1.04-.156,1.508-.52,1.56-1.092l-8.892-.468v3.38H-59.488v5.2h10.036v1.456H-62.088v5.3H-28.6v-5.3Zm-34.112-4.42c2.808,2.548,6.24,6.136,7.644,8.58L-62.348-35a45.962,45.962,0,0,0-8.112-8.112Zm0,14.508v6.968h5.408V-7.176c-2.028,1.508-4.16,2.964-6.084,4.108l3.588,7.956a1.094,1.094,0,0,0,.78-1.2c1.768-1.456,3.8-3.276,5.772-5.2,4.42,5.668,9.88,5.772,22.568,5.772,5.2,0,10.764-.156,14.82-.364a34.585,34.585,0,0,1,2.34-7.332c-5.2.468-12.584.676-18.824.676-10.036,0-15.08,0-17.732-4.94V-24.34Zm100-12.168H3.588v-6.6c1.092-.208,1.56-.572,1.612-1.144l-9.464-.52V-36.5h-19.5v7.228H-9.412c-.52,10.66-1.664,21.788-15.5,28.288a22.967,22.967,0,0,1,5.356,6.4C-9.1-.1-4.888-8.112-2.964-16.38h13C9.412-8.268,8.528-4.108,7.28-3.068a3.76,3.76,0,0,1-2.6.676c-1.612,0-5.252,0-8.788-.312A16.2,16.2,0,0,1-1.4,4.732c1.456.052,2.912.052,4.212.052,12.168,0,13.728-1.4,15.288-25.532a18.372,18.372,0,0,0,.312-2.184L13.94-23.66l-1.664.156H-1.716c.26-1.976.416-3.9.572-5.772H23.764Zm41.548-.156a39.935,39.935,0,0,0-10.5-6.864l-5.1,4.732A50.255,50.255,0,0,1,57.3-33.748,101.5,101.5,0,0,0,46.54-30.68c-1.2-4.056-2.236-8.008-2.7-9.932.78-.364,1.144-.676,1.092-1.3L35.1-40.248c1.3,3.9,2.548,7.9,3.848,12.22-3.848,1.352-8.32,2.756-11.18,3.64l2.964,8.164a1.6,1.6,0,0,0,.988-1.2c2.7-1.144,6.344-2.392,9.308-3.588C43.472-12.636,46.28-2.808,47.372,4L56,2.184c-1.5-6.656-4.572-16.328-7.484-26.052,5.1-1.872,9.568-3.276,12.844-3.276,4.576,0,5.824,2.6,5.824,4.524,0,2.652-1.716,4.784-5.1,4.784a12.2,12.2,0,0,1-7.28-2.912c-.52,2.08-1.248,4.94-1.82,6.552a14.739,14.739,0,0,0,9.464,3.588c8.008,0,12.948-4.732,12.948-12.116,0-7.7-5.928-11.6-12.636-11.6ZM-53.352,26.72h-11.7V17.152c1.092-.208,1.56-.52,1.612-1.144l-9.2-.468V26.72H-83.2l-2.548-3.276-2.444,1.508V17.1c1.04-.156,1.456-.52,1.508-1.092l-8.892-.468V26.876l-5.356-.728c-.1,4.316-.78,9.412-2.288,12.324l5.616,3.016a26.779,26.779,0,0,0,1.976-7.124h.052V64.94h7.384V30.1a26.267,26.267,0,0,1,2.236,3.8l1.716-1.144v1.2h3.588v18.5c0,8.32,2.444,11.18,10.556,11.18h8.528a26.762,26.762,0,0,0,6.708-.572c-.312-1.82-.624-5.2-.78-7.124a30.091,30.091,0,0,1-5.668.52h-9.1c-2.184,0-2.6-.884-2.6-3.692V33.948h19.656Zm13.416-8.892c-.364,6.188-.676,20.8-.676,27.976,0,10.4,4.316,17.108,16.8,17.108,7.124,0,13.78-2.7,20.436-8.944a57.743,57.743,0,0,1-4.472-7.176c-5.928,5.512-11.336,7.9-15.912,7.9-5.044,0-8.216-2.808-8.216-8.944,0-7.592.52-18.98.988-26.312.988-.156,1.456-.624,1.56-1.248ZM4.992,21.156A119.432,119.432,0,0,0,4,36.392c0,2.08.052,4.056.156,5.876.416,7.8,4.108,18.824,12.948,18.824,4.992,0,8.632-3.536,11.024-12.324a40.265,40.265,0,0,1-6.448-5.1c-.78,3.64-2.7,8.788-4.316,8.788-2.652,0-5.2-4.264-5.2-13.728a80.213,80.213,0,0,1,1.508-14.82,1.51,1.51,0,0,0,1.3-.936Zm44.824,24.6A29.3,29.3,0,0,0,34.632,24.328L29.588,30.2c6.136,3.8,10.3,8.84,11.908,18.3ZM101.764,23.5H81.588V16.9c1.092-.208,1.56-.572,1.612-1.144l-9.464-.52V23.5h-19.5v7.228H68.588c-.52,10.66-1.664,21.788-15.5,28.288a22.967,22.967,0,0,1,5.356,6.4C68.9,59.9,73.112,51.888,75.036,43.62h13c-.624,8.112-1.508,12.272-2.756,13.312a3.76,3.76,0,0,1-2.6.676c-1.612,0-5.252,0-8.788-.312a16.2,16.2,0,0,1,2.7,7.436c1.456.052,2.912.052,4.212.052,12.168,0,13.728-1.4,15.288-25.532a18.37,18.37,0,0,0,.312-2.184l-4.472-.728-1.664.156H76.284c.26-1.976.416-3.9.572-5.772h24.908ZM-108.758,90.672c.52-.1,1.248-.468,1.352-.884,3.8-.468,14.248-1.3,21.06-1.924-6.968,5.2-12.168,13.1-12.168,18.98,0,8.84,5.98,15.444,20.8,17.056l3.9-7.9c-10.66-.988-15.964-3.952-15.964-9.256,0-5.564,6.812-12.168,11.544-15.548,4.16-3.068,6.552-3.536,11.544-3.432l-.156-8.476c-9.776.52-30.368,1.768-37.024,2.184-1.4.1-4.056.156-5.668.156Zm37.544,2.34A37.67,37.67,0,0,1-65.39,99.98l3.536-2.808a27.3,27.3,0,0,0-5.98-6.864Zm-6.448,4.68a36.617,36.617,0,0,1,5.772,7.072l3.588-2.808a32.726,32.726,0,0,0-5.98-6.968ZM-28,99.824a73.541,73.541,0,0,1-9.672.78c.26-2.548.52-5.148.884-7.9,1.3,0,2.964.052,4.68.052,1.664,0,3.38-.052,4.576-.1l.416-7.28c-2.6.208-6.4.208-8.632.156.364-2.288.78-4.524,1.2-6.188,1.144-.208,1.872-.676,1.924-1.352l-10.3-1.2c-.26,2.548-.624,5.408-.936,8.112a30.155,30.155,0,0,1-8.944-2.34l-1.56,7.28a32.021,32.021,0,0,0,9.724,2.288c-.312,2.964-.52,5.668-.78,8.216-1.82-.156-3.9-.312-3.9-1.716,0-1.04,1.2-2.5,3.016-3.64l-6.084-2.444c-3.016,2.548-4.16,5.148-4.16,7.488,0,6.24,7.124,6.916,10.608,7.228-.052.624-.052,1.144-.052,2.08,0,7.124,1.82,13.936,14.872,13.936,3.432,0,17.836,0,17.836-11.18,0-3.432-1.508-7.54-4.576-12.064a72.264,72.264,0,0,1-7.384,2.392c2.392,2.964,3.484,5.928,3.484,8.216,0,2.184-.936,3.744-2.756,4.316a20.85,20.85,0,0,1-6.344.936c-3.484,0-7.436-.52-7.436-5.98,0-.832.052-1.508.1-2.34A86.429,86.429,0,0,0-28,107ZM10.22,79.232C-.6,79.232-6.838,88.644-6.838,99.98c0,11.024,5.408,20.592,16.484,20.592,10.14,0,16.952-7.228,16.952-21.216,0-9.776-4.68-20.124-16.38-20.124Zm-.26,7.54c4.68,0,7.02,5.876,7.02,12.9,0,7.852-2.392,13.364-7.02,13.364S2.73,107.52,2.782,99.824c0-6.916,2.288-13.052,7.176-13.052ZM50.16,97.12,61.438,79.8H50.622L43.6,92.7c-.78,1.612-1.56,3.172-2.288,4.784h-.156V79.8h-9.1V120h9.1V107.156l2.652-3.744L51.4,120H61.8Zm41.184,8.632,1.508-26h-10.4l1.56,26ZM87.49,120.624a5.814,5.814,0,1,0-4.121-1.7,5.824,5.824,0,0,0,4.121,1.7Z" transform="translate(606.91 939.325)" fill="#fff"/>
    </g>
    <rect id="長方形_4" data-name="長方形 4" width="300" height="300" transform="translate(1860 354)" fill="none"/>
  </g>
</svg>
