<svg xmlns="http://www.w3.org/2000/svg" width="300.001" height="300.001" viewBox="0 0 300.001 300.001">
  <g id="グループ_69" data-name="グループ 69" transform="translate(-456.91 -829.326)">
    <circle id="楕円形_5" data-name="楕円形 5" cx="150.001" cy="150.001" r="150.001" transform="translate(456.91 829.326)" fill="#f29600"/>
    <path id="パス_2098" data-name="パス 2098" d="M-99.2-30.318a65.405,65.405,0,0,1-4.464,7.006l-1.24-1.054a78.076,78.076,0,0,0,7.13-13.7,2.239,2.239,0,0,0,1.24-.992l-5.952-3.534a7.712,7.712,0,0,1-2.666.372v-8.8c1.3-.248,1.8-.682,1.86-1.364l-10.726-.558v10.726h-7.5v8.06h12.958c-3.6,6.82-9.052,13.454-14.694,17.3a34.991,34.991,0,0,1,4.588,8.37,48.619,48.619,0,0,0,4.65-4.278V5.89h8.866V-14.756c1.674,1.984,3.224,4.03,4.34,5.642L-95.542-16c-.62-.62-2.17-2.046-3.844-3.534,1.674-1.674,3.534-3.658,4.65-5.022a2.543,2.543,0,0,0,.682.062,1.678,1.678,0,0,0,1.178-.372Zm27.4-18.476h-26.6V-40.3h8.122c-.31,15.562-1.116,30.194-13.454,39.122a27.813,27.813,0,0,1,6.634,7.13C-83.018-5.208-81.716-23.312-81.158-40.3h7.068c-.372,23.994-.93,33.852-2.6,35.836a2.5,2.5,0,0,1-2.356,1.3c-1.488,0-4.154,0-7.192-.248a23.978,23.978,0,0,1,2.852,9.3c9.114.186,12.276-.248,15.128-4.774,2.356-3.472,2.914-14.57,3.472-46.5.062-1.116.124-2.48.124-3.162l-5.084-.31Zm14.322,53.94h9.114V1.24h34.6V5.146h9.548V-49.786H-57.474ZM-48.36-40.92h34.6V-7.626h-34.6Zm5.146,27.342H-19.1V-35.03H-43.214Zm7.874-7.254v-6.944h7.874v6.944ZM28.52,5.332h8.618V1.8H49.352V4.836H58.4V-49.848H28.52Zm20.832-26.1H37.138v-6.324H49.352Zm0-14.446H37.138v-6.138H49.352ZM37.138-12.648H49.352v6.324H37.138ZM26.6-31.992v-8.494h-7.13V-51.15c1.24-.248,1.736-.62,1.8-1.3L10.85-53.01v12.524H2.542v8.494H9.734c-1.8,6.82-5.022,14.446-8.866,19.158A49.524,49.524,0,0,1,5.022-4.278,48.386,48.386,0,0,0,10.85-15.624V5.89h8.618V-18.29c1.364,2.356,2.6,4.774,3.472,6.572l4.96-7.254c-1.178-1.55-6.2-7.936-8.432-10.354v-2.666ZM66.34-16.554V4.96h7.5V2.79H85.684V-16.554Zm26.846,8.68c2.852-3.224,4.774-8.308,5.58-13.082l-7.812-1.55c-.868,4.092-2.728,8.556-5.208,10.974Zm-15.128,3.6H73.842v-5.27h4.216ZM100.812-53.01c-.434,11.842-.992,18.91-14.012,23a22.858,22.858,0,0,1,4.96,7.068c6.386-2.232,10.354-5.27,12.9-8.928a96.21,96.21,0,0,1,11.656,8.432l5.952-6.758c-3.224-2.666-9.362-6.386-14.322-9.176a69.982,69.982,0,0,0,1.55-11.594q1.581-.279,1.674-1.3ZM66.526-33.852v6.7H85.56v-6.7Zm.186-17.36v6.7H85.436v-6.7Zm46.748,1.178a58.311,58.311,0,0,1-4.154,10.168l6.51,2.79a73.468,73.468,0,0,0,5.146-8.866,1.971,1.971,0,0,0,1.86-.682ZM94.24-36.394c2.542-2.914,4.154-7.564,4.774-11.78L91.7-49.6a22.228,22.228,0,0,1-4.154,9.858v-2.976H63.55v7.006H87.544v-3.472Zm15.19,11.718c1.24-.248,1.922-.744,1.984-1.488L100.192-26.6v9.92c0,4.526-3.658,11.532-14.2,15.314a38.448,38.448,0,0,1,4.96,7.378c7.192-2.728,12.462-8.8,13.888-12.648A22.978,22.978,0,0,0,117.614,6.014a76.2,76.2,0,0,1,5.208-7.688c-6.882-2.6-10.54-6.386-12.152-9.92l5.084,2.17a64.337,64.337,0,0,0,5.58-9.362c.93,0,1.612-.186,1.86-.744L113.646-23A62.848,62.848,0,0,1,109.8-13.95a10.683,10.683,0,0,1-.372-2.728ZM85.56-18.6v-6.7H66.526v6.7ZM-80.879,47.512v8h8.246V61.9h-7.192v8h54.436v-8h-6.82V55.51h7.75v-8h-7.75V41.064h5.518V33.19H-63.023c.434-.682.868-1.426,1.24-2.108a1.622,1.622,0,0,0,1.8-.682l-9.858-3.41A37.776,37.776,0,0,1-82.305,41.374a54.739,54.739,0,0,1,6.882,5.518c.93-.682,1.86-1.488,2.79-2.294v2.914Zm29.76,0h-3.1V41.064h3.1Zm0,14.384h-3.1V55.51h3.1Zm-10.54-20.832v6.448H-64.7V41.064Zm0,14.446V61.9H-64.7V55.51Zm17.98-8V41.064h3.224v6.448Zm0,14.384V55.51h3.224V61.9Zm20.646,20.956A91.366,91.366,0,0,0-30.659,70.2l-8.68,2.666c2.6,4.092,5.766,9.61,7.006,13.02Zm-51.956-12.4c-1.364,4.526-4.03,9.424-6.634,12.028l8.742,3.472a37.268,37.268,0,0,0,6.7-13.392Zm35.464,13.082A63.328,63.328,0,0,0-43,71.754l-8.494,1.426a66.372,66.372,0,0,1,2.914,12.09Zm-14.136.372A76.08,76.08,0,0,0-55.273,71.94l-8.37.992a84.173,84.173,0,0,1,1.116,12.276ZM-1.643,56.378h8.06v-8.37h-8.06V44.97c1.736.558,3.534,1.24,5.27,1.86a84.064,84.064,0,0,0,4.9-12.9c.992,0,1.612-.31,1.8-.806L1.085,30.586A93.641,93.641,0,0,1-1.643,42.118V28.788c1.24-.248,1.736-.62,1.8-1.3l-10.416-.558V41.312h-.062a59.224,59.224,0,0,0-2.728-10.6l-6.82,1.8a57.917,57.917,0,0,1,2.79,14.2l6.82-1.86v3.162h-8.99v8.37h7.192A50.854,50.854,0,0,1-20.8,70.08a59.517,59.517,0,0,1,4.216,9.3,46.321,46.321,0,0,0,6.324-10.292v16.74h8.618V66.36a69.228,69.228,0,0,1,4.216,6.014l5.022-7.316c-1.3-1.3-7.13-6.7-9.238-8.308Zm39.122,4.4L31.4,61.958V29.222c1.3-.248,1.8-.682,1.86-1.364L22.537,27.3V40.568A48.045,48.045,0,0,0,15.345,31.7l-6.51,4.34c2.666,2.914,5.766,7.006,6.944,9.734l6.758-4.712V63.632L6.727,66.67l1.488,8.556,14.322-2.79V85.89H31.4V70.7l7.5-1.488ZM7.037,51.6c3.1,3.1,6.758,7.44,8.246,10.292L22.1,56.75c-1.736-2.914-5.642-6.944-8.742-9.734Zm50.1,11.408,1.8-31h-12.4l1.86,31ZM52.545,80.744A6.944,6.944,0,1,0,45.6,73.8,6.933,6.933,0,0,0,52.545,80.744Z" transform="translate(606.91 969.326)" fill="#fff"/>
  </g>
</svg>
