<svg xmlns="http://www.w3.org/2000/svg" width="230" height="260" viewBox="0 0 230 260">
  <g id="グループ_110" data-name="グループ 110" transform="translate(875 -2126)">
    <rect id="長方形_132" data-name="長方形 132" width="230" height="260" transform="translate(-875 2126)" fill="none"/>
    <g id="グループ_108" data-name="グループ 108" transform="translate(169.163 6.047)">
      <g id="_1022_color" data-name="1022_color" transform="translate(-1042.163 2119.953)">
        <path id="パス_2064" data-name="パス 2064" d="M2.422,255.061a120.449,120.449,0,0,1,14.522-28.543c2.233-3.235,4.695-6.524,5.318-10.4a27.211,27.211,0,0,0-.05-6.358c-1.15-15.274-1.821-33.522.222-38.5,3.229-7.863,5.043-23.727,5.765-32.054a15.54,15.54,0,0,1,2.164-5.111q.516-.812.986-1.675c2.943-5.4,4.527-12.188,5.737-18.1a22.151,22.151,0,0,1,1.615-5.747,5.921,5.921,0,0,1,4.571-3.447c3.02-.2,5.268,2.722,6.524,5.475a33.712,33.712,0,0,1-1.619,30.62l65.876,72.935c-9.922,12.865-15.928,18.881-34.034,30.746-2.465,1.615-11.448,6.558-13.7,8.5-7.421,6.374-12.664,16.775-15.928,25.906Z" transform="translate(-1.02 -43.649)" fill="#fff"/>
        <path id="パス_2065" data-name="パス 2065" d="M222.9,81.6a47.758,47.758,0,0,1,5.053-3.545,9.541,9.541,0,0,1,6.352-1.041c2.889.463,4.713,3.638,4.641,6.563s-1.481,5.659-3.095,8.1c-4.121,6.233-9.288,12.736-12.628,14.931" transform="translate(-92.568 -31.921)" fill="#fff"/>
        <path id="パス_2066" data-name="パス 2066" d="M222.9,81.586a41.719,41.719,0,0,1,4.1-2.9,7.826,7.826,0,0,1,4.061-1.4,5.219,5.219,0,0,1,3.547.783,5.36,5.36,0,0,1,1.79,3.016c.715,3-.974,6.128-2.546,8.561a95.415,95.415,0,0,1-6.127,8.444,31.422,31.422,0,0,1-6.2,6.3c-1.5,1-.091,3.431,1.416,2.423a31.618,31.618,0,0,0,6.539-6.453,94.772,94.772,0,0,0,7-9.615c1.93-3.065,3.53-6.828,2.6-10.5a8.227,8.227,0,0,0-2.275-3.971,7.007,7.007,0,0,0-4.6-1.786,10.385,10.385,0,0,0-5.776,1.237,41.788,41.788,0,0,0-5.521,3.879,1.415,1.415,0,0,0,0,1.985,1.434,1.434,0,0,0,1.985,0Z" transform="translate(-91.576 -30.916)" fill="#211715"/>
        <path id="パス_2067" data-name="パス 2067" d="M94.085,2.406h56.4A14.065,14.065,0,0,1,164.55,16.471V157.33a14.063,14.063,0,0,1-14.063,14.063h-56.4a14.065,14.065,0,0,1-14.065-14.065V16.47A14.063,14.063,0,0,1,94.086,2.406Z" transform="translate(-33.242 -0.999)" fill="#fff"/>
        <path id="パス_2068" data-name="パス 2068" d="M160.03,2.406a2.251,2.251,0,0,0-1.488,1.947V6.558a5.731,5.731,0,0,1-5.719,5.731c-5.449.008-13.62.019-19.138.03-5.518-.011-13.688-.022-19.138-.03a5.731,5.731,0,0,1-5.719-5.731V4.353a2.253,2.253,0,0,0-1.353-1.947" transform="translate(-44.641 -0.999)" fill="#211715"/>
        <rect id="長方形_129" data-name="長方形 129" width="79" height="145" transform="translate(49.544 15.047)" fill="#00b900"/>
        <g id="グループ_109" data-name="グループ 109" transform="translate(67.92 68.628)">
          <g id="グループ_104" data-name="グループ 104">
            <g id="グループ_102" data-name="グループ 102">
              <path id="パス_2088" data-name="パス 2088" d="M894.749,515.172c0-9.278-9.3-16.827-20.735-16.827s-20.735,7.549-20.735,16.827c0,8.318,7.377,15.284,17.341,16.6.675.146,1.594.445,1.827,1.023a4.26,4.26,0,0,1,.067,1.875s-.243,1.463-.3,1.775c-.09.524-.417,2.05,1.8,1.118s11.941-7.031,16.291-12.038h0C893.309,522.229,894.749,518.885,894.749,515.172Z" transform="translate(-853.279 -498.345)" fill="#fff"/>
            </g>
            <g id="グループ_103" data-name="グループ 103" transform="translate(6.802 12.343)">
              <path id="パス_2089" data-name="パス 2089" d="M1005.373,571.7h-5.825a.4.4,0,0,1-.4-.4v-.006h0V562.26h0v-.009a.4.4,0,0,1,.4-.4h5.825a.4.4,0,0,1,.4.4v1.47a.4.4,0,0,1-.4.4h-3.959v1.527h3.959a.4.4,0,0,1,.4.4v1.47a.4.4,0,0,1-.4.4h-3.959v1.527h3.959a.4.4,0,0,1,.4.4V571.3A.4.4,0,0,1,1005.373,571.7Z" transform="translate(-977.603 -561.855)" fill="#06c755"/>
              <path id="パス_2090" data-name="パス 2090" d="M894.5,571.7a.4.4,0,0,0,.4-.4V569.83a.4.4,0,0,0-.4-.4H890.54v-7.183a.4.4,0,0,0-.4-.4h-1.47a.4.4,0,0,0-.4.4v9.042h0v.006a.4.4,0,0,0,.4.4H894.5Z" transform="translate(-888.278 -561.855)" fill="#06c755"/>
              <rect id="長方形_131" data-name="長方形 131" width="2.262" height="9.841" rx="1.131" transform="translate(7.862)" fill="#06c755"/>
              <path id="パス_2091" data-name="パス 2091" d="M955.847,561.855h-1.47a.4.4,0,0,0-.4.4v5.375l-4.14-5.591a.4.4,0,0,0-.032-.041l0,0-.024-.025-.007-.007-.022-.018-.011-.008-.021-.014-.012-.007-.022-.012-.012-.006-.023-.01-.013,0-.024-.008-.014,0-.024-.005-.017,0-.021,0h-1.5a.4.4,0,0,0-.4.4V571.3a.4.4,0,0,0,.4.4h1.47a.4.4,0,0,0,.4-.4v-5.373l4.146,5.6a.4.4,0,0,0,.1.1l0,0,.025.015.011.006.019.009.019.008.012,0,.027.009.006,0a.4.4,0,0,0,.1.014h1.463a.4.4,0,0,0,.4-.4v-9.049A.4.4,0,0,0,955.847,561.855Z" transform="translate(-936.108 -561.855)" fill="#06c755"/>
            </g>
          </g>
        </g>
        <path id="パス_2069" data-name="パス 2069" d="M158.046.426c.557-.437-.061-.051-.211.044a3.9,3.9,0,0,0-1.03.944,4.845,4.845,0,0,0-.659,3.151,6.166,6.166,0,0,1-.421,2.875,4.42,4.42,0,0,1-1.771,1.894,5.014,5.014,0,0,1-2.617.562L148,9.9l-7.423.011q-6.868.012-13.736,0l-7.491-.011L115.821,9.9a19.226,19.226,0,0,1-2.9-.043,4.372,4.372,0,0,1-3.672-4.081c-.051-1.258.214-2.651-.324-3.831a3.377,3.377,0,0,0-.912-1.186,4.8,4.8,0,0,0-.549-.4c-.149-.092-.45-.322.016.068a1.443,1.443,0,0,0-1.985,0,1.415,1.415,0,0,0,0,1.985,5.655,5.655,0,0,0,.635.423c.047.03.194.147-.006-.012a1.068,1.068,0,0,1,.192.185c-.117-.175.129.292.1.18a5.579,5.579,0,0,1,.025,1.382,15.1,15.1,0,0,0,.058,1.813,7.171,7.171,0,0,0,3.694,5.472c2.118,1.119,4.544.853,6.858.856l7.641.011q7.167.012,14.334,0l7.719-.012,3.574-.005a12.865,12.865,0,0,0,3.383-.251,7.186,7.186,0,0,0,5.061-5.213,36.057,36.057,0,0,0,.191-3.875.539.539,0,0,1,.305-.472,9.015,9.015,0,0,0,.779-.484,1.412,1.412,0,0,0,0-1.985,1.44,1.44,0,0,0-1.985,0Z" transform="translate(-43.65 -0.012)" fill="#211715"/>
        <path id="パス_2070" data-name="パス 2070" d="M149.482,168.991H93.592a14.26,14.26,0,0,1-4.662-.7,12.823,12.823,0,0,1-7.317-6.593c-1.712-3.556-1.192-8.1-1.192-11.96V16.077a13.142,13.142,0,0,1,3.87-9.707,12.74,12.74,0,0,1,8.794-3.558c.5,0,1.007,0,1.51,0h51.558c2.69,0,5.321-.132,7.9.849a12.811,12.811,0,0,1,8.085,11.953c0,1.127,0,2.255,0,3.382V147.744c0,2.94.05,5.885,0,8.824a12.794,12.794,0,0,1-12.659,12.423,1.4,1.4,0,0,0,0,2.807,15.643,15.643,0,0,0,15.344-13.6,30.692,30.692,0,0,0,.123-3.859V25.672c0-3.379.019-6.76,0-10.14A15.684,15.684,0,0,0,154.805.953C152.045-.087,149.2,0,146.326,0h-51.9c-.6,0-1.209-.012-1.813.008A15.613,15.613,0,0,0,82.466,4.232a15.827,15.827,0,0,0-4.854,11.683V155.359A17.026,17.026,0,0,0,79.653,164,15.775,15.775,0,0,0,93.521,171.8H149.48A1.4,1.4,0,0,0,149.482,168.991Z" transform="translate(-32.238 -0.001)" fill="#211715"/>
        <path id="パス_2071" data-name="パス 2071" d="M125.591,280h10.391l15.438,0H155.7a1.4,1.4,0,0,0,0-2.807h-10.51l-15.4,0h-4.195a1.4,1.4,0,0,0,0,2.807Z" transform="translate(-51.601 -115.098)" fill="#211715"/>
        <path id="パス_2072" data-name="パス 2072" d="M136.366,11.6q5.537,0,11.076-.006a1.4,1.4,0,0,0,0-2.807q-5.538,0-11.076.006A1.4,1.4,0,0,0,136.366,11.6Z" transform="translate(-56.074 -3.65)" fill="#4d4544"/>
        <path id="パス_2073" data-name="パス 2073" d="M166.139,11.675a1.638,1.638,0,0,0,0-3.275A1.638,1.638,0,0,0,166.139,11.675Z" transform="translate(-68.343 -3.488)" fill="#4d4544"/>
        <path id="パス_2074" data-name="パス 2074" d="M50.207,134.095q.516-.812.986-1.675c2.943-5.4,4.527-12.188,5.737-18.1a22.152,22.152,0,0,1,1.615-5.747,5.921,5.921,0,0,1,4.571-3.447c3.02-.2,5.268,2.722,6.524,5.475a33.712,33.712,0,0,1-1.619,30.62" transform="translate(-20.862 -43.649)" fill="#fff"/>
        <path id="パス_2075" data-name="パス 2075" d="M50.4,133.812a47.88,47.88,0,0,0,5.483-13.949c.6-2.377,1.111-4.776,1.585-7.181.433-2.185.877-4.6,2.6-6.165a3.35,3.35,0,0,1,4.5-.162,11.671,11.671,0,0,1,3.307,5.054A32.4,32.4,0,0,1,70.1,124.882a31.925,31.925,0,0,1-4.311,14.645,1.4,1.4,0,0,0,2.423,1.417,35.209,35.209,0,0,0,2.705-29.392c-1.492-4.106-4.451-9.711-9.721-8.7-2.429.468-4.272,2.552-5.212,4.73-1.085,2.515-1.4,5.327-1.981,7.988-1.272,5.807-2.829,11.745-6.03,16.822-.966,1.533,1.462,2.943,2.424,1.417Z" transform="translate(-19.844 -42.658)" fill="#211715"/>
        <path id="パス_2076" data-name="パス 2076" d="M28.158,153a15.113,15.113,0,0,0-2.256,5.1c-.306,1.57-.327,3.232-.491,4.822-.392,3.812-.861,7.616-1.453,11.4a106.123,106.123,0,0,1-2.367,11.619c-.705,2.579-1.859,5-2.253,7.657a73.158,73.158,0,0,0-.616,10.344c-.024,4.452.123,8.906.337,13.353.23,4.769.629,9.523.918,14.288a14.664,14.664,0,0,1-1.033,7.025,37.042,37.042,0,0,1-3.647,6A124.336,124.336,0,0,0,1.345,270.838Q.682,272.557.073,274.3a1.417,1.417,0,0,0,.98,1.726,1.431,1.431,0,0,0,1.726-.98,119.49,119.49,0,0,1,13.2-26.464c2.539-3.82,5.759-7.6,6.6-12.242a31.057,31.057,0,0,0-.022-7.824q-.256-3.478-.461-6.959c-.27-4.6-.475-9.21-.545-13.819a112.689,112.689,0,0,1,.271-11.357q.044-.516.1-1.032c.019-.175.039-.351.058-.526.009-.073.018-.146.027-.219.058-.459-.02.134.017-.122.086-.588.185-1.175.318-1.754.274-1.192.791-2.3,1.177-3.457a76.364,76.364,0,0,0,2.573-10.774c.719-4.016,1.274-8.061,1.746-12.113q.309-2.658.564-5.321c.071-.746.106-1.5.205-2.244-.032.237.035-.134.051-.2.048-.2.108-.4.171-.592a12.261,12.261,0,0,1,.495-1.272,17.134,17.134,0,0,1,1.257-2.339c.994-1.515-1.437-2.924-2.424-1.417Z" transform="translate(-0.025 -63.259)" fill="#211715"/>
        <path id="パス_2077" data-name="パス 2077" d="M84.811,356.115A73.56,73.56,0,0,1,94.444,337.3a41.458,41.458,0,0,1,3.33-3.986q.856-.9,1.769-1.745c.274-.251.55-.5.834-.741.068-.058.139-.113.208-.171.227-.192-.2.144.04-.03,1.981-1.458,4.129-2.7,6.242-3.948,2.088-1.237,4.2-2.432,6.266-3.707,2.933-1.813,5.774-3.8,8.59-5.789a117.52,117.52,0,0,0,14.116-11.429A132.683,132.683,0,0,0,148.331,291.3a1.412,1.412,0,0,0-.5-1.92,1.44,1.44,0,0,0-1.92.5,133.533,133.533,0,0,1-10.93,12.777,106.29,106.29,0,0,1-13.446,11.225c-3.046,2.185-6.144,4.311-9.3,6.336-1.925,1.236-3.931,2.351-5.9,3.509-2.208,1.3-4.444,2.586-6.546,4.053a31.234,31.234,0,0,0-6.336,6.236A73.738,73.738,0,0,0,82.1,355.367a1.416,1.416,0,0,0,.98,1.726,1.432,1.432,0,0,0,1.727-.98Z" transform="translate(-34.087 -120.085)" fill="#211715"/>
        <path id="パス_2078" data-name="パス 2078" d="M226.42,174.1l2.558-2.339c1.926-1.759,3.921-3.62,4.8-6.077a9.253,9.253,0,0,0-3.343-10.142c-3.05-2.288-7.058-3.235-10.248-1.15-1.561,1.02-4.72,4.773-6.14,6.886a17.249,17.249,0,0,0-3.107,8,7.661,7.661,0,0,0,3.191,7.123c2.354,1.637,5.592,1.482,8.2.284a31.287,31.287,0,0,0,4.093-2.586Z" transform="translate(-87.581 -63.63)" fill="#fff"/>
        <path id="パス_2079" data-name="パス 2079" d="M226.462,174.11c2.264-2.068,4.772-4.051,6.5-6.614a9.836,9.836,0,0,0,1.427-7.81c-1.26-5.413-7.021-9.532-12.573-8.718-2.46.361-4.245,1.818-5.88,3.578a38.772,38.772,0,0,0-4.468,5.681c-2.914,4.641-4.7,11.621.117,15.725a9.339,9.339,0,0,0,9,1.561,14.8,14.8,0,0,0,3.375-1.667,20.142,20.142,0,0,0,2.5-1.736c1.367-1.185-.625-3.164-1.985-1.985-.234.2.234-.15-.017.015-.121.08-.237.169-.356.252q-.542.377-1.1.734a20.62,20.62,0,0,1-2.231,1.319,7.259,7.259,0,0,1-6.117.225,6.066,6.066,0,0,1-3.241-4.646,12.046,12.046,0,0,1,1.705-7.056,29.491,29.491,0,0,1,3.642-5.135c.663-.775,1.345-1.536,2.077-2.249.285-.278.577-.55.885-.8.035-.029.222-.163.027-.023.063-.045.125-.092.191-.132a7.661,7.661,0,0,1,.813-.459c3.936-1.813,9.006,1.221,10.522,4.956a7.183,7.183,0,0,1-.608,6.762c-1.568,2.433-4.079,4.31-6.194,6.242C223.141,173.346,225.13,175.329,226.462,174.11Z" transform="translate(-86.631 -62.643)" fill="#211715"/>
        <path id="パス_2080" data-name="パス 2080" d="M223.305,217.892l2.817-1.307c2.121-.984,4.327-2.036,5.741-3.9a8.3,8.3,0,0,0-.12-9.571c-1.987-2.778-5.16-4.669-8.449-3.748-1.609.451-5.321,2.807-7.107,4.229a15.461,15.461,0,0,0-4.815,6,6.869,6.869,0,0,0,.805,6.949A7.549,7.549,0,0,0,219.108,219,28.016,28.016,0,0,0,223.305,217.892Z" transform="translate(-87.535 -82.685)" fill="#fff"/>
        <path id="パス_2081" data-name="パス 2081" d="M223.023,218.126c2.482-1.151,5.125-2.164,7.288-3.876a8.969,8.969,0,0,0,3.407-6.545c.328-4.858-3.457-10.025-8.352-10.825a9.2,9.2,0,0,0-6.215,1.436,35.422,35.422,0,0,0-5.321,3.615c-3.993,3.329-7.5,9.208-4.005,14.149,3.022,4.276,8.879,3.906,13.2,2.047a1.413,1.413,0,0,0,.5-1.92,1.441,1.441,0,0,0-1.92-.5c.5-.214-.158.035-.328.088q-.58.181-1.166.34a16.469,16.469,0,0,1-2.253.526,8.223,8.223,0,0,1-2.479-.129,5.676,5.676,0,0,1-2.4-1.106,5.258,5.258,0,0,1-1.62-5.263,11.452,11.452,0,0,1,3.546-5.438,26.692,26.692,0,0,1,4.352-3.2,10.909,10.909,0,0,1,4.135-1.926c3.753-.482,7.251,3.4,7.513,6.921a6.338,6.338,0,0,1-2.4,5.614c-2,1.594-4.6,2.515-6.9,3.582a1.415,1.415,0,0,0-.5,1.92A1.436,1.436,0,0,0,223.023,218.126Z" transform="translate(-86.545 -81.707)" fill="#211715"/>
        <path id="パス_2092" data-name="パス 2092" d="M254.238,348.776c-11.474-10.865-22.156-10.013-34.014-14.525-10.9-4.147-17.032-14.4-22.428-24.736-2.227-4.269-4.5-8.69-4.838-13.492s2.557-12.086,6.478-16.006l.292-.292c-9.177-13.584-15.561-24.849-25.1-40.993-1.7-2.881-4.555-8.031-5.134-11.293-.994-5.614,1.146-8.213,4.593-8.893,1.027-.2,5.943.036,9.743,5.134,9.225,12.375,17.089,23.438,23.945,32.683-1.791-7.82,5.46-8.2,9.045-7.6,3.088.512,5.315,2.267,7.365,4.632,1.8,2.082,3.525,4.122,5.263,6.2-1.071-5.448.956-8.258,4.976-9.492,2.147-.658,5.427-.453,7.34,1.374,1.121,1.07,2.185,2.1,3.213,3.105,2.339-3.107,6.884-3.806,10.593-2.665,3.672,1.129,6.7,3.7,9.532,6.3,7.617,6.982,14.85,14.919,18.156,24.708,4.32,12.79,2.61,31.068,11.462,41.262" transform="translate(-70.292 -90.727)" fill="#fff"/>
        <path id="パス_2093" data-name="パス 2093" d="M235.1,273.857c.188-1.984,1.561-2.924,3.411-3.339a10.725,10.725,0,0,1,2.8-.2c.4.018.8.051,1.2.1-.331-.044.063.012.109.02.153.029.305.054.457.086a10.211,10.211,0,0,1,1.3.365c2.81,1,4.706,3.474,6.574,5.661,2.091,2.446,4.148,4.919,6.207,7.392,2.6,3.127,5.216,6.248,7.869,9.334a1.416,1.416,0,0,0,1.985,0,1.432,1.432,0,0,0,0-1.985c-4.854-5.648-9.544-11.436-14.389-17.092-2.228-2.6-4.538-5.123-7.92-6.154a13.839,13.839,0,0,0-7.087-.206A7.549,7.549,0,0,0,234.1,269.7a6.491,6.491,0,0,0-1.8,4.156,1.414,1.414,0,0,0,1.4,1.4A1.434,1.434,0,0,0,235.1,273.857Z" transform="translate(-96.468 -111.066)" fill="#211715"/>
        <path id="パス_2094" data-name="パス 2094" d="M272.144,277.5a4.971,4.971,0,0,1,2.725-4.25,7.462,7.462,0,0,1,5.8-.543,7.106,7.106,0,0,1,2.679,1.933q1.462,1.407,2.91,2.834,2.777,2.748,5.443,5.605c2.177,2.343,4.281,4.75,6.341,7.193a1.415,1.415,0,0,0,1.985,0,1.434,1.434,0,0,0,0-1.988q-5.848-6.935-12.3-13.307c-2.017-1.983-3.957-4.4-6.809-5.124a10.447,10.447,0,0,0-7.472.968,7.9,7.9,0,0,0-4.115,6.673,1.416,1.416,0,0,0,1.4,1.4,1.43,1.43,0,0,0,1.4-1.4Z" transform="translate(-111.85 -111.925)" fill="#211715"/>
        <path id="パス_2095" data-name="パス 2095" d="M298.873,277.838a8.044,8.044,0,0,1,7.5-2.593c3.162.435,5.965,2.35,8.354,4.357A83.057,83.057,0,0,1,328.8,294.421a45.551,45.551,0,0,1,5.007,8.748,44.992,44.992,0,0,1,2.515,8.492c1.225,5.968,1.763,12.051,2.878,18.039,1.186,6.366,3.064,12.832,7.365,17.836a1.416,1.416,0,0,0,1.985,0,1.432,1.432,0,0,0,0-1.985c-3.772-4.386-5.391-10.191-6.482-15.753-1.2-6.123-1.737-12.355-2.957-18.474a44.105,44.105,0,0,0-7.678-18.022A85.669,85.669,0,0,0,316.9,277.779c-3.041-2.583-6.478-4.868-10.526-5.339-3.44-.4-7.256.636-9.487,3.415a1.446,1.446,0,0,0,0,1.985,1.413,1.413,0,0,0,1.985,0Z" transform="translate(-123.126 -113.09)" fill="#211715"/>
        <path id="パス_2096" data-name="パス 2096" d="M271.052,390.463a42.035,42.035,0,0,0-9.277-6.707,49.4,49.4,0,0,0-9.015-3.54c-6.054-1.774-12.544-2.69-18.257-5.47-5.757-2.8-10.146-7.575-13.659-12.834-1.853-2.776-3.5-5.685-5.068-8.628a60.593,60.593,0,0,1-4.683-10.106,17.177,17.177,0,0,1-.93-5.71,18.069,18.069,0,0,1,.908-4.767,22.433,22.433,0,0,1,5.178-9.014c1.271-1.287-.713-3.275-1.985-1.985a25.048,25.048,0,0,0-5.321,8.6,19.641,19.641,0,0,0-1.5,9.181,34.164,34.164,0,0,0,3.989,11.545c1.6,3.139,3.254,6.257,5.072,9.276,3.458,5.742,7.64,11.211,13.274,14.97,5.573,3.716,12.3,5.05,18.684,6.686a58.927,58.927,0,0,1,10.172,3.376,39.221,39.221,0,0,1,10.427,7.113c1.315,1.237,3.3-.744,1.985-1.985Z" transform="translate(-86.114 -133.406)" fill="#211715"/>
        <path id="パス_2097" data-name="パス 2097" d="M208.19,297.7a61.5,61.5,0,0,0-6.695-17.192c-1.413-2.464-3.109-4.771-4.665-7.146q-2.52-3.846-4.952-7.75c-3.257-5.221-6.405-10.51-9.532-15.811q-2.542-4.311-5.076-8.628c-1.553-2.64-3.158-5.255-4.582-7.968a25.983,25.983,0,0,1-2.865-7.151,9.928,9.928,0,0,1-.061-3.709,4.307,4.307,0,0,1,1.111-2.236,4.192,4.192,0,0,1,1.968-1.082,3.214,3.214,0,0,0,.616-.144c-.047.082-.387.019-.066.015.287,0,.568-.008.854.016.089.007.175.018.266.026.227.022-.351-.063.029,0,.167.029.334.058.5.093a10.846,10.846,0,0,1,1.4.4,10.716,10.716,0,0,1,2.9,1.637,17.634,17.634,0,0,1,3.114,3.469q1.619,2.177,3.229,4.361,3.113,4.223,6.2,8.466c3.691,5.064,7.361,10.141,11.07,15.191,5.769,7.856,11.552,15.819,18.2,22.965q.944,1.013,1.919,2a1.4,1.4,0,0,0,1.985-1.985c-6.677-6.718-12.339-14.444-17.953-22.046-3.758-5.085-7.463-10.208-11.183-15.321q-3.074-4.223-6.162-8.435-1.665-2.267-3.338-4.529c-1.1-1.479-2.14-3.029-3.347-4.419-2.58-2.973-7.282-5.71-11.345-4.358a6.871,6.871,0,0,0-4.491,4.444,12.851,12.851,0,0,0,.384,7.849,47.34,47.34,0,0,0,3.748,7.949c1.61,2.862,3.322,5.672,4.986,8.5,3.31,5.631,6.612,11.267,10,16.849q4.912,8.082,10.152,15.956a60.5,60.5,0,0,1,4.1,6.879,64.343,64.343,0,0,1,3.574,8.846c.5,1.56.932,3.14,1.283,4.74.388,1.764,3.094,1.017,2.707-.746Z" transform="translate(-69.27 -89.721)" fill="#211715"/>
      </g>
    </g>
  </g>
</svg>
