<svg xmlns="http://www.w3.org/2000/svg" width="88" height="88" viewBox="0 0 88 88">
  <g id="グループ_17" data-name="グループ 17" transform="translate(1165.075 -2476.839)">
    <path id="Area" d="M10-4H70A14.016,14.016,0,0,1,84,10V70A14.016,14.016,0,0,1,70,84H10A14.016,14.016,0,0,1-4,70V10A14.016,14.016,0,0,1,10-4ZM70,76a6.007,6.007,0,0,0,6-6V10a6.007,6.007,0,0,0-6-6H10a6.007,6.007,0,0,0-6,6V70a6.007,6.007,0,0,0,6,6Z" transform="translate(-1161.075 2480.839)" fill="#fff"/>
    <path id="Check" d="M-1126.987,2538.915a5,5,0,0,1-3.536-1.465l-14.328-14.328a5,5,0,0,1,0-7.071,5,5,0,0,1,7.071,0l10.792,10.792,22.615-22.616a5,5,0,0,1,7.071,0,5,5,0,0,1,0,7.071l-26.151,26.152A5,5,0,0,1-1126.987,2538.915Z" fill="#f29600"/>
  </g>
</svg>
