<svg xmlns="http://www.w3.org/2000/svg" width="354" height="80" viewBox="0 0 354 80">
  <g id="グループ_67" data-name="グループ 67" transform="translate(-41.11 -40.063)">
    <g id="グループ_64" data-name="グループ 64" transform="translate(142.65 44.319)">
      <path id="パス_1300" data-name="パス 1300" d="M101.809,50.441c-2.018.6-3.257,2.414-5.409,8.776-1.134,3.332-4.827,3.318-4.365-.32a109.344,109.344,0,0,0,1.292-15.064c.006-1.618,2.809-2.214,3.7-1,1.558,2.028,3.575,2.238,6.932,2.252l50.38.2c5.263.022,5.937-.884,8.3-2.392,1.458-.906,3.693-.088,3.013,2.034-.906,2.828-1.488,8.084-1.618,12.836-.018,4.654-3.937,4.638-4.481.59-.54-4.554-1.428-6.58-2.881-7.394-1.564-.816-4.365-.626-23.621-.7-.672,0-.782.1-.786,1.21l-.186,45.911c-.016,4.246.086,6.27.19,8.5.1,3.64.988,4.858,9.606,5.7,4.477.422,4.463,3.658-.574,3.638-6.718-.026-9.516-.24-13.883-.258-4.143-.018-12.429.152-14.443.144-3.695-.014-4.129-3.354.128-3.64,8.176-.776,8.964-1.886,9.314-5.624.118-1.216.24-3.844.26-9l.182-45.1c.006-1.518-.106-1.72-1-1.724C106.178,49.953,103.49,50.043,101.809,50.441Z" transform="translate(-91.995 -42.19)" fill="#221815"/>
      <path id="パス_1301" data-name="パス 1301" d="M156.184,78.657c-.672,0-.9.2-.9.906l-.062,15.674c-.024,5.866.08,7.89.184,9.71.212,3.036.766,4.554,8.376,5.292,4.141.32,4.127,3.758-.016,3.742-2.238-.01-7.836-.234-13.321-.256-5.039-.02-10.86.158-12.765.152-3.917-.016-3.791-3.454-.1-3.744,6.5-.782,7.732-1.688,7.97-5.226.12-2.224.24-4.044.264-9.91l.132-33.067c.024-5.764-.076-8.5-.182-10.216-.214-2.528-1.328-3.544-8.268-4.382-3.915-.42-3.679-3.654.016-3.64,1.79.008,6.493.23,12.089.252,6.606.026,11.757-.156,14.331-.146,3.919.016,3.907,3.15-.126,3.642-6.047.784-7.956,1.586-8.19,4.212a91.761,91.761,0,0,0-.262,9.506l-.044,11.024c0,.91.108,1.214,1,1.218l43.328.172c.558,0,.56-.3.562-.806l.044-10.82c.026-6.676-.08-7.888-.186-9.812-.212-2.932-.992-3.644-7.482-4.58-4.365-.422-4.575-3.658-.1-3.642,2.241.01,7.166.232,13.1.256,5.261.022,9.852-.162,12.539-.152,4.031.016,4.129,3.354-.126,3.742-6.273.682-7.51,1.79-7.854,3.912a80.277,80.277,0,0,0-.376,10.01l-.134,33.373c-.026,6.472.078,8.494.184,10.314.32,3.54.99,4.05,7.928,5.09,4.251.422,4.015,3.758-.128,3.74-3.471-.014-6.492-.228-13.209-.254-5.6-.024-9.628.264-12.315.254-3.7-.016-3.795-3.456.014-3.844,6.61-.984,7.4-1.59,7.632-4.824a89.041,89.041,0,0,0,.374-9.5l.066-16.483c0-.506-.108-.708-.556-.71Z" transform="translate(-49.317 -40.688)" fill="#221815"/>
      <path id="パス_1302" data-name="パス 1302" d="M208.6,97.472c-.02,5.056.194,7.182.3,8.6.436,2.63,1.44,3.546,9.05,4.384,4.029.524,3.9,3.758-.576,3.74-3.469-.014-6.267-.228-13.657-.258-4.7-.018-10.076.162-12.763.152-3.695-.016-4.131-3.152.126-3.64,6.946-.982,7.622-1.992,7.858-4.924.236-3.134.248-6.168.274-12.438l.122-30.337a98.592,98.592,0,0,0-.3-10.014c-.32-3.642-1.436-4.454-8.15-5.19-3.695-.42-4.015-3.656.462-3.638,2.014.006,7.39.232,9.738.242,5.151.02,14.331-.248,19.819-.226,18.808.076,27.5,9.112,27.462,19.527-.024,6.068-1.952,12.23-9.362,17.557-6.512,4.526-14.581,6.818-24.658,6.778-1.568-.006-4.7-.118-5.709-.124ZM209.673,81.6c2.347,1.02,7.384,1.242,10.63,1.256,11.419.044,17.818-4.682,17.866-16.513.042-10.518-6.2-17.923-19.967-17.979-4.7-.018-6.832.378-8.29,1.18-.9.4-1.124,1.412-1.138,4.446l-.1,25.987C208.666,80.887,208.889,81.293,209.673,81.6Z" transform="translate(4.09 -40.472)" fill="#221815"/>
    </g>
    <g id="グループ_66" data-name="グループ 66" transform="translate(41.11 40.063)">
      <g id="グループ_65" data-name="グループ 65">
        <rect id="長方形_48" data-name="長方形 48" width="80.018" height="24.203" transform="translate(0 27.898)" fill="#221815"/>
        <rect id="長方形_49" data-name="長方形 49" width="80.018" height="24.203" fill="#221815"/>
        <rect id="長方形_50" data-name="長方形 50" width="80.018" height="24.203" transform="translate(0 55.797)" fill="#221815"/>
      </g>
    </g>
  </g>
</svg>
