<svg xmlns="http://www.w3.org/2000/svg" width="500.005" height="94" viewBox="0 0 500.005 94">
  <g id="グループ_85" data-name="グループ 85" transform="translate(1313 -1113.833)">
    <rect id="長方形_125" data-name="長方形 125" width="500.005" height="94" transform="translate(-1313 1113.833)" fill="none"/>
    <path id="パス_2061" data-name="パス 2061" d="M-73.094-32.376v-.142a18.048,18.048,0,0,0-1.314-6.993,15.348,15.348,0,0,0-3.763-5.431,16.948,16.948,0,0,0-5.964-3.514A23.881,23.881,0,0,0-92.122-49.7h-20.306V0h10.934V-14.91h8.307a27.1,27.1,0,0,0,7.845-1.1,18.624,18.624,0,0,0,6.39-3.3,15.5,15.5,0,0,0,4.3-5.467A17.422,17.422,0,0,0-73.094-32.376Zm-11.076.213A7.108,7.108,0,0,1-86.443-26.8a8.892,8.892,0,0,1-6.39,2.165h-8.662V-39.831h8.449a10.069,10.069,0,0,1,6.5,1.917,6.779,6.779,0,0,1,2.379,5.609ZM-18.5,0-30.637-17.75a17.072,17.072,0,0,0,7.7-5.573,15.584,15.584,0,0,0,2.946-9.834V-33.3q0-7.739-4.934-12.07T-38.731-49.7h-22.72V0h10.934V-15.9h8.591L-31.276,0ZM-31.063-32.589a6.49,6.49,0,0,1-2.166,5.112,9.08,9.08,0,0,1-6.213,1.917H-50.517V-39.831h10.863a10.033,10.033,0,0,1,6.319,1.775,6.341,6.341,0,0,1,2.272,5.325ZM4.863,0V-49.7H-6.071V0ZM64.5-8.023l-6.958-7.029a27.979,27.979,0,0,1-5.858,4.26A15.228,15.228,0,0,1,44.481-9.23a13.68,13.68,0,0,1-5.858-1.243,13.736,13.736,0,0,1-4.544-3.372,15.81,15.81,0,0,1-2.946-4.97,17.045,17.045,0,0,1-1.065-6.035v-.142a16.757,16.757,0,0,1,1.065-6,15.55,15.55,0,0,1,2.982-4.934,13.7,13.7,0,0,1,4.58-3.337,13.849,13.849,0,0,1,5.787-1.207,15.1,15.1,0,0,1,6.78,1.491,26.3,26.3,0,0,1,5.929,4.118l6.958-8.023a29.269,29.269,0,0,0-3.692-3.124,22.623,22.623,0,0,0-4.331-2.414,26.492,26.492,0,0,0-5.218-1.562,32.869,32.869,0,0,0-6.354-.568,26.577,26.577,0,0,0-10.508,2.024,24.686,24.686,0,0,0-8.165,5.538,25.647,25.647,0,0,0-5.325,8.165,25.916,25.916,0,0,0-1.917,9.976v.142A26.181,26.181,0,0,0,20.554-14.7a24.73,24.73,0,0,0,5.325,8.13,24.97,24.97,0,0,0,8.094,5.432A25.726,25.726,0,0,0,44.126.852a32.3,32.3,0,0,0,6.532-.6,23.372,23.372,0,0,0,5.361-1.775,23.64,23.64,0,0,0,4.508-2.8A36.048,36.048,0,0,0,64.5-8.023ZM114.629,0V-9.727H87.649V-20.164h23.43v-9.727H87.649V-39.973h26.625V-49.7H76.786V0Z" transform="translate(-1064.461 1164.833)" fill="#f29600"/>
    <g id="グループ_20" data-name="グループ 20" transform="translate(-1313 1151.129)">
      <g id="グループ_19" data-name="グループ 19" transform="translate(0)">
        <g id="グループ_18" data-name="グループ 18">
          <rect id="長方形_1" data-name="長方形 1" width="29.851" height="9.029" transform="translate(0 10.411)" fill="#002063"/>
          <rect id="長方形_2" data-name="長方形 2" width="29.851" height="9.029" fill="#002063"/>
          <rect id="長方形_3" data-name="長方形 3" width="29.851" height="9.029" transform="translate(0 20.822)" fill="#002063"/>
        </g>
      </g>
    </g>
    <g id="グループ_23" data-name="グループ 23" transform="translate(-842.846 1151.129)">
      <g id="グループ_22" data-name="グループ 22" transform="translate(0)">
        <g id="グループ_21" data-name="グループ 21">
          <rect id="長方形_4" data-name="長方形 4" width="29.851" height="9.029" transform="translate(0 10.411)" fill="#002063"/>
          <rect id="長方形_5" data-name="長方形 5" width="29.851" height="9.029" fill="#002063"/>
          <rect id="長方形_6" data-name="長方形 6" width="29.851" height="9.029" transform="translate(0 20.822)" fill="#002063"/>
        </g>
      </g>
    </g>
    <text id="費用" transform="translate(-1063.864 1202.967)" font-size="25" font-family="HiraginoSans-W3, Hiragino Sans" letter-spacing="0.05em"><tspan x="-25.625" y="0">費用</tspan></text>
  </g>
</svg>
