<svg xmlns="http://www.w3.org/2000/svg" width="500.001" height="325" viewBox="0 0 500.001 325">
  <g id="グループ_60" data-name="グループ 60" transform="translate(-39 -13277.252)">
    <rect id="長方形_39" data-name="長方形 39" width="500.001" height="325" transform="translate(39 13277.252)" fill="#fff"/>
    <g id="グループ_58" data-name="グループ 58" transform="translate(58.551 13353.976)" opacity="0.3">
      <path id="パス_1003" data-name="パス 1003" d="M330.614,13611.077c0-25.564.172-225.858.172-227.965H209.492c0,2.106-.171,201.9-.171,227.46" transform="translate(-101.766 -13381.167)" fill="#fff"/>
      <path id="パス_1004" data-name="パス 1004" d="M298.583,13455.721c1.346,0,29.023.027,31.27.027v12.359h-31.21C298.643,13465.709,298.583,13456.4,298.583,13455.721Z" transform="translate(-124.415 -13399.591)" fill="#94d1e6"/>
      <path id="パス_1005" data-name="パス 1005" d="M297.921,13453.115q13.286,0,26.573.023h4.7a1.975,1.975,0,0,1,1.946,1.946v12.36a1.972,1.972,0,0,1-1.946,1.944H297.98a1.975,1.975,0,0,1-1.945-1.944c0-4.13-.056-8.259-.062-12.388,0-2.5,3.89-2.508,3.89,0,.006,4.129.06,8.258.063,12.388l-1.945-1.945h31.21l-1.945,1.945v-12.357l1.945,1.945q-13.517,0-27.04-.023h-4.231C295.418,13457,295.414,13453.115,297.921,13453.115Z" transform="translate(-123.753 -13398.93)" fill="#211715"/>
      <path id="パス_1006" data-name="パス 1006" d="M237.974,13455.721c1.345,0,29.023.027,31.271.027v12.359H238.037C238.037,13465.709,237.974,13456.4,237.974,13455.721Z" transform="translate(-109.036 -13399.591)" fill="#94d1e6"/>
      <path id="パス_1007" data-name="パス 1007" d="M237.313,13453.115q13.286,0,26.572.023h4.7a1.975,1.975,0,0,1,1.945,1.946v12.36a1.973,1.973,0,0,1-1.945,1.944H237.375a1.972,1.972,0,0,1-1.946-1.944c0-4.13-.057-8.259-.062-12.388,0-2.5,3.89-2.508,3.89,0,0,4.129.06,8.258.062,12.388l-1.945-1.945h31.208l-1.946,1.945v-12.357l1.946,1.945q-13.518,0-27.041-.023h-4.23C234.81,13457,234.806,13453.115,237.313,13453.115Z" transform="translate(-108.375 -13398.93)" fill="#211715"/>
      <path id="パス_1008" data-name="パス 1008" d="M221.023,13472.32H324.331" transform="translate(-104.735 -13403.803)" fill="#fff"/>
      <path id="パス_1009" data-name="パス 1009" d="M220.384,13469.715H323.693c2.5,0,2.507,3.89,0,3.89H220.384C217.881,13473.6,217.878,13469.715,220.384,13469.715Z" transform="translate(-104.097 -13403.143)" fill="#211715"/>
      <path id="パス_1010" data-name="パス 1010" d="M298.583,13484.466c1.346,0,29.023.027,31.27.027v12.36h-31.21C298.643,13494.455,298.583,13485.145,298.583,13484.466Z" transform="translate(-124.415 -13406.885)" fill="#94d1e6"/>
      <path id="パス_1011" data-name="パス 1011" d="M297.921,13481.858q13.286,0,26.573.022h4.7a1.975,1.975,0,0,1,1.946,1.945v12.359a1.974,1.974,0,0,1-1.946,1.946H297.98a1.975,1.975,0,0,1-1.945-1.946c0-4.127-.056-8.257-.062-12.387,0-2.5,3.89-2.507,3.89,0,.006,4.13.06,8.26.063,12.387l-1.945-1.944h31.21l-1.945,1.944v-12.359l1.945,1.944q-13.517,0-27.04-.023h-4.231C295.418,13485.748,295.414,13481.858,297.921,13481.858Z" transform="translate(-123.753 -13406.223)" fill="#211715"/>
      <path id="パス_1012" data-name="パス 1012" d="M237.974,13484.466c1.345,0,29.023.027,31.271.027v12.36H238.037C238.037,13494.455,237.974,13485.145,237.974,13484.466Z" transform="translate(-109.036 -13406.885)" fill="#94d1e6"/>
      <path id="パス_1013" data-name="パス 1013" d="M237.313,13481.858q13.286,0,26.572.022h4.7a1.974,1.974,0,0,1,1.945,1.945v12.359a1.975,1.975,0,0,1-1.945,1.946H237.375a1.973,1.973,0,0,1-1.946-1.946c0-4.127-.057-8.257-.062-12.387,0-2.5,3.89-2.507,3.89,0,0,4.13.06,8.26.062,12.387l-1.945-1.944h31.208l-1.946,1.944v-12.359l1.946,1.944q-13.518,0-27.041-.023h-4.23C234.81,13485.748,234.806,13481.858,237.313,13481.858Z" transform="translate(-108.375 -13406.223)" fill="#211715"/>
      <path id="パス_1014" data-name="パス 1014" d="M221.023,13513.209H324.331" transform="translate(-104.735 -13414.178)" fill="#fff"/>
      <path id="パス_1015" data-name="パス 1015" d="M220.384,13510.6H323.693c2.5,0,2.507,3.889,0,3.889H220.384C217.881,13514.491,217.878,13510.6,220.384,13510.6Z" transform="translate(-104.097 -13413.517)" fill="#211715"/>
      <path id="パス_1016" data-name="パス 1016" d="M221.023,13501.065H324.331" transform="translate(-104.735 -13411.096)" fill="#fff"/>
      <path id="パス_1017" data-name="パス 1017" d="M220.384,13498.458H323.693c2.5,0,2.507,3.891,0,3.891H220.384C217.881,13502.349,217.878,13498.458,220.384,13498.458Z" transform="translate(-104.097 -13410.434)" fill="#211715"/>
      <path id="パス_1018" data-name="パス 1018" d="M362.227,13382.474q0,7.169-.017,14.339l-.041,33.366-.049,41.926q-.022,20.06-.043,40.117-.012,13.78-.02,27.557v2.02c0,2.5-3.89,2.506-3.89,0q0-12.706.018-25.411.018-19.522.041-39.045.022-21.129.049-42.255.021-17.536.043-35.072c.007-5.718-.114-11.452.022-17.168v-.373c0-2.5,3.89-2.507,3.89,0Z" transform="translate(-139.533 -13380.528)" fill="#211715"/>
      <path id="パス_1019" data-name="パス 1019" d="M373.309,13382.475q0,7.169-.017,14.339l-.041,33.366-.05,41.926q-.021,20.06-.043,40.117-.012,13.78-.02,27.557v2.02c0,2.5-3.89,2.506-3.89,0q0-12.706.018-25.411.017-19.522.04-39.045.024-21.129.05-42.255.022-17.536.042-35.068c.007-5.719-.115-11.452.02-17.168v-.373c0-2.5,3.89-2.507,3.89,0Z" transform="translate(-142.345 -13380.529)" fill="#211715"/>
      <path id="パス_1020" data-name="パス 1020" d="M208.606,13380.506H330.128c2.5,0,2.507,3.89,0,3.89H208.606C206.1,13384.4,206.1,13380.506,208.606,13380.506Z" transform="translate(-101.108 -13380.506)" fill="#211715"/>
      <path id="パス_1021" data-name="パス 1021" d="M217.172,13505.181q.124-28.854.219-57.711.088-25.49.161-50.98.02-7,.03-14.016c0-2.5,3.89-2.507,3.89,0,0,11.231-.052,22.465-.087,33.691q-.091,28.857-.194,57.713-.059,15.65-.125,31.3c-.011,2.5-3.9,2.509-3.89,0Z" transform="translate(-103.758 -13380.528)" fill="#211715"/>
      <path id="パス_1022" data-name="パス 1022" d="M210.776,13382.474q0,5.319-.017,10.636l-.04,24.616q-.027,15.687-.05,31.369-.024,15.445-.043,30.89-.015,11.624-.022,23.25v1.945c0,2.5-3.89,2.508-3.89,0q0-10.843.017-21.687.018-15.155.041-30.312.023-15.851.049-31.709l.044-25.869c.007-4.267-.1-8.557.02-12.821v-.308c0-2.5,3.89-2.507,3.89,0Z" transform="translate(-101.105 -13380.528)" fill="#211715"/>
      <path id="パス_1023" data-name="パス 1023" d="M221.023,13484.466H324.331" transform="translate(-104.735 -13406.885)" fill="#fff"/>
      <path id="パス_1024" data-name="パス 1024" d="M220.384,13481.858H323.693c2.5,0,2.507,3.89,0,3.89H220.384C217.881,13485.748,217.878,13481.858,220.384,13481.858Z" transform="translate(-104.097 -13406.223)" fill="#211715"/>
      <path id="パス_1025" data-name="パス 1025" d="M298.583,13426.977c1.346,0,29.023.027,31.27.027v12.36h-31.21C298.643,13436.968,298.583,13427.655,298.583,13426.977Z" transform="translate(-124.415 -13392.297)" fill="#94d1e6"/>
      <path id="パス_1026" data-name="パス 1026" d="M297.921,13424.371q13.286,0,26.573.023h4.7a1.975,1.975,0,0,1,1.946,1.944v12.36a1.971,1.971,0,0,1-1.946,1.944H297.98a1.971,1.971,0,0,1-1.945-1.944c0-4.129-.056-8.258-.062-12.386,0-2.5,3.89-2.508,3.89,0,.006,4.128.06,8.257.063,12.386l-1.945-1.944h31.21l-1.945,1.944v-12.356l1.945,1.946q-13.517,0-27.04-.025h-4.231C295.418,13428.262,295.414,13424.371,297.921,13424.371Z" transform="translate(-123.753 -13391.636)" fill="#211715"/>
      <path id="パス_1027" data-name="パス 1027" d="M237.974,13426.977c1.345,0,29.023.027,31.271.027v12.36H238.037C238.037,13436.968,237.974,13427.655,237.974,13426.977Z" transform="translate(-109.036 -13392.297)" fill="#94d1e6"/>
      <path id="パス_1028" data-name="パス 1028" d="M237.313,13424.371q13.286,0,26.572.023h4.7a1.974,1.974,0,0,1,1.945,1.944v12.36a1.971,1.971,0,0,1-1.945,1.944H237.375a1.97,1.97,0,0,1-1.946-1.944c0-4.129-.057-8.258-.062-12.386,0-2.5,3.89-2.508,3.89,0,0,4.128.06,8.257.062,12.386l-1.945-1.944h31.208l-1.946,1.944v-12.356l1.946,1.946q-13.518,0-27.041-.025h-4.23C234.81,13428.262,234.806,13424.371,237.313,13424.371Z" transform="translate(-108.375 -13391.636)" fill="#211715"/>
      <path id="パス_1029" data-name="パス 1029" d="M221.023,13443.577H324.331" transform="translate(-104.735 -13396.51)" fill="#fff"/>
      <path id="パス_1030" data-name="パス 1030" d="M220.384,13440.971H323.693c2.5,0,2.507,3.888,0,3.888H220.384C217.881,13444.858,217.878,13440.971,220.384,13440.971Z" transform="translate(-104.097 -13395.849)" fill="#211715"/>
      <path id="パス_1031" data-name="パス 1031" d="M221.023,13426.978H324.331" transform="translate(-104.735 -13392.298)" fill="#fff"/>
      <path id="パス_1032" data-name="パス 1032" d="M220.384,13424.371H323.693c2.5,0,2.507,3.891,0,3.891H220.384C217.881,13428.262,217.878,13424.371,220.384,13424.371Z" transform="translate(-104.097 -13391.636)" fill="#211715"/>
      <path id="パス_1033" data-name="パス 1033" d="M221.023,13426.17H324.331" transform="translate(-104.735 -13392.093)" fill="#fff"/>
      <path id="パス_1034" data-name="パス 1034" d="M220.384,13423.564H323.693c2.5,0,2.507,3.889,0,3.889H220.384C217.881,13427.453,217.878,13423.564,220.384,13423.564Z" transform="translate(-104.097 -13391.432)" fill="#211715"/>
      <path id="パス_1035" data-name="パス 1035" d="M298.583,13397.426c1.346,0,29.023.027,31.27.027v12.361h-31.21C298.643,13407.414,298.583,13398.1,298.583,13397.426Z" transform="translate(-124.415 -13384.799)" fill="#94d1e6"/>
      <path id="パス_1036" data-name="パス 1036" d="M297.921,13394.82q13.286,0,26.573.023h4.7a1.974,1.974,0,0,1,1.946,1.944v12.361a1.972,1.972,0,0,1-1.946,1.944H297.98a1.975,1.975,0,0,1-1.945-1.944c0-4.129-.056-8.258-.062-12.389,0-2.5,3.89-2.506,3.89,0,.006,4.131.06,8.26.063,12.389l-1.945-1.944h31.21l-1.945,1.944v-12.357l1.945,1.944q-13.517,0-27.04-.023h-4.231C295.418,13398.711,295.414,13394.82,297.921,13394.82Z" transform="translate(-123.753 -13384.139)" fill="#211715"/>
      <path id="パス_1037" data-name="パス 1037" d="M237.974,13397.426c1.345,0,29.023.027,31.271.027v12.361H238.037C238.037,13407.414,237.974,13398.1,237.974,13397.426Z" transform="translate(-109.036 -13384.799)" fill="#94d1e6"/>
      <path id="パス_1038" data-name="パス 1038" d="M237.313,13394.82q13.286,0,26.572.023h4.7a1.973,1.973,0,0,1,1.945,1.944v12.361a1.975,1.975,0,0,1-1.945,1.944H237.375a1.971,1.971,0,0,1-1.946-1.944c0-4.129-.057-8.258-.062-12.389,0-2.5,3.89-2.506,3.89,0,0,4.131.06,8.26.062,12.389l-1.945-1.944h31.208l-1.946,1.944v-12.357l1.946,1.944q-13.518,0-27.041-.023h-4.23C234.81,13398.711,234.806,13394.82,237.313,13394.82Z" transform="translate(-108.375 -13384.139)" fill="#211715"/>
      <path id="パス_1039" data-name="パス 1039" d="M221.023,13414.026H324.331" transform="translate(-104.735 -13389.012)" fill="#fff"/>
      <path id="パス_1040" data-name="パス 1040" d="M220.384,13411.421H323.693c2.5,0,2.507,3.889,0,3.889H220.384C217.881,13415.31,217.878,13411.421,220.384,13411.421Z" transform="translate(-104.097 -13388.351)" fill="#211715"/>
      <path id="パス_1041" data-name="パス 1041" d="M221.023,13397.427H324.331" transform="translate(-104.735 -13384.8)" fill="#fff"/>
      <path id="パス_1042" data-name="パス 1042" d="M220.384,13394.82H323.693c2.5,0,2.507,3.891,0,3.891H220.384C217.881,13398.711,217.878,13394.82,220.384,13394.82Z" transform="translate(-104.097 -13384.139)" fill="#211715"/>
      <path id="パス_1043" data-name="パス 1043" d="M298.583,13514.015c1.346,0,29.023.027,31.27.027v12.361h-31.21C298.643,13524.006,298.583,13514.693,298.583,13514.015Z" transform="translate(-124.415 -13414.381)" fill="#94d1e6"/>
      <path id="パス_1044" data-name="パス 1044" d="M297.921,13511.411q13.286,0,26.573.022h4.7a1.973,1.973,0,0,1,1.946,1.944v12.361a1.973,1.973,0,0,1-1.946,1.943H297.98a1.972,1.972,0,0,1-1.945-1.943c0-4.129-.056-8.259-.062-12.388,0-2.5,3.89-2.508,3.89,0,.006,4.129.06,8.259.063,12.388l-1.945-1.944h31.21l-1.945,1.944v-12.357l1.945,1.946q-13.517,0-27.04-.025h-4.231C295.418,13515.3,295.414,13511.411,297.921,13511.411Z" transform="translate(-123.753 -13413.722)" fill="#211715"/>
      <path id="パス_1045" data-name="パス 1045" d="M237.974,13514.015c1.345,0,29.023.027,31.271.027v12.361H238.037C238.037,13524.006,237.974,13514.693,237.974,13514.015Z" transform="translate(-109.036 -13414.381)" fill="#94d1e6"/>
      <path id="パス_1046" data-name="パス 1046" d="M237.313,13511.411q13.286,0,26.572.022h4.7a1.972,1.972,0,0,1,1.945,1.944v12.361a1.972,1.972,0,0,1-1.945,1.943H237.375a1.971,1.971,0,0,1-1.946-1.943c0-4.129-.057-8.259-.062-12.388,0-2.5,3.89-2.508,3.89,0,0,4.129.06,8.259.062,12.388l-1.945-1.944h31.208l-1.946,1.944v-12.357l1.946,1.946q-13.518,0-27.041-.025h-4.23C234.81,13515.3,234.806,13511.411,237.313,13511.411Z" transform="translate(-108.375 -13413.722)" fill="#211715"/>
      <path id="パス_1047" data-name="パス 1047" d="M221.023,13530.616H324.331" transform="translate(-104.735 -13418.595)" fill="#fff"/>
      <path id="パス_1048" data-name="パス 1048" d="M220.384,13528.009H323.693c2.5,0,2.507,3.891,0,3.891H220.384C217.881,13531.9,217.878,13528.009,220.384,13528.009Z" transform="translate(-104.097 -13417.933)" fill="#211715"/>
      <path id="パス_1049" data-name="パス 1049" d="M221.023,13514.017H324.331" transform="translate(-104.735 -13414.383)" fill="#fff"/>
      <path id="パス_1050" data-name="パス 1050" d="M220.384,13511.411H323.693c2.5,0,2.507,3.889,0,3.889H220.384C217.881,13515.3,217.878,13511.411,220.384,13511.411Z" transform="translate(-104.097 -13413.722)" fill="#211715"/>
      <path id="パス_1051" data-name="パス 1051" d="M221.023,13455.721H324.331" transform="translate(-104.735 -13399.591)" fill="#fff"/>
      <path id="パス_1052" data-name="パス 1052" d="M220.384,13453.115H323.693c2.5,0,2.507,3.89,0,3.89H220.384C217.881,13457,217.878,13453.115,220.384,13453.115Z" transform="translate(-104.097 -13398.93)" fill="#211715"/>
      <path id="パス_1053" data-name="パス 1053" d="M400.757,13648.3c0-11.214.235-104.893.235-117.244h90.455s-.259,116.991,0,117.244" transform="translate(-150.339 -13418.704)" fill="#fff"/>
      <path id="パス_1054" data-name="パス 1054" d="M398.15,13579.036c0-12.988.143-25.975.207-38.962q.023-4.838.029-9.684a1.971,1.971,0,0,1,1.945-1.944h79.426c2.5,0,2.507,3.889,0,3.889H400.331l1.945-1.944c0,13.18-.14,26.362-.206,39.544q-.023,4.553-.029,9.1C402.04,13581.538,398.15,13581.542,398.15,13579.036Z" transform="translate(-149.678 -13418.043)" fill="#211715"/>
      <path id="パス_1055" data-name="パス 1055" d="M440.767,13547.254c-8.511,0-17.019-.105-25.534-.107-2.5,0-2.508-3.889,0-3.889,8.511,0,17.019.106,25.534.107C443.27,13543.365,443.273,13547.254,440.767,13547.254Z" transform="translate(-153.535 -13421.801)" fill="#211715"/>
      <path id="パス_1056" data-name="パス 1056" d="M429.74,13558.133c-4.836,0-9.672-.105-14.507-.107-2.5,0-2.508-3.889,0-3.889,4.835,0,9.671.105,14.507.107,2.5,0,2.507,3.889,0,3.889Z" transform="translate(-153.535 -13424.563)" fill="#211715"/>
      <path id="パス_1057" data-name="パス 1057" d="M286.617,13655.8c.019-17.414.038-91.326.039-95.163H153.366v1.123c0,5.737-.081,80.991-.081,93.428" transform="translate(-87.548 -13426.212)" fill="#fff"/>
      <path id="パス_1058" data-name="パス 1058" d="M284.011,13655.144q.021-19.431.021-38.861.009-22.522.015-45.044v-11.257l1.945,1.943H152.7l1.945-1.943q0,15.551-.026,31.1-.024,23.687-.044,47.375-.007,8.036-.01,16.072c0,2.5-3.89,2.509-3.89,0q0-17.9.028-35.8.02-22.894.044-45.785.006-6.482.009-12.961a1.973,1.973,0,0,1,1.945-1.945H285.995a1.972,1.972,0,0,1,1.945,1.945l-.008,29.153q-.008,23.895-.018,47.787,0,9.111-.013,18.222c0,2.5-3.89,2.508-3.89,0Z" transform="translate(-86.887 -13425.552)" fill="#211715"/>
      <path id="パス_1059" data-name="パス 1059" d="M222.02,13627.984c1.338,0,28.872.038,31.108.038v37.919H222.081C222.081,13662.587,222.02,13628.933,222.02,13627.984Z" transform="translate(-104.988 -13443.298)" fill="#94d1e6"/>
      <path id="パス_1060" data-name="パス 1060" d="M221.359,13625.379q13.245,0,26.487.033h4.621a1.973,1.973,0,0,1,1.945,1.944v37.925a1.972,1.972,0,0,1-1.945,1.944H221.42a1.972,1.972,0,0,1-1.945-1.944q0-16.607-.054-33.211,0-2.376-.007-4.747c0-2.5,3.89-2.508,3.89,0q0,15.981.054,31.967,0,3,.007,5.991l-1.945-1.944h31.047l-1.946,1.944v-37.919l1.946,1.944q-13.476,0-26.951-.033-2.08,0-4.157-.006C218.856,13629.268,218.851,13625.379,221.359,13625.379Z" transform="translate(-104.327 -13442.639)" fill="#211715"/>
      <path id="パス_1061" data-name="パス 1061" d="M253.054,13625.076v39.651c0,2.5-3.89,2.507-3.89,0v-39.651C249.164,13622.572,253.054,13622.567,253.054,13625.076Z" transform="translate(-111.876 -13442.084)" fill="#211715"/>
      <path id="パス_1062" data-name="パス 1062" d="M170.514,13589.961c1.345,0,29.022.026,31.27.026v15.117H170.576C170.576,13602.71,170.514,13590.64,170.514,13589.961Z" transform="translate(-91.92 -13433.65)" fill="#94d1e6"/>
      <path id="パス_1063" data-name="パス 1063" d="M169.853,13587.355q13.285,0,26.572.022h4.7a1.973,1.973,0,0,1,1.945,1.945v15.117a1.974,1.974,0,0,1-1.945,1.945H169.914a1.974,1.974,0,0,1-1.945-1.945c0-5.049-.057-10.1-.063-15.145,0-2.5,3.89-2.508,3.89,0,0,5.047.06,10.1.062,15.145l-1.945-1.946h31.208l-1.945,1.946v-15.114l1.945,1.946q-13.518,0-27.041-.023h-4.229C167.349,13591.245,167.345,13587.354,169.853,13587.355Z" transform="translate(-91.258 -13432.99)" fill="#211715"/>
      <path id="パス_1064" data-name="パス 1064" d="M192.905,13589.357v20.018c0,2.5-3.89,2.506-3.89,0v-4.9c0-2.5,3.89-2.506,3.89,0v4.9c0,2.5-3.89,2.506-3.89,0v-20.018C189.015,13586.854,192.905,13586.851,192.905,13589.357Z" transform="translate(-96.614 -13433.021)" fill="#211715"/>
      <path id="パス_1065" data-name="パス 1065" d="M279.1,13573.167q-6.569,0-13.14-.011l-27.148-.025-32.3-.032-28.181-.025q-7.6-.009-15.2-.014h-.537c-2.5,0-2.508-3.891,0-3.891q6.509,0,13.022.011l27.089.026,32.3.031,28.235.026,15.3.014h.555c2.5,0,2.507,3.891,0,3.891Z" transform="translate(-89.433 -13428.377)" fill="#211715"/>
      <path id="パス_1066" data-name="パス 1066" d="M233.158,13639.667c-.389.633-1.293,1.727-1.685,2.35" transform="translate(-107.387 -13446.264)" fill="#fff"/>
      <path id="パス_1067" data-name="パス 1067" d="M234.176,13639.986c-.508.821-1.167,1.535-1.686,2.351a2.047,2.047,0,0,1-1.162.894,1.481,1.481,0,0,1-.778.035,1.458,1.458,0,0,1-.724-.231,1.947,1.947,0,0,1-.7-2.66c.516-.815,1.178-1.53,1.686-2.352a2.034,2.034,0,0,1,1.162-.894,1.471,1.471,0,0,1,.778-.034,1.439,1.439,0,0,1,.722.229,1.966,1.966,0,0,1,.895,1.162,2,2,0,0,1-.194,1.5Z" transform="translate(-106.725 -13445.601)" fill="#211715"/>
      <path id="パス_1068" data-name="パス 1068" d="M239.792,13640.9q-3.705,5.322-7.793,10.366" transform="translate(-107.52 -13446.576)" fill="#fff"/>
      <path id="パス_1069" data-name="パス 1069" d="M240.817,13641.221q-3.852,5.524-8.1,10.759a1.951,1.951,0,0,1-2.751,0,2,2,0,0,1,0-2.75c2.626-3.241,5.007-6.415,7.489-9.974a1.946,1.946,0,1,1,3.359,1.965Z" transform="translate(-106.866 -13445.914)" fill="#211715"/>
      <path id="パス_1070" data-name="パス 1070" d="M263.832,13672v-46.971h55.919c-.081,16.936.01,34.251.01,47.247" transform="translate(-115.597 -13442.549)" fill="#ad9b8e"/>
      <path id="パス_1071" data-name="パス 1071" d="M263.832,13672.762v-44.727" transform="translate(-115.597 -13443.311)" fill="#ad9b8e"/>
      <path id="パス_1072" data-name="パス 1072" d="M261.226,13672.124V13627.4c0-2.5,3.89-2.507,3.89,0v44.727C265.116,13674.627,261.226,13674.631,261.226,13672.124Z" transform="translate(-114.936 -13442.674)" fill="#211715"/>
      <path id="パス_1073" data-name="パス 1073" d="M320.034,13628.723v44.356" transform="translate(-129.857 -13443.485)" fill="#94d1e6"/>
      <path id="パス_1074" data-name="パス 1074" d="M321.318,13628.085v44.356c0,2.5-3.89,2.507-3.89,0v-44.356C317.428,13625.583,321.318,13625.579,321.318,13628.085Z" transform="translate(-129.196 -13442.848)" fill="#211715"/>
      <path id="パス_1075" data-name="パス 1075" d="M301.3,13628.723v44.489" transform="translate(-125.104 -13443.485)" fill="#94d1e6"/>
      <path id="パス_1076" data-name="パス 1076" d="M302.583,13628.085v44.489c0,2.5-3.89,2.508-3.89,0v-44.489c0-2.5,3.89-2.506,3.89,0Z" transform="translate(-124.443 -13442.848)" fill="#211715"/>
      <path id="パス_1077" data-name="パス 1077" d="M282.565,13628.723v43.744" transform="translate(-120.35 -13443.485)" fill="#94d1e6"/>
      <path id="パス_1078" data-name="パス 1078" d="M283.849,13628.085v43.743c0,2.5-3.89,2.509-3.89,0v-43.743C279.959,13625.583,283.849,13625.579,283.849,13628.085Z" transform="translate(-119.689 -13442.848)" fill="#211715"/>
      <path id="パス_1079" data-name="パス 1079" d="M338.754,13628.723c-.081,16.935.011,31.493.011,44.489" transform="translate(-134.599 -13443.485)" fill="#ad9b8e"/>
      <path id="パス_1080" data-name="パス 1080" d="M340.04,13628.085c-.069,14.829.01,29.662.01,44.489,0,2.5-3.89,2.507-3.89,0,0-14.829-.08-29.662-.01-44.489C336.161,13625.583,340.051,13625.577,340.04,13628.085Z" transform="translate(-133.939 -13442.848)" fill="#211715"/>
      <path id="パス_1081" data-name="パス 1081" d="M289.83,13610.251H145.9v13.785H289.83Z" transform="translate(-85.675 -13438.798)" fill="#cfcfcf"/>
      <path id="パス_1082" data-name="パス 1082" d="M289.168,13611.536H145.24l1.945-1.946v13.785l-1.945-1.944H289.168l-1.945,1.944v-13.785c0-2.5,3.89-2.5,3.89,0v13.785a1.976,1.976,0,0,1-1.946,1.946H145.24a1.976,1.976,0,0,1-1.945-1.946v-13.785a1.973,1.973,0,0,1,1.945-1.943H289.168C291.671,13607.646,291.676,13611.536,289.168,13611.536Z" transform="translate(-85.013 -13438.138)" fill="#211715"/>
      <path id="パス_1083" data-name="パス 1083" d="M235.661,13679.012H153.754" transform="translate(-87.667 -13456.247)" fill="#fff"/>
      <path id="パス_1084" data-name="パス 1084" d="M235.022,13680.294H153.115c-2.5,0-2.507-3.889,0-3.889h81.907C237.525,13676.405,237.529,13680.294,235.022,13680.294Z" transform="translate(-87.028 -13455.584)" fill="#211715"/>
      <path id="パス_1085" data-name="パス 1085" d="M167.723,13668.347h7.5c1.75,0,3.89-6.248,1.223-10.348-2.891-4.442-9.465-3.641-14-3.7-6.07-.08-11.454-.021-17.76.245-5.738,0-8.169,1.3-9.665,4.766-.863,2-.944,9.038,3.6,9.038Z" transform="translate(-82.796 -13449.969)" fill="#8acc89"/>
      <path id="パス_1086" data-name="パス 1086" d="M167.053,13665.742h6.194c.3,0,.6-.008.894,0,.381.009.535.015.043.064-.36.037-.181.2,0-.117-.06.1.306-.577.378-.757,1.107-2.741.633-6.515-2.078-8.106-2.83-1.665-6.568-1.258-9.711-1.24-4.69.028-9.375-.052-14.066.079-2.369.065-4.772.052-7.133.263a7.436,7.436,0,0,0-3.816,1.2,5.481,5.481,0,0,0-.9.945,7.513,7.513,0,0,0-.5.843,3.353,3.353,0,0,0-.234.5c-.069.205-.115.414-.166.622a1.211,1.211,0,0,0-.075.439,11.542,11.542,0,0,0-.031,1.907,6.445,6.445,0,0,0,.292,1.585,4.19,4.19,0,0,0,.584,1.208c.389.5.722.543,1.4.563,1.757.051,3.523,0,5.281,0h23.648c2.5,0,2.507,3.891,0,3.891h-23.9c-1.732,0-3.474.051-5.206,0-3.846-.115-5.64-3.435-5.957-6.892a9.725,9.725,0,0,1,2.788-8.16c3.224-2.973,8.016-2.608,12.083-2.746,5.355-.18,10.7-.1,16.058-.135,3.942-.03,8.476-.3,11.907,2.009,4.084,2.751,5.11,8.314,3.293,12.723-.707,1.717-1.824,3.135-3.8,3.205-2.416.084-4.851,0-7.268,0C164.551,13669.633,164.546,13665.742,167.053,13665.742Z" transform="translate(-82.126 -13449.31)" fill="#211715"/>
      <path id="パス_1087" data-name="パス 1087" d="M177.735,13683.476v-13.217h-44.04v13.217" transform="translate(-82.578 -13454.025)" fill="#fff"/>
      <path id="パス_1088" data-name="パス 1088" d="M175.128,13682.815V13669.6l1.946,1.945h-44.04l1.945-1.945v13.217c0,2.5-3.89,2.507-3.89,0V13669.6a1.973,1.973,0,0,1,1.946-1.944h44.04a1.971,1.971,0,0,1,1.945,1.944v13.217C179.019,13685.318,175.128,13685.322,175.128,13682.815Z" transform="translate(-81.916 -13453.365)" fill="#211715"/>
      <path id="パス_1089" data-name="パス 1089" d="M459.1,13668.2c0-9.284-.064-54.633-.064-58.911H360.1c0,4.277.064,49.575.064,58.86" transform="translate(-140.022 -13438.557)" fill="#fff"/>
      <path id="パス_1090" data-name="パス 1090" d="M456.489,13667.54q0-11.347-.022-22.688l-.034-28.278q0-3.973-.008-7.944l1.945,1.943H359.434l1.945-1.943q0,9.548.022,19.1.019,14.625.035,29.247,0,5.257.007,10.514c0,2.5-3.89,2.507-3.89,0q0-11.335-.022-22.672l-.035-28.25q0-3.97-.007-7.938a1.974,1.974,0,0,1,1.945-1.946H458.37a1.975,1.975,0,0,1,1.946,1.946q0,9.557.021,19.116.02,14.64.035,29.273,0,5.259.008,10.519c0,2.5-3.89,2.507-3.89,0Z" transform="translate(-139.361 -13437.894)" fill="#211715"/>
      <path id="パス_1091" data-name="パス 1091" d="M374.613,13674.472v-40.262h24.381c-.036,9.94,0,32.629,0,40.262" transform="translate(-143.706 -13444.879)" fill="#ad9b8e"/>
      <path id="パス_1092" data-name="パス 1092" d="M372.007,13673.811v-40.262a1.976,1.976,0,0,1,1.945-1.946h24.381a1.975,1.975,0,0,1,1.945,1.946c-.039,11.092-.013,22.184,0,33.276v6.981c0,2.5-3.89,2.5-3.89,0q0-16.042-.015-32.081,0-4.085.015-8.177l1.945,1.945H373.952l1.945-1.945v40.262C375.9,13676.312,372.007,13676.316,372.007,13673.811Z" transform="translate(-143.045 -13444.216)" fill="#211715"/>
      <path id="パス_1093" data-name="パス 1093" d="M459.69,13634.91h-8.813c.011,9.329,0,18.854,0,26.01h8.813Z" transform="translate(-163.056 -13445.057)" fill="#94d1e6"/>
      <path id="パス_1094" data-name="パス 1094" d="M459.028,13636.2h-8.813l1.945-1.945q.017,13,0,26.01l-1.945-1.942h8.813l-1.945,1.942v-26.01c0-2.5,3.89-2.508,3.89,0v26.01a1.974,1.974,0,0,1-1.945,1.946h-8.813a1.974,1.974,0,0,1-1.946-1.946v-26.01a1.974,1.974,0,0,1,1.946-1.945h8.813C461.53,13632.3,461.535,13636.2,459.028,13636.2Z" transform="translate(-162.395 -13444.396)" fill="#211715"/>
      <path id="パス_1095" data-name="パス 1095" d="M437.552,13634.91h-8.813c.013,9.329,0,18.854,0,26.01h8.813Z" transform="translate(-157.439 -13445.057)" fill="#94d1e6"/>
      <path id="パス_1096" data-name="パス 1096" d="M436.89,13636.2h-8.813l1.945-1.945q.017,13,0,26.01l-1.945-1.942h8.813l-1.945,1.942v-26.01c0-2.5,3.89-2.508,3.89,0v26.01a1.973,1.973,0,0,1-1.945,1.946h-8.813a1.973,1.973,0,0,1-1.945-1.946v-26.01a1.974,1.974,0,0,1,1.945-1.945h8.813C439.393,13632.3,439.4,13636.2,436.89,13636.2Z" transform="translate(-156.778 -13444.396)" fill="#211715"/>
      <path id="パス_1097" data-name="パス 1097" d="M398.558,13660.146c-.029,1.849,0,3.705,0,5.556a1.945,1.945,0,1,1-3.89,0c0-1.848-.028-3.7,0-5.556a1.945,1.945,0,0,1,3.89,0Z" transform="translate(-148.791 -13450.967)" fill="#211715"/>
      <path id="パス_1098" data-name="パス 1098" d="M519.564,13632.864c0-13.947.634-147.235.634-162.592H625.178c0,2.106-.172,137.256-.172,162.818" transform="translate(-180.484 -13403.283)" fill="#fff"/>
      <path id="パス_1099" data-name="パス 1099" d="M516.957,13632.2c0-6.7.037-13.407.063-20.109q.07-18.362.151-36.725.091-21.406.183-42.809.082-19.214.159-38.432.045-11.6.077-23.192v-1.326a1.97,1.97,0,0,1,1.945-1.944H624.517a1.973,1.973,0,0,1,1.945,1.944q0,7.334-.016,14.67-.021,17.145-.042,34.293-.026,21.457-.049,42.913-.024,20.427-.043,40.847-.013,14.036-.021,28.068v2.024c0,2.5-3.89,2.508-3.89,0q0-12.866.017-25.733.018-19.994.041-39.984.024-21.617.05-43.235.02-17.911.043-35.824,0-5.925.013-11.85c0-1.921-.125-3.892.007-5.811.009-.125,0-.251,0-.378l1.945,1.944H519.536l1.945-1.944c0,6.926-.037,13.853-.063,20.778q-.073,18.532-.152,37.065-.09,21.416-.183,42.827-.082,19.061-.158,38.128-.046,11.282-.077,22.569v1.225c0,2.5-3.89,2.507-3.89,0Z" transform="translate(-179.823 -13402.623)" fill="#211715"/>
      <path id="パス_1100" data-name="パス 1100" d="M521.108,13653.19H624.416" transform="translate(-180.876 -13449.694)" fill="#fff"/>
      <path id="パス_1101" data-name="パス 1101" d="M520.469,13650.584H623.777c2.5,0,2.508,3.891,0,3.891H520.469C517.965,13654.475,517.962,13650.584,520.469,13650.584Z" transform="translate(-180.237 -13449.033)" fill="#211715"/>
      <path id="パス_1102" data-name="パス 1102" d="M521.108,13637.352H624.416" transform="translate(-180.876 -13445.676)" fill="#fff"/>
      <path id="パス_1103" data-name="パス 1103" d="M520.469,13634.746H623.777c2.5,0,2.508,3.89,0,3.89H520.469C517.965,13638.636,517.962,13634.746,520.469,13634.746Z" transform="translate(-180.237 -13445.016)" fill="#211715"/>
      <path id="パス_1104" data-name="パス 1104" d="M521.108,13597.631H624.416" transform="translate(-180.876 -13435.599)" fill="#fff"/>
      <path id="パス_1105" data-name="パス 1105" d="M520.469,13595.024H623.777c2.5,0,2.508,3.891,0,3.891H520.469C517.965,13598.915,517.962,13595.024,520.469,13595.024Z" transform="translate(-180.237 -13434.937)" fill="#211715"/>
      <path id="パス_1106" data-name="パス 1106" d="M521.108,13581.793H624.416" transform="translate(-180.876 -13431.579)" fill="#fff"/>
      <path id="パス_1107" data-name="パス 1107" d="M520.469,13579.186H623.777c2.5,0,2.508,3.891,0,3.891H520.469C517.965,13583.076,517.962,13579.186,520.469,13579.186Z" transform="translate(-180.237 -13430.917)" fill="#211715"/>
      <path id="パス_1108" data-name="パス 1108" d="M538.4,13505.941c3.281,0,70.764.026,76.243.026v15.119H538.556C538.556,13518.686,538.4,13506.619,538.4,13505.941Z" transform="translate(-185.265 -13412.334)" fill="#94d1e6"/>
      <path id="パス_1109" data-name="パス 1109" d="M537.743,13503.335q12.87,0,25.739.009l39.276.015h11.229a1.972,1.972,0,0,1,1.945,1.944v15.119a1.972,1.972,0,0,1-1.945,1.944H537.895a1.974,1.974,0,0,1-1.945-1.944c0-5.051-.14-10.1-.152-15.146-.006-2.5,3.884-2.506,3.89,0,.011,5.05.148,10.1.151,15.146l-1.945-1.946h76.091l-1.945,1.946v-15.115l1.945,1.946q-13.653,0-27.308-.01l-38.836-.015h-10.1C535.241,13507.226,535.236,13503.335,537.743,13503.335Z" transform="translate(-184.603 -13411.672)" fill="#211715"/>
      <path id="パス_1110" data-name="パス 1110" d="M573.743,13505.651v13.862a1.945,1.945,0,1,1-3.89,0v-13.862a1.945,1.945,0,1,1,3.89,0Z" transform="translate(-193.244 -13411.767)" fill="#211715"/>
      <path id="パス_1111" data-name="パス 1111" d="M607.8,13505.675v14.84c0,2.5-3.889,2.507-3.889,0v-14.84C603.909,13503.172,607.8,13503.167,607.8,13505.675Z" transform="translate(-201.885 -13411.79)" fill="#211715"/>
      <path id="パス_1112" data-name="パス 1112" d="M538.4,13561.251c3.281,0,70.764.026,76.243.026v15.118H538.556C538.556,13574,538.4,13561.93,538.4,13561.251Z" transform="translate(-185.265 -13426.366)" fill="#94d1e6"/>
      <path id="パス_1113" data-name="パス 1113" d="M537.743,13558.646q12.87,0,25.739.01l39.276.015h11.229a1.97,1.97,0,0,1,1.945,1.944v15.117a1.974,1.974,0,0,1-1.945,1.945H537.895a1.975,1.975,0,0,1-1.945-1.945c0-5.048-.14-10.1-.152-15.145-.006-2.5,3.884-2.506,3.89,0,.011,5.047.148,10.1.151,15.145l-1.945-1.944h76.091l-1.945,1.944v-15.115l1.945,1.944q-13.653,0-27.308-.008l-38.836-.014h-10.1C535.241,13562.535,535.236,13558.646,537.743,13558.646Z" transform="translate(-184.603 -13425.707)" fill="#211715"/>
      <path id="パス_1114" data-name="パス 1114" d="M573.743,13560.959v13.866a1.945,1.945,0,0,1-3.89,0v-13.866a1.945,1.945,0,0,1,3.89,0Z" transform="translate(-193.244 -13425.8)" fill="#211715"/>
      <path id="パス_1115" data-name="パス 1115" d="M607.8,13560.612v15.115c0,2.5-3.889,2.5-3.889,0v-15.115C603.909,13558.11,607.8,13558.1,607.8,13560.612Z" transform="translate(-201.885 -13425.729)" fill="#211715"/>
      <path id="パス_1116" data-name="パス 1116" d="M538.4,13616.275c3.281,0,70.764.024,76.243.024v15.118H538.556C538.556,13629.019,538.4,13616.953,538.4,13616.275Z" transform="translate(-185.265 -13440.33)" fill="#94d1e6"/>
      <path id="パス_1117" data-name="パス 1117" d="M537.743,13613.667q12.87,0,25.739.008l39.276.016h11.229a1.972,1.972,0,0,1,1.945,1.944v15.117a1.974,1.974,0,0,1-1.945,1.946H537.895a1.975,1.975,0,0,1-1.945-1.946c0-5.047-.14-10.094-.152-15.144-.006-2.5,3.884-2.506,3.89,0,.011,5.05.148,10.1.151,15.144l-1.945-1.945h76.091l-1.945,1.945v-15.114l1.945,1.945q-13.653,0-27.308-.008l-38.836-.015h-10.1C535.241,13617.557,535.236,13613.665,537.743,13613.667Z" transform="translate(-184.603 -13439.666)" fill="#211715"/>
      <path id="パス_1118" data-name="パス 1118" d="M573.743,13615.979v13.862a1.945,1.945,0,1,1-3.89,0v-13.862a1.945,1.945,0,0,1,3.89,0Z" transform="translate(-193.244 -13439.76)" fill="#211715"/>
      <path id="パス_1119" data-name="パス 1119" d="M607.8,13615.635v15.116c0,2.5-3.889,2.507-3.889,0v-15.116C603.909,13613.131,607.8,13613.126,607.8,13615.635Z" transform="translate(-201.885 -13439.688)" fill="#211715"/>
      <path id="パス_1120" data-name="パス 1120" d="M521.108,13542.073H624.416" transform="translate(-180.876 -13421.501)" fill="#fff"/>
      <path id="パス_1121" data-name="パス 1121" d="M520.469,13539.467H623.777c2.5,0,2.508,3.891,0,3.891H520.469C517.965,13543.357,517.962,13539.467,520.469,13539.467Z" transform="translate(-180.237 -13420.84)" fill="#211715"/>
      <path id="パス_1122" data-name="パス 1122" d="M521.108,13526.235H624.416" transform="translate(-180.876 -13417.483)" fill="#fff"/>
      <path id="パス_1123" data-name="パス 1123" d="M520.469,13523.629H623.777c2.5,0,2.508,3.888,0,3.888H520.469C517.965,13527.517,517.962,13523.629,520.469,13523.629Z" transform="translate(-180.237 -13416.82)" fill="#211715"/>
      <path id="パス_1124" data-name="パス 1124" d="M521.108,13485.829H624.416" transform="translate(-180.876 -13407.23)" fill="#fff"/>
      <path id="パス_1125" data-name="パス 1125" d="M520.469,13483.222H623.777c2.5,0,2.508,3.891,0,3.891H520.469C517.965,13487.112,517.962,13483.222,520.469,13483.222Z" transform="translate(-180.237 -13406.568)" fill="#211715"/>
      <path id="パス_1126" data-name="パス 1126" d="M121.069,13568.188c-.057,2.1.056,4.2,0,6.293a1.945,1.945,0,0,1-3.89,0c.057-2.1-.057-4.2,0-6.293a1.945,1.945,0,1,1,3.89,0Z" transform="translate(-78.383 -13427.634)" fill="#211715"/>
      <path id="パス_1127" data-name="パス 1127" d="M112.22,13568.188c-.057,2.1.057,4.2,0,6.293a1.945,1.945,0,0,1-3.89,0c.057-2.1-.057-4.2,0-6.293a1.945,1.945,0,1,1,3.89,0Z" transform="translate(-76.138 -13427.634)" fill="#211715"/>
      <path id="パス_1128" data-name="パス 1128" d="M121.069,13612.508c-.057,2.1.056,4.2,0,6.292a1.945,1.945,0,0,1-3.89,0c.057-2.1-.057-4.2,0-6.292a1.945,1.945,0,0,1,3.89,0Z" transform="translate(-78.383 -13438.878)" fill="#211715"/>
      <path id="パス_1129" data-name="パス 1129" d="M112.22,13612.508c-.057,2.1.057,4.2,0,6.292a1.945,1.945,0,0,1-3.89,0c.057-2.1-.057-4.2,0-6.292a1.945,1.945,0,0,1,3.89,0Z" transform="translate(-76.138 -13438.878)" fill="#211715"/>
      <path id="パス_1130" data-name="パス 1130" d="M139.93,13583.155a19.06,19.06,0,0,1-13.666-.164,2.008,2.008,0,0,1-1.361-2.393,1.957,1.957,0,0,1,2.393-1.361,15.444,15.444,0,0,0,11.6.164,1.953,1.953,0,0,1,2.393,1.361,2,2,0,0,1-1.362,2.393Z" transform="translate(-80.332 -13430.914)" fill="#211715"/>
      <path id="パス_1131" data-name="パス 1131" d="M135.09,13624.438a10.338,10.338,0,0,1-7.35-.082,2.13,2.13,0,0,1-1.162-.895,1.953,1.953,0,0,1,.7-2.666,1.889,1.889,0,0,1,1.5-.194,8.725,8.725,0,0,0,2.033.546l-.517-.07a9.458,9.458,0,0,0,2.458.008l-.517.069a8.361,8.361,0,0,0,1.825-.47,1.944,1.944,0,0,1,2.2,2.855h0a2.231,2.231,0,0,1-1.166.894Z" transform="translate(-80.705 -13441.407)" fill="#211715"/>
      <path id="パス_1132" data-name="パス 1132" d="M88.695,13654.358c0-8.46.335-74.741.42-94.63a3.881,3.881,0,0,1,3.89-3.864h2.408a3.89,3.89,0,0,1,3.884,3.89c-.012,15.381-.037,67.8-.06,94.518" transform="translate(-71.16 -13425.001)" fill="#cfcfcf"/>
      <path id="パス_1133" data-name="パス 1133" d="M86.089,13653.66c0-9.53.068-19.061.11-28.585q.1-22.2.21-44.394.04-8.849.082-17.693c.014-3.134-.413-6.6,2.48-8.686,1.862-1.341,4.778-1.371,6.963-.952a5.847,5.847,0,0,1,4.524,4.529c.452,2.373.122,5.077.121,7.487v9.28q-.007,11.851-.014,23.7-.012,25.14-.032,50.278v4.953c0,2.5-3.89,2.507-3.89,0q.02-23.619.032-47.235.011-21.546.024-43.089v-3.225c0-1.235-.1-2.626-1.6-2.9a9,9,0,0,0-3.21.033,2,2,0,0,0-1.469,1.532,17.8,17.8,0,0,0-.028,3.134q-.036,8.24-.077,16.478-.1,21.445-.2,42.888-.072,15.488-.127,30.977v1.493c0,2.5-3.89,2.508-3.89,0Z" transform="translate(-70.499 -13424.303)" fill="#211715"/>
      <path id="パス_1134" data-name="パス 1134" d="M108.439,13578.524c-8.73,0-17.461-.064-26.191-.1q-2.681-.01-5.363-.013c-2.5,0-2.507-3.89,0-3.89,8.688,0,17.375.064,26.063.1q2.746.01,5.491.013c2.5,0,2.507,3.89,0,3.89Z" transform="translate(-67.686 -13429.735)" fill="#211715"/>
      <path id="パス_1135" data-name="パス 1135" d="M108.439,13622.853c-8.73,0-17.461-.063-26.191-.1q-2.681-.009-5.363-.014c-2.5,0-2.507-3.891,0-3.891,8.688,0,17.375.064,26.063.1q2.746.009,5.491.013c2.5,0,2.507,3.891,0,3.891Z" transform="translate(-67.686 -13440.982)" fill="#211715"/>
      <path id="パス_1136" data-name="パス 1136" d="M493.363,13683.95v-10.289h-9.1v10.289" transform="translate(-171.527 -13454.888)" fill="#89705d"/>
      <path id="パス_1137" data-name="パス 1137" d="M490.757,13683.289V13673l1.946,1.944h-9.1l1.945-1.944v10.289a1.945,1.945,0,0,1-3.89,0V13673a1.975,1.975,0,0,1,1.946-1.945h9.1a1.973,1.973,0,0,1,1.945,1.945v10.289a1.945,1.945,0,0,1-3.89,0Z" transform="translate(-170.866 -13454.228)" fill="#211715"/>
      <path id="パス_1138" data-name="パス 1138" d="M483.532,13630.629a4.264,4.264,0,0,1,5.218,0,25.855,25.855,0,0,1,8.1,10.831,20.755,20.755,0,0,1,1.191,3.986,33.239,33.239,0,0,1,.407,3.943,16.28,16.28,0,0,1-.557,6.91,8.4,8.4,0,0,1-3.977,4.39c-1.8.92-5.758,1.407-7.772,1.407-1.518,0-5.975-.486-7.772-1.407a8.406,8.406,0,0,1-3.978-4.39,16.268,16.268,0,0,1-.557-6.91,33.412,33.412,0,0,1,.407-3.943,20.86,20.86,0,0,1,1.191-3.986A25.843,25.843,0,0,1,483.532,13630.629Z" transform="translate(-168.853 -13443.743)" fill="#8acc89"/>
      <path id="パス_1139" data-name="パス 1139" d="M481.894,13628.287a6.312,6.312,0,0,1,4.8-1.03,9.085,9.085,0,0,1,4.279,2.589,27.4,27.4,0,0,1,6.195,8.364,27.967,27.967,0,0,1,2.588,10.737c.229,3.728.005,7.379-2.5,10.354-3.628,4.314-10.442,4.456-15.595,3.723-2.86-.407-5.537-1.157-7.59-3.323-2.633-2.776-3.085-6.418-2.889-10.1a28.814,28.814,0,0,1,2.887-11.922,27.207,27.207,0,0,1,7.435-9.088,2.008,2.008,0,0,1,2.751,0,1.958,1.958,0,0,1,0,2.75,23.523,23.523,0,0,0-8.828,14.175,37.339,37.339,0,0,0-.376,4.524,12.591,12.591,0,0,0,.417,4.668,6.37,6.37,0,0,0,4.742,4.1c3.7.889,8.266,1.129,11.851-.361a6.711,6.711,0,0,0,3.866-5.994,27.037,27.037,0,0,0-.912-9.179,23.72,23.72,0,0,0-4.376-8.141c-1.55-1.875-4.138-5.355-6.781-3.492C481.808,13633.1,479.862,13629.724,481.894,13628.287Z" transform="translate(-168.198 -13443.085)" fill="#211715"/>
      <path id="パス_1140" data-name="パス 1140" d="M485.842,13673v10.289a1.945,1.945,0,0,1-3.89,0V13673a1.945,1.945,0,1,1,3.89,0Z" transform="translate(-170.941 -13454.228)" fill="#211715"/>
      <path id="パス_1141" data-name="パス 1141" d="M498.038,13673v10.289a1.945,1.945,0,0,1-3.89,0V13673a1.945,1.945,0,1,1,3.89,0Z" transform="translate(-174.035 -13454.228)" fill="#211715"/>
      <path id="パス_1142" data-name="パス 1142" d="M663.284,13684.688V13674.4h-9.1v10.287" transform="translate(-214.641 -13455.076)" fill="#89705d"/>
      <path id="パス_1143" data-name="パス 1143" d="M660.677,13684.026v-10.287l1.946,1.944h-9.1l1.945-1.944v10.287a1.945,1.945,0,1,1-3.89,0v-10.287a1.973,1.973,0,0,1,1.945-1.944h9.1a1.971,1.971,0,0,1,1.945,1.944v10.287a1.945,1.945,0,1,1-3.89,0Z" transform="translate(-213.98 -13454.415)" fill="#211715"/>
      <path id="パス_1144" data-name="パス 1144" d="M653.451,13631.371a4.268,4.268,0,0,1,5.219,0,25.861,25.861,0,0,1,8.1,10.83,20.928,20.928,0,0,1,1.191,3.987,33.461,33.461,0,0,1,.408,3.942,16.291,16.291,0,0,1-.557,6.912,8.4,8.4,0,0,1-3.977,4.389c-1.8.919-5.76,1.408-7.772,1.408-1.518,0-5.974-.487-7.771-1.408a8.4,8.4,0,0,1-3.978-4.389,16.29,16.29,0,0,1-.557-6.912,33.448,33.448,0,0,1,.408-3.942,20.923,20.923,0,0,1,1.191-3.987A25.848,25.848,0,0,1,653.451,13631.371Z" transform="translate(-211.967 -13443.933)" fill="#8acc89"/>
      <path id="パス_1145" data-name="パス 1145" d="M651.816,13629.032a6.31,6.31,0,0,1,4.795-1.03,9.075,9.075,0,0,1,4.279,2.588,27.411,27.411,0,0,1,6.195,8.364,27.959,27.959,0,0,1,2.587,10.738c.229,3.727.006,7.378-2.5,10.352-3.628,4.315-10.441,4.459-15.6,3.724-2.858-.407-5.537-1.157-7.585-3.323-2.634-2.776-3.086-6.418-2.889-10.1a28.808,28.808,0,0,1,2.887-11.921,27.2,27.2,0,0,1,7.434-9.089,2.009,2.009,0,0,1,2.751,0,1.957,1.957,0,0,1,0,2.75,23.523,23.523,0,0,0-8.829,14.176,37.163,37.163,0,0,0-.375,4.524,12.592,12.592,0,0,0,.416,4.668,6.37,6.37,0,0,0,4.742,4.1c3.7.889,8.266,1.13,11.851-.361a6.71,6.71,0,0,0,3.866-6,26.983,26.983,0,0,0-.912-9.176,23.748,23.748,0,0,0-4.377-8.143c-1.55-1.873-4.139-5.354-6.781-3.491C651.73,13633.837,649.784,13630.465,651.816,13629.032Z" transform="translate(-211.313 -13443.275)" fill="#211715"/>
      <path id="パス_1146" data-name="パス 1146" d="M655.763,13673.739v10.287a1.945,1.945,0,1,1-3.89,0v-10.287a1.945,1.945,0,0,1,3.89,0Z" transform="translate(-214.055 -13454.415)" fill="#211715"/>
      <path id="パス_1147" data-name="パス 1147" d="M667.959,13673.739v10.287a1.945,1.945,0,1,1-3.89,0v-10.287a1.945,1.945,0,0,1,3.89,0Z" transform="translate(-217.15 -13454.415)" fill="#211715"/>
      <path id="パス_1148" data-name="パス 1148" d="M532.948,13688.393c-14.962,0-451.087-.166-465.23-.166" transform="translate(-65.837 -13458.584)" fill="#fff"/>
      <path id="パス_1149" data-name="パス 1149" d="M532.308,13689.679H516.642l-35.078-.012-49.567-.018-59.711-.022-64.974-.023-65.284-.024-61.364-.022-52.48-.019-38.765-.014-20.625-.007H67.077c-2.5,0-2.507-3.89,0-3.89h15.45l34.912.013,49.444.018,59.634.021,64.946.024,65.3.023,61.428.022,52.591.019,38.923.013,20.831.007h1.772c2.5,0,2.507,3.892,0,3.892Z" transform="translate(-65.198 -13457.925)" fill="#211715"/>
    </g>
    <g id="グループ_59" data-name="グループ 59" transform="translate(66.089 13306.417)" opacity="0.9">
      <rect id="長方形_40" data-name="長方形 40" width="268.614" height="50.085" transform="translate(397.676 268.614) rotate(-90)" fill="#e50012"/>
      <rect id="長方形_41" data-name="長方形 41" width="260.612" height="50.085" transform="translate(331.397 268.614) rotate(-90)" fill="#f29600"/>
      <rect id="長方形_42" data-name="長方形 42" width="225.117" height="50.085" transform="translate(265.118 268.614) rotate(-90)" fill="#f29600"/>
      <rect id="長方形_43" data-name="長方形 43" width="175.973" height="50.085" transform="translate(198.838 268.614) rotate(-90)" fill="#f29600"/>
      <rect id="長方形_44" data-name="長方形 44" width="120.439" height="50.085" transform="translate(132.559 268.614) rotate(-90)" fill="#f29600"/>
      <rect id="長方形_45" data-name="長方形 45" width="93.64" height="50.085" transform="translate(66.279 268.614) rotate(-90)" fill="#f29600"/>
      <rect id="長方形_46" data-name="長方形 46" width="82.32" height="50.085" transform="translate(0 268.614) rotate(-90)" fill="#f29600"/>
    </g>
    <line id="線_2" data-name="線 2" y2="291.314" transform="translate(57.449 13293.794)" fill="none" stroke="#002063" stroke-miterlimit="10" stroke-width="6"/>
    <line id="線_3" data-name="線 3" x1="471.971" transform="translate(55.445 13585.107)" fill="none" stroke="#002063" stroke-miterlimit="10" stroke-width="6"/>
    <path id="パス_1150" data-name="パス 1150" d="M84.275,13496.287a900.5,900.5,0,0,0,121.113-22.864,749.274,749.274,0,0,0,116.332-40.88,672.322,672.322,0,0,0,107.444-60.559c16.922-11.72,33.349-24.168,49.1-37.419l5.881-5,2.94-2.5,2.893-2.555,3.967-3.512.8-.713,4.175,4.671c1.075-3.109,2.082-6.263,3.071-9.405l2.934-9.377-9.566,2.139c-3.17.7-6.328,1.391-9.523,2l4.175,4.67-.8.7-3.925,3.477-2.863,2.529-2.91,2.474-5.819,4.949c-15.588,13.113-31.84,25.427-48.581,37.022a665.181,665.181,0,0,1-106.316,59.921,742.082,742.082,0,0,1-115.227,40.488,893.4,893.4,0,0,1-120.152,22.682Z" transform="translate(-11.272 -7.338)" fill="#1b3874"/>
  </g>
</svg>
