<svg xmlns="http://www.w3.org/2000/svg" width="500.005" height="94" viewBox="0 0 500.005 94">
  <g id="グループ_86" data-name="グループ 86" transform="translate(1313 -1113.833)">
    <rect id="長方形_125" data-name="長方形 125" width="500.005" height="94" transform="translate(-1313 1113.833)" fill="none"/>
    <path id="パス_2062" data-name="パス 2062" d="M-2.7-6.248-7.81-10.579a25.409,25.409,0,0,0,3.266-6.745A24.993,24.993,0,0,0-3.408-24.85v-.142A25.5,25.5,0,0,0-5.36-34.967a24.459,24.459,0,0,0-5.467-8.094,26.307,26.307,0,0,0-8.342-5.467,27.1,27.1,0,0,0-10.579-2.024,27.36,27.36,0,0,0-10.615,2.024,25.614,25.614,0,0,0-8.378,5.538,25.739,25.739,0,0,0-5.5,8.165,25.109,25.109,0,0,0-1.988,9.976v.142a25.5,25.5,0,0,0,1.952,9.976,24.459,24.459,0,0,0,5.467,8.094A26.307,26.307,0,0,0-40.47-1.171,27.1,27.1,0,0,0-29.891.852a27.458,27.458,0,0,0,7.881-1.1,26.753,26.753,0,0,0,6.887-3.159l5.467,4.9Zm-12.141-18.46a16.373,16.373,0,0,1-1.349,6.816l-8.165-7.384-6.958,7.81,8.094,6.887A15.98,15.98,0,0,1-29.749-9.23a14.5,14.5,0,0,1-6.071-1.243,15.125,15.125,0,0,1-4.757-3.372,15.006,15.006,0,0,1-3.124-4.97,16.555,16.555,0,0,1-1.1-6.035v-.142a16.276,16.276,0,0,1,1.1-6,15.73,15.73,0,0,1,3.053-4.934,13.883,13.883,0,0,1,4.686-3.337,14.867,14.867,0,0,1,6.071-1.207,14.571,14.571,0,0,1,6.035,1.243,15.012,15.012,0,0,1,4.792,3.373,15.006,15.006,0,0,1,3.124,4.97,16.555,16.555,0,0,1,1.1,6.035ZM58.291,0l-21.3-50.055H26.909L5.609,0H16.756L21.3-11.147H42.316L46.86,0ZM38.411-20.8H25.205l6.6-16.117Z" transform="translate(-1064.461 1164.833)" fill="#f29600"/>
    <g id="グループ_20" data-name="グループ 20" transform="translate(-1313 1151.129)">
      <g id="グループ_19" data-name="グループ 19" transform="translate(0)">
        <g id="グループ_18" data-name="グループ 18">
          <rect id="長方形_1" data-name="長方形 1" width="29.851" height="9.029" transform="translate(0 10.411)" fill="#fff"/>
          <rect id="長方形_2" data-name="長方形 2" width="29.851" height="9.029" fill="#fff"/>
          <rect id="長方形_3" data-name="長方形 3" width="29.851" height="9.029" transform="translate(0 20.822)" fill="#fff"/>
        </g>
      </g>
    </g>
    <g id="グループ_23" data-name="グループ 23" transform="translate(-842.846 1151.129)">
      <g id="グループ_22" data-name="グループ 22" transform="translate(0)">
        <g id="グループ_21" data-name="グループ 21">
          <rect id="長方形_4" data-name="長方形 4" width="29.851" height="9.029" transform="translate(0 10.411)" fill="#fff"/>
          <rect id="長方形_5" data-name="長方形 5" width="29.851" height="9.029" fill="#fff"/>
          <rect id="長方形_6" data-name="長方形 6" width="29.851" height="9.029" transform="translate(0 20.822)" fill="#fff"/>
        </g>
      </g>
    </g>
    <text id="よくあるご質問" transform="translate(-1063.864 1202.967)" fill="#fff" font-size="25" font-family="HiraginoSans-W3, Hiragino Sans" letter-spacing="0.05em"><tspan x="-91.25" y="0">よくあるご質問</tspan></text>
  </g>
</svg>
