<svg xmlns="http://www.w3.org/2000/svg" width="500.005" height="94" viewBox="0 0 500.005 94">
  <g id="グループ_83" data-name="グループ 83" transform="translate(1313 -1113.833)">
    <rect id="長方形_125" data-name="長方形 125" width="500.005" height="94" transform="translate(-1313 1113.833)" fill="none"/>
    <path id="パス_2058" data-name="パス 2058" d="M-118.392,0l-12.141-17.75a17.072,17.072,0,0,0,7.7-5.573,15.584,15.584,0,0,0,2.946-9.834V-33.3q0-7.739-4.934-12.07T-138.627-49.7h-22.72V0h10.934V-15.9h8.591L-131.172,0Zm-12.567-32.589a6.49,6.49,0,0,1-2.166,5.112,9.08,9.08,0,0,1-6.212,1.917h-11.076V-39.831h10.863a10.033,10.033,0,0,1,6.319,1.775,6.341,6.341,0,0,1,2.272,5.325ZM-68.621,0V-9.727H-95.6V-20.164h23.43v-9.727H-95.6V-39.973h26.625V-49.7h-37.488V0Zm61.7,0-21.3-50.055H-38.3L-59.6,0h11.147l4.544-11.147H-22.9L-18.353,0ZM-26.8-20.8H-40.008l6.6-16.117ZM40.222-14.7v-.142a13.883,13.883,0,0,0-1.029-5.609,11.37,11.37,0,0,0-3.053-4.082,18.714,18.714,0,0,0-4.97-2.982,50.572,50.572,0,0,0-6.71-2.237Q21.265-30.6,19.17-31.24a15.7,15.7,0,0,1-3.3-1.349,4.192,4.192,0,0,1-1.668-1.6,4.482,4.482,0,0,1-.462-2.094v-.142a3.774,3.774,0,0,1,1.6-3.089,7.73,7.73,0,0,1,4.793-1.243,16.693,16.693,0,0,1,6.39,1.314,36.006,36.006,0,0,1,6.532,3.585l5.68-8.236a29.124,29.124,0,0,0-8.414-4.686A29.721,29.721,0,0,0,20.271-50.41a22.119,22.119,0,0,0-7.029,1.065,16.141,16.141,0,0,0-5.5,3.053A13.989,13.989,0,0,0,4.154-41.57a14.329,14.329,0,0,0-1.278,6.141v.142A14.453,14.453,0,0,0,4.047-29.11a11.343,11.343,0,0,0,3.3,4.153,19.2,19.2,0,0,0,5.183,2.8,61.88,61.88,0,0,0,6.816,2.059A52.831,52.831,0,0,1,24.424-18.6a15.615,15.615,0,0,1,3.053,1.42,3.946,3.946,0,0,1,1.491,1.526,4.312,4.312,0,0,1,.391,1.882v.142a3.911,3.911,0,0,1-1.882,3.443,9.554,9.554,0,0,1-5.29,1.243,18.7,18.7,0,0,1-7.845-1.633,32.442,32.442,0,0,1-6.993-4.4L.888-7.242a29.5,29.5,0,0,0,9.94,6A32.915,32.915,0,0,0,21.975.71,24.97,24.97,0,0,0,29.359-.319,17,17,0,0,0,35.11-3.3,13.487,13.487,0,0,0,38.873-8.13,15.291,15.291,0,0,0,40.222-14.7ZM103.909-24.85v-.142a25.5,25.5,0,0,0-1.952-9.975,24.459,24.459,0,0,0-5.467-8.094,26.307,26.307,0,0,0-8.342-5.467,27.1,27.1,0,0,0-10.579-2.024,27.36,27.36,0,0,0-10.615,2.024,25.614,25.614,0,0,0-8.378,5.538,25.739,25.739,0,0,0-5.5,8.165,25.109,25.109,0,0,0-1.988,9.976v.142a25.5,25.5,0,0,0,1.952,9.976A24.459,24.459,0,0,0,58.5-6.639a26.307,26.307,0,0,0,8.343,5.467A27.1,27.1,0,0,0,77.426.852,27.36,27.36,0,0,0,88.04-1.171a25.614,25.614,0,0,0,8.378-5.538,25.739,25.739,0,0,0,5.5-8.165A25.109,25.109,0,0,0,103.909-24.85Zm-11.431.142a16.276,16.276,0,0,1-1.1,6,15.729,15.729,0,0,1-3.053,4.934A13.8,13.8,0,0,1,83.6-10.437,14.938,14.938,0,0,1,77.568-9.23,14.5,14.5,0,0,1,71.5-10.472a15.125,15.125,0,0,1-4.757-3.372,15.006,15.006,0,0,1-3.124-4.97,16.555,16.555,0,0,1-1.1-6.035v-.142a16.276,16.276,0,0,1,1.1-6,15.729,15.729,0,0,1,3.053-4.934,13.883,13.883,0,0,1,4.686-3.337,14.867,14.867,0,0,1,6.071-1.207,14.571,14.571,0,0,1,6.035,1.243,15.012,15.012,0,0,1,4.793,3.373,15.006,15.006,0,0,1,3.124,4.97,16.555,16.555,0,0,1,1.1,6.035ZM161.348,0V-49.7H150.555v30.6L127.267-49.7H117.185V0h10.792V-31.595L152.046,0Z" transform="translate(-1064.461 1164.833)" fill="#f29600"/>
    <g id="グループ_20" data-name="グループ 20" transform="translate(-1313 1151.129)">
      <g id="グループ_19" data-name="グループ 19" transform="translate(0)">
        <g id="グループ_18" data-name="グループ 18">
          <rect id="長方形_1" data-name="長方形 1" width="29.851" height="9.029" transform="translate(0 10.411)" fill="#002063"/>
          <rect id="長方形_2" data-name="長方形 2" width="29.851" height="9.029" fill="#002063"/>
          <rect id="長方形_3" data-name="長方形 3" width="29.851" height="9.029" transform="translate(0 20.822)" fill="#002063"/>
        </g>
      </g>
    </g>
    <g id="グループ_23" data-name="グループ 23" transform="translate(-842.846 1151.129)">
      <g id="グループ_22" data-name="グループ 22" transform="translate(0)">
        <g id="グループ_21" data-name="グループ 21">
          <rect id="長方形_4" data-name="長方形 4" width="29.851" height="9.029" transform="translate(0 10.411)" fill="#002063"/>
          <rect id="長方形_5" data-name="長方形 5" width="29.851" height="9.029" fill="#002063"/>
          <rect id="長方形_6" data-name="長方形 6" width="29.851" height="9.029" transform="translate(0 20.822)" fill="#002063"/>
        </g>
      </g>
    </g>
    <text id="選ばれる理由" transform="translate(-1063.864 1202.967)" font-size="25" font-family="HiraginoSans-W3, Hiragino Sans" letter-spacing="0.05em"><tspan x="-78.125" y="0">選ばれる理由</tspan></text>
  </g>
</svg>
