<svg xmlns="http://www.w3.org/2000/svg" xmlns:xlink="http://www.w3.org/1999/xlink" width="480" height="480" viewBox="0 0 480 480">
  <defs>
    <clipPath id="clip-path">
      <rect id="長方形_128" data-name="長方形 128" width="480" height="480" transform="translate(-560 1949)" fill="#fff" stroke="#707070" stroke-width="1"/>
    </clipPath>
  </defs>
  <g id="マスクグループ_3" data-name="マスクグループ 3" transform="translate(560 -1949)" clip-path="url(#clip-path)">
    <g id="グループ_43" data-name="グループ 43" transform="translate(-554 1949)">
      <ellipse id="楕円形_4" data-name="楕円形 4" cx="205.276" cy="205.276" rx="205.276" ry="205.276" transform="translate(15.23)" fill="#002063"/>
      <g id="グループ_41" data-name="グループ 41" transform="translate(330.432 83.284)">
        <path id="パス_819" data-name="パス 819" d="M537.743,7381.96a37.992,37.992,0,0,1-6.772,12.264,31.565,31.565,0,0,1-10.5,8.212,30.673,30.673,0,0,1-13.6,2.986,31.119,31.119,0,0,1-13.6-2.933,30.413,30.413,0,0,1-10.451-8.159,37.837,37.837,0,0,1-6.665-12.21,49.854,49.854,0,0,1,.053-30.4,37.9,37.9,0,0,1,6.772-12.318,31.605,31.605,0,0,1,10.5-8.211,30.651,30.651,0,0,1,13.6-2.986,31.122,31.122,0,0,1,13.6,2.933,30.462,30.462,0,0,1,10.451,8.158,37.818,37.818,0,0,1,6.665,12.264,47.648,47.648,0,0,1,2.346,15.144A46.964,46.964,0,0,1,537.743,7381.96Zm-15.624-24.529a25.476,25.476,0,0,0-3.306-7.572,16.169,16.169,0,0,0-5.172-5.012,13.627,13.627,0,0,0-13.491-.054,15.987,15.987,0,0,0-5.119,4.906,23.8,23.8,0,0,0-3.253,7.519,38.192,38.192,0,0,0-1.12,9.491,36.481,36.481,0,0,0,1.173,9.492,25.368,25.368,0,0,0,3.306,7.572,16.132,16.132,0,0,0,5.172,5.013,13.632,13.632,0,0,0,13.491.053,15.817,15.817,0,0,0,5.119-4.96,24.538,24.538,0,0,0,3.253-7.518,37.551,37.551,0,0,0,1.12-9.437A36.58,36.58,0,0,0,522.119,7357.431Z" transform="translate(-473.809 -7328.21)" fill="#c8c9ca"/>
        <path id="パス_820" data-name="パス 820" d="M562.22,7343.608V7329.53h50.542V7341.9l-18.975,18.024a39.138,39.138,0,0,1,7.489,2.026,20.4,20.4,0,0,1,6.44,3.893,19.028,19.028,0,0,1,4.509,6.186,20.95,20.95,0,0,1,1.717,8.9,25.107,25.107,0,0,1-1.879,9.811,22.683,22.683,0,0,1-5.368,7.785,24.052,24.052,0,0,1-8.518,5.119,32.9,32.9,0,0,1-11.216,1.813q-10.132,0-17.223-3.6a36.859,36.859,0,0,1-11.89-9.4l11.3-10.785a29.8,29.8,0,0,0,8.052,6.666,20.538,20.538,0,0,0,9.972,2.293,11.5,11.5,0,0,0,7.624-2.446,8.269,8.269,0,0,0,2.933-6.7,7.971,7.971,0,0,0-3.786-7.13q-3.787-2.446-10.825-2.448H576.3l-2.56-10.427,17.81-17.876Z" transform="translate(-476.372 -7328.25)" fill="#c8c9ca"/>
      </g>
      <g id="グループ_42" data-name="グループ 42" transform="translate(0 57.793)">
        <path id="パス_821" data-name="パス 821" d="M156.4,7573.331c-5.593-.165-10.482-.3-14.4-.394a6,6,0,0,0-6.062,7.023c5.516,32.281,11.349,66,18.742,108.438a6.019,6.019,0,0,0,5.418,4.972c29.267,2.5,127.3,6.644,150.076,7.224a9.6,9.6,0,0,0,5.17-1.359c9.9-5.931,48.744-28.161,68.708-41.15,0,0-1.2-7.148-1.749-9.239-1.084.528-2.24,1.056-3.427,1.549a18.265,18.265,0,0,1-14.056-.062,102.8,102.8,0,0,1-12.821,12c-.858.688-3.7,2.777-6.02.812-1.523-1.292-1.167-4.247-.416-5.4,3.612-5.547,5.156-9.661,9.157-14.771-6.634,4.122-13.017,8.947-19.624,13.133-2.15,1.36-3.942,2.542-6.447,2.1a4.6,4.6,0,0,1-3.875-4.8,7.128,7.128,0,0,1,1.278-3.373,21.969,21.969,0,0,1-5.848,2.2,3.973,3.973,0,0,1-4.913-4.359,5.82,5.82,0,0,1,1.479-3.733l1.066-1.353-1.387.292a5.223,5.223,0,0,1-5.466-2.034c-1.011-1.493-.373-4.01.072-4.914a14.358,14.358,0,0,1,2.685-3.274c1.217-1.2,6.49-5.237,7.862-6.236q.964-.7,1.926-1.375c-.891-5.634-2.287-13.953-3.069-19.285-.541-3.742-2.545-15.138-4.854-28.443l-.443.971c-3.01,8.022-9.34,22.984-15.242,32.487l-3.592,6.423q-3.066-17.667-6.075-34.861a6,6,0,0,0-5.73-4.961C264.874,7576.963,194.393,7574.449,156.4,7573.331Z" transform="translate(-133.07 -7310.182)" fill="#fff"/>
        <path id="パス_822" data-name="パス 822" d="M469.669,7518.229c.683,1.864,1.272,3.673,1.742,5.378,8.562,31.035,12.039,52.17,17.122,86.149a63.582,63.582,0,0,1-1.255,20.005c-1.941,6.983-8.113,12.16-14.873,14.784s-14.157,2.783-21.371,3.517c-9.143.93-49.1,1.375-55.16,1.465-.12-3.279-2.719-22.53-8.732-34.118-4.027.11-6.7,1.2-11.486.019-6.789-1.661-10.105-4.683-16.944-6.163-5.357-1.156-10.847,1.059-15.748,3.552a126.923,126.923,0,0,0-15.373,9.244c-.891-5.635-2.288-13.954-3.07-19.285-.541-3.741-2.543-15.125-4.849-28.421l-.448.949a259.739,259.739,0,0,1-18.834,38.91c-1.979-11.411-4.123-23.771-6.076-34.867a6,6,0,0,0-5.73-4.961c-4.294-.137-11.018-.361-19.3-.651,3.724-14.353,5.975-26.615,8.573-40.871,1.914-10.487,3.8-21.937,7.367-31.978a33.562,33.562,0,0,1,10.041-15.145,39.236,39.236,0,0,1,10.486-6.671l21.084-7.921c.24.3.481.6.732.877,5.159,5.944,12.816,9.454,20.634,10.683a70.241,70.241,0,0,0,26.059-1.023c12.8-3,23.356-5.711,34.65-12.154.178-.089,3.492-1.926,3.025-1.677,11.253,4.137,24.608,8.847,34.421,16.514a56.9,56.9,0,0,1,10.871,10.615A93.08,93.08,0,0,1,469.669,7518.229Z" transform="translate(-137.14 -7306.978)" fill="#fff"/>
        <path id="パス_823" data-name="パス 823" d="M339.139,7466.6l3.739-1.657a50.746,50.746,0,0,0,26.935-1.643,55.041,55.041,0,0,0,20.9-13.464,67.47,67.47,0,0,0,6.26-6.9l.033.121a68.614,68.614,0,0,0,5.574,15.157c1.12,2.263,6.177,6.585,10.091,9.487-.832.464-1.843,1.024-1.94,1.072-11.289,6.443-21.849,9.151-34.65,12.155a70.241,70.241,0,0,1-26.063,1.026c-7.818-1.229-15.475-4.74-20.634-10.682-.089-.1-.175-.2-.263-.3C333.043,7469.282,335.265,7468.31,339.139,7466.6Z" transform="translate(-138.964 -7306.218)" fill="#fff"/>
        <path id="パス_824" data-name="パス 824" d="M412.238,7465.247a112.624,112.624,0,0,1-12.137,6.19,121.619,121.619,0,0,1-16.9,5.432,100.551,100.551,0,0,1-18.541,3.482,56.423,56.423,0,0,1-18.483-1.493A29.792,29.792,0,0,1,330.593,7469a2.907,2.907,0,0,0-4.086,0,2.961,2.961,0,0,0,0,4.087c8.15,10.242,21.819,13.3,34.29,13.18a90.559,90.559,0,0,0,20.662-3.01,145.609,145.609,0,0,0,18.1-5.418,116.662,116.662,0,0,0,15.6-7.606c3.232-1.838.324-6.833-2.917-4.991Z" transform="translate(-138.86 -7306.885)" fill="#211715"/>
        <path id="パス_825" data-name="パス 825" d="M309.395,7521.867c1.17,12.69,3.664,25.33,5.8,37.884,2.309,13.573,4.75,27.125,7.02,40.705,1.332,7.966,2.551,15.957,3.815,23.936a2.91,2.91,0,0,0,3.554,2.018,2.96,2.96,0,0,0,2.018-3.554c-2.047-12.945-4.127-25.885-6.373-38.8-2.6-14.978-5.24-29.953-7.63-44.967-.556-3.491-1.1-6.974-1.593-10.474-.05-.362-.1-.714-.15-1.07-.024-.171-.153-1.12-.1-.75.047.348-.07-.526-.091-.692-.044-.338-.087-.675-.129-1.014-.134-1.076-.258-2.151-.362-3.229a2.969,2.969,0,0,0-2.889-2.89,2.911,2.911,0,0,0-2.889,2.89Z" transform="translate(-138.363 -7308.537)" fill="#211715"/>
        <path id="パス_826" data-name="パス 826" d="M272.949,7570.775c4.006-16.185,6.622-32.627,9.812-48.972,1.5-7.657,3.052-15.693,6.246-22.854a34.036,34.036,0,0,1,14.4-15.6c4.039-2.358,8.782-3.667,13.146-5.307l14.028-5.271a2.971,2.971,0,0,0,2.018-3.555,2.913,2.913,0,0,0-3.555-2.017l-12.905,4.85c-4.287,1.61-8.684,3.063-12.882,4.9a44.549,44.549,0,0,0-10.1,6.73,32.05,32.05,0,0,0-7.258,8.678c-4.078,6.983-6.02,15.189-7.712,23.02-1.806,8.362-3.182,16.817-4.748,25.225-1.785,9.6-3.722,19.162-6.067,28.639-.894,3.612,4.678,5.15,5.573,1.537Z" transform="translate(-137.078 -7306.955)" fill="#211715"/>
        <path id="パス_827" data-name="パス 827" d="M307.478,7612.54c6.388-10.354,11.261-21.812,15.531-33.178a2.914,2.914,0,0,0-2.019-3.554,2.954,2.954,0,0,0-3.554,2.018,183.111,183.111,0,0,1-14.951,31.8c-1.958,3.173,3.039,6.08,4.991,2.917Z" transform="translate(-138.139 -7310.267)" fill="#211715"/>
        <path id="パス_828" data-name="パス 828" d="M396.274,7443.733a50.7,50.7,0,0,0,2.4,7.893,60.8,60.8,0,0,0,3.554,8.124,21.186,21.186,0,0,0,4.361,4.918c2.12,1.935,4.374,3.721,6.676,5.435a2.908,2.908,0,0,0,3.954-1.036,2.959,2.959,0,0,0-1.037-3.954c-1.905-1.419-3.75-2.93-5.507-4.53-.809-.739-1.6-1.5-2.343-2.305-.169-.184-.331-.37-.493-.557-.136-.154-.386-.493-.133-.145a7.7,7.7,0,0,1-.576-.915,54.879,54.879,0,0,1-5.281-14.469,2.891,2.891,0,1,0-5.574,1.537Z" transform="translate(-141.009 -7306.13)" fill="#211715"/>
        <path id="パス_829" data-name="パス 829" d="M330.934,7473.727q4.5-1.936,8.969-3.917a35.9,35.9,0,0,0,5.634-2.619,18.334,18.334,0,0,0,4.791-5.279,2.909,2.909,0,0,0-1.036-3.954,2.957,2.957,0,0,0-3.953,1.036,16.3,16.3,0,0,1-1.508,2.047,13.4,13.4,0,0,1-1.013,1.009c-.362.323.04,0-.2.147-.2.128-.4.258-.6.369-1.752.95-3.68,1.656-5.5,2.46q-4.241,1.874-8.5,3.709a2.9,2.9,0,0,0-1.036,3.953,2.98,2.98,0,0,0,3.954,1.037Z" transform="translate(-138.887 -7306.666)" fill="#211715"/>
        <path id="パス_830" data-name="パス 830" d="M313.977,7378.495c6.463-5.646,13.792-11.248,19.56-14.043,1.065-.517,2.43.174,2.855,1.8.862,3.311-.562,8.036,1.961,7.115,4.374-1.6,17.51-10.266,27.691-14.242l10.082,3.831a28.569,28.569,0,0,1,4.507,2.9,35.2,35.2,0,0,1,5.9,6.288c3.351,4.454,7.6,11.782,12.837,23.631l3.331-2.225c3.324-3.435,9.2-3.611,13.18-.954a14.729,14.729,0,0,1,6.013,12.379,24.32,24.32,0,0,1-4.723,13.319,35.079,35.079,0,0,1-14.4,11.678,68.171,68.171,0,0,1-13.033,17.287,55.039,55.039,0,0,1-20.9,13.466,50.8,50.8,0,0,1-28.224,1.354,50.146,50.146,0,0,1-14.3-5.734,48.459,48.459,0,0,1-13.186-12.231,65.793,65.793,0,0,1-10.365-19.19,91.213,91.213,0,0,1-4.6-19.383c-.524-3.635-.787-6.727-.93-9.01,0,0-.017-.275-.049-.737l6.958-8.047C306.827,7385.006,310.258,7381.744,313.977,7378.495Z" transform="translate(-137.99 -7303.662)" fill="#fff"/>
        <path id="パス_831" data-name="パス 831" d="M420.772,7359.44c-2.007-12.777-6.782-25.59-15.479-32.3l-8.005-6.742c-2.849-2.694-13.142-13.772-35.636-15.221-26.666-1.718-46.269,7.3-54.514,16.934l-.437,8.978c-11.178,10.651-17.043,29.561-12.956,55.311.152,1.64.33,3.258.529,4.844.224,1.793.482,3.545.756,5.246.194-.229,8.973-10.378,8.973-10.378,7.344-7.538,20.307-18.9,29.392-23.309,1.065-.516,2.43.174,2.856,1.805.862,3.311-.562,8.038,1.961,7.116,4.373-1.6,17.509-10.266,27.69-14.243l10.082,3.833a28.42,28.42,0,0,1,4.507,2.9,35.115,35.115,0,0,1,5.9,6.287c3.351,4.455,7.6,11.782,12.838,23.632l3.331-2.226c3.323-3.434,9.2-3.611,13.179-.953a12.3,12.3,0,0,1,2.944,2.787c2.179-5.786,3.336-16.846,3.21-21.876A96.284,96.284,0,0,0,420.772,7359.44Z" transform="translate(-137.846 -7302.01)" fill="#c79f62"/>
        <path id="パス_832" data-name="パス 832" d="M407.978,7396.507a7.839,7.839,0,0,1,10.044-.24c3.335,2.563,4.56,7.125,4.134,11.157-1.017,9.667-9.257,17.055-17.552,20.948a2.913,2.913,0,0,0-1.036,3.953,2.954,2.954,0,0,0,3.954,1.038c8.648-4.063,16.02-11.043,19.2-20.208,3.023-8.7.422-19.946-8.909-23.491a13.358,13.358,0,0,0-13.931,2.76c-2.656,2.611,1.43,6.7,4.087,4.086Z" transform="translate(-141.218 -7304.566)" fill="#211715"/>
        <path id="パス_833" data-name="パス 833" d="M294.256,7397.627c1.423,22.176,8.6,46.13,27.129,60.019,17.5,13.112,43.242,12.783,61.021.508a73.647,73.647,0,0,0,22.8-25.667c1.755-3.278-3.232-6.2-4.99-2.915a70.515,70.515,0,0,1-18.09,21.644A48.027,48.027,0,0,1,327.774,7455c-9.018-5.48-15.808-14.721-20.1-24.219-4.7-10.393-6.906-21.821-7.633-33.158a2.957,2.957,0,0,0-2.889-2.889,2.915,2.915,0,0,0-2.889,2.889Z" transform="translate(-137.901 -7304.748)" fill="#211715"/>
        <path id="パス_834" data-name="パス 834" d="M425.422,7393.676a73.328,73.328,0,0,0,2.457-27.484c-.9-9.863-3.059-19.835-7.663-28.672A36.029,36.029,0,0,0,410.8,7325.7a2.986,2.986,0,0,0-4.086,0,2.91,2.91,0,0,0,0,4.087c6.784,5.319,10.466,13.51,12.721,21.63a77.839,77.839,0,0,1,2.9,25.763,67.5,67.5,0,0,1-2.477,14.96c-1.077,3.567,4.5,5.093,5.574,1.537Z" transform="translate(-141.305 -7302.618)" fill="#211715"/>
        <path id="パス_835" data-name="パス 835" d="M290.8,7388.868q.481,5.124,1.285,10.213a2.887,2.887,0,0,0,5.277.69h0a3.333,3.333,0,0,0,.291-2.226q-.262-1.647-.481-3.3l.1.768q-.409-3.067-.7-6.147a3.1,3.1,0,0,0-.842-2.046,2.89,2.89,0,0,0-4.937,2.046Z" transform="translate(-137.796 -7304.481)" fill="#211715"/>
        <path id="パス_836" data-name="パス 836" d="M304.567,7329.775c-11.061,10.636-15.014,26.447-15.07,41.355A106.864,106.864,0,0,0,290.9,7388a2.91,2.91,0,0,0,3.554,2.018,2.964,2.964,0,0,0,2.019-3.555c-2.33-14.906-1.955-31.611,6.036-44.9a36.237,36.237,0,0,1,6.14-7.7c2.687-2.583-1.4-6.665-4.086-4.086Z" transform="translate(-137.756 -7302.742)" fill="#211715"/>
        <path id="パス_837" data-name="パス 837" d="M401.546,7318.259a62.193,62.193,0,0,0-8.348-6.871,54.926,54.926,0,0,0-18.461-7.685,85.416,85.416,0,0,0-27.528-1.181,80.314,80.314,0,0,0-23.459,6.034,45.715,45.715,0,0,0-16.437,11.414c-2.422,2.8,1.648,6.905,4.086,4.087a38.752,38.752,0,0,1,12.832-9.391,69.841,69.841,0,0,1,20.6-6.071c14.637-2.138,30.949-1.084,43.84,6.751q1.745,1.061,3.4,2.268.361.261.707.53l-.1-.08c.12.095.24.192.368.29.4.324.794.647,1.183.98,1.122.963,2.175,1.989,3.245,3.009,2.7,2.561,6.79-1.519,4.086-4.084Z" transform="translate(-138.277 -7301.917)" fill="#211715"/>
        <path id="パス_838" data-name="パス 838" d="M306.316,7389.711c3.988-4.078,8.2-7.947,12.573-11.609A93.661,93.661,0,0,1,333,7367.969a11.4,11.4,0,0,0,1.482-.794c.537-.423.278.03-.059-.133.007,0-.986.042-.717-.21a6.976,6.976,0,0,0,.193,1.084c.072.715.057,1.445.065,2.161.026,2.521.318,5.727,3.43,6.158,1.939.271,3.973-1.027,5.632-1.9,2.192-1.148,4.334-2.385,6.5-3.6a141.959,141.959,0,0,1,17.422-8.9,2.978,2.978,0,0,0,2.018-3.555,2.912,2.912,0,0,0-3.555-2.018,136.912,136.912,0,0,0-16.521,8.195c-2.35,1.318-4.685,2.66-7.045,3.956-.913.5-1.828,1-2.758,1.461-.338.167-.681.325-1.021.489-.168.081-.664.241,0,.006a4.342,4.342,0,0,0-.613.215l2.251.949q.19.5.1.168c.1-.147.009.383-.025-.219s-.028-1.19-.035-1.786a16.926,16.926,0,0,0-.435-4.289,5.551,5.551,0,0,0-3.009-3.664,5.165,5.165,0,0,0-4.733.444,85.411,85.411,0,0,0-14.553,10.012,171.476,171.476,0,0,0-14.783,13.43c-2.6,2.661,1.481,6.75,4.086,4.086Z" transform="translate(-138.119 -7303.571)" fill="#211715"/>
        <path id="パス_839" data-name="パス 839" d="M377.062,7365.492c5.147,2.7,8.86,7.034,12.011,11.985a149.421,149.421,0,0,1,10.2,19.8,2.91,2.91,0,0,0,3.954,1.037,2.962,2.962,0,0,0,1.037-3.954,145.357,145.357,0,0,0-10.548-20.335c-3.565-5.5-7.868-10.438-13.737-13.517-3.291-1.727-6.215,3.259-2.916,4.989Z" transform="translate(-140.382 -7303.694)" fill="#211715"/>
        <path id="パス_840" data-name="パス 840" d="M382.505,7655.5c-17.4,11.309-35.422,21.671-53.334,32.137q-5.2,3.034-10.4,6.074c-2.81,1.645-5.668,3.96-9.042,3.893-5.487-.108-10.975-.345-16.458-.546q-26.479-.979-52.946-2.207c-18.765-.854-37.529-1.752-56.281-2.841-6.919-.4-13.838-.821-20.748-1.352a16.852,16.852,0,0,1-3.709-.386c-2.7-.864-2.528-4.565-2.926-6.849q-1.917-11-3.826-21.994-6.679-38.445-13.273-76.905-.346-2.035-.7-4.067a4.371,4.371,0,0,1,.191-3.131c.951-1.686,2.639-1.589,4.334-1.548q4.841.121,9.684.263,12.674.361,25.347.781,29.834.962,59.664,2,22.452.769,44.9,1.528c1.565.052,3.1.083,3.973,1.632a12.978,12.978,0,0,1,.9,4.041q.492,2.795.98,5.592,1.955,11.175,3.889,22.353,3.944,22.729,7.93,45.448,1.978,11.186,4,22.363a2.916,2.916,0,0,0,3.554,2.018,2.953,2.953,0,0,0,2.018-3.555c-5.6-30.958-10.877-61.974-16.305-92.962-.589-3.364-.722-7.134-3.131-9.785a9.6,9.6,0,0,0-7.143-2.9q-3.966-.128-7.931-.263-11.569-.389-23.137-.79-30.311-1.041-60.622-2.055c-16.6-.548-33.229-1.3-49.843-1.517a9.084,9.084,0,0,0-7.743,3.957c-1.919,2.823-1.467,5.815-.926,8.976q1.582,9.251,3.171,18.5,3.346,19.473,6.718,38.946,3.764,21.727,7.548,43.45c.59,3.392.741,7.075,3.251,9.7,1.905,1.991,4.346,2.559,6.982,2.769,2.942.241,5.889.451,8.836.649,17.626,1.188,35.275,2.056,52.92,2.9q29.052,1.4,58.115,2.55,10.728.426,21.463.8c2.426.08,4.854.173,7.282.221,4.351.087,7.635-2.144,11.207-4.242,17.578-10.313,35.234-20.483,52.591-31.161,3.991-2.455,7.964-4.937,11.893-7.492,3.105-2.018.212-7.024-2.917-4.989Z" transform="translate(-132.983 -7310.092)" fill="#211715"/>
        <path id="パス_841" data-name="パス 841" d="M170.008,7686.3c31.623,1.879,63.246,3.775,94.891,5.219q14.134.645,28.27,1.169c3.719.136,3.714-5.643,0-5.781-32.278-1.192-64.531-2.93-96.773-4.822q-13.194-.774-26.388-1.566c-3.714-.22-3.7,5.558,0,5.779Z" transform="translate(-134.027 -7313.463)" fill="#211715"/>
        <path id="パス_842" data-name="パス 842" d="M424.581,7546.072q7.737,29.2,14.086,58.754c.78,3.634,6.352,2.095,5.572-1.537q-6.341-29.536-14.086-58.753C429.2,7540.945,423.625,7542.468,424.581,7546.072Z" transform="translate(-141.872 -7309.254)" fill="#211715"/>
        <path id="パス_843" data-name="パス 843" d="M399.49,7609.989c15.583,1.394,31.424-.3,47-1.16,3.7-.2,3.721-5.984,0-5.777-15.57.859-31.416,2.553-47,1.159a2.911,2.911,0,0,0-2.889,2.891,2.949,2.949,0,0,0,2.889,2.888Z" transform="translate(-141.022 -7311.101)" fill="#211715"/>
        <path id="パス_844" data-name="パス 844" d="M320.785,7649.535a3.645,3.645,0,0,1,0-.412,5.822,5.822,0,0,1,1.479-3.732l1.066-1.353-1.388.292a5.226,5.226,0,0,1-5.466-2.035c-1.011-1.493-.373-4.009.073-4.911a14.354,14.354,0,0,1,2.685-3.276c1.216-1.2,6.49-5.237,7.862-6.235a127.29,127.29,0,0,1,17.3-10.619c4.9-2.492,10.39-4.708,15.748-3.553,6.838,1.481,10.154,4.5,16.944,6.164,4.782,1.178,7.458.092,11.486-.015,3.946,7.605,6.424,18.512,7.693,26.038l-.835.249c-1.716.722-6.06,3.413-11.061,5.487a18.267,18.267,0,0,1-14.056-.06,102.872,102.872,0,0,1-12.821,12c-.858.687-3.7,2.777-6.02.811-1.523-1.292-1.167-4.246-.416-5.4,3.612-5.546,5.156-9.659,9.157-14.771-6.634,4.122-13.017,8.947-19.624,13.133-2.15,1.36-3.942,2.543-6.447,2.1a4.6,4.6,0,0,1-3.875-4.8,7.142,7.142,0,0,1,1.283-3.372c-1.247.58-1.988.923-1.988.923a13.237,13.237,0,0,1-3.864,1.283,4.794,4.794,0,0,1-3.876-1.144A4.676,4.676,0,0,1,320.785,7649.535Z" transform="translate(-138.562 -7311.416)" fill="#fff"/>
        <path id="パス_845" data-name="パス 845" d="M321.075,7641.458a2.87,2.87,0,0,1-1.8-.33c-.8-.547-.582-1.456-.337-2.288.177-.6.07-.229,0-.085a4.931,4.931,0,0,1,.441-.747,11.684,11.684,0,0,1,1.231-1.381,22.99,22.99,0,0,1,1.873-1.71,123.893,123.893,0,0,1,11.391-8.384c5.453-3.562,11.376-7.317,17.606-9.341a15.8,15.8,0,0,1,9.346-.412,54.51,54.51,0,0,1,7.849,3.069,36.735,36.735,0,0,0,10.053,3.17c3.258.426,6.394-.234,9.642-.361,3.706-.148,3.725-5.928,0-5.78-3.078.121-6.18.887-9.259.4a38.018,38.018,0,0,1-9.526-3.324,38.14,38.14,0,0,0-9.818-3.307,22.459,22.459,0,0,0-11.343,1.514,98.133,98.133,0,0,0-20.654,11.535,76.676,76.676,0,0,0-11.245,8.845c-2.5,2.571-4.441,6.04-3.278,9.743,1.245,3.962,5.616,5.417,9.358,4.747a2.916,2.916,0,0,0,2.019-3.555,2.954,2.954,0,0,0-3.555-2.018Z" transform="translate(-138.47 -7311.327)" fill="#211715"/>
        <path id="パス_846" data-name="パス 846" d="M341.779,7627.163a145.479,145.479,0,0,0-15.327,10.849c-4.214,3.346-10.021,7.806-8.171,14a6.487,6.487,0,0,0,5.1,4.62c2.749.515,5.225-.4,7.691-1.527a2.912,2.912,0,0,0,1.036-3.954,2.956,2.956,0,0,0-3.953-1.036,12.428,12.428,0,0,1-2.167.792,2.822,2.822,0,0,1-1.4.087c-.128-.029-.733-.275-.536-.176.163.083-.1-.121-.155-.22a2.421,2.421,0,0,1-.147-1.423c-.035.263.111-.408.145-.5-.069.2.256-.481.361-.632.161-.25.5-.972.785-1.126-.171.092-.482.552-.12.176.12-.133.24-.271.367-.4.276-.294.565-.575.858-.853a98,98,0,0,1,11.7-9.151c2.238-1.574,4.505-3.112,6.85-4.522,3.184-1.914.281-6.913-2.917-4.991Z" transform="translate(-138.623 -7311.823)" fill="#211715"/>
        <path id="パス_847" data-name="パス 847" d="M351.527,7633.323c-4.364,2.745-8.566,5.73-12.762,8.718-3.829,2.722-7.989,5.263-10.067,9.682-1.973,4.2-.482,9.2,4.093,10.843,4.912,1.768,9.45-1.959,13.282-4.522,5.022-3.36,9.917-6.906,15.018-10.148,3.131-1.991.234-6.995-2.917-4.991-4.791,3.046-9.4,6.361-14.106,9.538a45.334,45.334,0,0,1-7.052,4.454c-1.1.471-2.718.539-3.291-.533-.645-1.2.256-2.546,1.2-3.8a24.592,24.592,0,0,1,5.866-4.9c4.5-3.195,8.986-6.411,13.661-9.352,3.14-1.978.24-6.982-2.917-4.991Z" transform="translate(-138.925 -7312.009)" fill="#211715"/>
        <path id="パス_848" data-name="パス 848" d="M357.855,7644.8a92.236,92.236,0,0,0-5.524,9.03c-1.644,2.9-4.074,5.649-3.794,9.188a6.308,6.308,0,0,0,2.727,4.966,6.506,6.506,0,0,0,5.644.638,12.657,12.657,0,0,0,3.906-2.34q2.242-1.805,4.4-3.708a98.086,98.086,0,0,0,8.668-8.668,2.96,2.96,0,0,0,0-4.086,2.917,2.917,0,0,0-4.087,0q-3.092,3.505-6.5,6.707-1.771,1.656-3.62,3.229-.891.76-1.8,1.5-.5.412-1,.819a3.023,3.023,0,0,1-.438.354c.181-.093.572-.407.155-.12a14.07,14.07,0,0,1-1.213.736c-.429.23.241-.007-.252.086-.172.031-.336.095-.508.12.4-.067.1.053-.023-.035.028.02.636.233-.04-.008-.015,0-.408-.18-.19-.065.33.174-.183-.336.139.177-.178-.284-.159-.544-.1-.139a2.816,2.816,0,0,1-.092-.344c-.043-.212-.041-.152.009.178l-.017-.24c0-.241,0-.481.009-.723.01-.545.017-.037-.012.075.027-.107.04-.219.072-.326s.065-.208.087-.309c.1-.481-.016.047-.078.147.2-.315.385-.631.584-.944.854-1.342,1.659-2.712,2.442-4.094a89.454,89.454,0,0,1,5.443-8.891,2.913,2.913,0,0,0-1.036-3.954,2.955,2.955,0,0,0-3.954,1.037Z" transform="translate(-139.556 -7312.332)" fill="#211715"/>
        <path id="パス_849" data-name="パス 849" d="M372.919,7655.921a21.982,21.982,0,0,0,15.183-1.115c3.587-1.545,6.883-3.682,10.457-5.232a2.908,2.908,0,0,0,1.036-3.952,2.964,2.964,0,0,0-3.954-1.037c-3.173,1.377-6.116,3.276-9.27,4.709a16.577,16.577,0,0,1-11.919,1.056c-3.571-1.063-5.1,4.512-1.536,5.572Z" transform="translate(-140.238 -7312.355)" fill="#211715"/>
        <path id="パス_850" data-name="パス 850" d="M385.4,7612.376c4.611,5.973,6.7,13.752,8.409,20.993q1.225,5.191,2.047,10.467.163,1.053.308,2.106c-.1-.742.033.252.049.389.034.273.068.55.1.824.086.761.171,1.523.2,2.288a2.935,2.935,0,0,0,2.889,2.889c13.069-.191,26.139-.346,39.2-.722,6.149-.177,12.27-.428,18.4-.975,6.176-.551,12.509-.915,18.42-2.928a30.725,30.725,0,0,0,13.325-8.557,24.474,24.474,0,0,0,5.7-13.094,66.548,66.548,0,0,0,.677-14.771c-.492-5.947-1.712-11.906-2.629-17.8q-1.315-8.447-2.751-16.873c-1.821-10.553-3.89-21.068-6.316-31.5-2.562-11.005-5-22.287-9.44-32.713s-10.438-20.441-19.161-27.852c-8.948-7.6-19.518-12.4-30.408-16.528-2.568-.975-5.149-1.915-7.729-2.857a2.915,2.915,0,0,0-3.554,2.017,2.95,2.95,0,0,0,2.018,3.555c10.2,3.733,20.587,7.425,29.7,13.47a58.981,58.981,0,0,1,12.542,11.1,69.931,69.931,0,0,1,8.39,13.149c5.051,9.831,7.706,20.36,10.354,31.032q3.777,15.242,6.622,30.689c2.02,10.925,3.743,21.9,5.409,32.888.405,2.671.977,5.828,1.172,8.044a52.778,52.778,0,0,1,.1,6.623c-.158,4.206-.362,8.894-1.976,12.846-4.049,9.924-15.721,12.882-25.293,13.813-6.622.649-13.2,1.1-19.849,1.325-13.61.451-27.229.626-40.844.808l-2.073.027,2.889,2.89a83.633,83.633,0,0,0-1.806-12.462,98.864,98.864,0,0,0-5.24-18.516,38.219,38.219,0,0,0-4.858-9.006,2.987,2.987,0,0,0-3.954-1.037,2.908,2.908,0,0,0-1.036,3.954Z" transform="translate(-140.669 -7306.892)" fill="#211715"/>
        <path id="パス_851" data-name="パス 851" d="M341.793,7417.79a29.844,29.844,0,0,0-1,3.219c-.461,1.745-1.054,3.949.394,5.407a4.136,4.136,0,0,0,1.153.792,4.929,4.929,0,0,0,1.247.452,5.883,5.883,0,0,0,1.248.121c.177-.009.355-.03.532-.034a3,3,0,0,0,2.047-.842,2.89,2.89,0,0,0-2.047-4.937,7.3,7.3,0,0,1-1.012.019l.768.1a2.315,2.315,0,0,1-.556-.161l.689.292a3.39,3.39,0,0,1-.55-.325l.584.453-.023-.022.453.583a.17.17,0,0,1-.027-.046l.29.69a.617.617,0,0,1-.034-.14l.1.767a2.575,2.575,0,0,1,.025-.585l-.1.768a19.422,19.422,0,0,1,.665-2.8c.219-.749.44-1.5.722-2.233a2.89,2.89,0,0,0-4.244-3.263h0l-.584.452a2.892,2.892,0,0,0-.743,1.275Z" transform="translate(-139.305 -7305.387)" fill="#211715"/>
        <path id="パス_852" data-name="パス 852" d="M318.085,7404.811c-.777,2.694-.223,8.872,4.66,9.355,6.451-.1,6.75-7.573,4.557-11.068C325.508,7400.237,320.272,7399.085,318.085,7404.811Z" transform="translate(-138.619 -7304.932)" fill="#211715"/>
        <path id="パス_853" data-name="パス 853" d="M374.822,7403.443c.883,2.8.368,9.261-4.946,9.849-7.028.011-7.464-7.793-5.12-11.481C366.672,7398.792,372.358,7397.5,374.822,7403.443Z" transform="translate(-140.012 -7304.886)" fill="#211715"/>
        <path id="パス_854" data-name="パス 854" d="M339.524,7445.079a22.228,22.228,0,0,0,9.2.6,25.751,25.751,0,0,0,9.751-3.032,2.89,2.89,0,0,0-2.917-4.991h0c-.3.176-.6.342-.916.5-.141.07-.283.138-.426.207-.055.025-.522.241-.2.1.362-.163-.328.13-.328.13-.152.058-.305.121-.46.172q-.468.165-.942.313c-.682.213-1.377.392-2.076.543q-.56.121-1.125.218c-.168.029-.335.055-.5.081-.563.089.241-.016-.113.015a29.555,29.555,0,0,1-4.183.145q-.465-.025-.931-.071c-.353-.035-.4-.049-.02.008-.145-.022-.293-.043-.438-.068a14.838,14.838,0,0,1-1.834-.439,2.916,2.916,0,0,0-3.554,2.018,2.952,2.952,0,0,0,2.018,3.556Z" transform="translate(-139.217 -7306.045)" fill="#211715"/>
      </g>
    </g>
  </g>
</svg>
