<svg xmlns="http://www.w3.org/2000/svg" xmlns:xlink="http://www.w3.org/1999/xlink" width="480" height="480" viewBox="0 0 480 480">
  <defs>
    <clipPath id="clip-path">
      <rect id="長方形_130" data-name="長方形 130" width="480" height="480" transform="translate(-1652 1942)" fill="#fff" stroke="#707070" stroke-width="1"/>
    </clipPath>
  </defs>
  <g id="マスクグループ_1" data-name="マスクグループ 1" transform="translate(1652 -1942)" clip-path="url(#clip-path)">
    <g id="グループ_40" data-name="グループ 40" transform="translate(-1641 1942)">
      <g id="グループ_38" data-name="グループ 38" transform="translate(47.224)">
        <ellipse id="楕円形_3" data-name="楕円形 3" cx="205.276" cy="205.276" rx="205.276" ry="205.276" fill="#002063"/>
        <g id="グループ_37" data-name="グループ 37" transform="translate(81.069 57.603)">
          <path id="パス_753" data-name="パス 753" d="M400.652,6464.218c17.811.825,35.1-5.31,45.089-17.073,7.512-8.839,2.789-9.48-1.648-18.12-2.719-5.3-3.619-13.4-3.947-19.451-.735-13.58-.752-26.887-3.3-40.384a57.64,57.64,0,0,0-17.9-32.037l-8-6.23a69.106,69.106,0,0,0-38.909-11.147c-30.106-.492-59,18.56-64.811,49.415-2.542,13.5-2.56,26.8-3.3,40.384-.328,6.05-1.226,14.155-3.947,19.451-4.434,8.64-9.156,9.28-1.648,18.12,8.348,9.825,18.717,18.905,36.6,18.042l15.009-2.729Z" transform="translate(-248.335 -6317.377)" fill="#6a3906"/>
          <path id="パス_754" data-name="パス 754" d="M358.86,6366.272c-5.349,7.607-28.394,31.711-36.367,34.9,0,0-.347,1.585-.7,3.175l-.333-.3a7.687,7.687,0,0,0-6.15-1.8,7.262,7.262,0,0,0-5.218,3.469,10.273,10.273,0,0,0-1.074,4.128,30.748,30.748,0,0,0,3.135,16.3,19.539,19.539,0,0,0,5.053,6.632,12.944,12.944,0,0,0,6.025,2.714l1.966.3a52.241,52.241,0,0,0,9.963,19.451,44.611,44.611,0,0,0,15.465,12.328,50.414,50.414,0,0,1-1.089,9.487c-.618,3.53-.425,6.684-5.332,8.457-.325.117-2.609.873-3.554,1.19,0,0,2.269,28.87,31.857,28.87s35.252-27.585,35.252-27.585c-.494-.2-6.021-2.355-6.341-2.472-4.906-1.775-4.712-4.926-5.332-8.455a51.64,51.64,0,0,1-1.086-9.237c13.077-5.318,23.647-22.982,25.474-27.941.272-.827.828-2.386,1.323-4.238l1.031-.159a12.938,12.938,0,0,0,6.026-2.714,19.539,19.539,0,0,0,5.059-6.633,30.746,30.746,0,0,0,3.134-16.3,10.249,10.249,0,0,0-1.074-4.127,7.258,7.258,0,0,0-5.217-3.469,7.829,7.829,0,0,0-4.822.862v-2.29c-7.339-.862-24.984-8.545-34.97-13.292-10.88-5.169-26.284-17.343-31.315-21.457" transform="translate(-248.778 -6318.788)" fill="#fff"/>
          <path id="パス_755" data-name="パス 755" d="M429.761,6406.757a5.3,5.3,0,0,1,7.34.614c1.127,1.424,1.178,3.521,1.227,5.252a27.289,27.289,0,0,1-.379,5.579c-1.2,6.709-4.751,14.827-12.224,16.11a2.346,2.346,0,0,0-1.625,2.862,2.378,2.378,0,0,0,2.862,1.625c7.756-1.333,12.384-8.6,14.557-15.594a32.532,32.532,0,0,0,1.426-11.44c-.223-3.871-1.341-7.548-4.913-9.566a10.115,10.115,0,0,0-11.56,1.27,2.347,2.347,0,0,0,0,3.291,2.375,2.375,0,0,0,3.29,0Z" transform="translate(-252.288 -6319.852)" fill="#211715"/>
          <path id="パス_756" data-name="パス 756" d="M422.955,6431.7a26.2,26.2,0,0,1-1.281,6.7c-.225.746-.47,1.483-.717,2.221-.083.247-.168.491-.254.735-.142.406-.166.388-.062.162a55.9,55.9,0,0,1-3.4,6.217,61.23,61.23,0,0,1-13.645,15.739,25.993,25.993,0,0,1-10.128,5.127c-2.918.671-1.683,5.159,1.237,4.487,7.648-1.759,14.058-7.25,19.116-13.011a66.374,66.374,0,0,0,10.691-15.875,33.668,33.668,0,0,0,3.1-12.506c.1-2.994-4.557-2.991-4.654,0Z" transform="translate(-251.305 -6320.722)" fill="#211715"/>
          <path id="パス_757" data-name="パス 757" d="M323.035,6403.466a10.085,10.085,0,0,0-10.015-1.97c-3.927,1.478-5.85,4.739-6.33,8.776a31.526,31.526,0,0,0,5.538,21.675,16.5,16.5,0,0,0,10.316,6.85,2.392,2.392,0,0,0,2.862-1.625,2.347,2.347,0,0,0-1.625-2.862c-7.471-1.283-11.03-9.4-12.225-16.11a27.417,27.417,0,0,1-.379-5.579c.048-1.686.1-3.684,1.13-5.108a5.265,5.265,0,0,1,7.405-.783l.033.026a2.388,2.388,0,0,0,3.29,0A2.347,2.347,0,0,0,323.035,6403.466Z" transform="translate(-248.704 -6319.852)" fill="#211715"/>
          <path id="パス_758" data-name="パス 758" d="M321.688,6430.924c2.8,16.15,11.561,31.977,26.538,39.756a35.941,35.941,0,0,0,12.968,3.878,2.341,2.341,0,0,0,2.327-2.327,2.38,2.38,0,0,0-2.327-2.327c-15.415-1.6-27.421-15.437-32.256-29.323a68.908,68.908,0,0,1-2.762-10.894,2.347,2.347,0,0,0-2.862-1.625A2.38,2.38,0,0,0,321.688,6430.924Z" transform="translate(-249.165 -6320.677)" fill="#211715"/>
          <path id="パス_759" data-name="パス 759" d="M420.578,6339.27A56.15,56.15,0,0,1,436.908,6366a106.714,106.714,0,0,1,2.844,18.674c.544,6.557.776,13.133,1.066,19.7a117.664,117.664,0,0,0,1.613,17.267,36.966,36.966,0,0,0,2.411,7.942,41.425,41.425,0,0,0,3.619,6.2c.5.752,1.018,1.5,1.463,2.289a9.2,9.2,0,0,1,.506,1c-.152-.369.165.623.2.817-.1-.513,0,.419-.007.6,0,.092-.068.437,0,.023a5.684,5.684,0,0,1-.166.678,10.186,10.186,0,0,1-1.393,2.6A37.783,37.783,0,0,1,438.25,6453.9c-10.136,6.5-22.407,8.986-34.331,8.468-2.994-.13-2.988,4.524,0,4.653a64.959,64.959,0,0,0,33.236-7.087,46.861,46.861,0,0,0,12.577-9.62c2.967-3.248,6.732-7.707,5.177-12.445a21.437,21.437,0,0,0-2.842-5.042,31.429,31.429,0,0,1-3.573-6.523c-1.889-5.177-2.45-10.791-2.752-16.258-.764-13.822-.782-27.761-3.454-41.4a60.552,60.552,0,0,0-18.421-32.673c-2.2-2.029-5.5,1.253-3.29,3.291Z" transform="translate(-251.607 -6317.852)" fill="#211715"/>
          <path id="パス_760" data-name="パス 760" d="M334.869,6462.786a37.572,37.572,0,0,1-22.333-5.691,47.644,47.644,0,0,1-7.853-6.459,44.522,44.522,0,0,1-7.115-8.413,6.829,6.829,0,0,1-.814-1.815,3.545,3.545,0,0,1-.091-1.179c-.037.236.136-.469.164-.576.125-.48-.069.035.163-.425a19.651,19.651,0,0,1,1.007-1.745c2.115-3.29,4.256-6.436,5.517-10.18,2.957-8.78,2.778-18.5,3.174-27.648.443-10.226.863-20.612,3.065-30.636a55.83,55.83,0,0,1,9.006-20.36c8.38-11.812,21.323-19.926,35.248-23.511a75.242,75.242,0,0,1,23.074-2.011,66.682,66.682,0,0,1,26.74,7.279,67.947,67.947,0,0,1,5.883,3.443c2.515,1.641,4.848-2.386,2.349-4.019-15.741-10.28-35.333-13.553-53.749-10.372-15.223,2.629-29.78,10.341-39.884,22.12a60.531,60.531,0,0,0-11.611,20.527c-3.147,9.593-3.852,20.019-4.413,30.035-.307,5.483-.485,10.972-.762,16.458a81.752,81.752,0,0,1-1.509,13.407,30.908,30.908,0,0,1-1.774,5.839,36.237,36.237,0,0,1-3.141,5.43c-1.624,2.437-3.5,4.987-3.164,8.082.437,4.019,3.62,7.318,6.183,10.2a63.9,63.9,0,0,0,7.782,7.518,41.839,41.839,0,0,0,22.067,9.191,46.588,46.588,0,0,0,6.787.166c2.982-.132,3-4.786,0-4.654Z" transform="translate(-248.262 -6317.301)" fill="#211715"/>
          <path id="パス_761" data-name="パス 761" d="M359.535,6367.646a228.487,228.487,0,0,0,24.056,17.522,114.852,114.852,0,0,0,13.272,6.871c5.2,2.353,10.445,4.608,15.77,6.658,4.775,1.842,9.71,3.745,14.818,4.378a2.34,2.34,0,0,0,2.327-2.327,2.385,2.385,0,0,0-2.327-2.326c.589.072-.582-.1-.766-.136-.448-.085-.893-.184-1.337-.291-1.022-.243-2.036-.528-3.039-.831-2.305-.7-4.579-1.5-6.835-2.346-4.98-1.864-9.88-3.94-14.736-6.108a124.69,124.69,0,0,1-13.314-6.651c-4.689-2.812-9.186-5.937-13.59-9.172q-5.616-4.126-11.012-8.531a2.4,2.4,0,0,0-3.291,0,2.345,2.345,0,0,0,0,3.291Z" transform="translate(-250.301 -6318.716)" fill="#211715"/>
          <path id="パス_762" data-name="パス 762" d="M357.206,6365.032c-.291.41-.591.814-.9,1.213.372-.484-.137.173-.227.291q-.324.408-.654.814c-.933,1.147-1.893,2.272-2.866,3.386-2.411,2.758-4.9,5.449-7.438,8.094a190.552,190.552,0,0,1-16.544,15.662,43.774,43.774,0,0,1-3.578,2.714c-.541.369-1.091.728-1.657,1.056-.268.155-.538.306-.813.445-.189.1-1.042.462-.3.16a2.4,2.4,0,0,0-1.625,2.862,2.341,2.341,0,0,0,2.862,1.625,29.794,29.794,0,0,0,6.919-4.378c2.858-2.231,5.566-4.654,8.214-7.13q8.695-8.127,16.6-17.075a88.031,88.031,0,0,0,6.024-7.386,2.347,2.347,0,0,0-.835-3.184,2.376,2.376,0,0,0-3.183.835Z" transform="translate(-249.132 -6318.722)" fill="#211715"/>
          <path id="パス_763" data-name="パス 763" d="M349.226,6470.868a43.611,43.611,0,0,1-.651,6.69c-.321,1.875-.507,3.831-.991,5.672-.043.163-.087.323-.139.485s-.209.564-.045.187a5.6,5.6,0,0,1-.594,1.047c.238-.33-.091.084-.177.173a4.781,4.781,0,0,1-.5.455c.243-.189-.139.08-.223.131-.228.141-.46.273-.7.394a32.076,32.076,0,0,1-4.247,1.49,2.384,2.384,0,0,0-1.625,2.864,2.352,2.352,0,0,0,2.862,1.624,37.168,37.168,0,0,0,5.484-2.022,8.64,8.64,0,0,0,4.218-5.011,40.8,40.8,0,0,0,1.106-5.933,54.54,54.54,0,0,0,.873-8.24c.059-3-4.594-3-4.654,0Z" transform="translate(-249.703 -6321.916)" fill="#211715"/>
          <path id="パス_764" data-name="パス 764" d="M395.314,6470.957a75.023,75.023,0,0,0,1.248,10.327c.4,2.5.742,4.931,2.5,6.9,1.559,1.746,3.767,2.468,5.88,3.289,1.613.627,3.234,1.24,4.838,1.893a2.342,2.342,0,0,0,2.863-1.625,2.385,2.385,0,0,0-1.626-2.861c-1.425-.582-2.866-1.126-4.3-1.684-.636-.248-1.271-.5-1.909-.74a6.657,6.657,0,0,1-2.3-1.393c-.079-.081-.155-.167-.228-.253q.2.27-.029-.06a7.109,7.109,0,0,1-.365-.651c-.071-.151-.063-.125.023.07-.051-.13-.1-.264-.142-.4-.078-.239-.143-.48-.2-.723-.25-1.026-.365-2.08-.534-3.12a63.257,63.257,0,0,1-1.066-8.971c-.066-2.991-4.72-3-4.654,0Z" transform="translate(-251.412 -6321.918)" fill="#211715"/>
          <path id="パス_765" data-name="パス 765" d="M343.7,6493.836c5.164,17.032,18.432,60.9,21.45,70.6,2.306,7.4,4.455,14.814,7.066,22.141,7.6-18.242,14.479-36.319,23.947-62.874,4.758-13.347,8.486-26.344,10.238-33.359a37.775,37.775,0,0,0-7.421-9.806,77.811,77.811,0,0,1-22.467,15.658c-.465.21-.984.469-1.133.957h-4.255c-.15-.485-.669-.747-1.134-.957a77.846,77.846,0,0,1-22.467-15.658,35.1,35.1,0,0,0-5.754,6.987l.091.254C342.179,6488.817,342.823,6490.938,343.7,6493.836Z" transform="translate(-249.78 -6322.279)" fill="#fff"/>
          <path id="パス_766" data-name="パス 766" d="M482.13,6551s-39.67-44.877-41.573-45.823c-8.43-4.185-26.371-12.273-34.877-16.792,0,0-.6-.317-1.424-.765a358.408,358.408,0,0,1-10.913,36.248c-4.838,13.573-9,24.925-12.928,35.22-3.759,9.853-7.3,18.734-11.018,27.653-2.611-7.325-4.76-14.736-7.065-22.139-3.528-11.343-21.1-69.485-23.292-76.659l-.557-1.824-4.831,2.288c-10.1,4.786-26.723,13.1-35.15,17.277-1.551.768-3.548,1.984-4.979,2.715a40.324,40.324,0,0,0-7.479,4.309c-4.331,4.1-6.383,5.67-10,14.9-5.549,14.142-15.446,43.033-20.286,56.889-4.6,13.159-9.373,21.851-4.371,31.994s15.624,16.731,23.462,22.184c18.074,12.57,45.982,27.908,54.765,31.975l4.221,1.954H437.139c-3.086-22.958-6.98-51.737-6.246-56.668.51-3.448,1.031-6.934,1.551-10.434,6.211,10.354,19.693,26.117,33.071,24.156,14.47-2.122,17.047-20.671,17.818-32.255C484.394,6581.522,485.2,6567.374,482.13,6551Z" transform="translate(-246.958 -6322.45)" fill="#bdbdbd"/>
          <path id="パス_767" data-name="パス 767" d="M485.58,6553.587a143.821,143.821,0,0,1,1.915,31.719c-.305,8.1-.536,16.55-2.008,24.334-1.171,6.191-3.149,12.73-8.013,16.823a13.524,13.524,0,0,1-8.452,3.005,19.975,19.975,0,0,1-10.3-3.247c-7.68-4.62-13.78-12.06-18.4-19.634-1.557-2.553-5.583-.217-4.018,2.349,4.575,7.5,10.431,14.542,17.606,19.681,6.815,4.875,15.555,7.473,23.422,3.472,6.546-3.33,9.969-10.5,11.759-17.289,2.093-7.931,2.381-16.274,2.819-24.421.685-12.743.485-25.44-1.842-38.021a2.349,2.349,0,0,0-2.863-1.625,2.377,2.377,0,0,0-1.625,2.862Z" transform="translate(-252.652 -6324.417)" fill="#211715"/>
          <path id="パス_768" data-name="パス 768" d="M392.172,6517.213c5.51-5.519,9.781-12.065,13.813-18.7.974-1.6,1.939-3.211,2.909-4.812.606-1,1.487-2.028,1.143-3.28a12.392,12.392,0,0,0-1.394-2.661,39.44,39.44,0,0,0-7.035-8.945,2.369,2.369,0,0,0-3.29,0,75.116,75.116,0,0,1-18.905,13.8c-1.516.782-3.71,1.357-4.751,2.787a3.976,3.976,0,0,0,.279,4.647c1.976,2.891,4.348,5.553,6.573,8.252,2.452,2.973,4.928,5.927,7.359,8.919a2.343,2.343,0,0,0,3.3,0,2.381,2.381,0,0,0,0-3.29c-2.475-3.043-5-6.048-7.489-9.074-1.417-1.721-2.834-3.442-4.219-5.188-.446-.561-1.855-1.938-1.771-2.586l-.318,1.174c-.108.22-.4.188.016.012.279-.118.552-.256.826-.388q.731-.338,1.454-.7,1.569-.774,3.1-1.623,3.249-1.8,6.314-3.907a79.485,79.485,0,0,0,11.528-9.546h-3.291a37.162,37.162,0,0,1,7.465,10.108v-2.35c-5.133,8.368-9.914,17.056-16.906,24.06C386.762,6516.043,390.051,6519.336,392.172,6517.213Z" transform="translate(-250.764 -6322.206)" fill="#211715"/>
          <path id="パス_769" data-name="パス 769" d="M358.47,6513.923c-6.992-7-11.774-15.691-16.906-24.059v2.349a37.191,37.191,0,0,1,7.465-10.107h-3.29a79.692,79.692,0,0,0,11.528,9.545q2.978,2.036,6.132,3.806,1.53.854,3.1,1.635.723.36,1.454.7.432.2.866.4a2.431,2.431,0,0,1,.279.143q.336.194-.121-.088l-.317-1.174c.083.648-1.326,2.025-1.771,2.587-1.386,1.746-2.8,3.467-4.219,5.188-2.495,3.025-5.015,6.03-7.489,9.073a2.4,2.4,0,0,0,0,3.291,2.345,2.345,0,0,0,3.291,0c4.452-5.475,9.141-10.78,13.385-16.42a5.687,5.687,0,0,0,1.478-3.559c-.061-2.3-2.2-3.048-3.94-3.894a76.713,76.713,0,0,1-10.131-5.952,73.04,73.04,0,0,1-10.232-8.575,2.37,2.37,0,0,0-3.29,0,39.483,39.483,0,0,0-7.034,8.945,12.381,12.381,0,0,0-1.394,2.661c-.326,1.182.452,2.145,1.03,3.094,1.012,1.664,2.014,3.334,3.025,5,4.032,6.636,8.3,13.186,13.813,18.7C357.3,6519.336,360.59,6516.045,358.47,6513.923Z" transform="translate(-249.642 -6322.206)" fill="#211715"/>
          <path id="パス_770" data-name="パス 770" d="M409.352,6490.393c6.566,3.479,13.336,6.582,20.058,9.741,6.555,3.082,13.249,6,19.6,9.5a25.377,25.377,0,0,1,9.809,8.845c1.567,2.547,5.593.211,4.018-2.349a28.332,28.332,0,0,0-9.1-9.114,96.86,96.86,0,0,0-9.9-5.189c-7.1-3.428-14.276-6.715-21.391-10.118-3.6-1.727-7.209-3.461-10.741-5.333-2.645-1.4-5,2.617-2.348,4.019Z" transform="translate(-251.805 -6322.448)" fill="#211715"/>
          <path id="パス_771" data-name="パス 771" d="M374.424,6583.864c7.128-17.276,13.773-34.818,22.736-59.958a353.754,353.754,0,0,0,10.977-36.544c7.486,3.884,17.474,12.559,21.507,18.1-4.244,4.92-10.094,11.866-11.136,13.337.262.177,5.366,3.4,5.587,4.751.149.914-.416,2.142-1.851,4.362-3.038,4.706-24.6,41.705-32.36,53.15Z" transform="translate(-250.776 -6322.487)" fill="#bdbdbd"/>
          <path id="パス_772" data-name="パス 772" d="M366.885,6611.731a7.446,7.446,0,0,0-5.1-7.271c-3.424-1.113-7.611.014-9.473,3.218a8.527,8.527,0,0,0-.039,8.424,8.274,8.274,0,0,0,9.321,3.331c3.4-1,5.263-4.289,5.288-7.7a2.327,2.327,0,0,0-4.654,0q0,.291-.025.582c-.008.1-.031.2-.032.3,0-.71.068-.428.018-.206s-.089.422-.148.631c-.03.1-.063.211-.1.315-.072.21-.33.6.031-.037-.111.193-.194.407-.313.6-.059.1-.125.194-.187.292-.238.371.388-.432.082-.106-.16.174-.324.338-.5.5-.326.31.476-.308.089-.066-.142.086-.278.18-.426.259-.232.125-.436.079.084-.015-.132.039-.261.085-.388.137s-.272.078-.411.108l-.143.031q-.377.065.171-.013c.547-.078-.911.046-.99.043-.171,0-.34-.019-.511-.025-.265-.028-.219-.019.135.025-.1-.015-.2-.033-.305-.053-.291-.058-.564-.149-.846-.234-.476-.144.48.251.05.024-.116-.061-.235-.115-.348-.182s-.215-.136-.324-.2c-.4-.239.416.373.078.068-.207-.188-.4-.379-.587-.583-.3-.326.321.477.084.108-.061-.1-.126-.187-.184-.283a3.174,3.174,0,0,0-.306-.586c.278.262.179.491.077.155-.031-.1-.068-.2-.1-.3-.065-.227-.079-.479-.152-.7.188.561.054.521.043.277,0-.08-.012-.159-.015-.239a6.851,6.851,0,0,1,.013-.719c.009-.128.039-.266.036-.393.015.636-.048.33-.006.1a6.5,6.5,0,0,1,.224-.862c.039-.118.1-.233.13-.352-.185.628-.12.292-.026.106.111-.213.291-.412.388-.629-.209.473-.238.292-.055.089.082-.092.169-.181.258-.267s.2-.157.282-.247q-.46.347-.165.136.108-.073.218-.14c.113-.068.233-.125.348-.194.422-.24-.525.171-.053.018a8.345,8.345,0,0,1,.841-.241l.15-.029c.254-.043.2-.038-.149.011a1.526,1.526,0,0,1,.5-.04c.177-.007.353-.007.529,0,.115,0,.23.011.345.021.266.027.223.019-.127-.027.226-.081.809.166,1.033.238.263.085.368.274-.035-.036a4.3,4.3,0,0,0,.472.24c.111.064.214.137.323.2.338.212-.439-.387.01.021.088.081.173.165.255.253.411.445-.2-.337.008-.013.15.23.283.46.412.7.208.395-.194-.552-.053-.129.048.148.1.292.143.441.031.113.059.225.083.34.046.208.052.732.014-.046.014.271.046.538.048.811a2.327,2.327,0,1,0,4.654,0Z" transform="translate(-250.067 -6326.045)" fill="#211715"/>
          <path id="パス_773" data-name="パス 773" d="M405.841,6486.569c-1.048,4.92-2.452,9.774-3.864,14.6q-3.29,11.235-7.215,22.268c-4.857,13.629-9.814,27.225-15.048,40.719q-3.7,9.549-7.608,19.018a2.34,2.34,0,0,0,1.626,2.862,2.384,2.384,0,0,0,2.862-1.625q7.193-17.439,13.724-35.143c5.453-14.674,10.915-29.375,15.415-44.377,1.69-5.639,3.373-11.32,4.6-17.082.622-2.921-3.862-4.169-4.487-1.236Z" transform="translate(-250.702 -6322.413)" fill="#211715"/>
          <path id="パス_774" data-name="パス 774" d="M333.795,6486.4c-10.665,5.052-21.207,10.343-31.769,15.6-2.825,1.405-5.566,2.945-8.364,4.4-2.66,1.379-.309,5.4,2.348,4.019,2.5-1.3,4.938-2.692,7.465-3.946l7.3-3.627q8.394-4.167,16.809-8.289,4.274-2.084,8.569-4.129a2.348,2.348,0,0,0,.835-3.184,2.378,2.378,0,0,0-3.184-.834Z" transform="translate(-248.277 -6322.449)" fill="#211715"/>
          <path id="パス_775" data-name="パス 775" d="M356.86,6581.03c-7.756-11.445-29.322-48.445-32.36-53.15-1.435-2.223-2-3.452-1.85-4.363.22-1.347,5.324-4.571,5.586-4.75-1.041-1.471-6.89-8.416-11.136-13.337,4.177-5.737,14.745-14.841,22.317-18.495l1.2-.582.485,1.6c2.192,7.174,19.759,65.314,23.291,76.658,2.659,8.538,5.111,17.09,8.3,25.507Z" transform="translate(-249.027 -6322.456)" fill="#bdbdbd"/>
          <path id="パス_776" data-name="パス 776" d="M339.545,6488.549q4.117,13.477,8.176,26.971,5.786,19.1,11.592,38.193,1.822,5.974,3.664,11.942c1.745,5.612,3.409,11.247,5.257,16.825,1.782,5.382,4.009,10.626,5.459,16.112,3.662,13.857,1.615,28.049-.12,42.018-.849,6.839-1.735,13.4-2.78,20.263a147.421,147.421,0,0,1-2.634,14.593c-.077.3-.155.592-.246.884-.079.254-.427,1.115-.025.174a2.406,2.406,0,0,0,.835,3.185,2.342,2.342,0,0,0,3.183-.834c1.573-3.685,1.968-8,2.61-11.912,1.118-6.818,2.067-13.664,2.966-20.514.846-6.456,1.641-12.92,2.294-19.4a91.109,91.109,0,0,0,.134-20.667,72.566,72.566,0,0,0-3.806-15.63c-2.03-5.6-3.975-11.211-5.737-16.9q-2.689-8.683-5.344-17.376-5.663-18.53-11.264-37.081-4.639-15.31-9.279-30.619-.223-.733-.446-1.466c-.873-2.855-5.366-1.638-4.488,1.238Z" transform="translate(-249.708 -6322.437)" fill="#211715"/>
          <path id="パス_777" data-name="パス 777" d="M338.171,6484.87a64.8,64.8,0,0,0-12.9,8.83,62.051,62.051,0,0,0-10.251,10.5,2.357,2.357,0,0,0,.365,2.82q3.355,3.891,6.657,7.827,1.4,1.668,2.775,3.347c.336.41.667.826,1,1.24.1.124.49.491.053.063a2.994,2.994,0,0,1,.291.388l.835-3.183a27.84,27.84,0,0,0-5.5,4.208c-2.424,2.7-.6,5.667,1.038,8.261,1.773,2.8,3.441,5.665,5.138,8.509,6.114,10.25,12.194,20.522,18.421,30.706,2.829,4.627,5.653,9.271,8.694,13.767,1.669,2.467,5.7.141,4.019-2.349-5.828-8.611-11.079-17.635-16.421-26.55-4.995-8.332-9.889-16.727-14.954-25.013q-.436-.71-.873-1.413c-.425-.67-.858-1.336-1.232-2.036a6.131,6.131,0,0,1-.378-.828,2.255,2.255,0,0,1-.08-.31c-.063-.286-.034.388.028-.022a3.834,3.834,0,0,1-.16.658c.107-.353-.185.188-.008-.01.217-.242.448-.47.688-.69a15.152,15.152,0,0,1,1.44-1.163c.813-.595,1.654-1.147,2.494-1.7a2.352,2.352,0,0,0,.835-3.183c-3.48-4.842-7.612-9.3-11.5-13.808l.364,2.82a72.969,72.969,0,0,1,21.482-17.661,2.348,2.348,0,0,0,.835-3.183,2.376,2.376,0,0,0-3.183-.835Z" transform="translate(-248.955 -6322.402)" fill="#211715"/>
          <path id="パス_778" data-name="パス 778" d="M406.562,6488.888a72.949,72.949,0,0,1,21.482,17.662l.364-2.819c-3.888,4.509-8.021,8.966-11.5,13.808a2.361,2.361,0,0,0,.835,3.183c.7.461,1.4.919,2.078,1.4.946.673,1.6,1.48,2.607,2.222-.07-.052-.146-.308-.112-.129.057.292-.089-.36-.1-.422-.051-.28-.123,0,.008-.124.108-.1.025-.115-.019.075a6.789,6.789,0,0,1-.879,1.816c-.395.661-.821,1.3-1.227,1.959-1.9,3.078-3.739,6.2-5.592,9.308-5.954,9.992-11.885,20-17.959,29.917-2.688,4.39-5.375,8.792-8.26,13.056-1.683,2.486,2.347,4.818,4.018,2.349,6.078-8.981,11.543-18.4,17.112-27.7,4.928-8.229,9.717-16.554,14.779-24.7,1.384-2.23,3.752-5.267,2.1-7.941-1.37-2.216-4.079-3.7-6.2-5.1l.835,3.183a2.6,2.6,0,0,1,.291-.388c-.426.388-.053.07.053-.063.333-.414.664-.83,1-1.24q1.374-1.685,2.775-3.347,3.3-3.937,6.658-7.827a2.378,2.378,0,0,0,.364-2.821,62.007,62.007,0,0,0-10.25-10.5,64.781,64.781,0,0,0-12.9-8.83,2.386,2.386,0,0,0-3.183.834,2.346,2.346,0,0,0,.835,3.183Z" transform="translate(-251.186 -6322.403)" fill="#211715"/>
          <path id="パス_779" data-name="パス 779" d="M445.175,6510.339c-.712,8.75-1.885,17.465-3.079,26.159-1.648,11.965-3.434,23.911-5.235,35.854-1.957,12.971-3.944,25.937-5.878,38.914a54.464,54.464,0,0,0-.867,6.5c-.035,1.327.044,2.659.128,3.981.268,4.217.73,8.422,1.205,12.62,1.493,13.2,3.309,26.358,5.078,39.521l2.244-2.945H305.018c-2.994,0-3,4.654,0,4.654H438.771c1.673,0,2.44-1.479,2.243-2.945-1.575-11.72-3.172-23.44-4.557-35.184-.535-4.543-1.051-9.094-1.414-13.653-.121-1.518-.229-3.038-.27-4.557-.015-.539-.022-1.078,0-1.616.008-.225.036-.45.039-.673,0-.063.014-.128.018-.194-.086,1.183.1-.624.13-.837,3.706-25,7.68-49.952,11.177-74.976,1.422-10.18,2.86-20.377,3.693-30.622a2.348,2.348,0,0,0-2.327-2.327,2.375,2.375,0,0,0-2.327,2.327Z" transform="translate(-248.59 -6323.117)" fill="#211715"/>
          <path id="パス_780" data-name="パス 780" d="M290.073,6511.437c.72,8.869,1.916,17.7,3.121,26.514,1.612,11.794,3.374,23.568,5.15,35.338,1.956,12.972,3.943,25.937,5.878,38.911.229,1.539.448,3.079.685,4.615.194,1.234.012-.539.032.291.007.277.03.555.036.833.024,1.291-.049,2.583-.132,3.87-.264,4.123-.713,8.241-1.176,12.342-1.444,12.812-3.2,25.589-4.917,38.367a2.408,2.408,0,0,0,1.625,2.863,2.344,2.344,0,0,0,2.862-1.626c1.579-11.747,3.181-23.494,4.581-35.263.549-4.613,1.077-9.229,1.467-13.859a41.094,41.094,0,0,0,.27-7.91c-.719-6.435-1.906-12.852-2.875-19.255q-1.5-9.9-3-19.8c-1.828-12.071-3.649-24.141-5.345-36.232-1.4-9.966-2.792-19.959-3.608-29.993a2.387,2.387,0,0,0-2.327-2.328,2.346,2.346,0,0,0-2.327,2.328Z" transform="translate(-248.203 -6323.15)" fill="#211715"/>
          <path id="パス_781" data-name="パス 781" d="M395.118,6566.751c-35.954,15.037-82.184,34.2-119.044,49.62,10.688,25.557,31.441,75.1,38.572,92.156h.009c46.633-19.406,79.819-33.631,118.931-49.987-7.7-18.421-30.841-73.559-38.464-91.79Z" transform="translate(-247.776 -6324.909)" fill="#fff"/>
          <path id="パス_782" data-name="パス 782" d="M394.424,6564.436q-22.806,9.538-45.63,19.026l-48.013,19.99q-12.7,5.3-25.4,10.6c-1.042.435-2.158,1.587-1.625,2.862q7.681,18.371,15.373,36.736,8.123,19.41,16.249,38.815,2.972,7.1,5.942,14.2a15.382,15.382,0,0,0,1.423,3.2c.885,1.184,2.158.961,3.347.466l3.756-1.564q6.829-2.845,13.653-5.7,24.561-10.275,49.081-20.65,22.79-9.62,45.6-19.206l5.954-2.493c1.042-.436,2.159-1.587,1.625-2.863q-7.239-17.309-14.5-34.612l-17.437-41.591q-1.928-4.6-3.856-9.2-.8-1.911-1.6-3.824c-.63-1.506-1.088-3.537-2.7-4.185a2.341,2.341,0,0,0-2.862,1.625,2.384,2.384,0,0,0,1.625,2.863h0L392.8,6567.3q7.09,16.95,14.2,33.892l17.281,41.223,6.98,16.675,1.625-2.862q-22.208,9.288-44.378,18.67-22.727,9.6-45.47,19.16-14.535,6.1-29.085,12.157h1.228l1.625,1.627q-6.58-15.736-13.171-31.468-8.586-20.508-17.17-41.018-4.117-9.833-8.231-19.671l-1.625,2.863q23.128-9.671,46.275-19.294,23.917-9.955,47.832-19.914,12.472-5.2,24.937-10.408a2.4,2.4,0,0,0,1.625-2.863A2.341,2.341,0,0,0,394.424,6564.436Z" transform="translate(-247.701 -6324.836)" fill="#211715"/>
          <path id="パス_783" data-name="パス 783" d="M405.212,6658.926c-1.26-2.147-3.823-2.663-5.946-3.714-4.9-2.431-9.992-4.415-14.893-6.963-2.424-1.26-4.557-3.745-7.228-4.413-2.521-.631-6.159.015-8.726.271-4.61.46-11.739,1.865-16.214,1.269l-2.049-.419c-5.011,9.158-10.18,18.244-15.779,27.094a63.7,63.7,0,0,1,11.98,11.335c2.735,3.678,5.041,7.969,8.505,10.9,2.968,2.512,9.578,2.516,10.066,2.386,3.671-.969,10.511-2.3,11.988-5.567,2.848,1.133,4.756,1.779,6.75.389,2.194-1.536,2.968-2.929,2.346-4.945a7.227,7.227,0,0,0,5.526,2.258c3.214.038,7.271-2.465,7.271-6.079,0-3.091-3.623-6.942-5.41-9.376-2.011-2.742-5.242-6.414-7.623-9.7,2.839,2.01,6.749,2.036,10.009,3.247,3.037,1.124,5.9,2.207,8.64-.4A6.3,6.3,0,0,0,405.212,6658.926Z" transform="translate(-249.554 -6327.251)" fill="#fff"/>
          <path id="パス_784" data-name="パス 784" d="M352.695,6647.63c4.891.6,9.918-.512,14.76-1.1a61.606,61.606,0,0,1,7.627-.7c2.53.012,4.184,1.266,6.146,2.732a39.694,39.694,0,0,0,7.409,4.03c2.762,1.267,5.555,2.467,8.3,3.769,1.25.593,2.489,1.182,3.765,1.719a8.263,8.263,0,0,1,2.5,1.357,4.014,4.014,0,0,1,.532,4.8c-1.581,2.365-4.318,1.268-6.471.484-2.869-1.045-6.108-1.175-8.844-2.551-2.669-1.341-5.029,2.673-2.349,4.019,2.929,1.472,6.145,1.714,9.21,2.75,2.82.951,5.65,2.069,8.6.885,6.07-2.437,6.7-11.095,1.357-14.658a22.8,22.8,0,0,0-3.623-1.709c-1.484-.65-2.926-1.4-4.4-2.078-3.184-1.454-6.406-2.828-9.546-4.378a24.447,24.447,0,0,1-3.8-2.235,27.322,27.322,0,0,0-3.393-2.345c-2.821-1.485-5.914-1.346-8.994-1-3.131.348-6.25.769-9.376,1.164a38.54,38.54,0,0,1-9.417.4,2.342,2.342,0,0,0-2.327,2.328,2.382,2.382,0,0,0,2.327,2.326Z" transform="translate(-250.042 -6327.178)" fill="#211715"/>
          <path id="パス_785" data-name="パス 785" d="M385.7,6666c2.374,3.167,4.968,6.16,7.35,9.321,1.026,1.358,2.133,2.664,3.1,4.067a9.37,9.37,0,0,1,1.81,3.626c.271,2.491-2.951,4.043-4.94,4.037-3.035-.01-4.4-2.1-6.029-4.2a2.341,2.341,0,0,0-3.29,0,2.386,2.386,0,0,0,0,3.291c1.62,2.086,3.393,4.26,6.19,5.12a10.482,10.482,0,0,0,9.146-1.543c2.65-1.948,4.194-5.041,3.314-8.337-.838-3.134-3.172-5.664-5.1-8.166-2.479-3.211-5.1-6.316-7.533-9.562a2.4,2.4,0,0,0-3.183-.834A2.343,2.343,0,0,0,385.7,6666Z" transform="translate(-251.039 -6327.83)" fill="#211715"/>
          <path id="パス_786" data-name="パス 786" d="M383.64,6687.837c.2.661.263.873-.023,1.326a4.408,4.408,0,0,1-1.658,1.406c-1.349.652-3.232-.387-4.509-.895a2.329,2.329,0,0,0-2.628,1.067,2.563,2.563,0,0,1-1.014,1.2,12.4,12.4,0,0,1-1.868,1.016,30.806,30.806,0,0,1-4.726,1.519c-.747.193-1.5.378-2.249.568-.165.042-.339.075-.5.128-.543.175.153-.177.276,0a3.283,3.283,0,0,0-.485.023,18.679,18.679,0,0,1-3.473-.25,10.562,10.562,0,0,1-4.291-1.454,19.431,19.431,0,0,1-3.883-4.256c-2.38-3.266-4.46-6.7-7.231-9.664a64.76,64.76,0,0,0-10.424-9.086,2.349,2.349,0,0,0-3.184.834,2.374,2.374,0,0,0,.835,3.183,59.174,59.174,0,0,1,9.6,8.479c2.864,3.079,4.9,6.749,7.586,10.18a17.917,17.917,0,0,0,4.7,4.557,15.165,15.165,0,0,0,5.34,1.749,24.625,24.625,0,0,0,4.421.37,17.7,17.7,0,0,0,3.9-.806c3.684-.951,8.84-2.2,10.687-5.954l-2.628,1.066c2.885,1.141,5.961,1.991,8.715.026,2.585-1.843,4.175-4.363,3.2-7.588-.863-2.86-5.357-1.642-4.488,1.237Z" transform="translate(-249.466 -6328.062)" fill="#211715"/>
          <path id="パス_787" data-name="パス 787" d="M287.422,6601.4c5.83,3.044,56.064,35.2,62.15,38.707-6.261,11.537-12.7,23-19.9,34.052-8.784-4.065-36.691-19.4-54.765-31.974-7.839-5.452-18.461-12.044-23.462-22.184Z" transform="translate(-247.025 -6325.964)" fill="#bdbdbd"/>
          <path id="パス_788" data-name="パス 788" d="M286.108,6600.521c2.675,1.4,5.227,3.074,7.8,4.659q7.062,4.356,14.078,8.789c10.294,6.471,20.561,12.984,30.861,19.445,3.122,1.958,6.222,3.975,9.416,5.817l-.835-3.184c-6.274,11.556-12.728,23.022-19.9,34.052l3.183-.834c-4.654-2.16-9.172-4.621-13.67-7.077q-10.03-5.476-19.841-11.344c-6.779-4.051-13.492-8.228-20.006-12.694-6.16-4.224-12.544-8.322-17.761-13.724-5.176-5.357-8.919-12.014-7.665-19.667a65.44,65.44,0,0,1,3.543-11.849q1.968-5.343,3.85-10.717c4.751-13.648,9.45-27.314,14.386-40.9q1.655-4.557,3.366-9.088a73.853,73.853,0,0,1,4.04-9.39,22.57,22.57,0,0,1,4.608-5.9c.449-.434.9-.862,1.357-1.291.238-.226.5-.441.72-.679.258-.275-.459.292.11-.091,1.128-.761,2.289-1.464,3.474-2.134.623-.353,1.252-.7,1.891-1.021.231-.116.464-.226.7-.339.563-.278-.291.085.253-.1,2.828-.942,1.616-5.438-1.237-4.488a30.455,30.455,0,0,0-7.271,3.951,29.886,29.886,0,0,0-5.57,5.3c-4.33,5.13-6.4,11.809-8.713,18.008-5.225,14.027-10.092,28.189-15,42.33-.994,2.862-1.981,5.726-2.988,8.584-1.567,4.444-3.364,8.814-4.733,13.326a31.314,31.314,0,0,0-1.624,11.576,25.031,25.031,0,0,0,4.118,11.5c4.5,6.976,11.2,12.091,17.927,16.766,6.375,4.427,12.814,8.739,19.417,12.819,12.158,7.512,24.6,14.742,37.4,21.1.854.425,1.712.842,2.578,1.244a2.4,2.4,0,0,0,3.183-.834c7.168-11.031,13.622-22.5,19.9-34.053a2.368,2.368,0,0,0-.835-3.185c-7.5-4.326-14.736-9.157-22.056-13.775-10.257-6.472-20.5-12.967-30.81-19.352-3.059-1.895-6.1-3.906-9.284-5.58-2.65-1.39-5,2.626-2.349,4.019Z" transform="translate(-246.886 -6323.075)" fill="#211715"/>
          <path id="パス_789" data-name="パス 789" d="M426.536,6493.49a4.938,4.938,0,0,1,3.781,2.382l72.694,18.987c1.962-2.689,4.331-5.571,7.636-5.971a6.2,6.2,0,0,1,6.884,7.077,11.509,11.509,0,0,1-2.457,4.944q-1.552,2.1-3.25,4.088a5.483,5.483,0,0,1,4.312,2.3,7.467,7.467,0,0,1,1.163,4.911,10.351,10.351,0,0,1-.465,2.308,24.586,24.586,0,0,1-3.684,6.513l-3.535,4.981a11.024,11.024,0,0,1-3.472,3.583,4.509,4.509,0,0,1,2.251,2,6.923,6.923,0,0,1,.609,3.566,6.525,6.525,0,0,1-2.073,3.861,65.267,65.267,0,0,1-6.864,5.37,6.035,6.035,0,0,1-5.02.644,4.9,4.9,0,0,1-1.653-1.182l-66.9-41.107c-1.74-4.252-4.916-10.761-7.712-16.268-1.878-3.7-1.842-9.307,1.541-11.615A8.755,8.755,0,0,1,426.536,6493.49Z" transform="translate(-252.09 -6322.671)" fill="#fff"/>
          <path id="パス_790" data-name="パス 790" d="M421.642,6564.09c1.842-13.371,10.318-75.682,12.192-89.25A1.924,1.924,0,0,1,436,6473.19h.016c10.871,1.527,56.926,7.992,68.468,9.613a1.93,1.93,0,0,1,1.648,2.175h0c-3.576,25.772-9.113,65.665-12.377,89.008a1.93,1.93,0,0,1-2.176,1.649h0c-11.85-1.648-56.971-7.813-68.282-9.379a1.925,1.925,0,0,1-1.652-2.167Z" transform="translate(-252.215 -6322.055)" fill="#fff"/>
          <path id="パス_791" data-name="パス 791" d="M449.773,6521.671l-3.133-.446-1.507-.214-.718-.1c-.1-.014-.206-.025-.308-.043-.256-.046-.4-.194.067.083-.316-.186.146.131.16.162-.018-.043-.365-.371-.066-.035s-.037-.224.114.193.031-.038,0-.075c.024.034.055.616.062.238-.011.6-.057.4-.032.223.038-.257.076-.519.111-.783q.231-1.647.451-3.29l.076-.569c.015-.108-.011-.491.014-.088l-.022.179c.054-.179.041-.168-.039.034-.226.374.05,0,.056-.056,0,.035-.377.448-.118.194-.388.377-.333.235-.17.152q-.557.212-.21.1l.122-.027-.365.057c.186.01.173,0-.037-.021-.291-.142-.083-.013.067.008l.723.1,1.6.228c1.031.147,2.063.33,3.1.447.351.039-.154-.033-.194-.107,0,0,.188.121.212.127l-.282-.207c.122.135.113.118-.024-.049l-.109-.137c.117.21.092.135-.074-.227a2.018,2.018,0,0,0,.064.241c-.156-.26-.048-.517-.06-.239.037-.792,0-.01-.025.193l-.45,3.2c-.032.231-.063.462-.1.694-.012.082-.035.176-.042.259-.031.428.241-.43.047-.087-.217.389.3-.352.1-.136-.182.194.464-.29.126-.112.53-.275.353-.135.15-.087-.181.04-.079.024.306-.044a1.446,1.446,0,0,1-.26-.015,2.336,2.336,0,0,0-2.327,2.327,2.392,2.392,0,0,0,2.327,2.328,3.917,3.917,0,0,0,3.991-2.812,12.028,12.028,0,0,0,.235-1.524l.262-1.859.221-1.574a4.181,4.181,0,0,0-.469-2.873,3.987,3.987,0,0,0-2.138-1.689,10.632,10.632,0,0,0-1.883-.313l-3.862-.552a4.75,4.75,0,0,0-2.417.077,3.968,3.968,0,0,0-2.176,1.828,6.6,6.6,0,0,0-.554,2.346c-.013.1-.026.193-.039.29.1-.707.021-.163,0-.019q-.063.463-.127.928-.113.825-.231,1.648a5.558,5.558,0,0,0-.007,2.529,3.957,3.957,0,0,0,1.861,2.293,6.524,6.524,0,0,0,2.317.565q2.2.315,4.394.626a2.565,2.565,0,0,0,1.793-.235,2.363,2.363,0,0,0,1.066-1.39C451.649,6523.435,451.061,6521.854,449.773,6521.671Z" transform="translate(-252.77 -6323.266)" fill="#211715"/>
          <path id="パス_792" data-name="パス 792" d="M507.511,6516.449c1.565-2.141,3.856-5.252,6.894-4.834a3.89,3.89,0,0,1,3.178,2.751c.485,1.629-.239,3.113-1.118,4.459a65.048,65.048,0,0,1-16.268,16.482,2.4,2.4,0,0,0-.835,3.183,2.346,2.346,0,0,0,3.184.834,78.144,78.144,0,0,0,16.637-16.333c2.327-3.1,4.169-6.689,2.633-10.586a8.581,8.581,0,0,0-9.307-5.353c-4.038.614-6.754,3.939-9.017,7.042a2.343,2.343,0,0,0,.835,3.183,2.378,2.378,0,0,0,3.184-.834Z" transform="translate(-254.577 -6323.085)" fill="#211715"/>
          <path id="パス_793" data-name="パス 793" d="M507.326,6553.3a5.792,5.792,0,0,1,.833.455c-.248-.168.275.245.284.253.188.211.215.234.083.069a2.625,2.625,0,0,1,.214.388c-.139-.314.128.435.121.412a3.66,3.66,0,0,1,.212,1.465c0,.62.1-.212-.044.367-.023.1-.25.858-.16.624a4.121,4.121,0,0,1-1.4,1.883c-.456.4-.921.791-1.386,1.18q-.944.8-1.9,1.566c-.32.26-.643.513-.969.764.461-.359-.159.117-.244.18-.134.1-.27.2-.405.3a9.665,9.665,0,0,1-1.831,1.117c.055-.024-.443.158-.485.171-.174.056-.35.1-.528.144-.291.053-.356.068-.181.046a3.466,3.466,0,0,1-.8.009c.3.033-.953-.312-.232,0a2.406,2.406,0,0,0-3.184.835,2.343,2.343,0,0,0,.835,3.183,8.425,8.425,0,0,0,7.617-.72,30.427,30.427,0,0,0,3.774-2.794q1.6-1.285,3.149-2.627a8.789,8.789,0,0,0,3.023-6.1,7.368,7.368,0,0,0-4.046-7.184,2.4,2.4,0,0,0-3.184.835,2.345,2.345,0,0,0,.835,3.183Z" transform="translate(-254.453 -6324.368)" fill="#211715"/>
          <path id="パス_794" data-name="パス 794" d="M514.6,6528.254c2.627.312,3.155,3.534,2.691,5.623-.679,3.033-2.767,5.569-4.525,8.051-.981,1.386-1.952,2.778-2.944,4.154a6.858,6.858,0,0,1-2.547,2.5c-2.439,1.021-4.351-1.128-4.818-3.325-.624-2.928-5.111-1.688-4.488,1.238.883,4.145,4.574,7.391,8.919,6.909,4.731-.527,7.151-5.249,9.628-8.748,2.562-3.617,5.4-7.308,5.587-11.93a8.479,8.479,0,0,0-7.5-9.129,2.341,2.341,0,0,0-2.327,2.326,2.383,2.383,0,0,0,2.327,2.327Z" transform="translate(-254.541 -6323.593)" fill="#211715"/>
          <path id="パス_795" data-name="パス 795" d="M502.815,6544.26c.041-.105.082-.209.124-.313.112-.284.039-.014-.043.1a3.43,3.43,0,0,0,.266-.592c.188-.4.387-.8.6-1.194.388-.737.821-1.454,1.265-2.161.907-1.442,1.853-2.862,2.772-4.3a2.347,2.347,0,0,0-.835-3.183,2.379,2.379,0,0,0-3.184.834,56.18,56.18,0,0,0-5.451,9.572,2.332,2.332,0,0,0,.235,1.792,2.362,2.362,0,0,0,1.39,1.067,2.394,2.394,0,0,0,2.863-1.625Z" transform="translate(-254.552 -6323.858)" fill="#211715"/>
          <path id="パス_796" data-name="パス 796" d="M432.251,6494.622c-3.1-5.726-12.561-4.208-15.632.679a12.1,12.1,0,0,0-1.208,8.591c.608,3.267,2.589,6.265,4.035,9.21,1.648,3.356,3.3,6.726,4.718,10.185a2.4,2.4,0,0,0,2.862,1.625,2.341,2.341,0,0,0,1.625-2.862c-1.386-3.368-2.935-6.667-4.526-9.943q-1.313-2.7-2.668-5.391a14.216,14.216,0,0,1-1.559-4.063c-.388-2.281-.039-5.022,2.113-6.233a6.4,6.4,0,0,1,4.045-.737,4.517,4.517,0,0,1,1.376.467,1.623,1.623,0,0,1,.8.819c1.426,2.635,5.446.291,4.019-2.349Z" transform="translate(-252.016 -6322.596)" fill="#211715"/>
          <path id="パス_797" data-name="パス 797" d="M423.813,6564.636q1.614-11.7,3.2-23.4,2.318-16.99,4.634-33.984,1.9-13.918,3.8-27.838c.18-1.314.463-2.655.548-3.976.035-.546.177-.106-.064-.1-.178.008-.663-.029-.319.067a8.212,8.212,0,0,0,1.034.145l2.255.317,13.447,1.888,34.53,4.847,13.521,1.9,2.349.33c.306.044.612.1.919.13.515.058.283.222.169-.056-.231-.562-.1-.082-.156.321L502.324,6495q-3.14,22.633-6.287,45.264-1.5,10.761-3,21.523-.643,4.615-1.287,9.228c-.1.713-.24,1.433-.3,2.149,0,.046-.1.435-.088.449,4.9,3.878.041-.257.141-.261.272-.013.651.013.222-.076-.742-.154-1.518-.211-2.269-.315q-15.389-2.123-30.78-4.227-15.632-2.143-31.263-4.29l-2.254-.312c-.339-.046-.679-.087-1.018-.14a3.612,3.612,0,0,0-.617-.11c.315-.315.307,1.15.366.137.171-2.993-4.484-2.982-4.654,0a4.284,4.284,0,0,0,3.419,4.427c.714.144,1.454.2,2.178.3l5.923.815,16.385,2.248q17.508,2.4,35.015,4.8l6.234.859,2.235.308c2.172.3,4.3-.42,5.116-2.646a21.862,21.862,0,0,0,.709-4.363q.346-2.487.694-4.972l1.463-10.5q3.271-23.482,6.529-46.966,1.5-10.776,2.991-21.553c.3-2.175.425-4.377-1.693-5.72a7.076,7.076,0,0,0-2.949-.787l-5.6-.787-34.016-4.775-16.8-2.36-6.407-.9a26.528,26.528,0,0,0-5.343-.648,4.255,4.255,0,0,0-3.841,3.606c-.1.637-.176,1.276-.264,1.914q-.348,2.521-.692,5.048-.955,6.974-1.906,13.949-2.4,17.61-4.8,35.212-1.968,14.436-3.943,28.871-.273,2-.548,3.988a2.406,2.406,0,0,0,1.625,2.862A2.344,2.344,0,0,0,423.813,6564.636Z" transform="translate(-252.142 -6321.982)" fill="#211715"/>
          <path id="パス_798" data-name="パス 798" d="M487.608,6527.063l-3.133-.447-1.506-.214-.718-.1c-.1-.014-.207-.025-.309-.043-.256-.045-.4-.194.068.084-.317-.187.146.129.16.16-.019-.042-.365-.37-.067-.034s-.037-.224.115.193.03-.039,0-.076c.023.034.054.616.061.238-.011.6-.056.4-.031.223.037-.261.075-.52.111-.781q.233-1.648.451-3.3.039-.285.077-.567c.014-.11-.012-.491.013-.09l-.021.179q.08-.269-.039.034c-.227.374.05,0,.055-.056,0,.035-.377.45-.118.194-.388.377-.333.237-.169.152q-.558.211-.211.1l.122-.027-.365.057q.278.013-.038-.022c-.291-.141-.083-.012.068.011l.723.1,1.6.229c1.031.148,2.064.329,3.1.447.35.04-.154-.034-.194-.107,0,0,.188.121.213.127l-.283-.207q.183.2-.023-.049l-.109-.138c.117.21.093.134-.074-.226a2.23,2.23,0,0,0,.063.239c-.156-.258-.047-.517-.059-.238.036-.791,0-.009-.026.193l-.449,3.2c-.033.232-.064.464-.1.694-.013.083-.036.176-.042.26-.031.427.241-.432.048-.087-.217.387.3-.351.1-.137-.182.194.463-.29.125-.113.531-.275.353-.135.151-.085-.182.039-.081.024.305-.045a1.392,1.392,0,0,1-.259-.016,2.336,2.336,0,0,0-2.327,2.326,2.391,2.391,0,0,0,2.327,2.328,3.917,3.917,0,0,0,3.989-2.812,11.829,11.829,0,0,0,.236-1.523l.261-1.86.221-1.574a4.183,4.183,0,0,0-.469-2.874,3.98,3.98,0,0,0-2.138-1.689,10.634,10.634,0,0,0-1.883-.314l-3.861-.552a4.751,4.751,0,0,0-2.417.077,3.958,3.958,0,0,0-2.176,1.829,6.611,6.611,0,0,0-.555,2.344c-.013.1-.025.195-.039.292.1-.707.022-.163,0-.02-.043.309-.084.619-.127.928q-.115.827-.232,1.648a5.589,5.589,0,0,0-.007,2.53,3.953,3.953,0,0,0,1.862,2.292,6.536,6.536,0,0,0,2.317.566l4.393.625a2.562,2.562,0,0,0,1.794-.233,2.374,2.374,0,0,0,1.066-1.392C489.483,6528.825,488.9,6527.245,487.608,6527.063Z" transform="translate(-253.924 -6323.431)" fill="#211715"/>
          <path id="パス_799" data-name="パス 799" d="M468.863,6524.425l-3.132-.446-1.506-.214-.718-.1c-.1-.015-.207-.026-.309-.043-.256-.047-.4-.194.067.083-.316-.187.146.13.161.161-.019-.042-.365-.37-.067-.034s-.037-.224.115.194.03-.039,0-.075c.023.033.054.615.061.237-.011.6-.057.4-.031.224.037-.261.075-.522.11-.782q.233-1.648.451-3.291c.026-.193.051-.379.076-.569.015-.107-.011-.485.014-.088l-.021.179c.053-.179.041-.168-.039.034-.227.373.05,0,.055-.056,0,.034-.377.449-.118.194-.388.377-.333.235-.169.152q-.558.212-.211.1l.122-.026-.365.057q.278.014-.038-.021c-.291-.142-.083-.013.068.008l.722.1,1.6.228c1.031.147,2.064.33,3.1.447.35.04-.154-.033-.194-.107,0,0,.188.121.213.127l-.283-.207q.183.2-.023-.049l-.109-.138q.176.317-.074-.226a2.053,2.053,0,0,0,.063.239c-.156-.259-.047-.517-.06-.239.037-.791,0-.009-.025.194l-.45,3.2c-.032.232-.063.463-.1.7-.013.082-.036.175-.042.259-.032.428.241-.431.047-.086-.217.388.3-.352.1-.137-.182.194.463-.291.125-.112.531-.276.353-.136.151-.087q-.273.059.305-.044a1.543,1.543,0,0,1-.26-.017,2.336,2.336,0,0,0-2.327,2.328,2.392,2.392,0,0,0,2.327,2.327,3.918,3.918,0,0,0,3.99-2.812,11.894,11.894,0,0,0,.236-1.524l.261-1.86.221-1.574a4.181,4.181,0,0,0-.469-2.873,3.982,3.982,0,0,0-2.138-1.689,10.588,10.588,0,0,0-1.883-.314l-3.861-.552a4.75,4.75,0,0,0-2.417.077,3.957,3.957,0,0,0-2.176,1.828,6.6,6.6,0,0,0-.555,2.345c-.013.1-.025.194-.039.292.1-.708.022-.163,0-.02-.043.31-.084.619-.127.927q-.115.827-.232,1.649a5.582,5.582,0,0,0-.007,2.529,3.955,3.955,0,0,0,1.862,2.294,6.535,6.535,0,0,0,2.317.565l4.393.626a2.565,2.565,0,0,0,1.794-.235,2.371,2.371,0,0,0,1.066-1.39C470.739,6526.192,470.153,6524.611,468.863,6524.425Z" transform="translate(-253.352 -6323.351)" fill="#211715"/>
          <path id="パス_800" data-name="パス 800" d="M447.469,6538.753l-3.133-.446-1.507-.214-.718-.1c-.1-.015-.207-.025-.308-.044-.256-.046-.4-.194.067.084-.316-.186.146.129.161.16-.019-.042-.366-.37-.067-.034s-.037-.224.114.195.031-.04.006-.076c.023.034.054.616.061.237-.011.6-.057.4-.031.224l.111-.782q.233-1.647.451-3.292l.076-.567c.015-.109-.011-.491.014-.09l-.022.179c.054-.179.041-.167-.039.034-.226.374.05,0,.056-.056,0,.035-.377.45-.118.194-.388.377-.334.236-.169.151q-.558.211-.211.1l.122-.027-.366.057q.279.013-.037-.021c-.291-.142-.083-.013.068.009l.722.1,1.6.229c1.031.147,2.064.328,3.1.447.35.04-.155-.034-.194-.108,0,0,.188.122.212.127l-.282-.207q.183.2-.024-.049l-.109-.138c.117.212.093.136-.073-.226a1.789,1.789,0,0,0,.063.239c-.156-.257-.047-.516-.06-.238.037-.79,0-.01-.025.194l-.45,3.2c-.032.232-.063.463-.1.694-.013.082-.036.176-.043.26-.031.428.241-.431.048-.087-.216.388.3-.351.1-.136-.182.194.464-.291.126-.113.53-.275.353-.134.151-.085q-.273.059.305-.044a1.5,1.5,0,0,1-.26-.015,2.334,2.334,0,0,0-2.327,2.327,2.392,2.392,0,0,0,2.327,2.327,3.919,3.919,0,0,0,3.991-2.812,12.053,12.053,0,0,0,.235-1.523l.262-1.86.221-1.574a4.183,4.183,0,0,0-.469-2.874,3.986,3.986,0,0,0-2.138-1.688,10.589,10.589,0,0,0-1.883-.314l-3.861-.552a4.76,4.76,0,0,0-2.418.077,3.962,3.962,0,0,0-2.185,1.83,6.575,6.575,0,0,0-.555,2.344c-.013.1-.026.193-.039.291.1-.707.022-.163,0-.02q-.062.467-.127.928-.113.826-.231,1.648a5.586,5.586,0,0,0-.007,2.53,3.949,3.949,0,0,0,1.862,2.292,6.5,6.5,0,0,0,2.317.566l4.393.626a2.562,2.562,0,0,0,1.794-.234,2.378,2.378,0,0,0,1.066-1.391C449.345,6540.517,448.758,6538.937,447.469,6538.753Z" transform="translate(-252.7 -6323.788)" fill="#211715"/>
          <path id="パス_801" data-name="パス 801" d="M485.219,6544.06l-3.133-.447-1.506-.214-.718-.1c-.1-.013-.206-.024-.308-.043-.256-.045-.4-.193.067.083-.316-.185.146.131.16.162-.019-.043-.365-.37-.067-.034s-.037-.224.115.194.03-.041,0-.076c.023.033.055.616.062.238-.011.6-.057.4-.032.224.038-.257.076-.518.112-.782q.231-1.647.451-3.291l.076-.568c.014-.108-.011-.491.014-.089l-.022.18c.053-.181.041-.169-.039.033-.226.375.05.006.055-.056,0,.036-.376.451-.117.194-.388.377-.333.235-.17.152q-.557.21-.21.1l.122-.027-.366.056c.185.01.174,0-.037-.02-.291-.143-.083-.012.067.01l.723.1,1.6.228c1.032.148,2.064.331,3.1.447.351.04-.154-.033-.194-.107a2.47,2.47,0,0,0,.213.127l-.282-.206q.182.2-.024-.049l-.109-.139q.176.317-.074-.226a2.067,2.067,0,0,0,.064.24c-.156-.258-.047-.517-.06-.239.036-.791,0-.01-.025.193l-.45,3.2c-.033.232-.064.463-.1.695-.012.081-.036.176-.042.259-.031.428.241-.43.047-.086-.217.387.3-.352.1-.137-.182.195.464-.29.125-.112.531-.276.353-.135.151-.086q-.272.058.306-.044a1.45,1.45,0,0,1-.26-.015,2.333,2.333,0,0,0-2.327,2.325,2.391,2.391,0,0,0,2.327,2.328,3.916,3.916,0,0,0,3.99-2.812,11.91,11.91,0,0,0,.236-1.524l.261-1.86q.112-.786.222-1.575a4.18,4.18,0,0,0-.469-2.872,3.973,3.973,0,0,0-2.139-1.688,10.544,10.544,0,0,0-1.883-.314l-3.861-.552a4.745,4.745,0,0,0-2.417.077,3.96,3.96,0,0,0-2.175,1.827,6.591,6.591,0,0,0-.554,2.345c-.014.1-.026.193-.039.291.1-.707.021-.162,0-.018-.042.309-.084.619-.127.928q-.113.826-.232,1.647a5.578,5.578,0,0,0-.006,2.531,3.957,3.957,0,0,0,1.862,2.292,6.537,6.537,0,0,0,2.317.567q2.2.311,4.394.624a2.557,2.557,0,0,0,1.793-.233,2.365,2.365,0,0,0,1.066-1.391C487.094,6545.822,486.508,6544.241,485.219,6544.06Z" transform="translate(-253.851 -6323.949)" fill="#211715"/>
          <path id="パス_802" data-name="パス 802" d="M466.475,6541.426l-3.133-.446-1.506-.214-.718-.1c-.1-.014-.207-.025-.308-.043-.256-.045-.4-.193.067.083-.316-.186.146.13.16.161-.019-.042-.365-.37-.067-.035s-.037-.224.115.194.03-.039,0-.074c.023.033.055.615.062.237-.011.6-.057.4-.032.224.038-.258.076-.519.111-.782q.231-1.648.451-3.3l.076-.567c.014-.107-.011-.491.014-.089l-.022.18q.08-.27-.039.033c-.226.374.05,0,.055-.056,0,.034-.376.45-.117.193-.388.378-.333.236-.17.151q-.557.211-.21.1l.122-.028-.366.058c.185.009.174,0-.037-.021-.291-.141-.083-.013.067.01l.723.1,1.6.229c1.032.147,2.064.329,3.1.446.351.04-.154-.033-.194-.107,0,0,.188.122.213.128l-.282-.208c.121.134.113.117-.024-.049l-.109-.137c.117.211.092.137-.074-.226a1.976,1.976,0,0,0,.064.239c-.156-.258-.047-.516-.06-.239.036-.79,0-.009-.026.195l-.449,3.2c-.033.231-.064.463-.1.694-.012.082-.036.175-.042.259-.031.428.241-.431.048-.087-.217.388.3-.351.1-.136-.182.194.464-.291.125-.114.531-.275.353-.134.151-.085-.181.039-.079.025.306-.044a1.548,1.548,0,0,1-.26-.015,2.334,2.334,0,0,0-2.327,2.327,2.391,2.391,0,0,0,2.327,2.327,3.917,3.917,0,0,0,3.99-2.812,11.886,11.886,0,0,0,.236-1.524l.261-1.859c.074-.525.149-1.05.222-1.574a4.182,4.182,0,0,0-.469-2.874,3.975,3.975,0,0,0-2.139-1.688,10.459,10.459,0,0,0-1.883-.315l-3.861-.551a4.729,4.729,0,0,0-2.417.077,3.959,3.959,0,0,0-2.176,1.828,6.593,6.593,0,0,0-.554,2.344c-.014.1-.026.194-.039.291.1-.707.021-.163,0-.02q-.062.466-.127.928-.113.827-.232,1.649a5.586,5.586,0,0,0-.007,2.529,3.955,3.955,0,0,0,1.862,2.292,6.515,6.515,0,0,0,2.317.566l4.394.626a2.56,2.56,0,0,0,1.793-.234,2.363,2.363,0,0,0,1.066-1.391C468.35,6543.188,467.764,6541.608,466.475,6541.426Z" transform="translate(-253.279 -6323.87)" fill="#211715"/>
          <path id="パス_803" data-name="パス 803" d="M445.081,6555.75l-3.133-.447-1.506-.214-.718-.1c-.1-.014-.208-.025-.309-.043-.256-.045-.4-.194.068.083-.317-.186.146.13.16.162-.019-.043-.365-.37-.067-.034s-.037-.225.115.194.03-.039,0-.076c.023.033.054.616.061.238-.011.6-.056.4-.031.223.038-.257.076-.518.112-.782q.231-1.648.45-3.3c.026-.188.052-.378.077-.568.014-.108-.012-.491.013-.088l-.021.18c.053-.181.041-.169-.039.032-.227.375.05.006.055-.056,0,.035-.377.451-.118.194-.388.377-.333.235-.169.152q-.558.21-.211.1l.123-.029-.366.057c.185.011.173,0-.037-.021-.291-.142-.084-.011.067.009l.723.1,1.6.229c1.032.147,2.064.329,3.1.447.35.04-.154-.035-.194-.107,0,0,.188.122.213.127l-.282-.207c.121.133.113.117-.024-.05l-.109-.138c.117.211.092.136-.074-.227a2.051,2.051,0,0,0,.064.241c-.157-.259-.047-.517-.06-.239.036-.791,0-.01-.026.194l-.449,3.2c-.033.232-.064.463-.1.7-.013.081-.036.175-.042.259-.031.427.241-.431.048-.086-.217.387.3-.352.1-.137-.182.193.464-.291.125-.113.531-.276.353-.135.151-.086q-.273.059.305-.044a1.486,1.486,0,0,1-.259-.016,2.333,2.333,0,0,0-2.327,2.327,2.391,2.391,0,0,0,2.327,2.327,3.916,3.916,0,0,0,3.99-2.812,11.9,11.9,0,0,0,.236-1.524l.261-1.859c.074-.523.147-1.049.221-1.575a4.18,4.18,0,0,0-.469-2.873,3.967,3.967,0,0,0-2.133-1.688,10.5,10.5,0,0,0-1.883-.314l-3.861-.552a4.75,4.75,0,0,0-2.417.077,3.957,3.957,0,0,0-2.176,1.828,6.613,6.613,0,0,0-.555,2.344c-.013.1-.025.194-.039.291.1-.707.022-.162,0-.019-.043.31-.084.619-.127.928q-.115.826-.232,1.647a5.589,5.589,0,0,0-.007,2.53,3.959,3.959,0,0,0,1.862,2.292,6.516,6.516,0,0,0,2.317.566q2.2.314,4.394.625a2.557,2.557,0,0,0,1.793-.234,2.365,2.365,0,0,0,1.066-1.39C446.956,6557.512,446.37,6555.932,445.081,6555.75Z" transform="translate(-252.627 -6324.305)" fill="#211715"/>
          <path id="パス_804" data-name="パス 804" d="M482.83,6561.055l-3.132-.445-1.507-.215-.718-.1c-.1-.014-.207-.026-.308-.043-.256-.047-.4-.193.067.083-.316-.187.146.13.16.16-.018-.042-.365-.37-.066-.034s-.037-.225.114.193.031-.039,0-.076c.024.035.055.617.062.238-.011.6-.057.4-.032.224q.057-.387.112-.782.233-1.649.451-3.291l.076-.569c.014-.108-.011-.485.014-.088l-.022.179c.054-.179.041-.168-.039.035-.226.374.05,0,.056-.056,0,.035-.377.449-.118.193-.388.378-.333.237-.17.153q-.557.211-.21.1l.122-.028-.366.057q.279.013-.037-.021c-.291-.141-.083-.012.068.01l.722.1,1.6.228c1.031.147,2.064.33,3.1.446.35.042-.155-.033-.194-.106,0,0,.188.121.212.127l-.282-.207c.122.134.113.117-.024-.049l-.109-.138c.117.21.092.134-.074-.226a2,2,0,0,0,.064.239c-.156-.258-.048-.517-.06-.238.037-.792,0-.009-.025.193l-.45,3.2c-.032.231-.063.464-.1.695-.012.083-.035.176-.042.259-.031.429.241-.43.047-.085-.216.387.3-.353.1-.138-.182.194.464-.291.126-.112.53-.275.353-.134.151-.086-.182.04-.08.024.305-.043a1.6,1.6,0,0,1-.26-.017,2.336,2.336,0,0,0-2.327,2.327,2.389,2.389,0,0,0,2.327,2.327,3.916,3.916,0,0,0,3.99-2.812,12.026,12.026,0,0,0,.235-1.523l.262-1.859.221-1.574a4.185,4.185,0,0,0-.469-2.874,3.985,3.985,0,0,0-2.133-1.688,10.725,10.725,0,0,0-1.883-.314l-3.861-.551a4.754,4.754,0,0,0-2.418.077,3.964,3.964,0,0,0-2.176,1.828,6.6,6.6,0,0,0-.554,2.345c-.013.1-.026.194-.039.291.1-.707.021-.163,0-.02q-.063.466-.127.928-.113.825-.231,1.647a5.59,5.59,0,0,0-.007,2.53,3.952,3.952,0,0,0,1.861,2.292,6.516,6.516,0,0,0,2.317.566l4.394.626a2.562,2.562,0,0,0,1.793-.234,2.376,2.376,0,0,0,1.066-1.392C484.706,6562.818,484.119,6561.238,482.83,6561.055Z" transform="translate(-253.778 -6324.468)" fill="#211715"/>
          <path id="パス_805" data-name="パス 805" d="M464.086,6558.425l-3.132-.448-1.507-.214-.718-.1c-.1-.016-.206-.026-.308-.044-.256-.045-.4-.193.067.084-.316-.186.146.13.16.161-.018-.042-.365-.37-.066-.035s-.037-.224.114.2.031-.04,0-.076c.024.033.055.616.062.237-.011.6-.057.4-.032.224q.057-.387.111-.782.231-1.647.451-3.292l.076-.568c.015-.107-.011-.49.014-.088l-.022.18c.054-.18.041-.169-.039.033-.226.374.05.005.056-.056,0,.035-.377.45-.118.193-.388.377-.333.236-.17.153q-.557.209-.21.1l.122-.028-.366.059q.279.014-.037-.023c-.291-.141-.083-.012.068.01l.722.1,1.6.229c1.031.147,2.063.329,3.1.446.351.041-.154-.034-.194-.106,0,0,.188.122.212.127l-.282-.207c.122.133.113.116-.024-.049l-.109-.139q.176.319-.074-.226a2.018,2.018,0,0,0,.064.24c-.156-.259-.048-.517-.06-.238.037-.791,0-.009-.025.194l-.45,3.2c-.032.231-.063.463-.1.7-.012.082-.035.175-.042.259-.031.428.241-.431.047-.086-.217.388.3-.352.1-.137-.182.194.464-.291.126-.112.53-.276.353-.136.151-.086-.182.039-.08.024.305-.045a1.493,1.493,0,0,1-.26-.016,2.333,2.333,0,0,0-2.327,2.327,2.392,2.392,0,0,0,2.327,2.327,3.919,3.919,0,0,0,3.991-2.812,12.1,12.1,0,0,0,.235-1.524l.262-1.86q.111-.784.221-1.575a4.181,4.181,0,0,0-.469-2.873,3.985,3.985,0,0,0-2.133-1.688,10.678,10.678,0,0,0-1.883-.314l-3.862-.552a4.756,4.756,0,0,0-2.417.077,3.968,3.968,0,0,0-2.176,1.828,6.594,6.594,0,0,0-.554,2.344c-.013.1-.026.194-.039.291.1-.706.021-.162,0-.019q-.063.464-.127.928-.114.826-.231,1.648a5.554,5.554,0,0,0-.007,2.529,3.957,3.957,0,0,0,1.861,2.293,6.505,6.505,0,0,0,2.317.566q2.2.313,4.394.625a2.557,2.557,0,0,0,1.793-.235,2.363,2.363,0,0,0,1.066-1.391C465.962,6560.184,465.375,6558.6,464.086,6558.425Z" transform="translate(-253.207 -6324.387)" fill="#211715"/>
          <path id="パス_806" data-name="パス 806" d="M491.377,6506.495c-.1.731-.179,1.376-.246,1.885a1.593,1.593,0,0,1-1.78,1.382l-.027,0c-8.991-1.242-35.872-4.848-43.769-5.937a1.6,1.6,0,0,1-1.379-1.8v-.01c.534-3.888,1.584-11.8,1.848-13.346l11.679,1.54c11.666,1.637,27.516,3.824,33.582,4.677a1.6,1.6,0,0,1,1.372,1.8C492.385,6498.764,491.782,6503.394,491.377,6506.495Z" transform="translate(-252.902 -6322.527)" fill="#79c6e0"/>
          <path id="パス_807" data-name="パス 807" d="M490.258,6496.607c-.372,3.555-.855,7.092-1.367,10.628-.1.679-.231.4.377.165.406-.161.592.071.273-.006-.109-.025-.232-.032-.343-.047l-1.824-.25-4.078-.556q-10.664-1.454-21.329-2.887-4.952-.669-9.9-1.34l-3.8-.516-1.562-.214c-.1-.013-.537-.138-.6-.081-.1.1.228.346.291.456q-.047.726.011.225l.083-.618c.485-3.624.9-7.254,1.379-10.878a2.507,2.507,0,0,0,.091-.688c.137.618-3.1-.047-1.375.838a3.8,3.8,0,0,0,1.089.152l2.651.369q2.986.413,5.97.82c9.248,1.266,18.5,2.506,27.741,3.811a2.406,2.406,0,0,0,2.863-1.624,2.345,2.345,0,0,0-1.626-2.863c-9.125-1.288-18.259-2.513-27.389-3.763q-3.162-.434-6.322-.872c-1.939-.27-4.86-1.231-6.61-.113-1.981,1.26-1.794,4.343-2.057,6.429-.269,2.133-.532,4.271-.8,6.407-.055.438-.112.872-.169,1.314-.019.149-.039.3-.059.451.084-.64-.038.29-.036.271a3.929,3.929,0,0,0,1.759,3.825c1.142.727,2.715.73,4.027.91q4.912.667,9.826,1.331l23.85,3.226,5.165.705c2.23.3,4.708.915,6.216-1.292a6.861,6.861,0,0,0,.9-3.043c.189-1.262.359-2.532.524-3.8.3-2.292.582-4.587.824-6.884a2.34,2.34,0,0,0-2.327-2.326,2.379,2.379,0,0,0-2.327,2.326Z" transform="translate(-252.83 -6322.452)" fill="#211715"/>
          <path id="パス_808" data-name="パス 808" d="M395.377,6426.325c7.557.219,16.122.01,20.836-6.89,3.527-5.164,4.258-14.222-.746-18.745a7.951,7.951,0,0,0-3.061-1.26q-1.438-.434-2.9-.775a50.408,50.408,0,0,0-6.353-1.026,45.164,45.164,0,0,0-12.476.53c-3.537.638-7.766,1.348-9.8,4.625a14.019,14.019,0,0,0-1.842,8.17,17.31,17.31,0,0,0,5.019,11.2c3.042,2.812,7.263,4.013,11.327,4.168,2.995.117,2.99-4.538,0-4.654-3.1-.121-6.5-1.041-8.636-3.416a12.687,12.687,0,0,1-3.039-9.541,11.253,11.253,0,0,1,.729-2.725c.664-1.487,1.124-1.675,2.618-2.144a39.261,39.261,0,0,1,12.434-1.772,43.825,43.825,0,0,1,13.72,2.505l-1.027-.6c3.345,3.438,2.565,9.754-.164,13.367-3.766,4.981-11.094,4.485-16.634,4.323C392.382,6421.583,392.385,6426.237,395.377,6426.325Z" transform="translate(-250.915 -6319.745)" fill="#211715"/>
          <path id="パス_809" data-name="パス 809" d="M336.013,6404.575a42.759,42.759,0,0,1,20.006-2.143,38.833,38.833,0,0,1,5.1,1.092,11.963,11.963,0,0,1,2.5.8c-.03-.016.426.388.478.455a8.814,8.814,0,0,1,1.47,5.429,13.071,13.071,0,0,1-2.869,7.785,11.134,11.134,0,0,1-7.02,3.513,39.17,39.17,0,0,1-9.38.087c-2.807-.26-5.853-1.059-7.963-3.028-3.684-3.438-5.027-10.754-1.293-14.591,2.089-2.149-1.2-5.442-3.29-3.291-4.709,4.84-4.447,13.172-.835,18.614,4.564,6.873,13.031,7.265,20.509,7.035a18.71,18.71,0,0,0,10.193-2.955,16.076,16.076,0,0,0,6-9.032,15.661,15.661,0,0,0-.187-9.17,10.143,10.143,0,0,0-2.208-3.85c-1.3-1.319-3.137-1.8-4.867-2.288a46.231,46.231,0,0,0-27.581,1.05,2.386,2.386,0,0,0-1.626,2.863A2.348,2.348,0,0,0,336.013,6404.575Z" transform="translate(-249.427 -6319.745)" fill="#211715"/>
          <path id="パス_810" data-name="パス 810" d="M371.469,6411.678c.465-.232-.552.194-.037.01.162-.059.328-.111.493-.159.351-.1.708-.165,1.066-.228.172-.031.511-.032-.194.021.083-.006.167-.02.25-.029.212-.023.426-.042.64-.056.44-.03.882-.043,1.323-.04.422,0,.842.018,1.26.05.216.017.432.037.649.062.17.019.519.1-.175-.029.081.016.165.024.247.037.388.062.776.138,1.155.237.156.04.31.084.464.134.194.064.847.339.039-.011a2.539,2.539,0,0,0,1.793.235,2.325,2.325,0,0,0,.557-4.25,15.25,15.25,0,0,0-5.992-1.117,13,13,0,0,0-5.892,1.117,2.343,2.343,0,0,0-.835,3.183,2.384,2.384,0,0,0,3.184.834Z" transform="translate(-250.579 -6320.022)" fill="#211715"/>
          <path id="パス_811" data-name="パス 811" d="M421.527,6409.084c.08-.036.16-.07.24-.1l-.556.234a22.113,22.113,0,0,1,4.389-1.386,2.325,2.325,0,0,0,.556-4.25h0a2.6,2.6,0,0,0-1.793-.233,23.792,23.792,0,0,0-5.184,1.724,2.329,2.329,0,0,0-1.066,1.391,2.377,2.377,0,0,0,.235,1.793,2.345,2.345,0,0,0,1.39,1.066l.619.084a2.322,2.322,0,0,0,1.174-.318Z" transform="translate(-252.105 -6319.923)" fill="#211715"/>
          <path id="パス_812" data-name="パス 812" d="M330.446,6405.065a23.8,23.8,0,0,0-5.185-1.726,2.5,2.5,0,0,0-1.793.234,2.329,2.329,0,0,0-.836,3.184h0a2.286,2.286,0,0,0,1.39,1.065,22.21,22.21,0,0,1,4.389,1.387l-.556-.234c.08.034.16.069.239.1a1.733,1.733,0,0,0,.865.276,1.751,1.751,0,0,0,.928-.041,2.373,2.373,0,0,0,1.391-1.067,2.348,2.348,0,0,0,.235-1.792,2.265,2.265,0,0,0-1.066-1.391Z" transform="translate(-249.186 -6319.922)" fill="#211715"/>
          <path id="パス_813" data-name="パス 813" d="M365.46,6447.674a20.345,20.345,0,0,0,9.8,2.263c3.49-.022,7.041-.7,9.839-2.88a2.337,2.337,0,0,0,0-3.29,2.387,2.387,0,0,0-3.291,0c.691-.539.1-.089-.077.025a6.9,6.9,0,0,1-.615.355c-.148.078-.873.379-.285.156-.281.107-.56.215-.846.308a14.413,14.413,0,0,1-5.041.673,14.974,14.974,0,0,1-4.812-.647c-.31-.1-.613-.2-.919-.309-.1-.034-.194-.086-.291-.116.575.167.174.078.02.005-.38-.179-.754-.365-1.126-.561a2.377,2.377,0,0,0-3.183.835,2.351,2.351,0,0,0,.835,3.183Z" transform="translate(-250.468 -6321.138)" fill="#211715"/>
          <path id="パス_814" data-name="パス 814" d="M374.448,6423.761a46.744,46.744,0,0,1,1.1,5.015l-.082-.618a3.062,3.062,0,0,1,.018.692l.083-.619a1.625,1.625,0,0,1-.077.312l.235-.556a1.182,1.182,0,0,1-.11.2l.364-.472a1.01,1.01,0,0,1-.164.162l.471-.364a3.092,3.092,0,0,1-.4.21l.556-.234a2.984,2.984,0,0,1-.67.193l.619-.083a2.651,2.651,0,0,1-.628,0l.619.083c-.238-.034-.47-.091-.707-.123a2.579,2.579,0,0,0-1.793.234,2.328,2.328,0,0,0-.836,3.183h0a2.228,2.228,0,0,0,1.39,1.067c.518.07,1.02.2,1.546.225a4.867,4.867,0,0,0,2.251-.531,3.2,3.2,0,0,0,1.787-2.114,5.394,5.394,0,0,0-.023-2.3c-.273-1.617-.647-3.217-1.066-4.8a2.327,2.327,0,1,0-4.487,1.237h0Z" transform="translate(-250.724 -6320.458)" fill="#211715"/>
          <path id="パス_815" data-name="パス 815" d="M346.894,6409.142c-.838,2.721-.291,8.982,4.865,9.516,6.816-.041,7.174-7.61,4.884-11.17C354.764,6404.573,349.241,6403.362,346.894,6409.142Z" transform="translate(-249.926 -6319.977)" fill="#211715"/>
          <path id="パス_816" data-name="パス 816" d="M402.851,6409.142c.838,2.721.291,8.984-4.864,9.516-6.816-.041-7.174-7.61-4.884-11.171C394.981,6404.573,400.5,6403.362,402.851,6409.142Z" transform="translate(-251.307 -6319.977)" fill="#211715"/>
        </g>
      </g>
      <g id="グループ_39" data-name="グループ 39" transform="translate(0 78.376)">
        <path id="パス_817" data-name="パス 817" d="M178.492,6392.478a37.989,37.989,0,0,1-6.772,12.264,31.553,31.553,0,0,1-10.5,8.212,30.667,30.667,0,0,1-13.6,2.986,31.119,31.119,0,0,1-13.6-2.933,30.419,30.419,0,0,1-10.451-8.159,37.849,37.849,0,0,1-6.665-12.211,49.851,49.851,0,0,1,.053-30.394,37.884,37.884,0,0,1,6.772-12.317,31.569,31.569,0,0,1,10.5-8.211,30.651,30.651,0,0,1,13.6-2.986,31.121,31.121,0,0,1,13.6,2.933,30.475,30.475,0,0,1,10.451,8.159,37.8,37.8,0,0,1,6.665,12.264,47.639,47.639,0,0,1,2.346,15.143A46.968,46.968,0,0,1,178.492,6392.478Zm-15.624-24.528a25.46,25.46,0,0,0-3.306-7.572,16.171,16.171,0,0,0-5.172-5.012,13.632,13.632,0,0,0-13.491-.053,15.974,15.974,0,0,0-5.119,4.906,23.785,23.785,0,0,0-3.253,7.518,38.186,38.186,0,0,0-1.12,9.491,36.482,36.482,0,0,0,1.173,9.492,25.363,25.363,0,0,0,3.306,7.572,16.136,16.136,0,0,0,5.172,5.012,13.626,13.626,0,0,0,13.491.053,15.82,15.82,0,0,0,5.119-4.959,24.567,24.567,0,0,0,3.253-7.518,37.556,37.556,0,0,0,1.12-9.438A36.57,36.57,0,0,0,162.868,6367.949Z" transform="translate(-114.558 -6338.729)" fill="#c8c9ca"/>
        <path id="パス_818" data-name="パス 818" d="M219.8,6356.225a43.059,43.059,0,0,0-7.519,7.572l-11.518-9.279a63.915,63.915,0,0,1,5.6-6.654,31.151,31.151,0,0,1,6.079-4.887,26.376,26.376,0,0,1,7.2-3.008,35.874,35.874,0,0,1,8.957-1.021,32.489,32.489,0,0,1,10.718,1.652,23.388,23.388,0,0,1,8.105,4.693,20.015,20.015,0,0,1,5.12,7.305,24.677,24.677,0,0,1,1.76,9.492,26.43,26.43,0,0,1-1.227,8.372,25.655,25.655,0,0,1-3.625,6.985,40.012,40.012,0,0,1-6.133,6.559q-3.733,3.254-8.638,7.091l-12.158,9.385H255.05v14.184H199.808v-12.988l24.847-20.334q3.519-2.874,5.973-5.163a33.434,33.434,0,0,0,4-4.366,15.478,15.478,0,0,0,2.24-4.046,12.917,12.917,0,0,0,.693-4.311q0-4.789-2.773-7.237a10.549,10.549,0,0,0-7.252-2.451A12.77,12.77,0,0,0,219.8,6356.225Z" transform="translate(-117.158 -6338.735)" fill="#c8c9ca"/>
      </g>
    </g>
  </g>
</svg>
