<svg xmlns="http://www.w3.org/2000/svg" xmlns:xlink="http://www.w3.org/1999/xlink" width="480" height="480" viewBox="0 0 480 480">
  <defs>
    <clipPath id="clip-path">
      <rect id="長方形_129" data-name="長方形 129" width="480" height="480" transform="translate(-1108 1942)" fill="#fff" stroke="#707070" stroke-width="1"/>
    </clipPath>
    <clipPath id="clip-path-2">
      <ellipse id="楕円形_2" data-name="楕円形 2" cx="205.276" cy="205.276" rx="205.276" ry="205.276" fill="none"/>
    </clipPath>
  </defs>
  <g id="マスクグループ_2" data-name="マスクグループ 2" transform="translate(1108 -1942)" clip-path="url(#clip-path)">
    <g id="グループ_36" data-name="グループ 36" transform="translate(-1096 1942)">
      <g id="グループ_34" data-name="グループ 34" transform="translate(0)">
        <ellipse id="楕円形_1" data-name="楕円形 1" cx="205.276" cy="205.276" rx="205.276" ry="205.276" transform="translate(19.597)" fill="#002063"/>
        <g id="グループ_33" data-name="グループ 33">
          <g id="グループ_32" data-name="グループ 32" transform="translate(19.597)">
            <g id="グループ_31" data-name="グループ 31" clip-path="url(#clip-path-2)">
              <g id="グループ_30" data-name="グループ 30" transform="translate(32.244 71.072)">
                <path id="パス_693" data-name="パス 693" d="M429.24,5383.008a8.055,8.055,0,0,1,6.441-1.885,7.6,7.6,0,0,1,5.47,3.634,10.744,10.744,0,0,1,1.125,4.324,32.2,32.2,0,0,1-3.285,17.073,20.472,20.472,0,0,1-5.292,6.947c-2.163,1.722-4.337,2.55-7.927.731a48.222,48.222,0,0,1-2.1,7.572c-1.7,4.54-10.593,19.4-22.153,26.471.016,3.652.211,7.45,1.428,10.462,2.613,6.472,16.732,14.615,17.7,15.04,0,0-5.479,35.167-46.292,35.167s-42.309-35.167-42.309-35.167c.972-.425,12.873-7.435,15.5-13.906,1.23-3.039,1.417-6.856,1.424-10.5a45.562,45.562,0,0,1-14.5-11.763,54.543,54.543,0,0,1-11-22.17c-3.327,1.329-5.811-.388-7.757-1.94a20.463,20.463,0,0,1-5.293-6.947,32.215,32.215,0,0,1-3.285-17.073,10.744,10.744,0,0,1,1.126-4.324,7.6,7.6,0,0,1,5.469-3.634,8.055,8.055,0,0,1,6.441,1.885s-1.564-45.291,55.153-45.291C431.828,5337.717,429.24,5383.008,429.24,5383.008Z" transform="translate(-199.895 -5293.659)" fill="#fff"/>
                <path id="パス_694" data-name="パス 694" d="M320.126,5381.37c1.744,1.8,2.717-1.882,3.376-3.319,1.051-2.289,2.589-5.627,3.714-7.877.618-1.239,1.513-3.055,2.061-4.32q.87-2.008,1.846-3.96a80.908,80.908,0,0,1,4.349-7.625,10.117,10.117,0,0,1,2.782-3.154c3.413-2.24,8.1-.432,12.261-.745,4.625-.349,8.456-3.334,12.722-5.035,5.93-2.362,15.023-2.984,20.771-.257,2.907.149,5.616.022,8.251,0a52.372,52.372,0,0,1,8.834.394c8.477,1.945,14.36,6.623,18.624,13.71a66.63,66.63,0,0,1,6.716,14.859,52.358,52.358,0,0,1,1.256,5.64c.1.639.173,1.293.232,1.934.041.437.477.592,1.5-.1l-.14.191a8.055,8.055,0,0,1,6.4-1.891c4.024-13.218,2.938-29.979-.975-39.97-2.689-6.874-6.812-14.809-15.161-19.391l-7.665-6.785c-3.444-6.989-10.634-12.972-20.084-16.349-9.906-3.538-38.784-4.139-48.492,4.253l-9.968,6.816c-11.116,5.074-18.96,17.218-22.3,29.734-3.444,12.9-3.473,31.589,1.373,42.045a7.965,7.965,0,0,1,7.81,1.531" transform="translate(-199.943 -5292.352)" fill="#908b8a"/>
                <path id="パス_695" data-name="パス 695" d="M415,5312.362c-5.076-10.134-16.216-16.977-27.182-18.844a87.236,87.236,0,0,0-31.166.328c-4.983.985-10.116,2.59-14.046,5.933a2.451,2.451,0,0,0,0,3.442,2.481,2.481,0,0,0,3.439,0c.037-.032.591-.483.186-.169.177-.137.362-.267.546-.394.383-.265.777-.512,1.179-.746.7-.405,1.937-1.006,2.342-1.173a38.517,38.517,0,0,1,6.319-1.924,72.918,72.918,0,0,1,14.632-1.576c9.067-.171,17.927.33,26.092,4.619,5.624,2.954,10.586,7.221,13.462,12.963,1.4,2.8,5.6.338,4.2-2.454Z" transform="translate(-200.958 -5292.273)" fill="#211715"/>
                <path id="パス_696" data-name="パス 696" d="M402,5452.312c.074,4.1.3,8.7,2.585,12.255a28.7,28.7,0,0,0,6.155,6.5,78.9,78.9,0,0,0,7.422,5.369,34.352,34.352,0,0,0,4.163,2.471,2.5,2.5,0,0,0,3.326-.871,2.452,2.452,0,0,0-.872-3.327,32.059,32.059,0,0,1-3.759-2.212,72.063,72.063,0,0,1-6.373-4.479,43.689,43.689,0,0,1-3.35-2.948,21.084,21.084,0,0,1-2.247-2.546,11.372,11.372,0,0,1-.934-1.593c.266.558-.19-.525-.2-.57a16.439,16.439,0,0,1-.448-1.607,31.238,31.238,0,0,1-.6-6.436c-.058-3.124-4.919-3.134-4.862,0Z" transform="translate(-202.791 -5297.083)" fill="#211715"/>
                <path id="パス_697" data-name="パス 697" d="M333.988,5478.9A29.041,29.041,0,0,0,338,5476.45a59.375,59.375,0,0,0,6.857-5.306,22.187,22.187,0,0,0,5.307-6.563c1.79-3.776,1.94-8.13,1.96-12.238.014-3.129-4.848-3.132-4.861,0a45.012,45.012,0,0,1-.294,5.828,15.47,15.47,0,0,1-1.233,4.415,20.409,20.409,0,0,1-4.782,5.542,52.44,52.44,0,0,1-5.825,4.407,27.283,27.283,0,0,1-3.588,2.169,2.45,2.45,0,0,0-.872,3.326,2.489,2.489,0,0,0,3.326.872Z" transform="translate(-200.606 -5297.083)" fill="#211715"/>
                <path id="パス_698" data-name="パス 698" d="M426.3,5413.221a25.966,25.966,0,0,1-1.235,6.548c-.241.8-.506,1.6-.776,2.4-.093.275-.184.551-.281.825-.064.183-.366.848-.051.147a50.485,50.485,0,0,1-3.358,6.146,65.222,65.222,0,0,1-13.721,15.967,28.948,28.948,0,0,1-10.2,5.6c-3,.858-1.727,5.55,1.292,4.688,7.759-2.216,14.222-7.8,19.413-13.788A66.99,66.99,0,0,0,428,5425.936a34.44,34.44,0,0,0,3.159-12.713c.107-3.13-4.755-3.126-4.861,0Z" transform="translate(-202.577 -5295.89)" fill="#211715"/>
                <path id="パス_699" data-name="パス 699" d="M320.539,5413.268c2.9,15.515,11.175,30.412,25.055,38.635a33.737,33.737,0,0,0,12.059,4.414,2.508,2.508,0,0,0,2.99-1.7,2.449,2.449,0,0,0-1.7-2.99c-14.809-2.252-26.144-15.667-30.938-29.144a69.157,69.157,0,0,1-2.781-10.51,2.453,2.453,0,0,0-2.99-1.7,2.486,2.486,0,0,0-1.7,2.99Z" transform="translate(-200.305 -5295.87)" fill="#211715"/>
                <path id="パス_700" data-name="パス 700" d="M434.674,5386.015a5.552,5.552,0,0,1,7.7.644c1.095,1.384,1.2,3.367,1.271,5.056a28.619,28.619,0,0,1-.3,5.851,29.68,29.68,0,0,1-4.051,11c-1.557,2.478-4.136,5.827-7.423,4.923-3.02-.832-4.309,3.858-1.292,4.687,8.454,2.33,14-7.663,16.205-14.287a34.121,34.121,0,0,0,1.713-12.4c-.2-4.066-1.287-7.936-4.991-10.145a10.575,10.575,0,0,0-12.268,1.231,2.453,2.453,0,0,0,0,3.438,2.481,2.481,0,0,0,3.438,0Z" transform="translate(-203.61 -5294.947)" fill="#211715"/>
                <path id="パス_701" data-name="パス 701" d="M321.818,5382.577a10.583,10.583,0,0,0-11.241-1.747c-3.886,1.722-5.517,5.3-5.917,9.336-.81,8.2,1.651,17.376,7.011,23.717,2.869,3.4,7.009,6.122,11.6,5.055,3.047-.71,1.758-5.4-1.292-4.687-3.193.743-6.3-2.8-7.869-5.154a29.224,29.224,0,0,1-4.312-11.086,28.807,28.807,0,0,1-.4-5.847c.048-1.7.088-3.747,1.082-5.2a5.508,5.508,0,0,1,7.71-1.1c.064.05.128.1.19.15a2.494,2.494,0,0,0,3.437,0,2.453,2.453,0,0,0,0-3.438Z" transform="translate(-199.818 -5294.946)" fill="#211715"/>
                <path id="パス_702" data-name="パス 702" d="M332.038,5306.641c-9.778,4.539-16.663,13.761-20.763,23.487-4.219,10.013-5.579,21.223-5.108,32.026a56.277,56.277,0,0,0,3.045,17.154,2.5,2.5,0,0,0,2.991,1.7,2.45,2.45,0,0,0,1.7-2.99c-3.461-9.286-3.5-19.911-2.355-29.635,1.156-9.8,4.436-19.526,10.534-27.388a33.9,33.9,0,0,1,12.413-10.154,2.453,2.453,0,0,0,.873-3.326,2.489,2.489,0,0,0-3.326-.873Z" transform="translate(-199.866 -5292.702)" fill="#211715"/>
                <path id="パス_703" data-name="パス 703" d="M421.738,5323.276c6.718,3.754,10.927,10.193,13.746,17.187,3.011,7.471,3.92,15.7,3.7,23.7A61.464,61.464,0,0,1,437.021,5379c-.843,3.018,3.849,4.306,4.688,1.293a70.944,70.944,0,0,0,1.65-28.483,52.642,52.642,0,0,0-8.282-22.572,32.367,32.367,0,0,0-10.885-10.155c-2.735-1.527-5.189,2.67-2.454,4.2Z" transform="translate(-203.357 -5293.081)" fill="#211715"/>
                <path id="パス_704" data-name="パス 704" d="M383.481,5345.282a26.837,26.837,0,0,0-17.346-1.842,35.689,35.689,0,0,0-8.188,3.344c-2.29,1.177-4.721,2.475-7.344,2.632-2.751.166-5.469-.53-8.223-.387a9.671,9.671,0,0,0-7.424,3.66c-3.767,4.779-6.045,10.535-8.691,15.949-1.215,2.492-2.166,5.105-3.42,7.579-.574,1.13-1.255,2.186-1.755,3.353-.21.491-.42.982-.677,1.453.019-.036-.26.4-.256.4-.338-.659,1.979-.311,1.977-.312-2.3-2.121-5.741,1.309-3.437,3.438,2.1,1.939,4.658,1.194,5.975-1.193.4-.725.652-1.52,1.022-2.253.674-1.343,1.467-2.611,2.087-3.984,2.272-5.028,4.377-10.152,7.019-15.005q1.1-2.026,2.322-3.99a13.068,13.068,0,0,1,2.377-3.232c1.906-1.612,4.911-1,7.174-.783a19.41,19.41,0,0,0,8.407-.729,76.151,76.151,0,0,0,7.757-3.637,21.575,21.575,0,0,1,18.189-.263,2.5,2.5,0,0,0,3.325-.873,2.449,2.449,0,0,0-.872-3.324Z" transform="translate(-200.227 -5293.813)" fill="#211715"/>
                <path id="パス_705" data-name="パス 705" d="M363.055,5332.971a25.943,25.943,0,0,1,18.886,3.071,21.164,21.164,0,0,1,5.962,4.993,37.051,37.051,0,0,1,4.046,6.684c1.417,2.791,5.612.332,4.2-2.454-2.872-5.653-6.454-10.468-12.088-13.611a31.052,31.052,0,0,0-22.3-3.371C358.713,5328.976,360,5333.664,363.055,5332.971Z" transform="translate(-201.511 -5293.348)" fill="#211715"/>
                <path id="パス_706" data-name="パス 706" d="M403.979,5348.462a24.363,24.363,0,0,1,14.281,10.033,57.7,57.7,0,0,1,8.879,18.377c.3,1.166.589,2.336.817,3.519.214,1.1.219,2.279.484,3.361.608,2.473,3.288,2.457,5.074,1.345,2.652-1.647.213-5.855-2.454-4.2q-1.172.576,1.058.372l.873.872q.288.959.123-.008-.07-.564-.148-1.129c-.09-.641-.2-1.275-.322-1.907-.244-1.261-.547-2.511-.878-3.748a47.645,47.645,0,0,0-2.144-6.11,72.531,72.531,0,0,0-6.029-11.531c-4.393-6.737-10.348-12.044-18.321-13.936-3.038-.721-4.34,3.966-1.292,4.688Z" transform="translate(-202.798 -5293.841)" fill="#211715"/>
                <path id="パス_707" data-name="パス 707" d="M497.16,5660.537c-4.951-68.42-12.7-129.326-18.962-150.2-1.8-6-4.5-9.6-7.5-12s-7.991-3.994-11.459-5.671c-11.273-5.446-25.992-11.509-37.547-16.33l-2.2-.92a61.756,61.756,0,0,0-11.361-9.341c-5.046,21.633-14.011,44.986-21.118,66.035q-7.155,21.185-14.307,42.366c-6.36-15.769-10.566-26.382-15.964-42.366-7.173-21.24-16.237-44.83-21.247-66.633a61.286,61.286,0,0,0-13.507,11.248l-.734.3c-11.555,4.821-26.274,10.883-37.547,16.329-3.468,1.675-7.54,2.462-10.168,5.278a29.39,29.39,0,0,0-6.114,9.977c-7.851,20.5-9.192,32.208-17.124,52.817-4.52-10.579-8.474-20.4-12.964-31.422-11.357,5.984-29.454,14.271-40.808,16.733,5.661,18.123,11.343,37.619,19.316,55.767,5.542,12.61,11.483,25.536,25.082,27.725,8.71,1.4,19.074-2.15,25.713-7.958,9.448-8.266,26.535-29.661,24.756-28.229q.374,2.12.753,4.219c2.116,11.708,1.8,21.907,1.8,33.615,0,10.078-.6,17.522-.608,28.956Z" transform="translate(-196.525 -5297.555)" fill="#bdbdbd"/>
                <path id="パス_708" data-name="パス 708" d="M378.941,5475.214a.77.77,0,0,0-.2.21h-4.7a6.086,6.086,0,0,0-2.081-1.177c-10.7-4.3-19.629-10.869-23.538-16.124-3.858,3.544-5.083,6.289-7.6,11.093,5.15,20.674,13.562,42.71,20.3,62.671,5.4,15.983,9.6,26.6,15.964,42.366q7.153-21.185,14.307-42.366c6.774-20.061,15.236-42.215,20.381-62.979-2.4-4.615-3.657-7.315-7.431-10.786-3.91,5.255-12.838,11.82-23.539,16.124A9.319,9.319,0,0,0,378.941,5475.214Z" transform="translate(-200.926 -5297.331)" fill="#fff"/>
                <path id="パス_709" data-name="パス 709" d="M396.125,5493.31a104.823,104.823,0,0,0,16.205-25.657c-2.011-3.876-3.362-6.39-6.781-9.534-3.911,5.257-12.839,11.821-23.539,16.126a6.053,6.053,0,0,0-2.08,1.176c-.256.477.242.9.476,1.272.368.589,2.176,2.1,5.251,5.476C389.145,5486,393.237,5489.868,396.125,5493.31Z" transform="translate(-202.116 -5297.331)" fill="#fff"/>
                <path id="パス_710" data-name="パス 710" d="M357.877,5493.31a104.762,104.762,0,0,1-16.205-25.657c2.01-3.876,3.36-6.39,6.786-9.534,3.91,5.257,12.837,11.821,23.538,16.126a6.065,6.065,0,0,1,2.081,1.176c.256.477-.242.9-.477,1.272-.367.589-2.176,2.1-5.252,5.476C364.852,5486,360.764,5489.868,357.877,5493.31Z" transform="translate(-200.951 -5297.331)" fill="#fff"/>
                <path id="パス_711" data-name="パス 711" d="M380.083,5479.1c-2.641.009-4.838.014-7.508.016-.875.867-2.066,2.064-3.555,3.7-.8.875-1.625,1.751-2.463,2.624.588,3.058,1,4.99,1.651,7.772.1.489.228.962.351,1.451a13.475,13.475,0,0,1,.524,3.215c0,.625-3.059,22.946-5.2,40.606,4.479,12.862,8.383,22.687,13.922,36.414q6.562-19.43,13.121-38.86c-2.69-18-5.541-36.813-5.523-37.81a19.6,19.6,0,0,1,1.258-5.7c.752-2.314,1.216-4.338,1.709-6.328-1.088-1.124-2.17-2.258-3.2-3.387-1.5-1.646-2.7-2.852-3.576-3.72Z" transform="translate(-201.629 -5297.971)" fill="#3f88c9"/>
                <path id="パス_712" data-name="パス 712" d="M369.936,5500.663c5.034,0,10.066-.111,15.1-.113a2.431,2.431,0,0,0,0-4.861c-5.033,0-10.065.111-15.1.114a2.43,2.43,0,1,0,0,4.861Z" transform="translate(-201.739 -5298.477)" fill="#211715"/>
                <path id="パス_713" data-name="パス 713" d="M364.38,5487.462q.651,3.289,1.417,6.553a14.74,14.74,0,0,1,.769,4.238c-.1,1.5-.375,3.009-.57,4.5q-1.348,10.3-2.694,20.608-.912,7.091-1.784,14.188a2.442,2.442,0,0,0,2.431,2.43,2.489,2.489,0,0,0,2.431-2.43c1-8.219,2.068-16.432,3.139-24.641.633-4.824,1.491-9.675,1.892-14.527a14.114,14.114,0,0,0-.639-4.457c-.638-2.57-1.191-5.166-1.705-7.76a2.431,2.431,0,1,0-4.687,1.292h0Z" transform="translate(-201.557 -5298.132)" fill="#211715"/>
                <path id="パス_714" data-name="パス 714" d="M381.5,5476.59l-8.954.019a2.431,2.431,0,0,0,0,4.861h0q4.478-.005,8.954-.019a2.431,2.431,0,0,0,0-4.862Z" transform="translate(-201.819 -5297.894)" fill="#211715"/>
                <path id="パス_715" data-name="パス 715" d="M393.871,5535.589q-1.761-11.773-3.521-23.545-.65-4.378-1.283-8.755-.224-1.562-.438-3.124c-.026-.187.057.447-.007-.053-.019-.151-.04-.3-.058-.451-.034-.265-.074-.53-.1-.8a9.554,9.554,0,0,1,.465-3.321c.59-2.134,1.317-4.22,1.861-6.371.765-3.039-3.923-4.329-4.688-1.292-.864,3.429-2.668,7.082-2.531,10.671a45.033,45.033,0,0,0,.583,4.5c.912,6.487,1.9,12.964,2.867,19.446q1.078,7.191,2.154,14.381a2.449,2.449,0,0,0,2.99,1.7,2.5,2.5,0,0,0,1.7-2.991Z" transform="translate(-202.229 -5298.186)" fill="#211715"/>
                <path id="パス_716" data-name="パス 716" d="M374.243,5581.615a51.281,51.281,0,0,0-2.818,16.711c.074,3.583.466,7.174.692,10.749.69,10.917,1.14,21.847,1.9,32.763q.784,11.251,1.769,22.484a2.5,2.5,0,0,0,2.431,2.431,2.449,2.449,0,0,0,2.431-2.431c-1.884-21.426-2.819-42.9-4.283-64.348a45.464,45.464,0,0,1,2.565-17.074c.972-2.981-3.721-4.253-4.688-1.292Z" transform="translate(-201.859 -5301.046)" fill="#211715"/>
                <path id="パス_717" data-name="パス 717" d="M411.2,5465.375c-3.444,14.715-8.29,29.068-13.245,43.326q-7.571,21.8-14.948,43.652l-8.682,25.714c-1,2.971,3.69,4.245,4.688,1.292q7.8-23.091,15.6-46.185c4.79-14.179,9.974-28.235,14.523-42.5,2.527-7.922,4.862-15.91,6.755-24,.71-3.039-3.973-4.341-4.687-1.292Z" transform="translate(-201.943 -5297.499)" fill="#211715"/>
                <path id="パス_718" data-name="パス 718" d="M412.915,5468.119a55.764,55.764,0,0,1,10.218,8.3,57.085,57.085,0,0,1,4.642,5.188c.594.763,1.156,1.557,1.681,2.368.266.4.522.823.765,1.247.1.178.2.358.3.541.073.132.143.268.21.405.114.234.1.174-.054-.174l.332-1.228q.259-.256-.112,0l-.654.36-.872.482-2.4,1.322-4.578,2.525a2.453,2.453,0,0,0-.493,3.819c2.248,2.035,4.487,4.084,6.658,6.2.458.447.911.9,1.362,1.35a8.956,8.956,0,0,1,1.664,1.708c.092.2.12-.058-.031.295-.325.76-.8,1.5-1.184,2.229q-4.088,7.653-8.322,15.226-8.723,15.639-17.845,31.047-5.014,8.522-10.093,17c-1.609,2.693,2.592,5.141,4.2,2.454,12.746-21.323,25.353-42.753,37.014-64.694.842-1.586,1.562-3.139.956-4.951-.534-1.6-1.932-2.762-3.088-3.92-2.539-2.544-5.188-4.972-7.851-7.385l-.492,3.818,6.1-3.367c1.772-.977,4.464-1.91,4.587-4.292.082-1.591-1.053-3.179-1.887-4.466a45.965,45.965,0,0,0-3.024-4.077,61.865,61.865,0,0,0-15.262-13.523c-2.676-1.635-5.122,2.567-2.453,4.2Z" transform="translate(-202.54 -5297.497)" fill="#211715"/>
                <path id="パス_719" data-name="パス 719" d="M337.575,5466.668c3.449,14.714,8.29,29.067,13.244,43.326,4.785,13.773,9.359,27.631,14.483,41.282,2.836,7.553,5.834,15.042,8.848,22.525a2.509,2.509,0,0,0,2.991,1.7,2.449,2.449,0,0,0,1.7-2.991c-5.35-13.279-10.534-26.605-15.137-40.165-4.811-14.179-9.971-28.247-14.536-42.51-2.582-8.069-4.963-16.206-6.9-24.458-.709-3.044-5.4-1.755-4.689,1.292Z" transform="translate(-200.824 -5297.499)" fill="#211715"/>
                <path id="パス_720" data-name="パス 720" d="M338.065,5463.92a61.918,61.918,0,0,0-15.261,13.523,46.93,46.93,0,0,0-2.937,3.937c-.864,1.317-2.058,2.975-1.979,4.607.119,2.391,2.811,3.311,4.588,4.292l6.1,3.366-.492-3.816c-2.485,2.25-4.963,4.516-7.34,6.875a18.375,18.375,0,0,0-3.186,3.5,5.139,5.139,0,0,0,.114,5.074c2.689,5.381,5.748,10.612,8.718,15.84,6.361,11.2,12.985,22.257,19.7,33.25q5.581,9.129,11.236,18.213c1.646,2.652,5.855.213,4.2-2.454-12.751-20.533-25.46-41.131-37.008-62.373q-1.133-2.084-2.247-4.178a3.823,3.823,0,0,1-.478-.911c-.05-.312-.1.188.048-.139.281-.606,1.194-1.236,1.663-1.708,2.59-2.6,5.3-5.087,8.02-7.552a2.452,2.452,0,0,0-.035-3.467,2.426,2.426,0,0,0-.457-.352l-4.576-2.523-2.179-1.2-1.09-.6c-.181-.1-.969-.732-.767-.357l.332,1.226c.017.387-.149.326.086-.091.1-.179.194-.362.3-.54.238-.421.489-.834.75-1.241.519-.811,1.071-1.6,1.658-2.363a63.49,63.49,0,0,1,14.974-13.633c2.666-1.63.226-5.836-2.454-4.2Z" transform="translate(-200.197 -5297.495)" fill="#211715"/>
                <path id="パス_721" data-name="パス 721" d="M396.125,5493.31a104.823,104.823,0,0,0,16.205-25.657c-2.011-3.876-3.362-6.39-6.781-9.534-3.911,5.257-12.839,11.821-23.539,16.126a6.053,6.053,0,0,0-2.08,1.176c-.256.477.242.9.476,1.272.368.589,2.176,2.1,5.251,5.476C389.145,5486,393.237,5489.868,396.125,5493.31Z" transform="translate(-202.116 -5297.331)" fill="#fff"/>
                <path id="パス_722" data-name="パス 722" d="M357.877,5493.31a104.762,104.762,0,0,1-16.205-25.657c2.01-3.876,3.36-6.39,6.786-9.534,3.91,5.257,12.837,11.821,23.538,16.126a6.065,6.065,0,0,1,2.081,1.176c.256.477-.242.9-.477,1.272-.367.589-2.176,2.1-5.252,5.476C364.852,5486,360.764,5489.868,357.877,5493.31Z" transform="translate(-200.951 -5297.331)" fill="#fff"/>
                <path id="パス_723" data-name="パス 723" d="M397.77,5494.956a111.031,111.031,0,0,0,13.022-18.939q1.331-2.487,2.543-5.034a17.617,17.617,0,0,0,1.264-2.753c.331-1.207-.457-2.292-1-3.31a31.9,31.9,0,0,0-6.409-8.588,2.478,2.478,0,0,0-3.5.085,2.443,2.443,0,0,0-.314.408c-4.076,5.4-11.058,9.728-17.279,12.829-2.025,1.013-4.141,1.785-6.168,2.765-2.118,1.026-3.357,3.021-1.859,5.2,1.579,2.3,3.915,4.152,5.8,6.2,3.448,3.747,7.178,7.247,10.466,11.141a2.451,2.451,0,0,0,3.438,0,2.482,2.482,0,0,0,0-3.437c-3.092-3.664-6.59-6.955-9.844-10.466-1.4-1.508-2.8-3.009-4.263-4.456-.395-.391-.782-.788-1.177-1.178-.158-.156-.507-.668-.009.044-.059-.085-.385-.643-.348-.478v1.292l.072-.28-.624,1.073c-.247.289.253-.172.437-.271s.378-.195.569-.281c.818-.37,1.664-.686,2.488-1.043q2.17-.946,4.275-2.026a70.8,70.8,0,0,0,7.477-4.428,44.524,44.524,0,0,0,10.752-9.744l-3.817.491a31.582,31.582,0,0,1,6.4,9.042v-2.454a111.375,111.375,0,0,1-15.819,25.159,2.5,2.5,0,0,0,0,3.437A2.454,2.454,0,0,0,397.77,5494.956Z" transform="translate(-202.041 -5297.256)" fill="#211715"/>
                <path id="パス_724" data-name="パス 724" d="M359.52,5491.518a111.327,111.327,0,0,1-15.824-25.166v2.454a31.556,31.556,0,0,1,6.4-9.042l-3.819-.49a44.568,44.568,0,0,0,10.753,9.743,71.052,71.052,0,0,0,7.476,4.428q2,1.029,4.067,1.935c.822.362,1.659.689,2.482,1.049.267.116.524.229.783.367.165.087.73.615.438.271l-.626-1.072.073.279v-1.292c.037-.164-.288.394-.349.479.507-.709.15-.2-.008-.044-.395.39-.783.787-1.177,1.178-1.463,1.449-2.863,2.951-4.263,4.457-3.256,3.511-6.754,6.8-9.843,10.466a2.494,2.494,0,0,0,0,3.437,2.452,2.452,0,0,0,3.437,0c2.892-3.426,6.143-6.526,9.212-9.789,1.424-1.512,2.814-3.054,4.281-4.525.709-.708,1.478-1.388,2.126-2.162,1.389-1.665,2.01-3.88-.031-5.368-1.671-1.216-3.866-1.805-5.734-2.681a70.615,70.615,0,0,1-11.028-6.406,37.919,37.919,0,0,1-7.868-7.207,2.475,2.475,0,0,0-3.819-.491,31.934,31.934,0,0,0-6.408,8.587c-.493.928-1.188,1.894-1.04,2.987a10.8,10.8,0,0,0,1.215,2.882q1.262,2.641,2.634,5.229a110.977,110.977,0,0,0,13.022,18.939,2.451,2.451,0,0,0,3.437,0A2.415,2.415,0,0,0,359.52,5491.518Z" transform="translate(-200.876 -5297.255)" fill="#211715"/>
                <path id="パス_725" data-name="パス 725" d="M459.451,5661.927c-.016-10.065-.592-20.121-.608-30.187-.017-11.011-.046-21.935,1.91-32.811,3.757-20.893,6.894-41.9,9.6-62.957,1.386-10.765,2.649-21.546,3.719-32.349a2.45,2.45,0,0,0-2.431-2.431,2.485,2.485,0,0,0-2.431,2.431c-1.979,19.967-4.558,39.877-7.533,59.719q-2.359,15.776-5.117,31.491a154.184,154.184,0,0,0-2.229,16.459c-.368,5.435-.378,10.887-.364,16.332.031,11.438.6,22.865.62,34.3,0,3.127,4.866,3.134,4.861,0Z" transform="translate(-204.376 -5298.644)" fill="#211715"/>
                <path id="パス_726" data-name="パス 726" d="M278.98,5505.6c1.991,20.033,4.607,40.006,7.617,59.914q2.376,15.725,5.15,31.388a133.6,133.6,0,0,1,2.019,15.847c.3,5.294.289,10.6.273,15.9-.034,11.119-.6,22.224-.617,33.342,0,3.128,4.856,3.134,4.861,0,.016-9.656.6-19.3.608-28.956.012-10.8.164-21.6-1.555-32.3-1.682-10.479-3.64-20.91-5.266-31.4q-2.408-15.512-4.444-31.08-2.128-16.3-3.783-32.655a2.5,2.5,0,0,0-2.431-2.432,2.448,2.448,0,0,0-2.431,2.432Z" transform="translate(-199.039 -5298.704)" fill="#211715"/>
                <path id="パス_727" data-name="パス 727" d="M428.051,5478.948c14.516,6.054,28.9,12.365,43.24,18.811a19.375,19.375,0,0,1,7.6,5.451,24.537,24.537,0,0,1,4.1,8.508c1.063,3.619,1.891,7.308,2.657,11,2.289,11.014,3.972,22.158,5.519,33.3,2.065,14.872,3.779,29.792,5.32,44.726q2.734,26.489,4.72,53.043.266,3.506.52,7.014a2.49,2.49,0,0,0,2.431,2.431,2.45,2.45,0,0,0,2.431-2.431q-1.984-27.357-4.689-54.655c-1.578-15.775-3.357-31.532-5.47-47.245-1.577-11.73-3.3-23.461-5.6-35.074-1.94-9.785-3.737-21.371-12.325-27.65-3.022-2.207-6.675-3.37-10.055-4.893-3.509-1.578-6.963-3.278-10.477-4.847-7.724-3.453-15.53-6.72-23.339-9.975q-2.647-1.105-5.293-2.207a2.446,2.446,0,0,0-2.99,1.7,2.491,2.491,0,0,0,1.7,2.991Z" transform="translate(-203.532 -5297.821)" fill="#211715"/>
                <path id="パス_728" data-name="パス 728" d="M394.921,5591.867c.271.244.489.537.75.785q-.369-.491-.152-.19c.048.069.093.137.137.2.076.119.145.241.211.364.1.195.21.617-.024-.107.046.142.106.279.15.422a5.615,5.615,0,0,1,.185.845l-.086-.646a6.124,6.124,0,0,1,0,1.531l.086-.646a6.4,6.4,0,0,1-.174.849c-.033.12-.069.236-.11.354s-.234.594-.036.124,0-.018-.053.093-.111.21-.172.313-.118.188-.177.282c-.253.388.424-.489.143-.182-.1.11-.506.659-.652.635.016,0,.562-.4.19-.159-.06.039-.119.079-.179.117a4.693,4.693,0,0,1-.422.238c-.064.032-.13.062-.195.092-.342.17.507-.186.233-.1-.138.045-.272.1-.412.14a6.639,6.639,0,0,1-1.012.222l.646-.086a7.29,7.29,0,0,1-1.839.007l.647.085a8.49,8.49,0,0,1-1.418-.362c.732.236.4.174.21.082-.118-.06-.235-.121-.348-.19-.084-.052-.165-.106-.247-.159-.335-.215.519.446.131.1a8.692,8.692,0,0,1-.632-.63c-.285-.314.347.515-.006-.013-.067-.1-.132-.2-.192-.311s-.108-.211-.162-.317c-.19-.366.222.63.035.047a4.875,4.875,0,0,1-.174-.76l.087.646a5.254,5.254,0,0,1,0-1.317l-.087.646a6.153,6.153,0,0,1,.2-.916c.043-.143.094-.281.144-.423.165-.462-.245.507-.024.064q.212-.431.466-.839c.081-.125.166-.252.254-.374a1.1,1.1,0,0,1,.135-.182c-.073.063-.4.483-.134.184.091-.1.18-.2.278-.3s.47-.395.1-.114.041-.02.141-.082a4.04,4.04,0,0,1,.422-.237,1.024,1.024,0,0,1,.2-.095s-.6.231-.275.118c.14-.048.278-.1.422-.144a6.633,6.633,0,0,1,1-.209l-.647.086a6.432,6.432,0,0,1,1.6,0l-.647-.086a5.715,5.715,0,0,1,.671.132c.091.025.181.052.271.082s.506.2.081.016c-.405-.175-.074-.031.018.017a3.12,3.12,0,0,1,.3.164c.1.062.191.123.286.186.341.224-.466-.382-.134-.1a2.587,2.587,0,0,0,1.722.709,2.431,2.431,0,0,0,1.722-4.152,7.739,7.739,0,0,0-4.968-1.891,8.236,8.236,0,0,0-4.569,1.252,8.718,8.718,0,0,0-3.653,8.767,7.543,7.543,0,0,0,3.1,4.408,8.476,8.476,0,0,0,11.7-2.613l.032-.051a8.484,8.484,0,0,0,.978-4.547,8.048,8.048,0,0,0-2.619-5.325,2.431,2.431,0,0,0-3.438,3.437Z" transform="translate(-202.274 -5301.246)" fill="#211715"/>
                <path id="パス_729" data-name="パス 729" d="M366.08,5428.164c3.053,2.993,7.9,3.86,12,3.86s8.944-.858,12-3.849c2.241-2.192-1.2-5.628-3.438-3.438-.1.1-.608.528-.3.289.282-.224-.374.248-.524.34-.267.164-.541.315-.82.455q-.282.141-.572.269c.33-.144-.008,0-.162.054a17.977,17.977,0,0,1-6.178,1.013,17.492,17.492,0,0,1-6.07-.983c-.028-.011-.731-.3-.273-.1-.161-.071-.32-.146-.478-.223a9.469,9.469,0,0,1-.911-.506c-.226-.139-.439-.3-.657-.446.621.424-.017-.036-.17-.186-2.236-2.191-5.672,1.244-3.437,3.438Z" transform="translate(-201.674 -5296.291)" fill="#211715"/>
                <path id="パス_730" data-name="パス 730" d="M377.84,5404.888a49.429,49.429,0,0,1,1.155,5.292l-.087-.645a3.238,3.238,0,0,1,.019.731l.087-.646a1.741,1.741,0,0,1-.081.328l.245-.581a1.316,1.316,0,0,1-.115.212l.379-.493a1.159,1.159,0,0,1-.173.169l.493-.379a3.666,3.666,0,0,1-.42.221l.581-.245a3.166,3.166,0,0,1-.71.2l.647-.088a2.9,2.9,0,0,1-.663,0l.646.085c-.25-.034-.5-.095-.746-.128a2.686,2.686,0,0,0-1.872.245,2.429,2.429,0,0,0-.873,3.325h0a2.33,2.33,0,0,0,1.452,1.114c.544.074,1.073.213,1.626.237a5.131,5.131,0,0,0,2.363-.557,3.347,3.347,0,0,0,1.876-2.214,5.68,5.68,0,0,0-.024-2.418c-.288-1.705-.681-3.4-1.12-5.069a2.431,2.431,0,0,0-4.687,1.292Z" transform="translate(-201.999 -5295.615)" fill="#211715"/>
                <path id="パス_731" data-name="パス 731" d="M349.068,5389.6c-.867,2.808-.3,9.269,5.014,9.824,7.032-.038,7.411-7.849,5.044-11.522C357.19,5384.889,351.492,5383.632,349.068,5389.6Z" transform="translate(-201.167 -5295.113)" fill="#211715"/>
                <path id="パス_732" data-name="パス 732" d="M406.566,5389.628c.863,2.809.3,9.27-5.025,9.816-7.032-.046-7.4-7.858-5.034-11.529C398.448,5384.911,404.147,5383.662,406.566,5389.628Z" transform="translate(-202.584 -5295.114)" fill="#211715"/>
              </g>
            </g>
          </g>
          <path id="パス_733" data-name="パス 733" d="M198.654,5540.067c-.323-.88-.571-1.542-.693-1.81,2.633-.972,24.15-8.846,32.815-13.283.9,1.79,2.714,6.032,3.944,8.623-9.744,4.972-23.052,10.992-33.238,14.038C200.592,5545.444,199.422,5542.149,198.654,5540.067Z" transform="translate(-144.728 -5228.297)" fill="#fff"/>
          <path id="パス_734" data-name="パス 734" d="M186.905,5454.176c1.705,4.687,3.708,10.213,5.178,13.941l.757,2.113a28.6,28.6,0,0,1,6.865.417,17.226,17.226,0,0,1,3.28.917c-.754-2.178-1.542-4.456-1.542-4.456-1.362-3.739-5.108-13.47-7.628-19.859a3.413,3.413,0,0,0-4.419-1.934c-.783.311-1.563.642-2.319.961a3.022,3.022,0,0,0-1.661,3.828C185.867,5451.323,186.373,5452.712,186.905,5454.176Z" transform="translate(-144.339 -5225.862)" fill="#a0a0a0"/>
          <path id="パス_735" data-name="パス 735" d="M218.812,5484.066c-2.311-2.507-4.419-4.776-5.208-8.384-.874-4-3-9.246-7.246-9.5-2.815-.165-3.686,1.984-4.061,3.249,0,0-.27.912-.709,2.406a18.458,18.458,0,0,0-2.248-.55c-7.364-1.351-15.411.279-15.674,4.086-.3,1.739.079,3.3,1.3,5.859a4.141,4.141,0,0,0-.562.506c-1.273,1.373-2.17,5.01-1.19,5.8l1.147,2.051a4.993,4.993,0,0,0-5.328,1.358c-1.512,1.655-2.664,5.226-.84,6.529.8.569,1.5,1.142,2.18,1.7h-.093c-3.061-1.062-7.312,1.638-7.059,4.436.194,2.146,1.9,4.147,3.652,5.542.129.1.26.2.392.3a48.7,48.7,0,0,0,12.793,15.184c1.317,1.036,2.7,2,3.973,3.095a27.146,27.146,0,0,1,5.4,6.261l.785,1.361c6.092-2.263,19.3-7.247,27.161-10.891-.09-1.151-.149-1.929-.149-1.929-1.125-14.868-1.663-29.326-4.31-33.424A36.855,36.855,0,0,0,218.812,5484.066Z" transform="translate(-143.973 -5226.505)" fill="#fff"/>
          <path id="パス_736" data-name="パス 736" d="M145.969,5343.2c.125.311.778,1.913,1.852,4.558a2.735,2.735,0,0,0,3.544,1.519l3.083-1.235a2.736,2.736,0,0,0,1.519-3.546c-1.045-2.642-1.385-3.493-1.811-4.549-.949-2.359-4.082-4.464-6.115-3.795C146.29,5336.721,144.855,5340.453,145.969,5343.2Z" transform="translate(-143.13 -5222.536)" fill="#f3736f"/>
          <path id="パス_737" data-name="パス 737" d="M203.746,5546.9c-1.317-3.289-2.338-6.706-3.76-9.949l-1.45,3.571c8.727-3.208,17.433-6.5,25.989-10.141,2.5-1.064,4.989-2.157,7.408-3.391l-3.326-.874c1.4,2.836,2.6,5.764,3.95,8.62a2.453,2.453,0,0,0,3.326.872,2.484,2.484,0,0,0,.872-3.325c-1.353-2.856-2.555-5.784-3.95-8.619a2.473,2.473,0,0,0-3.325-.874c-8.977,4.585-18.628,7.984-28.071,11.5q-2.08.776-4.164,1.54a2.482,2.482,0,0,0-1.452,3.569c-.245-.56-.108-.259.021.083q.161.427.322.86.457,1.242.911,2.489c.654,1.793,1.309,3.585,2.017,5.357a2.506,2.506,0,0,0,2.99,1.7,2.446,2.446,0,0,0,1.7-2.989Z" transform="translate(-144.652 -5228.222)" fill="#211715"/>
          <path id="パス_738" data-name="パス 738" d="M186.229,5507.412c.046.063.087.127.131.192.142.209,0,.252.051.069.028-.1-.043-.2-.016.022.013.114.134.273.021.016-.127-.29,0-.025,0,.119,0,.092,0,.185,0,.278a2.244,2.244,0,0,0-.015.281c.026.271.109-.427,0,.019-.047.189-.081.381-.137.568-.035.124-.079.245-.118.368-.016.05-.142.347-.019.066s-.166.3-.2.374a1.321,1.321,0,0,0-.142.224c-.072.235.25-.235.075-.09-.237.2-.4.292-.054.109-.2.109-.43.239-.616.364-.213.145.04,0,.093-.026-.1.042-.2.078-.3.113a7,7,0,0,1-.864.232q-.167.034-.335.062c.113-.018.44-.027-.03-.014-.225.008-.448.018-.673.009a4.131,4.131,0,0,1-.44-.031c.054,0,.365.09.112,0-.29-.1-.591-.153-.882-.26-.259-.1-.087-.029-.031-.006-.122-.052-.241-.112-.36-.17q-.416-.207-.818-.443a18.663,18.663,0,0,1-1.56-1.04c-.143-.1-.288-.212-.43-.322.047.036.176.139-.038-.031s-.449-.361-.665-.551a14.959,14.959,0,0,1-1.234-1.237c.006.007-.261-.3-.127-.141s-.113-.156-.111-.151c-.164-.235-.32-.475-.462-.724-.056-.1-.355-.768-.215-.393a6.131,6.131,0,0,1-.254-.9c.069.333.022.026.014-.14-.02-.378-.157.443.034-.082.028-.077.058-.159.08-.239-.015.051-.222.373-.069.193.057-.068.444-.651.246-.42s.007,0,.043-.033c.111-.109.221-.223.331-.332.067-.068.143-.126.212-.189-.24.218-.163.11.051-.027.193-.125.387-.248.59-.356.117-.062.238-.115.356-.177-.186.1-.275.1-.027.019s.507-.162.764-.221c.1-.021.195-.032.291-.055.31-.08-.543,0,.034.011.224,0,.454.019.676.015.3,0-.332-.16-.079,0a2.67,2.67,0,0,0,3.443-1.556l.006-.014a2.485,2.485,0,0,0-1.7-2.989,8.451,8.451,0,0,0-8.126,2.164,6.4,6.4,0,0,0-1.988,3.961,7.476,7.476,0,0,0,1.277,4.526,14.158,14.158,0,0,0,3.276,3.555,20.072,20.072,0,0,0,4.2,2.735c3.026,1.344,6.876,1.245,9.467-1.042,2.167-1.911,3.251-6.253,1.464-8.724a2.487,2.487,0,0,0-3.325-.872,2.458,2.458,0,0,0-.872,3.327Z" transform="translate(-143.897 -5227.459)" fill="#211916"/>
          <path id="パス_739" data-name="パス 739" d="M187.368,5488.85a9.34,9.34,0,0,0-6.473-1.074,7.609,7.609,0,0,0-4.439,3.27,8.9,8.9,0,0,0-1.562,5.28,5.135,5.135,0,0,0,.827,2.618,11.645,11.645,0,0,0,2.549,2.242c2.463,1.994,5.071,3.79,7.621,5.672a20.074,20.074,0,0,0,3.361,2.16,7.794,7.794,0,0,0,5.442.277,7.091,7.091,0,0,0,4.823-4.254,7.518,7.518,0,0,0-.969-7.133,2.5,2.5,0,0,0-3.324-.872,2.45,2.45,0,0,0-.873,3.326,5.275,5.275,0,0,1,.689,1.15c-.043-.114.159.767.116.446a2.242,2.242,0,0,1-.238,1.576c.167-.385-.161.217-.218.319-.185.329.236-.284,0,.015-.036.046-.362.373-.166.2a3.065,3.065,0,0,1-1.255.575c-.164.044-.331.078-.5.113-.411.084.3-.017-.1.017-.287.023-.566.013-.852.019-.467.01-.162-.019-.035.011a1.315,1.315,0,0,1-.22-.053c-.557-.245.364.223-.147-.062a27.41,27.41,0,0,1-2.627-1.693q-2.552-1.846-5.11-3.671c-1.317-.942-2.6-2.3-3.905-3.063-.018-.01-.089-.252-.046-.018s.082-.011-.025-.074c.035.02.234.334.039.026-.174-.276,0-.181,0,.031,0-.165.066-.906-.01-.468a6.526,6.526,0,0,1,.233-.92c.048-.15.1-.3.164-.453-.148.352.073-.122.107-.182a8.482,8.482,0,0,1,.542-.88c-.271.367.321-.3.416-.394.27-.256-.283.173.032-.026.157-.1.315-.191.476-.283.089-.053.41-.142.041-.021.145-.048.3-.083.441-.129.414-.133.195-.042.058-.029a5.327,5.327,0,0,1,.624-.016,2.341,2.341,0,0,1,.838.144,6.1,6.1,0,0,1,1.207.485,2.49,2.49,0,0,0,3.326-.873,2.457,2.457,0,0,0-.872-3.326Z" transform="translate(-144.024 -5227.159)" fill="#211916"/>
          <path id="パス_740" data-name="パス 740" d="M195.905,5495.194c-2.872-2.33-5.661-4.752-8.483-7.138q-.8-.671-1.6-1.333a4.631,4.631,0,0,0-.474-.386c-.238-.144-.218-.365.018.146.26.557.112.331.077.167.132.608.011.1.011-.086,0-.142.012-.282.02-.422-.03.476,0-.025.035-.152.084-.36.17-.715.289-1.064a4.6,4.6,0,0,1,.171-.463c-.145.338.025-.022.052-.074.088-.166.184-.326.279-.488s.075-.126-.079.069a2.735,2.735,0,0,1,.222-.242,3.193,3.193,0,0,1,3.366-.466c-.1-.039-.453-.236.247.12.2.1.405.212.608.322q.662.356,1.3.743a25.181,25.181,0,0,1,2.466,1.667,29.242,29.242,0,0,1,3.7,3.506,11.967,11.967,0,0,1,2.362,3.932c.036.1.113.607.073.193a3.134,3.134,0,0,1-.015.75c.069-.454-.3.83-.165.519a4.251,4.251,0,0,1-.245.471c0-.011-.4.6-.226.376a4.494,4.494,0,0,1-.354.386c-.016.016-.564.444-.3.266a3.193,3.193,0,0,1-.43.25c.284-.126-.395-.012-.1.008a2.76,2.76,0,0,1-.666-.132,8.463,8.463,0,0,1-2.173-1.445,2.5,2.5,0,0,0-3.444,0,2.449,2.449,0,0,0,0,3.438c1.87,1.519,3.993,3.166,6.554,2.983a7.136,7.136,0,0,0,5.677-4.388c2.173-4.875-1.417-9.538-4.816-12.789a31.122,31.122,0,0,0-5.881-4.44c-2.35-1.364-4.716-2.222-7.456-1.641a7.228,7.228,0,0,0-5.17,4.589c-.735,1.791-1.265,4.218-.2,5.99a10.521,10.521,0,0,0,2.438,2.24c.847.709,1.685,1.431,2.524,2.15,2.092,1.792,4.2,3.569,6.337,5.306a2.507,2.507,0,0,0,3.444,0A2.45,2.45,0,0,0,195.905,5495.194Z" transform="translate(-144.197 -5226.872)" fill="#211916"/>
          <path id="パス_741" data-name="パス 741" d="M205.48,5470.005c.049-.164.1-.325.158-.485.127-.353-.159.3.02-.053.2-.406.213-.468.405-.646a1.519,1.519,0,0,1,1.41-.23c1.487.317,2.474,1.869,3.169,3.242a35.843,35.843,0,0,1,1.763,5.548,18.065,18.065,0,0,0,3.462,6c1.424,1.729,3.046,3.285,4.457,5.026a15.888,15.888,0,0,1,1.507,2.14c.063.11.37.77.285.562-.064-.152.225.654.285.849a55.856,55.856,0,0,1,1.824,11.581c.577,6.295.934,12.61,1.408,18.915a2.492,2.492,0,0,0,2.431,2.431,2.45,2.45,0,0,0,2.431-2.431c-.468-6.235-.823-12.48-1.388-18.708-.405-4.464-.688-9.246-2.164-13.519-1.51-4.375-5.323-7.175-8.018-10.764-1.459-1.942-1.9-3.937-2.569-6.213a17.869,17.869,0,0,0-3.3-6.567,7.94,7.94,0,0,0-7.252-2.911c-2.655.425-4.253,2.491-5.006,4.934-.918,3,3.772,4.28,4.688,1.293Z" transform="translate(-144.811 -5226.43)" fill="#211916"/>
          <path id="パス_742" data-name="パス 742" d="M198.945,5482.022c.455,3.84,1.789,7.369,2.979,11.02,1.1,3.366,1.994,6.888.974,10.385-.878,3.009,3.812,4.295,4.688,1.292,1.14-3.905.55-7.968-.607-11.8-1.085-3.6-2.728-7.139-3.173-10.9a2.508,2.508,0,0,0-2.431-2.431,2.446,2.446,0,0,0-2.432,2.431Z" transform="translate(-144.758 -5226.914)" fill="#211916"/>
          <path id="パス_743" data-name="パス 743" d="M196.3,5483.385c3.5.554,8.214,1.013,11.142-1.468a6.488,6.488,0,0,0,.5-9.162,6.4,6.4,0,0,0-.576-.567c-3.219-2.855-7.942-3.59-12.1-3.713-3.609-.109-7.958.26-11.01,2.405a7.051,7.051,0,0,0-1.981,2,5.182,5.182,0,0,0-.578,1.271c-.052.179-.252,1.519-.173.934a12.635,12.635,0,0,0,1.483,7.227,2.45,2.45,0,0,0,3.325.872,2.486,2.486,0,0,0,.872-3.326,8.077,8.077,0,0,1-.956-3.572c0-.108.175-1.079.077-.7-.11.426.216-.493.044-.115s.31-.417.091-.131c-.194.251.519-.472.318-.308a4.542,4.542,0,0,0,.429-.271q.327-.195.671-.355a14.485,14.485,0,0,1,1.557-.505,18.226,18.226,0,0,1,4-.55c2.978-.1,6.38.1,9.1,1.433.27.132.536.278.793.436.074.045.571.379.405.251a5.819,5.819,0,0,1,.63.593c.192.2.015-.006-.016-.051a3.455,3.455,0,0,1,.234.363,1.656,1.656,0,0,1,.2.7,1.289,1.289,0,0,1-.31,1.012,2.309,2.309,0,0,1-.943.551,3.949,3.949,0,0,1-.452.1c-.132.027-.822.124-.388.071a18.738,18.738,0,0,1-5.1-.1,2.506,2.506,0,0,0-2.99,1.7,2.449,2.449,0,0,0,1.7,2.989Z" transform="translate(-144.225 -5226.574)" fill="#211916"/>
          <path id="パス_744" data-name="パス 744" d="M176.369,5514a51.683,51.683,0,0,0,9.837,11.85c1.983,1.755,4.182,3.23,6.193,4.946a25.62,25.62,0,0,1,5.015,5.772c1.671,2.634,5.881.2,4.2-2.453a30.356,30.356,0,0,0-5.183-6.232c-1.964-1.778-4.194-3.235-6.2-4.961a47.357,47.357,0,0,1-9.658-11.374c-1.621-2.67-5.829-.23-4.2,2.453Z" transform="translate(-144.058 -5227.854)" fill="#211916"/>
          <path id="パス_745" data-name="パス 745" d="M150.827,5349.538c3.866,10.192,7.6,20.435,11.357,30.67q8.025,21.89,15.873,43.845c2.3,6.462,4.586,12.931,6.778,19.431.995,2.949,5.692,1.684,4.689-1.293-4.344-12.881-8.982-25.665-13.607-38.45q-7.545-20.851-15.239-41.654c-1.709-4.618-3.416-9.238-5.166-13.841a2.5,2.5,0,0,0-2.991-1.7A2.45,2.45,0,0,0,150.827,5349.538Z" transform="translate(-143.288 -5222.854)" fill="#211715"/>
          <path id="パス_746" data-name="パス 746" d="M143.545,5343.767q.534,1.316,1.069,2.633c.757,1.862,1.35,3.865,3.286,4.831a5.322,5.322,0,0,0,3.355.479,13.265,13.265,0,0,0,2.578-.937,9.534,9.534,0,0,0,3-1.549,5.143,5.143,0,0,0,1.5-2.475c.492-1.9-.321-3.532-1-5.25-.42-1.056-.8-2.155-1.3-3.175-1.429-2.937-5.367-5.631-8.72-4.6-1.945.6-3.11,2.423-3.758,4.243a8.681,8.681,0,0,0-.02,5.8,2.487,2.487,0,0,0,2.99,1.7,2.455,2.455,0,0,0,1.7-2.989,8.842,8.842,0,0,1-.268-.885c-.12-.45-.02.038,0,.1a1.693,1.693,0,0,1-.032-.464,7.075,7.075,0,0,1,.022-.836c.037-.6-.092.369,0,.006.045-.177.071-.358.116-.534.028-.11.283-.656.242-.76.075.188-.211.4-.008.033.066-.119.125-.243.194-.36.052-.091.114-.177.167-.269.247-.431-.3.26-.064.074a2.215,2.215,0,0,0,.242-.258c.285-.324-.457.294-.083.057.025-.017.213-.122.214-.12.024.134-.653.2-.157.1.319-.065-.645-.008-.139.02.1.006.2,0,.3,0,.455-.005-.177.017-.18-.03,0,0,.444.106.476.117a1.4,1.4,0,0,1,.32.108c-.286-.127-.346-.154-.181-.077.08.037.16.075.238.115.271.141.52.305.778.469.1.064.334.285-.048-.047.093.081.191.159.283.241.234.2.439.433.654.658.3.313.016.009-.035-.063.1.146.207.292.3.445s.169.305.253.462c.111.2.034.344-.067-.172a2.612,2.612,0,0,0,.172.425q.208.518.415,1.039c.442,1.105.878,2.213,1.3,3.328.147.393-.092-.167-.008-.134,0,0,.012.65.019.185.009-.449.02.162-.062.169-.036,0,.317-.539.048-.12-.071.11-.346.347-.094.168.36-.253-.194.126-.161.121,0,0,.506-.292.066-.083-.552.258.549-.2-.211.1-.715.281-1.425.57-2.139.856-.211.086-.423.183-.641.252a2.716,2.716,0,0,0-.34.086c.11-.119.479-.044.135-.039-.517.006.429.154-.022,0-.527-.18.423.314-.042,0l-.144-.084c-.218-.146-.189-.122.089.077-.031.006-.239-.264-.238-.246.182.246.225.291.128.14a2.09,2.09,0,0,1-.128-.23c.238.4-.014-.042-.064-.164l-.265-.647-.429-1.052-.923-2.269a2.494,2.494,0,0,0-2.99-1.7A2.455,2.455,0,0,0,143.545,5343.767Z" transform="translate(-143.053 -5222.459)" fill="#211715"/>
          <path id="パス_747" data-name="パス 747" d="M194.354,5467.4c-1.23-3.129-2.387-6.288-3.541-9.445q-.932-2.55-1.858-5.1l-.8-2.182c-.2-.535-.675-1.365-.567-1.867.1-.464,2.365-1.338,2.914-1.37a.93.93,0,0,1,.882.428,9.221,9.221,0,0,1,.691,1.694q1.863,4.747,3.689,9.506c1.1,2.867,2.2,5.732,3.258,8.617a2.493,2.493,0,0,0,2.989,1.7,2.451,2.451,0,0,0,1.7-2.99c-2.431-6.655-4.952-13.3-7.628-19.859a5.976,5.976,0,0,0-4.992-3.912,5.911,5.911,0,0,0-2.808.438,13.11,13.11,0,0,0-3.553,1.736c-3.706,3.022-1.095,7.625.2,11.182,1.546,4.253,3.08,8.508,4.735,12.723a2.5,2.5,0,0,0,2.99,1.7,2.449,2.449,0,0,0,1.7-2.991Z" transform="translate(-144.266 -5225.785)" fill="#211715"/>
          <path id="パス_748" data-name="パス 748" d="M272.521,5507.607c1.445-2.982,3.473-6.392,6.388-8.137a29.278,29.278,0,0,1,4.533-2.026c1.73-.673,3.4-1.452,5.07-2.246,3.545-1.678,7.119-3.289,10.707-4.866,8.1-3.561,16.283-6.945,24.451-10.352a2.512,2.512,0,0,0,1.7-2.991,2.446,2.446,0,0,0-2.99-1.7l0,0c-7.528,3.14-15.064,6.262-22.549,9.506-3.736,1.62-7.46,3.269-11.155,4.979-1.733.8-3.444,1.681-5.192,2.443-1.7.741-3.468,1.326-5.165,2.09-7.546,3.4-10.641,11.791-13.242,19.041s-4.76,14.609-6.878,22c-2.477,8.657-5.115,17.25-8.329,25.666a2.45,2.45,0,0,0,1.7,2.991,2.486,2.486,0,0,0,2.99-1.7c5.4-14.135,8.829-28.852,13.646-43.172a97.772,97.772,0,0,1,4.312-11.532" transform="translate(-146.308 -5226.78)" fill="#211715"/>
          <path id="パス_749" data-name="パス 749" d="M203.273,5550.2,200,5551.565s17.743,86.533,43.675,79.708c9.828,3,26.206-8.462,36.852-24.021" transform="translate(-144.79 -5229.067)" fill="#bdbdbd"/>
          <path id="パス_750" data-name="パス 750" d="M259.554,5578.58c-6.995-15.481-13.386-31.212-19.8-46.94a2.479,2.479,0,0,0-3.09-1.657,2.519,2.519,0,0,0-.482.2q-9.9,5.21-20.217,9.607a114.763,114.763,0,0,1-20.006,6.88,2.454,2.454,0,0,0-1.7,2.991c3.779,12.106,7.413,24.261,11.648,36.22,2.143,6.05,4.446,12.041,6.968,17.943a148.526,148.526,0,0,0,6.482,13.761c4.565,8.229,11.266,15.7,21,17.265,10.556,1.693,21.527-2.5,29.256-9.645,7.633-7.054,14.415-15.208,20.864-23.341a2.509,2.509,0,0,0,0-3.437,2.45,2.45,0,0,0-3.438,0,248.935,248.935,0,0,1-17.855,20.409,40.48,40.48,0,0,1-10.432,8.1,30.8,30.8,0,0,1-14.376,3.434,20.4,20.4,0,0,1-11.841-4.019,32.259,32.259,0,0,1-8.1-9.673,118.619,118.619,0,0,1-6.194-12.619c-2.426-5.511-4.626-11.115-6.68-16.775-4.653-12.824-8.551-25.9-12.614-38.918l-1.7,2.99c7.165-1.576,14.063-4.356,20.8-7.211q10.492-4.448,20.593-9.766l-3.572-1.454c6.569,16.118,13.119,32.238,20.287,48.1a2.447,2.447,0,0,0,3.324.872,2.488,2.488,0,0,0,.872-3.326Z" transform="translate(-144.613 -5228.448)" fill="#211715"/>
        </g>
      </g>
      <g id="グループ_35" data-name="グループ 35" transform="translate(343.614 32.173)">
        <path id="パス_751" data-name="パス 751" d="M561.409,5305.9a37.982,37.982,0,0,1-6.771,12.265,31.558,31.558,0,0,1-10.5,8.211,30.663,30.663,0,0,1-13.6,2.986,31.106,31.106,0,0,1-13.6-2.933,30.4,30.4,0,0,1-10.451-8.158,37.844,37.844,0,0,1-6.665-12.211,49.852,49.852,0,0,1,.053-30.394,37.89,37.89,0,0,1,6.772-12.317,31.576,31.576,0,0,1,10.5-8.212,30.663,30.663,0,0,1,13.6-2.986,31.14,31.14,0,0,1,13.6,2.933,30.47,30.47,0,0,1,10.451,8.159,37.788,37.788,0,0,1,6.665,12.264,47.638,47.638,0,0,1,2.346,15.143A46.937,46.937,0,0,1,561.409,5305.9Zm-15.623-24.528a25.483,25.483,0,0,0-3.306-7.572,16.166,16.166,0,0,0-5.172-5.012,13.631,13.631,0,0,0-13.491-.054,15.986,15.986,0,0,0-5.119,4.906,23.8,23.8,0,0,0-3.253,7.519,38.191,38.191,0,0,0-1.121,9.491,36.521,36.521,0,0,0,1.173,9.492,25.384,25.384,0,0,0,3.307,7.572,16.141,16.141,0,0,0,5.172,5.012,13.629,13.629,0,0,0,13.491.053,15.823,15.823,0,0,0,5.119-4.959,24.571,24.571,0,0,0,3.253-7.519,37.556,37.556,0,0,0,1.12-9.438A36.563,36.563,0,0,0,545.786,5281.372Z" transform="translate(-497.476 -5252.15)" fill="#c8c9ca"/>
        <path id="パス_752" data-name="パス 752" d="M601.411,5252.921h11.2v75.185H596.4v-58.548l-13.011,3.2-3.413-13.438Z" transform="translate(-499.992 -5252.175)" fill="#c8c9ca"/>
      </g>
    </g>
  </g>
</svg>
