<svg xmlns="http://www.w3.org/2000/svg" width="11" height="19.996" viewBox="0 0 11 19.996">
  <g id="グループ_114" data-name="グループ 114" transform="translate(499.073 376.587) rotate(180)">
    <path id="線_21" data-name="線 21" d="M.1,10.047a1.1,1.1,0,0,1-.78-.324,1.11,1.11,0,0,1,0-1.566l8.8-8.833a1.1,1.1,0,0,1,1.559,0,1.11,1.11,0,0,1,0,1.566L.882,9.723A1.1,1.1,0,0,1,.1,10.047Z" transform="translate(489.073 366.54)" fill="#002063"/>
    <path id="線_22" data-name="線 22" d="M8.9,10.047a1.1,1.1,0,0,1-.78-.324L-.677.89a1.11,1.11,0,0,1,0-1.566,1.1,1.1,0,0,1,1.559,0l8.8,8.833a1.11,1.11,0,0,1,0,1.566A1.1,1.1,0,0,1,8.9,10.047Z" transform="translate(489.073 357.591)" fill="#002063"/>
  </g>
</svg>
